!channels=1+2+3+4
!octaves=0+0+0+0

|B-601v25TED|B-301v21...|B-501v24...|B-401v21...
|===........|===........|===........|===........
|...........|...........|...........|...........
|...........|...........|...........|...........
|...........|...........|...........|...........
|F#601v21...|...........|...........|...........
|===........|F#401v22...|...........|...........
|...........|===........|...........|...........
|...........|...........|...........|...........
|...........|...........|...........|...........
|...........|...........|...........|...........
|B-501v25...|B-601v27...|...........|...........
|...........|...........|B-301v26...|B-401v26...
|...........|...........|...........|...........
|...........|...........|...........|...........
|...........|...........|...........|...........
|...........|...........|...........|...........
|...........|...........|...........|...........
|...........|...........|...........|...........
|...........|...........|...........|...........
|...........|...........|===........|...........
|===........|...........|...........|===........
|...........|===........|...........|...........
|B-301v23...|B-601v24...|B-501v23...|B-401v23...
|...........|===........|===........|===........
|===........|...........|...........|...........
|...........|...........|...........|...........
|...........|...........|...........|...........
|...........|...........|...........|...........
|G-401v29...|G-601v24...|...........|...........
|===........|===........|...........|...........
|...........|...........|...........|...........
|...........|...........|...........|...........
|...........|...........|...........|...........
|...........|...........|...........|...........
|B-601v32...|B-501v32...|B-401v32...|B-301v29...
|...........|...........|...........|...........
|...........|...........|...........|...........
|...........|...........|...........|...........
|...........|...........|...........|...........
|...........|...........|...........|...........
|...........|...........|...........|...........
|...........|...........|...........|...........
|...........|...........|===........|...........
|...........|...........|...........|===........
|===........|===........|...........|...........
|B-601v29...|B-401v25...|...........|...........
|...........|...........|...........|...........
|===........|===........|...........|...........
|...........|...........|...........|...........
|...........|...........|...........|...........
|B-301v26...|B-501v25...|...........|...........
|...........|...........|...........|...........
|B-301v26...|B-501v25...|...........|...........
|...........|...........|...........|...........
|...........|...........|...........|...........
|...........|...........|...........|...........
|D#601v25...|D#401v22...|...........|...........
|===........|...........|...........|...........
|...........|===........|...........|...........
|...........|...........|...........|...........
|...........|...........|...........|...........
|F#601v27...|F#401v25...|...........|...........
|===........|===........|...........|...........
|...........|...........|...........|...........
|...........|...........|...........|...........
|...........|...........|...........|...........
|...........|...........|...........|...........
|B-601v32...|B-301v21...|B-401v27...|B-501v29...
|...........|...........|===........|===........
|===........|===........|...........|...........
|...........|...........|...........|...........
|...........|...........|...........|...........
|...........|...........|...........|...........
|...........|...........|...........|...........
|...........|...........|...........|...........
|...........|...........|...........|...........
|...........|...........|...........|...........
|...........|...........|...........|...........
|B-301v32...|B-201v32...|...........|...........
|...........|...........|...........|...........
|===........|===........|...........|...........
|...........|...........|...........|...........
|...........|...........|...........|...........
|...........|...........|...........|...........
|...........|...........|...........|...........
|...........|...........|...........|...........
|...........|...........|...........|...........
|...........|...........|...........|...........
|E-601v11...|...........|...........|...........
|...........|G-601v12...|...........|...........
|===........|...........|B-601v17...|...........
|E-401v19...|===........|===........|E-701v34...
|...........|...........|...........|===........
|...........|...........|...........|...........
|===........|...........|...........|...........
|...........|...........|...........|...........
|...........|...........|...........|...........
|G-401v15...|B-401v11...|...........|...........
|===........|===........|...........|...........
|...........|...........|...........|...........
|...........|...........|...........|...........
|...........|...........|...........|...........
|E-601v17...|E-501v15...|...........|...........
|...........|===........|E-401v07...|...........
|===........|...........|===........|...........
|...........|...........|...........|...........
|...........|...........|...........|...........
|...........|...........|...........|...........
|F#501v20...|F#601v23...|B-401v09...|G-401v08...
|===........|...........|===........|===........
|...........|===........|...........|...........
|...........|...........|...........|...........
|...........|...........|...........|...........
|G-501v19...|G-601v21...|...........|...........
|...........|...........|E-401v14...|...........
|===........|===........|===........|...........
|...........|...........|...........|...........
|...........|...........|...........|...........
|...........|...........|...........|...........
|B-401v11...|G-401v10...|...........|...........
|===........|===........|...........|...........
|...........|...........|...........|...........
|...........|...........|...........|...........
|...........|...........|...........|...........
|B-601v21...|B-501v20...|E-401v15...|...........
|...........|===........|===........|...........
|===........|...........|...........|...........

ModPlug Tracker  IT
|...........|...........|...........|...........
|...........|...........|...........|...........
|...........|...........|...........|...........
|...........|...........|...........|...........
|G-401v11...|B-401v09...|...........|...........
|===........|===........|...........|...........
|...........|...........|...........|...........
|...........|...........|...........|...........
|...........|...........|...........|...........
|C-601v21...|C-701v21...|E-401v16...|...........
|===........|===........|...........|...........
|...........|...........|===........|...........
|...........|...........|...........|...........
|...........|...........|...........|...........
|...........|...........|...........|...........
|C-501v11...|A-401v08...|...........|...........
|===........|===........|...........|...........
|...........|...........|...........|...........
|...........|...........|...........|...........
|...........|...........|...........|...........
|E-701v31...|E-601v26...|E-401v19...|...........
|===........|===........|...........|...........
|...........|...........|===........|...........
|...........|...........|...........|...........
|...........|...........|...........|...........
|A-401v13...|...........|...........|...........
|===........|C-501v11...|...........|...........
|...........|===........|...........|...........
|...........|...........|...........|...........
|...........|...........|...........|...........
|...........|...........|...........|...........
|B-501v25...|B-601v23...|E-401v19...|...........
|...........|...........|...........|...........
|...........|...........|...........|...........
|...........|...........|===........|...........
|...........|...........|...........|...........
|...........|...........|...........|...........
|...........|...........|B-401v11...|G-401v11...
|...........|...........|===........|===........
|...........|...........|...........|...........
|...........|...........|...........|...........
|...........|...........|...........|...........
|...........|...........|...........|...........
|...........|...........|E-401v12...|...........
|...........|...........|...........|...........
|...........|...........|===........|...........
|...........|...........|...........|...........
|...........|...........|...........|...........
|...........|...........|...........|...........
|...........|...........|G-401v10...|B-401v04...
|...........|===........|===........|===........
|...........|...........|...........|...........
|===........|...........|...........|...........
|...........|...........|...........|...........
|...........|...........|...........|...........
|A-601v28...|A-301v15...|...........|...........
|...........|...........|...........|...........
|...........|...........|...........|...........
|...........|===........|A-501v24...|...........
|===........|...........|...........|...........
|E-601v25...|F#401v12...|...........|...........
|...........|...........|===........|...........
|===........|===........|...........|...........
|F#601v22...|...........|...........|...........
|...........|...........|...........|...........
|===........|...........|...........|...........
|A-301v13...|C-701v29...|...........|...........
|...........|...........|...........|...........
|...........|===........|...........|...........
|...........|...........|...........|...........
|===........|...........|...........|...........
|...........|...........|...........|...........
|F#401v13...|...........|...........|...........
|...........|E-401v11...|...........|...........
|===........|===........|...........|...........
|...........|...........|...........|...........
|...........|...........|...........|...........
|...........|...........|...........|...........
|B-301v15...|G-601v32...|...........|...........
|...........|...........|...........|...........
|...........|...........|...........|...........
|...........|...........|G-501v18...|...........
|===........|===........|...........|...........
|E-401v13...|G-401v10...|...........|B-501v19...
|===........|===........|===........|...........
|...........|...........|...........|...........
|E-601v23...|...........|...........|===........
|===........|...........|...........|...........
|...........|...........|...........|...........
|B-301v11...|B-601v25...|...........|...........
|...........|...........|...........|...........
|...........|===........|...........|...........
|...........|...........|...........|...........
|===........|...........|...........|...........
|...........|...........|...........|...........
|...........|...........|...........|...........
|G-401v15...|E-401v11...|...........|...........
|===........|===........|...........|...........
|...........|...........|...........|...........
|...........|...........|...........|...........
|...........|...........|...........|...........
|...........|...........|...........|...........
|F#601v29...|B-301v17...|...........|...........
|...........|...........|...........|...........
|F#501v29...|===........|...........|...........
|...........|...........|...........|...........
|...........|...........|...........|...........
|===........|A-401v12...|F#401v10...|D#601v23...
|...........|===........|===........|...........
|...........|...........|...........|===........
|F#601v25...|...........|...........|...........
|===........|...........|...........|...........
|...........|...........|...........|...........
|B-601v31...|B-301v14...|...........|...........
|===........|...........|...........|...........
|...........|...........|...........|...........
|...........|...........|...........|...........
|...........|===........|...........|...........
|A-401v16...|...........|...........|...........
|...........|F#401v08...|...........|...........
|===........|===........|...........|...........
|...........|...........|...........|...........
|...........|...........|...........|...........
|...........|...........|...........|...........
|E-401v20...|G-601v19...|G-401v05...|G-501v15...
|===........|...........|===........|===........
|...........|===........|...........|...........
|...........|...........|...........|...........

ModPlug Tracker  IT
|...........|...........|...........|...........
|...........|...........|...........|...........
|F#501v23...|F#601v23...|B-301v14...|A-401v10...
|===........|===........|===........|===........
|...........|...........|...........|...........
|...........|...........|...........|...........
|...........|...........|...........|...........
|...........|...........|...........|...........
|E-501v19...|E-601v20...|G-401v14...|E-401v14...
|===........|...........|===........|===........
|...........|===........|...........|...........
|...........|...........|...........|...........
|...........|...........|...........|...........
|...........|...........|...........|...........
|...........|...........|...........|...........
|...........|...........|...........|...........
|...........|...........|...........|...........
|...........|...........|...........|...........
|E-601v17...|...........|...........|...........
|...........|G-601v19...|B-601v20...|...........
|E-401v19...|===........|===........|E-701v37...
|...........|...........|...........|===........
|...........|...........|...........|...........
|...........|...........|...........|...........
|===........|...........|...........|...........
|G-401v19...|B-401v14...|...........|...........
|===........|===........|...........|...........
|...........|...........|...........|...........
|...........|...........|...........|...........
|...........|...........|...........|...........
|...........|...........|...........|...........
|E-601v19...|E-501v17...|E-401v11...|...........
|===........|===........|===........|...........
|...........|...........|...........|...........
|...........|...........|...........|...........
|...........|...........|...........|...........
|F#501v18...|F#601v21...|...........|...........
|===........|...........|B-401v08...|G-401v11...
|...........|===........|===........|===........
|...........|...........|...........|...........
|...........|...........|...........|...........
|...........|...........|...........|...........
|G-601v17...|G-501v11...|E-401v14...|...........
|===........|===........|===........|...........
|...........|...........|...........|...........
|...........|...........|...........|...........
|...........|...........|...........|...........
|G-401v12...|B-401v08...|...........|...........
|===........|===........|...........|...........
|...........|...........|...........|...........
|...........|...........|...........|...........
|...........|...........|...........|...........
|...........|...........|...........|...........
|B-601v18...|B-501v16...|E-401v12...|...........
|...........|===........|...........|...........
|===........|...........|===........|...........
|...........|...........|...........|...........
|...........|...........|...........|...........
|...........|...........|...........|...........
|...........|...........|...........|...........
|B-401v08...|G-401v08...|...........|...........
|===........|===........|...........|...........
|...........|...........|...........|...........
|...........|...........|...........|...........
|...........|...........|...........|...........
|C-701v17...|C-601v19...|E-401v14...|...........
|...........|===........|...........|...........
|===........|...........|===........|...........
|...........|...........|...........|...........
|...........|...........|...........|...........
|...........|...........|...........|...........
|C-501v11...|A-401v09...|...........|...........
|===........|===........|...........|...........
|...........|...........|...........|...........
|...........|...........|...........|...........
|...........|...........|...........|...........
|E-701v24...|...........|...........|...........
|...........|E-601v18...|E-401v14...|...........
|===........|===........|===........|...........
|...........|...........|...........|...........
|...........|...........|...........|...........
|...........|...........|...........|...........
|...........|...........|...........|...........
|A-401v11...|C-501v09...|...........|...........
|===........|===........|...........|...........
|...........|...........|...........|...........
|...........|...........|...........|...........
|...........|...........|...........|...........
|E-401v20...|...........|...........|...........
|...........|B-501v29...|B-601v29...|...........
|===........|...........|...........|...........
|...........|...........|...........|...........
|...........|...........|...........|...........
|...........|...........|...........|...........
|G-401v20...|...........|...........|B-401v13...
|===........|...........|...........|===........
|...........|...........|...........|...........
|...........|...........|...........|...........
|...........|...........|...........|...........
|E-401v19...|...........|...........|...........
|...........|...........|...........|...........
|===........|...........|...........|...........
|...........|...........|...........|...........
|...........|...........|...........|...........
|...........|...........|...........|...........
|...........|...........|...........|...........
|B-401v15...|...........|...........|G-401v15...
|===........|===........|===........|===........
|...........|...........|...........|...........
|...........|...........|...........|...........
|...........|...........|...........|...........
|...........|...........|...........|...........
|F#401v12...|B-501v22...|B-601v20...|...........
|===........|===........|===........|...........
|...........|...........|...........|...........
|...........|...........|...........|...........
|...........|...........|...........|...........
|A#501v23...|B-401v11...|...........|...........
|...........|===........|A#601v20...|...........
|===........|...........|===........|...........
|...........|...........|...........|...........
|...........|...........|...........|...........
|B-501v26...|B-601v27...|...........|...........
|...........|...........|F#401v18...|...........
|===........|===........|...........|...........
|...........|...........|===........|...........
|...........|...........|...........|...........
|...........|...........|...........|...........

!channels=1+2+3+6
|C#601v28...|C#701v26...|B-401v19...|D-501v16...|...........|...........
|===........|...........|...........|===........|...........|...........
|...........|===........|===........|...........|...........|...........
|...........|...........|...........|...........|...........|...........
|...........|...........|...........|...........|...........|...........
|D-701v33...|D-601v32...|...........|...........|...........|...........
|...........|...........|F#401v24...|...........|...........|...........
|===........|===........|...........|...........|...........|...........
|...........|...........|===........|...........|...........|...........
|...........|...........|...........|...........|...........|...........
|...........|...........|...........|...........|...........|...........
|C#601v32...|C#701v30...|D-501v18...|B-401v21...|...........|...........
|===........|...........|===........|===........|...........|...........
|...........|===........|...........|...........|...........|...........
|...........|...........|...........|...........|...........|...........
|...........|...........|...........|...........|...........|...........
|F#401v23...|D-701v29...|D-601v28...|...........|...........|...........
|...........|...........|...........|...........|...........|...........
|===........|===........|===........|...........|...........|...........
|...........|...........|...........|...........|...........|...........
|...........|...........|...........|...........|...........|...........
|...........|...........|...........|...........|...........|...........
|E-601v32...|E-701v38...|B-401v27...|D-501v25...|...........|...........
|===........|===........|===........|...........|...........|...........
|...........|...........|...........|===........|...........|...........
|...........|...........|...........|...........|...........|...........
|...........|...........|...........|...........|...........|...........
|...........|...........|...........|...........|...........|...........
|F#601v36...|F#701v33...|F#401v29...|E-501v33...|A#401v23...|...........
|...........|...........|...........|...........|...........|...........
|===........|===........|===........|===........|...........|...........
|...........|...........|...........|...........|===........|...........
|...........|...........|...........|...........|...........|...........
|...........|...........|...........|...........|...........|...........
|...........|...........|...........|...........|...........|...........
|...........|...........|...........|...........|...........|...........
|...........|...........|...........|...........|...........|...........
|...........|...........|...........|...........|...........|...........
|...........|...........|...........|...........|...........|...........
|C#601v32...|C#701v33...|...........|...........|...........|...........
|...........|...........|F#401v32...|E-501v32...|C#501v26...|...........
|===........|===........|...........|===........|...........|...........
|...........|...........|===........|...........|===........|...........
|...........|...........|...........|...........|...........|...........
|...........|...........|...........|...........|...........|...........
|F#701v35...|F#601v35...|...........|...........|...........|...........
|===........|===........|...........|...........|...........|...........
|...........|...........|...........|...........|...........|...........
|...........|...........|...........|...........|...........|...........
|...........|...........|...........|...........|...........|...........
|...........|...........|...........|...........|...........|...........
|B-401v29...|B-501v34...|D-501v27...|B-601v32...|...........|...........
|...........|===........|===........|...........|...........|...........
|===........|...........|...........|...........|...........|...........
|...........|...........|...........|===........|...........|...........
|...........|...........|...........|...........|...........|...........
|...........|...........|...........|...........|...........|...........
|...........|...........|...........|...........|...........|...........
|...........|...........|...........|...........|...........|...........
|...........|...........|...........|...........|...........|...........
|...........|...........|...........|...........|...........|...........
|...........|...........|...........|...........|...........|...........
|B-601v20...|...........|...........|...........|...........|...........
|...........|B-301v24...|D-701v25...|B-401v32...|F#701v32...|B-701v36...
|===........|...........|...........|...........|...........|...........
|...........|...........|===........|...........|===........|...........
|...........|===........|...........|===........|...........|===........
|...........|...........|...........|...........|...........|...........
|...........|...........|...........|...........|...........|...........
|...........|...........|...........|...........|...........|...........
|...........|...........|...........|...........|...........|...........
|...........|...........|...........|...........|...........|...........
|...........|...........|...........|...........|...........|...........
|...........|...........|...........|...........|...........|...........
|E-601v21...|G-601v26...|...........|...........|...........|...........
|...........|...........|B-601v27...|E-701v36...|E-401v25...|...........
|===........|===........|===........|...........|...........|...........
|...........|...........|...........|===........|...........|...........
|...........|...........|...........|...........|===........|...........
|...........|...........|...........|...........|...........|...........
|...........|...........|...........|...........|...........|...........
|G-401v18...|B-401v12...|...........|...........|...........|...........
|===........|===........|...........|...........|...........|...........
|...........|...........|...........|...........|...........|...........
|...........|...........|...........|...........|...........|...........
|...........|...........|...........|...........|...........|...........
|...........|...........|...........|...........|...........|...........
|E-501v18...|E-601v16...|E-401v14...|...........|...........|...........
|===........|===........|===........|...........|...........|...........
|...........|...........|...........|...........|...........|...........
|...........|...........|...........|...........|...........|...........
|...........|...........|...........|...........|...........|...........
|F#501v19...|F#601v19...|...........|...........|...........|...........
|...........|...........|B-401v07...|G-401v04...|...........|...........
|===........|===........|===........|===........|...........|...........
|...........|...........|...........|...........|...........|...........
|...........|...........|...........|...........|...........|...........
|...........|...........|...........|...........|...........|...........
|G-601v20...|G-501v11...|E-401v13...|...........|...........|...........
|===........|===........|...........|...........|...........|...........
|...........|...........|===........|...........|...........|...........
|...........|...........|...........|...........|...........|...........
|...........|...........|...........|...........|...........|...........
|B-401v08...|G-401v11...|...........|...........|...........|...........
|===........|===........|...........|...........|...........|...........
|...........|...........|...........|...........|...........|...........
|...........|...........|...........|...........|...........|...........
|...........|...........|...........|...........|...........|...........
|...........|...........|...........|...........|...........|...........
|B-501v17...|B-601v16...|E-401v13...|...........|...........|...........
|===........|...........|===........|...........|...........|...........
|...........|===........|...........|...........|...........|...........
|...........|...........|...........|...........|...........|...........
|...........|...........|...........|...........|...........|...........
|...........|...........|...........|...........|...........|...........
|G-401v10...|B-401v10...|...........|...........|...........|...........
|===........|...........|...........|...........|...........|...........
|...........|===........|...........|...........|...........|...........
|...........|...........|...........|...........|...........|...........
|...........|...........|...........|...........|...........|...........
|...........|...........|...........|...........|...........|...........
|C-601v19...|C-701v14...|E-401v13...|...........|...........|...........
|===........|===........|...........|...........|...........|...........
|...........|...........|===........|...........|...........|...........
|...........|...........|...........|...........|...........|...........
|...........|...........|...........|...........|...........|...........
|...........|...........|...........|...........|...........|...........
|C-501v06...|A-401v05...|...........|...........|...........|...........

!channels=1+2+3+4
ModPlug Tracker  IT
|===........|===........|...........|...........
|...........|...........|...........|...........
|...........|...........|...........|...........
|...........|...........|...........|...........
|E-701v21...|E-601v18...|E-401v13...|...........
|===........|===........|===........|...........
|...........|...........|...........|...........
|...........|...........|...........|...........
|...........|...........|...........|...........
|...........|...........|...........|...........
|C-501v08...|A-401v08...|...........|...........
|===........|===........|...........|...........
|...........|...........|...........|...........
|...........|...........|...........|...........
|...........|...........|...........|...........
|...........|...........|...........|...........
|B-501v25...|E-401v16...|B-601v25...|...........
|...........|===........|...........|...........
|...........|...........|...........|...........
|...........|...........|...........|...........
|...........|...........|...........|...........
|...........|B-401v14...|...........|G-401v14...
|...........|===........|...........|===........
|...........|...........|...........|...........
|...........|...........|...........|...........
|...........|...........|...........|...........
|...........|...........|...........|...........
|...........|E-401v15...|...........|...........
|...........|===........|...........|...........
|...........|...........|===........|...........
|...........|...........|...........|...........
|...........|...........|...........|...........
|===........|...........|...........|...........
|G-401v10...|B-401v10...|...........|...........
|===........|===........|...........|...........
|...........|...........|...........|...........
|...........|...........|...........|...........
|...........|...........|...........|...........
|...........|...........|...........|...........
|A-301v18...|A-601v29...|...........|...........
|...........|...........|...........|...........
|A-501v22...|...........|...........|...........
|...........|===........|...........|...........
|...........|F#401v11...|...........|...........
|===........|===........|E-601v20...|...........
|...........|...........|===........|...........
|F#601v23...|...........|...........|...........
|...........|...........|...........|...........
|===........|...........|...........|...........
|A-301v11...|C-701v27...|...........|...........
|...........|...........|...........|...........
|...........|===........|...........|...........
|...........|...........|...........|...........
|===........|...........|...........|...........
|...........|...........|...........|...........
|F#401v14...|...........|...........|...........
|...........|E-401v09...|...........|...........
|===........|===........|...........|...........
|...........|...........|...........|...........
|...........|...........|...........|...........
|...........|...........|...........|...........
|G-601v32...|B-301v16...|...........|...........
|...........|...........|...........|...........
|...........|...........|...........|...........
|===........|===........|G-501v19...|...........
|...........|...........|...........|...........
|B-501v17...|...........|===........|...........
|...........|G-401v06...|E-401v07...|...........
|===........|===........|===........|...........
|E-601v20...|...........|...........|...........
|===........|...........|...........|...........
|...........|...........|...........|...........
|B-301v12...|B-601v19...|...........|...........
|...........|===........|...........|...........
|...........|...........|...........|...........
|===........|...........|...........|...........
|...........|...........|...........|...........
|...........|...........|...........|...........
|...........|...........|...........|...........
|G-401v12...|E-401v12...|...........|...........
|...........|===........|...........|...........
|===........|...........|...........|...........
|...........|...........|...........|...........
|...........|...........|...........|...........
|F#601v30...|B-301v19...|...........|...........
|...........|...........|...........|...........
|===........|...........|F#501v28...|...........
|...........|===........|...........|...........
|...........|...........|...........|...........
|D#601v23...|A-401v12...|F#401v05...|...........
|...........|===........|===........|...........
|...........|F#601v27...|...........|...........
|===........|...........|...........|...........
|...........|===........|...........|...........
|...........|...........|...........|...........
|B-601v34...|B-301v16...|...........|...........
|===........|...........|...........|...........
|...........|...........|...........|...........
|...........|...........|...........|...........
|...........|...........|...........|...........
|...........|===........|...........|...........
|A-401v18...|F#401v08...|...........|...........
|...........|===........|...........|...........
|===........|...........|...........|...........
|...........|...........|...........|...........
|...........|...........|...........|...........
|G-601v27...|G-501v28...|E-401v20...|G-401v18...
|===........|...........|===........|===........
|...........|===........|...........|...........
|...........|...........|...........|...........
|...........|...........|...........|...........
|...........|...........|...........|...........
|F#501v28...|F#601v28...|A-401v19...|...........
|===........|...........|===........|B-301v11...
|...........|===........|...........|===........
|...........|...........|...........|...........
|...........|...........|...........|...........
|...........|...........|...........|...........
|E-501v24...|E-601v16...|G-401v26...|E-401v25...
|===........|===........|...........|...........
|...........|...........|===........|===........
|...........|...........|...........|...........
|...........|...........|...........|...........
|...........|...........|...........|...........
|...........|...........|...........|...........
|...........|...........|...........|...........
|...........|...........|...........|...........
|...........|...........|...........|...........

ModPlug Tracker  IT
|E-601v15...|...........|...........|...........
|...........|G-601v21...|...........|...........
|E-401v25...|...........|B-601v23...|E-701v35...
|...........|===........|===........|...........
|===........|...........|...........|===........
|...........|...........|...........|...........
|...........|...........|...........|...........
|...........|...........|...........|...........
|G-401v26...|B-401v19...|...........|...........
|===........|===........|...........|...........
|...........|...........|...........|...........
|...........|...........|...........|...........
|...........|...........|...........|...........
|E-601v18...|E-501v16...|E-401v14...|...........
|===........|===........|...........|...........
|...........|...........|===........|...........
|...........|...........|...........|...........
|...........|...........|...........|...........
|...........|...........|...........|...........
|F#501v20...|F#601v19...|G-401v11...|...........
|...........|...........|===........|B-401v07...
|===........|===........|...........|===........
|...........|...........|...........|...........
|...........|...........|...........|...........
|G-501v15...|...........|...........|...........
|...........|G-601v16...|E-401v12...|...........
|===........|===........|...........|...........
|...........|...........|===........|...........
|...........|...........|...........|...........
|...........|...........|...........|...........
|G-401v12...|...........|...........|...........
|===........|B-401v08...|...........|...........
|...........|===........|...........|...........
|...........|...........|...........|...........
|...........|...........|...........|...........
|...........|...........|...........|...........
|B-501v20...|B-601v18...|E-401v12...|...........
|===........|...........|...........|...........
|...........|===........|===........|...........
|...........|...........|...........|...........
|...........|...........|...........|...........
|...........|...........|...........|...........
|G-401v12...|B-401v06...|...........|...........
|===........|...........|...........|...........
|...........|===........|...........|...........
|...........|...........|...........|...........
|...........|...........|...........|...........
|...........|...........|...........|...........
|C-601v17...|C-701v16...|E-401v16...|...........
|===........|===........|...........|...........
|...........|...........|===........|...........
|...........|...........|...........|...........
|...........|...........|...........|...........
|...........|...........|...........|...........
|A-401v11...|C-501v06...|...........|...........
|===........|===........|...........|...........
|...........|...........|...........|...........
|...........|...........|...........|...........
|...........|...........|...........|...........
|E-701v20...|E-601v18...|E-401v15...|...........
|===........|===........|...........|...........
|...........|...........|===........|...........
|...........|...........|...........|...........
|...........|...........|...........|...........
|...........|...........|...........|...........
|A-401v11...|C-501v07...|...........|...........
|===........|===........|...........|...........
|...........|...........|...........|...........
|...........|...........|...........|...........
|...........|...........|...........|...........
|...........|...........|...........|...........
|B-501v23...|E-401v16...|B-601v21...|...........
|...........|...........|...........|...........
|...........|===........|...........|...........
|...........|...........|...........|...........
|...........|...........|...........|...........
|...........|B-401v12...|...........|...........
|...........|===........|...........|G-401v14...
|...........|...........|...........|===........
|...........|...........|...........|...........
|...........|...........|...........|...........
|...........|...........|...........|...........
|...........|E-401v18...|...........|...........
|...........|...........|...........|...........
|...........|===........|...........|...........
|...........|...........|...........|...........
|...........|...........|...........|...........
|...........|...........|...........|...........
|...........|...........|...........|...........
|...........|B-401v12...|...........|G-401v12...
|...........|===........|===........|===........
|===........|...........|...........|...........
|...........|...........|...........|...........
|...........|...........|...........|...........
|F#401v12...|B-501v19...|B-601v16...|...........
|===........|===........|...........|...........
|...........|...........|===........|...........
|...........|...........|...........|...........
|...........|...........|...........|...........
|A#501v20...|...........|...........|...........
|...........|A#601v18...|D-501v07...|B-401v06...
|===........|===........|===........|===........
|...........|...........|...........|...........
|...........|...........|...........|...........
|...........|...........|...........|...........
|B-601v23...|B-501v22...|F#401v17...|...........
|===........|===........|...........|...........
|...........|...........|===........|...........
|...........|...........|...........|...........
|...........|...........|...........|...........
|...........|...........|...........|...........
|C#601v27...|C#701v25...|B-401v21...|D-501v18...
|===........|===........|===........|===........
|...........|...........|...........|...........
|...........|...........|...........|...........
|...........|...........|...........|...........
|F#401v25...|D-701v32...|D-601v32...|...........
|...........|...........|===........|...........
|===........|===........|...........|...........
|...........|...........|...........|...........
|...........|...........|...........|...........
|C#601v32...|...........|...........|...........
|...........|C#701v29...|D-501v23...|B-401v23...
|===........|===........|===........|===........
|...........|...........|...........|...........
|...........|...........|...........|...........
|...........|...........|...........|...........
|D-601v34...|F#401v24...|D-701v33...|...........

|===........|...........|===........|...........|...........|...........
|...........|===........|...........|...........|...........|...........
|...........|...........|...........|...........|...........|...........
|...........|...........|...........|...........|...........|...........
|E-601v33...|E-701v37...|B-401v26...|D-501v24...|...........|...........
|...........|...........|...........|...........|...........|...........
|===........|===........|===........|===........|...........|...........
|...........|...........|...........|...........|...........|...........
|...........|...........|...........|...........|...........|...........
|...........|...........|...........|...........|...........|...........
|F#601v32...|F#701v35...|F#401v31...|E-501v34...|A#401v26...|...........
|...........|...........|...........|...........|...........|...........
|===........|===........|...........|===........|...........|...........
|...........|...........|===........|...........|===........|...........
|...........|...........|...........|...........|...........|...........
|...........|...........|...........|...........|...........|...........
|...........|...........|...........|...........|...........|...........
|...........|...........|...........|...........|...........|...........
|...........|...........|...........|...........|...........|...........
|...........|...........|...........|...........|...........|...........
|...........|...........|...........|...........|...........|...........
|...........|...........|...........|...........|...........|...........
|C#601v36...|C#701v34...|F#401v32...|E-501v31...|C#501v23...|...........
|===........|===........|...........|...........|===........|...........
|...........|...........|===........|...........|...........|...........
|...........|...........|...........|===........|...........|...........
|...........|...........|...........|...........|...........|...........
|F#601v37...|F#701v35...|...........|...........|...........|...........
|===........|...........|...........|...........|...........|...........
|...........|===........|...........|...........|...........|...........
|...........|...........|...........|...........|...........|...........
|...........|...........|...........|...........|...........|...........
|...........|...........|...........|...........|...........|...........
|D-501v29...|B-401v30...|B-501v34...|B-601v32...|...........|...........
|===........|...........|===........|...........|...........|...........
|...........|===........|...........|...........|...........|...........
|...........|...........|...........|===........|...........|...........
|...........|...........|...........|...........|...........|...........
|...........|...........|...........|...........|...........|...........
|...........|...........|...........|...........|...........|...........
|...........|...........|...........|...........|...........|...........
|...........|...........|...........|...........|...........|...........
|...........|...........|...........|...........|...........|...........
|...........|...........|...........|...........|...........|...........
|...........|...........|...........|...........|...........|...........
|B-601v21...|D-701v21...|B-301v26...|...........|...........|...........
|...........|...........|...........|B-401v31...|F#701v27...|B-701v37...
|...........|...........|...........|...........|...........|...........
|===........|...........|...........|...........|...........|...........
|...........|===........|...........|===........|===........|...........
|...........|...........|===........|...........|...........|===........
|...........|...........|...........|...........|...........|...........
|...........|...........|...........|...........|...........|...........
|...........|...........|...........|...........|...........|...........
|...........|...........|...........|...........|...........|...........
|...........|...........|...........|...........|...........|...........
|...........|...........|...........|...........|...........|...........

!channels=1+2+3+4
!octaves=2+2+2+2
|E-401v34...|E-301v32...|B-601v29...|G-601v27...|E-601v23...|...........
|...........|===........|===........|===........|===........|...........
|===........|...........|...........|...........|...........|...........
|...........|...........|...........|...........|...........|...........
|...........|...........|...........|...........|...........|...........
|...........|...........|...........|...........|...........|...........
|B-601v29...|G-601v27...|E-601v23...|...........|...........|...........
|...........|===........|===........|...........|...........|...........
|===........|...........|...........|...........|...........|...........
|...........|...........|...........|...........|...........|...........
|...........|...........|...........|...........|...........|...........
|...........|...........|...........|...........|...........|...........
|B-601v28...|E-601v24...|G-601v26...|G-301v31...|G-401v32...|...........
|===........|===........|===........|===........|...........|...........
|...........|...........|...........|...........|===........|...........
|...........|...........|...........|...........|...........|...........
|...........|...........|...........|...........|...........|...........
|B-601v23...|G-601v21...|E-601v19...|...........|...........|...........
|...........|===........|===........|...........|...........|...........
|===........|...........|...........|...........|...........|...........
|...........|...........|...........|...........|...........|...........
|...........|...........|...........|...........|...........|...........
|...........|...........|...........|...........|...........|...........
|B-301v32...|B-401v34...|B-601v27...|G-601v26...|E-601v22...|...........
|...........|...........|...........|===........|===........|...........
|...........|...........|===........|...........|...........|...........
|...........|...........|...........|...........|...........|...........
|...........|...........|...........|...........|...........|...........
|...........|...........|...........|...........|...........|...........
|...........|...........|...........|...........|...........|...........
|...........|...........|B-601v20...|G-601v20...|E-601v18...|...........
|...........|...........|===........|===........|===........|...........
|...........|...........|...........|...........|...........|...........
|...........|...........|...........|...........|...........|...........
|...........|...........|...........|...........|...........|...........
|...........|...........|B-601v18...|E-601v19...|G-601v19...|...........
|...........|...........|...........|===........|===........|...........
|...........|...........|===........|...........|...........|...........
|===........|===........|...........|...........|...........|...........
|...........|...........|...........|...........|...........|...........
|G-601v23...|B-601v21...|...........|...........|...........|...........
|...........|...........|E-601v17...|...........|...........|...........
|===........|===........|===........|...........|...........|...........
|...........|...........|...........|...........|...........|...........
|...........|...........|...........|...........|...........|...........
|...........|...........|...........|...........|...........|...........
|A-401v34...|A-301v28...|E-601v22...|C-701v24...|A-601v22...|...........
|===........|===........|===........|===........|===........|...........
|...........|...........|...........|...........|...........|...........
|...........|...........|...........|...........|...........|...........
|...........|...........|...........|...........|...........|...........
|...........|...........|...........|...........|...........|...........
|E-601v25...|C-701v25...|A-601v19...|...........|...........|...........
|===........|===........|===........|...........|...........|...........
|...........|...........|...........|...........|...........|...........
|...........|...........|...........|...........|...........|...........
|...........|...........|...........|...........|...........|...........
|C-701v26...|C-401v32...|C-501v31...|A-601v23...|E-601v20...|...........
|...........|...........|...........|===........|===........|...........
|===........|===........|===........|...........|...........|...........
|...........|...........|...........|...........|...........|...........
|...........|...........|...........|...........|...........|...........
|...........|...........|...........|...........|...........|...........
|C-701v29...|E-601v25...|A-601v24...|...........|...........|...........
|===........|===........|===........|...........|...........|...........
|...........|...........|...........|...........|...........|...........
|...........|...........|...........|...........|...........|...........
|...........|...........|...........|...........|...........|...........
|E-401v36...|E-501v37...|...........|...........|...........|...........
|...........|...........|C-701v32...|A-601v31...|E-601v31...|...........
|...........|...........|===........|===........|===........|...........

ModPlug Tracker  IT
|...........|...........|...........|...........|...........
|...........|...........|...........|...........|...........
|...........|...........|...........|...........|...........
|...........|...........|C-701v21...|E-601v20...|A-601v15...
|...........|...........|...........|===........|===........
|...........|...........|===........|...........|...........
|...........|...........|...........|...........|...........
|...........|...........|...........|...........|...........
|...........|...........|...........|...........|...........
|...........|===........|C-701v18...|E-601v16...|A-601v15...
|...........|...........|===........|===........|===........
|===........|...........|...........|...........|...........
|...........|...........|...........|...........|...........
|........TDA|...........|...........|...........|...........
|C-701v19...|E-601v19...|...........|...........|...........
|...........|...........|A-601v12...|...........|...........
|===........|===........|===........|...........|...........
|...........|...........|...........|...........|...........
|...........|...........|...........|...........|...........
|C-701v18...|...........|...........|...........|...........
|...........|D#401v17...|B-601v21...|...........|...........
|===........|===........|...........|...........|...........
|...........|...........|===........|...........|...........
|...........|...........|...........|...........|...........
|...........|...........|...........|...........|...........
|B-401v19...|A-401v13...|...........|...........|...........
|...........|===........|...........|...........|...........
|===........|...........|...........|...........|...........
|...........|...........|...........|...........|...........
|...........|...........|...........|...........|...........
|...........|...........|...........|...........|...........
|B-301v18...|B-601v17...|...........|...........|...........
|...........|===........|...........|...........|...........
|===........|...........|...........|...........|...........
|...........|...........|...........|...........|...........
|...........|...........|...........|...........|...........
|B-401v15...|A-401v14...|C#701v21...|...........|...........
|===........|...........|...........|...........|...........
|...........|===........|===........|...........|...........
|...........|...........|...........|...........|...........
|...........|...........|...........|...........|...........
|D#701v21...|F#401v18...|...........|...........|...........
|...........|===........|...........|...........|...........
|===........|...........|...........|...........|...........
|...........|...........|...........|...........|...........
|...........|...........|...........|...........|...........
|B-601v18...|...........|...........|...........|...........
|...........|A-401v10...|B-401v15...|...........|...........
|===........|===........|===........|...........|...........
|...........|...........|...........|...........|...........
|...........|...........|...........|...........|...........
|...........|...........|...........|...........|...........
|B-301v12...|F#601v31...|F#701v31...|...........|...........
|...........|...........|...........|...........|...........
|...........|...........|...........|...........|...........
|===........|...........|...........|...........|...........
|...........|...........|...........|...........|...........
|B-401v11...|===........|===........|A-401v09...|...........
|===........|...........|...........|===........|...........
|...........|...........|...........|...........|...........
|...........|...........|...........|...........|...........
|F#701v22...|E-401v19...|...........|...........|...........
|===........|...........|E-701v20...|...........|...........
|...........|===........|===........|...........|...........
|...........|...........|...........|...........|...........
|...........|...........|...........|...........|...........
|...........|...........|...........|...........|...........
|B-401v15...|G-401v14...|...........|...........|...........
|===........|===........|...........|...........|...........
|...........|...........|...........|...........|...........
|...........|...........|...........|...........|...........
|...........|...........|...........|...........|...........
|E-701v20...|B-301v09...|...........|...........|...........
|===........|===........|...........|...........|...........
|...........|...........|...........|...........|...........
|...........|...........|...........|...........|...........
|...........|...........|...........|...........|...........
|B-401v14...|F#701v21...|G-401v14...|...........|...........
|===........|===........|===........|...........|...........
|...........|...........|...........|...........|...........
|...........|...........|...........|...........|...........
|...........|...........|...........|...........|...........
|E-401v17...|G-701v20...|...........|...........|...........
|...........|...........|...........|...........|...........
|===........|===........|...........|...........|...........
|...........|...........|...........|...........|...........
|...........|...........|...........|...........|...........
|B-401v15...|G-401v16...|E-701v23...|...........|...........
|===........|===........|...........|...........|...........
|...........|...........|===........|...........|...........
|...........|...........|...........|...........|...........
|...........|...........|...........|...........|...........
|B-301v18...|B-601v25...|B-701v25...|...........|...........
|...........|...........|...........|...........|...........
|...........|...........|...........|...........|...........
|...........|===........|===........|...........|...........
|...........|...........|...........|...........|...........
|B-401v13...|G-401v14...|...........|...........|...........
|...........|...........|...........|...........|...........
|===........|===........|...........|...........|...........
|...........|...........|...........|...........|...........
|...........|...........|...........|...........|...........
|...........|...........|...........|...........|...........
|B-601v23...|E-401v35...|E-601v20...|E-301v37...|G-601v20...
|===........|===........|===........|===........|===........
|...........|...........|...........|...........|...........
|...........|...........|...........|...........|...........
|...........|...........|...........|...........|...........
|B-601v20...|E-601v15...|G-601v15...|...........|...........
|...........|===........|===........|...........|...........
|===........|...........|...........|...........|...........
|...........|...........|...........|...........|...........
|...........|...........|...........|...........|...........
|G-401v35...|G-301v33...|...........|...........|...........
|...........|...........|B-601v23...|E-601v15...|G-601v19...
|===........|===........|===........|===........|===........
|...........|...........|...........|...........|...........
|...........|...........|...........|...........|...........
|...........|...........|...........|...........|...........
|B-601v21...|E-601v20...|G-601v20...|...........|...........
|===........|===........|===........|...........|...........
|...........|...........|...........|...........|...........
|...........|...........|...........|...........|...........
|...........|...........|...........|...........|...........
|B-301v32...|B-401v33...|B-601v25...|E-601v23...|G-601v22...
|...........|...........|===........|===........|===........
|...........|...........|...........|...........|...........
|...........|...........|...........|...........|...........

ModPlug Tracker  IT
|...........|...........|...........|...........|...........
|...........|...........|...........|...........|...........
|...........|...........|B-601v23...|E-601v15...|G-601v17...
|...........|...........|...........|===........|===........
|...........|...........|===........|...........|...........
|...........|...........|...........|...........|...........
|...........|...........|...........|...........|...........
|...........|...........|B-601v20...|G-601v21...|E-601v18...
|...........|...........|...........|===........|===........
|...........|...........|===........|...........|...........
|...........|===........|...........|...........|...........
|===........|...........|...........|...........|...........
|B-601v18...|G-601v18...|E-601v17...|...........|...........
|........TED|===........|===........|...........|...........
|===........|...........|...........|...........|...........
|...........|...........|...........|...........|...........
|...........|...........|...........|...........|...........
|C-701v26...|A-401v32...|A-301v32...|E-601v25...|...........
|...........|...........|...........|...........|A-601v20...
|===........|===........|===........|===........|===........
|...........|...........|...........|...........|...........
|...........|...........|...........|...........|...........
|...........|...........|...........|...........|...........
|C-701v25...|E-601v22...|A-601v20...|...........|...........
|===........|===........|===........|...........|...........
|...........|...........|...........|...........|...........
|...........|...........|...........|...........|...........
|...........|...........|...........|...........|...........
|...........|...........|...........|...........|...........
|C-701v21...|C-401v31...|C-501v32...|E-601v22...|A-601v20...
|===........|===........|===........|===........|===........
|...........|...........|...........|...........|...........
|...........|...........|...........|...........|...........
|...........|...........|...........|...........|...........
|C-701v26...|E-601v23...|A-601v21...|...........|...........
|...........|===........|===........|...........|...........
|===........|...........|...........|...........|...........
|...........|...........|...........|...........|...........
|...........|...........|...........|...........|...........
|...........|...........|...........|...........|...........
|E-501v35...|E-401v34...|C-701v32...|A-601v29...|E-601v29...
|...........|...........|===........|===........|===........
|...........|...........|...........|...........|...........
|...........|...........|...........|...........|...........
|===........|...........|...........|...........|...........
|C-701v21...|...........|E-601v20...|A-601v16...|...........
|...........|===........|===........|===........|...........
|===........|...........|...........|...........|...........
|...........|...........|...........|...........|...........
|...........|...........|...........|...........|...........
|...........|...........|...........|...........|...........
|C-701v23...|E-601v22...|A-601v20...|...........|...........
|===........|===........|===........|...........|...........
|...........|...........|...........|...........|...........
|...........|...........|...........|...........|...........
|...........|...........|...........|...........|...........
|C-701v23...|E-601v21...|A-601v18...|...........|...........
|...........|===........|===........|...........|...........
|===........|...........|...........|...........|...........
|...........|...........|...........|...........|...........
|...........|...........|...........|...........|...........
|B-301v23...|...........|...........|...........|...........
|...........|B-501v29...|B-601v29...|...........|...........
|===........|===........|===........|...........|...........
|...........|...........|...........|...........|...........
|...........|...........|...........|...........|...........
|...........|...........|...........|...........|...........
|G-401v21...|E-401v22...|E-601v29...|E-701v29...|...........
|===........|===........|===........|===........|...........
|...........|...........|...........|...........|...........
|...........|...........|...........|...........|...........
|...........|...........|...........|...........|...........
|B-501v25...|B-601v25...|B-301v20...|...........|...........
|...........|...........|...........|...........|...........
|...........|...........|...........|...........|...........
|...........|...........|===........|...........|...........
|...........|...........|...........|...........|...........
|...........|...........|...........|...........|...........
|...........|...........|E-401v17...|G-401v15...|...........
|...........|...........|===........|===........|...........
|...........|...........|...........|...........|...........
|...........|...........|...........|...........|...........
|===........|===........|...........|...........|...........
|B-301v15...|...........|...........|...........|...........
|...........|G-501v24...|G-601v24...|...........|...........
|===........|===........|===........|...........|...........
|...........|...........|...........|...........|...........
|...........|...........|...........|...........|...........
|...........|...........|...........|...........|...........
|G-401v20...|B-501v29...|B-601v29...|E-401v19...|...........
|===........|===........|===........|===........|...........
|...........|...........|...........|...........|...........
|...........|...........|...........|...........|...........
|...........|...........|...........|...........|...........
|E-601v23...|E-701v23...|B-301v14...|...........|...........
|===........|===........|...........|...........|...........
|...........|...........|===........|...........|...........
|...........|...........|...........|...........|...........
|...........|...........|...........|...........|...........
|G-401v22...|E-401v19...|G-601v29...|G-701v29...|...........
|...........|===........|...........|...........|...........
|===........|...........|===........|===........|...........
|...........|...........|...........|...........|...........
|...........|...........|...........|...........|...........
|...........|...........|...........|...........|...........
|F#601v33...|F#701v33...|D#401v29...|B-301v25...|A-401v25...
|===........|===........|===........|...........|===........
|...........|...........|...........|===........|...........
|...........|...........|...........|...........|...........
|...........|...........|...........|...........|...........
|B-601v27...|B-701v27...|...........|...........|...........
|...........|...........|...........|...........|...........
|===........|===........|...........|...........|...........
|...........|...........|...........|...........|...........
|...........|...........|...........|...........|...........
|...........|...........|...........|...........|...........
|D#601v29...|D#701v29...|F#401v20...|A-401v18...|B-301v15...
|===........|===........|===........|===........|===........
|...........|...........|...........|...........|...........
|...........|...........|...........|...........|...........
|...........|...........|...........|...........|...........
|F#601v23...|F#701v23...|...........|...........|...........
|===........|===........|...........|...........|...........
|...........|...........|...........|...........|...........
|...........|...........|...........|...........|...........
|...........|...........|...........|...........|...........
|...........|...........|...........|...........|...........
|E-601v25...|E-701v25...|G-401v26...|E-401v25...|...........

!channels 1+2+3+6
|===........|===........|===........|...........|...........
|...........|...........|...........|===........|...........
|...........|...........|...........|...........|...........
|...........|...........|...........|...........|...........
|...........|...........|...........|...........|...........
|...........|...........|...........|...........|...........
|...........|...........|...........|...........|...........
|...........|...........|...........|...........|...........
|E-601v14...|...........|...........|...........|...........
|...........|G-601v20...|B-601v22...|...........|...........
|===........|...........|...........|E-301v22...|E-401v34...
|...........|===........|===........|===........|===........
!channels 1+2+3+4
|...........|...........|...........|...........|...........
|...........|...........|...........|...........|...........
|...........|...........|...........|...........|...........
|...........|...........|...........|...........|...........
|...........|...........|...........|...........|...........
|...........|...........|...........|...........|...........
|...........|...........|...........|...........|...........
|...........|...........|...........|...........|...........
|...........|...........|...........|...........|...........
|...........|...........|...........|...........|...........
|E-301v29...|E-401v32...|B-601v25...|E-601v23...|G-601v23...
|===........|...........|===........|===........|===........
|...........|===........|...........|...........|...........
|...........|...........|...........|...........|...........
|...........|...........|...........|...........|...........
|...........|...........|...........|...........|...........
|G-601v29...|B-601v26...|E-601v24...|...........|...........
|===........|===........|===........|...........|...........
|...........|...........|...........|...........|...........
|...........|...........|...........|...........|...........
|...........|...........|...........|...........|...........
|G-301v26...|...........|...........|...........|...........
|...........|B-601v26...|G-601v25...|E-601v22...|G-401v23...
|===........|===........|===........|===........|===........
|...........|...........|...........|...........|...........
|...........|...........|...........|...........|...........
|...........|...........|...........|...........|...........
|B-601v25...|G-601v25...|E-601v21...|...........|...........
|===........|===........|===........|...........|...........
|...........|...........|...........|...........|...........
|...........|...........|...........|...........|...........
|...........|...........|...........|...........|...........
|B-401v34...|B-301v33...|B-601v30...|...........|...........
|...........|...........|...........|G-601v30...|E-601v25...
|...........|...........|===........|===........|===........
|...........|...........|...........|...........|...........
|...........|...........|...........|...........|...........
|...........|...........|...........|...........|...........
|...........|...........|...........|...........|...........
|...........|...........|B-601v21...|E-601v19...|G-601v20...
|...........|...........|===........|===........|===........
|...........|...........|...........|...........|...........
|...........|...........|...........|...........|...........
|...........|...........|...........|...........|...........
|...........|...........|B-601v20...|G-601v20...|E-601v15...
|...........|...........|...........|===........|===........
|...........|...........|===........|...........|...........
|===........|...........|...........|...........|...........
|...........|===........|...........|...........|...........
|...........|...........|...........|...........|...........
|B-601v19...|G-601v18...|E-601v18...|...........|...........
|===........|===........|===........|...........|...........
|...........|...........|...........|...........|...........
|...........|...........|...........|...........|...........
|...........|...........|...........|...........|...........
|A-401v33...|A-301v30...|C-701v27...|E-601v25...|A-601v23...
|===........|===........|===........|===........|===........
|...........|...........|...........|...........|...........
|...........|...........|...........|...........|...........
|...........|...........|...........|...........|...........
|C-701v25...|E-601v23...|A-601v23...|...........|...........
|...........|===........|===........|...........|...........
|===........|...........|...........|...........|...........
|...........|...........|...........|...........|...........
|...........|...........|...........|...........|...........
|...........|...........|...........|...........|...........
|C-701v25...|C-401v32...|E-601v21...|A-601v23...|C-501v32...
|===........|===........|===........|===........|...........
|...........|...........|...........|...........|===........
|...........|...........|...........|...........|...........
|...........|...........|...........|...........|...........
|C-701v25...|E-601v23...|A-601v22...|...........|...........
|===........|===........|===........|...........|...........
|...........|...........|...........|...........|...........
|...........|...........|...........|...........|...........
|...........|...........|...........|...........|...........
|...........|...........|...........|...........|...........
|E-501v34...|E-401v34...|C-701v31...|A-601v29...|E-601v27...
|...........|...........|===........|===........|===........
|...........|...........|...........|...........|...........
|...........|...........|...........|...........|...........
|...........|...........|...........|...........|...........
|===........|...........|...........|...........|...........
|C-701v25...|===........|A-601v21...|E-601v21...|...........
|===........|...........|===........|===........|...........
|...........|...........|...........|...........|...........
|...........|...........|...........|...........|...........
|...........|...........|...........|...........|...........
|C-701v19...|E-601v18...|A-601v14...|...........|...........
|===........|===........|===........|...........|...........
|...........|...........|...........|...........|...........
|...........|...........|...........|...........|...........
|...........|...........|...........|...........|...........
|C-701v20...|E-601v20...|A-601v15...|...........|...........
|...........|===........|===........|...........|...........
|===........|...........|...........|...........|...........
|...........|...........|...........|...........|...........
|...........|...........|...........|...........|...........
|C-701v18...|D#401v18...|...........|...........|...........
|...........|...........|B-601v21...|...........|...........
|===........|===........|...........|...........|...........
|...........|...........|===........|...........|...........
|...........|...........|...........|...........|...........
|...........|...........|...........|...........|...........
|B-401v19...|A-401v15...|...........|...........|...........
|...........|===........|...........|...........|...........
|===........|...........|...........|...........|...........
|...........|...........|...........|...........|...........
|...........|...........|...........|...........|...........
|........TDA|...........|...........|...........|...........
|B-301v18...|B-601v20...|...........|...........|...........
|===........|===........|...........|...........|...........
|...........|...........|...........|...........|...........
|...........|...........|...........|...........|...........
|...........|...........|...........|...........|...........
|B-401v10...|C#701v21...|A-401v10...|...........|...........

ModPlug Tracker  IT
|===........|...........|===........|...........|...........
|...........|===........|...........|...........|...........
|...........|...........|...........|...........|...........
|...........|...........|...........|...........|...........
|D#701v23...|...........|...........|...........|...........
|...........|F#401v18...|...........|...........|...........
|===........|===........|...........|...........|...........
|...........|...........|...........|...........|...........
|...........|...........|...........|...........|...........
|B-601v20...|A-401v12...|B-401v18...|...........|...........
|...........|...........|===........|...........|...........
|===........|===........|...........|...........|...........
|...........|...........|...........|...........|...........
|...........|...........|...........|...........|...........
|F#601v32...|F#701v32...|...........|...........|...........
|...........|...........|B-301v15...|...........|...........
|...........|...........|...........|...........|...........
|...........|...........|...........|...........|...........
|...........|...........|...........|...........|...........
|...........|...........|===........|...........|...........
|...........|...........|B-401v06...|A-401v05...|...........
|...........|...........|===........|===........|...........
|===........|===........|...........|...........|...........
|...........|...........|...........|...........|...........
|F#701v22...|E-401v17...|E-701v24...|...........|...........
|===........|...........|...........|...........|...........
|...........|===........|===........|...........|...........
|...........|...........|...........|...........|...........
|...........|...........|...........|...........|...........
|B-401v15...|G-401v14...|...........|...........|...........
|...........|===........|...........|...........|...........
|===........|...........|...........|...........|...........
|...........|...........|...........|...........|...........
|...........|...........|...........|...........|...........
|A-301v15...|E-701v21...|...........|...........|...........
|...........|...........|...........|...........|...........
|===........|===........|...........|...........|...........
|...........|...........|...........|...........|...........
|...........|...........|...........|...........|...........
|B-401v15...|F#701v21...|G-401v16...|...........|...........
|===........|...........|===........|...........|...........
|...........|===........|...........|...........|...........
|...........|...........|...........|...........|...........
|...........|...........|...........|...........|...........
|E-401v20...|G-701v23...|...........|...........|...........
|...........|...........|...........|...........|...........
|===........|===........|...........|...........|...........
|...........|...........|...........|...........|...........
|...........|...........|...........|...........|...........
|B-401v18...|E-701v21...|G-401v19...|...........|...........
|===........|===........|===........|...........|...........
|...........|...........|...........|...........|...........
|...........|...........|...........|...........|...........
|...........|...........|...........|...........|...........
|B-301v23...|B-601v37...|B-701v37...|...........|...........
|...........|...........|...........|...........|...........
|...........|...........|...........|...........|...........
|...........|...........|...........|...........|...........
|===........|...........|...........|...........|...........
|B-401v18...|G-401v19...|===........|...........|...........
|...........|...........|...........|...........|...........
|===........|===........|...........|...........|...........
|...........|...........|...........|...........|...........
|...........|...........|...........|...........|...........
|E-301v33...|E-401v33...|...........|...........|...........
|........TED|...........|B-601v32...|E-601v25...|G-601v28...
|===........|===........|===........|===........|===........
|...........|...........|...........|...........|...........
|...........|...........|...........|...........|...........
|...........|...........|...........|...........|...........
|B-601v23...|E-601v25...|G-601v21...|...........|...........
|...........|===........|===........|...........|...........
|===........|...........|...........|...........|...........
|...........|...........|...........|...........|...........
|...........|...........|...........|...........|...........
|...........|...........|...........|...........|...........
|G-301v31...|G-401v34...|B-601v30...|E-601v27...|G-601v27...
|===........|...........|===........|===........|===........
|...........|===........|...........|...........|...........
|...........|...........|...........|...........|...........
|...........|...........|...........|...........|...........
|...........|...........|...........|...........|...........
|G-601v29...|B-601v27...|E-601v27...|...........|...........
|===........|===........|===........|...........|...........
|...........|...........|...........|...........|...........
|...........|...........|...........|...........|...........
|...........|...........|...........|...........|...........
|B-301v31...|B-401v32...|B-601v31...|E-601v29...|G-601v30...
|...........|...........|...........|===........|===........
|...........|...........|===........|...........|...........
|...........|...........|...........|...........|...........
|...........|...........|...........|...........|...........
|...........|...........|...........|...........|...........
|...........|...........|B-601v25...|G-601v23...|E-601v21...
|...........|...........|...........|===........|===........
|...........|...........|===........|...........|...........
|...........|...........|...........|...........|...........
|...........|...........|...........|...........|...........
|...........|...........|B-601v22...|E-601v20...|...........
|...........|...........|...........|===........|G-601v21...
|===........|===........|===........|...........|===........
|...........|...........|...........|...........|...........
|...........|...........|...........|...........|...........
|...........|...........|...........|...........|...........
|B-601v23...|G-601v23...|E-601v23...|...........|...........
|...........|===........|===........|...........|...........
|===........|...........|...........|...........|...........
|...........|...........|...........|...........|...........
|...........|...........|...........|...........|...........
|A-301v31...|A-401v34...|C-701v27...|E-601v28...|A-601v24...
|...........|...........|...........|...........|===........
|===........|===........|===........|===........|...........
|...........|...........|...........|...........|...........
|...........|...........|...........|...........|...........
|...........|...........|...........|...........|...........
|E-601v25...|C-701v23...|A-601v21...|...........|...........
|===........|===........|===........|...........|...........
|...........|...........|...........|...........|...........
|...........|...........|...........|...........|...........
|...........|...........|...........|...........|...........
|C-401v32...|C-501v32...|...........|...........|...........
|...........|...........|C-701v25...|E-601v25...|A-601v22...
|===........|===........|===........|===........|===........
|...........|...........|...........|...........|...........
|...........|...........|...........|...........|...........
|...........|...........|...........|...........|...........
|C-701v26...|E-601v27...|A-601v21...|...........|...........
|===........|===........|===........|...........|...........

ModPlug Tracker  IT
|...........|...........|...........|...........|...........|...........
|...........|...........|...........|...........|...........|...........
|...........|...........|...........|...........|...........|...........
|...........|...........|...........|...........|...........|...........
|E-401v35...|E-501v35...|C-701v32...|A-601v32...|E-601v32...|...........
|...........|...........|...........|===........|...........|...........
|...........|...........|===........|...........|===........|...........
|...........|...........|...........|...........|...........|...........
|...........|...........|...........|...........|...........|...........
|...........|...........|...........|...........|...........|...........
|...........|...........|C-701v27...|E-601v26...|A-601v23...|...........
|...........|===........|===........|===........|===........|...........
|...........|...........|...........|...........|...........|...........
|===........|...........|...........|...........|...........|...........
|...........|...........|...........|...........|...........|...........
|C-701v27...|E-601v27...|A-601v24...|...........|...........|...........
|...........|...........|===........|...........|...........|...........
|===........|===........|...........|...........|...........|...........
|...........|...........|...........|...........|...........|...........
|...........|...........|...........|...........|...........|...........
|...........|...........|...........|...........|...........|...........
|C-701v29...|E-601v25...|A-601v23...|...........|...........|...........
|...........|===........|===........|...........|...........|...........
|===........|...........|...........|...........|...........|...........
|...........|...........|...........|...........|...........|...........
|...........|...........|...........|...........|...........|...........
|B-301v29...|B-601v34...|...........|...........|...........|...........
|...........|...........|...........|...........|...........|...........
|===........|===........|...........|...........|...........|...........
|...........|...........|...........|...........|...........|...........
|...........|...........|...........|...........|...........|...........
|...........|...........|...........|...........|...........|...........
|E-701v35...|E-401v29...|G-401v30...|...........|...........|...........
|...........|...........|===........|...........|...........|...........
|===........|===........|...........|...........|...........|...........
|...........|...........|...........|...........|...........|...........
|...........|...........|...........|...........|...........|...........
|...........|...........|...........|...........|...........|...........
|B-601v32...|B-301v23...|...........|...........|...........|...........
|...........|...........|...........|...........|...........|...........
|...........|===........|...........|...........|...........|...........
|...........|...........|...........|...........|...........|...........
|...........|...........|...........|...........|...........|...........
|...........|E-401v25...|G-401v25...|...........|...........|...........
|...........|...........|...........|...........|...........|...........
|...........|===........|===........|...........|...........|...........
|...........|...........|...........|...........|...........|...........
|===........|...........|...........|...........|...........|...........
|...........|...........|...........|...........|...........|...........
|G-501v32...|G-601v32...|B-301v23...|...........|...........|...........
|...........|...........|...........|...........|...........|...........
|===........|===........|===........|...........|...........|...........
|...........|...........|...........|...........|...........|...........
|...........|...........|...........|...........|...........|...........
|...........|...........|...........|...........|...........|...........
|B-501v33...|B-601v33...|G-401v26...|E-401v21...|...........|...........
|...........|...........|===........|===........|...........|...........
|===........|===........|...........|...........|...........|...........
|...........|...........|...........|...........|...........|...........
|...........|...........|...........|...........|...........|...........
|B-301v23...|E-601v28...|E-701v28...|...........|...........|...........
|...........|...........|...........|...........|...........|...........
|===........|===........|===........|...........|...........|...........
|...........|...........|...........|...........|...........|...........
|...........|...........|...........|...........|...........|...........
|...........|...........|...........|...........|...........|...........
|G-401v23...|E-401v19...|G-601v30...|G-701v30...|...........|...........
|===........|===........|...........|...........|...........|...........
|...........|...........|===........|===........|...........|...........
|...........|...........|...........|...........|...........|...........
|...........|...........|...........|...........|...........|...........
|B-301v25...|F#601v35...|F#701v35...|A-401v21...|...........|...........
|...........|...........|...........|===........|D#401v06...|...........
|===........|===........|===........|...........|===........|...........
|...........|...........|...........|...........|...........|...........
|...........|...........|...........|...........|...........|...........
|...........|...........|...........|...........|...........|...........
|B-601v31...|B-701v31...|...........|...........|...........|...........
|...........|...........|...........|...........|...........|...........
|===........|===........|...........|...........|...........|...........
|...........|...........|...........|...........|...........|...........
|...........|...........|...........|...........|...........|...........
|...........|...........|...........|...........|...........|...........
|D#601v32...|D#701v32...|A-401v19...|B-301v18...|F#401v12...|...........
|===........|===........|===........|===........|===........|...........
|...........|...........|...........|...........|...........|...........
|...........|...........|...........|...........|...........|...........
|...........|...........|...........|...........|...........|...........
|F#601v25...|F#701v25...|...........|...........|...........|...........
|...........|...........|...........|...........|...........|...........
|===........|===........|...........|...........|...........|...........
|...........|...........|...........|...........|...........|...........
|...........|...........|...........|...........|...........|...........
|...........|...........|...........|...........|...........|...........
|E-601v32...|E-701v32...|B-401v24...|E-401v24...|G-401v23...|...........
|...........|...........|...........|...........|===........|...........
|===........|===........|===........|...........|...........|...........
|...........|...........|...........|===........|...........|...........
|...........|...........|...........|...........|...........|...........
|...........|...........|...........|...........|...........|...........
|...........|...........|...........|...........|...........|...........
|...........|...........|...........|...........|...........|...........
|...........|...........|...........|...........|...........|...........
|...........|...........|...........|...........|...........|...........
|E-701v18...|...........|...........|...........|...........|...........
|...........|G-701v24...|E-301v25...|E-401v27...|...........|...........
|...........|...........|...........|...........|B-701v22...|E-801v35...
|===........|===........|...........|...........|===........|...........
|...........|...........|===........|===........|...........|===........
|...........|...........|...........|...........|...........|...........
|...........|...........|...........|...........|...........|...........
|...........|...........|...........|...........|...........|...........
|...........|...........|...........|...........|...........|...........
|...........|...........|...........|...........|...........|...........
|...........|...........|...........|...........|...........|...........
|...........|...........|...........|...........|...........|...........
|...........|...........|...........|...........|...........|...........
|...........|...........|...........|...........|...........|...........
|...........|...........|...........|...........|...........|...........
|...........|...........|...........|...........|...........|...........
|G-501v31...|G-601v37...|G-701v38...|G-401v33...|...........|...........
|...........|...........|...........|...........|...........|...........
|===........|...........|...........|...........|...........|...........
|...........|...........|===........|===........|...........|...........
|...........|===........|...........|...........|...........|...........
|...........|...........|...........|...........|...........|...........
|...........|...........|...........|...........|...........|...........
|...........|...........|...........|...........|...........|...........

ModPlug Tracker  IT
|...........|...........|...........|...........
|...........|...........|...........|...........
|...........|...........|...........|...........
|...........|...........|...........|...........
|F#701v34...|F#601v36...|F#401v32...|F#501v32...
|...........|...........|...........|...........
|...........|...........|===........|===........
|...........|...........|...........|...........
|...........|...........|...........|...........
|===........|===........|...........|...........
|...........|...........|...........|...........
|...........|...........|...........|...........
|...........|...........|...........|...........
|...........|...........|...........|...........
|...........|...........|...........|...........
|...........|...........|...........|...........
|F-701v37...|F-601v34...|F-401v32...|F-501v32...
|...........|...........|...........|...........
|...........|===........|===........|===........
|===........|...........|...........|...........
|...........|...........|...........|...........
|...........|...........|...........|...........
|...........|...........|...........|...........
|...........|...........|...........|...........
|...........|...........|...........|...........
|...........|...........|...........|...........
|...........|...........|...........|...........
|...........|...........|...........|...........
|E-701v37...|E-601v34...|E-401v32...|E-501v32...
|...........|...........|...........|...........
|...........|===........|===........|===........
|===........|...........|...........|...........
|...........|...........|...........|...........
|...........|...........|...........|...........
|...........|...........|...........|...........
|...........|...........|...........|...........
|...........|...........|...........|...........
|...........|...........|...........|...........
|...........|...........|...........|...........
|...........|...........|...........|...........
|D-701v34...|D-601v36...|D-401v31...|D-501v31...
|...........|===........|...........|===........
|===........|...........|===........|...........
|...........|...........|...........|...........
|...........|...........|...........|...........
|...........|...........|...........|...........
|...........|...........|...........|...........
|...........|...........|...........|...........
|...........|...........|...........|...........
|...........|...........|...........|...........
|...........|...........|...........|...........
|C-701v32...|C-601v34...|C-401v30...|C-501v31...
|...........|...........|...........|...........
|===........|===........|===........|===........
|...........|...........|...........|...........
|...........|...........|...........|...........
|...........|...........|...........|...........
|...........|...........|...........|...........
|...........|...........|...........|...........
|...........|...........|...........|...........
|...........|...........|...........|...........
|...........|...........|...........|...........
|...........|...........|...........|...........
|B-501v34...|B-601v33...|B-301v31...|B-401v32...
|...........|...........|...........|===........
|...........|===........|===........|...........
|===........|...........|...........|...........
|...........|...........|...........|...........
|...........|...........|...........|...........
|...........|...........|...........|...........
|...........|...........|...........|...........
|...........|...........|...........|...........
|...........|...........|...........|...........
|...........|...........|...........|...........
|...........|...........|...........|...........
|A-601v30...|A-501v32...|...........|...........
|...........|...........|A-301v25...|A-401v31...
|...........|...........|...........|===........
|...........|...........|===........|...........
|===........|...........|...........|...........
|...........|===........|...........|...........
|...........|...........|...........|...........
|...........|...........|...........|...........
|...........|...........|...........|...........
|...........|...........|...........|...........
|...........|...........|...........|...........
|...........|...........|...........|...........
|...........|...........|...........|...........
|...........|...........|...........|...........
|...........|...........|...........|...........

!octaves=3+3+3+3
|G-601v20...|G-501v17...|G-301v13...|...........
|===........|===........|...........|...........
|...........|...........|===........|...........
|...........|...........|...........|...........
|...........|...........|...........|...........
|...........|...........|...........|...........
|A-601v21...|A-501v21...|F-401v13...|...........
|===........|===........|===........|...........
|...........|...........|...........|...........
|...........|...........|...........|...........
|...........|...........|...........|...........
|B-501v19...|B-601v15...|...........|...........
|...........|...........|D-401v11...|...........
|===........|===........|...........|...........
|...........|...........|===........|...........
|...........|...........|...........|...........
|...........|...........|...........|...........
|C-701v21...|C-601v21...|F-401v13...|...........
|===........|===........|...........|...........
|...........|...........|===........|...........
|...........|...........|...........|...........
|...........|...........|...........|...........
|...........|...........|...........|...........
|D-701v18...|D-601v18...|G-301v11...|...........
|===........|===........|...........|...........
|...........|...........|===........|...........
|...........|...........|...........|...........
|...........|...........|...........|...........
|C#601v14...|C#701v12...|F-401v08...|...........
|===........|===........|...........|...........
|...........|...........|===........|...........
|...........|...........|...........|...........
|...........|...........|...........|...........
|...........|...........|...........|...........
|D-701v14...|D-601v13...|B-301v07...|...........
|===........|===........|...........|...........
|...........|...........|===........|...........
|...........|...........|...........|...........

ModPlug Tracker  IT
|...........|...........|...........|...........
|B-501v18...|B-601v15...|F-401v10...|...........
|===........|...........|...........|...........
|...........|===........|===........|...........
|...........|...........|...........|...........
|...........|...........|...........|...........
|...........|...........|...........|...........
|C-701v24...|C-601v23...|G-301v15...|...........
|===........|===........|...........|...........
|...........|...........|===........|...........
|...........|...........|...........|...........
|...........|...........|...........|...........
|D-601v21...|D-701v21...|E-401v15...|...........
|===........|===........|...........|...........
|...........|...........|===........|...........
|...........|...........|...........|...........
|...........|...........|...........|...........
|E-601v19...|E-701v18...|...........|...........
|...........|...........|C-401v12...|...........
|===........|===........|...........|...........
|...........|...........|===........|...........
|...........|...........|...........|...........
|...........|...........|...........|...........
|F-601v21...|F-701v21...|E-401v13...|...........
|===........|===........|...........|...........
|...........|...........|===........|...........
|...........|...........|...........|...........
|...........|...........|...........|...........
|G-601v28...|G-701v22...|...........|...........
|===........|...........|G-301v14...|...........
|...........|===........|...........|...........
|...........|...........|===........|...........
|...........|...........|...........|...........
|...........|...........|...........|...........
|F#601v27...|F#701v27...|E-401v14...|...........
|===........|===........|...........|...........
|...........|...........|===........|...........
|...........|...........|...........|...........
|...........|...........|...........|...........
|G-601v31...|G-701v32...|C-401v20...|...........
|===........|===........|...........|...........
|...........|...........|...........|...........
|...........|...........|===........|...........
|...........|...........|...........|...........
|...........|...........|...........|...........
|E-601v31...|E-701v31...|E-401v16...|...........
|===........|===........|...........|...........
|...........|...........|===........|...........
|...........|...........|...........|...........
|...........|...........|...........|...........
|...........|...........|...........|...........
|A-601v26...|F-701v28...|G-301v15...|...........
|...........|...........|...........|...........
|...........|...........|...........|...........
|...........|...........|...........|...........
|...........|...........|===........|...........
|...........|D-401v15...|A-701v21...|...........
|===........|===........|===........|...........
|...........|...........|...........|...........
|...........|...........|...........|...........
|...........|...........|...........|...........
|...........|...........|...........|...........
|F-601v21...|D-701v23...|B-301v12...|...........
|...........|...........|...........|...........
|...........|...........|...........|...........
|...........|...........|===........|...........
|...........|...........|...........|...........
|...........|F-701v17...|...........|...........
|===........|===........|D-401v14...|...........
|...........|...........|...........|...........
|...........|...........|===........|...........
|...........|...........|...........|...........
|...........|...........|...........|...........
|D-601v20...|B-601v21...|G-301v12...|...........
|...........|...........|...........|...........
|...........|...........|...........|...........
|...........|...........|===........|...........
|...........|...........|...........|...........
|...........|F-401v14...|D-701v21...|...........
|===........|===........|===........|...........
|...........|...........|...........|...........
|...........|...........|...........|...........
|...........|...........|...........|...........
|...........|...........|...........|...........
|B-501v16...|G-601v16...|...........|...........
|...........|...........|D-401v09...|...........
|...........|...........|...........|...........
|...........|...........|===........|...........
|...........|...........|...........|...........
|...........|...........|B-601v17...|...........
|===........|===........|...........|F-401v12...
|...........|...........|===........|...........
|...........|...........|...........|===........
|...........|...........|...........|...........
|...........|...........|...........|...........
|E-601v21...|C-701v23...|G-301v15...|...........
|...........|...........|...........|...........
|...........|...........|...........|...........
|...........|...........|===........|...........
|...........|...........|...........|...........
|...........|===........|E-701v21...|...........
|===........|E-401v13...|===........|...........
|...........|...........|...........|...........
|...........|===........|...........|...........
|...........|...........|...........|...........
|...........|...........|...........|...........
|G-601v23...|C-601v21...|C-401v14...|...........
|...........|...........|...........|...........
|...........|...........|...........|...........
|...........|...........|===........|...........
|...........|...........|...........|...........
|===........|...........|C-701v22...|...........
|E-401v12...|===........|===........|...........
|...........|...........|...........|...........
|===........|...........|...........|...........
|...........|...........|...........|...........
|G-501v18...|...........|...........|...........
|...........|E-601v18...|G-301v10...|...........
|...........|...........|...........|...........
|...........|...........|...........|...........
|...........|...........|===........|...........
|...........|...........|...........|...........
|...........|G-601v12...|E-401v11...|...........
|===........|===........|...........|...........
|...........|...........|===........|...........
|...........|...........|...........|...........
|...........|...........|...........|...........
|E-501v12...|...........|...........|...........

ModPlug Tracker  IT
|...........|C-601v14...|C-401v10...|...........|...........
|...........|...........|...........|...........|...........
|...........|...........|...........|...........|...........
|...........|...........|===........|...........|...........
|...........|...........|...........|...........|...........
|E-601v10...|...........|...........|...........|...........
|===........|E-401v07...|...........|...........|...........
|...........|...........|...........|...........|...........
|...........|===........|...........|...........|...........
|...........|...........|...........|...........|...........
|...........|...........|...........|...........|...........
|G-501v08...|G-601v12...|G-301v09...|...........|...........
|...........|...........|...........|...........|...........
|===........|===........|===........|...........|...........
|...........|...........|...........|...........|...........
|...........|...........|...........|...........|...........
|...........|...........|...........|...........|...........
|A-501v15...|A-601v15...|F-401v11...|...........|...........
|===........|===........|===........|...........|...........
|...........|...........|...........|...........|...........
|...........|...........|...........|...........|...........
|...........|...........|...........|...........|...........
|B-501v17...|B-601v13...|...........|...........|...........
|===........|...........|D-401v08...|...........|...........
|...........|===........|===........|...........|...........
|...........|...........|...........|...........|...........
|...........|...........|...........|...........|...........
|...........|...........|...........|...........|...........
|C-601v20...|C-701v19...|F-401v11...|...........|...........
|===........|===........|...........|...........|...........
|...........|...........|===........|...........|...........
|...........|...........|...........|...........|...........
|...........|...........|...........|...........|...........
|D-601v20...|D-701v19...|G-301v10...|...........|...........
|===........|...........|...........|...........|...........
|...........|===........|===........|...........|...........
|...........|...........|...........|...........|...........
|...........|...........|...........|...........|...........
|...........|...........|...........|...........|...........
|C#601v15...|F-401v11...|C#701v14...|...........|...........
|===........|===........|===........|...........|...........
|...........|...........|...........|...........|...........
|...........|...........|...........|...........|...........
|...........|...........|...........|...........|...........
|D-701v16...|D-601v15...|D-401v08...|...........|...........
|===........|...........|...........|...........|...........
|...........|===........|===........|...........|...........
|...........|...........|...........|...........|...........
|...........|...........|...........|...........|...........
|B-501v19...|...........|...........|...........|...........
|...........|B-601v13...|F-401v12...|...........|...........
|===........|===........|...........|...........|...........
|...........|...........|===........|...........|...........
|...........|...........|...........|...........|...........
|...........|...........|...........|...........|...........
|C-701v25...|C-601v17...|G-301v12...|...........|...........
|===........|===........|...........|...........|...........
|...........|...........|===........|...........|...........
|...........|...........|...........|...........|...........
|...........|...........|...........|...........|...........
|D-701v25...|D-601v24...|...........|...........|...........
|...........|...........|E-401v17...|...........|...........
|===........|===........|===........|...........|...........
|...........|...........|...........|...........|...........
|...........|...........|...........|...........|...........
|...........|...........|...........|...........|...........
|E-701v29...|E-601v25...|C-401v18...|...........|...........
|===........|===........|...........|...........|...........
|...........|...........|===........|...........|...........
|...........|...........|...........|...........|...........
|...........|...........|...........|...........|...........
|F-701v30...|F-601v29...|...........|...........|...........
|...........|...........|E-401v17...|...........|...........
|===........|===........|...........|...........|...........
|...........|...........|===........|...........|...........
|...........|...........|...........|...........|...........
|...........|...........|...........|...........|...........
|G-701v33...|G-601v32...|...........|...........|...........
|...........|===........|G-301v18...|...........|...........
|===........|...........|===........|...........|...........
|...........|...........|...........|...........|...........
|...........|...........|...........|...........|...........
|...........|...........|...........|...........|...........
|F#601v29...|F#701v29...|E-401v21...|...........|...........
|===........|===........|===........|...........|...........
|...........|...........|...........|...........|...........
|...........|...........|...........|...........|...........
|...........|...........|...........|...........|...........
|G-701v36...|G-601v32...|C-401v19...|...........|...........
|===........|===........|...........|...........|...........
|...........|...........|...........|...........|...........
|...........|...........|===........|...........|...........
|...........|...........|...........|...........|...........
|E-401v21...|...........|...........|...........|...........
|...........|E-701v37...|E-601v31...|...........|...........
|===........|===........|===........|...........|...........
|...........|...........|...........|...........|...........
|...........|...........|...........|...........|...........
|...........|...........|...........|...........|...........
|...........|...........|...........|...........|...........
|G-401v33...|B-601v33...|G-701v42...|E-401v29...|B-301v28...
|...........|...........|...........|...........|...........
|===........|...........|...........|...........|...........
|...........|...........|...........|...........|===........
|...........|...........|...........|===........|...........
|B-701v33...|...........|===........|...........|...........
|...........|===........|...........|...........|...........
|===........|...........|...........|...........|...........
|...........|...........|...........|...........|...........
|...........|...........|...........|...........|...........
|...........|...........|...........|...........|...........
|G-601v30...|E-701v32...|G-401v32...|E-401v29...|B-301v27...
|...........|...........|===........|===........|...........
|...........|...........|...........|...........|===........
|...........|...........|...........|...........|...........
|...........|...........|...........|...........|...........
|...........|===........|G-701v30...|...........|...........
|===........|...........|===........|...........|...........
|...........|...........|...........|...........|...........
|...........|...........|...........|...........|...........
|...........|...........|...........|...........|...........
|...........|...........|...........|...........|...........
|G-401v31...|E-601v27...|B-601v28...|E-401v23...|B-301v18...
|===........|...........|...........|===........|===........
|...........|...........|...........|...........|...........
|...........|...........|...........|...........|...........
|...........|...........|...........|...........|...........
|...........|...........|...........|...........|...........

ModPlug Tracker  IT
|E-701v32...|...........|===........|...........|...........|...........
|===........|===........|...........|...........|...........|...........
|...........|...........|...........|...........|...........|...........
|...........|...........|...........|...........|...........|...........
|...........|...........|...........|...........|...........|...........
|B-601v27...|...........|...........|...........|...........|...........
|...........|E-401v27...|G-701v32...|G-401v28...|B-301v25...|...........
|...........|===........|...........|===........|===........|...........
|...........|...........|...........|...........|...........|...........
|...........|...........|...........|...........|...........|...........
|...........|...........|...........|...........|...........|...........
|...........|B-701v32...|===........|...........|...........|...........
|===........|...........|...........|...........|...........|...........
|...........|...........|...........|...........|...........|...........
|...........|===........|...........|...........|...........|...........
|...........|...........|...........|...........|...........|...........
|...........|...........|...........|...........|...........|...........
|A-401v32...|B-301v29...|F#701v34...|B-601v30...|D#401v24...|...........
|===........|===........|...........|...........|===........|...........
|...........|...........|...........|...........|...........|...........
|...........|...........|...........|...........|...........|...........
|...........|...........|===........|...........|...........|...........
|B-701v26...|...........|...........|===........|...........|...........
|===........|...........|...........|...........|...........|...........
|...........|...........|...........|...........|...........|...........
|...........|...........|...........|...........|...........|...........
|...........|...........|...........|...........|...........|...........
|...........|...........|...........|...........|...........|...........
|F#601v29...|B-301v27...|A-401v31...|D#401v25...|D#701v28...|...........
|...........|===........|===........|===........|...........|...........
|...........|...........|...........|...........|...........|...........
|...........|...........|...........|...........|...........|...........
|...........|...........|...........|...........|...........|...........
|...........|F#701v25...|...........|...........|===........|...........
|===........|===........|...........|...........|...........|...........
|...........|...........|...........|...........|...........|...........
|...........|...........|...........|...........|...........|...........
|...........|...........|...........|...........|...........|...........
|...........|...........|...........|...........|...........|...........
|E-601v31...|E-701v31...|G-401v31...|E-401v28...|...........|...........
|...........|...........|===........|...........|...........|...........
|===........|...........|...........|===........|...........|...........
|...........|===........|...........|...........|...........|...........
|...........|...........|...........|...........|...........|...........
|...........|...........|...........|...........|...........|...........
|...........|...........|...........|...........|...........|...........
|...........|...........|...........|...........|...........|...........
|...........|...........|...........|...........|...........|...........
|...........|...........|...........|...........|...........|...........
|...........|...........|...........|...........|...........|...........
|E-701v19...|E-301v21...|...........|...........|...........|...........
|...........|...........|G-701v24...|E-401v27...|B-701v25...|...........
|===........|...........|===........|...........|===........|E-801v32...
|...........|===........|...........|===........|...........|===........
|...........|...........|...........|...........|...........|...........
|...........|...........|...........|...........|...........|...........
|...........|...........|...........|...........|...........|...........
|...........|...........|...........|...........|...........|...........
|...........|...........|...........|...........|...........|...........
|...........|...........|...........|...........|...........|...........
|...........|...........|...........|...........|...........|...........
|...........|...........|...........|...........|...........|...........
|...........|...........|...........|...........|...........|...........
|...........|...........|...........|...........|...........|...........
|...........|...........|...........|...........|...........|...........
|G-601v20...|G-501v17...|...........|...........|...........|...........
|...........|...........|G-301v13...|...........|...........|...........
|===........|===........|...........|...........|...........|...........
|...........|...........|===........|...........|...........|...........
|...........|...........|...........|...........|...........|...........
|...........|...........|...........|...........|...........|...........
|...........|...........|...........|...........|...........|...........
|A-601v21...|A-501v21...|F-401v13...|...........|...........|...........
|===........|===........|===........|...........|...........|...........
|...........|...........|...........|...........|...........|...........
|...........|...........|...........|...........|...........|...........
|...........|...........|...........|...........|...........|...........
|B-501v19...|B-601v15...|D-401v11...|...........|...........|...........
|===........|...........|...........|...........|...........|...........
|...........|===........|===........|...........|...........|...........
|...........|...........|...........|...........|...........|...........
|...........|...........|...........|...........|...........|...........
|C-701v21...|C-601v21...|...........|...........|...........|...........
|...........|...........|F-401v13...|...........|...........|...........
|===........|===........|...........|...........|...........|...........
|...........|...........|===........|...........|...........|...........
|...........|...........|...........|...........|...........|...........
|...........|...........|...........|...........|...........|...........
|D-701v18...|D-601v18...|...........|...........|...........|...........
|...........|...........|G-301v11...|...........|...........|...........
|===........|===........|...........|...........|...........|...........
|...........|...........|===........|...........|...........|...........
|...........|...........|...........|...........|...........|...........
|...........|...........|...........|...........|...........|...........
|C#601v14...|C#701v12...|F-401v08...|...........|...........|...........
|===........|===........|===........|...........|...........|...........
|...........|...........|...........|...........|...........|...........
|...........|...........|...........|...........|...........|...........
|...........|...........|...........|...........|...........|...........
|D-701v14...|D-601v13...|...........|...........|...........|...........
|...........|...........|B-301v07...|...........|...........|...........
|===........|===........|...........|...........|...........|...........
|...........|...........|===........|...........|...........|...........
|...........|...........|...........|...........|...........|...........
|...........|...........|...........|...........|...........|...........
|B-501v18...|B-601v15...|F-401v10...|...........|...........|...........
|===........|===........|...........|...........|...........|...........
|...........|...........|===........|...........|...........|...........
|...........|...........|...........|...........|...........|...........
|...........|...........|...........|...........|...........|...........
|...........|...........|...........|...........|...........|...........
|C-701v24...|C-601v23...|G-301v15...|...........|...........|...........
|===........|===........|===........|...........|...........|...........
|...........|...........|...........|...........|...........|...........
|...........|...........|...........|...........|...........|...........
|...........|...........|...........|...........|...........|...........
|D-601v21...|D-701v21...|E-401v15...|...........|...........|...........
|===........|===........|...........|...........|...........|...........
|...........|...........|===........|...........|...........|...........
|...........|...........|...........|...........|...........|...........
|...........|...........|...........|...........|...........|...........
|E-601v19...|E-701v18...|C-401v12...|...........|...........|...........
|...........|...........|...........|...........|...........|...........
|===........|===........|===........|...........|...........|...........
|...........|...........|...........|...........|...........|...........
|...........|...........|...........|...........|...........|...........
|...........|...........|...........|...........|...........|...........
|F-601v21...|F-701v21...|E-401v13...|...........|...........|...........

ModPlug Tracker  IT
|===........|===........|...........|...........
|...........|...........|===........|...........
|...........|...........|...........|...........
|...........|...........|...........|...........
|G-601v28...|G-701v22...|G-301v14...|...........
|===........|===........|...........|...........
|...........|...........|===........|...........
|...........|...........|...........|...........
|...........|...........|...........|...........
|...........|...........|...........|...........
|F#601v27...|F#701v27...|E-401v14...|...........
|===........|===........|...........|...........
|...........|...........|===........|...........
|...........|...........|...........|...........
|...........|...........|...........|...........
|G-601v31...|G-701v32...|C-401v20...|...........
|===........|===........|...........|...........
|...........|...........|===........|...........
|...........|...........|...........|...........
|...........|...........|...........|...........
|E-601v31...|E-701v31...|...........|...........
|...........|...........|E-401v16...|...........
|===........|===........|===........|...........
|...........|...........|...........|...........
|...........|...........|...........|...........
|...........|...........|...........|...........
|...........|...........|...........|...........
|A-601v26...|F-701v28...|G-301v15...|...........
|...........|...........|...........|...........
|...........|...........|...........|...........
|...........|...........|...........|...........
|...........|...........|===........|...........
|...........|A-701v21...|D-401v15...|...........
|===........|===........|===........|...........
|...........|...........|...........|...........
|...........|...........|...........|...........
|...........|...........|...........|...........
|...........|...........|...........|...........
|F-601v21...|D-701v23...|B-301v12...|...........
|...........|...........|...........|...........
|...........|...........|...........|...........
|...........|...........|===........|...........
|...........|...........|...........|...........
|...........|F-701v17...|D-401v14...|...........
|===........|===........|...........|...........
|...........|...........|===........|...........
|...........|...........|...........|...........
|...........|...........|...........|...........
|...........|...........|...........|...........
|D-601v20...|B-601v21...|G-301v12...|...........
|...........|...........|...........|...........
|...........|...........|...........|...........
|...........|...........|===........|...........
|...........|...........|...........|...........
|...........|F-401v14...|D-701v21...|...........
|===........|===........|===........|...........
|...........|...........|...........|...........
|...........|...........|...........|...........
|...........|...........|...........|...........
|...........|...........|...........|...........
|B-501v16...|G-601v16...|D-401v09...|...........
|...........|...........|...........|...........
|...........|...........|...........|...........
|...........|...........|===........|...........
|...........|...........|...........|...........
|...........|===........|B-601v17...|F-401v12...
|===........|...........|...........|...........
|...........|...........|===........|...........
|...........|...........|...........|===........
|...........|...........|...........|...........
|...........|...........|...........|...........
|E-601v21...|C-701v23...|G-301v15...|...........
|...........|...........|...........|...........
|...........|...........|===........|...........
|...........|...........|...........|...........
|...........|...........|...........|...........
|...........|===........|E-701v21...|...........
|===........|E-401v13...|===........|...........
|...........|...........|...........|...........
|...........|===........|...........|...........
|...........|...........|...........|...........
|...........|...........|...........|...........
|G-601v23...|C-601v21...|C-401v14...|...........
|...........|...........|...........|...........
|...........|...........|===........|...........
|...........|...........|...........|...........
|...........|...........|...........|...........
|E-401v12...|...........|C-701v22...|...........
|...........|===........|===........|...........
|...........|...........|...........|...........
|===........|...........|...........|...........
|...........|...........|...........|...........
|G-501v18...|E-601v18...|...........|...........
|...........|...........|G-301v10...|...........
|...........|...........|...........|...........
|...........|...........|...........|...........
|...........|...........|===........|...........
|...........|...........|...........|...........
|...........|G-601v12...|E-401v11...|...........
|===........|===........|...........|...........
|...........|...........|===........|...........
|...........|...........|...........|...........
|...........|...........|...........|...........
|E-501v12...|C-601v14...|...........|...........
|...........|...........|C-401v10...|...........
|...........|...........|...........|...........
|...........|...........|...........|...........
|...........|...........|===........|...........
|...........|...........|...........|...........
|E-601v10...|E-401v07...|...........|...........
|===........|...........|...........|...........
|...........|...........|...........|...........
|...........|===........|...........|...........
|...........|...........|...........|...........
|...........|...........|...........|...........
|G-501v08...|G-601v12...|G-301v09...|...........
|...........|...........|...........|...........
|===........|===........|===........|...........
|...........|...........|...........|...........
|...........|...........|...........|...........
|...........|...........|...........|...........
|A-501v15...|A-601v15...|F-401v11...|...........
|===........|===........|===........|...........
|...........|...........|...........|...........
|...........|...........|...........|...........
|...........|...........|...........|...........
|B-501v17...|B-601v13...|D-401v08...|...........
|===........|...........|...........|...........

ModPlug Tracker  IT
|...........|===........|===........|...........|...........
|...........|...........|...........|...........|...........
|...........|...........|...........|...........|...........
|C-601v20...|C-701v19...|...........|...........|...........
|...........|...........|F-401v11...|...........|...........
|===........|===........|...........|...........|...........
|...........|...........|===........|...........|...........
|...........|...........|...........|...........|...........
|...........|...........|...........|...........|...........
|D-601v20...|D-701v19...|G-301v10...|...........|...........
|===........|===........|...........|...........|...........
|...........|...........|===........|...........|...........
|...........|...........|...........|...........|...........
|...........|...........|...........|...........|...........
|C#601v15...|...........|...........|...........|...........
|===........|F-401v11...|C#701v14...|...........|...........
|...........|===........|===........|...........|...........
|...........|...........|...........|...........|...........
|...........|...........|...........|...........|...........
|...........|...........|...........|...........|...........
|D-701v16...|D-601v15...|D-401v08...|...........|...........
|===........|===........|...........|...........|...........
|...........|...........|===........|...........|...........
|...........|...........|...........|...........|...........
|...........|...........|...........|...........|...........
|B-501v19...|...........|...........|...........|...........
|...........|B-601v13...|F-401v12...|...........|...........
|===........|===........|...........|...........|...........
|...........|...........|===........|...........|...........
|...........|...........|...........|...........|...........
|...........|...........|...........|...........|...........
|C-701v25...|C-601v17...|G-301v12...|...........|...........
|===........|===........|...........|...........|...........
|...........|...........|===........|...........|...........
|...........|...........|...........|...........|...........
|...........|...........|...........|...........|...........
|D-701v25...|D-601v24...|...........|...........|...........
|...........|...........|E-401v17...|...........|...........
|===........|===........|===........|...........|...........
|...........|...........|...........|...........|...........
|...........|...........|...........|...........|...........
|...........|...........|...........|...........|...........
|E-701v29...|E-601v25...|C-401v18...|...........|...........
|===........|===........|...........|...........|...........
|...........|...........|===........|...........|...........
|...........|...........|...........|...........|...........
|...........|...........|...........|...........|...........
|F-701v30...|F-601v29...|...........|...........|...........
|...........|...........|E-401v17...|...........|...........
|===........|===........|...........|...........|...........
|...........|...........|===........|...........|...........
|...........|...........|...........|...........|...........
|...........|...........|...........|...........|...........
|G-701v33...|G-601v32...|G-301v18...|...........|...........
|===........|===........|...........|...........|...........
|...........|...........|===........|...........|...........
|...........|...........|...........|...........|...........
|...........|...........|...........|...........|...........
|...........|...........|...........|...........|...........
|F#601v29...|F#701v29...|E-401v21...|...........|...........
|===........|===........|===........|...........|...........
|...........|...........|...........|...........|...........
|...........|...........|...........|...........|...........
|...........|...........|...........|...........|...........
|G-701v36...|G-601v32...|C-401v19...|...........|...........
|===........|===........|...........|...........|...........
|...........|...........|...........|...........|...........
|...........|...........|===........|...........|...........
|...........|...........|...........|...........|...........
|E-401v21...|E-701v37...|E-601v31...|...........|...........
|...........|...........|...........|...........|...........
|===........|===........|===........|...........|...........
|...........|...........|...........|...........|...........
|...........|...........|...........|...........|...........
|...........|...........|...........|...........|...........
|G-401v33...|B-601v33...|G-701v42...|E-401v29...|B-301v28...
|...........|...........|...........|...........|...........
|...........|...........|...........|...........|...........
|===........|...........|...........|...........|...........
|...........|...........|...........|===........|===........
|...........|...........|...........|...........|...........
|B-701v33...|...........|===........|...........|...........
|===........|===........|...........|...........|...........
|...........|...........|...........|...........|...........
|...........|...........|...........|...........|...........
|...........|...........|...........|...........|...........
|...........|...........|...........|...........|...........
|G-601v30...|E-701v32...|G-401v32...|E-401v29...|B-301v27...
|...........|...........|===........|===........|===........
|...........|...........|...........|...........|...........
|...........|...........|...........|...........|...........
|...........|...........|...........|...........|...........
|...........|===........|G-701v30...|...........|...........
|===........|...........|===........|...........|...........
|...........|...........|...........|...........|...........
|...........|...........|...........|...........|...........
|...........|...........|...........|...........|...........
|...........|...........|...........|...........|...........
|G-401v31...|E-601v27...|B-601v28...|E-401v23...|B-301v18...
|===........|...........|...........|===........|===........
|...........|...........|...........|...........|...........
|...........|...........|...........|...........|...........
|...........|...........|...........|...........|...........
|E-701v32...|...........|...........|...........|...........
|...........|===........|===........|...........|...........
|===........|...........|...........|...........|...........
|...........|...........|...........|...........|...........
|...........|...........|...........|...........|...........
|...........|...........|...........|...........|...........
|B-601v27...|E-401v27...|G-701v32...|G-401v28...|B-301v25...
|...........|===........|...........|...........|...........
|...........|...........|...........|===........|===........
|...........|...........|...........|...........|...........
|...........|...........|...........|...........|...........
|...........|...........|...........|...........|...........
|...........|B-701v32...|===........|...........|...........
|===........|...........|...........|...........|...........
|...........|...........|...........|...........|...........
|...........|===........|...........|...........|...........
|...........|...........|...........|...........|...........
|A-401v32...|B-301v29...|F#701v34...|B-601v30...|...........
|===........|...........|...........|...........|D#401v24...
|...........|===........|...........|...........|===........
|...........|...........|...........|...........|...........
|...........|...........|...........|...........|...........
|...........|...........|===........|...........|...........
|B-701v26...|...........|...........|===........|...........
|===........|...........|...........|...........|...........

ModPlug Tracker  IT
|...........|...........|...........|...........|...........|...........
|...........|...........|...........|...........|...........|...........
|...........|...........|...........|...........|...........|...........
|F#601v29...|B-301v27...|...........|...........|...........|...........
|...........|...........|A-401v31...|D#401v25...|D#701v28...|...........
|...........|===........|===........|===........|...........|...........
|...........|...........|...........|...........|...........|...........
|...........|...........|...........|...........|...........|...........
|...........|...........|...........|...........|...........|...........
|...........|F#701v25...|...........|...........|===........|...........
|===........|===........|...........|...........|...........|...........
|...........|...........|...........|...........|...........|...........
|...........|...........|...........|...........|...........|...........
|...........|...........|...........|...........|...........|...........
|...........|...........|...........|...........|...........|...........
|E-601v31...|E-701v31...|G-401v31...|E-401v28...|...........|...........
|===........|...........|===........|...........|...........|...........
|...........|===........|...........|===........|...........|...........
|...........|...........|...........|...........|...........|...........
|...........|...........|...........|...........|...........|...........
|...........|...........|...........|...........|...........|...........
|...........|...........|...........|...........|...........|...........
|...........|...........|...........|...........|...........|...........
|...........|...........|...........|...........|...........|...........
|...........|...........|...........|...........|...........|...........
|...........|...........|...........|...........|...........|...........
!channels 1+2+3+6
|E-701v19...|E-301v21...|...........|...........|...........|...........
|...........|...........|G-701v24...|E-401v27...|B-701v25...|E-801v32...
|===........|...........|===........|...........|===........|...........
|...........|===........|...........|===........|...........|===........
!channels 1+2+3+4
|...........|...........|...........|...........|...........|...........
|...........|...........|...........|...........|...........|...........
|...........|...........|...........|...........|...........|...........
|...........|...........|...........|...........|...........|...........
|...........|...........|...........|...........|...........|...........
|...........|...........|...........|...........|...........|...........
|...........|...........|...........|...........|...........|...........
|...........|...........|...........|...........|...........|...........
|...........|...........|...........|...........|...........|...........
|...........|...........|...........|...........|...........|...........

