ModPlug Tracker MPT
|D-501v32X66|...........|...........|...........
|...........|...........|...........|...........
|...........|...........|...........|...........
|...........|...........|...........|...........
|D-501v32...|...........|...........|...........
|...........|...........|...........|...........
|...........|...........|...........|...........
|...........|...........|...........|...........
|D-601v32...|...........|...........|...........
|...........|...........|...........|...........
|...........|...........|...........|...........
|...........|...........|...........|...........
|...........|...........|...........|...........
|...........|...........|...........|...........
|...........|...........|...........|...........
|...........|...........|...........|...........
|A-501v32...|...........|...........|...........
|...........|...........|...........|...........
|...........|...........|...........|...........
|...........|...........|...........|...........
|...........|...........|...........|...........
|...........|...........|...........|...........
|...........|...........|...........|...........
|...........|...........|...........|...........
|...........|...........|...........|...........
|...........|...........|...........|...........
|...........|...........|...........|...........
|...........|...........|...........|...........
|G#501v32...|...........|...........|...........
|...........|...........|...........|...........
|...........|...........|...........|...........
|...........|...........|...........|...........
|...........|...........|...........|...........
|...........|...........|...........|...........
|...........|...........|...........|...........
|...........|...........|...........|...........
|G-501v32...|...........|...........|...........
|...........|...........|...........|...........
|...........|...........|...........|...........
|...........|...........|...........|...........
|...........|...........|...........|...........
|...........|...........|...........|...........
|...........|...........|...........|...........
|...........|...........|...........|...........
|F-501v32...|...........|...........|...........
|...........|...........|...........|...........
|...........|...........|...........|...........
|...........|...........|...........|...........
|...........|...........|...........|...........
|...........|...........|...........|...........
|...........|...........|...........|...........
|...........|...........|...........|...........
|D-501v32...|...........|...........|...........
|...........|...........|...........|...........
|...........|...........|...........|...........
|...........|...........|...........|...........
|F-501v32...|...........|...........|...........
|...........|...........|...........|...........
|...........|...........|...........|...........
|...........|...........|...........|...........
|G-501v32...|...........|...........|...........
|...........|...........|...........|...........
|...........|...........|...........|...........
|...........|...........|...........|...........
|C-501v32...|...........|...........|...........
|...........|...........|...........|...........
|...........|...........|...........|...........
|...........|...........|...........|...........
|C-501v32...|...........|...........|...........
|...........|...........|...........|...........
|...........|...........|...........|...........
|...........|...........|...........|...........
|D-601v32...|...........|...........|...........
|...........|...........|...........|...........
|...........|...........|...........|...........
|...........|...........|...........|...........
|...........|...........|...........|...........
|...........|...........|...........|...........
|...........|...........|...........|...........
|...........|...........|...........|...........
|A-501v32...|...........|...........|...........
|...........|...........|...........|...........
|...........|...........|...........|...........
|...........|...........|...........|...........
|...........|...........|...........|...........
|...........|...........|...........|...........
|...........|...........|...........|...........
|...........|...........|...........|...........
|...........|...........|...........|...........
|...........|...........|...........|...........
|...........|...........|...........|...........
|...........|...........|...........|...........
|G#501v32...|...........|...........|...........
|...........|...........|...........|...........
|...........|...........|...........|...........
|...........|...........|...........|...........
|...........|...........|...........|...........
|...........|...........|...........|...........
|...........|...........|...........|...........
|...........|...........|...........|...........
|G-501v32...|...........|...........|...........
|...........|...........|...........|...........
|...........|...........|...........|...........
|...........|...........|...........|...........
|...........|...........|...........|...........
|...........|...........|...........|...........
|...........|...........|...........|...........
|...........|...........|...........|...........
|F-501v32...|...........|...........|...........
|...........|...........|...........|...........
|...........|...........|...........|...........
|...........|...........|...........|...........
|...........|...........|...........|...........
|...........|...........|...........|...........
|...........|...........|...........|...........
|...........|...........|...........|...........
|D-501v32...|...........|...........|...........
|...........|...........|...........|...........
|...........|...........|...........|...........
|...........|...........|...........|...........
|F-501v32...|...........|...........|...........
|...........|...........|...........|...........
|...........|...........|...........|...........
|...........|...........|...........|...........
|G-501v32...|...........|...........|...........
|...........|...........|...........|...........
|...........|...........|...........|...........
|...........|...........|...........|...........
ModPlug Tracker MPT
|B-401v32...|...........|...........|...........
|...........|...........|...........|...........
|...........|...........|...........|...........
|...........|...........|...........|...........
|B-401v32...|...........|...........|...........
|...........|...........|...........|...........
|...........|...........|...........|...........
|...........|...........|...........|...........
|D-601v32...|...........|...........|...........
|...........|...........|...........|...........
|...........|...........|...........|...........
|...........|...........|...........|...........
|...........|...........|...........|...........
|...........|...........|...........|...........
|...........|...........|...........|...........
|...........|...........|...........|...........
|A-501v32...|...........|...........|...........
|...........|...........|...........|...........
|...........|...........|...........|...........
|...........|...........|...........|...........
|...........|...........|...........|...........
|...........|...........|...........|...........
|...........|...........|...........|...........
|...........|...........|...........|...........
|...........|...........|...........|...........
|...........|...........|...........|...........
|...........|...........|...........|...........
|...........|...........|...........|...........
|G#501v32...|...........|...........|...........
|...........|...........|...........|...........
|...........|...........|...........|...........
|...........|...........|...........|...........
|...........|...........|...........|...........
|...........|...........|...........|...........
|...........|...........|...........|...........
|...........|...........|...........|...........
|G-501v32...|...........|...........|...........
|...........|...........|...........|...........
|...........|...........|...........|...........
|...........|...........|...........|...........
|...........|...........|...........|...........
|...........|...........|...........|...........
|...........|...........|...........|...........
|...........|...........|...........|...........
|F-501v32...|...........|...........|...........
|...........|...........|...........|...........
|...........|...........|...........|...........
|...........|...........|...........|...........
|...........|...........|...........|...........
|...........|...........|...........|...........
|...........|...........|...........|...........
|...........|...........|...........|...........
|D-501v32...|...........|...........|...........
|...........|...........|...........|...........
|...........|...........|...........|...........
|...........|...........|...........|...........
|F-501v32...|...........|...........|...........
|...........|...........|...........|...........
|...........|...........|...........|...........
|...........|...........|...........|...........
|G-501v32...|...........|...........|...........
|...........|...........|...........|...........
|...........|...........|...........|...........
|...........|...........|...........|...........
|A#401v32...|...........|...........|...........
|...........|...........|...........|...........
|...........|...........|...........|...........
|...........|...........|...........|...........
|A#401v32...|...........|...........|...........
|...........|...........|...........|...........
|...........|...........|...........|...........
|...........|...........|...........|...........
|D-601v32...|...........|...........|...........
|...........|...........|...........|...........
|...........|...........|...........|...........
|...........|...........|...........|...........
|...........|...........|...........|...........
|...........|...........|...........|...........
|...........|...........|...........|...........
|...........|...........|...........|...........
|A-501v32...|...........|...........|...........
|...........|...........|...........|...........
|...........|...........|...........|...........
|...........|...........|...........|...........
|...........|...........|...........|...........
|...........|...........|...........|...........
|...........|...........|...........|...........
|...........|...........|...........|...........
|...........|...........|...........|...........
|...........|...........|...........|...........
|...........|...........|...........|...........
|...........|...........|...........|...........
|G#501v32...|...........|...........|...........
|...........|...........|...........|...........
|...........|...........|...........|...........
|...........|...........|...........|...........
|...........|...........|...........|...........
|...........|...........|...........|...........
|...........|...........|...........|...........
|...........|...........|...........|...........
|G-501v32...|...........|...........|...........
|...........|...........|...........|...........
|...........|...........|...........|...........
|...........|...........|...........|...........
|...........|...........|...........|...........
|...........|...........|...........|...........
|...........|...........|...........|...........
|...........|...........|...........|...........
|F-501v32...|...........|...........|...........
|...........|...........|...........|...........
|...........|...........|...........|...........
|...........|...........|...........|...........
|...........|...........|...........|...........
|...........|...........|...........|...........
|...........|...........|...........|...........
|...........|...........|...........|...........
|D-501v32...|...........|...........|...........
|...........|...........|...........|...........
|...........|...........|...........|...........
|...........|...........|...........|...........
|F-501v32...|...........|...........|...........
|...........|...........|...........|...........
|...........|...........|...........|...........
|...........|...........|...........|...........
|G-501v32...|...........|...........|...........
|...........|...........|...........|...........
|...........|...........|...........|...........
|...........|...........|...........|...........
ModPlug Tracker MPT
|D-501v32...|...........|D-401v23X66|...........
|...........|...........|...........|...........
|...........|...........|...........|...........
|...........|...........|...........|...........
|D-501v32...|...........|...........|...........
|...........|...........|...........|...........
|...........|...........|...........|...........
|...........|...........|...........|...........
|D-601v32...|...........|D-401v31...|...........
|...........|...........|...........|...........
|...........|...........|...........|...........
|...........|...........|...........|...........
|...........|...........|...........|...........
|...........|...........|...........|...........
|...........|...........|...........|...........
|...........|...........|...........|...........
|A-501v32...|...........|D-401v28...|...........
|...........|...........|...........|...........
|...........|...........|...........|...........
|...........|...........|...........|...........
|...........|...........|D-401v28...|...........
|...........|...........|...........|...........
|...........|...........|...........|...........
|...........|...........|...........|...........
|...........|...........|...........|...........
|...........|...........|...........|...........
|...........|...........|...........|...........
|...........|...........|...........|...........
|G#501v32...|...........|D-401v27...|...........
|...........|...........|...........|...........
|...........|...........|...........|...........
|...........|...........|...........|...........
|...........|...........|...........|...........
|...........|...........|...........|...........
|...........|...........|...........|...........
|...........|...........|...........|...........
|G-501v32...|...........|D-401v26...|...........
|...........|...........|...........|...........
|...........|...........|...........|...........
|...........|...........|...........|...........
|...........|...........|...........|...........
|...........|...........|...........|...........
|...........|...........|...........|...........
|...........|...........|...........|...........
|F-501v32...|...........|D-401v29...|...........
|...........|...........|...........|...........
|...........|...........|...........|...........
|...........|...........|...........|...........
|...........|...........|...........|...........
|...........|...........|...........|...........
|...........|...........|...........|...........
|...........|...........|...........|...........
|D-501v32...|...........|D-401v28...|...........
|...........|...........|...........|...........
|...........|...........|...........|...........
|...........|...........|...........|...........
|F-501v32...|...........|D-401v30...|...........
|...........|...........|...........|...........
|...........|...........|...........|...........
|...........|...........|...........|...........
|G-501v32...|...........|...........|...........
|...........|...........|...........|...........
|...........|...........|...........|...........
|...........|...........|...........|...........
|C-501v32...|...........|C-401v26...|...........
|...........|...........|...........|...........
|...........|...........|...........|...........
|...........|...........|...........|...........
|C-501v32...|...........|...........|...........
|...........|...........|...........|...........
|...........|...........|...........|...........
|...........|...........|...........|...........
|D-601v32...|...........|C-401v28...|...........
|...........|...........|...........|...........
|...........|...........|...........|...........
|...........|...........|...........|...........
|...........|...........|...........|...........
|...........|...........|...........|...........
|...........|...........|...........|...........
|...........|...........|...........|...........
|A-501v32...|...........|C-401v26...|...........
|...........|...........|...........|...........
|...........|...........|...........|...........
|...........|...........|...........|...........
|...........|...........|C-401v27...|...........
|...........|...........|...........|...........
|...........|...........|...........|...........
|...........|...........|...........|...........
|...........|...........|...........|...........
|...........|...........|...........|...........
|...........|...........|...........|...........
|...........|...........|...........|...........
|G#501v32...|...........|C-401v26...|...........
|...........|...........|...........|...........
|...........|...........|...........|...........
|...........|...........|...........|...........
|...........|...........|...........|...........
|...........|...........|...........|...........
|...........|...........|...........|...........
|...........|...........|...........|...........
|G-501v32...|...........|C-401v25...|...........
|...........|...........|...........|...........
|...........|...........|...........|...........
|...........|...........|...........|...........
|...........|...........|...........|...........
|...........|...........|...........|...........
|...........|...........|...........|...........
|...........|...........|...........|...........
|F-501v32...|...........|C-401v26...|...........
|...........|...........|...........|...........
|...........|...........|...........|...........
|...........|...........|...........|...........
|...........|...........|...........|...........
|...........|...........|...........|...........
|...........|...........|...........|...........
|...........|...........|...........|...........
|D-501v32...|...........|C-401v23...|...........
|...........|...........|...........|...........
|...........|...........|...........|...........
|...........|...........|...........|...........
|F-501v32...|...........|C-401v27...|...........
|...........|...........|...........|...........
|...........|...........|...........|...........
|...........|...........|...........|...........
|G-501v32...|...........|...........|...........
|...........|...........|...........|...........
|...........|...........|...........|...........
|...........|...........|...........|...........
ModPlug Tracker MPT
|B-401v32...|...........|B-301v27...|...........
|...........|...........|...........|...........
|...........|...........|...........|...........
|...........|...........|...........|...........
|B-401v32...|...........|...........|...........
|...........|...........|...........|...........
|...........|...........|...........|...........
|...........|...........|...........|...........
|D-601v32...|...........|B-301v25...|...........
|...........|...........|...........|...........
|...........|...........|...........|...........
|...........|...........|...........|...........
|...........|...........|...........|...........
|...........|...........|...........|...........
|...........|...........|...........|...........
|...........|...........|...........|...........
|A-501v32...|...........|B-301v29...|...........
|...........|...........|...........|...........
|...........|...........|...........|...........
|...........|...........|...........|...........
|...........|...........|B-301v29...|...........
|...........|...........|...........|...........
|...........|...........|...........|...........
|...........|...........|...........|...........
|...........|...........|...........|...........
|...........|...........|...........|...........
|...........|...........|...........|...........
|...........|...........|...........|...........
|G#501v32...|...........|B-301v30...|...........
|...........|...........|...........|...........
|...........|...........|...........|...........
|...........|...........|...........|...........
|...........|...........|...........|...........
|...........|...........|...........|...........
|...........|...........|...........|...........
|...........|...........|...........|...........
|G-501v32...|...........|B-301v28...|...........
|...........|...........|...........|...........
|...........|...........|...........|...........
|...........|...........|...........|...........
|...........|...........|...........|...........
|...........|...........|...........|...........
|...........|...........|...........|...........
|...........|...........|...........|...........
|F-501v32...|...........|B-301v28...|...........
|...........|...........|...........|...........
|...........|...........|...........|...........
|...........|...........|...........|...........
|...........|...........|...........|...........
|...........|...........|...........|...........
|...........|...........|...........|...........
|...........|...........|...........|...........
|D-501v32...|...........|B-301v28...|...........
|...........|...........|...........|...........
|...........|...........|...........|...........
|...........|...........|...........|...........
|F-501v32...|...........|B-301v28...|...........
|...........|...........|...........|...........
|...........|...........|...........|...........
|...........|...........|...........|...........
|G-501v32...|...........|...........|...........
|...........|...........|...........|...........
|...........|...........|...........|...........
|...........|...........|...........|...........
|A#401v32...|...........|A#301v25...|...........
|...........|...........|...........|...........
|...........|...........|...........|...........
|...........|...........|...........|...........
|A#401v32...|...........|...........|...........
|...........|...........|...........|...........
|...........|...........|...........|...........
|...........|...........|...........|...........
|D-601v32...|...........|A#301v28...|...........
|...........|...........|...........|...........
|...........|...........|...........|...........
|...........|...........|...........|...........
|...........|...........|...........|...........
|...........|...........|...........|...........
|...........|...........|...........|...........
|...........|...........|...........|...........
|A-501v32...|...........|A#301v26...|...........
|...........|...........|...........|...........
|...........|...........|...........|...........
|...........|...........|...........|...........
|...........|...........|A#301v25...|...........
|...........|...........|...........|...........
|...........|...........|...........|...........
|...........|...........|...........|...........
|...........|...........|...........|...........
|...........|...........|...........|...........
|...........|...........|...........|...........
|...........|...........|...........|...........
|G#501v32...|...........|C-501v27...|...........
|...........|...........|...........|...........
|...........|...........|...........|...........
|...........|...........|...........|...........
|...........|...........|...........|...........
|...........|...........|...........|...........
|...........|...........|...........|...........
|...........|...........|...........|...........
|G-501v32...|...........|C-501v29...|...........
|...........|...........|...........|...........
|...........|...........|...........|...........
|...........|...........|...........|...........
|...........|...........|...........|...........
|...........|...........|...........|...........
|...........|...........|...........|...........
|...........|...........|...........|...........
|F-501v32...|...........|C-501v26...|...........
|...........|...........|...........|...........
|...........|...........|...........|...........
|...........|...........|...........|...........
|...........|...........|...........|...........
|...........|...........|...........|...........
|...........|...........|...........|...........
|...........|...........|...........|...........
|D-501v32...|...........|C-501v27...|...........
|...........|...........|...........|...........
|...........|...........|...........|...........
|...........|...........|...........|...........
|F-501v32...|...........|C-501v27...|...........
|...........|...........|...........|...........
|...........|...........|...........|...........
|...........|...........|...........|...........
|G-501v32...|...........|...........|...........
|...........|...........|...........|...........
|...........|...........|...........|...........
|...........|...........|...........|...........
ModPlug Tracker MPT
|D-601v62...|...........|D-301v22...|D-401v32X26
|...........|...........|...........|...........
|...........|...........|...........|...........
|...........|...........|...........|...........
|D-601v62...|...........|...........|...........
|...........|...........|...........|...........
|...........|...........|...........|...........
|...........|...........|...........|...........
|D-701v62...|...........|D-401v28...|D-301v18...
|...........|...........|...........|...........
|...........|...........|...........|...........
|...........|...........|...........|...........
|...........|...........|...........|...........
|...........|...........|...........|...........
|...........|...........|...........|...........
|...........|...........|...........|...........
|A-601v62...|...........|D-401v30...|D-301v30...
|...........|...........|...........|...........
|...........|...........|...........|...........
|...........|...........|...........|...........
|...........|...........|D-301v30...|D-401v30...
|...........|...........|...........|...........
|...........|...........|...........|...........
|...........|...........|...........|...........
|...........|...........|...........|...........
|...........|...........|...........|...........
|...........|...........|...........|...........
|...........|...........|...........|...........
|G#601v62...|...........|D-301v25...|D-401v25...
|...........|...........|...........|...........
|...........|...........|...........|...........
|...........|...........|...........|...........
|...........|...........|...........|...........
|...........|...........|...........|...........
|...........|...........|...........|...........
|...........|...........|...........|...........
|G-601v62...|...........|D-401v27...|D-301v27...
|...........|...........|...........|...........
|...........|...........|...........|...........
|...........|...........|...........|...........
|...........|...........|...........|...........
|...........|...........|...........|...........
|...........|...........|...........|...........
|...........|...........|...........|...........
|F-601v62...|...........|D-301v25...|D-401v25...
|...........|...........|...........|...........
|...........|...........|...........|...........
|...........|...........|...........|...........
|...........|...........|...........|...........
|...........|...........|...........|...........
|...........|...........|...........|...........
|...........|...........|...........|...........
|D-601v62...|...........|D-301v29...|D-401v29...
|...........|...........|...........|...........
|...........|...........|...........|...........
|...........|...........|...........|...........
|F-601v62...|...........|D-301v26...|D-401v26...
|...........|...........|...........|...........
|...........|...........|...........|...........
|...........|...........|...........|...........
|G-601v62...|...........|...........|...........
|...........|...........|...........|...........
|...........|...........|...........|...........
|...........|...........|...........|...........
|C-601v62...|...........|C-401v25...|C-301v25...
|...........|...........|...........|...........
|...........|...........|...........|...........
|...........|...........|...........|...........
|C-601v62...|...........|...........|...........
|...........|...........|...........|...........
|...........|...........|...........|...........
|...........|...........|...........|...........
|D-701v62...|...........|C-401v26...|C-301v26...
|...........|...........|...........|...........
|...........|...........|...........|...........
|...........|...........|...........|...........
|...........|...........|...........|...........
|...........|...........|...........|...........
|...........|...........|...........|...........
|...........|...........|...........|...........
|A-601v62...|...........|C-401v31...|C-301v31...
|...........|...........|...........|...........
|...........|...........|...........|...........
|...........|...........|...........|...........
|...........|...........|C-301v31...|C-401v31...
|...........|...........|...........|...........
|...........|...........|...........|...........
|...........|...........|...........|...........
|...........|...........|...........|...........
|...........|...........|...........|...........
|...........|...........|...........|...........
|...........|...........|...........|...........
|G#601v62...|...........|C-401v29...|C-301v29...
|...........|...........|...........|...........
|...........|...........|...........|...........
|...........|...........|...........|...........
|...........|...........|...........|...........
|...........|...........|...........|...........
|...........|...........|...........|...........
|...........|...........|...........|...........
|G-601v62...|...........|C-301v29...|C-401v29...
|...........|...........|...........|...........
|...........|...........|...........|...........
|...........|...........|...........|...........
|...........|...........|...........|...........
|...........|...........|...........|...........
|...........|...........|...........|...........
|...........|...........|...........|...........
|F-601v62...|...........|C-401v29...|C-301v29...
|...........|...........|...........|...........
|...........|...........|...........|...........
|...........|...........|...........|...........
|...........|...........|...........|...........
|...........|...........|...........|...........
|...........|...........|...........|...........
|...........|...........|...........|...........
|D-601v62...|...........|C-301v29...|C-401v29...
|...........|...........|...........|...........
|...........|...........|...........|...........
|...........|...........|...........|...........
|F-601v62...|...........|C-401v27...|C-301v27...
|...........|...........|...........|...........
|...........|...........|...........|...........
|...........|...........|...........|...........
|G-601v62...|...........|...........|...........
|...........|...........|...........|...........
|...........|...........|...........|...........
|...........|...........|...........|...........
ModPlug Tracker MPT
|B-501v62...|...........|B-201v29...|B-301v29...
|...........|...........|...........|...........
|...........|...........|...........|...........
|...........|...........|...........|...........
|B-501v62...|...........|...........|...........
|...........|...........|...........|...........
|...........|...........|...........|...........
|...........|...........|...........|...........
|D-701v62...|...........|B-201v29...|B-301v29...
|...........|...........|...........|...........
|...........|...........|...........|...........
|...........|...........|...........|...........
|...........|...........|...........|...........
|...........|...........|...........|...........
|...........|...........|...........|...........
|...........|...........|...........|...........
|A-601v62...|...........|B-201v26...|B-301v26...
|...........|...........|...........|...........
|...........|...........|...........|...........
|...........|...........|...........|...........
|...........|...........|B-201v28...|B-301v28...
|...........|...........|...........|...........
|...........|...........|...........|...........
|...........|...........|...........|...........
|...........|...........|...........|...........
|...........|...........|...........|...........
|...........|...........|...........|...........
|...........|...........|...........|...........
|G#601v62...|...........|B-201v25...|B-301v25...
|...........|...........|...........|...........
|...........|...........|...........|...........
|...........|...........|...........|...........
|...........|...........|...........|...........
|...........|...........|...........|...........
|...........|...........|...........|...........
|...........|...........|...........|...........
|G-601v62...|...........|B-201v29...|B-301v29...
|...........|...........|...........|...........
|...........|...........|...........|...........
|...........|...........|...........|...........
|...........|...........|...........|...........
|...........|...........|...........|...........
|...........|...........|...........|...........
|...........|...........|...........|...........
|F-601v62...|...........|B-201v27...|B-301v27...
|...........|...........|...........|...........
|...........|...........|...........|...........
|...........|...........|...........|...........
|...........|...........|...........|...........
|...........|...........|...........|...........
|...........|...........|...........|...........
|...........|...........|...........|...........
|D-601v62...|...........|B-201v29...|B-301v29...
|...........|...........|...........|...........
|...........|...........|...........|...........
|...........|...........|...........|...........
|F-601v62...|...........|B-201v31...|B-301v31...
|...........|...........|...........|...........
|...........|...........|...........|...........
|...........|...........|...........|...........
|G-601v62...|...........|...........|...........
|...........|...........|...........|...........
|...........|...........|...........|...........
|...........|...........|...........|...........
|A#501v62...|...........|A#201v29...|A#301v29...
|...........|...........|...........|...........
|...........|...........|...........|...........
|...........|...........|...........|...........
|A#501v62...|...........|...........|...........
|...........|...........|...........|...........
|...........|...........|...........|...........
|...........|...........|...........|...........
|D-701v62...|...........|A#201v28...|A#301v28...
|...........|...........|...........|...........
|...........|...........|...........|...........
|...........|...........|...........|...........
|...........|...........|...........|...........
|...........|...........|...........|...........
|...........|...........|...........|...........
|...........|...........|...........|...........
|A-601v62...|...........|A#201v25...|A#301v25...
|...........|...........|...........|...........
|...........|...........|...........|...........
|...........|...........|...........|...........
|...........|...........|A#201v28...|A#301v28...
|...........|...........|...........|...........
|...........|...........|...........|...........
|...........|...........|...........|...........
|...........|...........|...........|...........
|...........|...........|...........|...........
|...........|...........|...........|...........
|...........|...........|...........|...........
|G#601v62...|...........|C-301v25...|C-401v25...
|...........|...........|...........|...........
|...........|...........|...........|...........
|...........|...........|...........|...........
|...........|...........|...........|...........
|...........|...........|...........|...........
|...........|...........|...........|...........
|...........|...........|...........|...........
|G-601v62...|...........|C-301v26...|C-401v26...
|...........|...........|...........|...........
|...........|...........|...........|...........
|...........|...........|...........|...........
|...........|...........|...........|...........
|...........|...........|...........|...........
|...........|...........|...........|...........
|...........|...........|...........|...........
|F-601v62...|...........|C-301v30...|C-401v30...
|...........|...........|...........|...........
|...........|...........|...........|...........
|...........|...........|...........|...........
|...........|...........|...........|...........
|...........|...........|...........|...........
|...........|...........|...........|...........
|...........|...........|...........|...........
|D-601v62...|...........|C-301v30...|C-401v30...
|...........|...........|...........|...........
|...........|...........|...........|...........
|...........|...........|...........|...........
|F-601v62...|...........|C-301v29...|C-401v29...
|...........|...........|...........|...........
|...........|...........|...........|...........
|...........|...........|...........|...........
|G-601v62...|...........|...........|...........
|...........|...........|...........|...........
|...........|...........|...........|...........
|...........|...........|...........|...........
ModPlug Tracker MPT
|D-601v62...|...........|D-301v26...|D-401v26...
|...........|...........|...........|...........
|...........|...........|...........|...........
|...........|...........|...........|...........
|D-601v62...|...........|...........|...........
|...........|...........|...........|...........
|...........|...........|...........|...........
|...........|...........|...........|...........
|D-701v62...|...........|D-301v25...|D-401v25...
|...........|...........|...........|...........
|...........|...........|...........|...........
|...........|...........|...........|...........
|...........|...........|...........|...........
|...........|...........|...........|...........
|...........|...........|...........|...........
|...........|...........|...........|...........
|A-601v62...|...........|D-301v33...|D-401v33...
|...........|...........|...........|...........
|...........|...........|...........|...........
|...........|...........|...........|...........
|...........|...........|D-301v27...|D-401v27...
|...........|...........|...........|...........
|...........|...........|...........|...........
|...........|...........|...........|...........
|...........|...........|...........|...........
|...........|...........|...........|...........
|...........|...........|...........|...........
|...........|...........|...........|...........
|G#601v62...|...........|D-301v28...|D-401v28...
|...........|...........|...........|...........
|...........|...........|...........|...........
|...........|...........|...........|...........
|...........|...........|...........|...........
|...........|...........|...........|...........
|...........|...........|...........|...........
|...........|...........|...........|...........
|G-601v62...|...........|D-301v28...|D-401v28...
|...........|...........|...........|...........
|...........|...........|...........|...........
|...........|...........|...........|...........
|...........|...........|...........|...........
|...........|...........|...........|...........
|...........|...........|...........|...........
|...........|...........|...........|...........
|F-601v62...|...........|D-301v32...|D-401v32...
|...........|...........|...........|...........
|...........|...........|...........|...........
|...........|...........|...........|...........
|...........|...........|...........|...........
|...........|...........|...........|...........
|...........|...........|...........|...........
|...........|...........|...........|...........
|D-601v62...|...........|D-301v29...|D-401v29...
|...........|...........|...........|...........
|...........|...........|...........|...........
|...........|...........|...........|...........
|F-601v62...|...........|D-301v25...|D-401v25...
|...........|...........|...........|...........
|...........|...........|...........|...........
|...........|...........|...........|...........
|G-601v62...|...........|...........|...........
|...........|...........|...........|...........
|...........|...........|...........|...........
|...........|...........|...........|...........
|C-601v62...|...........|C-301v25...|C-401v25...
|...........|...........|...........|...........
|...........|...........|...........|...........
|...........|...........|...........|...........
|C-601v62...|...........|...........|...........
|...........|...........|...........|...........
|...........|...........|...........|...........
|...........|...........|...........|...........
|D-701v62...|...........|C-301v29...|C-401v29...
|...........|...........|...........|...........
|...........|...........|...........|...........
|...........|...........|...........|...........
|...........|...........|...........|...........
|...........|...........|...........|...........
|...........|...........|...........|...........
|...........|...........|...........|...........
|A-601v62...|...........|C-301v29...|C-401v29...
|...........|...........|...........|...........
|...........|...........|...........|...........
|...........|...........|...........|...........
|...........|...........|C-301v26...|C-401v26...
|...........|...........|...........|...........
|...........|...........|...........|...........
|...........|...........|...........|...........
|...........|...........|...........|...........
|...........|...........|...........|...........
|...........|...........|...........|...........
|...........|...........|...........|...........
|G#601v62...|...........|C-301v29...|C-401v29...
|...........|...........|...........|...........
|...........|...........|...........|...........
|...........|...........|...........|...........
|...........|...........|...........|...........
|...........|...........|...........|...........
|...........|...........|...........|...........
|...........|...........|...........|...........
|G-601v62...|...........|C-301v30...|C-401v30...
|...........|...........|...........|...........
|...........|...........|...........|...........
|...........|...........|...........|...........
|...........|...........|...........|...........
|...........|...........|...........|...........
|...........|...........|...........|...........
|...........|...........|...........|...........
|F-601v62...|...........|C-301v27...|C-401v27...
|...........|...........|...........|...........
|...........|...........|...........|...........
|...........|...........|...........|...........
|...........|...........|...........|...........
|...........|...........|...........|...........
|...........|...........|...........|...........
|...........|...........|...........|...........
|D-601v62...|...........|C-301v29...|C-401v29...
|...........|...........|...........|...........
|...........|...........|...........|...........
|...........|...........|...........|...........
|F-601v62...|...........|C-301v27...|C-401v27...
|...........|...........|...........|...........
|...........|...........|...........|...........
|...........|...........|...........|...........
|G-601v62...|...........|...........|...........
|...........|...........|...........|...........
|...........|...........|...........|...........
|...........|...........|...........|...........
ModPlug Tracker MPT
|B-501v62...|...........|B-201v24...|B-301v24...
|...........|...........|...........|...........
|...........|...........|...........|...........
|...........|...........|...........|...........
|B-501v62...|...........|...........|...........
|...........|...........|...........|...........
|...........|...........|...........|...........
|...........|...........|...........|...........
|D-701v62...|...........|B-201v30...|B-301v30...
|...........|...........|...........|...........
|...........|...........|...........|...........
|...........|...........|...........|...........
|...........|...........|...........|...........
|...........|...........|...........|...........
|...........|...........|...........|...........
|...........|...........|...........|...........
|A-601v62...|...........|B-201v27...|B-301v27...
|...........|...........|...........|...........
|...........|...........|...........|...........
|...........|...........|...........|...........
|...........|...........|B-301v29...|B-201v29...
|...........|...........|...........|...........
|...........|...........|...........|...........
|...........|...........|...........|...........
|...........|...........|...........|...........
|...........|...........|...........|...........
|...........|...........|...........|...........
|...........|...........|...........|...........
|G#601v62...|...........|B-201v29...|B-301v29...
|...........|...........|...........|...........
|...........|...........|...........|...........
|...........|...........|...........|...........
|...........|...........|...........|...........
|...........|...........|...........|...........
|...........|...........|...........|...........
|...........|...........|...........|...........
|G-601v62...|...........|B-301v27...|B-201v27...
|...........|...........|...........|...........
|...........|...........|...........|...........
|...........|...........|...........|...........
|...........|...........|...........|...........
|...........|...........|...........|...........
|...........|...........|...........|...........
|...........|...........|...........|...........
|F-601v62...|...........|B-201v25...|B-301v25...
|...........|...........|...........|...........
|...........|...........|...........|...........
|...........|...........|...........|...........
|...........|...........|...........|...........
|...........|...........|...........|...........
|...........|...........|...........|...........
|...........|...........|...........|...........
|D-601v62...|...........|B-301v26...|B-201v26...
|...........|...........|...........|...........
|...........|...........|...........|...........
|...........|...........|...........|...........
|F-601v62...|...........|B-201v28...|B-301v28...
|...........|...........|...........|...........
|...........|...........|...........|...........
|...........|...........|...........|...........
|G-601v62...|...........|...........|...........
|...........|...........|...........|...........
|...........|...........|...........|...........
|...........|...........|...........|...........
|A#501v62...|...........|A#201v30...|A#301v30...
|...........|...........|...........|...........
|...........|...........|...........|...........
|...........|...........|...........|...........
|A#501v62...|...........|...........|...........
|...........|...........|...........|...........
|...........|...........|...........|...........
|...........|...........|...........|...........
|D-701v62...|...........|A#201v27...|A#301v27...
|...........|...........|...........|...........
|...........|...........|...........|...........
|...........|...........|...........|...........
|...........|...........|...........|...........
|...........|...........|...........|...........
|...........|...........|...........|...........
|...........|...........|...........|...........
|A-601v62...|...........|A#201v27...|A#301v27...
|...........|...........|...........|...........
|...........|...........|...........|...........
|...........|...........|...........|...........
|...........|...........|A#301v29...|A#201v29...
|...........|...........|...........|...........
|...........|...........|...........|...........
|...........|...........|...........|...........
|...........|...........|...........|...........
|...........|...........|...........|...........
|...........|...........|...........|...........
|...........|...........|...........|...........
|G#601v62...|...........|C-301v32...|C-401v32...
|...........|...........|...........|...........
|...........|...........|...........|...........
|...........|...........|...........|...........
|...........|...........|...........|...........
|...........|...........|...........|...........
|...........|...........|...........|...........
|...........|...........|...........|...........
|G-601v62...|...........|C-401v27...|C-301v27...
|...........|...........|...........|...........
|...........|...........|...........|...........
|...........|...........|...........|...........
|...........|...........|...........|...........
|...........|...........|...........|...........
|...........|...........|...........|...........
|...........|...........|...........|...........
|F-601v62...|...........|C-301v30...|C-401v30...
|...........|...........|...........|...........
|...........|...........|...........|...........
|...........|...........|...........|...........
|...........|...........|...........|...........
|...........|...........|...........|...........
|...........|...........|...........|...........
|...........|...........|...........|...........
|D-601v62...|...........|C-401v30...|C-301v30...
|...........|...........|...........|...........
|...........|...........|...........|...........
|...........|...........|...........|...........
|F-601v62...|...........|C-301v31...|C-401v31...
|...........|...........|...........|...........
|...........|...........|...........|...........
|...........|...........|...........|...........
|G-601v62...|...........|...........|...........
|...........|...........|...........|...........
|...........|...........|...........|...........
|...........|...........|...........|...........
ModPlug Tracker MPT
|F-601v62...|...........|A-401v33...|D-401v33...
|...........|...........|...........|...........
|...........|...........|...........|...........
|...........|...........|...........|...........
|===........|...........|...........|...........
|...........|...........|...........|...........
|...........|...........|...........|...........
|...........|...........|...........|...........
|F-601v62...|...........|D-401v29...|A-401v29...
|...........|...........|...........|...........
|...........|...........|...........|...........
|...........|...........|...........|...........
|F-601v62...|...........|...........|...........
|...........|...........|...........|...........
|...........|...........|...........|...........
|...........|...........|...........|...........
|...........|...........|A-401v26...|D-401v26...
|...........|...........|...........|...........
|...........|...........|...........|...........
|...........|...........|...........|...........
|F-601v62...|...........|D-401v31...|A-401v31...
|...........|...........|...........|...........
|...........|...........|...........|...........
|...........|...........|...........|...........
|...........|...........|...........|...........
|...........|...........|...........|...........
|...........|...........|...........|...........
|...........|...........|...........|...........
|F-601v62...|...........|D-401v32...|A-401v32...
|...........|...........|...........|...........
|...........|...........|...........|...........
|...........|...........|...........|...........
|...........|...........|...........|...........
|...........|...........|...........|...........
|...........|...........|...........|...........
|...........|...........|...........|...........
|D-601v62...|...........|A-401v28...|D-401v28...
|...........|...........|...........|...........
|...........|...........|...........|...........
|...........|...........|...........|...........
|...........|...........|...........|...........
|...........|...........|...........|...........
|...........|...........|...........|...........
|...........|...........|...........|...........
|D-601v62...|...........|A-401v27...|D-401v27...
|...........|...........|...........|...........
|...........|...........|...........|...........
|...........|...........|...........|...........
|...........|...........|...........|...........
|...........|...........|...........|...........
|...........|...........|...........|...........
|...........|...........|...........|...........
|...........|...........|D-401v28...|A-401v28...
|...........|...........|...........|...........
|...........|...........|...........|...........
|...........|...........|...........|...........
|...........|...........|D-401v25...|A-401v25...
|...........|...........|...........|...........
|...........|...........|...........|...........
|...........|...........|...........|...........
|...........|...........|...........|...........
|...........|...........|...........|...........
|...........|...........|...........|...........
|...........|...........|...........|...........
|F-601v62...|...........|G-401v29...|C-401v29...
|...........|...........|...........|...........
|...........|...........|...........|...........
|...........|...........|...........|...........
|...........|...........|...........|...........
|...........|...........|...........|...........
|...........|...........|...........|...........
|...........|...........|...........|...........
|F-601v62...|...........|C-401v27...|G-401v27...
|...........|...........|...........|...........
|...........|...........|...........|...........
|...........|...........|...........|...........
|F-601v62...|...........|...........|...........
|...........|...........|...........|...........
|...........|...........|...........|...........
|...........|...........|...........|...........
|...........|...........|C-401v30...|G-401v30...
|...........|...........|...........|...........
|...........|...........|...........|...........
|...........|...........|...........|...........
|G-601v62...|...........|C-401v30...|G-401v30...
|...........|...........|...........|...........
|...........|...........|...........|...........
|...........|...........|...........|...........
|...........|...........|...........|...........
|...........|...........|...........|...........
|...........|...........|...........|...........
|...........|...........|...........|...........
|G#601v62...|...........|G-401v32...|C-401v32...
|...........|...........|...........|...........
|...........|...........|...........|...........
|...........|...........|...........|...........
|...........|...........|...........|...........
|...........|...........|...........|...........
|...........|...........|...........|...........
|...........|...........|...........|...........
|G-601v62...|...........|C-401v27...|G-401v27...
|...........|...........|...........|...........
|...........|...........|...........|...........
|...........|...........|...........|...........
|F-601v62...|...........|...........|...........
|...........|...........|...........|...........
|...........|...........|...........|...........
|...........|...........|...........|...........
|D-601v62...|...........|C-401v28...|G-401v28...
|...........|...........|...........|...........
|...........|...........|...........|...........
|...........|...........|...........|...........
|F-601v62...|...........|...........|...........
|...........|...........|...........|...........
|...........|...........|...........|...........
|...........|...........|...........|...........
|G-601v62...|...........|G-401v24...|C-401v24...
|...........|...........|...........|...........
|...........|...........|...........|...........
|...........|...........|...........|...........
|...........|...........|C-401v28...|G-401v28...
|...........|...........|...........|...........
|...........|...........|...........|...........
|...........|...........|...........|...........
|...........|...........|...........|...........
|...........|...........|...........|...........
|...........|...........|...........|...........
|...........|...........|...........|...........
ModPlug Tracker MPT
|F-601v62...|...........|B-301v29...|G-401v29...
|...........|...........|...........|...........
|...........|...........|...........|...........
|...........|...........|...........|...........
|===........|...........|...........|...........
|...........|...........|...........|...........
|...........|...........|...........|...........
|...........|...........|...........|...........
|F-601v62...|...........|B-301v26...|G-401v26...
|...........|...........|...........|...........
|...........|...........|...........|...........
|...........|...........|...........|...........
|F-601v62...|...........|...........|...........
|...........|...........|...........|...........
|...........|...........|...........|...........
|...........|...........|...........|...........
|...........|...........|B-301v29...|G-401v29...
|...........|...........|...........|...........
|...........|...........|...........|...........
|...........|...........|...........|...........
|G-601v62...|...........|G-401v29...|B-301v29...
|...........|...........|...........|...........
|...........|...........|...........|...........
|...........|...........|...........|...........
|...........|...........|...........|...........
|...........|...........|...........|...........
|...........|...........|...........|...........
|...........|...........|...........|...........
|G#601v62...|...........|G-401v31...|B-301v31...
|...........|...........|...........|...........
|...........|...........|...........|...........
|...........|...........|...........|...........
|...........|...........|...........|...........
|...........|...........|...........|...........
|...........|...........|...........|...........
|...........|...........|...........|...........
|A-601v62...|...........|B-301v31...|G-401v31...
|...........|...........|...........|...........
|...........|...........|...........|...........
|...........|...........|...........|...........
|...........|...........|...........|...........
|...........|...........|...........|...........
|...........|...........|...........|...........
|...........|...........|...........|...........
|C-701v62...|...........|G-401v25...|B-301v25...
|...........|...........|...........|...........
|...........|...........|...........|...........
|...........|...........|...........|...........
|===........|...........|...........|...........
|...........|...........|...........|...........
|...........|...........|...........|...........
|...........|...........|...........|...........
|A-601v62...|...........|B-301v27...|G-401v27...
|...........|...........|...........|...........
|...........|...........|...........|...........
|...........|...........|...........|...........
|...........|...........|B-301v29...|G-401v29...
|...........|...........|...........|...........
|...........|...........|...........|...........
|...........|...........|...........|...........
|...........|...........|...........|...........
|...........|...........|...........|...........
|...........|...........|...........|...........
|...........|...........|...........|...........
|D-701v62...|...........|A#301v25...|F-401v25...
|...........|...........|...........|...........
|...........|...........|...........|...........
|...........|...........|...........|...........
|...........|...........|...........|...........
|...........|...........|...........|...........
|...........|...........|...........|...........
|...........|...........|...........|...........
|D-701v62...|...........|A#301v27...|F-401v27...
|...........|...........|...........|...........
|...........|...........|...........|...........
|...........|...........|...........|...........
|...........|...........|...........|...........
|...........|...........|...........|...........
|...........|...........|...........|...........
|...........|...........|...........|...........
|D-701v62...|...........|A#301v29...|F-401v29...
|...........|...........|...........|...........
|...........|...........|...........|...........
|...........|...........|...........|...........
|A-601v62...|...........|F-401v29...|A#301v29...
|...........|...........|...........|...........
|...........|...........|...........|...........
|...........|...........|...........|...........
|D-701v62...|...........|...........|...........
|...........|...........|...........|...........
|...........|...........|...........|...........
|...........|...........|...........|...........
|C-701v62...|...........|G-401v31...|C-401v31...
|...........|...........|...........|...........
|...........|...........|...........|...........
|...........|...........|...........|...........
|...........|...........|...........|...........
|...........|...........|...........|...........
|...........|...........|...........|...........
|...........|...........|...........|...........
|...........|...........|G-401v29...|C-401v29...
|...........|...........|...........|...........
|...........|...........|...........|...........
|...........|...........|...........|...........
|...........|...........|...........|...........
|...........|...........|...........|...........
|...........|...........|...........|...........
|...........|...........|...........|...........
|...........|...........|G-401v28...|C-401v28...
|...........|...........|...........|...........
|...........|...........|...........|...........
|...........|...........|...........|...........
|...........|...........|...........|...........
|...........|...........|...........|...........
|...........|...........|...........|...........
|...........|...........|...........|...........
|...........|...........|G-401v29...|C-401v29...
|...........|...........|...........|...........
|...........|...........|...........|...........
|...........|...........|...........|...........
|...........|...........|C-401v29...|G-401v29...
|...........|...........|...........|...........
|...........|...........|...........|...........
|...........|...........|...........|...........
|...........|...........|...........|...........
|...........|...........|...........|...........
|...........|...........|...........|...........
|...........|...........|...........|...........
ModPlug Tracker MPT
|F-601v62...|A-601v62X66|D-401v30...|A-401v30...
|...........|...........|...........|...........
|...........|...........|...........|...........
|...........|...........|...........|...........
|===........|===........|...........|...........
|...........|...........|...........|...........
|...........|...........|...........|...........
|...........|...........|...........|...........
|A-601v62...|F-601v62...|A-401v25...|D-401v25...
|...........|...........|...........|...........
|...........|...........|...........|...........
|...........|...........|...........|...........
|F-601v62...|A-601v62...|...........|...........
|...........|...........|...........|...........
|...........|...........|...........|...........
|...........|...........|...........|...........
|...........|...........|A-401v27...|D-401v27...
|...........|...........|...........|...........
|...........|...........|...........|...........
|...........|...........|...........|...........
|F-601v62...|A-601v62...|D-401v27...|A-401v27...
|...........|...........|...........|...........
|...........|...........|...........|...........
|...........|...........|...........|...........
|...........|...........|...........|...........
|...........|...........|...........|...........
|...........|...........|...........|...........
|...........|...........|...........|...........
|F-601v62...|A-601v62...|D-401v32...|A-401v32...
|...........|...........|...........|...........
|...........|...........|...........|...........
|...........|...........|...........|...........
|...........|...........|...........|...........
|...........|...........|...........|...........
|...........|...........|...........|...........
|...........|...........|...........|...........
|D-601v62...|G-601v62...|D-401v29...|A-401v29...
|...........|...........|...........|...........
|...........|...........|...........|...........
|...........|...........|...........|...........
|...........|...........|...........|...........
|...........|...........|...........|...........
|...........|...........|...........|...........
|...........|...........|...........|...........
|D-601v62...|G-601v62...|D-401v30...|A-401v30...
|...........|...........|...........|...........
|...........|...........|...........|...........
|...........|...........|...........|...........
|...........|...........|...........|...........
|...........|...........|...........|...........
|...........|...........|...........|...........
|...........|...........|...........|...........
|...........|...........|D-401v26...|A-401v26...
|...........|...........|...........|...........
|...........|...........|...........|...........
|...........|...........|...........|...........
|...........|...........|A-401v28...|D-401v28...
|...........|...........|...........|...........
|...........|...........|...........|...........
|...........|...........|...........|...........
|...........|...........|...........|...........
|...........|...........|...........|...........
|...........|...........|...........|...........
|...........|...........|...........|...........
|A-601v62...|F-601v62...|G-401v25...|C-401v25...
|...........|...........|...........|...........
|...........|...........|...........|...........
|...........|...........|...........|...........
|===........|===........|...........|...........
|...........|...........|...........|...........
|...........|...........|...........|...........
|...........|...........|...........|...........
|A-601v62...|F-601v62...|G-401v28...|C-401v28...
|...........|...........|...........|...........
|...........|...........|...........|...........
|...........|...........|...........|...........
|F-601v62...|A-601v62...|...........|...........
|...........|...........|...........|...........
|...........|...........|...........|...........
|...........|...........|...........|...........
|...........|...........|G-401v26...|C-401v26...
|...........|...........|...........|...........
|...........|...........|...........|...........
|...........|...........|...........|...........
|F-601v62...|A-601v62...|C-401v30...|G-401v30...
|...........|...........|...........|...........
|...........|...........|...........|...........
|...........|...........|...........|...........
|...........|...........|...........|...........
|...........|...........|...........|...........
|...........|...........|...........|...........
|...........|...........|...........|...........
|D-601v62...|G-601v62...|C-401v28...|G-401v28...
|...........|...........|...........|...........
|...........|...........|...........|...........
|...........|...........|...........|...........
|...........|...........|...........|...........
|...........|...........|...........|...........
|...........|...........|...........|...........
|...........|...........|...........|...........
|F-601v62...|A-601v62...|C-401v31...|G-401v31...
|...........|...........|...........|...........
|...........|...........|...........|...........
|...........|...........|...........|...........
|...........|...........|...........|...........
|...........|...........|...........|...........
|...........|...........|...........|...........
|...........|...........|...........|...........
|A-601v62...|D-701v62...|C-401v29...|G-401v29...
|...........|...........|...........|...........
|...........|...........|...........|...........
|...........|...........|...........|...........
|...........|...........|...........|...........
|...........|...........|...........|...........
|...........|...........|...........|...........
|...........|...........|...........|...........
|F-601v62...|A-601v62...|C-401v29...|G-401v29...
|...........|...........|...........|...........
|...........|...........|...........|...........
|...........|...........|...........|...........
|G-601v62...|D-601v62...|G-401v27...|C-401v27...
|...........|...........|...........|...........
|...........|...........|...........|...........
|...........|...........|...........|...........
|...........|...........|...........|...........
|...........|...........|...........|...........
|...........|...........|...........|...........
|...........|...........|...........|...........
ModPlug Tracker MPT
|D-701v62...|F-601v62...|G-401v26...|B-301v26...
|...........|...........|...........|...........
|...........|...........|...........|...........
|...........|...........|...........|...........
|...........|...........|...........|...........
|...........|...........|...........|...........
|...........|...........|...........|...........
|...........|...........|...........|...........
|A-601v62...|F-601v62...|G-401v29...|B-301v29...
|...........|...........|...........|...........
|...........|...........|...........|...........
|...........|...........|...........|...........
|...........|...........|...........|...........
|...........|...........|...........|...........
|...........|...........|...........|...........
|...........|...........|...........|...........
|G-601v62...|D-601v62...|G-401v28...|B-301v28...
|...........|...........|...........|...........
|...........|...........|...........|...........
|...........|...........|...........|...........
|...........|...........|G-401v34...|B-301v34...
|...........|...........|...........|...........
|...........|...........|...........|...........
|...........|...........|...........|...........
|F-601v62...|D-601v62...|...........|...........
|...........|...........|...........|...........
|...........|...........|...........|...........
|...........|...........|...........|...........
|...........|...........|G-401v27...|B-301v27...
|...........|...........|...........|...........
|...........|...........|...........|...........
|...........|...........|...........|...........
|F-601v62...|C-701v62...|...........|...........
|...........|...........|...........|...........
|...........|...........|...........|...........
|...........|...........|...........|...........
|...........|...........|G-401v29...|B-301v29...
|...........|...........|...........|...........
|...........|...........|...........|...........
|...........|...........|...........|...........
|F-601v62...|G-601v62...|...........|...........
|...........|...........|...........|...........
|...........|...........|...........|...........
|...........|...........|...........|...........
|...........|...........|G-401v29...|B-301v29...
|...........|...........|...........|...........
|...........|...........|...........|...........
|...........|...........|...........|...........
|D-601v62...|F-601v62...|...........|...........
|...........|...........|...........|...........
|...........|...........|...........|...........
|...........|...........|...........|...........
|...........|...........|G-401v28...|B-301v28...
|...........|...........|...........|...........
|...........|...........|...........|...........
|...........|...........|...........|...........
|D-601v62...|E-601v62...|G-401v27...|B-301v27...
|...........|...........|...........|...........
|...........|...........|...........|...........
|...........|...........|...........|...........
|...........|...........|...........|...........
|...........|...........|...........|...........
|...........|...........|...........|...........
|...........|...........|...........|...........
|A#501v62...|===........|F-401v31...|A#301v31...
|...........|...........|...........|...........
|...........|...........|...........|...........
|...........|...........|...........|...........
|...........|...........|...........|...........
|...........|...........|...........|...........
|...........|...........|...........|...........
|...........|...........|...........|...........
|C-601v62...|...........|F-401v26...|A#301v26...
|...........|...........|...........|...........
|...........|...........|...........|...........
|...........|...........|...........|...........
|D-601v62...|...........|...........|...........
|...........|...........|...........|...........
|...........|...........|...........|...........
|...........|...........|...........|...........
|===........|...........|F-401v27...|A#301v27...
|...........|...........|...........|...........
|...........|...........|...........|...........
|...........|...........|...........|...........
|F-601v62...|A#501v62...|F-401v27...|A#301v27...
|...........|...........|...........|...........
|...........|...........|...........|...........
|...........|...........|...........|...........
|...........|...........|...........|...........
|...........|...........|...........|...........
|...........|...........|...........|...........
|...........|...........|...........|...........
|C-601v62...|E-601v62...|G-401v29...|C-401v29...
|...........|...........|...........|...........
|...........|...........|...........|...........
|...........|...........|...........|...........
|...........|...........|...........|...........
|...........|...........|...........|...........
|...........|...........|...........|...........
|...........|...........|...........|...........
|...........|...........|C-401v28...|G-401v28...
|...........|...........|...........|...........
|...........|...........|...........|...........
|...........|...........|...........|...........
|...........|...........|...........|...........
|...........|...........|...........|...........
|...........|...........|...........|...........
|...........|...........|...........|...........
|...........|...........|G-401v27...|C-401v27...
|...........|...........|...........|...........
|...........|...........|...........|...........
|...........|...........|...........|...........
|...........|...........|...........|...........
|...........|...........|...........|...........
|...........|...........|...........|...........
|...........|...........|...........|...........
|...........|...........|C-401v25...|G-401v25...
|...........|...........|...........|...........
|...........|...........|...........|...........
|...........|...........|...........|...........
|...........|...........|C-401v24...|G-401v24...
|...........|...........|...........|...........
|...........|...........|...........|...........
|...........|...........|...........|...........
|...........|...........|...........|...........
|...........|...........|...........|...........
|...........|...........|...........|...........
|...........|...........|...........|...........
ModPlug Tracker MPT
|===........|===........|F-401v25...|A#301v25...
|...........|...........|...........|...........
|...........|...........|...........|...........
|...........|...........|...........|...........
|...........|...........|...........|...........
|...........|...........|...........|...........
|...........|...........|...........|...........
|...........|...........|...........|...........
|...........|...........|F-401v28...|A#301v28...
|...........|...........|...........|...........
|...........|...........|...........|...........
|...........|...........|...........|...........
|...........|...........|...........|...........
|...........|...........|...........|...........
|...........|...........|...........|...........
|...........|...........|...........|...........
|...........|...........|F-401v30...|A#301v30...
|...........|...........|...........|...........
|...........|...........|...........|...........
|...........|...........|...........|...........
|...........|...........|F-401v28...|A#301v28...
|...........|...........|...........|...........
|...........|...........|...........|...........
|...........|...........|...........|...........
|...........|...........|...........|...........
|...........|...........|...........|...........
|...........|...........|...........|...........
|...........|...........|...........|...........
|...........|...........|F-401v28...|A#301v28...
|...........|...........|...........|...........
|...........|...........|...........|...........
|...........|...........|...........|...........
|F-601v62...|...........|...........|...........
|...........|...........|...........|...........
|...........|...........|...........|...........
|...........|...........|...........|...........
|D-601v62...|...........|F-401v28...|A#301v28...
|...........|...........|...........|...........
|...........|...........|...........|...........
|...........|...........|...........|...........
|F-601v62...|...........|...........|...........
|...........|...........|...........|...........
|...........|...........|...........|...........
|...........|...........|...........|...........
|G-601v62...|...........|F-401v29...|A#301v29...
|...........|...........|...........|...........
|...........|...........|...........|...........
|...........|...........|...........|...........
|G#601v62...|...........|...........|...........
|...........|...........|...........|...........
|...........|...........|...........|...........
|...........|...........|...........|...........
|G-601v62...|...........|F-401v29...|A#301v29...
|...........|...........|...........|...........
|...........|...........|...........|...........
|...........|...........|...........|...........
|F-601v62...|...........|F-401v29...|A#301v29...
|...........|...........|...........|...........
|...........|...........|...........|...........
|...........|...........|...........|...........
|D-601v62...|...........|...........|...........
|...........|...........|...........|...........
|...........|...........|...........|...........
|...........|...........|...........|...........
|G#601v62...|...........|G-401v30...|C-401v30...
|...........|...........|...........|...........
|G-601v62...|...........|...........|...........
|...........|...........|...........|...........
|F-601v62...|...........|...........|...........
|...........|...........|...........|...........
|D-601v62...|...........|...........|...........
|...........|...........|...........|...........
|F-601v62...|...........|G-401v24...|C-401v24...
|...........|...........|...........|...........
|...........|...........|...........|...........
|...........|...........|...........|...........
|===........|...........|...........|...........
|...........|...........|...........|...........
|...........|...........|...........|...........
|...........|...........|...........|...........
|G-601v62...|C-601v62...|G-401v29...|C-401v29...
|...........|...........|...........|...........
|...........|...........|...........|...........
|...........|...........|...........|...........
|...........|...........|G-401v29...|C-401v29...
|...........|...........|...........|...........
|...........|...........|...........|...........
|...........|...........|...........|...........
|...........|...........|...........|...........
|...........|...........|...........|...........
|...........|...........|...........|...........
|...........|...........|...........|...........
|...........|...........|G-401v25...|C-401v25...
|...........|...........|...........|...........
|...........|...........|...........|...........
|...........|...........|...........|...........
|...........|...........|...........|...........
|...........|...........|...........|...........
|...........|...........|...........|...........
|...........|...........|...........|...........
|...........|...........|G-401v25...|C-401v25...
|...........|...........|...........|...........
|...........|...........|...........|...........
|...........|...........|...........|...........
|...........|...........|...........|...........
|...........|...........|...........|...........
|...........|...........|...........|...........
|...........|...........|...........|...........
|...........|...........|G-401v29...|C-401v29...
|...........|...........|...........|...........
|...........|...........|...........|...........
|...........|...........|...........|...........
|===........|===........|...........|...........
|...........|...........|...........|...........
|...........|...........|...........|...........
|...........|...........|...........|...........
|G#601v62...|...........|G-401v23...|C-401v23...
|...........|...........|...........|...........
|...........|...........|...........|...........
|...........|...........|...........|...........
|...........|...........|G-401v26...|C-401v26...
|...........|...........|...........|...........
|...........|...........|...........|...........
|...........|...........|...........|...........
|A-601v62...|...........|...........|...........
|...........|...........|...........|...........
|...........|...........|...........|...........
|...........|...........|...........|...........
ModPlug Tracker MPT
|C-701v62...|...........|A-401v34...|D-401v34...
|...........|...........|...........|...........
|...........|...........|...........|...........
|...........|...........|...........|...........
|===........|...........|...........|...........
|...........|...........|...........|...........
|...........|...........|...........|...........
|...........|...........|...........|...........
|A-601v62...|...........|A-401v28...|D-401v28...
|...........|...........|...........|...........
|...........|...........|...........|...........
|...........|...........|...........|...........
|G#601v62...|...........|...........|...........
|...........|...........|...........|...........
|...........|...........|...........|...........
|...........|...........|...........|...........
|G-601v62...|...........|A-401v25...|D-401v25...
|...........|...........|...........|...........
|...........|...........|...........|...........
|...........|...........|...........|...........
|F-601v62...|...........|A-401v29...|D-401v29...
|...........|...........|...........|...........
|...........|...........|...........|...........
|...........|...........|...........|...........
|D-601v62...|...........|...........|...........
|...........|...........|...........|...........
|...........|...........|...........|...........
|...........|...........|...........|...........
|E-601v62...|...........|A-401v29...|D-401v29...
|...........|...........|...........|...........
|...........|...........|...........|...........
|...........|...........|...........|...........
|F-601v62...|...........|...........|...........
|...........|...........|...........|...........
|...........|...........|...........|...........
|...........|...........|...........|...........
|...........|...........|A-401v28...|D-401v28...
|...........|...........|...........|...........
|...........|...........|...........|...........
|...........|...........|...........|...........
|G-601v62...|...........|...........|...........
|...........|...........|...........|...........
|...........|...........|...........|...........
|...........|...........|...........|...........
|...........|...........|A-401v29...|D-401v29...
|...........|...........|...........|...........
|...........|...........|...........|...........
|...........|...........|...........|...........
|A-601v62...|...........|...........|...........
|...........|...........|...........|...........
|...........|...........|...........|...........
|...........|...........|...........|...........
|...........|...........|A-401v29...|D-401v29...
|...........|...........|...........|...........
|...........|...........|...........|...........
|...........|...........|...........|...........
|C-701v62...|...........|A-401v26...|D-401v26...
|...........|...........|...........|...........
|...........|...........|...........|...........
|...........|...........|...........|...........
|...........|...........|...........|...........
|...........|...........|...........|...........
|...........|...........|...........|...........
|...........|...........|...........|...........
|C#701v62...|C#601v62...|G#401v27...|C#401v27...
|...........|...........|...........|...........
|...........|...........|...........|...........
|...........|...........|...........|...........
|...........|...........|...........|...........
|...........|...........|...........|...........
|...........|...........|...........|...........
|...........|...........|...........|...........
|G#601v62...|===........|G#401v27...|C#401v27...
|...........|...........|...........|...........
|...........|...........|...........|...........
|...........|...........|...........|...........
|...........|...........|...........|...........
|...........|...........|...........|...........
|...........|...........|...........|...........
|...........|...........|...........|...........
|G#601v62...|...........|G#401v27...|C#401v27...
|...........|...........|...........|...........
|...........|...........|...........|...........
|...........|...........|...........|...........
|G-601v62...|...........|G#401v32...|C#401v32...
|...........|...........|...........|...........
|...........|...........|...........|...........
|...........|...........|...........|...........
|F-601v62...|...........|...........|...........
|...........|...........|...........|...........
|...........|...........|...........|...........
|...........|...........|...........|...........
|G-601v62...|D#601v62...|A#401v29...|D#401v29...
|...........|...........|...........|...........
|...........|...........|...........|...........
|...........|...........|...........|...........
|...........|...........|...........|...........
|...........|...........|...........|...........
|...........|...........|...........|...........
|...........|...........|...........|...........
|...........|...........|A#401v29...|D#401v29...
|...........|...........|...........|...........
|...........|...........|...........|...........
|...........|...........|...........|...........
|...........|...........|...........|...........
|...........|...........|...........|...........
|...........|...........|...........|...........
|...........|...........|...........|...........
|...........|...........|A#401v28...|D#401v28...
|...........|...........|...........|...........
|...........|...........|...........|...........
|...........|...........|...........|...........
|...........|...........|...........|...........
|...........|...........|...........|...........
|...........|...........|...........|...........
|...........|...........|...........|...........
|...........|...........|A#401v25...|D#401v25...
|...........|...........|...........|...........
|...........|...........|...........|...........
|...........|...........|...........|...........
|...........|...........|A#401v29...|D#401v29...
|...........|...........|...........|...........
|...........|...........|...........|...........
|...........|...........|...........|...........
|...........|...........|...........|...........
|...........|...........|...........|...........
|...........|...........|...........|...........
|...........|...........|...........|...........
ModPlug Tracker MPT
|F-501v41...|===........|F-401v24...|A#301v24...
|...........|...........|...........|...........
|...........|...........|...........|...........
|...........|...........|...........|...........
|...........|...........|...........|...........
|...........|...........|...........|...........
|...........|...........|...........|...........
|...........|...........|...........|...........
|G-501v41...|...........|F-401v31...|A#301v31...
|...........|...........|...........|...........
|...........|...........|...........|...........
|...........|...........|...........|...........
|...........|...........|...........|...........
|...........|...........|...........|...........
|...........|...........|...........|...........
|...........|...........|...........|...........
|F-501v41...|A-501v41...|A#301v29...|F-401v29...
|...........|...........|...........|...........
|...........|...........|...........|...........
|...........|...........|...........|...........
|...........|...........|A#301v27...|F-401v27...
|...........|...........|...........|...........
|...........|...........|...........|...........
|...........|...........|...........|...........
|F-601v41...|===........|...........|...........
|...........|...........|...........|...........
|...........|...........|...........|...........
|...........|...........|...........|...........
|...........|...........|A#301v27...|F-401v27...
|...........|...........|...........|...........
|...........|...........|...........|...........
|...........|...........|...........|...........
|C-601v41...|E-601v41...|...........|...........
|...........|...........|...........|...........
|...........|...........|...........|...........
|...........|...........|...........|...........
|...........|...........|A#301v31...|F-401v31...
|...........|...........|...........|...........
|...........|...........|...........|...........
|...........|...........|...........|...........
|...........|...........|...........|...........
|...........|...........|...........|...........
|...........|...........|...........|...........
|...........|...........|...........|...........
|...........|...........|A#301v28...|F-401v28...
|...........|...........|...........|...........
|...........|...........|...........|...........
|...........|...........|...........|...........
|A-501v41...|D-601v41...|...........|...........
|...........|...........|...........|...........
|...........|...........|...........|...........
|...........|...........|...........|...........
|...........|...........|A#301v29...|F-401v29...
|...........|...........|...........|...........
|...........|...........|...........|...........
|...........|...........|...........|...........
|...........|...........|F-401v32...|A#301v32...
|...........|...........|...........|...........
|...........|...........|...........|...........
|...........|...........|...........|...........
|...........|...........|...........|...........
|...........|...........|...........|...........
|...........|...........|...........|...........
|...........|...........|...........|...........
|E-601v41...|G-501v41...|G-401v27...|C-401v27...
|...........|...........|...........|...........
|...........|...........|...........|...........
|...........|...........|...........|...........
|...........|...........|...........|...........
|...........|...........|...........|...........
|...........|...........|...........|...........
|...........|...........|...........|...........
|...........|...........|G-401v27...|C-401v27...
|...........|...........|...........|...........
|...........|...........|...........|...........
|...........|...........|...........|...........
|...........|...........|...........|...........
|...........|...........|...........|...........
|...........|...........|...........|...........
|...........|...........|...........|...........
|A-501v41...|F-601v41...|C-401v29...|G-401v29...
|...........|...........|...........|...........
|...........|...........|...........|...........
|...........|...........|...........|...........
|...........|...........|C-401v28...|G-401v28...
|...........|...........|...........|...........
|...........|...........|...........|...........
|...........|...........|...........|...........
|...........|...........|...........|...........
|...........|...........|...........|...........
|...........|...........|...........|...........
|...........|...........|...........|...........
|...........|...........|C-401v29...|G-401v29...
|...........|...........|...........|...........
|...........|...........|...........|...........
|...........|...........|...........|...........
|C-601v41...|G-601v41...|...........|...........
|...........|...........|...........|...........
|...........|...........|...........|...........
|...........|...........|...........|...........
|...........|...........|C-401v27...|G-401v27...
|...........|...........|...........|...........
|...........|...........|...........|...........
|...........|...........|...........|...........
|...........|...........|...........|...........
|...........|...........|...........|...........
|...........|...........|...........|...........
|...........|...........|...........|...........
|...........|...........|C-401v29...|G-401v29...
|...........|...........|...........|...........
|...........|...........|...........|...........
|...........|...........|...........|...........
|A-501v41...|E-601v41...|...........|...........
|...........|...........|...........|...........
|...........|...........|...........|...........
|...........|...........|...........|...........
|...........|...........|C-401v29...|G-401v29...
|...........|...........|...........|...........
|...........|...........|...........|...........
|...........|...........|...........|...........
|...........|...........|G-401v29...|C-401v29...
|...........|...........|...........|...........
|...........|...........|...........|...........
|...........|...........|...........|...........
|...........|...........|...........|...........
|...........|...........|...........|...........
|...........|...........|...........|...........
|...........|...........|...........|...........
ModPlug Tracker MPT
|A-601v41...|D-601v41...|A-401v28...|D-401v28...
|...........|...........|...........|...........
|...........|...........|...........|...........
|...........|...........|...........|...........
|...........|...........|...........|...........
|...........|...........|...........|...........
|...........|...........|...........|...........
|...........|...........|...........|...........
|...........|...........|A-401v28...|D-401v28...
|...........|...........|...........|...........
|...........|...........|...........|...........
|...........|...........|...........|...........
|...........|...........|...........|...........
|...........|...........|...........|...........
|...........|...........|...........|...........
|...........|...........|...........|...........
|...........|...........|D-401v32...|A-401v32...
|...........|...........|...........|...........
|...........|...........|...........|...........
|...........|...........|...........|...........
|...........|...........|D-401v25...|A-401v25...
|...........|...........|...........|...........
|...........|...........|...........|...........
|...........|...........|...........|...........
|...........|...........|...........|...........
|...........|...........|...........|...........
|...........|...........|...........|...........
|...........|...........|...........|...........
|...........|...........|D-401v27...|A-401v27...
|...........|...........|...........|...........
|...........|...........|...........|...........
|...........|...........|...........|...........
|A-601v41...|===........|...........|...........
|...........|...........|...........|...........
|...........|...........|...........|...........
|...........|...........|...........|...........
|G#601v41...|...........|D-401v31...|A-401v31...
|...........|...........|...........|...........
|...........|...........|...........|...........
|...........|...........|...........|...........
|G-601v41...|...........|...........|...........
|...........|...........|...........|...........
|...........|...........|...........|...........
|...........|...........|...........|...........
|F#601v41...|...........|D-401v27...|A-401v27...
|...........|...........|...........|...........
|...........|...........|...........|...........
|...........|...........|...........|...........
|F-601v41...|...........|...........|...........
|...........|...........|...........|...........
|...........|...........|...........|...........
|...........|...........|...........|...........
|E-601v41...|...........|D-401v26...|A-401v26...
|...........|...........|...........|...........
|...........|...........|...........|...........
|...........|...........|...........|...........
|D#601v41...|...........|D-401v29...|A-401v29...
|...........|...........|...........|...........
|...........|...........|...........|...........
|...........|...........|...........|...........
|D-601v41...|...........|...........|...........
|...........|...........|...........|...........
|...........|...........|...........|...........
|...........|...........|...........|...........
|C#601v41...|G#501v41...|G#401v24...|C#401v24...
|...........|...........|...........|...........
|...........|...........|...........|...........
|...........|...........|...........|...........
|...........|...........|...........|...........
|...........|...........|...........|...........
|...........|...........|...........|...........
|...........|...........|...........|...........
|...........|...........|G#401v26...|C#401v26...
|...........|...........|...........|...........
|...........|...........|...........|...........
|...........|...........|...........|...........
|...........|...........|...........|...........
|...........|...........|...........|...........
|...........|...........|...........|...........
|...........|...........|...........|...........
|...........|...........|C#401v29...|G#401v29...
|...........|...........|...........|...........
|...........|...........|...........|...........
|...........|...........|...........|...........
|...........|...........|C#401v29...|G#401v29...
|...........|...........|...........|...........
|...........|...........|...........|...........
|...........|...........|...........|...........
|...........|...........|...........|...........
|...........|...........|...........|...........
|...........|...........|...........|...........
|...........|...........|...........|...........
|A#501v41...|D#601v41...|D#401v31...|A#401v31...
|...........|...........|...........|...........
|...........|...........|...........|...........
|...........|...........|...........|...........
|...........|...........|...........|...........
|...........|...........|...........|...........
|...........|...........|...........|...........
|...........|...........|...........|...........
|...........|...........|D#401v29...|A#401v29...
|...........|...........|...........|...........
|...........|...........|...........|...........
|...........|...........|...........|...........
|...........|...........|...........|...........
|...........|...........|...........|...........
|...........|...........|...........|...........
|...........|...........|...........|...........
|...........|...........|D#401v28...|A#401v28...
|...........|...........|...........|...........
|...........|...........|...........|...........
|...........|...........|...........|...........
|...........|...........|...........|...........
|...........|...........|...........|...........
|...........|...........|...........|...........
|...........|...........|...........|...........
|...........|...........|D#401v26...|A#401v26...
|...........|...........|...........|...........
|...........|...........|...........|...........
|...........|...........|...........|...........
|...........|...........|A#401v26...|D#401v26...
|...........|...........|...........|...........
|...........|...........|...........|...........
|...........|...........|...........|...........
|...........|...........|...........|...........
|...........|...........|...........|...........
|...........|...........|...........|...........
|...........|...........|...........|...........
ModPlug Tracker MPT
|===........|===........|F-401v23...|A#301v23...
|...........|...........|...........|...........
|...........|...........|...........|...........
|...........|...........|...........|...........
|...........|...........|...........|...........
|...........|...........|...........|...........
|...........|...........|...........|...........
|...........|...........|...........|...........
|...........|...........|F-401v27...|A#301v27...
|...........|...........|...........|...........
|...........|...........|...........|...........
|...........|...........|...........|...........
|...........|...........|...........|...........
|...........|...........|...........|...........
|...........|...........|...........|...........
|...........|...........|...........|...........
|...........|...........|F-401v28...|A#301v28...
|...........|...........|...........|...........
|...........|...........|...........|...........
|...........|...........|...........|...........
|...........|...........|F-401v29...|A#301v29...
|...........|...........|...........|...........
|...........|...........|...........|...........
|...........|...........|...........|...........
|...........|...........|...........|...........
|...........|...........|...........|...........
|...........|...........|...........|...........
|...........|...........|...........|...........
|...........|...........|F-401v23...|A#301v23...
|...........|...........|...........|...........
|...........|...........|...........|...........
|...........|...........|...........|...........
|F-601v41...|...........|...........|...........
|...........|...........|...........|...........
|...........|...........|...........|...........
|...........|...........|...........|...........
|D-601v41...|...........|F-401v26...|A#301v26...
|...........|...........|...........|...........
|...........|...........|...........|...........
|...........|...........|...........|...........
|F-601v41...|...........|...........|...........
|...........|...........|...........|...........
|...........|...........|...........|...........
|...........|...........|...........|...........
|G-601v41...|...........|F-401v27...|A#301v27...
|...........|...........|...........|...........
|...........|...........|...........|...........
|...........|...........|...........|...........
|G#601v41...|...........|...........|...........
|...........|...........|...........|...........
|...........|...........|...........|...........
|...........|...........|...........|...........
|G-601v41...|...........|F-401v24...|A#301v24...
|...........|...........|...........|...........
|...........|...........|...........|...........
|...........|...........|...........|...........
|F-601v41...|...........|F-401v25...|A#301v25...
|...........|...........|...........|...........
|...........|...........|...........|...........
|...........|...........|...........|...........
|D-601v41...|...........|...........|...........
|...........|...........|...........|...........
|...........|...........|...........|...........
|...........|...........|...........|...........
|G#601v41...|...........|G-401v30...|C-401v30...
|...........|...........|...........|...........
|G-601v41...|...........|...........|...........
|...........|...........|...........|...........
|F-601v41...|...........|...........|...........
|...........|...........|...........|...........
|D-601v41...|...........|...........|...........
|...........|...........|...........|...........
|F-601v41...|...........|G-401v29...|C-401v29...
|...........|...........|...........|...........
|...........|...........|...........|...........
|...........|...........|...........|...........
|===........|...........|...........|...........
|...........|...........|...........|...........
|...........|...........|...........|...........
|...........|...........|...........|...........
|G-601v41...|C-601v41...|G-401v29...|C-401v29...
|...........|...........|...........|...........
|...........|...........|...........|...........
|...........|...........|...........|...........
|...........|...........|G-401v29...|C-401v29...
|...........|...........|...........|...........
|...........|...........|...........|...........
|...........|...........|...........|...........
|...........|...........|...........|...........
|...........|...........|...........|...........
|...........|...........|...........|...........
|...........|...........|...........|...........
|...........|...........|G-401v29...|C-401v29...
|...........|...........|...........|...........
|...........|...........|...........|...........
|...........|...........|...........|...........
|...........|...........|...........|...........
|...........|...........|...........|...........
|...........|...........|...........|...........
|...........|...........|...........|...........
|...........|...........|G-401v25...|C-401v25...
|...........|...........|...........|...........
|...........|...........|...........|...........
|...........|...........|...........|...........
|...........|...........|...........|...........
|...........|...........|...........|...........
|...........|...........|...........|...........
|...........|...........|...........|...........
|...........|...........|G-401v28...|C-401v28...
|...........|...........|...........|...........
|...........|...........|...........|...........
|...........|...........|...........|...........
|===........|===........|...........|...........
|...........|...........|...........|...........
|...........|...........|...........|...........
|...........|...........|...........|...........
|G#601v41...|...........|G-401v29...|C-401v29...
|...........|...........|...........|...........
|...........|...........|...........|...........
|...........|...........|...........|...........
|...........|...........|G-401v27...|C-401v27...
|...........|...........|...........|...........
|...........|...........|...........|...........
|...........|...........|...........|...........
|A-601v41...|...........|...........|...........
|...........|...........|...........|...........
|...........|...........|...........|...........
|...........|...........|...........|...........
ModPlug Tracker MPT
|C-701v41...|...........|A-401v28...|D-401v28...
|...........|...........|...........|...........
|...........|...........|...........|...........
|...........|...........|...........|...........
|===........|...........|...........|...........
|...........|...........|...........|...........
|...........|...........|...........|...........
|...........|...........|...........|...........
|A-601v41...|...........|A-401v28...|D-401v28...
|...........|...........|...........|...........
|...........|...........|...........|...........
|...........|...........|...........|...........
|G#601v41...|...........|...........|...........
|...........|...........|...........|...........
|...........|...........|...........|...........
|...........|...........|...........|...........
|G-601v41...|...........|A-401v28...|D-401v28...
|...........|...........|...........|...........
|...........|...........|...........|...........
|...........|...........|...........|...........
|F-601v41...|...........|A-401v30...|D-401v30...
|...........|...........|...........|...........
|...........|...........|...........|...........
|...........|...........|...........|...........
|D-601v41...|...........|...........|...........
|...........|...........|...........|...........
|...........|...........|...........|...........
|...........|...........|...........|...........
|E-601v41...|...........|A-401v27...|D-401v27...
|...........|...........|...........|...........
|...........|...........|...........|...........
|...........|...........|...........|...........
|F-601v41...|...........|...........|...........
|...........|...........|...........|...........
|...........|...........|...........|...........
|...........|...........|...........|...........
|...........|...........|A-401v29...|D-401v29...
|...........|...........|...........|...........
|...........|...........|...........|...........
|...........|...........|...........|...........
|G-601v41...|...........|...........|...........
|...........|...........|...........|...........
|...........|...........|...........|...........
|...........|...........|...........|...........
|...........|...........|A-401v29...|D-401v29...
|...........|...........|...........|...........
|...........|...........|...........|...........
|...........|...........|...........|...........
|A-601v41...|...........|...........|...........
|...........|...........|...........|...........
|...........|...........|...........|...........
|...........|...........|...........|...........
|...........|...........|A-401v29...|D-401v29...
|...........|...........|...........|...........
|...........|...........|...........|...........
|...........|...........|...........|...........
|C-701v41...|...........|A-401v29...|D-401v29...
|...........|...........|...........|...........
|...........|...........|...........|...........
|...........|...........|...........|...........
|...........|...........|...........|...........
|...........|...........|...........|...........
|...........|...........|...........|...........
|...........|...........|...........|...........
|C#701v41...|C#601v41...|G#401v23...|C#401v23...
|...........|...........|...........|...........
|...........|...........|...........|...........
|...........|...........|...........|...........
|...........|...........|...........|...........
|...........|...........|...........|...........
|...........|...........|...........|...........
|...........|...........|...........|...........
|G#601v41...|===........|G#401v30...|C#401v30...
|...........|...........|...........|...........
|...........|...........|...........|...........
|...........|...........|...........|...........
|...........|...........|...........|...........
|...........|...........|...........|...........
|...........|...........|...........|...........
|...........|...........|...........|...........
|G#601v41...|...........|G#401v28...|C#401v28...
|...........|...........|...........|...........
|...........|...........|...........|...........
|...........|...........|...........|...........
|G-601v41...|...........|G#401v29...|C#401v29...
|...........|...........|...........|...........
|...........|...........|...........|...........
|...........|...........|...........|...........
|F-601v41...|...........|...........|...........
|...........|...........|...........|...........
|...........|...........|...........|...........
|...........|...........|...........|...........
|G-601v41...|D#601v41...|A#401v29...|D#401v29...
|...........|...........|...........|...........
|...........|...........|...........|...........
|...........|...........|...........|...........
|...........|...........|...........|...........
|...........|...........|...........|...........
|...........|...........|...........|...........
|...........|...........|...........|...........
|...........|...........|A#401v28...|D#401v28...
|...........|...........|...........|...........
|...........|...........|...........|...........
|...........|...........|...........|...........
|...........|...........|...........|...........
|...........|...........|...........|...........
|...........|...........|...........|...........
|...........|...........|...........|...........
|...........|...........|A#401v28...|D#401v28...
|...........|...........|...........|...........
|...........|...........|...........|...........
|...........|...........|...........|...........
|...........|...........|...........|...........
|...........|...........|...........|...........
|...........|...........|...........|...........
|...........|...........|...........|...........
|...........|...........|A#401v28...|D#401v28...
|...........|...........|...........|...........
|...........|...........|...........|...........
|...........|...........|...........|...........
|...........|...........|A#401v31...|D#401v31...
|...........|...........|...........|...........
|...........|...........|...........|...........
|...........|...........|...........|...........
|...........|...........|...........|...........
|...........|...........|...........|...........
|...........|...........|...........|...........
|...........|...........|...........|...........
ModPlug Tracker MPT
|F-501v41...|===........|A#301v25...|F-401v25...
|...........|...........|...........|...........
|...........|...........|...........|...........
|...........|...........|...........|...........
|...........|...........|...........|...........
|...........|...........|...........|...........
|...........|...........|...........|...........
|...........|...........|...........|...........
|G-501v41...|...........|F-401v25...|A#301v25...
|...........|...........|...........|...........
|...........|...........|...........|...........
|...........|...........|...........|...........
|...........|...........|...........|...........
|...........|...........|...........|...........
|...........|...........|...........|...........
|...........|...........|...........|...........
|F-501v41...|A-501v41...|A#301v26...|F-401v26...
|...........|...........|...........|...........
|...........|...........|...........|...........
|...........|...........|...........|...........
|...........|...........|A#301v29...|F-401v29...
|...........|...........|...........|...........
|...........|...........|...........|...........
|...........|...........|...........|...........
|F-601v41...|===........|...........|...........
|...........|...........|...........|...........
|...........|...........|...........|...........
|...........|...........|...........|...........
|...........|...........|F-401v27...|A#301v27...
|...........|...........|...........|...........
|...........|...........|...........|...........
|...........|...........|...........|...........
|C-601v41...|E-601v41...|...........|...........
|...........|...........|...........|...........
|...........|...........|...........|...........
|...........|...........|...........|...........
|...........|...........|A#301v28...|F-401v28...
|...........|...........|...........|...........
|...........|...........|...........|...........
|...........|...........|...........|...........
|...........|...........|...........|...........
|...........|...........|...........|...........
|...........|...........|...........|...........
|...........|...........|...........|...........
|...........|...........|F-401v29...|A#301v29...
|...........|...........|...........|...........
|...........|...........|...........|...........
|...........|...........|...........|...........
|A-501v41...|D-601v41...|...........|...........
|...........|...........|...........|...........
|...........|...........|...........|...........
|...........|...........|...........|...........
|...........|...........|A#301v26...|F-401v26...
|...........|...........|...........|...........
|...........|...........|...........|...........
|...........|...........|...........|...........
|...........|...........|F-401v28...|A#301v28...
|...........|...........|...........|...........
|...........|...........|...........|...........
|...........|...........|...........|...........
|...........|...........|...........|...........
|...........|...........|...........|...........
|...........|...........|...........|...........
|...........|...........|...........|...........
|E-601v41...|G-501v41...|C-401v32...|G-401v32...
|...........|...........|...........|...........
|...........|...........|...........|...........
|...........|...........|...........|...........
|...........|...........|...........|...........
|...........|...........|...........|...........
|...........|...........|...........|...........
|...........|...........|...........|...........
|...........|...........|G-401v29...|C-401v29...
|...........|...........|...........|...........
|...........|...........|...........|...........
|...........|...........|...........|...........
|...........|...........|...........|...........
|...........|...........|...........|...........
|...........|...........|...........|...........
|...........|...........|...........|...........
|A-501v41...|F-601v41...|C-401v29...|G-401v29...
|...........|...........|...........|...........
|...........|...........|...........|...........
|...........|...........|...........|...........
|...........|...........|C-401v29...|G-401v29...
|...........|...........|...........|...........
|...........|...........|...........|...........
|...........|...........|...........|...........
|...........|...........|...........|...........
|...........|...........|...........|...........
|...........|...........|...........|...........
|...........|...........|...........|...........
|...........|...........|G-401v32...|C-401v32...
|...........|...........|...........|...........
|...........|...........|...........|...........
|...........|...........|...........|...........
|C-601v41...|G-601v41...|...........|...........
|...........|...........|...........|...........
|...........|...........|...........|...........
|...........|...........|...........|...........
|...........|...........|C-401v27...|G-401v27...
|...........|...........|...........|...........
|...........|...........|...........|...........
|...........|...........|...........|...........
|...........|...........|...........|...........
|...........|...........|...........|...........
|...........|...........|...........|...........
|...........|...........|...........|...........
|...........|...........|G-401v27...|C-401v27...
|...........|...........|...........|...........
|...........|...........|...........|...........
|...........|...........|...........|...........
|A-501v41...|E-601v41...|...........|...........
|...........|...........|...........|...........
|...........|...........|...........|...........
|...........|...........|...........|...........
|...........|...........|C-401v28...|G-401v28...
|...........|...........|...........|...........
|...........|...........|...........|...........
|...........|...........|...........|...........
|...........|...........|G-401v27...|C-401v27...
|...........|...........|...........|...........
|...........|...........|...........|...........
|...........|...........|...........|...........
|...........|...........|...........|...........
|...........|...........|...........|...........
|...........|...........|...........|...........
|...........|...........|...........|...........
ModPlug Tracker MPT
|A-601v41...|D-601v41...|D-401v33...|A-401v33...
|...........|...........|...........|...........
|...........|...........|...........|...........
|...........|...........|...........|...........
|...........|...........|...........|...........
|...........|...........|...........|...........
|...........|...........|...........|...........
|...........|...........|...........|...........
|...........|...........|A-401v25...|D-401v25...
|...........|...........|...........|...........
|...........|...........|...........|...........
|...........|...........|...........|...........
|...........|...........|...........|...........
|...........|...........|...........|...........
|...........|...........|...........|...........
|...........|...........|...........|...........
|...........|...........|D-401v27...|A-401v27...
|...........|...........|...........|...........
|...........|...........|...........|...........
|...........|...........|...........|...........
|...........|...........|D-401v25...|A-401v25...
|...........|...........|...........|...........
|...........|...........|...........|...........
|...........|...........|...........|...........
|...........|...........|...........|...........
|...........|...........|...........|...........
|...........|...........|...........|...........
|...........|...........|...........|...........
|...........|...........|A-401v31...|D-401v31...
|...........|...........|...........|...........
|...........|...........|...........|...........
|...........|...........|...........|...........
|A-601v41...|===........|...........|...........
|...........|...........|...........|...........
|...........|...........|...........|...........
|...........|...........|...........|...........
|G#601v41...|...........|D-401v29...|A-401v29...
|...........|...........|...........|...........
|...........|...........|...........|...........
|...........|...........|...........|...........
|G-601v41...|...........|...........|...........
|...........|...........|...........|...........
|...........|...........|...........|...........
|...........|...........|...........|...........
|F#601v41...|...........|A-401v29...|D-401v29...
|...........|...........|...........|...........
|...........|...........|...........|...........
|...........|...........|...........|...........
|F-601v41...|...........|...........|...........
|...........|...........|...........|...........
|...........|...........|...........|...........
|...........|...........|...........|...........
|E-601v41...|...........|D-401v31...|A-401v31...
|...........|...........|...........|...........
|...........|...........|...........|...........
|...........|...........|...........|...........
|D#601v41...|...........|A-401v27...|D-401v27...
|...........|...........|...........|...........
|...........|...........|...........|...........
|...........|...........|...........|...........
|D-601v41...|...........|...........|...........
|...........|...........|...........|...........
|...........|...........|...........|...........
|...........|...........|...........|...........
|C#601v41...|G#501v41...|C#401v29...|G#401v29...
|...........|...........|...........|...........
|...........|...........|...........|...........
|...........|...........|...........|...........
|...........|...........|...........|...........
|...........|...........|...........|...........
|...........|...........|...........|...........
|...........|...........|...........|...........
|...........|...........|G#401v27...|C#401v27...
|...........|...........|...........|...........
|...........|...........|...........|...........
|...........|...........|...........|...........
|...........|...........|...........|...........
|...........|...........|...........|...........
|...........|...........|...........|...........
|...........|...........|...........|...........
|...........|...........|C#401v26...|G#401v26...
|...........|...........|...........|...........
|...........|...........|...........|...........
|...........|...........|...........|...........
|...........|...........|C#401v29...|G#401v29...
|...........|...........|...........|...........
|...........|...........|...........|...........
|...........|...........|...........|...........
|...........|...........|...........|...........
|...........|...........|...........|...........
|...........|...........|...........|...........
|...........|...........|...........|...........
|A#501v41...|D#601v41...|A#401v32...|D#401v32...
|...........|...........|...........|...........
|...........|...........|...........|...........
|...........|...........|...........|...........
|...........|...........|...........|...........
|...........|...........|...........|...........
|...........|...........|...........|...........
|...........|...........|...........|...........
|...........|...........|A#401v25...|D#401v25...
|...........|...........|...........|...........
|...........|...........|...........|...........
|...........|...........|...........|...........
|...........|...........|...........|...........
|...........|...........|...........|...........
|...........|...........|...........|...........
|...........|...........|...........|...........
|...........|...........|A#401v25...|D#401v25...
|...........|...........|...........|...........
|...........|...........|...........|...........
|...........|...........|...........|...........
|...........|...........|...........|...........
|...........|...........|...........|...........
|...........|...........|...........|...........
|...........|...........|...........|...........
|...........|...........|A#401v27...|D#401v27...
|...........|...........|...........|...........
|...........|...........|...........|...........
|...........|...........|...........|...........
|...........|...........|A#401v27...|D#401v27...
|...........|...........|...........|...........
|...........|...........|...........|...........
|...........|...........|...........|...........
|...........|...........|...........|...........
|...........|...........|...........|...........
|...........|...........|...........|...........
|...........|...........|...........|...........
ModPlug Tracker MPT
|A#401v52...|===........|A#301v29...|F-401v29...
|...........|...........|...........|...........
|...........|...........|...........|...........
|...........|...........|...........|...........
|...........|...........|...........|...........
|...........|...........|...........|...........
|...........|...........|...........|...........
|...........|...........|...........|...........
|...........|...........|A#301v27...|F-401v27...
|...........|...........|...........|...........
|...........|...........|...........|...........
|...........|...........|...........|...........
|...........|...........|...........|...........
|...........|...........|...........|...........
|...........|...........|...........|...........
|...........|...........|...........|...........
|...........|...........|A#301v26...|F-401v26...
|...........|...........|...........|...........
|...........|...........|...........|...........
|...........|...........|...........|...........
|...........|...........|F-401v26...|A#301v26...
|...........|...........|...........|...........
|...........|...........|...........|...........
|...........|...........|...........|...........
|...........|...........|...........|...........
|...........|...........|...........|...........
|...........|...........|...........|...........
|...........|...........|...........|...........
|...........|...........|A#301v25...|F-401v25...
|...........|...........|...........|...........
|...........|...........|...........|...........
|...........|...........|...........|...........
|...........|...........|...........|...........
|...........|...........|...........|...........
|...........|...........|...........|...........
|...........|...........|...........|...........
|...........|...........|A#301v25...|F-401v25...
|...........|...........|...........|...........
|...........|...........|...........|...........
|...........|...........|...........|...........
|...........|...........|...........|...........
|...........|...........|...........|...........
|...........|...........|...........|...........
|...........|...........|...........|...........
|...........|...........|A#301v27...|F-401v27...
|...........|...........|...........|...........
|...........|...........|...........|...........
|...........|...........|...........|...........
|F-501v52...|...........|...........|...........
|...........|...........|...........|...........
|...........|...........|...........|...........
|...........|...........|...........|...........
|...........|...........|A#301v27...|F-401v27...
|...........|...........|...........|...........
|...........|...........|...........|...........
|...........|...........|...........|...........
|...........|...........|A#301v30...|F-401v30...
|...........|...........|...........|...........
|...........|...........|...........|...........
|...........|...........|...........|...........
|...........|...........|...........|...........
|...........|...........|...........|...........
|...........|...........|...........|...........
|...........|...........|...........|...........
|E-501v52...|...........|G-401v29...|C-401v29...
|...........|...........|...........|...........
|...........|...........|...........|...........
|...........|...........|...........|...........
|...........|...........|...........|...........
|...........|...........|...........|...........
|...........|...........|...........|...........
|...........|...........|...........|...........
|...........|...........|C-401v27...|G-401v27...
|...........|...........|...........|...........
|...........|...........|...........|...........
|...........|...........|...........|...........
|...........|...........|...........|...........
|...........|...........|...........|...........
|...........|...........|...........|...........
|...........|...........|...........|...........
|...........|...........|G-401v29...|C-401v29...
|...........|...........|...........|...........
|...........|...........|...........|...........
|...........|...........|...........|...........
|...........|...........|C-401v28...|G-401v28...
|...........|...........|...........|...........
|...........|...........|...........|...........
|...........|...........|...........|...........
|...........|...........|...........|...........
|...........|...........|...........|...........
|...........|...........|...........|...........
|...........|...........|...........|...........
|...........|...........|C-401v27...|G-401v27...
|...........|...........|...........|...........
|...........|...........|...........|...........
|...........|...........|...........|...........
|D-501v52...|...........|...........|...........
|...........|...........|...........|...........
|...........|...........|...........|...........
|...........|...........|...........|...........
|...........|...........|C-401v27...|G-401v27...
|...........|...........|...........|...........
|...........|...........|...........|...........
|...........|...........|...........|...........
|...........|...........|...........|...........
|...........|...........|...........|...........
|...........|...........|...........|...........
|...........|...........|...........|...........
|...........|...........|C-401v24...|G-401v24...
|...........|...........|...........|...........
|...........|...........|...........|...........
|...........|...........|...........|...........
|...........|...........|...........|...........
|...........|...........|...........|...........
|...........|...........|...........|...........
|...........|...........|...........|...........
|...........|...........|C-401v27...|G-401v27...
|...........|...........|...........|...........
|...........|...........|...........|...........
|...........|...........|...........|...........
|...........|...........|C-401v29...|G-401v29...
|...........|...........|...........|...........
|...........|...........|...........|...........
|...........|...........|...........|...........
|...........|...........|...........|...........
|...........|...........|...........|...........
|...........|...........|...........|...........
|...........|...........|...........|...........
ModPlug Tracker MPT
|F-501v52...|...........|G-401v29...|B-301v29...
|...........|...........|...........|...........
|...........|...........|...........|...........
|...........|...........|...........|...........
|...........|...........|...........|...........
|...........|...........|...........|...........
|...........|...........|...........|...........
|...........|...........|...........|...........
|...........|...........|G-401v29...|B-301v29...
|...........|...........|...........|...........
|...........|...........|...........|...........
|...........|...........|...........|...........
|...........|...........|...........|...........
|...........|...........|...........|...........
|...........|...........|...........|...........
|...........|...........|...........|...........
|...........|...........|G-401v28...|B-301v28...
|...........|...........|...........|...........
|...........|...........|...........|...........
|...........|...........|...........|...........
|...........|...........|G-401v28...|B-301v28...
|...........|...........|...........|...........
|...........|...........|...........|...........
|...........|...........|...........|...........
|...........|...........|...........|...........
|...........|...........|...........|...........
|...........|...........|...........|...........
|...........|...........|...........|...........
|...........|...........|B-301v28...|G-401v28...
|...........|...........|...........|...........
|...........|...........|...........|...........
|...........|...........|...........|...........
|...........|...........|...........|...........
|...........|...........|...........|...........
|...........|...........|...........|...........
|...........|...........|...........|...........
|...........|...........|G-401v28...|B-301v28...
|...........|...........|...........|...........
|...........|...........|...........|...........
|...........|...........|...........|...........
|...........|...........|...........|...........
|...........|...........|...........|...........
|...........|...........|...........|...........
|...........|...........|...........|...........
|...........|...........|B-301v29...|G-401v29...
|...........|...........|...........|...........
|...........|...........|...........|...........
|...........|...........|...........|...........
|...........|...........|...........|...........
|...........|...........|...........|...........
|...........|...........|...........|...........
|...........|...........|...........|...........
|...........|...........|G-401v26...|B-301v26...
|...........|...........|...........|...........
|...........|...........|...........|...........
|...........|...........|...........|...........
|...........|...........|G-401v29...|B-301v29...
|...........|...........|...........|...........
|...........|...........|...........|...........
|...........|...........|...........|...........
|...........|...........|...........|...........
|...........|...........|...........|...........
|...........|...........|...........|...........
|...........|...........|...........|...........
|===........|...........|B-301v29...|G-401v29...
|...........|...........|...........|...........
|...........|...........|...........|...........
|...........|...........|...........|...........
|...........|...........|...........|...........
|...........|...........|...........|...........
|...........|...........|...........|...........
|...........|...........|...........|...........
|...........|...........|B-301v25...|G-401v25...
|...........|...........|...........|...........
|...........|...........|...........|...........
|...........|...........|...........|...........
|...........|...........|...........|...........
|...........|...........|...........|...........
|...........|...........|...........|...........
|...........|...........|...........|...........
|...........|...........|B-301v24...|G-401v24...
|...........|...........|...........|...........
|...........|...........|...........|...........
|...........|...........|...........|...........
|...........|...........|B-301v27...|G-401v27...
|...........|...........|...........|...........
|...........|...........|...........|...........
|...........|...........|...........|...........
|...........|...........|...........|...........
|...........|...........|...........|...........
|...........|...........|...........|...........
|...........|...........|...........|...........
|...........|...........|B-301v29...|G-401v29...
|...........|...........|...........|...........
|...........|...........|...........|...........
|...........|...........|...........|...........
|...........|...........|...........|...........
|...........|...........|...........|...........
|...........|...........|...........|...........
|...........|...........|...........|...........
|...........|...........|B-301v29...|G-401v29...
|...........|...........|...........|...........
|...........|...........|...........|...........
|...........|...........|...........|...........
|...........|...........|...........|...........
|...........|...........|...........|...........
|...........|...........|...........|...........
|...........|...........|...........|...........
|...........|...........|B-301v25...|G-401v25...
|...........|...........|...........|...........
|...........|...........|...........|...........
|...........|...........|...........|...........
|...........|...........|...........|...........
|...........|...........|...........|...........
|...........|...........|...........|...........
|...........|...........|...........|...........
|...........|...........|B-301v29...|G-401v29...
|...........|...........|...........|...........
|...........|...........|...........|...........
|...........|...........|...........|...........
|...........|...........|B-301v29...|G-401v29...
|...........|...........|...........|...........
|...........|...........|...........|...........
|...........|...........|...........|...........
|...........|...........|...........|...........
|...........|...........|...........|...........
|...........|...........|...........|...........
|...........|...........|...........|...........
ModPlug Tracker MPT
|A#401v52...|...........|A#301v25...|F-401v25...
|...........|...........|...........|...........
|...........|...........|...........|...........
|...........|...........|...........|...........
|...........|...........|...........|...........
|...........|...........|...........|...........
|...........|...........|...........|...........
|...........|...........|...........|...........
|...........|...........|A#301v29...|F-401v29...
|...........|...........|...........|...........
|...........|...........|...........|...........
|...........|...........|...........|...........
|...........|...........|...........|...........
|...........|...........|...........|...........
|...........|...........|...........|...........
|...........|...........|...........|...........
|...........|...........|A#301v29...|F-401v29...
|...........|...........|...........|...........
|...........|...........|...........|...........
|...........|...........|...........|...........
|...........|...........|A#301v29...|F-401v29...
|...........|...........|...........|...........
|...........|...........|...........|...........
|...........|...........|...........|...........
|...........|...........|...........|...........
|...........|...........|...........|...........
|...........|...........|...........|...........
|...........|...........|...........|...........
|...........|...........|A#301v23...|F-401v23...
|...........|...........|...........|...........
|...........|...........|...........|...........
|...........|...........|...........|...........
|...........|...........|...........|...........
|...........|...........|...........|...........
|...........|...........|...........|...........
|...........|...........|...........|...........
|...........|...........|A#301v33...|F-401v33...
|...........|...........|...........|...........
|...........|...........|...........|...........
|...........|...........|...........|...........
|...........|...........|...........|...........
|...........|...........|...........|...........
|...........|...........|...........|...........
|...........|...........|...........|...........
|...........|...........|A#301v25...|F-401v25...
|...........|...........|...........|...........
|...........|...........|...........|...........
|...........|...........|...........|...........
|F-501v52...|...........|...........|...........
|...........|...........|...........|...........
|...........|...........|...........|...........
|...........|...........|...........|...........
|...........|...........|A#301v29...|F-401v29...
|...........|...........|...........|...........
|...........|...........|...........|...........
|...........|...........|...........|...........
|...........|...........|A#301v25...|F-401v25...
|...........|...........|...........|...........
|...........|...........|...........|...........
|...........|...........|...........|...........
|...........|...........|A#301v30...|F-401v30...
|...........|...........|...........|...........
|...........|...........|...........|...........
|...........|...........|...........|...........
|E-501v52...|...........|C-401v32...|G-401v32...
|...........|...........|...........|...........
|...........|...........|...........|...........
|...........|...........|...........|...........
|...........|...........|...........|...........
|...........|...........|...........|...........
|...........|...........|...........|...........
|...........|...........|...........|...........
|...........|...........|C-401v29...|G-401v29...
|...........|...........|...........|...........
|...........|...........|...........|...........
|...........|...........|...........|...........
|...........|...........|...........|...........
|...........|...........|...........|...........
|...........|...........|...........|...........
|...........|...........|...........|...........
|...........|...........|C-401v27...|G-401v27...
|...........|...........|...........|...........
|...........|...........|...........|...........
|...........|...........|...........|...........
|...........|...........|C-401v29...|G-401v29...
|...........|...........|...........|...........
|...........|...........|...........|...........
|...........|...........|...........|...........
|...........|...........|...........|...........
|...........|...........|...........|...........
|...........|...........|...........|...........
|...........|...........|...........|...........
|...........|...........|C-401v32...|G-401v32...
|...........|...........|...........|...........
|...........|...........|...........|...........
|...........|...........|...........|...........
|D-501v52...|...........|...........|...........
|...........|...........|...........|...........
|...........|...........|...........|...........
|...........|...........|...........|...........
|...........|...........|C-401v30...|G-401v30...
|...........|...........|...........|...........
|...........|...........|...........|...........
|...........|...........|...........|...........
|...........|...........|...........|...........
|...........|...........|...........|...........
|...........|...........|...........|...........
|...........|...........|...........|...........
|...........|...........|C-401v28...|G-401v28...
|...........|...........|...........|...........
|...........|...........|...........|...........
|...........|...........|...........|...........
|...........|...........|...........|...........
|...........|...........|...........|...........
|...........|...........|...........|...........
|...........|...........|...........|...........
|...........|...........|C-401v31...|G-401v31...
|...........|...........|...........|...........
|...........|...........|...........|...........
|...........|...........|...........|...........
|...........|...........|C-401v29...|G-401v29...
|...........|...........|...........|...........
|...........|...........|...........|...........
|...........|...........|...........|...........
|...........|...........|...........|...........
|...........|...........|...........|...........
|...........|...........|...........|...........
|...........|...........|...........|...........
ModPlug Tracker MPT
|D-501v52...|...........|D-401v29...|A-401v29...
|...........|...........|...........|...........
|...........|...........|...........|...........
|...........|...........|...........|...........
|...........|...........|...........|...........
|...........|...........|...........|...........
|...........|...........|...........|...........
|...........|...........|...........|...........
|...........|...........|A-401v27...|D-401v27...
|...........|...........|...........|...........
|...........|...........|...........|...........
|...........|...........|...........|...........
|...........|...........|...........|...........
|...........|...........|...........|...........
|...........|...........|...........|...........
|...........|...........|...........|...........
|...........|...........|D-401v29...|A-401v29...
|...........|...........|...........|...........
|...........|...........|...........|...........
|...........|...........|...........|...........
|...........|...........|D-401v27...|A-401v27...
|...........|...........|...........|...........
|...........|...........|...........|...........
|...........|...........|...........|...........
|...........|...........|...........|...........
|...........|...........|...........|...........
|...........|...........|...........|...........
|...........|...........|...........|...........
|...........|...........|A-401v31...|D-401v31...
|...........|...........|...........|...........
|...........|...........|...........|...........
|...........|...........|...........|...........
|...........|...........|...........|...........
|...........|...........|...........|...........
|...........|...........|...........|...........
|...........|...........|...........|...........
|...........|...........|D-401v25...|A-401v25...
|...........|...........|...........|...........
|...........|...........|...........|...........
|...........|...........|...........|...........
|...........|...........|...........|...........
|...........|...........|...........|...........
|...........|...........|...........|...........
|...........|...........|...........|...........
|...........|...........|A-401v28...|D-401v28...
|...........|...........|...........|...........
|...........|...........|...........|...........
|...........|...........|...........|...........
|...........|...........|...........|...........
|...........|...........|...........|...........
|...........|...........|...........|...........
|...........|...........|...........|...........
|...........|...........|D-401v23...|A-401v23...
|...........|...........|...........|...........
|...........|...........|...........|...........
|...........|...........|...........|...........
|...........|...........|A-401v27...|D-401v27...
|...........|...........|...........|...........
|...........|...........|...........|...........
|...........|...........|...........|...........
|...........|...........|...........|...........
|...........|...........|...........|...........
|...........|...........|...........|...........
|...........|...........|...........|...........
|===........|...........|D-401v29...|A-401v29...
|...........|...........|...........|...........
|...........|...........|...........|...........
|...........|...........|...........|...........
|...........|...........|...........|...........
|...........|...........|...........|...........
|...........|...........|...........|...........
|...........|...........|...........|...........
|...........|...........|A-401v29...|D-401v29...
|...........|...........|...........|...........
|...........|...........|...........|...........
|...........|...........|...........|...........
|...........|...........|...........|...........
|...........|...........|...........|...........
|...........|...........|...........|...........
|...........|...........|...........|...........
|...........|...........|D-401v25...|A-401v25...
|...........|...........|...........|...........
|...........|...........|...........|...........
|...........|...........|...........|...........
|...........|...........|D-401v28...|A-401v28...
|...........|...........|...........|...........
|...........|...........|...........|...........
|...........|...........|...........|...........
|...........|...........|...........|...........
|...........|...........|...........|...........
|...........|...........|...........|...........
|...........|...........|...........|...........
|...........|...........|A-401v30...|D-401v30...
|...........|...........|...........|...........
|...........|...........|...........|...........
|...........|...........|...........|...........
|...........|...........|...........|...........
|...........|...........|...........|...........
|...........|...........|...........|...........
|...........|...........|...........|...........
|...........|...........|D-401v27...|A-401v27...
|...........|...........|...........|...........
|...........|...........|...........|...........
|...........|...........|...........|...........
|...........|...........|...........|...........
|...........|...........|...........|...........
|...........|...........|...........|...........
|...........|...........|...........|...........
|...........|...........|A-401v27...|D-401v27...
|...........|...........|...........|...........
|...........|...........|...........|...........
|...........|...........|...........|...........
|...........|...........|...........|...........
|...........|...........|...........|...........
|...........|...........|...........|...........
|...........|...........|...........|...........
|...........|...........|D-401v28...|A-401v28...
|...........|...........|...........|...........
|...........|...........|...........|...........
|...........|...........|...........|...........
|...........|...........|A-401v29...|D-401v29...
|...........|...........|...........|...........
|...........|...........|...........|...........
|...........|...........|...........|...........
|...........|...........|...........|...........
|...........|...........|...........|...........
|...........|...........|...........|...........
|...........|...........|...........|...........
ModPlug Tracker MPT
|D-501v52...|...........|F-401v26...|A#301v26...
|...........|...........|...........|...........
|...........|...........|...........|...........
|...........|...........|...........|...........
|D-501v52...|...........|...........|...........
|...........|...........|...........|...........
|...........|...........|...........|...........
|...........|...........|...........|...........
|D-601v52...|...........|A#301v25...|F-401v25...
|...........|...........|...........|...........
|...........|...........|...........|...........
|...........|...........|...........|...........
|...........|...........|...........|...........
|...........|...........|...........|...........
|...........|...........|...........|...........
|...........|...........|...........|...........
|A-501v52...|...........|F-401v29...|A#301v29...
|...........|...........|...........|...........
|...........|...........|...........|...........
|...........|...........|...........|...........
|...........|...........|F-401v27...|A#301v27...
|...........|...........|...........|...........
|...........|...........|...........|...........
|...........|...........|...........|...........
|...........|...........|...........|...........
|...........|...........|...........|...........
|...........|...........|...........|...........
|...........|...........|...........|...........
|G#501v52...|...........|F-401v29...|A#301v29...
|...........|...........|...........|...........
|...........|...........|...........|...........
|...........|...........|...........|...........
|...........|...........|...........|...........
|...........|...........|...........|...........
|...........|...........|...........|...........
|...........|...........|...........|...........
|G-501v52...|...........|F-401v25...|A#301v25...
|...........|...........|...........|...........
|...........|...........|...........|...........
|...........|...........|...........|...........
|...........|...........|...........|...........
|...........|...........|...........|...........
|...........|...........|...........|...........
|...........|...........|...........|...........
|F-501v52...|...........|F-401v29...|A#301v29...
|...........|...........|...........|...........
|...........|...........|...........|...........
|...........|...........|...........|...........
|...........|...........|...........|...........
|...........|...........|...........|...........
|...........|...........|...........|...........
|...........|...........|...........|...........
|D-501v52...|...........|F-401v24...|A#301v24...
|...........|...........|...........|...........
|...........|...........|...........|...........
|...........|...........|...........|...........
|F-501v52...|...........|F-401v28...|A#301v28...
|...........|...........|...........|...........
|...........|...........|...........|...........
|...........|...........|...........|...........
|G-501v52...|...........|...........|...........
|...........|...........|...........|...........
|...........|...........|...........|...........
|...........|...........|...........|...........
|C-501v52...|...........|G-401v33...|C-401v33...
|...........|...........|...........|...........
|...........|...........|...........|...........
|...........|...........|...........|...........
|C-501v52...|...........|...........|...........
|...........|...........|...........|...........
|...........|...........|...........|...........
|...........|...........|...........|...........
|D-601v52...|...........|C-401v27...|G-401v27...
|...........|...........|...........|...........
|...........|...........|...........|...........
|...........|...........|...........|...........
|...........|...........|...........|...........
|...........|...........|...........|...........
|...........|...........|...........|...........
|...........|...........|...........|...........
|A-501v52...|...........|G-401v25...|C-401v25...
|...........|...........|...........|...........
|...........|...........|...........|...........
|...........|...........|...........|...........
|...........|...........|G-401v27...|C-401v27...
|...........|...........|...........|...........
|...........|...........|...........|...........
|...........|...........|...........|...........
|...........|...........|...........|...........
|...........|...........|...........|...........
|...........|...........|...........|...........
|...........|...........|...........|...........
|G#501v52...|...........|G-401v29...|C-401v29...
|...........|...........|...........|...........
|...........|...........|...........|...........
|...........|...........|...........|...........
|...........|...........|...........|...........
|...........|...........|...........|...........
|...........|...........|...........|...........
|...........|...........|...........|...........
|G-501v52...|...........|G-401v26...|C-401v26...
|...........|...........|...........|...........
|...........|...........|...........|...........
|...........|...........|...........|...........
|...........|...........|...........|...........
|...........|...........|...........|...........
|...........|...........|...........|...........
|...........|...........|...........|...........
|F-501v52...|...........|G-401v29...|C-401v29...
|...........|...........|...........|...........
|...........|...........|...........|...........
|...........|...........|...........|...........
|...........|...........|...........|...........
|...........|...........|...........|...........
|...........|...........|...........|...........
|...........|...........|...........|...........
|D-501v52...|...........|G-401v25...|C-401v25...
|...........|...........|...........|...........
|...........|...........|...........|...........
|...........|...........|...........|...........
|F-501v52...|...........|G-401v29...|C-401v29...
|...........|...........|...........|...........
|...........|...........|...........|...........
|...........|...........|...........|...........
|G-501v52...|...........|...........|...........
|...........|...........|...........|...........
|...........|...........|...........|...........
|...........|...........|...........|...........
ModPlug Tracker MPT
|B-401v52...|...........|B-301v27...|G-401v27...
|...........|...........|...........|...........
|...........|...........|...........|...........
|...........|...........|...........|...........
|B-401v52...|...........|...........|...........
|...........|...........|...........|...........
|...........|...........|...........|...........
|...........|...........|...........|...........
|D-601v52...|...........|B-301v29...|G-401v29...
|...........|...........|...........|...........
|...........|...........|...........|...........
|...........|...........|...........|...........
|...........|...........|...........|...........
|...........|...........|...........|...........
|...........|...........|...........|...........
|...........|...........|...........|...........
|A-501v52...|...........|G-401v31...|B-301v31...
|...........|...........|...........|...........
|...........|...........|...........|...........
|...........|...........|...........|...........
|...........|...........|B-301v28...|G-401v28...
|...........|...........|...........|...........
|...........|...........|...........|...........
|...........|...........|...........|...........
|...........|...........|...........|...........
|...........|...........|...........|...........
|...........|...........|...........|...........
|...........|...........|...........|...........
|G#501v52...|...........|B-301v25...|G-401v25...
|...........|...........|...........|...........
|...........|...........|...........|...........
|...........|...........|...........|...........
|...........|...........|...........|...........
|...........|...........|...........|...........
|...........|...........|...........|...........
|...........|...........|...........|...........
|G-501v52...|...........|B-301v29...|G-401v29...
|...........|...........|...........|...........
|...........|...........|...........|...........
|...........|...........|...........|...........
|...........|...........|...........|...........
|...........|...........|...........|...........
|...........|...........|...........|...........
|...........|...........|...........|...........
|F-501v52...|...........|B-301v26...|G-401v26...
|...........|...........|...........|...........
|...........|...........|...........|...........
|...........|...........|...........|...........
|...........|...........|...........|...........
|...........|...........|...........|...........
|...........|...........|...........|...........
|...........|...........|...........|...........
|D-501v52...|...........|G-401v29...|B-301v29...
|...........|...........|...........|...........
|...........|...........|...........|...........
|...........|...........|...........|...........
|F-501v52...|...........|B-301v25...|G-401v25...
|...........|...........|...........|...........
|...........|...........|...........|...........
|...........|...........|...........|...........
|G-501v52...|...........|...........|...........
|...........|...........|...........|...........
|...........|...........|...........|...........
|...........|...........|...........|...........
|B-401v52...|...........|B-301v27...|G-401v27...
|...........|...........|...........|...........
|...........|...........|...........|...........
|...........|...........|...........|...........
|B-401v52...|...........|...........|...........
|...........|...........|...........|...........
|...........|...........|...........|...........
|...........|...........|...........|...........
|D-601v52...|...........|B-301v29...|G-401v29...
|...........|...........|...........|...........
|...........|...........|...........|...........
|...........|...........|...........|...........
|...........|...........|...........|...........
|...........|...........|...........|...........
|...........|...........|...........|...........
|...........|...........|...........|...........
|A-501v52...|...........|G-401v31...|B-301v31...
|...........|...........|...........|...........
|...........|...........|...........|...........
|...........|...........|...........|...........
|...........|...........|B-301v28...|G-401v28...
|...........|...........|...........|...........
|...........|...........|...........|...........
|...........|...........|...........|...........
|...........|...........|...........|...........
|...........|...........|...........|...........
|...........|...........|...........|...........
|...........|...........|...........|...........
|G#501v52...|...........|B-301v25...|G-401v25...
|...........|...........|...........|...........
|...........|...........|...........|...........
|...........|...........|...........|...........
|...........|...........|...........|...........
|...........|...........|...........|...........
|...........|...........|...........|...........
|...........|...........|...........|...........
|G-501v52...|...........|B-301v29...|G-401v29...
|...........|...........|...........|...........
|...........|...........|...........|...........
|...........|...........|...........|...........
|...........|...........|...........|...........
|...........|...........|...........|...........
|...........|...........|...........|...........
|...........|...........|...........|...........
|F-501v52...|...........|B-301v26...|G-401v26...
|...........|...........|...........|...........
|...........|...........|...........|...........
|...........|...........|...........|...........
|...........|...........|...........|...........
|...........|...........|...........|...........
|...........|...........|...........|...........
|...........|...........|...........|...........
|D-501v52...|...........|G-401v29...|B-301v29...
|...........|...........|...........|...........
|...........|...........|...........|...........
|...........|...........|...........|...........
|F-501v52...|...........|B-301v25...|G-401v25...
|...........|...........|...........|...........
|...........|...........|...........|...........
|...........|...........|...........|...........
|G-501v52...|...........|...........|...........
|...........|...........|...........|...........
|...........|...........|...........|...........
|...........|...........|...........|...........
ModPlug Tracker MPT
|D-501v52...|...........|F-401v30...|A#301v30...
|...........|...........|...........|...........
|...........|...........|...........|...........
|...........|...........|...........|...........
|D-501v52...|...........|...........|...........
|...........|...........|...........|...........
|...........|...........|...........|...........
|...........|...........|...........|...........
|D-601v52...|...........|F-401v27...|A#301v27...
|...........|...........|...........|...........
|...........|...........|...........|...........
|...........|...........|...........|...........
|...........|...........|...........|...........
|...........|...........|...........|...........
|...........|...........|...........|...........
|...........|...........|...........|...........
|A-501v52...|...........|A#301v29...|F-401v29...
|...........|...........|...........|...........
|...........|...........|...........|...........
|...........|...........|...........|...........
|...........|...........|F-401v27...|A#301v27...
|...........|...........|...........|...........
|...........|...........|...........|...........
|...........|...........|...........|...........
|...........|...........|...........|...........
|...........|...........|...........|...........
|...........|...........|...........|...........
|...........|...........|...........|...........
|G#501v52...|...........|A#301v27...|F-401v27...
|...........|...........|...........|...........
|...........|...........|...........|...........
|...........|...........|...........|...........
|...........|...........|...........|...........
|...........|...........|...........|...........
|...........|...........|...........|...........
|...........|...........|...........|...........
|G-501v52...|...........|F-401v30...|A#301v30...
|...........|...........|...........|...........
|...........|...........|...........|...........
|...........|...........|...........|...........
|...........|...........|...........|...........
|...........|...........|...........|...........
|...........|...........|...........|...........
|...........|...........|...........|...........
|F-501v52...|...........|A#301v28...|F-401v28...
|...........|...........|...........|...........
|...........|...........|...........|...........
|...........|...........|...........|...........
|...........|...........|...........|...........
|...........|...........|...........|...........
|...........|...........|...........|...........
|...........|...........|...........|...........
|D-501v52...|...........|F-401v27...|A#301v27...
|...........|...........|...........|...........
|...........|...........|...........|...........
|...........|...........|...........|...........
|F-501v52...|...........|F-401v25...|A#301v25...
|...........|...........|...........|...........
|...........|...........|...........|...........
|...........|...........|...........|...........
|G-501v52...|...........|...........|...........
|...........|...........|...........|...........
|...........|...........|...........|...........
|...........|...........|...........|...........
|C-501v52...|...........|C-401v29...|G-401v29...
|...........|...........|...........|...........
|...........|...........|...........|...........
|...........|...........|...........|...........
|C-501v52...|...........|...........|...........
|...........|...........|...........|...........
|...........|...........|...........|...........
|...........|...........|...........|...........
|D-601v52...|...........|G-401v29...|C-401v29...
|...........|...........|...........|...........
|...........|...........|...........|...........
|...........|...........|...........|...........
|...........|...........|...........|...........
|...........|...........|...........|...........
|...........|...........|...........|...........
|...........|...........|...........|...........
|A-501v52...|...........|C-401v24...|G-401v24...
|...........|...........|...........|...........
|...........|...........|...........|...........
|...........|...........|...........|...........
|...........|...........|G-401v30...|C-401v30...
|...........|...........|...........|...........
|...........|...........|...........|...........
|...........|...........|...........|...........
|...........|...........|...........|...........
|...........|...........|...........|...........
|...........|...........|...........|...........
|...........|...........|...........|...........
|G#501v52...|...........|C-401v31...|G-401v31...
|...........|...........|...........|...........
|...........|...........|...........|...........
|...........|...........|...........|...........
|...........|...........|...........|...........
|...........|...........|...........|...........
|...........|...........|...........|...........
|...........|...........|...........|...........
|G-501v52...|...........|G-401v26...|C-401v26...
|...........|...........|...........|...........
|...........|...........|...........|...........
|...........|...........|...........|...........
|...........|...........|...........|...........
|...........|...........|...........|...........
|...........|...........|...........|...........
|...........|...........|...........|...........
|F-501v52...|...........|C-401v27...|G-401v27...
|...........|...........|...........|...........
|...........|...........|...........|...........
|...........|...........|...........|...........
|...........|...........|...........|...........
|...........|...........|...........|...........
|...........|...........|...........|...........
|...........|...........|...........|...........
|D-501v52...|...........|G-401v27...|C-401v27...
|...........|...........|...........|...........
|...........|...........|...........|...........
|...........|...........|...........|...........
|F-501v52...|...........|G-401v26...|C-401v26...
|...........|...........|...........|...........
|...........|...........|...........|...........
|...........|...........|...........|...........
|G-501v52...|...........|...........|...........
|...........|...........|...........|...........
|...........|...........|...........|...........
|...........|...........|...........|...........
ModPlug Tracker MPT
|===........|...........|A-401v33...|D-401v33...
|...........|...........|...........|...........
|...........|...........|...........|...........
|...........|...........|...........|...........
|...........|...........|A-401v33...|D-501v33...
|...........|...........|...........|...........
|...........|...........|...........|...........
|...........|...........|...........|...........
|D-601v52...|F-601v52...|===........|===........
|...........|...........|...........|...........
|...........|...........|...........|...........
|...........|...........|...........|...........
|...........|...........|...........|...........
|...........|...........|...........|...........
|===........|...........|...........|...........
|...........|...........|...........|...........
|A-501v52...|E-601v52...|...........|...........
|...........|...........|...........|...........
|...........|...........|...........|...........
|...........|...........|...........|...........
|===........|===........|...........|...........
|...........|...........|...........|...........
|...........|...........|...........|...........
|...........|...........|...........|...........
|...........|...........|...........|...........
|...........|...........|...........|...........
|...........|...........|...........|...........
|...........|...........|...........|...........
|G#501v52...|C-601v52...|...........|...........
|...........|...........|...........|...........
|...........|...........|...........|...........
|...........|...........|...........|...........
|...........|...........|...........|...........
|...........|...........|...........|...........
|...........|...........|...........|...........
|...........|...........|...........|...........
|G-501v52...|E-601v52...|...........|...........
|...........|...........|...........|...........
|...........|...........|...........|...........
|...........|...........|...........|...........
|===........|===........|...........|...........
|...........|...........|...........|...........
|...........|...........|...........|...........
|...........|...........|...........|...........
|F-501v52...|D-601v52...|...........|...........
|...........|...........|...........|...........
|...........|...........|...........|...........
|...........|...........|...........|...........
|...........|...........|...........|...........
|...........|...........|...........|...........
|...........|...........|...........|...........
|...........|...........|...........|...........
|C-501v52...|A-501v52...|...........|...........
|...........|...........|...........|...........
|...........|...........|...........|...........
|...........|...........|...........|...........
|E-501v52...|C-601v52...|...........|...........
|...........|...........|...........|...........
|...........|...........|...........|...........
|...........|...........|...........|...........
|D-601v52...|F-501v52...|...........|...........
|...........|...........|...........|...........
|...........|...........|...........|...........
|...........|...........|...........|...........
|===........|===........|A-401v33...|D-401v33...
|...........|...........|...........|...........
|...........|...........|...........|...........
|...........|...........|...........|...........
|...........|...........|D-401v33...|D-501v33...
|...........|...........|...........|...........
|...........|...........|...........|...........
|...........|...........|...........|...........
|D-601v52...|F-601v52...|===........|===........
|...........|...........|...........|...........
|...........|...........|...........|...........
|...........|...........|...........|...........
|...........|...........|...........|...........
|...........|...........|...........|...........
|===........|...........|...........|...........
|...........|...........|...........|...........
|E-601v52...|A-501v52...|...........|...........
|...........|...........|...........|...........
|...........|...........|...........|...........
|...........|...........|...........|...........
|===........|===........|...........|...........
|...........|...........|...........|...........
|...........|...........|...........|...........
|...........|...........|...........|...........
|...........|...........|...........|...........
|...........|...........|...........|...........
|...........|...........|...........|...........
|...........|...........|...........|...........
|G#501v52...|C-601v52...|...........|...........
|...........|...........|...........|...........
|...........|...........|...........|...........
|...........|...........|...........|...........
|...........|...........|...........|...........
|...........|...........|...........|...........
|...........|...........|...........|...........
|...........|...........|...........|...........
|E-601v52...|G-501v52...|A-401v26...|D-401v26...
|...........|...........|...........|...........
|...........|...........|...........|...........
|...........|...........|...........|...........
|===........|===........|...........|...........
|...........|...........|...........|...........
|...........|...........|...........|...........
|...........|...........|...........|...........
|F-501v52...|D-601v52...|D-401v27...|A-401v27...
|...........|...........|...........|...........
|...........|...........|...........|...........
|...........|...........|...........|...........
|...........|...........|...........|...........
|...........|...........|...........|...........
|...........|...........|...........|...........
|...........|...........|...........|...........
|A-501v52...|C-501v52...|A-401v27...|D-401v27...
|...........|...........|...........|...........
|...........|...........|...........|...........
|...........|...........|...........|...........
|E-501v52...|C-601v52...|A-401v26...|D-401v26...
|...........|...........|...........|...........
|...........|...........|...........|...........
|...........|...........|...........|...........
|F-501v52...|D-601v52...|...........|...........
|...........|...........|...........|...........
|...........|...........|...........|...........
|...........|...........|...........|...........
ModPlug Tracker MPT
|A#501v35...|F-501v35...|F-401v24...|A#301v24...
|...........|...........|...........|...........
|...........|...........|...........|...........
|...........|...........|...........|...........
|...........|...........|...........|...........
|...........|...........|...........|...........
|...........|...........|...........|...........
|...........|...........|...........|...........
|F-501v37...|A#501v37...|A#301v30...|F-401v30...
|...........|...........|...........|...........
|...........|...........|...........|...........
|...........|...........|...........|...........
|...........|...........|...........|...........
|...........|...........|...........|...........
|...........|...........|...........|...........
|...........|...........|...........|...........
|A#501v37...|F-501v37...|F-401v29...|A#301v29...
|...........|...........|...........|...........
|...........|...........|...........|...........
|...........|...........|...........|...........
|A#501v37...|F-501v37...|F-401v29...|A#301v29...
|...........|...........|...........|...........
|...........|...........|...........|...........
|...........|...........|...........|...........
|...........|...........|...........|...........
|...........|...........|...........|...........
|...........|...........|...........|...........
|...........|...........|...........|...........
|F-501v37...|A#501v37...|A#301v29...|F-401v29...
|...........|...........|...........|...........
|...........|...........|...........|...........
|...........|...........|...........|...........
|...........|...........|...........|...........
|...........|...........|...........|...........
|...........|...........|...........|...........
|...........|...........|...........|...........
|A#501v37...|F-501v37...|F-401v27...|A#301v27...
|...........|...........|...........|...........
|...........|...........|...........|...........
|...........|...........|...........|...........
|...........|...........|...........|...........
|...........|...........|...........|...........
|...........|...........|...........|...........
|...........|...........|...........|...........
|F-501v37...|A#501v37...|A#301v27...|F-401v27...
|...........|...........|...........|...........
|...........|...........|...........|...........
|...........|...........|...........|...........
|...........|...........|...........|...........
|...........|...........|...........|...........
|...........|...........|...........|...........
|...........|...........|...........|...........
|A#501v37...|F-501v37...|F-401v31...|A#301v31...
|...........|...........|...........|...........
|...........|...........|...........|...........
|...........|...........|...........|...........
|F-501v37...|A#501v37...|A#301v28...|F-401v28...
|...........|...........|...........|...........
|...........|...........|...........|...........
|...........|...........|...........|...........
|...........|...........|...........|...........
|...........|...........|...........|...........
|...........|...........|...........|...........
|...........|...........|...........|...........
|C-601v37...|G-501v37...|G-401v29...|C-401v29...
|...........|...........|...........|...........
|...........|...........|...........|...........
|...........|...........|...........|...........
|...........|...........|...........|...........
|...........|...........|...........|...........
|...........|...........|...........|...........
|...........|...........|...........|...........
|G-501v37...|C-601v37...|C-401v26...|G-401v26...
|...........|...........|...........|...........
|...........|...........|...........|...........
|...........|...........|...........|...........
|...........|...........|...........|...........
|...........|...........|...........|...........
|...........|...........|...........|...........
|...........|...........|...........|...........
|C-601v37...|G-501v37...|G-401v29...|C-401v29...
|...........|...........|...........|...........
|...........|...........|...........|...........
|...........|...........|...........|...........
|C-601v37...|G-501v37...|G-401v27...|C-401v27...
|...........|...........|...........|...........
|...........|...........|...........|...........
|...........|...........|...........|...........
|...........|...........|...........|...........
|...........|...........|...........|...........
|...........|...........|...........|...........
|...........|...........|...........|...........
|G-501v37...|C-601v37...|C-401v25...|G-401v25...
|...........|...........|...........|...........
|...........|...........|...........|...........
|...........|...........|...........|...........
|...........|...........|...........|...........
|...........|...........|...........|...........
|...........|...........|...........|...........
|...........|...........|...........|...........
|C-601v37...|G-501v37...|G-401v26...|C-401v26...
|...........|...........|...........|...........
|...........|...........|...........|...........
|...........|...........|...........|...........
|...........|...........|...........|...........
|...........|...........|...........|...........
|...........|...........|...........|...........
|...........|...........|...........|...........
|G-501v37...|C-601v37...|C-401v29...|G-401v29...
|...........|...........|...........|...........
|...........|...........|...........|...........
|...........|...........|...........|...........
|...........|...........|...........|...........
|...........|...........|...........|...........
|...........|...........|...........|...........
|...........|...........|...........|...........
|C-601v37...|G-501v37...|G-401v28...|C-401v28...
|...........|...........|...........|...........
|...........|...........|...........|...........
|...........|...........|...........|...........
|G-501v37...|C-601v37...|C-401v29...|G-401v29...
|...........|...........|...........|...........
|...........|...........|...........|...........
|...........|...........|...........|...........
|...........|...........|...........|...........
|...........|...........|...........|...........
|...........|...........|...........|...........
|...........|...........|...........|...........
ModPlug Tracker MPT
|D-601v37...|A-501v37...|A-401v35...|D-401v35...
|...........|...........|...........|...........
|...........|...........|...........|...........
|...........|...........|...........|...........
|...........|...........|...........|...........
|...........|...........|...........|...........
|...........|...........|...........|...........
|...........|...........|...........|...........
|A-501v37...|D-601v37...|D-401v27...|A-401v27...
|...........|...........|...........|...........
|...........|...........|...........|...........
|...........|...........|...........|...........
|...........|...........|...........|...........
|...........|...........|...........|...........
|...........|...........|...........|...........
|...........|...........|...........|...........
|D-601v37...|A-501v37...|A-401v25...|D-401v25...
|...........|...........|...........|...........
|...........|...........|...........|...........
|...........|...........|...........|...........
|D-601v37...|A-501v37...|A-401v28...|D-401v28...
|...........|...........|...........|...........
|...........|...........|...........|...........
|...........|...........|...........|...........
|...........|...........|...........|...........
|...........|...........|...........|...........
|...........|...........|...........|...........
|...........|...........|...........|...........
|G#501v37...|C#601v37...|C#401v25...|G#401v25...
|...........|...........|...........|...........
|...........|...........|...........|...........
|...........|...........|...........|...........
|...........|...........|...........|...........
|...........|...........|...........|...........
|...........|...........|...........|...........
|...........|...........|...........|...........
|C#601v37...|G#501v37...|G#401v32...|C#401v32...
|...........|...........|...........|...........
|...........|...........|...........|...........
|...........|...........|...........|...........
|...........|...........|...........|...........
|...........|...........|...........|...........
|...........|...........|...........|...........
|...........|...........|...........|...........
|G#501v37...|C#601v37...|C#401v32...|G#401v32...
|...........|...........|...........|...........
|...........|...........|...........|...........
|...........|...........|...........|...........
|...........|...........|...........|...........
|...........|...........|...........|...........
|...........|...........|...........|...........
|...........|...........|...........|...........
|C#601v37...|G#501v37...|G#401v27...|C#401v27...
|...........|...........|...........|...........
|...........|...........|...........|...........
|...........|...........|...........|...........
|G#501v37...|C#601v37...|C#401v30...|G#401v30...
|...........|...........|...........|...........
|...........|...........|...........|...........
|...........|...........|...........|...........
|...........|...........|...........|...........
|...........|...........|...........|...........
|...........|...........|...........|...........
|...........|...........|...........|...........
|C-601v37...|G-501v37...|G-401v28...|C-401v28...
|...........|...........|...........|...........
|...........|...........|...........|...........
|...........|...........|...........|...........
|...........|...........|...........|...........
|...........|...........|...........|...........
|...........|...........|...........|...........
|...........|...........|...........|...........
|G-501v37...|C-601v37...|C-401v27...|G-401v27...
|...........|...........|...........|...........
|...........|...........|...........|...........
|...........|...........|...........|...........
|...........|...........|...........|...........
|...........|...........|...........|...........
|...........|...........|...........|...........
|...........|...........|...........|...........
|C-601v37...|G-501v37...|G-401v27...|C-401v27...
|...........|...........|...........|...........
|...........|...........|...........|...........
|...........|...........|...........|...........
|C-601v37...|G-501v37...|G-401v27...|C-401v27...
|...........|...........|...........|...........
|...........|...........|...........|...........
|...........|...........|...........|...........
|...........|...........|...........|...........
|...........|...........|...........|...........
|...........|...........|...........|...........
|...........|...........|...........|...........
|G-501v37...|B-501v37...|B-301v26...|G-401v26...
|...........|...........|...........|...........
|...........|...........|...........|...........
|...........|...........|...........|...........
|...........|...........|...........|...........
|...........|...........|...........|...........
|...........|...........|...........|...........
|...........|...........|...........|...........
|B-501v37...|G-501v37...|G-401v29...|B-301v29...
|...........|...........|...........|...........
|...........|...........|...........|...........
|...........|...........|...........|...........
|...........|...........|...........|...........
|...........|...........|...........|...........
|...........|...........|...........|...........
|...........|...........|...........|...........
|G-501v37...|B-501v37...|B-301v28...|G-401v28...
|...........|...........|...........|...........
|...........|...........|...........|...........
|...........|...........|...........|...........
|...........|...........|...........|...........
|...........|...........|...........|...........
|...........|...........|...........|...........
|...........|...........|...........|...........
|B-501v37...|G-501v37...|G-401v29...|B-301v29...
|...........|...........|...........|...........
|...........|...........|...........|...........
|...........|...........|...........|...........
|G-501v37...|B-501v37...|B-301v26...|G-401v26...
|...........|...........|...........|...........
|...........|...........|...........|...........
|...........|...........|...........|...........
|...........|...........|...........|...........
|...........|...........|...........|...........
|...........|...........|...........|...........
|...........|...........|...........|...........
ModPlug Tracker MPT
|A#501v37...|F-501v37...|F-401v29...|A#301v29...
|...........|...........|...........|...........
|...........|...........|...........|...........
|...........|...........|...........|...........
|...........|...........|...........|...........
|...........|...........|...........|...........
|...........|...........|...........|...........
|...........|...........|...........|...........
|F-501v37...|A#501v37...|A#301v27...|F-401v27...
|...........|...........|...........|...........
|...........|...........|...........|...........
|...........|...........|...........|...........
|...........|...........|...........|...........
|...........|...........|...........|...........
|...........|...........|...........|...........
|...........|...........|...........|...........
|A#501v37...|F-501v37...|F-401v29...|A#301v29...
|...........|...........|...........|...........
|...........|...........|...........|...........
|...........|...........|...........|...........
|A#501v37...|F-501v37...|F-401v27...|A#301v27...
|...........|...........|...........|...........
|...........|...........|...........|...........
|...........|...........|...........|...........
|...........|...........|...........|...........
|...........|...........|...........|...........
|...........|...........|...........|...........
|...........|...........|...........|...........
|F-501v37...|A#501v37...|A#301v30...|F-401v30...
|...........|...........|...........|...........
|...........|...........|...........|...........
|...........|...........|...........|...........
|...........|...........|...........|...........
|...........|...........|...........|...........
|...........|...........|...........|...........
|...........|...........|...........|...........
|A#501v37...|F-501v37...|F-401v31...|A#301v31...
|...........|...........|...........|...........
|...........|...........|...........|...........
|...........|...........|...........|...........
|...........|...........|...........|...........
|...........|...........|...........|...........
|...........|...........|...........|...........
|...........|...........|...........|...........
|F-501v37...|A#501v37...|A#301v27...|F-401v27...
|...........|...........|...........|...........
|...........|...........|...........|...........
|...........|...........|...........|...........
|...........|...........|...........|...........
|...........|...........|...........|...........
|...........|...........|...........|...........
|...........|...........|...........|...........
|A#501v37...|F-501v37...|F-401v29...|A#301v29...
|...........|...........|...........|...........
|...........|...........|...........|...........
|...........|...........|...........|...........
|F-501v37...|A#501v37...|A#301v32...|F-401v32...
|...........|...........|...........|...........
|...........|...........|...........|...........
|...........|...........|...........|...........
|...........|...........|...........|...........
|...........|...........|...........|...........
|...........|...........|...........|...........
|...........|...........|...........|...........
|C-601v37...|G-501v37...|G-401v29...|C-401v29...
|...........|...........|...........|...........
|...........|...........|...........|...........
|...........|...........|...........|...........
|...........|...........|...........|...........
|...........|...........|...........|...........
|...........|...........|...........|...........
|...........|...........|...........|...........
|G-501v37...|C-601v37...|C-401v29...|G-401v29...
|...........|...........|...........|...........
|...........|...........|...........|...........
|...........|...........|...........|...........
|...........|...........|...........|...........
|...........|...........|...........|...........
|...........|...........|...........|...........
|...........|...........|...........|...........
|C-601v37...|G-501v37...|G-401v26...|C-401v26...
|...........|...........|...........|...........
|...........|...........|...........|...........
|...........|...........|...........|...........
|C-601v37...|G-501v37...|G-401v32...|C-401v32...
|...........|...........|...........|...........
|...........|...........|...........|...........
|...........|...........|...........|...........
|...........|...........|...........|...........
|...........|...........|...........|...........
|...........|...........|...........|...........
|...........|...........|...........|...........
|G-501v37...|C-601v37...|C-401v28...|G-401v28...
|...........|...........|...........|...........
|...........|...........|...........|...........
|...........|...........|...........|...........
|...........|...........|...........|...........
|...........|...........|...........|...........
|...........|...........|...........|...........
|...........|...........|...........|...........
|C-601v37...|G-501v37...|G-401v29...|C-401v29...
|...........|...........|...........|...........
|...........|...........|...........|...........
|...........|...........|...........|...........
|...........|...........|...........|...........
|...........|...........|...........|...........
|...........|...........|...........|...........
|...........|...........|...........|...........
|G-501v37...|C-601v37...|C-401v25...|G-401v25...
|...........|...........|...........|...........
|...........|...........|...........|...........
|...........|...........|...........|...........
|...........|...........|...........|...........
|...........|...........|...........|...........
|...........|...........|...........|...........
|...........|...........|...........|...........
|C-601v37...|G-501v37...|G-401v30...|C-401v30...
|...........|...........|...........|...........
|...........|...........|...........|...........
|...........|...........|...........|...........
|G-501v37...|C-601v37...|C-401v29...|G-401v29...
|...........|...........|...........|...........
|...........|...........|...........|...........
|...........|...........|...........|...........
|...........|...........|...........|...........
|...........|...........|...........|...........
|...........|...........|...........|...........
|...........|...........|...........|...........
ModPlug Tracker MPT
|D-601v37...|A-501v37...|A-401v28...|D-401v28...
|...........|...........|...........|...........
|...........|...........|...........|...........
|...........|...........|...........|...........
|...........|...........|...........|...........
|...........|...........|...........|...........
|...........|...........|...........|...........
|...........|...........|...........|...........
|A-501v37...|D-601v37...|D-401v26...|A-401v26...
|...........|...........|...........|...........
|...........|...........|...........|...........
|...........|...........|...........|...........
|...........|...........|...........|...........
|...........|...........|...........|...........
|...........|...........|...........|...........
|...........|...........|...........|...........
|D-601v37...|A-501v37...|A-401v32...|D-401v32...
|...........|...........|...........|...........
|...........|...........|...........|...........
|...........|...........|...........|...........
|D-601v37...|A-501v37...|A-401v29...|D-401v29...
|...........|...........|...........|...........
|...........|...........|...........|...........
|...........|...........|...........|...........
|...........|...........|...........|...........
|...........|...........|...........|...........
|...........|...........|...........|...........
|...........|...........|...........|...........
|A-501v37...|D-601v37...|D-401v31...|A-401v31...
|...........|...........|...........|...........
|...........|...........|...........|...........
|...........|...........|...........|...........
|...........|...........|...........|...........
|...........|...........|...........|...........
|...........|...........|...........|...........
|...........|...........|...........|...........
|D-601v37...|A-501v37...|A-401v27...|D-401v27...
|...........|...........|...........|...........
|...........|...........|...........|...........
|...........|...........|...........|...........
|...........|...........|...........|...........
|...........|...........|...........|...........
|...........|...........|...........|...........
|...........|...........|...........|...........
|A-501v37...|D-601v37...|D-401v30...|A-401v30...
|...........|...........|...........|...........
|...........|...........|...........|...........
|...........|...........|...........|...........
|...........|...........|...........|...........
|...........|...........|...........|...........
|...........|...........|...........|...........
|...........|...........|...........|...........
|D-601v37...|A-501v37...|A-401v29...|D-401v29...
|...........|...........|...........|...........
|...........|...........|...........|...........
|...........|...........|...........|...........
|A-501v37...|D-601v37...|D-401v24...|A-401v24...
|...........|...........|...........|...........
|...........|...........|...........|...........
|...........|...........|...........|...........
|...........|...........|...........|...........
|...........|...........|...........|...........
|...........|...........|...........|...........
|...........|...........|...........|...........
|D-601v36...|A-501v36...|A-401v29...|D-401v29...
|...........|...........|...........|...........
|...........|...........|...........|...........
|...........|...........|...........|...........
|...........|...........|...........|...........
|...........|...........|...........|...........
|...........|...........|...........|...........
|...........|...........|...........|...........
|A-501v36...|D-601v36...|D-401v29...|A-401v29...
|...........|...........|...........|...........
|...........|...........|...........|...........
|...........|...........|...........|...........
|...........|...........|...........|...........
|...........|...........|...........|...........
|...........|...........|...........|...........
|...........|...........|...........|...........
|D-601v36...|A-501v36...|A-401v29...|D-401v29...
|...........|...........|...........|...........
|...........|...........|...........|...........
|...........|...........|...........|...........
|D-601v36...|A-501v36...|A-401v30...|D-401v30...
|...........|...........|...........|...........
|...........|...........|...........|...........
|...........|...........|...........|...........
|...........|...........|...........|...........
|...........|...........|...........|...........
|...........|...........|...........|...........
|...........|...........|...........|...........
|A-501v36...|D-601v36...|D-401v29...|A-401v29...
|...........|...........|...........|...........
|...........|...........|...........|...........
|...........|...........|...........|...........
|...........|...........|...........|...........
|...........|...........|...........|...........
|...........|...........|...........|...........
|...........|...........|...........|...........
|D-601v36...|A-501v36...|A-401v27...|D-401v27...
|...........|...........|...........|...........
|...........|...........|...........|...........
|...........|...........|...........|...........
|...........|...........|...........|...........
|...........|...........|...........|...........
|...........|...........|...........|...........
|...........|...........|...........|...........
|A-501v36...|D-601v36...|D-401v26...|A-401v26...
|...........|...........|...........|...........
|...........|...........|...........|...........
|...........|...........|...........|...........
|...........|...........|...........|...........
|...........|...........|...........|...........
|...........|...........|...........|...........
|...........|...........|...........|...........
|D-601v36...|A-501v36...|A-401v28...|D-401v28...
|...........|...........|...........|...........
|...........|...........|...........|...........
|...........|...........|...........|...........
|A-501v36...|D-601v36...|D-401v25...|A-401v25...
|...........|...........|...........|...........
|...........|...........|...........|...........
|...........|...........|...........|...........
|...........|...........|...........|...........
|...........|...........|...........|...........
|...........|...........|...........|...........
|...........|...........|...........|...........
ModPlug Tracker MPT
|A#501v36...|F-501v36...|F-401v26...|A#301v26...
|...........|...........|...........|...........
|...........|...........|...........|...........
|...........|...........|...........|...........
|...........|...........|...........|...........
|...........|...........|...........|...........
|...........|...........|...........|...........
|...........|...........|...........|...........
|F-501v36...|A#501v36...|A#301v27...|F-401v27...
|...........|...........|...........|...........
|...........|...........|...........|...........
|...........|...........|...........|...........
|...........|...........|...........|...........
|...........|...........|...........|...........
|...........|...........|...........|...........
|...........|...........|...........|...........
|A#501v36...|F-501v36...|F-401v25...|A#301v25...
|...........|...........|...........|...........
|...........|...........|...........|...........
|...........|...........|...........|...........
|A#501v36...|F-501v36...|F-401v29...|A#301v29...
|...........|...........|...........|...........
|...........|...........|...........|...........
|...........|...........|...........|...........
|...........|...........|...........|...........
|...........|...........|...........|...........
|...........|...........|...........|...........
|...........|...........|...........|...........
|F-501v36...|A#501v36...|A#301v30...|F-401v30...
|...........|...........|...........|...........
|...........|...........|...........|...........
|...........|...........|...........|...........
|...........|...........|...........|...........
|...........|...........|...........|...........
|...........|...........|...........|...........
|...........|...........|...........|...........
|A#501v36...|F-501v36...|F-401v29...|A#301v29...
|...........|...........|...........|...........
|...........|...........|...........|...........
|...........|...........|...........|...........
|...........|...........|...........|...........
|...........|...........|...........|...........
|...........|...........|...........|...........
|...........|...........|...........|...........
|F-501v36...|A#501v36...|A#301v29...|F-401v29...
|...........|...........|...........|...........
|...........|...........|...........|...........
|...........|...........|...........|...........
|...........|...........|...........|...........
|...........|...........|...........|...........
|...........|...........|...........|...........
|...........|...........|...........|...........
|A#501v36...|F-501v36...|F-401v25...|A#301v25...
|...........|...........|...........|...........
|...........|...........|...........|...........
|...........|...........|...........|...........
|F-501v36...|A#501v36...|A#301v32...|F-401v32...
|...........|...........|...........|...........
|...........|...........|...........|...........
|...........|...........|...........|...........
|...........|...........|...........|...........
|...........|...........|...........|...........
|...........|...........|...........|...........
|...........|...........|...........|...........
|C-601v36...|G-501v36...|G-401v30...|C-401v30...
|...........|...........|...........|...........
|...........|...........|...........|...........
|...........|...........|...........|...........
|...........|...........|...........|...........
|...........|...........|...........|...........
|...........|...........|...........|...........
|...........|...........|...........|...........
|G-501v36...|C-601v36...|C-401v24...|G-401v24...
|...........|...........|...........|...........
|...........|...........|...........|...........
|...........|...........|...........|...........
|...........|...........|...........|...........
|...........|...........|...........|...........
|...........|...........|...........|...........
|...........|...........|...........|...........
|C-601v36...|G-501v36...|G-401v31...|C-401v31...
|...........|...........|...........|...........
|...........|...........|...........|...........
|...........|...........|...........|...........
|C-601v36...|G-501v36...|G-401v25...|C-401v25...
|...........|...........|...........|...........
|...........|...........|...........|...........
|...........|...........|...........|...........
|...........|...........|...........|...........
|...........|...........|...........|...........
|...........|...........|...........|...........
|...........|...........|...........|...........
|G-501v36...|C-601v36...|C-401v28...|G-401v28...
|...........|...........|...........|...........
|...........|...........|...........|...........
|...........|...........|...........|...........
|...........|...........|...........|...........
|...........|...........|...........|...........
|...........|...........|...........|...........
|...........|...........|...........|...........
|C-601v36...|G-501v36...|G-401v29...|C-401v29...
|...........|...........|...........|...........
|...........|...........|...........|...........
|...........|...........|...........|...........
|...........|...........|...........|...........
|...........|...........|...........|...........
|...........|...........|...........|...........
|...........|...........|...........|...........
|G-501v36...|C-601v36...|C-401v28...|G-401v28...
|...........|...........|...........|...........
|...........|...........|...........|...........
|...........|...........|...........|...........
|...........|...........|...........|...........
|...........|...........|...........|...........
|...........|...........|...........|...........
|...........|...........|...........|...........
|C-601v36...|G-501v36...|G-401v27...|C-401v27...
|...........|...........|...........|...........
|...........|...........|...........|...........
|...........|...........|...........|...........
|G-501v36...|C-601v36...|C-401v29...|G-401v29...
|...........|...........|...........|...........
|...........|...........|...........|...........
|...........|...........|...........|...........
|...........|...........|...........|...........
|...........|...........|...........|...........
|...........|...........|...........|...........
|...........|...........|...........|...........
ModPlug Tracker MPT
|D-601v36...|A-501v36...|A-401v29...|D-401v29...
|...........|...........|...........|...........
|...........|...........|...........|...........
|...........|...........|...........|...........
|...........|...........|...........|...........
|...........|...........|...........|...........
|...........|...........|...........|...........
|...........|...........|...........|...........
|A-501v36...|D-601v36...|D-401v26...|A-401v26...
|...........|...........|...........|...........
|...........|...........|...........|...........
|...........|...........|...........|...........
|...........|...........|...........|...........
|...........|...........|...........|...........
|...........|...........|...........|...........
|...........|...........|...........|...........
|D-601v36...|A-501v36...|A-401v29...|D-401v29...
|...........|...........|...........|...........
|...........|...........|...........|...........
|...........|...........|...........|...........
|D-601v36...|A-501v36...|A-401v29...|D-401v29...
|...........|...........|...........|...........
|...........|...........|...........|...........
|...........|...........|...........|...........
|...........|...........|...........|...........
|...........|...........|...........|...........
|...........|...........|...........|...........
|...........|...........|...........|...........
|G#501v36...|C#601v36...|C#401v27...|G#401v27...
|...........|...........|...........|...........
|...........|...........|...........|...........
|...........|...........|...........|...........
|...........|...........|...........|...........
|...........|...........|...........|...........
|...........|...........|...........|...........
|...........|...........|...........|...........
|C#601v36...|G#501v36...|G#401v31...|C#401v31...
|...........|...........|...........|...........
|...........|...........|...........|...........
|...........|...........|...........|...........
|...........|...........|...........|...........
|...........|...........|...........|...........
|...........|...........|...........|...........
|...........|...........|...........|...........
|G#501v36...|C#601v36...|C#401v26...|G#401v26...
|...........|...........|...........|...........
|...........|...........|...........|...........
|...........|...........|...........|...........
|...........|...........|...........|...........
|...........|...........|...........|...........
|...........|...........|...........|...........
|...........|...........|...........|...........
|C#601v36...|G#501v36...|G#401v29...|C#401v29...
|...........|...........|...........|...........
|...........|...........|...........|...........
|...........|...........|...........|...........
|G#501v36...|C#601v36...|C#401v30...|G#401v30...
|...........|...........|...........|...........
|...........|...........|...........|...........
|...........|...........|...........|...........
|...........|...........|...........|...........
|...........|...........|...........|...........
|...........|...........|...........|...........
|...........|...........|...........|...........
|C-601v36...|G-501v36...|G-401v26...|C-401v26...
|...........|...........|...........|...........
|...........|...........|...........|...........
|...........|...........|...........|...........
|...........|...........|...........|...........
|...........|...........|...........|...........
|...........|...........|...........|...........
|...........|...........|...........|...........
|G-501v36...|C-601v36...|C-401v29...|G-401v29...
|...........|...........|...........|...........
|...........|...........|...........|...........
|...........|...........|...........|...........
|...........|...........|...........|...........
|...........|...........|...........|...........
|...........|...........|...........|...........
|...........|...........|...........|...........
|C-601v36...|G-501v36...|G-401v29...|C-401v29...
|...........|...........|...........|...........
|...........|...........|...........|...........
|...........|...........|...........|...........
|C-601v36...|G-501v36...|G-401v27...|C-401v27...
|...........|...........|...........|...........
|...........|...........|...........|...........
|...........|...........|...........|...........
|...........|...........|...........|...........
|...........|...........|...........|...........
|...........|...........|...........|...........
|...........|...........|...........|...........
|G-501v36...|B-501v36...|B-301v25...|G-401v25...
|...........|...........|...........|...........
|...........|...........|...........|...........
|...........|...........|...........|...........
|...........|...........|...........|...........
|...........|...........|...........|...........
|...........|...........|...........|...........
|...........|...........|...........|...........
|B-501v36...|G-501v36...|G-401v28...|B-301v28...
|...........|...........|...........|...........
|...........|...........|...........|...........
|...........|...........|...........|...........
|...........|...........|...........|...........
|...........|...........|...........|...........
|...........|...........|...........|...........
|...........|...........|...........|...........
|G-501v36...|B-501v36...|B-301v28...|G-401v28...
|...........|...........|...........|...........
|...........|...........|...........|...........
|...........|...........|...........|...........
|...........|...........|...........|...........
|...........|...........|...........|...........
|...........|...........|...........|...........
|...........|...........|...........|...........
|B-501v36...|G-501v36...|G-401v29...|B-301v29...
|...........|...........|...........|...........
|...........|...........|...........|...........
|...........|...........|...........|...........
|G-501v36...|B-501v36...|B-301v27...|G-401v27...
|...........|...........|...........|...........
|...........|...........|...........|...........
|...........|...........|...........|...........
|...........|...........|...........|...........
|...........|...........|...........|...........
|...........|...........|...........|...........
|...........|...........|...........|...........
ModPlug Tracker MPT
|A#501v36...|F-501v36...|F-401v27...|A#301v27...
|...........|...........|...........|...........
|...........|...........|...........|...........
|...........|...........|...........|...........
|...........|...........|...........|...........
|...........|...........|...........|...........
|...........|...........|...........|...........
|...........|...........|...........|...........
|F-501v36...|A#501v36...|A#301v29...|F-401v29...
|...........|...........|...........|...........
|...........|...........|...........|...........
|...........|...........|...........|...........
|...........|...........|...........|...........
|...........|...........|...........|...........
|...........|...........|...........|...........
|...........|...........|...........|...........
|A#501v36...|F-501v36...|F-401v27...|A#301v27...
|...........|...........|...........|...........
|...........|...........|...........|...........
|...........|...........|...........|...........
|A#501v36...|F-501v36...|F-401v28...|A#301v28...
|...........|...........|...........|...........
|...........|...........|...........|...........
|...........|...........|...........|...........
|...........|...........|...........|...........
|...........|...........|...........|...........
|...........|...........|...........|...........
|...........|...........|...........|...........
|F-501v36...|A#501v36...|A#301v25...|F-401v25...
|...........|...........|...........|...........
|...........|...........|...........|...........
|...........|...........|...........|...........
|...........|...........|...........|...........
|...........|...........|...........|...........
|...........|...........|...........|...........
|...........|...........|...........|...........
|A#501v36...|F-501v36...|F-401v27...|A#301v27...
|...........|...........|...........|...........
|...........|...........|...........|...........
|...........|...........|...........|...........
|...........|...........|...........|...........
|...........|...........|...........|...........
|...........|...........|...........|...........
|...........|...........|...........|...........
|F-501v36...|A#501v36...|A#301v27...|F-401v27...
|...........|...........|...........|...........
|...........|...........|...........|...........
|...........|...........|...........|...........
|...........|...........|...........|...........
|...........|...........|...........|...........
|...........|...........|...........|...........
|...........|...........|...........|...........
|A#501v36...|F-501v36...|F-401v28...|A#301v28...
|...........|...........|...........|...........
|...........|...........|...........|...........
|...........|...........|...........|...........
|F-501v36...|A#501v36...|A#301v28...|F-401v28...
|...........|...........|...........|...........
|...........|...........|...........|...........
|...........|...........|...........|...........
|...........|...........|...........|...........
|...........|...........|...........|...........
|...........|...........|...........|...........
|...........|...........|...........|...........
|C-601v36...|G-501v36...|G-401v29...|C-401v29...
|...........|...........|...........|...........
|...........|...........|...........|...........
|...........|...........|...........|...........
|...........|...........|...........|...........
|...........|...........|...........|...........
|...........|...........|...........|...........
|...........|...........|...........|...........
|G-501v36...|C-601v36...|C-401v24...|G-401v24...
|...........|...........|...........|...........
|...........|...........|...........|...........
|...........|...........|...........|...........
|...........|...........|...........|...........
|...........|...........|...........|...........
|...........|...........|...........|...........
|...........|...........|...........|...........
|C-601v36...|G-501v36...|G-401v26...|C-401v26...
|...........|...........|...........|...........
|...........|...........|...........|...........
|...........|...........|...........|...........
|C-601v36...|G-501v36...|G-401v32...|C-401v32...
|...........|...........|...........|...........
|...........|...........|...........|...........
|...........|...........|...........|...........
|...........|...........|...........|...........
|...........|...........|...........|...........
|...........|...........|...........|...........
|...........|...........|...........|...........
|G-501v36...|C-601v36...|C-401v29...|G-401v29...
|...........|...........|...........|...........
|...........|...........|...........|...........
|...........|...........|...........|...........
|...........|...........|...........|...........
|...........|...........|...........|...........
|...........|...........|...........|...........
|...........|...........|...........|...........
|C-601v36...|G-501v36...|G-401v31...|C-401v31...
|...........|...........|...........|...........
|...........|...........|...........|...........
|...........|...........|...........|...........
|...........|...........|...........|...........
|...........|...........|...........|...........
|...........|...........|...........|...........
|...........|...........|...........|...........
|G-501v36...|C-601v36...|C-401v28...|G-401v28...
|...........|...........|...........|...........
|...........|...........|...........|...........
|...........|...........|...........|...........
|...........|...........|...........|...........
|...........|...........|...........|...........
|...........|...........|...........|...........
|...........|...........|...........|...........
|C-601v37...|G-501v37...|G-401v29...|C-401v29...
|...........|...........|...........|...........
|...........|...........|...........|...........
|...........|...........|...........|...........
|G-501v37...|C-601v37...|C-401v26...|G-401v26...
|...........|...........|...........|...........
|...........|...........|...........|...........
|...........|...........|...........|...........
|...........|...........|...........|...........
|...........|...........|...........|...........
|...........|...........|...........|...........
|...........|...........|...........|...........
ModPlug Tracker MPT
|D-501v37...|===........|A-401v27...|D-401v27...
|...........|...........|...........|...........
|...........|...........|...........|...........
|...........|...........|...........|...........
|D-501v37...|...........|...........|...........
|...........|...........|...........|...........
|...........|...........|...........|...........
|...........|...........|...........|...........
|D-601v37...|...........|D-401v27...|A-401v27...
|...........|...........|...........|...........
|...........|...........|...........|...........
|...........|...........|...........|...........
|...........|...........|...........|...........
|...........|...........|...........|...........
|...........|...........|...........|...........
|...........|...........|...........|...........
|A-501v37...|...........|A-401v25...|D-401v25...
|...........|...........|...........|...........
|...........|...........|...........|...........
|...........|...........|...........|...........
|...........|...........|A-401v23...|D-401v23...
|...........|...........|...........|...........
|...........|...........|...........|...........
|...........|...........|...........|...........
|...........|...........|...........|...........
|...........|...........|...........|...........
|...........|...........|...........|...........
|...........|...........|...........|...........
|G#501v37...|...........|D-401v31...|A-401v31...
|...........|...........|...........|...........
|...........|...........|...........|...........
|...........|...........|...........|...........
|...........|...........|...........|...........
|...........|...........|...........|...........
|...........|...........|...........|...........
|...........|...........|...........|...........
|G-501v37...|...........|A-401v30...|D-401v30...
|...........|...........|...........|...........
|...........|...........|...........|...........
|...........|...........|...........|...........
|...........|...........|...........|...........
|...........|...........|...........|...........
|...........|...........|...........|...........
|...........|...........|...........|...........
|F-501v37...|...........|D-401v27...|A-401v27...
|...........|...........|...........|...........
|...........|...........|...........|...........
|...........|...........|...........|...........
|...........|...........|...........|...........
|...........|...........|...........|...........
|...........|...........|...........|...........
|...........|...........|...........|...........
|D-501v37...|...........|A-401v25...|D-401v25...
|...........|...........|...........|...........
|...........|...........|...........|...........
|...........|...........|...........|...........
|F-501v37...|...........|D-401v29...|A-401v29...
|...........|...........|...........|...........
|...........|...........|...........|...........
|...........|...........|...........|...........
|G-501v37...|...........|...........|...........
|...........|...........|...........|...........
|...........|...........|...........|...........
|...........|...........|...........|...........
|D-501v37...|...........|A-401v28...|D-401v28...
|...........|...........|...........|...........
|...........|...........|...........|...........
|...........|...........|...........|...........
|D-501v37...|...........|...........|...........
|...........|...........|...........|...........
|...........|...........|...........|...........
|...........|...........|...........|...........
|D-601v37...|...........|D-401v27...|A-401v27...
|...........|...........|...........|...........
|...........|...........|...........|...........
|...........|...........|...........|...........
|...........|...........|...........|...........
|...........|...........|...........|...........
|...........|...........|...........|...........
|...........|...........|...........|...........
|A-501v37...|...........|A-401v25...|D-401v25...
|...........|...........|...........|...........
|...........|...........|...........|...........
|...........|...........|...........|...........
|...........|...........|A-401v32...|D-401v32...
|...........|...........|...........|...........
|...........|...........|...........|...........
|...........|...........|...........|...........
|...........|...........|...........|...........
|...........|...........|...........|...........
|...........|...........|...........|...........
|...........|...........|...........|...........
|G#501v37...|...........|D-401v31...|A-401v31...
|...........|...........|...........|...........
|...........|...........|...........|...........
|...........|...........|...........|...........
|...........|...........|...........|...........
|...........|...........|...........|...........
|...........|...........|...........|...........
|...........|...........|...........|...........
|G-501v37...|...........|A-401v30...|D-401v30...
|...........|...........|...........|...........
|...........|...........|...........|...........
|...........|...........|...........|...........
|...........|...........|...........|...........
|...........|...........|...........|...........
|...........|...........|...........|...........
|...........|...........|...........|...........
|F-501v37...|...........|D-401v24...|A-401v24...
|...........|...........|...........|...........
|...........|...........|...........|...........
|...........|...........|...........|...........
|...........|...........|...........|...........
|...........|...........|...........|...........
|...........|...........|...........|...........
|...........|...........|...........|...........
|D-501v37...|...........|A-401v27...|D-401v27...
|...........|...........|...........|...........
|...........|...........|...........|...........
|...........|...........|...........|...........
|F-501v37...|...........|D-401v26...|A-401v26...
|...........|...........|...........|...........
|...........|...........|...........|...........
|...........|...........|...........|...........
|G-501v37...|...........|...........|...........
|...........|...........|...........|...........
|...........|...........|...........|...........
|...........|...........|...........|...........
ModPlug Tracker MPT
|A#401v37...|...........|===........|===........
|...........|...........|...........|...........
|...........|...........|...........|...........
|...........|...........|...........|...........
|A#401v37...|...........|...........|...........
|...........|...........|...........|...........
|...........|...........|...........|...........
|...........|...........|...........|...........
|D-601v37...|...........|...........|...........
|...........|...........|...........|...........
|...........|...........|...........|...........
|...........|...........|...........|...........
|...........|...........|...........|...........
|...........|...........|...........|...........
|...........|...........|...........|...........
|...........|...........|...........|...........
|A-501v37...|...........|...........|...........
|...........|...........|...........|...........
|...........|...........|...........|...........
|...........|...........|...........|...........
|...........|...........|...........|...........
|...........|...........|...........|...........
|...........|...........|...........|...........
|...........|...........|...........|...........
|...........|...........|...........|...........
|...........|...........|...........|...........
|...........|...........|...........|...........
|...........|...........|...........|...........
|G#501v37...|...........|...........|...........
|...........|...........|...........|...........
|...........|...........|...........|...........
|...........|...........|...........|...........
|...........|...........|...........|...........
|...........|...........|...........|...........
|...........|...........|...........|...........
|...........|...........|...........|...........
|G-501v37...|...........|...........|...........
|...........|...........|...........|...........
|...........|...........|...........|...........
|...........|...........|...........|...........
|...........|...........|...........|...........
|...........|...........|...........|...........
|...........|...........|...........|...........
|...........|...........|...........|...........
|F-501v37...|...........|...........|...........
|...........|...........|...........|...........
|...........|...........|...........|...........
|...........|...........|...........|...........
|...........|...........|...........|...........
|...........|...........|...........|...........
|...........|...........|...........|...........
|...........|...........|...........|...........
|D-501v37...|...........|...........|...........
|...........|...........|...........|...........
|...........|...........|...........|...........
|...........|...........|...........|...........
|F-501v37...|...........|...........|...........
|...........|...........|...........|...........
|...........|...........|...........|...........
|...........|...........|...........|...........
|G-501v37...|...........|...........|...........
|...........|...........|...........|...........
|...........|...........|...........|...........
|...........|...........|...........|...........
|C-501v37...|...........|...........|...........
|...........|...........|...........|...........
|...........|...........|...........|...........
|...........|...........|...........|...........
|C-501v37...|...........|...........|...........
|...........|...........|...........|...........
|...........|...........|...........|...........
|...........|...........|...........|...........
|D-601v37...|...........|...........|...........
|...........|...........|...........|...........
|...........|...........|...........|...........
|...........|...........|...........|...........
|...........|...........|...........|...........
|...........|...........|...........|...........
|...........|...........|...........|...........
|...........|...........|...........|...........
|A-501v37...|...........|...........|...........
|...........|...........|...........|...........
|...........|...........|...........|...........
|...........|...........|...........|...........
|...........|...........|...........|...........
|...........|...........|...........|...........
|...........|...........|...........|...........
|...........|...........|...........|...........
|...........|...........|...........|...........
|...........|...........|...........|...........
|...........|...........|...........|...........
|...........|...........|...........|...........
|G#501v37...|...........|...........|...........
|...........|...........|...........|...........
|...........|...........|...........|...........
|...........|...........|...........|...........
|...........|...........|...........|...........
|...........|...........|...........|...........
|...........|...........|...........|...........
|...........|...........|...........|...........
|G-501v37...|...........|...........|...........
|...........|...........|...........|...........
|...........|...........|...........|...........
|...........|...........|...........|...........
|...........|...........|...........|...........
|...........|...........|...........|...........
|...........|...........|...........|...........
|...........|...........|...........|...........
|F-501v37...|...........|...........|...........
|...........|...........|...........|...........
|...........|...........|...........|...........
|...........|...........|...........|...........
|...........|...........|...........|...........
|...........|...........|...........|...........
|...........|...........|...........|...........
|...........|...........|...........|...........
|D-501v37...|...........|...........|...........
|...........|...........|...........|...........
|...........|...........|...........|...........
|...........|...........|...........|...........
|F-501v37...|...........|...........|...........
|...........|...........|...........|...........
|...........|...........|...........|...........
|...........|...........|...........|...........
|G-501v37...|...........|...........|...........
|...........|...........|...........|...........
|...........|...........|...........|...........
|...........|...........|...........|...........
