!channels=1+5+15+30
!octaves=1+0+0+0

ModPlug Tracker MPT
|...........|...........|===.....SD4|...........|...........|...........|...........|...........|...........|...........|...........|...........|...........|...........|===.....SD4|...........|...........|...........|...........|...........|...........|...........|...........|...........|...........|...........|...........|...........|...........|===.....SD4|...........|...........|...........|...........|...........|...........|...........|...........|...........|...........|...........|...........|...........|...........
|...........|...........|C-604v59SD2|...........|...........|...........|...........|...........|...........|...........|...........|...........|...........|...........|C-707v59SD2|...........|...........|...........|...........|...........|...........|...........|...........|...........|...........|...........|...........|...........|...........|C-609v48SD2|...........|...........|...........|...........|...........|...........|...........|...........|...........|...........|...........|...........|...........|...........
|...........|...........|===.....SD4|...........|...........|...........|...........|...........|...........|...........|...........|...........|...........|...........|===.....SD4|...........|...........|...........|...........|...........|...........|...........|...........|...........|...........|...........|...........|...........|...........|===.....SD4|...........|...........|...........|...........|...........|...........|...........|...........|...........|...........|...........|...........|...........|...........
|...........|...........|G-504v59SD2|...........|...........|...........|...........|...........|...........|...........|...........|...........|...........|...........|G-607v59SD2|...........|...........|...........|...........|...........|...........|...........|...........|F#312v42SD2|...........|...........|...........|...........|...........|G-509v48SD2|...........|...........|...........|...........|...........|...........|...........|...........|...........|...........|...........|...........|...........|...........
|...........|...........|===.....SD4|...........|...........|...........|...........|...........|...........|...........|...........|...........|...........|...........|===.....SD4|...........|...........|...........|...........|...........|...........|...........|...........|...........|...........|...........|...........|...........|...........|===.....SD4|...........|...........|...........|...........|...........|...........|...........|...........|...........|...........|...........|...........|...........|...........
|...........|...........|D#604v59SD2|...........|...........|...........|...........|...........|...........|...........|...........|...........|...........|...........|D#707v59SD2|...........|...........|...........|...........|...........|...........|...........|...........|F#312v42SD2|...........|...........|...........|...........|...........|D#609v48SD2|...........|...........|...........|...........|...........|...........|...........|...........|...........|...........|...........|...........|...........|...........
|...........|...........|===.....SD4|...........|...........|...........|...........|...........|...........|...........|...........|...........|...........|...........|===.....SD4|...........|...........|...........|...........|...........|...........|...........|...........|...........|...........|...........|...........|...........|...........|===.....SD4|...........|...........|...........|...........|...........|...........|...........|...........|...........|...........|...........|...........|...........|...........
|...........|...........|C-604v59SD2|...........|...........|...........|...........|...........|...........|...........|...........|...........|...........|...........|C-707v59SD2|...........|...........|...........|...........|...........|...........|...........|...........|E-313v64SD2|...........|...........|...........|...........|...........|C-609v48SD2|...........|...........|...........|...........|...........|...........|...........|...........|...........|...........|...........|...........|...........|...........
|...........|...........|===.....SD4|...........|...........|...........|...........|...........|...........|...........|...........|...........|...........|...........|===.....SD4|...........|...........|...........|...........|...........|...........|...........|...........|...........|...........|...........|...........|...........|...........|===.....SD4|...........|...........|...........|...........|...........|...........|...........|...........|...........|...........|...........|...........|...........|...........
|...........|...........|G-504v59SD2|...........|...........|...........|...........|...........|...........|...........|...........|...........|...........|...........|G-607v59SD2|...........|...........|...........|...........|...........|...........|...........|...........|...........|...........|...........|...........|...........|...........|G-509v48SD2|...........|...........|...........|...........|...........|...........|...........|...........|...........|...........|...........|...........|...........|...........
|===.....SD4|...........|===.....SD4|...........|...........|...........|...........|...........|...........|...........|...........|...........|...........|...........|===.....SD4|...........|...........|...........|...........|...........|...........|===.....SD4|...........|...........|...........|...........|...........|...........|...........|===.....SD4|...........|...........|...........|...........|...........|...........|...........|...........|...........|...........|...........|...........|...........|...........
|G-403v64SD2|...........|D#604v59SD2|...........|...........|...........|...........|...........|...........|...........|...........|...........|...........|...........|D#707v59SD2|...........|...........|...........|...........|...........|...........|G-408v62SD2|...........|A#314v42SD2|D-315v64SD2|...........|...........|...........|...........|D#609v48SD2|...........|...........|...........|...........|...........|...........|...........|...........|...........|...........|...........|...........|...........|...........
|...........|...........|===.....SD4|...........|...........|...........|...........|...........|...........|...........|...........|...........|...........|...........|===.....SD4|...........|...........|...........|...........|...........|...........|...........|...........|...........|...........|...........|...........|...........|...........|===.....SD4|...........|...........|...........|...........|...........|...........|...........|...........|...........|...........|...........|...........|...........|...........
|...........|...........|C-604v59SD2|...........|...........|...........|...........|...........|...........|...........|...........|...........|...........|...........|C-707v59SD2|...........|...........|...........|...........|...........|...........|...........|...........|D-315v64SD2|...........|...........|...........|...........|...........|C-609v48SD2|...........|...........|...........|...........|...........|...........|...........|...........|...........|...........|...........|...........|...........|...........
|...........|...........|===.....SD4|...........|...........|...........|...........|...........|...........|...........|...........|...........|...........|...........|===.....SD4|...........|...........|...........|...........|...........|...........|...........|...........|...........|...........|...........|...........|...........|...........|===.....SD4|...........|...........|...........|...........|...........|...........|...........|...........|...........|...........|...........|...........|...........|...........
|...........|...........|G-504v59SD2|...........|...........|...........|...........|...........|...........|...........|...........|...........|...........|...........|G-607v59SD2|...........|...........|...........|...........|...........|...........|...........|...........|F#312v42SD2|...........|...........|...........|...........|...........|G-509v48SD2|...........|...........|...........|...........|...........|...........|...........|...........|...........|...........|...........|...........|...........|...........
|...........|...........|===.....SD4|...........|...........|...........|...........|...........|...........|...........|...........|...........|...........|...........|===.....SD4|...........|...........|...........|...........|...........|...........|...........|...........|...........|...........|...........|...........|...........|...........|===.....SD4|...........|...........|...........|...........|...........|...........|...........|...........|...........|...........|...........|...........|...........|...........
|...........|...........|D#604v59SD2|...........|...........|...........|...........|...........|...........|...........|...........|...........|...........|...........|D#707v59SD2|...........|...........|...........|...........|...........|...........|...........|...........|...........|...........|...........|...........|...........|...........|D#609v48SD2|...........|...........|...........|...........|...........|...........|...........|...........|...........|...........|...........|...........|...........|...........
|...........|...........|===.....SD4|...........|...........|...........|...........|...........|...........|...........|...........|...........|...........|...........|===.....SD4|...........|...........|...........|...........|...........|...........|...........|...........|...........|...........|...........|...........|...........|...........|===.....SD4|...........|...........|...........|...........|...........|...........|...........|...........|...........|...........|...........|...........|...........|...........
|C-503v64SD2|...........|C-604v59SD2|...........|...........|...........|...........|...........|...........|...........|...........|...........|...........|...........|C-707v59SD2|...........|...........|...........|...........|...........|...........|C-508v62SD2|...........|A#314v42SD2|C-302v64SD2|...........|...........|...........|...........|C-609v48SD2|...........|...........|...........|...........|...........|...........|...........|...........|...........|...........|...........|...........|...........|...........
|...........|...........|===.....SD4|...........|...........|...........|...........|...........|...........|...........|...........|...........|...........|...........|===.....SD4|...........|...........|...........|...........|...........|...........|...........|...........|...........|...........|...........|...........|...........|...........|===.....SD4|...........|...........|...........|...........|...........|...........|...........|...........|...........|...........|...........|...........|...........|...........
|...........|...........|G-504v59SD2|...........|...........|...........|...........|...........|...........|...........|...........|...........|...........|...........|G-607v59SD2|...........|...........|...........|...........|...........|...........|...........|...........|F#312v42SD2|...........|...........|...........|...........|...........|G-509v48SD2|...........|...........|...........|...........|...........|...........|...........|...........|...........|...........|...........|...........|...........|...........
|...........|...........|===.....SD4|...........|...........|...........|...........|...........|...........|...........|...........|...........|...........|...........|===.....SD4|...........|...........|...........|...........|...........|...........|...........|...........|...........|...........|...........|...........|...........|...........|===.....SD4|...........|...........|...........|...........|...........|...........|...........|...........|...........|...........|...........|...........|...........|...........
|D-403v64SD2|...........|F-504v37SD2|A#504v37SD2|D-604v59SD2|F-505v64SD2|D-605v64SD2|...........|...........|F-406v44SD2|D-506v44SD2|...........|...........|...........|F-607v37SD2|A#607v37SD2|D-707v59SD2|...........|...........|...........|...........|D-408v62SD2|...........|D#416v64SD2|A#314v64SD2|C-302v64SD2|...........|...........|...........|F-509v31SD2|A#509v31SD2|D-609v48SD2|...........|...........|...........|...........|F-510v64SD2|D-610v64SD2|...........|...........|F-411v33SD2|D-511v33SD2|...........|...........
|...........|...........|...........|...........|...........|...........|...........|...........|...........|...........|...........|...........|...........|...........|...........|...........|...........|...........|...........|...........|...........|...........|...........|...........|...........|...........|...........|...........|...........|...........|...........|...........|...........|...........|...........|...........|...........|...........|...........|...........|...........|...........|...........|...........
|...........|...........|===.....SD2|===.....SD2|===.....SD2|...........|...........|...........|...........|...........|...........|...........|...........|...........|===.....SD2|===.....SD2|===.....SD2|...........|...........|...........|...........|...........|...........|...........|...........|...........|...........|...........|...........|===.....SD2|===.....SD2|===.....SD2|...........|...........|...........|...........|...........|...........|...........|...........|...........|...........|...........|...........
|...........|...........|...........|...........|...........|...........|...........|...........|...........|...........|...........|...........|...........|...........|...........|...........|...........|...........|...........|...........|...........|...........|...........|...........|...........|...........|...........|...........|...........|...........|...........|...........|...........|...........|...........|...........|...........|...........|...........|...........|...........|...........|...........|...........
|...........|...........|...........|...........|...........|===.....SD1|===.....SD1|...........|...........|===.....SD1|===.....SD1|...........|...........|...........|...........|...........|...........|...........|...........|...........|...........|...........|...........|F#312v42SD2|D-315v64SD2|...........|...........|...........|...........|...........|...........|...........|...........|...........|...........|...........|===.....SD1|===.....SD1|...........|...........|===.....SD1|===.....SD1|...........|...........
|...........|...........|F-504v37SD4|A#504v37SD4|D-604v59SD4|F-505v64SD4|D-605v64SD4|...........|...........|F-406v44SD4|D-506v44SD4|...........|...........|...........|F-607v37SD4|A#607v37SD4|D-707v59SD4|...........|...........|...........|...........|...........|...........|...........|...........|...........|...........|...........|...........|F-509v31SD4|A#509v31SD4|D-609v48SD4|...........|...........|...........|...........|F-510v64SD4|D-610v64SD4|...........|...........|F-411v33SD4|D-511v33SD4|...........|...........
|...........|...........|...........|...........|...........|...........|...........|...........|...........|...........|...........|...........|...........|...........|...........|...........|...........|...........|...........|...........|...........|...........|...........|C-302v64SD2|D#416v64SD2|F#312v42SD2|...........|...........|...........|...........|...........|...........|...........|...........|...........|...........|...........|...........|...........|...........|...........|...........|...........|...........
|...........|...........|===.....SD4|===.....SD4|===.....SD4|...........|...........|...........|...........|...........|...........|...........|...........|...........|===.....SD4|===.....SD4|===.....SD4|...........|...........|...........|...........|...........|...........|...........|...........|...........|...........|...........|...........|===.....SD4|===.....SD4|===.....SD4|...........|...........|...........|...........|...........|...........|...........|...........|...........|...........|...........|...........
|D-403v64SD2|...........|...........|...........|...........|...........|...........|...........|...........|...........|...........|...........|...........|...........|...........|...........|...........|...........|...........|...........|...........|D-408v62SD2|...........|E-313v64SD2|...........|...........|...........|...........|...........|...........|...........|...........|...........|...........|...........|...........|...........|...........|...........|...........|...........|...........|...........|...........
|...........|...........|...........|...........|...........|===.....SD3|===.....SD3|...........|...........|===.....SD3|===.....SD3|...........|...........|...........|...........|...........|...........|...........|...........|...........|...........|...........|...........|...........|...........|...........|...........|...........|...........|...........|...........|...........|...........|...........|...........|...........|===.....SD3|===.....SD3|...........|...........|===.....SD3|===.....SD3|...........|...........
|...........|...........|...........|...........|...........|...........|...........|...........|...........|...........|...........|...........|...........|...........|...........|...........|...........|...........|...........|...........|...........|...........|...........|C-302v64SD2|...........|...........|...........|...........|...........|...........|...........|...........|...........|...........|...........|...........|...........|...........|...........|...........|...........|...........|...........|...........
|...........|...........|F-504v59...|A#504v37...|D-604v59...|F-505v64...|D-605v64...|...........|...........|F-406v44...|D-506v44...|...........|...........|...........|F-607v59...|A#607v37...|D-707v59...|...........|...........|...........|...........|...........|...........|...........|...........|...........|...........|...........|...........|F-509v48...|A#509v31...|D-609v48...|...........|...........|...........|...........|F-510v64...|D-610v64...|...........|...........|F-411v33...|D-511v33...|...........|...........
|...........|...........|...........|...........|...........|...........|...........|...........|...........|...........|...........|...........|...........|...........|...........|...........|...........|...........|...........|...........|...........|...........|...........|D#416v64SD2|A#314v42SD2|D-315v64SD2|...........|...........|...........|...........|...........|...........|...........|...........|...........|...........|...........|...........|...........|...........|...........|...........|...........|...........
|...........|...........|...........|...........|...........|...........|...........|...........|...........|...........|...........|...........|...........|...........|...........|...........|...........|...........|...........|...........|...........|...........|...........|...........|...........|...........|...........|...........|...........|...........|...........|...........|...........|...........|...........|...........|...........|...........|...........|...........|...........|...........|...........|...........
|...........|...........|===........|===........|===........|===.....SD5|===.....SD5|...........|...........|===.....SD5|===.....SD5|...........|...........|...........|===........|===........|===........|...........|...........|...........|...........|...........|...........|D-315v64SD2|...........|...........|...........|...........|...........|===........|===........|===........|...........|...........|...........|...........|===.....SD5|===.....SD5|...........|...........|===.....SD5|===.....SD5|...........|...........
|...........|...........|...........|...........|...........|...........|...........|...........|...........|...........|...........|...........|...........|...........|...........|...........|...........|...........|...........|...........|...........|...........|...........|...........|...........|...........|...........|...........|...........|...........|...........|...........|...........|...........|...........|...........|...........|...........|...........|...........|...........|...........|...........|...........
|C-403v64SD2|...........|D#604v59SD2|...........|...........|D#605v64SD2|...........|...........|...........|C-406v44SD2|G-406v64SD2|...........|...........|...........|D#707v59SD2|...........|...........|...........|...........|...........|...........|C-408v62SD2|...........|C#401v64SD2|...........|...........|...........|...........|...........|D#609v48SD2|...........|...........|...........|...........|...........|...........|D#610v62SD2|...........|...........|...........|C-411v33SD2|G-411v33SD2|...........|...........
|...........|...........|===.....SD4|...........|...........|===.....SD4|...........|...........|...........|...........|...........|...........|...........|...........|===.....SD4|...........|...........|...........|...........|...........|...........|...........|...........|...........|...........|...........|...........|...........|...........|===.....SD4|...........|...........|...........|...........|...........|...........|===.....SD4|...........|...........|...........|...........|...........|...........|...........
|...........|...........|C-604v59SD2|...........|...........|C-605v64SD2|...........|...........|...........|...........|...........|...........|...........|...........|C-707v59SD2|...........|...........|...........|...........|...........|...........|...........|...........|...........|...........|...........|...........|...........|...........|C-609v48SD2|...........|...........|...........|...........|...........|...........|C-610v62SD2|...........|...........|...........|...........|...........|...........|...........
|...........|...........|===.....SD4|...........|...........|===.....SD4|...........|...........|...........|...........|...........|...........|...........|...........|===.....SD4|...........|...........|...........|...........|...........|...........|...........|...........|...........|...........|...........|...........|...........|...........|===.....SD4|...........|...........|...........|...........|...........|...........|===.....SD4|...........|...........|...........|...........|...........|...........|...........
|...........|...........|G-504v59SD2|...........|...........|G-505v64SD2|...........|...........|...........|...........|...........|...........|...........|...........|G-607v59SD2|...........|...........|...........|...........|...........|...........|...........|...........|C-302v64SD2|F#312v42SD2|...........|...........|...........|...........|G-509v48SD2|...........|...........|...........|...........|...........|...........|G-510v62SD2|...........|...........|...........|...........|...........|...........|...........
|...........|...........|===.....SD4|...........|...........|===.....SD4|...........|...........|...........|...........|...........|...........|...........|...........|===.....SD4|...........|...........|...........|...........|...........|...........|...........|...........|...........|...........|...........|...........|...........|...........|===.....SD4|...........|...........|...........|...........|...........|...........|===.....SD4|...........|...........|...........|...........|...........|...........|...........
|...........|...........|D#604v59SD2|...........|...........|D#605v64SD2|...........|...........|...........|...........|...........|...........|...........|...........|D#707v59SD2|...........|...........|...........|...........|...........|...........|...........|...........|C-302v64SD2|F#312v42SD2|...........|...........|...........|...........|D#609v48SD2|...........|...........|...........|...........|...........|...........|D#610v62SD2|...........|...........|...........|...........|...........|...........|...........
|...........|...........|===.....SD4|...........|...........|===.....SD4|...........|...........|...........|...........|...........|...........|...........|...........|===.....SD4|...........|...........|...........|...........|...........|...........|...........|...........|...........|...........|...........|...........|...........|...........|===.....SD4|...........|...........|...........|...........|...........|...........|===.....SD4|...........|...........|...........|...........|...........|...........|...........
|...........|...........|C-604v59SD2|...........|...........|C-605v64SD2|...........|...........|...........|...........|...........|...........|...........|...........|C-707v59SD2|...........|...........|...........|...........|...........|...........|...........|...........|E-313v64SD2|...........|...........|...........|...........|...........|C-609v48SD2|...........|...........|...........|...........|...........|...........|C-610v62SD2|...........|...........|...........|...........|...........|...........|...........
|...........|...........|===.....SD4|...........|...........|===.....SD4|...........|...........|...........|...........|...........|...........|...........|...........|===.....SD4|...........|...........|...........|...........|...........|...........|...........|...........|...........|...........|...........|...........|...........|...........|===.....SD4|...........|...........|...........|...........|...........|...........|===.....SD4|...........|...........|...........|...........|...........|...........|...........
|...........|...........|G-504v59SD2|...........|...........|G-505v64SD2|...........|...........|...........|...........|...........|...........|...........|...........|G-607v59SD2|...........|...........|...........|...........|...........|...........|...........|...........|...........|...........|...........|...........|...........|...........|G-509v48SD2|...........|...........|...........|...........|...........|...........|G-510v62SD2|...........|...........|...........|...........|...........|...........|...........
|===.....SD4|...........|===.....SD4|...........|...........|===.....SD4|...........|...........|...........|...........|...........|...........|...........|...........|===.....SD4|...........|...........|...........|...........|...........|...........|===.....SD4|...........|...........|...........|...........|...........|...........|...........|===.....SD4|...........|...........|...........|...........|...........|...........|===.....SD4|...........|...........|...........|...........|...........|...........|...........
|G-403v64SD2|...........|D#604v59SD2|...........|...........|D#605v64SD2|...........|...........|...........|...........|...........|...........|...........|...........|D#707v59SD2|...........|...........|...........|...........|...........|...........|G-408v62SD2|...........|A#314v42SD2|D-315v64SD2|...........|...........|...........|...........|D#609v48SD2|...........|...........|...........|...........|...........|...........|D#610v62SD2|...........|...........|...........|...........|...........|...........|...........
|...........|...........|===.....SD4|...........|...........|===.....SD4|...........|...........|...........|...........|...........|...........|...........|...........|===.....SD4|...........|...........|...........|...........|...........|...........|...........|...........|...........|...........|...........|...........|...........|...........|===.....SD4|...........|...........|...........|...........|...........|...........|===.....SD4|...........|...........|...........|...........|...........|...........|...........
|...........|...........|C-604v59SD2|...........|...........|C-605v64SD2|...........|...........|...........|...........|...........|...........|...........|...........|C-707v59SD2|...........|...........|...........|...........|...........|...........|...........|...........|D-315v64SD2|...........|...........|...........|...........|...........|C-609v48SD2|...........|...........|...........|...........|...........|...........|C-610v62SD2|...........|...........|...........|...........|...........|...........|...........
|...........|...........|===.....SD4|...........|...........|===.....SD4|...........|...........|...........|...........|...........|...........|...........|...........|===.....SD4|...........|...........|...........|...........|...........|...........|...........|...........|...........|...........|...........|...........|...........|...........|===.....SD4|...........|...........|...........|...........|...........|...........|===.....SD4|...........|...........|...........|...........|...........|...........|...........
|...........|...........|G-504v59SD2|...........|...........|G-505v64SD2|...........|...........|...........|...........|...........|...........|...........|...........|G-607v59SD2|...........|...........|...........|...........|...........|...........|...........|...........|F#312v42SD2|...........|...........|...........|...........|...........|G-509v48SD2|...........|...........|...........|...........|...........|...........|G-510v62SD2|...........|...........|...........|...........|...........|...........|...........
|...........|...........|===.....SD4|...........|...........|===.....SD4|...........|...........|...........|...........|...........|...........|...........|...........|===.....SD4|...........|...........|...........|...........|...........|...........|...........|...........|...........|...........|...........|...........|...........|...........|===.....SD4|...........|...........|...........|...........|...........|...........|===.....SD4|...........|...........|...........|...........|...........|...........|...........
|...........|...........|D#604v59SD2|...........|...........|D#605v64SD2|...........|...........|...........|...........|...........|...........|...........|...........|D#707v59SD2|...........|...........|...........|...........|...........|...........|...........|...........|...........|...........|...........|...........|...........|...........|D#609v48SD2|...........|...........|...........|...........|...........|...........|D#610v62SD2|...........|...........|...........|...........|...........|...........|...........
|...........|...........|===.....SD4|...........|...........|===.....SD4|...........|...........|...........|...........|...........|...........|...........|...........|===.....SD4|...........|...........|...........|...........|...........|...........|...........|...........|...........|...........|...........|...........|...........|...........|===.....SD4|...........|...........|...........|...........|...........|...........|===.....SD4|...........|...........|...........|...........|...........|...........|...........
|C-503v64SD2|...........|C-604v59SD2|...........|...........|C-605v64SD2|...........|...........|...........|...........|...........|...........|...........|...........|C-707v59SD2|...........|...........|...........|...........|...........|...........|C-508v62SD2|...........|A#314v42SD2|C-302v64SD2|...........|...........|...........|...........|C-609v48SD2|...........|...........|...........|...........|...........|...........|C-610v62SD2|...........|...........|...........|...........|...........|...........|...........
|...........|...........|===.....SD4|...........|...........|===.....SD4|...........|...........|...........|...........|...........|...........|...........|...........|===.....SD4|...........|...........|...........|...........|...........|...........|...........|...........|...........|...........|...........|...........|...........|...........|===.....SD4|...........|...........|...........|...........|...........|...........|===.....SD4|...........|...........|...........|...........|...........|...........|...........
|...........|...........|G-504v59SD2|...........|...........|G-505v64SD2|...........|...........|...........|...........|...........|...........|...........|...........|G-607v59SD2|...........|...........|...........|...........|...........|...........|...........|...........|F#312v42SD2|...........|...........|...........|...........|...........|G-509v48SD2|...........|...........|...........|...........|...........|...........|G-510v62SD2|...........|...........|...........|...........|...........|...........|...........
|...........|...........|===.....SD4|...........|...........|===.....SD4|...........|...........|...........|...........|...........|...........|...........|...........|===.....SD4|...........|...........|...........|...........|...........|...........|...........|...........|...........|...........|...........|...........|...........|...........|===.....SD4|...........|...........|...........|...........|...........|...........|===.....SD4|...........|...........|...........|...........|...........|...........|...........
|F-403v64SD2|...........|G#504v37SD2|D-604v37SD2|F-604v59SD2|G#505v50SD2|D-605v50SD2|F-605v64SD2|...........|G#406v44SD2|F-506v64SD2|...........|...........|...........|G#607v37SD2|D-707v37SD2|F-707v59SD2|...........|...........|...........|...........|F-408v62SD2|...........|D-315v64SD2|D#416v64SD2|A#314v64SD2|C-302v64SD2|...........|...........|G#509v31SD2|D-609v31SD2|F-609v48SD2|...........|...........|...........|...........|G#510v40SD2|D-610v40SD2|F-610v62SD2|...........|G#411v33SD2|F-511v33SD2|...........|...........
|...........|...........|...........|...........|...........|...........|...........|...........|...........|...........|...........|...........|...........|...........|...........|...........|...........|...........|...........|...........|...........|...........|...........|...........|...........|...........|...........|...........|...........|...........|...........|...........|...........|...........|...........|...........|...........|...........|...........|...........|...........|...........|...........|...........
|...........|...........|===.....SD2|===.....SD2|===.....SD2|===.....SD2|===.....SD2|===.....SD2|...........|...........|...........|...........|...........|...........|===.....SD2|===.....SD2|===.....SD2|...........|...........|...........|...........|...........|...........|D-315v64SD2|...........|...........|...........|...........|...........|===.....SD2|===.....SD2|===.....SD2|...........|...........|...........|...........|===.....SD2|===.....SD2|===.....SD2|...........|...........|...........|...........|...........
|...........|...........|...........|...........|...........|...........|...........|...........|...........|...........|...........|...........|...........|...........|...........|...........|...........|...........|...........|...........|...........|...........|...........|...........|...........|...........|...........|...........|...........|...........|...........|...........|...........|...........|...........|...........|...........|...........|...........|...........|...........|...........|...........|...........
|...........|...........|...........|...........|...........|...........|...........|...........|...........|===.....SD1|===.....SD1|...........|...........|...........|...........|...........|...........|...........|...........|...........|...........|...........|...........|F#312v42SD2|D-315v64SD2|...........|...........|...........|...........|...........|...........|...........|...........|...........|...........|...........|...........|...........|...........|...........|===.....SD1|===.....SD1|...........|...........
|...........|...........|G#504v37SD4|D-604v37SD4|F-604v59SD4|G#505v50SD4|D-605v50SD4|F-605v64SD4|...........|G#406v44SD4|F-506v64SD4|...........|...........|...........|G#607v37SD4|D-707v37SD4|F-707v59SD4|...........|...........|...........|...........|...........|...........|...........|...........|...........|...........|...........|...........|G#509v31SD4|D-609v31SD4|F-609v48SD4|...........|...........|...........|...........|G#510v40SD4|D-610v40SD4|F-610v62SD4|...........|G#411v33SD4|F-511v33SD4|...........|...........
|...........|...........|...........|...........|...........|...........|...........|...........|...........|...........|...........|...........|...........|...........|...........|...........|...........|...........|...........|...........|...........|...........|...........|D-315v64SD2|C-302v64SD2|D#416v64SD2|F#312v42SD2|...........|...........|...........|...........|...........|...........|...........|...........|...........|...........|...........|...........|...........|...........|...........|...........|...........
|...........|...........|===.....SD4|===.....SD4|===.....SD4|===.....SD4|===.....SD4|===.....SD4|...........|...........|...........|...........|...........|...........|===.....SD4|===.....SD4|===.....SD4|...........|...........|...........|...........|...........|...........|...........|...........|...........|...........|...........|...........|===.....SD4|===.....SD4|===.....SD4|...........|...........|...........|...........|===.....SD4|===.....SD4|===.....SD4|...........|...........|...........|...........|...........
|F-403v64SD2|...........|...........|...........|...........|...........|...........|...........|...........|...........|...........|...........|...........|...........|...........|...........|...........|...........|...........|...........|...........|F-408v62SD2|...........|E-313v64SD2|...........|...........|...........|...........|...........|...........|...........|...........|...........|...........|...........|...........|...........|...........|...........|...........|...........|...........|...........|...........
|...........|...........|...........|...........|...........|...........|...........|...........|...........|===.....SD3|===.....SD3|...........|...........|...........|...........|...........|...........|...........|...........|...........|...........|...........|...........|...........|...........|...........|...........|...........|...........|...........|...........|...........|...........|...........|...........|...........|...........|...........|...........|...........|===.....SD3|===.....SD3|...........|...........
|...........|...........|...........|...........|...........|...........|...........|...........|...........|...........|...........|...........|...........|...........|...........|...........|...........|...........|...........|...........|...........|...........|...........|C-302v64SD2|...........|...........|...........|...........|...........|...........|...........|...........|...........|...........|...........|...........|...........|...........|...........|...........|...........|...........|...........|...........
|...........|...........|G#504v59...|D-604v37...|F-604v59...|G#505v64...|D-605v50...|F-605v64X28|...........|G#406v44...|F-506v64...|...........|...........|...........|G#607v59...|D-707v37...|F-707v59...|...........|...........|...........|...........|...........|...........|...........|...........|...........|...........|...........|...........|G#509v48...|D-609v31...|F-609v48...|...........|...........|...........|...........|G#510v62...|D-610v40...|F-610v62X02|...........|G#411v33...|F-511v33...|...........|...........
|...........|...........|...........|...........|...........|...........|...........|...........|...........|...........|...........|...........|...........|...........|...........|...........|...........|...........|...........|...........|...........|...........|...........|D#416v64SD2|A#314v42SD2|D-315v64SD2|...........|...........|...........|...........|...........|...........|...........|...........|...........|...........|...........|...........|...........|...........|...........|...........|...........|...........
|...........|...........|...........|...........|...........|...........|...........|...........|...........|...........|...........|...........|...........|...........|...........|...........|...........|...........|...........|...........|...........|...........|...........|...........|...........|...........|...........|...........|...........|...........|...........|...........|...........|...........|...........|...........|...........|...........|...........|...........|...........|...........|...........|...........
|...........|...........|===........|===........|===........|===........|===........|===........|...........|===.....SD5|===.....SD5|...........|...........|...........|===........|===........|===........|...........|...........|...........|...........|...........|...........|D-315v64SD2|...........|...........|...........|...........|...........|===........|===........|===........|...........|...........|...........|...........|===........|===........|===........|...........|===.....SD5|===.....SD5|...........|...........
|...........|...........|...........|...........|...........|...........|...........|...........|...........|...........|...........|...........|...........|...........|...........|...........|...........|...........|...........|...........|...........|...........|...........|...........|...........|...........|...........|...........|...........|...........|...........|...........|...........|...........|...........|...........|...........|...........|...........|...........|...........|...........|...........|...........
|G#303v64SD2|...........|D#604v59SD2|...........|...........|G#605v64SD2|D#705v64SD2|...........|...........|C-506v44SD2|G-506v64SD2|...........|...........|...........|D#707v59SD2|...........|...........|...........|...........|...........|...........|G#308v62SD2|...........|C#401v64SD2|C-302v64SD2|...........|...........|...........|...........|D#609v48SD2|...........|...........|...........|...........|...........|...........|G#610v64SD2|D#710v64SD2|...........|...........|C-511v33SD2|G-511v33SD2|...........|...........
|...........|...........|===.....SD4|...........|...........|...........|...........|...........|...........|...........|...........|...........|...........|...........|===.....SD4|...........|...........|...........|...........|...........|...........|...........|...........|...........|...........|...........|...........|...........|...........|===.....SD4|...........|...........|...........|...........|...........|...........|...........|...........|...........|...........|...........|...........|...........|...........
|...........|...........|C-604v59SD2|...........|...........|...........|...........|...........|...........|...........|...........|...........|...........|...........|C-707v59SD2|...........|...........|...........|...........|...........|...........|...........|...........|...........|...........|...........|...........|...........|...........|C-609v48SD2|...........|...........|...........|...........|...........|...........|...........|...........|...........|...........|...........|...........|...........|...........
|...........|...........|===.....SD4|...........|...........|...........|...........|...........|...........|...........|...........|...........|...........|...........|===.....SD4|...........|...........|...........|...........|...........|...........|...........|...........|...........|...........|...........|...........|...........|...........|===.....SD4|...........|...........|...........|...........|...........|...........|...........|...........|...........|...........|...........|...........|...........|...........
|...........|...........|G-504v59SD2|...........|...........|...........|...........|...........|...........|...........|...........|...........|...........|...........|G-607v59SD2|...........|...........|...........|...........|...........|...........|...........|...........|F#312v42SD2|...........|...........|...........|...........|...........|G-509v48SD2|...........|...........|...........|...........|...........|...........|...........|...........|...........|...........|...........|...........|...........|...........
|...........|...........|===.....SD4|...........|...........|...........|...........|...........|...........|...........|...........|...........|...........|...........|===.....SD4|...........|...........|...........|...........|...........|...........|...........|...........|...........|...........|...........|...........|...........|...........|===.....SD4|...........|...........|...........|...........|...........|...........|...........|...........|...........|...........|...........|...........|...........|...........
|...........|...........|D#604v59SD2|...........|...........|...........|...........|...........|...........|...........|...........|...........|...........|...........|D#707v59SD2|...........|...........|...........|...........|...........|...........|...........|...........|F#312v42SD2|...........|...........|...........|...........|...........|D#609v48SD2|...........|...........|...........|...........|...........|...........|...........|...........|...........|...........|...........|...........|...........|...........
|...........|...........|===.....SD4|...........|...........|...........|...........|...........|...........|...........|...........|...........|...........|...........|===.....SD4|...........|...........|...........|...........|...........|...........|...........|...........|...........|...........|...........|...........|...........|...........|===.....SD4|...........|...........|...........|...........|...........|...........|...........|...........|...........|...........|...........|...........|...........|...........
|...........|...........|C-604v59SD2|...........|...........|...........|...........|...........|...........|...........|...........|...........|...........|...........|C-707v59SD2|...........|...........|...........|...........|...........|...........|...........|...........|E-313v64SD2|...........|...........|...........|...........|...........|C-609v48SD2|...........|...........|...........|...........|...........|...........|...........|...........|...........|...........|...........|...........|...........|...........
|...........|...........|===.....SD4|...........|...........|...........|...........|...........|...........|...........|...........|...........|...........|...........|===.....SD4|...........|...........|...........|...........|...........|...........|...........|...........|...........|...........|...........|...........|...........|...........|===.....SD4|...........|...........|...........|...........|...........|...........|...........|...........|...........|...........|...........|...........|...........|...........
|...........|...........|G-504v59SD2|...........|...........|...........|...........|...........|...........|...........|...........|...........|...........|...........|G-607v59SD2|...........|...........|...........|...........|...........|...........|...........|...........|...........|...........|...........|...........|...........|...........|G-509v48SD2|...........|...........|...........|...........|...........|...........|...........|...........|...........|...........|...........|...........|...........|...........
|===.....SD4|...........|===.....SD4|...........|...........|...........|...........|...........|...........|...........|...........|...........|...........|...........|===.....SD4|...........|...........|...........|...........|...........|...........|===.....SD4|...........|...........|...........|...........|...........|...........|...........|===.....SD4|...........|...........|...........|...........|...........|...........|...........|...........|...........|...........|...........|...........|...........|...........
|D#403v64SD2|...........|D#604v59SD2|...........|...........|...........|...........|...........|...........|...........|...........|...........|...........|...........|D#707v59SD2|...........|...........|...........|...........|...........|...........|D#408v62SD2|...........|A#314v42SD2|D-315v64SD2|...........|...........|...........|...........|D#609v48SD2|...........|...........|...........|...........|...........|...........|...........|...........|...........|...........|...........|...........|...........|...........
|...........|...........|===.....SD4|...........|...........|...........|...........|...........|...........|...........|...........|...........|...........|...........|===.....SD4|...........|...........|...........|...........|...........|...........|...........|...........|...........|...........|...........|...........|...........|...........|===.....SD4|...........|...........|...........|...........|...........|...........|...........|...........|...........|...........|...........|...........|...........|...........
|...........|...........|C-604v59SD2|...........|...........|...........|...........|...........|...........|...........|...........|...........|...........|...........|C-707v59SD2|...........|...........|...........|...........|...........|...........|...........|...........|D-315v64SD2|...........|...........|...........|...........|...........|C-609v48SD2|...........|...........|...........|...........|...........|...........|...........|...........|...........|...........|...........|...........|...........|...........
|...........|...........|===.....SD4|...........|...........|...........|...........|...........|...........|...........|...........|...........|...........|...........|===.....SD4|...........|...........|...........|...........|...........|...........|...........|...........|...........|...........|...........|...........|...........|...........|===.....SD4|...........|...........|...........|...........|...........|...........|...........|...........|...........|...........|...........|...........|...........|...........
|...........|...........|G-504v59SD2|...........|...........|...........|...........|...........|...........|...........|...........|...........|...........|...........|G-607v59SD2|...........|...........|...........|...........|...........|...........|...........|...........|F#312v42SD2|...........|...........|...........|...........|...........|G-509v48SD2|...........|...........|...........|...........|...........|...........|...........|...........|...........|...........|...........|...........|...........|...........
|...........|...........|===.....SD4|...........|...........|...........|...........|...........|...........|...........|...........|...........|...........|...........|===.....SD4|...........|...........|...........|...........|...........|...........|...........|...........|...........|...........|...........|...........|...........|...........|===.....SD4|...........|...........|...........|...........|...........|...........|...........|...........|...........|...........|...........|...........|...........|...........
|...........|...........|D#604v59SD2|...........|...........|...........|...........|...........|...........|...........|...........|...........|...........|...........|D#707v59SD2|...........|...........|...........|...........|...........|...........|...........|...........|...........|...........|...........|...........|...........|...........|D#609v48SD2|...........|...........|...........|...........|...........|...........|...........|...........|...........|...........|...........|...........|...........|...........
|...........|...........|===.....SD4|...........|...........|...........|...........|...........|...........|...........|...........|...........|...........|...........|===.....SD4|...........|...........|...........|...........|...........|...........|...........|...........|...........|...........|...........|...........|...........|...........|===.....SD4|...........|...........|...........|...........|...........|...........|...........|...........|...........|...........|...........|...........|...........|...........
|G#403v64SD2|...........|C-604v59SD2|...........|...........|...........|...........|...........|...........|...........|...........|...........|...........|...........|C-707v59SD2|...........|...........|...........|...........|...........|...........|G#408v62SD2|...........|A#314v42SD2|C-302v64SD2|...........|...........|...........|...........|C-609v48SD2|...........|...........|...........|...........|...........|...........|...........|...........|...........|...........|...........|...........|...........|...........
|...........|...........|===.....SD4|...........|...........|...........|...........|...........|...........|...........|...........|...........|...........|...........|===.....SD4|...........|...........|...........|...........|...........|...........|...........|...........|...........|...........|...........|...........|...........|...........|===.....SD4|...........|...........|...........|...........|...........|...........|...........|...........|...........|...........|...........|...........|...........|...........
|...........|...........|G-504v59SD2|...........|...........|...........|...........|...........|...........|...........|...........|...........|...........|...........|G-607v59SD2|...........|...........|...........|...........|...........|...........|...........|...........|F#312v42SD2|...........|...........|...........|...........|...........|G-509v48SD2|...........|...........|...........|...........|...........|...........|...........|...........|...........|...........|...........|...........|...........|...........
|...........|...........|===.....SD4|...........|...........|...........|...........|...........|...........|...........|...........|...........|...........|...........|===.....SD4|...........|...........|...........|...........|...........|...........|...........|...........|...........|...........|...........|...........|...........|...........|===.....SD4|...........|...........|...........|...........|...........|...........|...........|...........|...........|...........|...........|...........|...........|...........
|D-403v64SD2|...........|F-504v37SD2|A#504v37SD2|D-604v59SD2|D-605v64SD2|F-605v64SD2|...........|...........|F-506v44SD2|D-606v64SD2|...........|...........|...........|F-607v37SD2|A#607v37SD2|D-707v59SD2|...........|...........|...........|...........|D-408v62SD2|...........|D#416v64SD2|A#314v64SD2|C-302v64SD2|...........|...........|...........|F-509v31SD2|A#509v31SD2|D-609v48SD2|...........|...........|...........|...........|D-610v64SD2|F-610v64SD2|...........|...........|F-511v33SD2|D-611v33SD2|...........|...........
|...........|...........|...........|...........|...........|...........|...........|...........|...........|...........|...........|...........|...........|...........|...........|...........|...........|...........|...........|...........|...........|...........|...........|...........|...........|...........|...........|...........|...........|...........|...........|...........|...........|...........|...........|...........|...........|...........|...........|...........|...........|...........|...........|...........
|...........|...........|===.....SD2|===.....SD2|===.....SD2|...........|...........|...........|...........|...........|...........|...........|...........|...........|===.....SD2|===.....SD2|===.....SD2|...........|...........|...........|...........|...........|...........|...........|...........|...........|...........|...........|...........|===.....SD2|===.....SD2|===.....SD2|...........|...........|...........|...........|...........|...........|...........|...........|...........|...........|...........|...........
|...........|...........|...........|...........|...........|...........|...........|...........|...........|...........|...........|...........|...........|...........|...........|...........|...........|...........|...........|...........|...........|...........|...........|...........|...........|...........|...........|...........|...........|...........|...........|...........|...........|...........|...........|...........|...........|...........|...........|...........|...........|...........|...........|...........
|...........|...........|...........|...........|...........|===.....SD1|===.....SD1|...........|...........|===.....SD1|===.....SD1|...........|...........|...........|...........|...........|...........|...........|...........|...........|...........|...........|...........|F#312v42SD2|D-315v64SD2|...........|...........|...........|...........|...........|...........|...........|...........|...........|...........|...........|===.....SD1|===.....SD1|...........|...........|===.....SD1|===.....SD1|...........|...........
|...........|...........|F-504v37SD4|A#504v37SD4|D-604v59SD4|D-605v64SD4|F-605v64SD4|...........|...........|F-506v44SD4|D-606v64SD4|...........|...........|...........|F-607v37SD4|A#607v37SD4|D-707v59SD4|...........|...........|...........|...........|...........|...........|...........|...........|...........|...........|...........|...........|F-509v31SD4|A#509v31SD4|D-609v48SD4|...........|...........|...........|...........|D-610v64SD4|F-610v64SD4|...........|...........|F-511v33SD4|D-611v33SD4|...........|...........
|...........|...........|...........|...........|...........|...........|...........|...........|...........|...........|...........|...........|...........|...........|...........|...........|...........|...........|...........|...........|...........|...........|...........|C-302v64SD2|D#416v64SD2|F#312v42SD2|...........|...........|...........|...........|...........|...........|...........|...........|...........|...........|...........|...........|...........|...........|...........|...........|...........|...........
|...........|...........|===.....SD4|===.....SD4|===.....SD4|...........|...........|...........|...........|...........|...........|...........|...........|...........|===.....SD4|===.....SD4|===.....SD4|...........|...........|...........|...........|...........|...........|...........|...........|...........|...........|...........|...........|===.....SD4|===.....SD4|===.....SD4|...........|...........|...........|...........|...........|...........|...........|...........|...........|...........|...........|...........
|D-403v64SD2|...........|...........|...........|...........|...........|...........|...........|...........|...........|...........|...........|...........|...........|...........|...........|...........|...........|...........|...........|...........|D-408v62SD2|...........|E-313v64SD2|...........|...........|...........|...........|...........|...........|...........|...........|...........|...........|...........|...........|...........|...........|...........|...........|...........|...........|...........|...........
|...........|...........|...........|...........|...........|===.....SD3|===.....SD3|...........|...........|===.....SD3|===.....SD3|...........|...........|...........|...........|...........|...........|...........|...........|...........|...........|...........|...........|...........|...........|...........|...........|...........|...........|...........|...........|...........|...........|...........|...........|...........|===.....SD3|===.....SD3|...........|...........|===.....SD3|===.....SD3|...........|...........
|...........|...........|...........|...........|...........|...........|...........|...........|...........|...........|...........|...........|...........|...........|...........|...........|...........|...........|...........|...........|...........|...........|...........|C-302v64SD2|...........|...........|...........|...........|...........|...........|...........|...........|...........|...........|...........|...........|...........|...........|...........|...........|...........|...........|...........|...........
|...........|...........|F-504v59...|A#504v37...|D-604v59...|D-605v64...|F-605v64...|...........|...........|F-506v44...|D-606v64...|...........|...........|...........|F-607v59...|A#607v37...|D-707v59...|...........|...........|...........|...........|...........|...........|...........|...........|...........|...........|...........|...........|F-509v48...|A#509v31...|D-609v48...|...........|...........|...........|...........|D-610v64...|F-610v64...|...........|...........|F-511v33...|D-611v33...|...........|...........
|...........|...........|...........|...........|...........|...........|...........|...........|...........|...........|...........|...........|...........|...........|...........|...........|...........|...........|...........|...........|...........|...........|...........|D#416v64SD2|A#314v42SD2|D-315v64SD2|...........|...........|...........|...........|...........|...........|...........|...........|...........|...........|...........|...........|...........|...........|...........|...........|...........|...........
|...........|...........|...........|...........|...........|...........|...........|...........|...........|...........|...........|...........|...........|...........|...........|...........|...........|...........|...........|...........|...........|...........|...........|...........|...........|...........|...........|...........|...........|...........|...........|...........|...........|...........|...........|...........|...........|...........|...........|...........|...........|...........|...........|...........
|...........|...........|===........|===........|===........|===.....SD5|===.....SD5|...........|...........|===.....SD5|===.....SD5|...........|...........|...........|===........|===........|===........|...........|...........|...........|...........|...........|...........|D-315v64SD2|...........|...........|...........|...........|...........|===........|===........|===........|...........|...........|...........|...........|===.....SD5|===.....SD5|...........|...........|===.....SD5|===.....SD5|...........|...........
|...........|...........|...........|...........|...........|...........|...........|...........|...........|...........|...........|...........|...........|...........|...........|...........|...........|...........|...........|...........|...........|...........|...........|...........|...........|...........|...........|...........|...........|...........|...........|...........|...........|...........|...........|...........|...........|...........|...........|...........|...........|...........|...........|...........
|G#303v64SD2|...........|D#604v59SD2|...........|...........|D-605v64SD2|...........|...........|...........|C-506v44SD2|G-506v64SD2|...........|...........|...........|D#707v59SD2|...........|...........|...........|...........|...........|...........|G#308v62SD2|...........|C#401v64SD2|...........|...........|...........|...........|...........|D#609v48SD2|...........|...........|...........|...........|...........|...........|D-610v51SD2|...........|...........|...........|C-511v33SD2|G-511v33SD2|...........|...........
|...........|...........|===.....SD4|...........|...........|...........|...........|...........|...........|...........|...........|...........|...........|...........|===.....SD4|...........|...........|...........|...........|...........|...........|...........|...........|...........|...........|...........|...........|...........|...........|===.....SD4|...........|...........|...........|...........|...........|...........|...........|...........|...........|...........|...........|...........|...........|...........
|...........|...........|C-604v59SD2|...........|...........|D-605v64SD2|...........|...........|...........|...........|...........|...........|...........|...........|C-707v59SD2|...........|...........|...........|...........|...........|...........|...........|...........|...........|...........|...........|...........|...........|...........|C-609v48SD2|...........|...........|...........|...........|...........|...........|D-610v51SD2|...........|...........|...........|...........|...........|...........|...........
|...........|...........|===.....SD4|...........|...........|...........|...........|...........|...........|...........|...........|...........|...........|...........|===.....SD4|...........|...........|...........|...........|...........|...........|...........|...........|...........|...........|...........|...........|...........|...........|===.....SD4|...........|...........|...........|...........|...........|...........|...........|...........|...........|...........|...........|...........|...........|...........
|...........|...........|G-504v59SD2|...........|...........|D#605v64SD2|...........|...........|...........|...........|...........|...........|...........|...........|G-607v59SD2|...........|...........|...........|...........|...........|...........|...........|...........|C-302v64SD2|F#312v42SD2|...........|...........|...........|...........|G-509v48SD2|...........|...........|...........|...........|...........|...........|D#610v51SD2|...........|...........|...........|...........|...........|...........|...........
|...........|...........|===.....SD4|...........|...........|...........|...........|...........|...........|...........|...........|...........|...........|...........|===.....SD4|...........|...........|...........|...........|...........|...........|...........|...........|...........|...........|...........|...........|...........|...........|===.....SD4|...........|...........|...........|...........|...........|...........|...........|...........|...........|...........|...........|...........|...........|...........
|...........|...........|D#604v59SD2|...........|...........|F-605v64SD2|...........|...........|...........|...........|...........|...........|...........|...........|D#707v59SD2|...........|...........|...........|...........|...........|...........|...........|...........|C-302v64SD2|F#312v42SD2|...........|...........|...........|...........|D#609v48SD2|...........|...........|...........|...........|...........|...........|F-610v51SD2|...........|...........|...........|...........|...........|...........|...........
|...........|...........|===.....SD4|...........|...........|...........|...........|...........|...........|...........|...........|...........|...........|...........|===.....SD4|...........|...........|...........|...........|...........|...........|...........|...........|...........|...........|...........|...........|...........|...........|===.....SD4|...........|...........|...........|...........|...........|...........|...........|...........|...........|...........|...........|...........|...........|...........
|...........|...........|C-604v59SD2|...........|...........|A#605v64SD2|...........|...........|...........|...........|...........|...........|...........|...........|C-707v59SD2|...........|...........|...........|...........|...........|...........|...........|...........|E-313v64SD2|...........|...........|...........|...........|...........|C-609v48SD2|...........|...........|...........|...........|...........|...........|A#610v51SD2|...........|...........|...........|...........|...........|...........|...........


!channels=1+5+15+30
!octaves=1+0+0+0

ModPlug Tracker MPT
|...........|...........|===.....SD4|...........|...........|...........|...........|...........|...........|...........|...........|...........|...........|...........|===.....SD4|...........|...........|...........|...........|...........|...........|...........|...........|...........|...........|...........|...........|...........|...........|===.....SD4|...........|...........|...........|...........|...........|...........|...........|...........|...........|...........|...........|...........|...........|...........
|...........|...........|G-504v59SD2|...........|...........|G-605v64SD2|...........|...........|...........|...........|...........|...........|...........|...........|G-607v59SD2|...........|...........|...........|...........|...........|...........|...........|...........|...........|...........|...........|...........|...........|...........|G-509v48SD2|...........|...........|...........|...........|...........|...........|G-610v51SD2|...........|...........|...........|...........|...........|...........|...........
|===.....SD4|...........|===.....SD4|...........|...........|...........|...........|...........|...........|...........|...........|...........|...........|...........|===.....SD4|...........|...........|...........|...........|...........|...........|===.....SD4|...........|...........|...........|...........|...........|...........|...........|===.....SD4|...........|...........|...........|...........|...........|...........|...........|...........|...........|...........|...........|...........|...........|...........
|D#403v64SD2|...........|D#604v59SD2|...........|...........|D#705v64SD2|...........|...........|...........|...........|...........|...........|...........|...........|D#707v59SD2|...........|...........|...........|...........|...........|...........|D#408v62SD2|...........|A#314v42SD2|D-315v64SD2|...........|...........|...........|...........|D#609v48SD2|...........|...........|...........|...........|...........|...........|D#710v51SD2|...........|...........|...........|...........|...........|...........|...........
|...........|...........|===.....SD4|...........|...........|...........|...........|...........|...........|...........|...........|...........|...........|...........|===.....SD4|...........|...........|...........|...........|...........|...........|...........|...........|...........|...........|...........|...........|...........|...........|===.....SD4|...........|...........|...........|...........|...........|...........|...........|...........|...........|...........|...........|...........|...........|...........
|...........|...........|C-604v59SD2|...........|...........|D-705v64SD2|...........|...........|...........|...........|...........|...........|...........|...........|C-707v59SD2|...........|...........|...........|...........|...........|...........|...........|...........|D-315v64SD2|...........|...........|...........|...........|...........|C-609v48SD2|...........|...........|...........|...........|...........|...........|D-710v51SD2|...........|...........|...........|...........|...........|...........|...........
|...........|...........|===.....SD4|...........|...........|...........|...........|...........|...........|...........|...........|...........|...........|...........|===.....SD4|...........|...........|...........|...........|...........|...........|...........|...........|...........|...........|...........|...........|...........|...........|===.....SD4|...........|...........|...........|...........|...........|...........|...........|...........|...........|...........|...........|...........|...........|...........
|...........|...........|G-504v59SD2|...........|...........|F-605v64SD2|...........|...........|...........|...........|...........|...........|...........|...........|G-607v59SD2|...........|...........|...........|...........|...........|...........|...........|...........|F#312v42SD2|...........|...........|...........|...........|...........|G-509v48SD2|...........|...........|...........|...........|...........|...........|F-610v51SD2|...........|...........|...........|...........|...........|...........|...........
|...........|...........|===.....SD4|...........|...........|...........|...........|...........|...........|...........|...........|...........|...........|...........|===.....SD4|...........|...........|...........|...........|...........|...........|...........|...........|...........|...........|...........|...........|...........|...........|===.....SD4|...........|...........|...........|...........|...........|...........|...........|...........|...........|...........|...........|...........|...........|...........
|...........|...........|D#604v59SD2|...........|...........|C-705v64SD2|...........|...........|...........|...........|...........|...........|...........|...........|D#707v59SD2|...........|...........|...........|...........|...........|...........|...........|...........|...........|...........|...........|...........|...........|...........|D#609v48SD2|...........|...........|...........|...........|...........|...........|C-710v51SD2|...........|...........|...........|...........|...........|...........|...........
|...........|...........|===.....SD4|...........|...........|...........|...........|...........|...........|...........|...........|...........|...........|...........|===.....SD4|...........|...........|...........|...........|...........|...........|...........|...........|...........|...........|...........|...........|...........|...........|===.....SD4|...........|...........|...........|...........|...........|...........|...........|...........|...........|...........|...........|...........|...........|...........
|G#403v64SD2|...........|C-604v59SD2|...........|...........|D#605v64SD2|...........|...........|...........|...........|...........|...........|...........|...........|C-707v59SD2|...........|...........|...........|...........|...........|...........|G#408v62SD2|...........|A#314v42SD2|C-302v64SD2|...........|...........|...........|...........|C-609v48SD2|...........|...........|...........|...........|...........|...........|D#610v51SD2|...........|...........|...........|...........|...........|...........|...........
|...........|...........|===.....SD4|...........|...........|...........|...........|...........|...........|...........|...........|...........|...........|...........|===.....SD4|...........|...........|...........|...........|...........|...........|...........|...........|...........|...........|...........|...........|...........|...........|===.....SD4|...........|...........|...........|...........|...........|...........|...........|...........|...........|...........|...........|...........|...........|...........
|...........|...........|G-504v59SD2|...........|...........|A#605v64SD2|...........|...........|...........|...........|...........|...........|...........|...........|G-607v59SD2|...........|...........|...........|...........|...........|...........|...........|...........|F#312v42SD2|...........|...........|...........|...........|...........|G-509v48SD2|...........|...........|...........|...........|...........|...........|A#610v51SD2|...........|...........|...........|...........|...........|...........|...........
|...........|...........|===.....SD4|...........|...........|...........|...........|...........|...........|...........|...........|...........|...........|...........|===.....SD4|...........|...........|...........|...........|...........|...........|...........|...........|...........|...........|...........|...........|...........|...........|===.....SD4|...........|...........|...........|...........|...........|...........|...........|...........|...........|...........|...........|...........|...........|...........
|B-403v64SD2|...........|G#504v37SD2|D-604v37SD2|F-604v59SD2|F-605v64SD2|...........|...........|...........|G#506v64SD2|F-606v64SD2|...........|...........|...........|G#607v37SD2|D-707v37SD2|F-707v59SD2|...........|...........|...........|...........|B-408v62SD2|...........|D-315v64SD2|D#416v64SD2|A#314v64SD2|C-302v64SD2|...........|...........|G#509v31SD2|D-609v31SD2|F-609v48SD2|...........|...........|...........|...........|F-610v51SD2|...........|...........|...........|G#511v33SD2|F-611v33SD2|...........|...........
|...........|...........|...........|...........|...........|...........|...........|...........|...........|...........|...........|...........|...........|...........|...........|...........|...........|...........|...........|...........|...........|...........|...........|...........|...........|...........|...........|...........|...........|...........|...........|...........|...........|...........|...........|...........|...........|...........|...........|...........|...........|...........|...........|...........
|...........|...........|===.....SD2|===.....SD2|===.....SD2|G#605v64SD2|...........|...........|...........|...........|...........|...........|...........|...........|===.....SD2|===.....SD2|===.....SD2|...........|...........|...........|...........|...........|...........|D-315v64SD2|...........|...........|...........|...........|...........|===.....SD2|===.....SD2|===.....SD2|...........|...........|...........|...........|G#610v51SD2|...........|...........|...........|...........|...........|...........|...........
|...........|...........|...........|...........|...........|C-705v64SD2|...........|...........|...........|...........|...........|...........|...........|...........|...........|...........|...........|...........|...........|...........|...........|...........|...........|...........|...........|...........|...........|...........|...........|...........|...........|...........|...........|...........|...........|...........|C-710v51SD2|...........|...........|...........|...........|...........|...........|...........
|...........|...........|...........|...........|...........|D#705v64SD2|...........|...........|...........|===.....SD1|===.....SD1|...........|...........|...........|...........|...........|...........|...........|...........|...........|...........|...........|...........|F#312v42SD2|D-315v64SD2|...........|...........|...........|...........|...........|...........|...........|...........|...........|...........|...........|D#710v51SD2|...........|...........|...........|===.....SD1|===.....SD1|...........|...........
|...........|...........|G#504v37SD4|D-604v37SD4|F-604v59SD4|D-705v64SD2|...........|...........|...........|G#506v64SD4|F-606v64SD4|...........|...........|...........|G#607v37SD4|D-707v37SD4|F-707v59SD4|...........|...........|...........|...........|...........|...........|...........|...........|...........|...........|...........|...........|G#509v31SD4|D-609v31SD4|F-609v48SD4|...........|...........|...........|...........|D-710v51SD2|...........|...........|...........|G#511v33SD4|F-611v33SD4|...........|...........
|...........|...........|...........|...........|...........|A#605v64SD2|...........|...........|...........|...........|...........|...........|...........|...........|...........|...........|...........|...........|...........|...........|...........|...........|...........|D-315v64SD2|C-302v64SD2|D#416v64SD2|F#312v42SD2|...........|...........|...........|...........|...........|...........|...........|...........|...........|A#610v51SD2|...........|...........|...........|...........|...........|...........|...........
|...........|...........|===.....SD4|===.....SD4|===.....SD4|G-605v64SD2|...........|...........|...........|...........|...........|...........|...........|...........|===.....SD4|===.....SD4|===.....SD4|...........|...........|...........|...........|...........|...........|...........|...........|...........|...........|...........|...........|===.....SD4|===.....SD4|===.....SD4|...........|...........|...........|...........|G-610v51SD2|...........|...........|...........|...........|...........|...........|...........
|B-403v64SD2|...........|...........|...........|...........|F-605v64SD2|...........|...........|...........|...........|...........|...........|...........|...........|...........|...........|...........|...........|...........|...........|...........|B-408v62SD2|...........|E-313v64SD2|...........|...........|...........|...........|...........|...........|...........|...........|...........|...........|...........|...........|F-610v51SD2|...........|...........|...........|...........|...........|...........|...........
|...........|...........|...........|...........|...........|G-605v64SD2|...........|...........|...........|===.....SD3|===.....SD3|...........|...........|...........|...........|...........|...........|...........|...........|...........|...........|...........|...........|...........|...........|...........|...........|...........|...........|...........|...........|...........|...........|...........|...........|...........|G-610v51SD2|...........|...........|...........|===.....SD3|===.....SD3|...........|...........
|...........|...........|...........|...........|...........|D#605v64SD2|...........|...........|...........|...........|...........|...........|...........|...........|...........|...........|...........|...........|...........|...........|...........|...........|...........|C-302v64SD2|...........|...........|...........|...........|...........|...........|...........|...........|...........|...........|...........|...........|D#610v51SD2|...........|...........|...........|...........|...........|...........|...........
|...........|...........|G#504v59...|D-604v37...|F-604v59...|D-605v64SD2|...........|...........|...........|G#506v64...|F-606v64...|...........|...........|...........|G#607v59...|D-707v37...|F-707v59...|...........|...........|...........|...........|...........|...........|...........|...........|...........|...........|...........|...........|G#509v48...|D-609v31...|F-609v48...|...........|...........|...........|...........|D-610v51SD2|...........|...........|...........|G#511v33...|F-611v33...|...........|...........
|...........|...........|...........|...........|...........|A#505v64SD2|...........|...........|...........|...........|...........|...........|...........|...........|...........|...........|...........|...........|...........|...........|...........|...........|...........|D#416v64SD2|A#314v42SD2|D-315v64SD2|...........|...........|...........|...........|...........|...........|...........|...........|...........|...........|A#510v51SD2|...........|...........|...........|...........|...........|...........|...........
|...........|...........|...........|...........|...........|C-605v64SD2|...........|...........|...........|...........|...........|...........|...........|...........|...........|...........|...........|...........|...........|...........|...........|...........|...........|...........|...........|...........|...........|...........|...........|...........|...........|...........|...........|...........|...........|...........|C-610v51SD2|...........|...........|...........|...........|...........|...........|...........
|...........|...........|===........|===........|===........|G#505v64SD2|...........|...........|...........|===.....SD5|===.....SD5|...........|...........|...........|===........|===........|===........|...........|...........|...........|...........|...........|...........|D-315v64SD2|...........|...........|...........|...........|...........|===........|===........|===........|...........|...........|...........|...........|G#510v51SD2|...........|...........|...........|===.....SD5|===.....SD5|...........|...........
|...........|...........|...........|...........|...........|G-505v64SD2|...........|...........|...........|...........|...........|...........|...........|...........|...........|...........|...........|...........|...........|...........|...........|...........|...........|...........|...........|...........|...........|...........|...........|...........|...........|...........|...........|...........|...........|...........|G-510v51SD2|...........|...........|...........|...........|...........|...........|...........
|C-403v64SD2|...........|D#604v59SD2|...........|...........|G-505v64SD2|D#605v64SD2|...........|...........|C-406v44SD2|G-406v64SD2|...........|...........|...........|D#707v59SD2|...........|...........|...........|...........|...........|...........|C-408v62SD2|...........|C#401v64SD2|C-302v64SD2|...........|...........|...........|...........|D#609v48SD2|...........|...........|...........|...........|...........|...........|G-510v64SD2|D#610v64SD2|...........|...........|C-411v33SD2|G-411v33SD2|...........|...........
|...........|...........|===.....SD4|...........|...........|...........|...........|...........|...........|...........|...........|...........|...........|...........|===.....SD4|...........|...........|...........|...........|...........|...........|...........|...........|...........|...........|...........|...........|...........|...........|===.....SD4|...........|...........|...........|...........|...........|...........|...........|...........|...........|...........|...........|...........|...........|...........
|...........|...........|C-604v59SD2|...........|...........|...........|...........|...........|...........|...........|...........|...........|...........|...........|C-707v59SD2|...........|...........|...........|...........|...........|...........|...........|...........|...........|...........|...........|...........|...........|...........|C-609v48SD2|...........|...........|...........|...........|...........|...........|...........|...........|...........|...........|...........|...........|...........|...........
|...........|...........|===.....SD4|...........|...........|...........|...........|...........|...........|...........|...........|...........|...........|...........|===.....SD4|...........|...........|...........|...........|...........|...........|...........|...........|...........|...........|...........|...........|...........|...........|===.....SD4|...........|...........|...........|...........|...........|...........|...........|...........|...........|...........|...........|...........|...........|...........
|...........|...........|G-504v59SD2|...........|...........|...........|...........|...........|...........|...........|...........|...........|...........|...........|G-607v59SD2|...........|...........|...........|...........|...........|...........|...........|...........|F#312v42SD2|...........|...........|...........|...........|...........|G-509v48SD2|...........|...........|...........|...........|...........|...........|...........|...........|...........|...........|...........|...........|...........|...........
|...........|...........|===.....SD4|...........|...........|...........|...........|...........|...........|...........|...........|...........|...........|...........|===.....SD4|...........|...........|...........|...........|...........|...........|...........|...........|...........|...........|...........|...........|...........|...........|===.....SD4|...........|...........|...........|...........|...........|...........|...........|...........|...........|...........|...........|...........|...........|...........
|...........|...........|D#604v59SD2|...........|...........|...........|...........|...........|...........|...........|...........|...........|...........|...........|D#707v59SD2|...........|...........|...........|...........|...........|...........|...........|...........|F#312v42SD2|...........|...........|...........|...........|...........|D#609v48SD2|...........|...........|...........|...........|...........|...........|...........|...........|...........|...........|...........|...........|...........|...........
|...........|...........|===.....SD4|...........|...........|...........|...........|...........|...........|...........|...........|...........|...........|...........|===.....SD4|...........|...........|...........|...........|...........|...........|...........|...........|...........|...........|...........|...........|...........|...........|===.....SD4|...........|...........|...........|...........|...........|...........|...........|...........|...........|...........|...........|...........|...........|...........
|...........|...........|C-604v59SD2|...........|...........|...........|...........|...........|...........|...........|...........|...........|...........|...........|C-707v59SD2|...........|...........|...........|...........|...........|...........|...........|...........|E-313v64SD2|...........|...........|...........|...........|...........|C-609v48SD2|...........|...........|...........|...........|...........|...........|...........|...........|...........|...........|...........|...........|...........|...........
|...........|...........|===.....SD4|...........|...........|...........|...........|...........|...........|...........|...........|...........|...........|...........|===.....SD4|...........|...........|...........|...........|...........|...........|...........|...........|...........|...........|...........|...........|...........|...........|===.....SD4|...........|...........|...........|...........|...........|...........|...........|...........|...........|...........|...........|...........|...........|...........
|...........|...........|G-504v59SD2|...........|...........|...........|...........|...........|...........|...........|...........|...........|...........|...........|G-607v59SD2|...........|...........|...........|...........|...........|...........|...........|...........|...........|...........|...........|...........|...........|...........|G-509v48SD2|...........|...........|...........|...........|...........|...........|...........|...........|...........|...........|...........|...........|...........|...........
|===.....SD4|...........|===.....SD4|...........|...........|...........|...........|...........|...........|...........|...........|...........|...........|...........|===.....SD4|...........|...........|...........|...........|...........|...........|===.....SD4|...........|...........|...........|...........|...........|...........|...........|===.....SD4|...........|...........|...........|...........|...........|...........|...........|...........|...........|...........|...........|...........|...........|...........
|G-403v64SD2|...........|D#604v59SD2|...........|...........|...........|...........|...........|...........|...........|...........|...........|...........|...........|D#707v59SD2|...........|...........|...........|...........|...........|...........|G-408v62SD2|...........|A#314v42SD2|D-315v64SD2|...........|...........|...........|...........|D#609v48SD2|...........|...........|...........|...........|...........|...........|...........|...........|...........|...........|...........|...........|...........|...........
|...........|...........|===.....SD4|...........|...........|...........|...........|...........|...........|...........|...........|...........|...........|...........|===.....SD4|...........|...........|...........|...........|...........|...........|...........|...........|...........|...........|...........|...........|...........|...........|===.....SD4|...........|...........|...........|...........|...........|...........|...........|...........|...........|...........|...........|...........|...........|...........
|...........|...........|C-604v59SD2|...........|...........|...........|...........|...........|...........|...........|...........|...........|...........|...........|C-707v59SD2|...........|...........|...........|...........|...........|...........|...........|...........|D-315v64SD2|...........|...........|...........|...........|...........|C-609v48SD2|...........|...........|...........|...........|...........|...........|...........|...........|...........|...........|...........|...........|...........|...........
|...........|...........|===.....SD4|...........|...........|...........|...........|...........|...........|...........|...........|...........|...........|...........|===.....SD4|...........|...........|...........|...........|...........|...........|...........|...........|...........|...........|...........|...........|...........|...........|===.....SD4|...........|...........|...........|...........|...........|...........|...........|...........|...........|...........|...........|...........|...........|...........
|...........|...........|G-504v59SD2|...........|...........|...........|...........|...........|...........|...........|...........|...........|...........|...........|G-607v59SD2|...........|...........|...........|...........|...........|...........|...........|...........|F#312v42SD2|...........|...........|...........|...........|...........|G-509v48SD2|...........|...........|...........|...........|...........|...........|...........|...........|...........|...........|...........|...........|...........|...........
|...........|...........|===.....SD4|...........|...........|...........|...........|...........|...........|...........|...........|...........|...........|...........|===.....SD4|...........|...........|...........|...........|...........|...........|...........|...........|...........|...........|...........|...........|...........|...........|===.....SD4|...........|...........|...........|...........|...........|...........|...........|...........|...........|...........|...........|...........|...........|...........
|...........|...........|D#604v59SD2|...........|...........|...........|...........|...........|...........|...........|...........|...........|...........|...........|D#707v59SD2|...........|...........|...........|...........|...........|...........|...........|...........|...........|...........|...........|...........|...........|...........|D#609v48SD2|...........|...........|...........|...........|...........|...........|...........|...........|...........|...........|...........|...........|...........|...........
|...........|...........|===.....SD4|...........|...........|...........|...........|...........|...........|...........|...........|...........|...........|...........|===.....SD4|...........|...........|...........|...........|...........|...........|...........|...........|...........|...........|...........|...........|...........|...........|===.....SD4|...........|...........|...........|...........|...........|...........|...........|...........|...........|...........|...........|...........|...........|...........
|C-503v64SD2|...........|C-604v59SD2|...........|...........|...........|...........|...........|...........|...........|...........|...........|...........|...........|C-707v59SD2|...........|...........|...........|...........|...........|...........|C-508v62SD2|...........|A#314v42SD2|C-302v64SD2|...........|...........|...........|...........|C-609v48SD2|...........|...........|...........|...........|...........|...........|...........|...........|...........|...........|...........|...........|...........|...........
|...........|...........|===.....SD4|...........|...........|...........|...........|...........|...........|...........|...........|...........|...........|...........|===.....SD4|...........|...........|...........|...........|...........|...........|...........|...........|...........|...........|...........|...........|...........|...........|===.....SD4|...........|...........|...........|...........|...........|...........|...........|...........|...........|...........|...........|...........|...........|...........
|...........|...........|G-504v59SD2|...........|...........|...........|...........|...........|...........|...........|...........|...........|...........|...........|G-607v59SD2|...........|...........|...........|...........|...........|...........|...........|...........|F#312v42SD2|...........|...........|...........|...........|...........|G-509v48SD2|...........|...........|...........|...........|...........|...........|...........|...........|...........|...........|...........|...........|...........|...........
|...........|...........|===.....SD4|...........|...........|...........|...........|...........|...........|...........|...........|...........|...........|...........|===.....SD4|...........|...........|...........|...........|...........|...........|...........|...........|...........|...........|...........|...........|...........|...........|===.....SD4|...........|...........|...........|...........|...........|...........|...........|...........|...........|...........|...........|...........|...........|...........
|D-403v64SD2|...........|F-504v37SD2|A#504v37SD2|D-604v59SD2|F-505v64SD2|D-605v64SD2|...........|...........|F-406v44SD2|D-506v64SD2|...........|...........|...........|F-607v37SD2|A#607v37SD2|D-707v59SD2|...........|...........|...........|...........|D-408v62SD2|...........|D#416v64SD2|A#314v64SD2|C-302v64SD2|...........|...........|...........|F-509v31SD2|A#509v31SD2|D-609v48SD2|...........|...........|...........|...........|F-510v64SD2|D-610v64SD2|...........|...........|F-411v33SD2|D-511v33SD2|...........|...........
|...........|...........|...........|...........|...........|...........|...........|...........|...........|...........|...........|...........|...........|...........|...........|...........|...........|...........|...........|...........|...........|...........|...........|...........|...........|...........|...........|...........|...........|...........|...........|...........|...........|...........|...........|...........|...........|...........|...........|...........|...........|...........|...........|...........
|...........|...........|===.....SD2|===.....SD2|===.....SD2|...........|...........|...........|...........|...........|...........|...........|...........|...........|===.....SD2|===.....SD2|===.....SD2|...........|...........|...........|...........|...........|...........|...........|...........|...........|...........|...........|...........|===.....SD2|===.....SD2|===.....SD2|...........|...........|...........|...........|...........|...........|...........|...........|...........|...........|...........|...........
|...........|...........|...........|...........|...........|...........|...........|...........|...........|...........|...........|...........|...........|...........|...........|...........|...........|...........|...........|...........|...........|...........|...........|...........|...........|...........|...........|...........|...........|...........|...........|...........|...........|...........|...........|...........|...........|...........|...........|...........|...........|...........|...........|...........
|...........|...........|...........|...........|...........|===.....SD1|===.....SD1|...........|...........|===.....SD1|===.....SD1|...........|...........|...........|...........|...........|...........|...........|...........|...........|...........|...........|...........|F#312v42SD2|D-315v64SD2|...........|...........|...........|...........|...........|...........|...........|...........|...........|...........|...........|===.....SD1|===.....SD1|...........|...........|===.....SD1|===.....SD1|...........|...........
|...........|...........|F-504v37SD4|A#504v37SD4|D-604v59SD4|F-505v64SD4|D-605v64SD4|...........|...........|F-406v44SD4|D-506v64SD4|...........|...........|...........|F-607v37SD4|A#607v37SD4|D-707v59SD4|...........|...........|...........|...........|...........|...........|...........|...........|...........|...........|...........|...........|F-509v31SD4|A#509v31SD4|D-609v48SD4|...........|...........|...........|...........|F-510v64SD4|D-610v64SD4|...........|...........|F-411v33SD4|D-511v33SD4|...........|...........
|...........|...........|...........|...........|...........|...........|...........|...........|...........|...........|...........|...........|...........|...........|...........|...........|...........|...........|...........|...........|...........|...........|...........|C-302v64SD2|D#416v64SD2|F#312v42SD2|...........|...........|...........|...........|...........|...........|...........|...........|...........|...........|...........|...........|...........|...........|...........|...........|...........|...........
|...........|...........|===.....SD4|===.....SD4|===.....SD4|...........|...........|...........|...........|...........|...........|...........|...........|...........|===.....SD4|===.....SD4|===.....SD4|...........|...........|...........|...........|...........|...........|...........|...........|...........|...........|...........|...........|===.....SD4|===.....SD4|===.....SD4|...........|...........|...........|...........|...........|...........|...........|...........|...........|...........|...........|...........
|D-403v64SD2|...........|...........|...........|...........|...........|...........|...........|...........|...........|...........|...........|...........|...........|...........|...........|...........|...........|...........|...........|...........|D-408v62SD2|...........|E-313v64SD2|...........|...........|...........|...........|...........|...........|...........|...........|...........|...........|...........|...........|...........|...........|...........|...........|...........|...........|...........|...........
|...........|...........|...........|...........|...........|===.....SD3|===.....SD3|...........|...........|===.....SD3|===.....SD3|...........|...........|...........|...........|...........|...........|...........|...........|...........|...........|...........|...........|...........|...........|...........|...........|...........|...........|...........|...........|...........|...........|...........|...........|...........|===.....SD3|===.....SD3|...........|...........|===.....SD3|===.....SD3|...........|...........
|...........|...........|...........|...........|...........|...........|...........|...........|...........|...........|...........|...........|...........|...........|...........|...........|...........|...........|...........|...........|...........|...........|...........|C-302v64SD2|...........|...........|...........|...........|...........|...........|...........|...........|...........|...........|...........|...........|...........|...........|...........|...........|...........|...........|...........|...........
|...........|...........|F-504v59...|A#504v37...|D-604v59...|F-505v64...|D-605v64...|...........|...........|F-406v44...|D-506v64...|...........|...........|...........|F-607v59...|A#607v37...|D-707v59...|...........|...........|...........|...........|...........|...........|...........|...........|...........|...........|...........|...........|F-509v48...|A#509v31...|D-609v48...|...........|...........|...........|...........|F-510v64...|D-610v64...|...........|...........|F-411v33...|D-511v33...|...........|...........
|...........|...........|...........|...........|...........|...........|...........|...........|...........|...........|...........|...........|...........|...........|...........|...........|...........|...........|...........|...........|...........|...........|...........|D#416v64SD2|A#314v42SD2|D-315v64SD2|...........|...........|...........|...........|...........|...........|...........|...........|...........|...........|...........|...........|...........|...........|...........|...........|...........|...........
|...........|...........|...........|...........|...........|...........|...........|...........|...........|...........|...........|...........|...........|...........|...........|...........|...........|...........|...........|...........|...........|...........|...........|...........|...........|...........|...........|...........|...........|...........|...........|...........|...........|...........|...........|...........|...........|...........|...........|...........|...........|...........|...........|...........
|...........|...........|===........|===........|===........|===.....SD5|===.....SD5|...........|...........|===.....SD5|===.....SD5|...........|...........|...........|===........|===........|===........|...........|...........|...........|...........|...........|...........|D-315v64SD2|...........|...........|...........|...........|...........|===........|===........|===........|...........|...........|...........|...........|===.....SD5|===.....SD5|...........|...........|===.....SD5|===.....SD5|...........|...........
|...........|...........|...........|...........|...........|...........|...........|...........|...........|...........|...........|...........|...........|...........|...........|...........|...........|...........|...........|...........|...........|...........|...........|...........|...........|...........|...........|...........|...........|...........|...........|...........|...........|...........|...........|...........|...........|...........|...........|...........|...........|...........|...........|...........
|C-403v64SD2|...........|D#604v59SD2|...........|...........|D#605v64SD2|...........|...........|...........|C-406v44SD2|G-406v64SD2|...........|...........|...........|D#707v59SD2|...........|...........|...........|...........|...........|...........|C-408v62SD2|...........|E-313v64SD2|C#401v64SD2|...........|...........|...........|...........|D#609v48SD2|...........|...........|...........|...........|...........|...........|D#610v62SD2|...........|...........|...........|C-411v33SD2|G-411v33SD2|...........|...........
|...........|...........|===.....SD4|...........|...........|===.....SD4|...........|...........|...........|...........|...........|...........|...........|...........|===.....SD4|...........|...........|...........|...........|...........|...........|...........|...........|...........|...........|...........|...........|...........|...........|===.....SD4|...........|...........|...........|...........|...........|...........|===.....SD4|...........|...........|...........|...........|...........|...........|...........
|...........|...........|C-604v59SD2|...........|...........|C-605v64SD2|...........|...........|...........|...........|...........|...........|...........|...........|C-707v59SD2|...........|...........|...........|...........|...........|...........|...........|...........|E-313v64SD2|...........|...........|...........|...........|...........|C-609v48SD2|...........|...........|...........|...........|...........|...........|C-610v62SD2|...........|...........|...........|...........|...........|...........|...........
|...........|...........|===.....SD4|...........|...........|===.....SD4|...........|...........|...........|...........|...........|...........|...........|...........|===.....SD4|...........|...........|...........|...........|...........|...........|...........|...........|...........|...........|...........|...........|...........|...........|===.....SD4|...........|...........|...........|...........|...........|...........|===.....SD4|...........|...........|...........|...........|...........|...........|...........
|...........|...........|G-504v59SD2|...........|...........|G-505v64SD2|...........|...........|...........|...........|...........|...........|...........|...........|G-607v59SD2|...........|...........|...........|...........|...........|...........|...........|...........|E-313v64SD2|C-302v64SD2|F#312v42SD2|...........|...........|...........|G-509v48SD2|...........|...........|...........|...........|...........|...........|G-510v62SD2|...........|...........|...........|...........|...........|...........|...........
|...........|...........|===.....SD4|...........|...........|===.....SD4|...........|...........|...........|...........|...........|...........|...........|...........|===.....SD4|...........|...........|...........|...........|...........|...........|...........|...........|...........|...........|...........|...........|...........|...........|===.....SD4|...........|...........|...........|...........|...........|...........|===.....SD4|...........|...........|...........|...........|...........|...........|...........
|...........|...........|D#604v59SD2|...........|...........|D#605v64SD2|...........|...........|...........|...........|...........|...........|...........|...........|D#707v59SD2|...........|...........|...........|...........|...........|...........|...........|...........|C-302v64SD2|F#312v42SD2|E-313v64SD2|...........|...........|...........|D#609v48SD2|...........|...........|...........|...........|...........|...........|D#610v62SD2|...........|...........|...........|...........|...........|...........|...........
|...........|...........|===.....SD4|...........|...........|===.....SD4|...........|...........|...........|...........|...........|...........|...........|...........|===.....SD4|...........|...........|...........|...........|...........|...........|...........|...........|...........|...........|...........|...........|...........|...........|===.....SD4|...........|...........|...........|...........|...........|...........|===.....SD4|...........|...........|...........|...........|...........|...........|...........
|...........|...........|C-604v59SD2|...........|...........|C-605v64SD2|...........|...........|...........|...........|...........|...........|...........|...........|C-707v59SD2|...........|...........|...........|...........|...........|...........|...........|...........|E-313v64SD2|...........|...........|...........|...........|...........|C-609v48SD2|...........|...........|...........|...........|...........|...........|C-610v62SD2|...........|...........|...........|...........|...........|...........|...........
|...........|...........|===.....SD4|...........|...........|===.....SD4|...........|...........|...........|...........|...........|...........|...........|...........|===.....SD4|...........|...........|...........|...........|...........|...........|...........|...........|...........|...........|...........|...........|...........|...........|===.....SD4|...........|...........|...........|...........|...........|...........|===.....SD4|...........|...........|...........|...........|...........|...........|...........
|...........|...........|G-504v59SD2|...........|...........|G-505v64SD2|...........|...........|...........|...........|...........|...........|...........|...........|G-607v59SD2|...........|...........|...........|...........|...........|...........|...........|...........|...........|...........|...........|...........|...........|...........|G-509v48SD2|...........|...........|...........|...........|...........|...........|G-510v62SD2|...........|...........|...........|...........|...........|...........|...........
|===.....SD4|...........|===.....SD4|...........|...........|===.....SD4|...........|...........|...........|...........|...........|...........|...........|...........|===.....SD4|...........|...........|...........|...........|...........|...........|===.....SD4|...........|...........|...........|...........|...........|...........|...........|===.....SD4|...........|...........|...........|...........|...........|...........|===.....SD4|...........|...........|...........|...........|...........|...........|...........
|G-403v64SD2|...........|D#604v59SD2|...........|...........|D#605v64SD2|...........|...........|...........|...........|...........|...........|...........|...........|D#707v59SD2|...........|...........|...........|...........|...........|...........|G-408v62SD2|...........|A#314v42SD2|D-315v64SD2|...........|...........|...........|...........|D#609v48SD2|...........|...........|...........|...........|...........|...........|D#610v62SD2|...........|...........|...........|...........|...........|...........|...........
|...........|...........|===.....SD4|...........|...........|===.....SD4|...........|...........|...........|...........|...........|...........|...........|...........|===.....SD4|...........|...........|...........|...........|...........|...........|...........|...........|...........|...........|...........|...........|...........|...........|===.....SD4|...........|...........|...........|...........|...........|...........|===.....SD4|...........|...........|...........|...........|...........|...........|...........
|...........|...........|C-604v59SD2|...........|...........|C-605v64SD2|...........|...........|...........|...........|...........|...........|...........|...........|C-707v59SD2|...........|...........|...........|...........|...........|...........|...........|...........|E-313v64SD2|D-315v64SD2|...........|...........|...........|...........|C-609v48SD2|...........|...........|...........|...........|...........|...........|C-610v62SD2|...........|...........|...........|...........|...........|...........|...........
|...........|...........|===.....SD4|...........|...........|===.....SD4|...........|...........|...........|...........|...........|...........|...........|...........|===.....SD4|...........|...........|...........|...........|...........|...........|...........|...........|...........|...........|...........|...........|...........|...........|===.....SD4|...........|...........|...........|...........|...........|...........|===.....SD4|...........|...........|...........|...........|...........|...........|...........
|...........|...........|G-504v59SD2|...........|...........|G-505v64SD2|...........|...........|...........|...........|...........|...........|...........|...........|G-607v59SD2|...........|...........|...........|...........|...........|...........|...........|...........|F-317v64SD2|F#312v42SD2|...........|...........|...........|...........|G-509v48SD2|...........|...........|...........|...........|...........|...........|G-510v62SD2|...........|...........|...........|...........|...........|...........|...........
|...........|...........|===.....SD4|...........|...........|===.....SD4|...........|...........|...........|...........|...........|...........|...........|...........|===.....SD4|...........|...........|...........|...........|...........|...........|...........|...........|...........|...........|...........|...........|...........|...........|===.....SD4|...........|...........|...........|...........|...........|...........|===.....SD4|...........|...........|...........|...........|...........|...........|...........
|...........|...........|D#604v59SD2|...........|...........|D#605v64SD2|...........|...........|...........|...........|...........|...........|...........|...........|D#707v59SD2|...........|...........|...........|...........|...........|...........|...........|...........|C#401v64SD2|E-313v64SD2|...........|...........|...........|...........|D#609v48SD2|...........|...........|...........|...........|...........|...........|D#610v62SD2|...........|...........|...........|...........|...........|...........|...........
|...........|...........|===.....SD4|...........|...........|===.....SD4|...........|...........|...........|...........|...........|...........|...........|...........|===.....SD4|...........|...........|...........|...........|...........|...........|...........|...........|...........|...........|...........|...........|...........|...........|===.....SD4|...........|...........|...........|...........|...........|...........|===.....SD4|...........|...........|...........|...........|...........|...........|...........
|C-503v64SD2|...........|C-604v59SD2|...........|...........|C-605v64SD2|...........|...........|...........|...........|...........|...........|...........|...........|C-707v59SD2|...........|...........|...........|...........|...........|...........|C-508v62SD2|...........|A#314v42SD2|C-302v64SD2|...........|...........|...........|...........|C-609v48SD2|...........|...........|...........|...........|...........|...........|C-610v62SD2|...........|...........|...........|...........|...........|...........|...........
|...........|...........|===.....SD4|...........|...........|===.....SD4|...........|...........|...........|...........|...........|...........|...........|...........|===.....SD4|...........|...........|...........|...........|...........|...........|...........|...........|...........|...........|...........|...........|...........|...........|===.....SD4|...........|...........|...........|...........|...........|...........|===.....SD4|...........|...........|...........|...........|...........|...........|...........
|...........|...........|G-504v59SD2|...........|...........|G-505v64SD2|...........|...........|...........|...........|...........|...........|...........|...........|G-607v59SD2|...........|...........|...........|...........|...........|...........|...........|...........|E-313v64SD2|F#312v42SD2|...........|...........|...........|...........|G-509v48SD2|...........|...........|...........|...........|...........|...........|G-510v62SD2|...........|...........|...........|...........|...........|...........|...........
|...........|...........|===.....SD4|...........|...........|===.....SD4|...........|...........|...........|...........|...........|...........|...........|...........|===.....SD4|...........|...........|...........|...........|...........|...........|...........|...........|...........|...........|...........|...........|...........|...........|===.....SD4|...........|...........|...........|...........|...........|...........|===.....SD4|...........|...........|...........|...........|...........|...........|...........
|F-403v64SD2|...........|G#504v37SD2|D-604v37SD2|F-604v59SD2|G#505v50SD2|D-605v50SD2|F-605v64SD2|...........|G#406v44SD2|F-506v44SD2|...........|...........|...........|G#607v37SD2|D-707v37SD2|F-707v59SD2|...........|...........|...........|...........|F-408v62SD2|...........|C#401v64SD2|C-418v64SD2|E-313v64SD2|D-315v64SD2|A#314v64SD2|C-302v64SD2|G#509v31SD2|D-609v31SD2|F-609v48SD2|...........|...........|...........|...........|G#510v40SD2|D-610v40SD2|F-610v62SD2|...........|G#411v33SD2|F-511v33SD2|...........|...........
|...........|...........|...........|...........|...........|...........|...........|...........|...........|...........|...........|...........|...........|...........|...........|...........|...........|...........|...........|...........|...........|...........|...........|...........|...........|...........|...........|...........|...........|...........|...........|...........|...........|...........|...........|...........|...........|...........|...........|...........|...........|...........|...........|...........
|...........|...........|===.....SD2|===.....SD2|===.....SD2|===.....SD2|===.....SD2|===.....SD2|...........|...........|...........|...........|...........|...........|===.....SD2|===.....SD2|===.....SD2|...........|...........|...........|...........|...........|...........|...........|...........|...........|...........|...........|...........|===.....SD2|===.....SD2|===.....SD2|...........|...........|...........|...........|===.....SD2|===.....SD2|===.....SD2|...........|...........|...........|...........|...........
|...........|...........|...........|...........|...........|...........|...........|...........|...........|...........|...........|...........|...........|...........|...........|...........|...........|...........|...........|...........|...........|...........|...........|...........|...........|...........|...........|...........|...........|...........|...........|...........|...........|...........|...........|...........|...........|...........|...........|...........|...........|...........|...........|...........
|...........|...........|...........|...........|...........|...........|...........|...........|...........|===.....SD1|===.....SD1|...........|...........|...........|...........|...........|...........|...........|...........|...........|...........|...........|...........|...........|...........|...........|...........|...........|...........|...........|...........|...........|...........|...........|...........|...........|...........|...........|...........|...........|===.....SD1|===.....SD1|...........|...........
|...........|...........|G#504v37SD4|D-604v37SD4|F-604v59SD4|G#505v50SD4|D-605v50SD4|F-605v64SD4|...........|G#406v44SD4|F-506v44SD4|...........|...........|...........|G#607v37SD4|D-707v37SD4|F-707v59SD4|...........|...........|...........|...........|...........|...........|C#401v64SD4|A-319v64SD4|D-315v64SD4|C-302v64SD4|F#312v42SD4|...........|G#509v31SD4|D-609v31SD4|F-609v48SD4|...........|...........|...........|...........|G#510v40SD4|D-610v40SD4|F-610v62SD4|...........|G#411v33SD4|F-511v33SD4|...........|...........
|...........|...........|...........|...........|...........|...........|...........|...........|...........|...........|...........|...........|...........|...........|...........|...........|...........|...........|...........|...........|...........|...........|...........|...........|...........|...........|...........|...........|...........|...........|...........|...........|...........|...........|...........|...........|...........|...........|...........|...........|...........|...........|...........|...........
|...........|...........|===.....SD4|===.....SD4|===.....SD4|===.....SD4|===.....SD4|===.....SD4|...........|...........|...........|...........|...........|...........|===.....SD4|===.....SD4|===.....SD4|...........|...........|...........|...........|...........|...........|...........|...........|...........|...........|...........|...........|===.....SD4|===.....SD4|===.....SD4|...........|...........|...........|...........|===.....SD4|===.....SD4|===.....SD4|...........|...........|...........|...........|...........
|F-403v64SD2|...........|...........|...........|...........|...........|...........|...........|...........|...........|...........|...........|...........|...........|...........|...........|...........|...........|...........|...........|...........|F-408v62SD2|...........|...........|...........|...........|...........|...........|...........|...........|...........|...........|...........|...........|...........|...........|...........|...........|...........|...........|...........|...........|...........|...........
|...........|...........|...........|...........|...........|...........|...........|...........|...........|===.....SD3|===.....SD3|...........|...........|...........|...........|...........|...........|...........|...........|...........|...........|...........|...........|...........|...........|...........|...........|...........|...........|...........|...........|...........|...........|...........|...........|...........|...........|...........|...........|...........|===.....SD3|===.....SD3|...........|...........
|...........|...........|...........|...........|...........|...........|...........|...........|...........|...........|...........|...........|...........|...........|...........|...........|...........|...........|...........|...........|...........|...........|...........|...........|...........|...........|...........|...........|...........|...........|...........|...........|...........|...........|...........|...........|...........|...........|...........|...........|...........|...........|...........|...........
|...........|...........|G#504v59...|D-604v37...|F-604v59...|G#505v64...|D-605v50...|F-605v64...|...........|G#406v44...|F-506v44...|...........|...........|...........|G#607v59...|D-707v37...|F-707v59...|...........|...........|...........|...........|...........|...........|C-302v64...|C#401v64...|F-317v64...|E-313v64...|A#314v42...|D-315v64...|G#509v48...|D-609v31...|F-609v48...|...........|...........|...........|...........|G#510v62...|D-610v40...|F-610v62...|...........|G#411v33...|F-511v33...|...........|...........
|...........|...........|...........|...........|...........|...........|...........|...........|...........|...........|...........|...........|...........|...........|...........|...........|...........|...........|...........|...........|...........|...........|...........|F-317v64SD4|E-313v64SD4|D-315v64SD4|...........|...........|...........|...........|...........|...........|...........|...........|...........|...........|...........|...........|...........|...........|...........|...........|...........|...........
|...........|...........|...........|...........|...........|...........|...........|...........|...........|...........|...........|...........|...........|...........|...........|...........|...........|...........|...........|...........|...........|...........|...........|...........|...........|...........|...........|...........|...........|...........|...........|...........|...........|...........|...........|...........|...........|...........|...........|...........|...........|...........|...........|...........
|...........|...........|===........|===........|===........|===........|===........|===........|...........|===.....SD5|===.....SD5|...........|...........|...........|===........|===........|===........|...........|...........|...........|...........|...........|...........|E-313v64SD2|D-315v64SD2|...........|...........|...........|...........|===........|===........|===........|...........|...........|...........|...........|===........|===........|===........|...........|===.....SD5|===.....SD5|...........|...........
|...........|...........|...........|...........|...........|...........|...........|...........|...........|...........|...........|...........|...........|...........|...........|...........|...........|...........|...........|...........|...........|...........|...........|...........|...........|...........|...........|...........|...........|...........|...........|...........|...........|...........|...........|...........|...........|...........|...........|...........|...........|...........|...........|...........

!channels=1+18+19+41

|C-403v64SD2|...........|...........|...........|...........|C-405v64SD2|G-405v64SD2|D#505v64SD2|...........|D#706v44SD2|...........|...........|G-521v24SD2|G-621v24SD2|...........|...........|...........|G-522v64SD2|G-622v64SD2|...........|...........|===.....SD1|...........|C#401v64SD2|C#320v64SD2|D#416v64SD2|F#312v64SD2|C-302v64SD2|...........|...........|...........|...........|...........|...........|...........|...........|C-410v62SD2|G-410v62SD2|D#510v62SD2|...........|D#711v33SD2|...........|...........|...........
|...........|...........|...........|...........|...........|...........|...........|...........|...........|...........|...........|...........|...........|...........|...........|...........|...........|...........|...........|...........|...........|...........|...........|...........|...........|...........|...........|...........|...........|...........|...........|...........|...........|...........|...........|...........|...........|...........|...........|...........|...........|...........|...........|...........
|...........|...........|...........|...........|...........|...........|...........|...........|...........|...........|...........|...........|...........|...........|...........|...........|...........|...........|...........|...........|...........|...........|...........|...........|...........|...........|...........|...........|...........|...........|...........|...........|...........|...........|...........|...........|...........|...........|...........|...........|...........|...........|...........|...........
|...........|...........|...........|...........|...........|...........|...........|...........|...........|...........|...........|...........|...........|...........|...........|...........|...........|...........|...........|...........|...........|...........|...........|...........|...........|...........|...........|...........|...........|...........|...........|...........|...........|...........|...........|...........|...........|...........|...........|...........|...........|...........|...........|...........
|G-403v64SD2|...........|...........|...........|...........|...........|...........|...........|...........|...........|...........|...........|===.....SD2|===.....SD2|...........|...........|...........|===.....SD2|===.....SD2|...........|...........|...........|...........|F#312v64SD2|...........|...........|...........|...........|...........|...........|...........|...........|...........|...........|...........|...........|...........|...........|...........|...........|...........|...........|...........|...........
|...........|...........|...........|...........|...........|...........|...........|...........|...........|...........|...........|...........|...........|...........|...........|...........|...........|...........|...........|...........|...........|...........|...........|...........|...........|...........|...........|...........|...........|...........|...........|...........|...........|...........|...........|...........|...........|...........|...........|...........|...........|...........|...........|...........
|...........|...........|...........|...........|...........|...........|...........|...........|...........|...........|...........|...........|...........|...........|...........|...........|...........|...........|...........|...........|...........|...........|...........|...........|...........|...........|...........|...........|...........|...........|...........|...........|...........|...........|...........|...........|...........|...........|...........|...........|...........|...........|...........|...........
|...........|...........|...........|...........|...........|...........|...........|...........|...........|...........|...........|...........|...........|...........|...........|...........|...........|...........|...........|...........|...........|...........|...........|...........|...........|...........|...........|...........|...........|...........|...........|...........|...........|...........|...........|...........|...........|...........|...........|...........|...........|...........|...........|...........
|C-403v64SD2|...........|...........|...........|...........|...........|...........|...........|...........|...........|...........|...........|D#521v24SD2|D#621v24SD2|...........|...........|...........|D#522v64SD2|D#622v64SD2|...........|...........|...........|...........|C#320v64SD2|A#314v64SD2|C-302v64SD2|...........|...........|...........|...........|...........|...........|...........|...........|...........|...........|...........|...........|...........|...........|...........|...........|...........|...........
|...........|...........|...........|...........|...........|...........|...........|...........|...........|...........|...........|...........|...........|...........|...........|...........|...........|...........|...........|...........|...........|...........|...........|...........|...........|...........|...........|...........|...........|...........|...........|...........|...........|...........|...........|...........|...........|...........|...........|...........|...........|...........|...........|...........
|...........|...........|...........|...........|...........|...........|...........|...........|...........|...........|...........|...........|...........|...........|...........|...........|...........|...........|...........|...........|...........|...........|...........|...........|...........|...........|...........|...........|...........|...........|...........|...........|...........|...........|...........|...........|...........|...........|...........|...........|...........|...........|...........|...........
|...........|...........|...........|...........|...........|...........|...........|...........|...........|...........|...........|...........|...........|...........|...........|...........|...........|...........|...........|...........|...........|...........|...........|...........|...........|...........|...........|...........|...........|...........|...........|...........|...........|...........|...........|...........|...........|...........|...........|...........|...........|...........|...........|...........
|G-403v64SD2|...........|...........|...........|...........|...........|...........|...........|...........|...........|...........|...........|===.....SD2|===.....SD2|...........|...........|...........|===.....SD2|===.....SD2|...........|...........|...........|...........|F#312v64SD2|...........|...........|...........|...........|...........|...........|...........|...........|...........|...........|...........|...........|...........|...........|...........|...........|...........|...........|...........|...........
|...........|...........|...........|...........|...........|...........|...........|...........|...........|...........|...........|...........|...........|...........|...........|...........|...........|...........|...........|...........|...........|...........|...........|...........|...........|...........|...........|...........|...........|...........|...........|...........|...........|...........|...........|...........|...........|...........|...........|...........|...........|...........|...........|...........
|...........|...........|...........|...........|...........|...........|...........|...........|...........|...........|...........|...........|...........|...........|...........|...........|...........|...........|...........|...........|...........|...........|...........|F#312v64SD2|...........|...........|...........|...........|...........|...........|...........|...........|...........|...........|...........|...........|...........|...........|...........|...........|...........|...........|...........|...........
|...........|...........|...........|...........|...........|===.....SD4|===.....SD4|===.....SD4|...........|===.....SD4|...........|...........|...........|...........|...........|...........|...........|...........|...........|...........|...........|...........|...........|...........|...........|...........|...........|...........|...........|...........|...........|...........|...........|...........|...........|...........|===.....SD4|===.....SD4|===.....SD4|...........|===.....SD4|...........|...........|...........
|B-303v64SD2|...........|...........|...........|...........|B-305v64SD2|F#405v64SD2|D-505v64SD2|...........|D-706v44SD2|...........|...........|F#521v24SD2|F#621v24SD2|...........|...........|...........|F#522v64SD2|F#622v64SD2|...........|...........|...........|...........|C#320v64SD2|F#312v64SD2|C-302v64SD2|...........|...........|...........|...........|...........|...........|...........|...........|...........|...........|B-310v62SD2|F#410v62SD2|D-510v62SD2|...........|D-711v33SD2|...........|...........|...........

!channels=1+18+19+41
!octaves=1+0+0+0

ModPlug Tracker MPT
|...........|...........|...........|...........|...........|...........|...........|...........|...........|...........|...........|...........|...........|...........|...........|...........|...........|...........|...........|...........|...........|...........|...........|...........|...........|...........|...........|...........|...........|...........|...........|...........|...........|...........|...........|...........|...........|...........|...........|...........|...........|...........|...........|...........
|...........|...........|...........|...........|...........|...........|...........|...........|...........|...........|...........|...........|...........|...........|...........|...........|...........|...........|...........|...........|...........|...........|...........|...........|...........|...........|...........|...........|...........|...........|...........|...........|...........|...........|...........|...........|...........|...........|...........|...........|...........|...........|...........|...........
|...........|...........|...........|...........|...........|...........|...........|...........|...........|...........|...........|...........|...........|...........|...........|...........|...........|...........|...........|...........|...........|...........|...........|...........|...........|...........|...........|...........|...........|...........|...........|...........|...........|...........|...........|...........|...........|...........|...........|...........|...........|...........|...........|...........
|F#403v64SD2|...........|F#604v59SD2|D-704v59SD2|...........|...........|...........|...........|...........|F#606v64SD2|D-706v64SD2|...........|===.....SD2|===.....SD2|===.....SD2|===.....SD2|...........|===.....SD2|===.....SD2|...........|...........|...........|...........|E-313v42SD2|A#314v64SD2|...........|...........|...........|...........|===.....SD2|===.....SD2|...........|...........|...........|...........|...........|...........|...........|...........|...........|F#611v52SD2|D-711v52SD2|...........|...........
|...........|...........|...........|...........|...........|...........|...........|...........|...........|...........|...........|...........|...........|...........|...........|...........|...........|...........|...........|...........|...........|...........|...........|...........|...........|...........|...........|...........|...........|...........|...........|...........|...........|...........|...........|...........|...........|...........|...........|...........|...........|...........|...........|...........
|...........|...........|===.....SD2|===.....SD2|...........|...........|...........|...........|...........|===.....SD2|===.....SD2|...........|...........|...........|...........|...........|...........|...........|...........|...........|...........|...........|...........|...........|...........|...........|...........|...........|...........|...........|...........|...........|...........|...........|...........|...........|...........|...........|...........|...........|===.....SD2|===.....SD2|...........|...........
|...........|...........|...........|...........|...........|...........|...........|...........|...........|...........|...........|...........|...........|...........|...........|...........|...........|...........|...........|...........|...........|...........|...........|...........|...........|...........|...........|...........|...........|...........|...........|...........|...........|...........|...........|...........|...........|...........|...........|...........|...........|...........|...........|...........
|B-303v64SD2|...........|...........|...........|...........|...........|...........|...........|...........|...........|...........|...........|D-521v24SD2|D-621v24SD2|D-507v64SD2|D-607v64SD2|...........|D-522v64SD2|D-622v64SD2|...........|...........|...........|...........|D-315v64SD2|C#320v64SD2|F#312v64SD2|...........|...........|...........|D-409v64SD2|D-509v64SD2|...........|...........|...........|...........|...........|...........|...........|...........|...........|...........|...........|...........|...........
|...........|...........|...........|...........|...........|...........|...........|...........|...........|...........|...........|...........|...........|...........|...........|...........|...........|...........|...........|...........|...........|...........|...........|...........|...........|...........|...........|...........|...........|...........|...........|...........|...........|...........|...........|...........|...........|...........|...........|...........|...........|...........|...........|...........
|...........|...........|...........|...........|...........|...........|...........|...........|...........|...........|...........|...........|...........|...........|...........|...........|...........|...........|...........|...........|...........|...........|...........|...........|...........|...........|...........|...........|...........|...........|...........|...........|...........|...........|...........|...........|...........|...........|...........|...........|...........|...........|...........|...........
|...........|...........|...........|...........|...........|...........|...........|...........|...........|...........|...........|...........|...........|...........|...........|...........|...........|...........|...........|...........|...........|...........|...........|...........|...........|...........|...........|...........|...........|...........|...........|...........|...........|...........|...........|...........|...........|...........|...........|...........|...........|...........|...........|...........
|F#403v64SD2|...........|F#604v59SD2|D-704v59SD2|...........|...........|...........|...........|...........|F#606v64SD2|D-706v64SD2|...........|===.....SD2|===.....SD2|===.....SD2|===.....SD2|...........|===.....SD2|===.....SD2|...........|...........|...........|...........|D-315v59SD2|A#314v64SD2|...........|...........|...........|...........|===.....SD2|===.....SD2|...........|...........|...........|...........|...........|...........|...........|...........|...........|F#611v52SD2|D-711v52SD2|...........|...........
|...........|...........|...........|...........|...........|...........|...........|...........|...........|...........|...........|...........|...........|...........|...........|...........|...........|...........|...........|...........|...........|...........|...........|...........|...........|...........|...........|...........|...........|...........|...........|...........|...........|...........|...........|...........|...........|...........|...........|...........|...........|...........|...........|...........
|...........|...........|===.....SD2|===.....SD2|...........|...........|...........|...........|...........|===.....SD2|===.....SD2|...........|...........|...........|...........|...........|...........|...........|...........|...........|...........|...........|...........|F#312v64SD2|...........|...........|...........|...........|...........|...........|...........|...........|...........|...........|...........|...........|...........|...........|...........|...........|===.....SD2|===.....SD2|...........|...........
|...........|...........|...........|...........|...........|===.....SD4|===.....SD4|===.....SD4|...........|...........|...........|...........|...........|...........|...........|...........|...........|...........|...........|...........|...........|...........|...........|...........|...........|...........|...........|...........|...........|...........|...........|...........|...........|...........|...........|...........|===.....SD4|===.....SD4|===.....SD4|...........|...........|...........|...........|...........
|D-403v64SD2|...........|...........|...........|...........|D-405v64SD2|A-405v64SD2|F#505v64SD2|...........|...........|...........|...........|A-521v24SD2|A-621v24SD2|A-507v64SD2|A-607v64SD2|...........|A-522v64SD2|A-622v64SD2|...........|...........|...........|...........|C#320v64SD2|D#416v64SD2|F#312v64SD2|C-302v64SD2|...........|...........|A-409v64SD2|A-509v64SD2|...........|...........|...........|...........|...........|D-410v62SD2|A-410v62SD2|F#510v62SD2|...........|...........|...........|...........|...........
|...........|...........|...........|...........|...........|...........|...........|...........|...........|...........|...........|...........|...........|...........|...........|...........|...........|...........|...........|...........|...........|...........|...........|...........|...........|...........|...........|...........|...........|...........|...........|...........|...........|...........|...........|...........|...........|...........|...........|...........|...........|...........|...........|...........
|...........|...........|...........|...........|...........|...........|...........|...........|...........|...........|...........|...........|...........|...........|...........|...........|...........|...........|...........|...........|...........|...........|...........|...........|...........|...........|...........|...........|...........|...........|...........|...........|...........|...........|...........|...........|...........|...........|...........|...........|...........|...........|...........|...........
|...........|...........|...........|...........|...........|...........|...........|...........|...........|...........|...........|...........|...........|...........|...........|...........|...........|...........|...........|...........|...........|...........|...........|...........|...........|...........|...........|...........|...........|...........|...........|...........|...........|...........|...........|...........|...........|...........|...........|...........|...........|...........|...........|...........
|A-403v64SD2|...........|A-604v59SD2|F#704v59SD2|...........|...........|...........|...........|...........|A-606v64SD2|F#706v64SD2|...........|===.....SD2|===.....SD2|===.....SD2|===.....SD2|...........|===.....SD2|===.....SD2|...........|...........|...........|...........|F#312v64SD2|...........|...........|...........|...........|...........|===.....SD2|===.....SD2|...........|...........|...........|...........|...........|...........|...........|...........|...........|A-611v52SD2|F#711v52SD2|...........|...........
|...........|...........|...........|...........|...........|...........|...........|...........|...........|...........|...........|...........|...........|...........|...........|...........|...........|...........|...........|...........|...........|...........|...........|...........|...........|...........|...........|...........|...........|...........|...........|...........|...........|...........|...........|...........|...........|...........|...........|...........|...........|...........|...........|...........
|...........|...........|===.....SD2|===.....SD2|...........|...........|...........|...........|...........|===.....SD2|===.....SD2|...........|...........|...........|...........|...........|...........|...........|...........|...........|...........|...........|...........|...........|...........|...........|...........|...........|...........|...........|...........|...........|...........|...........|...........|...........|...........|...........|...........|...........|===.....SD2|===.....SD2|...........|...........
|...........|...........|...........|...........|...........|...........|...........|...........|...........|...........|...........|...........|...........|...........|...........|...........|...........|...........|...........|...........|...........|...........|...........|...........|...........|...........|...........|...........|...........|...........|...........|...........|...........|...........|...........|...........|...........|...........|...........|...........|...........|...........|...........|...........
|D-403v64SD2|...........|...........|...........|...........|...........|...........|...........|...........|...........|...........|...........|F#521v24SD2|F#621v24SD2|F#507v64SD2|F#607v64SD2|...........|F#522v64SD2|F#622v64SD2|...........|...........|...........|...........|D-315v64SD2|C#320v64SD2|A#314v64SD2|...........|...........|...........|F#409v64SD2|F#509v64SD2|...........|...........|...........|...........|...........|...........|...........|...........|...........|...........|...........|...........|...........
|...........|...........|...........|...........|...........|...........|...........|...........|...........|...........|...........|...........|...........|...........|...........|...........|...........|...........|...........|...........|...........|...........|...........|...........|...........|...........|...........|...........|...........|...........|...........|...........|...........|...........|...........|...........|...........|...........|...........|...........|...........|...........|...........|...........
|...........|...........|...........|...........|...........|...........|...........|...........|...........|...........|...........|...........|...........|...........|...........|...........|...........|...........|...........|...........|...........|...........|...........|...........|...........|...........|...........|...........|...........|...........|...........|...........|...........|...........|...........|...........|...........|...........|...........|...........|...........|...........|...........|...........
|...........|...........|...........|...........|...........|...........|...........|...........|...........|...........|...........|...........|...........|...........|...........|...........|...........|...........|...........|...........|...........|...........|...........|...........|...........|...........|...........|...........|...........|...........|...........|...........|...........|...........|...........|...........|...........|...........|...........|...........|...........|...........|...........|...........
|A-403v64SD2|...........|A-604v59SD2|F#704v59SD2|...........|...........|...........|...........|...........|A-606v64SD2|F#706v64SD2|...........|===.....SD2|===.....SD2|===.....SD2|===.....SD2|...........|===.....SD2|===.....SD2|...........|...........|...........|...........|D-315v64SD2|F#312v64SD2|...........|...........|...........|...........|===.....SD2|===.....SD2|...........|...........|...........|...........|...........|...........|...........|...........|...........|A-611v52SD2|F#711v52SD2|...........|...........
|...........|...........|...........|...........|...........|...........|...........|...........|...........|...........|...........|...........|...........|...........|...........|...........|...........|...........|...........|...........|...........|...........|...........|...........|...........|...........|...........|...........|...........|...........|...........|...........|...........|...........|...........|...........|...........|...........|...........|...........|...........|...........|...........|...........
|...........|...........|===.....SD2|===.....SD2|...........|...........|...........|...........|...........|===.....SD2|===.....SD2|...........|...........|...........|...........|...........|...........|...........|...........|...........|...........|...........|...........|F#312v64SD2|...........|...........|...........|...........|...........|...........|...........|...........|...........|...........|...........|...........|...........|...........|...........|...........|===.....SD2|===.....SD2|...........|...........
|...........|...........|...........|...........|...........|===.....SD4|===.....SD4|===.....SD4|...........|...........|...........|...........|...........|...........|...........|...........|...........|...........|...........|...........|...........|...........|...........|...........|...........|...........|...........|...........|...........|...........|...........|...........|...........|...........|...........|...........|===.....SD4|===.....SD4|===.....SD4|...........|...........|...........|...........|...........
|C#403v64SD2|...........|...........|...........|...........|C#405v64SD2|G#405v64SD2|F-505v64SD2|...........|...........|...........|...........|F-521v24SD2|F-621v24SD2|F-507v64SD2|F-607v64SD2|...........|F-522v64SD2|F-622v64SD2|...........|...........|...........|...........|C#320v64SD2|F#312v64SD2|C-302v64SD2|...........|...........|...........|F-409v64SD2|F-509v64SD2|...........|...........|...........|...........|...........|C#410v62SD2|G#410v62SD2|F-510v62SD2|...........|...........|...........|...........|...........
|...........|...........|...........|...........|...........|...........|...........|...........|...........|...........|...........|...........|...........|...........|...........|...........|...........|...........|...........|...........|...........|...........|...........|...........|...........|...........|...........|...........|...........|...........|...........|...........|...........|...........|...........|...........|...........|...........|...........|...........|...........|...........|...........|...........
|...........|...........|...........|...........|...........|...........|...........|...........|...........|...........|...........|...........|...........|...........|...........|...........|...........|...........|...........|...........|...........|...........|...........|...........|...........|...........|...........|...........|...........|...........|...........|...........|...........|...........|...........|...........|...........|...........|...........|...........|...........|...........|...........|...........
|...........|...........|...........|...........|...........|...........|...........|...........|...........|...........|...........|...........|...........|...........|...........|...........|...........|...........|...........|...........|...........|...........|...........|...........|...........|...........|...........|...........|...........|...........|...........|...........|...........|...........|...........|...........|...........|...........|...........|...........|...........|...........|...........|...........
|G#403v64SD2|...........|G#604v59SD2|F-704v59SD2|...........|...........|...........|...........|...........|G#606v64SD2|F-706v64SD2|...........|===.....SD2|===.....SD2|===.....SD2|===.....SD2|...........|===.....SD2|===.....SD2|...........|...........|...........|...........|A#314v64SD2|...........|...........|...........|...........|...........|===.....SD2|===.....SD2|...........|...........|...........|...........|...........|...........|...........|...........|...........|G#611v52SD2|F-711v52SD2|...........|...........
|...........|...........|...........|...........|...........|...........|...........|...........|...........|...........|...........|...........|...........|...........|...........|...........|...........|...........|...........|...........|...........|...........|...........|...........|...........|...........|...........|...........|...........|...........|...........|...........|...........|...........|...........|...........|...........|...........|...........|...........|...........|...........|...........|...........
|...........|...........|===.....SD2|===.....SD2|...........|...........|...........|...........|...........|===.....SD2|===.....SD2|...........|...........|...........|...........|...........|...........|...........|...........|...........|...........|...........|...........|...........|...........|...........|...........|...........|...........|...........|...........|...........|...........|...........|...........|...........|...........|...........|...........|...........|===.....SD2|===.....SD2|...........|...........
|...........|...........|...........|...........|...........|...........|...........|...........|...........|...........|...........|...........|...........|...........|...........|...........|...........|...........|...........|...........|...........|...........|...........|...........|...........|...........|...........|...........|...........|...........|...........|...........|...........|...........|...........|...........|...........|...........|...........|...........|...........|...........|...........|...........
|C#403v64SD2|...........|...........|...........|...........|...........|...........|...........|...........|...........|...........|...........|G#521v24SD2|G#621v24SD2|G#507v64SD2|G#607v64SD2|...........|G#522v64SD2|G#622v64SD2|...........|...........|...........|...........|D-315v64SD2|C#320v64SD2|F#312v64SD2|...........|...........|...........|G#409v64SD2|G#509v64SD2|...........|...........|...........|...........|...........|...........|...........|...........|...........|...........|...........|...........|...........
|...........|...........|...........|...........|...........|...........|...........|...........|...........|...........|...........|...........|...........|...........|...........|...........|...........|...........|...........|...........|...........|...........|...........|...........|...........|...........|...........|...........|...........|...........|...........|...........|...........|...........|...........|...........|...........|...........|...........|...........|...........|...........|...........|...........
|...........|...........|...........|...........|...........|...........|...........|...........|...........|...........|...........|...........|...........|...........|...........|...........|...........|...........|...........|...........|...........|...........|...........|...........|...........|...........|...........|...........|...........|...........|...........|...........|...........|...........|...........|...........|...........|...........|...........|...........|...........|...........|...........|...........
|...........|...........|...........|...........|...........|...........|...........|...........|...........|...........|...........|...........|...........|...........|...........|...........|...........|...........|...........|...........|...........|...........|...........|...........|...........|...........|...........|...........|...........|...........|...........|...........|...........|...........|...........|...........|...........|...........|...........|...........|...........|...........|...........|...........
|G#403v64SD2|...........|G#604v59SD2|F-704v59SD2|...........|...........|...........|...........|...........|G#606v64SD2|F-706v64SD2|...........|===.....SD2|===.....SD2|===.....SD2|===.....SD2|...........|===.....SD2|===.....SD2|...........|...........|...........|...........|D-315v64SD2|A#314v64SD2|...........|...........|...........|...........|===.....SD2|===.....SD2|...........|...........|...........|...........|...........|...........|...........|...........|...........|G#611v52SD2|F-711v52SD2|...........|...........
|...........|...........|...........|...........|...........|...........|...........|...........|...........|...........|...........|...........|...........|...........|...........|...........|...........|...........|...........|...........|...........|...........|...........|...........|...........|...........|...........|...........|...........|...........|...........|...........|...........|...........|...........|...........|...........|...........|...........|...........|...........|...........|...........|...........
|...........|...........|===.....SD2|===.....SD2|...........|...........|...........|...........|...........|===.....SD2|===.....SD2|...........|...........|...........|...........|...........|...........|...........|...........|...........|...........|...........|...........|F#312v64SD2|...........|...........|...........|...........|...........|...........|...........|...........|...........|...........|...........|...........|...........|...........|...........|...........|===.....SD2|===.....SD2|...........|...........
|...........|...........|...........|...........|...........|===.....SD4|===.....SD4|===.....SD4|...........|...........|...........|...........|...........|...........|...........|...........|...........|...........|...........|...........|...........|...........|...........|...........|...........|...........|...........|...........|...........|...........|...........|...........|...........|...........|...........|...........|===.....SD4|===.....SD4|===.....SD4|...........|...........|...........|...........|...........
|C-403v64SD2|...........|...........|...........|...........|C-405v64SD2|G-405v64SD2|D#505v64SD2|...........|...........|...........|...........|G-521v24SD2|G-621v24SD2|G-507v64SD2|G-607v64SD2|...........|G-522v64SD2|G-622v64SD2|...........|...........|...........|...........|C#320v64SD2|D#416v64SD2|F#312v64SD2|C-302v64SD2|...........|...........|G-409v64SD2|G-509v64SD2|...........|...........|...........|...........|...........|C-410v62SD2|G-410v62SD2|D#510v62SD2|...........|...........|...........|...........|...........
|...........|...........|...........|...........|...........|...........|...........|...........|...........|...........|...........|...........|...........|...........|...........|...........|...........|...........|...........|...........|...........|...........|...........|...........|...........|...........|...........|...........|...........|...........|...........|...........|...........|...........|...........|...........|...........|...........|...........|...........|...........|...........|...........|...........
|...........|...........|...........|...........|...........|...........|...........|...........|...........|...........|...........|...........|...........|...........|...........|...........|...........|...........|...........|...........|...........|...........|...........|...........|...........|...........|...........|...........|...........|...........|...........|...........|...........|...........|...........|...........|...........|...........|...........|...........|...........|...........|...........|...........
|...........|...........|...........|...........|...........|...........|...........|...........|...........|...........|...........|...........|...........|...........|...........|...........|...........|...........|...........|...........|...........|...........|...........|...........|...........|...........|...........|...........|...........|...........|...........|...........|...........|...........|...........|...........|...........|...........|...........|...........|...........|...........|...........|...........
|G-403v64SD2|...........|G-604v59SD2|D#704v59SD2|...........|...........|...........|...........|...........|G-606v64SD2|D#706v64SD2|...........|===.....SD2|===.....SD2|===.....SD2|===.....SD2|...........|===.....SD2|===.....SD2|...........|...........|...........|...........|F#312v64SD2|...........|...........|...........|...........|...........|===.....SD2|===.....SD2|...........|...........|...........|...........|...........|...........|...........|...........|...........|G-611v52SD2|D#711v52SD2|...........|...........
|...........|...........|...........|...........|...........|...........|...........|...........|...........|...........|...........|...........|...........|...........|...........|...........|...........|...........|...........|...........|...........|...........|...........|...........|...........|...........|...........|...........|...........|...........|...........|...........|...........|...........|...........|...........|...........|...........|...........|...........|...........|...........|...........|...........
|...........|...........|===.....SD2|===.....SD2|...........|...........|...........|...........|...........|===.....SD2|===.....SD2|...........|...........|...........|...........|...........|...........|...........|...........|...........|...........|...........|...........|...........|...........|...........|...........|...........|...........|...........|...........|...........|...........|...........|...........|...........|...........|...........|...........|...........|===.....SD2|===.....SD2|...........|...........
|...........|...........|...........|...........|...........|...........|...........|...........|...........|...........|...........|...........|...........|...........|...........|...........|...........|...........|...........|...........|...........|...........|...........|...........|...........|...........|...........|...........|...........|...........|...........|...........|...........|...........|...........|...........|...........|...........|...........|...........|...........|...........|...........|...........
|C-403v64SD2|...........|...........|...........|...........|...........|...........|...........|...........|...........|...........|...........|D#521v24SD2|D#621v24SD2|D#507v64SD2|D#607v64SD2|...........|D#522v64SD2|D#622v64SD2|...........|...........|...........|...........|D-315v64SD2|C#320v64SD2|A#314v64SD2|...........|...........|...........|D#409v64SD2|D#509v64SD2|...........|...........|...........|...........|...........|...........|...........|...........|...........|...........|...........|...........|...........
|...........|...........|...........|...........|...........|...........|...........|...........|...........|...........|...........|...........|...........|...........|...........|...........|...........|...........|...........|...........|...........|...........|...........|...........|...........|...........|...........|...........|...........|...........|...........|...........|...........|...........|...........|...........|...........|...........|...........|...........|...........|...........|...........|...........
|...........|...........|...........|...........|...........|...........|...........|...........|...........|...........|...........|...........|...........|...........|...........|...........|...........|...........|...........|...........|...........|...........|...........|...........|...........|...........|...........|...........|...........|...........|...........|...........|...........|...........|...........|...........|...........|...........|...........|...........|...........|...........|...........|...........
|...........|...........|...........|...........|...........|...........|...........|...........|...........|...........|...........|...........|...........|...........|...........|...........|...........|...........|...........|...........|...........|...........|...........|...........|...........|...........|...........|...........|...........|...........|...........|...........|...........|...........|...........|...........|...........|...........|...........|...........|...........|...........|...........|...........
|G-403v64SD2|...........|G-604v59SD2|D#704v59SD2|...........|...........|...........|...........|...........|G-606v64SD2|D#706v64SD2|...........|===.....SD2|===.....SD2|===.....SD2|===.....SD2|...........|===.....SD2|===.....SD2|...........|...........|...........|...........|F#312v64SD2|...........|...........|...........|...........|...........|===.....SD2|===.....SD2|...........|...........|...........|...........|...........|...........|...........|...........|...........|G-611v52SD2|D#711v52SD2|...........|...........
|...........|...........|...........|...........|...........|...........|...........|...........|...........|...........|...........|...........|...........|...........|...........|...........|...........|...........|...........|...........|...........|...........|...........|...........|...........|...........|...........|...........|...........|...........|...........|...........|...........|...........|...........|...........|...........|...........|...........|...........|...........|...........|...........|...........
|...........|...........|===.....SD2|===.....SD2|...........|...........|...........|...........|...........|===.....SD2|===.....SD2|...........|...........|...........|...........|...........|...........|...........|...........|...........|...........|...........|...........|F#312v64SD2|...........|...........|...........|...........|...........|...........|...........|...........|...........|...........|...........|...........|...........|...........|...........|...........|===.....SD2|===.....SD2|...........|...........
|...........|...........|...........|...........|...........|===.....SD4|===.....SD4|===.....SD4|...........|...........|...........|...........|...........|...........|...........|...........|...........|...........|...........|...........|...........|...........|...........|...........|...........|...........|...........|...........|...........|...........|...........|...........|...........|...........|...........|...........|===.....SD4|===.....SD4|===.....SD4|...........|...........|...........|...........|...........
|B-303v64SD2|...........|...........|...........|...........|B-305v64SD2|F#405v64SD2|D-505v64SD2|...........|...........|...........|...........|F#521v24SD2|F#621v24SD2|F#507v64SD2|F#607v64SD2|...........|F#522v64SD2|F#622v64SD2|...........|...........|...........|...........|C#320v64SD2|F#312v64SD2|C-302v64SD2|...........|...........|...........|F#409v64SD2|F#509v64SD2|...........|...........|...........|...........|...........|B-310v62SD2|F#410v62SD2|D-510v62SD2|...........|...........|...........|...........|...........
|...........|...........|...........|...........|...........|...........|...........|...........|...........|...........|...........|...........|...........|...........|...........|...........|...........|...........|...........|...........|...........|...........|...........|...........|...........|...........|...........|...........|...........|...........|...........|...........|...........|...........|...........|...........|...........|...........|...........|...........|...........|...........|...........|...........
|...........|...........|...........|...........|...........|...........|...........|...........|...........|...........|...........|...........|...........|...........|...........|...........|...........|...........|...........|...........|...........|...........|...........|...........|...........|...........|...........|...........|...........|...........|...........|...........|...........|...........|...........|...........|...........|...........|...........|...........|...........|...........|...........|...........
|...........|...........|...........|...........|...........|...........|...........|...........|...........|...........|...........|...........|...........|...........|...........|...........|...........|...........|...........|...........|...........|...........|...........|...........|...........|...........|...........|...........|...........|...........|...........|...........|...........|...........|...........|...........|...........|...........|...........|...........|...........|...........|...........|...........
|F#403v64SD2|...........|F#604v59SD2|D-704v59SD2|...........|...........|...........|...........|...........|F#606v64SD2|D-706v64SD2|...........|===.....SD2|===.....SD2|===.....SD2|===.....SD2|...........|===.....SD2|===.....SD2|...........|...........|...........|...........|E-313v42SD2|A#314v64SD2|...........|...........|...........|...........|===.....SD2|===.....SD2|...........|...........|...........|...........|...........|...........|...........|...........|...........|F#611v52SD2|D-711v52SD2|...........|...........
|...........|...........|...........|...........|...........|...........|...........|...........|...........|...........|...........|...........|...........|...........|...........|...........|...........|...........|...........|...........|...........|...........|...........|...........|...........|...........|...........|...........|...........|...........|...........|...........|...........|...........|...........|...........|...........|...........|...........|...........|...........|...........|...........|...........
|...........|...........|===.....SD2|===.....SD2|...........|...........|...........|...........|...........|===.....SD2|===.....SD2|...........|...........|...........|...........|...........|...........|...........|...........|...........|...........|...........|...........|E-313v42SD2|...........|...........|...........|...........|...........|...........|...........|...........|...........|...........|...........|...........|...........|...........|...........|...........|===.....SD2|===.....SD2|...........|...........
|...........|...........|...........|...........|...........|...........|...........|...........|...........|...........|...........|...........|...........|...........|...........|...........|...........|...........|...........|...........|...........|...........|...........|...........|...........|...........|...........|...........|...........|...........|...........|...........|...........|...........|...........|...........|...........|...........|...........|...........|...........|...........|...........|...........
|B-303v64SD2|...........|...........|...........|...........|...........|...........|...........|...........|...........|...........|...........|D-521v24SD2|D-621v24SD2|D-507v64SD2|D-607v64SD2|...........|D-522v64SD2|D-622v64SD2|...........|...........|...........|...........|D-315v64SD2|C#320v64SD2|F#312v64SD2|...........|...........|...........|D-409v64SD2|D-509v64SD2|...........|...........|...........|...........|...........|...........|...........|...........|...........|...........|...........|...........|...........
|...........|...........|...........|...........|...........|...........|...........|...........|...........|...........|...........|...........|...........|...........|...........|...........|...........|...........|...........|...........|...........|...........|...........|...........|...........|...........|...........|...........|...........|...........|...........|...........|...........|...........|...........|...........|...........|...........|...........|...........|...........|...........|...........|...........
|...........|...........|...........|...........|...........|...........|...........|...........|...........|...........|...........|...........|...........|...........|...........|...........|...........|...........|...........|...........|...........|...........|...........|...........|...........|...........|...........|...........|...........|...........|...........|...........|...........|...........|...........|...........|...........|...........|...........|...........|...........|...........|...........|...........
|...........|...........|...........|...........|...........|...........|...........|...........|...........|...........|...........|...........|...........|...........|...........|...........|...........|...........|...........|...........|...........|...........|...........|...........|...........|...........|...........|...........|...........|...........|...........|...........|...........|...........|...........|...........|...........|...........|...........|...........|...........|...........|...........|...........
|F#403v64SD2|...........|F#604v59SD2|D-704v59SD2|...........|...........|...........|...........|...........|F#606v64SD2|D-706v64SD2|...........|===.....SD2|===.....SD2|===.....SD2|===.....SD2|...........|===.....SD2|===.....SD2|...........|...........|...........|...........|D-315v59SD2|A#314v64SD2|...........|...........|...........|...........|===.....SD2|===.....SD2|...........|...........|...........|...........|...........|...........|...........|...........|...........|F#611v52SD2|D-711v52SD2|...........|...........
|...........|...........|...........|...........|...........|...........|...........|...........|...........|...........|...........|...........|...........|...........|...........|...........|...........|...........|...........|...........|...........|...........|...........|...........|...........|...........|...........|...........|...........|...........|...........|...........|...........|...........|...........|...........|...........|...........|...........|...........|...........|...........|...........|...........
|...........|...........|===.....SD2|===.....SD2|...........|...........|...........|...........|...........|===.....SD2|===.....SD2|...........|...........|...........|...........|...........|...........|...........|...........|...........|...........|...........|...........|F#312v64SD2|...........|...........|...........|...........|...........|...........|...........|...........|...........|...........|...........|...........|...........|...........|...........|...........|===.....SD2|===.....SD2|...........|...........
|...........|...........|...........|...........|...........|===.....SD4|===.....SD4|===.....SD4|...........|...........|...........|...........|...........|...........|...........|...........|...........|...........|...........|...........|...........|...........|...........|...........|...........|...........|...........|...........|...........|...........|...........|...........|...........|...........|...........|...........|===.....SD4|===.....SD4|===.....SD4|...........|...........|...........|...........|...........
|D-403v64SD2|...........|...........|...........|...........|D-405v64SD2|A-405v64SD2|F#505v64SD2|...........|...........|...........|...........|A-521v24SD2|A-621v24SD2|A-607v64SD2|A-707v64SD2|...........|A-522v64SD2|A-622v64SD2|...........|...........|D-508v01SD2|G#508v01SD2|C#320v64SD2|D#416v64SD2|F#312v64SD2|C-302v64SD2|...........|...........|A-509v64SD2|A-609v64SD2|...........|...........|...........|...........|...........|D-410v62SD2|A-410v62SD2|F#510v62SD2|...........|...........|...........|...........|...........
|...........|...........|...........|...........|...........|...........|...........|...........|...........|...........|...........|...........|...........|...........|...........|...........|...........|...........|...........|...........|...........|.....v04...|.....v04...|...........|...........|...........|...........|...........|...........|...........|...........|...........|...........|...........|...........|...........|...........|...........|...........|...........|...........|...........|...........|...........
|...........|...........|...........|...........|...........|...........|...........|...........|...........|...........|...........|...........|...........|...........|...........|...........|...........|...........|...........|...........|...........|.....v10...|.....v10...|...........|...........|...........|...........|...........|...........|...........|...........|...........|...........|...........|...........|...........|...........|...........|...........|...........|...........|...........|...........|...........
|...........|...........|...........|...........|...........|...........|...........|...........|...........|...........|...........|...........|...........|...........|...........|...........|...........|...........|...........|...........|...........|.....v16...|.....v16...|...........|...........|...........|...........|...........|...........|...........|...........|...........|...........|...........|...........|...........|...........|...........|...........|...........|...........|...........|...........|...........
|A-403v64SD2|...........|A-604v59SD2|F#704v59SD2|...........|...........|...........|...........|...........|A-606v64SD2|F#706v64SD2|...........|===.....SD2|===.....SD2|===.....SD2|===.....SD2|...........|===.....SD2|===.....SD2|...........|...........|.....v23...|.....v23...|E-313v64SD2|F#312v64SD2|...........|...........|...........|...........|===.....SD2|===.....SD2|...........|...........|...........|...........|...........|...........|...........|...........|...........|A-611v52SD2|F#711v52SD2|...........|...........
|...........|...........|...........|...........|...........|...........|...........|...........|...........|...........|...........|...........|...........|...........|...........|...........|...........|...........|...........|...........|...........|.....v29...|.....v29...|...........|...........|...........|...........|...........|...........|...........|...........|...........|...........|...........|...........|...........|...........|...........|...........|...........|...........|...........|...........|...........
|...........|...........|===.....SD2|===.....SD2|...........|...........|...........|...........|...........|===.....SD2|===.....SD2|...........|...........|...........|...........|...........|...........|...........|...........|...........|...........|.....v35...|.....v35...|E-313v64SD2|...........|...........|...........|...........|...........|...........|...........|...........|...........|...........|...........|...........|...........|...........|...........|...........|===.....SD2|===.....SD2|...........|...........
|...........|...........|...........|...........|...........|...........|...........|...........|...........|...........|...........|...........|...........|...........|...........|...........|...........|...........|...........|...........|...........|.....v41...|.....v41...|...........|...........|...........|...........|...........|...........|...........|...........|...........|...........|...........|...........|...........|...........|...........|...........|...........|...........|...........|...........|...........
|D-403v64SD2|...........|...........|...........|...........|...........|...........|...........|...........|...........|...........|...........|F#521v24SD2|F#621v24SD2|F#607v64SD2|F#707v64SD2|...........|F#522v64SD2|F#622v64SD2|...........|...........|.....v46...|.....v46...|C#320v64SD2|A#314v64SD2|C-302v64SD2|...........|...........|...........|F#509v64SD2|F#609v64SD2|...........|...........|...........|...........|...........|...........|...........|...........|...........|...........|...........|...........|...........
|...........|...........|...........|...........|...........|...........|...........|...........|...........|...........|...........|...........|...........|...........|...........|...........|...........|...........|...........|...........|...........|.....v50...|.....v50...|...........|...........|...........|...........|...........|...........|...........|...........|...........|...........|...........|...........|...........|...........|...........|...........|...........|...........|...........|...........|...........
|...........|...........|...........|...........|...........|...........|...........|...........|...........|...........|...........|...........|...........|...........|...........|...........|...........|...........|...........|...........|...........|.....v55...|.....v55...|E-313v64SD2|...........|...........|...........|...........|...........|...........|...........|...........|...........|...........|...........|...........|...........|...........|...........|...........|...........|...........|...........|...........
|...........|...........|...........|...........|...........|...........|...........|...........|...........|...........|...........|...........|...........|...........|...........|...........|...........|...........|...........|...........|...........|.....v57...|.....v57...|...........|...........|...........|...........|...........|...........|...........|...........|...........|...........|...........|...........|...........|...........|...........|...........|...........|...........|...........|...........|...........
|A-403v64SD2|...........|A-604v59SD2|F#704v59SD2|...........|...........|...........|...........|...........|A-606v64SD2|F#706v64SD2|...........|===.....SD2|===.....SD2|===.....SD2|===.....SD2|...........|===.....SD2|===.....SD2|...........|...........|.....v61...|.....v61...|E-313v64SD2|D-315v64SD2|F#312v64SD2|...........|...........|...........|===.....SD2|===.....SD2|...........|...........|...........|...........|...........|...........|...........|...........|...........|A-611v52SD2|F#711v52SD2|...........|...........
|...........|...........|...........|...........|...........|...........|...........|...........|...........|...........|...........|...........|...........|...........|...........|...........|...........|...........|...........|...........|...........|.....v63...|.....v63...|...........|...........|...........|...........|...........|...........|...........|...........|...........|...........|...........|...........|...........|...........|...........|...........|...........|...........|...........|...........|...........
|...........|...........|===.....SD2|===.....SD2|...........|...........|...........|...........|...........|===.....SD2|===.....SD2|...........|...........|...........|...........|...........|...........|...........|...........|...........|...........|.....v64...|.....v64...|E-313v64SD2|F#312v64SD2|...........|...........|...........|...........|...........|...........|...........|...........|...........|...........|...........|...........|...........|...........|...........|===.....SD2|===.....SD2|...........|...........
|...........|...........|...........|...........|...........|===.....SD4|===.....SD4|===.....SD4|...........|...........|...........|...........|...........|...........|...........|...........|...........|...........|...........|...........|...........|.....v64...|.....v64...|...........|...........|...........|...........|...........|...........|...........|...........|...........|...........|...........|...........|...........|===.....SD4|===.....SD4|===.....SD4|...........|...........|...........|...........|...........
|C#403v64SD2|...........|...........|...........|...........|C#405v64SD2|G#405v64SD2|F-505v64SD2|...........|...........|...........|...........|F-521v24SD2|F-621v24SD2|F-607v64SD2|F-707v64SD2|...........|F-522v64SD2|F-622v64SD2|...........|...........|.....v64...|.....v64...|C#320v64SD2|F#312v64SD2|C-302v64SD2|...........|...........|...........|F-509v64SD2|F-609v64SD2|...........|...........|...........|...........|...........|C#410v62SD2|G#410v62SD2|F-510v62SD2|...........|...........|...........|...........|...........
|...........|...........|...........|...........|...........|...........|...........|...........|...........|...........|...........|...........|...........|...........|...........|...........|...........|...........|...........|...........|...........|.....v64...|.....v64...|...........|...........|...........|...........|...........|...........|...........|...........|...........|...........|...........|...........|...........|...........|...........|...........|...........|...........|...........|...........|...........
|...........|...........|...........|...........|...........|...........|...........|...........|...........|...........|...........|...........|...........|...........|...........|...........|...........|...........|...........|...........|...........|.....v64...|.....v64...|E-313v64SD2|...........|...........|...........|...........|...........|...........|...........|...........|...........|...........|...........|...........|...........|...........|...........|...........|...........|...........|...........|...........
|...........|...........|...........|...........|...........|...........|...........|...........|...........|...........|...........|...........|...........|...........|...........|...........|...........|...........|...........|...........|...........|.....v64...|.....v64...|...........|...........|...........|...........|...........|...........|...........|...........|...........|...........|...........|...........|...........|...........|...........|...........|...........|...........|...........|...........|...........
|G#403v64SD2|...........|G#604v59SD2|F-704v59SD2|...........|...........|...........|...........|...........|G#606v64SD2|F-706v64SD2|...........|...........|...........|...........|...........|...........|...........|...........|...........|...........|...........|...........|E-313v64SD2|A#314v64SD2|...........|...........|...........|...........|...........|...........|...........|...........|...........|...........|...........|...........|...........|...........|...........|G#611v52SD2|F-711v52SD2|...........|...........
|...........|...........|...........|...........|...........|...........|...........|...........|...........|...........|...........|...........|...........|...........|...........|...........|...........|...........|...........|...........|...........|.....v64...|.....v64...|...........|...........|...........|...........|...........|...........|...........|...........|...........|...........|...........|...........|...........|...........|...........|...........|...........|...........|...........|...........|...........
|...........|...........|===.....SD2|===.....SD2|...........|...........|...........|...........|...........|===.....SD2|===.....SD2|...........|...........|...........|........EEC|........EEC|...........|...........|...........|...........|...........|...........|...........|...........|...........|...........|...........|...........|...........|........EE6|........EE6|...........|...........|...........|...........|...........|...........|...........|...........|...........|===.....SD2|===.....SD2|...........|...........
|...........|...........|...........|...........|...........|...........|...........|...........|...........|...........|...........|...........|...........|...........|........EEC|........EEC|...........|...........|...........|...........|...........|.....v64...|.....v64...|...........|...........|...........|...........|...........|...........|........EE6|........EE6|...........|...........|...........|...........|...........|...........|...........|...........|...........|...........|...........|...........|...........
|C#403v64SD2|...........|...........|...........|...........|...........|...........|...........|...........|...........|...........|...........|...........|...........|...........|...........|...........|...........|...........|...........|...........|...........|...........|E-313v64SD2|C#320v64SD2|F#312v64SD2|C-302v64SD2|...........|...........|...........|...........|...........|...........|...........|...........|...........|...........|...........|...........|...........|...........|...........|...........|...........
|...........|...........|...........|...........|...........|...........|...........|...........|...........|...........|...........|...........|...........|...........|........EF6|........EF6|...........|...........|...........|...........|...........|...........|...........|...........|...........|...........|...........|...........|...........|........EEC|........EEC|...........|...........|...........|...........|...........|...........|...........|...........|...........|...........|...........|...........|...........
|...........|...........|...........|...........|...........|...........|...........|...........|...........|...........|...........|...........|...........|...........|........EEC|........EEC|...........|...........|...........|...........|...........|.....v64...|.....v64...|E-313v64SD2|...........|...........|...........|...........|...........|........EE6|........EE6|...........|...........|...........|...........|...........|...........|...........|...........|...........|...........|...........|...........|...........
|...........|...........|...........|...........|...........|...........|...........|...........|...........|...........|...........|...........|...........|...........|........EF9|........EF9|...........|...........|...........|...........|...........|...........|...........|...........|...........|...........|...........|...........|...........|........EF5|........EF5|...........|...........|...........|...........|...........|...........|...........|...........|...........|...........|...........|...........|...........
|G#403v64SD2|...........|G#604v59SD2|F-704v59SD2|...........|...........|...........|...........|...........|G#606v64SD2|F-706v64SD2|...........|...........|...........|........EF9|........EF9|...........|...........|...........|...........|...........|...........|...........|E-313v64SD2|D-315v64SD2|A#314v64SD2|...........|...........|...........|........EF4|........EF4|...........|...........|...........|...........|...........|...........|...........|...........|...........|G#611v52SD2|F-711v52SD2|...........|...........
|...........|...........|...........|...........|...........|...........|...........|...........|...........|...........|...........|...........|...........|...........|........EFF|........EFF|...........|...........|...........|...........|...........|...........|...........|...........|...........|...........|...........|...........|...........|........EF8|........EF8|...........|...........|...........|...........|...........|...........|...........|...........|...........|...........|...........|...........|...........
|...........|...........|===.....SD2|===.....SD2|...........|...........|...........|...........|...........|===.....SD2|===.....SD2|...........|...........|...........|........E04|........E04|...........|...........|...........|...........|...........|...........|...........|E-313v64SD2|F#312v64SD2|...........|...........|...........|...........|........EFA|........EFA|...........|...........|...........|...........|...........|...........|...........|...........|...........|===.....SD2|===.....SD2|...........|...........
|...........|...........|...........|...........|...........|===.....SD4|===.....SD4|===.....SD4|...........|...........|...........|...........|===.....SD4|===.....SD4|===.....SD4|===.....SD4|...........|===.....SD4|===.....SD4|...........|...........|...........|...........|...........|...........|...........|...........|...........|...........|===.....SD4|===.....SD4|...........|...........|...........|...........|...........|===.....SD4|===.....SD4|===.....SD4|...........|...........|...........|...........|...........


|C-403v64SD2|...........|...........|...........|...........|C-405v64SD2|G-405v64SD2|D#505v64SD2|...........|...........|...........|...........|G-521v24SD2|G-621v24SD2|G-507v64SD2|G-607v64SD2|...........|G-522v64SD2|G-622v64SD2|...........|...........|...........|...........|C#401v64SD2|C#320v64SD2|D#416v64SD2|F#312v64SD2|C-302v64SD2|...........|G-409v64SD2|G-509v64SD2|...........|...........|...........|...........|...........|C-410v62SD2|G-410v62SD2|D#510v62SD2|...........|...........|...........|...........|...........
|...........|...........|...........|...........|...........|...........|...........|...........|...........|...........|...........|...........|...........|...........|...........|...........|...........|...........|...........|...........|...........|...........|...........|...........|...........|...........|...........|...........|...........|...........|...........|...........|...........|...........|...........|...........|...........|...........|...........|...........|...........|...........|...........|...........
|...........|...........|...........|...........|...........|...........|...........|...........|...........|...........|...........|...........|...........|...........|...........|...........|...........|...........|...........|...........|...........|...........|...........|...........|...........|...........|...........|...........|...........|...........|...........|...........|...........|...........|...........|...........|...........|...........|...........|...........|...........|...........|...........|...........
|...........|...........|...........|...........|...........|...........|...........|...........|...........|...........|...........|...........|...........|...........|...........|...........|...........|...........|...........|...........|...........|...........|...........|...........|...........|...........|...........|...........|...........|...........|...........|...........|...........|...........|...........|...........|...........|...........|...........|...........|...........|...........|...........|...........
|G-403v64SD2|...........|G-604v59SD2|D#704v59SD2|...........|...........|...........|...........|...........|G-606v64SD2|D#706v64SD2|...........|===.....SD2|===.....SD2|===.....SD2|===.....SD2|...........|===.....SD2|===.....SD2|...........|...........|...........|...........|F#312v64SD2|...........|...........|...........|...........|...........|===.....SD2|===.....SD2|...........|...........|...........|...........|...........|...........|...........|...........|...........|G-611v52SD2|D#711v52SD2|...........|...........
|...........|...........|...........|...........|...........|...........|...........|...........|...........|...........|...........|...........|...........|...........|...........|...........|...........|...........|...........|...........|...........|...........|...........|...........|...........|...........|...........|...........|...........|...........|...........|...........|...........|...........|...........|...........|...........|...........|...........|...........|...........|...........|...........|...........
|...........|...........|===.....SD2|===.....SD2|...........|...........|...........|...........|...........|===.....SD2|===.....SD2|...........|...........|...........|...........|...........|...........|...........|...........|...........|...........|...........|...........|...........|...........|...........|...........|...........|...........|...........|...........|...........|...........|...........|...........|...........|...........|...........|...........|...........|===.....SD2|===.....SD2|...........|...........
|...........|...........|...........|...........|...........|...........|...........|...........|...........|...........|...........|...........|...........|...........|...........|...........|...........|...........|...........|...........|...........|...........|...........|...........|...........|...........|...........|...........|...........|...........|...........|...........|...........|...........|...........|...........|...........|...........|...........|...........|...........|...........|...........|...........
|C-403v64SD2|...........|...........|...........|...........|...........|...........|...........|...........|...........|...........|...........|D#521v24SD2|D#621v24SD2|D#507v64SD2|D#607v64SD2|...........|D#522v64SD2|D#622v64SD2|...........|...........|...........|...........|D-315v64SD2|C#320v64SD2|A#314v64SD2|...........|...........|...........|D#409v64SD2|D#509v64SD2|...........|...........|...........|...........|...........|...........|...........|...........|...........|...........|...........|...........|...........
|...........|...........|...........|...........|...........|...........|...........|...........|...........|...........|...........|...........|...........|...........|...........|...........|...........|...........|...........|...........|...........|...........|...........|...........|...........|...........|...........|...........|...........|...........|...........|...........|...........|...........|...........|...........|...........|...........|...........|...........|...........|...........|...........|...........
|...........|...........|...........|...........|...........|...........|...........|...........|...........|...........|...........|...........|...........|...........|...........|...........|...........|...........|...........|...........|...........|...........|...........|...........|...........|...........|...........|...........|...........|...........|...........|...........|...........|...........|...........|...........|...........|...........|...........|...........|...........|...........|...........|...........
|...........|...........|...........|...........|...........|...........|...........|...........|...........|...........|...........|...........|...........|...........|...........|...........|...........|...........|...........|...........|...........|...........|...........|...........|...........|...........|...........|...........|...........|...........|...........|...........|...........|...........|...........|...........|...........|...........|...........|...........|...........|...........|...........|...........
|G-403v64SD2|...........|G-604v59SD2|D#704v59SD2|...........|...........|...........|...........|...........|G-606v64SD2|D#706v64SD2|...........|===.....SD2|===.....SD2|===.....SD2|===.....SD2|...........|===.....SD2|===.....SD2|...........|...........|...........|...........|F#312v64SD2|...........|...........|...........|...........|...........|===.....SD2|===.....SD2|...........|...........|...........|...........|...........|...........|...........|...........|...........|G-611v52SD2|D#711v52SD2|...........|...........
|...........|...........|...........|...........|...........|...........|...........|...........|...........|...........|...........|...........|...........|...........|...........|...........|...........|...........|...........|...........|...........|...........|...........|...........|...........|...........|...........|...........|...........|...........|...........|...........|...........|...........|...........|...........|...........|...........|...........|...........|...........|...........|...........|...........
|...........|...........|===.....SD2|===.....SD2|...........|...........|...........|...........|...........|===.....SD2|===.....SD2|...........|...........|...........|...........|...........|...........|...........|...........|...........|...........|...........|...........|F#312v64SD2|...........|...........|...........|...........|...........|...........|...........|...........|...........|...........|...........|...........|...........|...........|...........|...........|===.....SD2|===.....SD2|...........|...........
|...........|...........|...........|...........|...........|===.....SD4|===.....SD4|===.....SD4|...........|...........|...........|...........|...........|...........|...........|...........|...........|...........|...........|...........|...........|...........|...........|...........|...........|...........|...........|...........|...........|...........|...........|...........|...........|...........|...........|...........|===.....SD4|===.....SD4|===.....SD4|...........|...........|...........|...........|...........
|B-303v64SD2|...........|...........|...........|...........|B-305v64SD2|F#405v64SD2|D-505v64SD2|...........|...........|...........|...........|F#521v24SD2|F#621v24SD2|F#507v64SD2|F#607v64SD2|...........|F#522v64SD2|F#622v64SD2|...........|...........|...........|...........|C#320v64SD2|F#312v64SD2|C-302v64SD2|...........|...........|...........|F#409v64SD2|F#509v64SD2|...........|...........|...........|...........|...........|B-310v62SD2|F#410v62SD2|D-510v62SD2|...........|...........|...........|...........|...........


ModPlug Tracker MPT
|...........|...........|...........|...........|...........|...........|...........|...........|...........|...........|...........|...........|...........|...........|...........|...........|...........|...........|...........|...........|...........|...........|...........|...........|...........|...........|...........|...........|...........|...........|...........|...........|...........|...........|...........|...........|...........|...........|...........|...........|...........|...........|...........|...........
|...........|...........|...........|...........|...........|...........|...........|...........|...........|...........|...........|...........|...........|...........|...........|...........|...........|...........|...........|...........|...........|...........|...........|...........|...........|...........|...........|...........|...........|...........|...........|...........|...........|...........|...........|...........|...........|...........|...........|...........|...........|...........|...........|...........
|...........|...........|...........|...........|...........|...........|...........|...........|...........|...........|...........|...........|...........|...........|...........|...........|...........|...........|...........|...........|...........|...........|...........|...........|...........|...........|...........|...........|...........|...........|...........|...........|...........|...........|...........|...........|...........|...........|...........|...........|...........|...........|...........|...........
|F#403v64SD2|...........|F#604v59SD2|D-704v59SD2|...........|...........|...........|...........|...........|F#606v64SD2|D-706v64SD2|...........|===.....SD2|===.....SD2|===.....SD2|===.....SD2|...........|===.....SD2|===.....SD2|...........|...........|...........|...........|E-313v42SD2|A#314v64SD2|...........|...........|...........|...........|===.....SD2|===.....SD2|...........|...........|...........|...........|...........|...........|...........|...........|...........|F#611v52SD2|D-711v52SD2|...........|...........
|...........|...........|...........|...........|...........|...........|...........|...........|...........|...........|...........|...........|...........|...........|...........|...........|...........|...........|...........|...........|...........|...........|...........|...........|...........|...........|...........|...........|...........|...........|...........|...........|...........|...........|...........|...........|...........|...........|...........|...........|...........|...........|...........|...........
|...........|...........|===.....SD2|===.....SD2|...........|...........|...........|...........|...........|===.....SD2|===.....SD2|...........|...........|...........|...........|...........|...........|...........|...........|...........|...........|...........|...........|...........|...........|...........|...........|...........|...........|...........|...........|...........|...........|...........|...........|...........|...........|...........|...........|...........|===.....SD2|===.....SD2|...........|...........
|...........|...........|...........|...........|...........|...........|...........|...........|...........|...........|...........|...........|...........|...........|...........|...........|...........|...........|...........|...........|...........|...........|...........|...........|...........|...........|...........|...........|...........|...........|...........|...........|...........|...........|...........|...........|...........|...........|...........|...........|...........|...........|...........|...........
|B-303v64SD2|...........|...........|...........|...........|...........|...........|...........|...........|...........|...........|...........|D-521v24SD2|D-621v24SD2|D-507v64SD2|D-607v64SD2|...........|D-522v64SD2|D-622v64SD2|...........|...........|...........|...........|D-315v64SD2|C#320v64SD2|F#312v64SD2|...........|...........|...........|D-409v64SD2|D-509v64SD2|...........|...........|...........|...........|...........|...........|...........|...........|...........|...........|...........|...........|...........
|...........|...........|...........|...........|...........|...........|...........|...........|...........|...........|...........|...........|...........|...........|...........|...........|...........|...........|...........|...........|...........|...........|...........|...........|...........|...........|...........|...........|...........|...........|...........|...........|...........|...........|...........|...........|...........|...........|...........|...........|...........|...........|...........|...........
|...........|...........|...........|...........|...........|...........|...........|...........|...........|...........|...........|...........|...........|...........|...........|...........|...........|...........|...........|...........|...........|...........|...........|...........|...........|...........|...........|...........|...........|...........|...........|...........|...........|...........|...........|...........|...........|...........|...........|...........|...........|...........|...........|...........
|...........|...........|...........|...........|...........|...........|...........|...........|...........|...........|...........|...........|...........|...........|...........|...........|...........|...........|...........|...........|...........|...........|...........|...........|...........|...........|...........|...........|...........|...........|...........|...........|...........|...........|...........|...........|...........|...........|...........|...........|...........|...........|...........|...........
|F#403v64SD2|...........|F#604v59SD2|D-704v59SD2|...........|...........|...........|...........|...........|F#606v64SD2|D-706v64SD2|...........|===.....SD2|===.....SD2|===.....SD2|===.....SD2|...........|===.....SD2|===.....SD2|...........|...........|...........|...........|D-315v59SD2|A#314v64SD2|...........|...........|...........|...........|===.....SD2|===.....SD2|...........|...........|...........|...........|...........|...........|...........|...........|...........|F#611v52SD2|D-711v52SD2|...........|...........
|...........|...........|...........|...........|...........|...........|...........|...........|...........|...........|...........|...........|...........|...........|...........|...........|...........|...........|...........|...........|...........|...........|...........|...........|...........|...........|...........|...........|...........|...........|...........|...........|...........|...........|...........|...........|...........|...........|...........|...........|...........|...........|...........|...........
|...........|...........|===.....SD2|===.....SD2|...........|...........|...........|...........|...........|===.....SD2|===.....SD2|...........|...........|...........|...........|...........|...........|...........|...........|...........|...........|...........|...........|F#312v64SD2|...........|...........|...........|...........|...........|...........|...........|...........|...........|...........|...........|...........|...........|...........|...........|...........|===.....SD2|===.....SD2|...........|...........
|...........|...........|...........|...........|...........|===.....SD4|===.....SD4|===.....SD4|...........|...........|...........|...........|...........|...........|...........|...........|...........|...........|...........|...........|...........|...........|...........|...........|...........|...........|...........|...........|...........|...........|...........|...........|...........|...........|...........|...........|===.....SD4|===.....SD4|===.....SD4|...........|...........|...........|...........|...........
|D-403v64SD2|...........|...........|...........|...........|D-405v64SD2|A-405v64SD2|F#505v64SD2|...........|...........|...........|...........|A-521v24SD2|A-621v24SD2|A-507v64SD2|A-607v64SD2|...........|A-522v64SD2|A-622v64SD2|...........|...........|...........|...........|C#320v64SD2|D#416v64SD2|F#312v64SD2|C-302v64SD2|...........|...........|A-409v64SD2|A-509v64SD2|...........|...........|...........|...........|...........|D-410v62SD2|A-410v62SD2|F#510v62SD2|...........|...........|...........|...........|...........
|...........|...........|...........|...........|...........|...........|...........|...........|...........|...........|...........|...........|...........|...........|...........|...........|...........|...........|...........|...........|...........|...........|...........|...........|...........|...........|...........|...........|...........|...........|...........|...........|...........|...........|...........|...........|...........|...........|...........|...........|...........|...........|...........|...........
|...........|...........|...........|...........|...........|...........|...........|...........|...........|...........|...........|...........|...........|...........|...........|...........|...........|...........|...........|...........|...........|...........|...........|...........|...........|...........|...........|...........|...........|...........|...........|...........|...........|...........|...........|...........|...........|...........|...........|...........|...........|...........|...........|...........
|...........|...........|...........|...........|...........|...........|...........|...........|...........|...........|...........|...........|...........|...........|...........|...........|...........|...........|...........|...........|...........|...........|...........|...........|...........|...........|...........|...........|...........|...........|...........|...........|...........|...........|...........|...........|...........|...........|...........|...........|...........|...........|...........|...........
|A-403v64SD2|...........|A-604v59SD2|F#704v59SD2|...........|...........|...........|...........|...........|A-606v64SD2|F#706v64SD2|...........|===.....SD2|===.....SD2|===.....SD2|===.....SD2|...........|===.....SD2|===.....SD2|...........|...........|...........|...........|F#312v64SD2|...........|...........|...........|...........|...........|===.....SD2|===.....SD2|...........|...........|...........|...........|...........|...........|...........|...........|...........|A-611v52SD2|F#711v52SD2|...........|...........
|...........|...........|...........|...........|...........|...........|...........|...........|...........|...........|...........|...........|...........|...........|...........|...........|...........|...........|...........|...........|...........|...........|...........|...........|...........|...........|...........|...........|...........|...........|...........|...........|...........|...........|...........|...........|...........|...........|...........|...........|...........|...........|...........|...........
|...........|...........|===.....SD2|===.....SD2|...........|...........|...........|...........|...........|===.....SD2|===.....SD2|...........|...........|...........|...........|...........|...........|...........|...........|...........|...........|...........|...........|...........|...........|...........|...........|...........|...........|...........|...........|...........|...........|...........|...........|...........|...........|...........|...........|...........|===.....SD2|===.....SD2|...........|...........
|...........|...........|...........|...........|...........|...........|...........|...........|...........|...........|...........|...........|...........|...........|...........|...........|...........|...........|...........|...........|...........|...........|...........|...........|...........|...........|...........|...........|...........|...........|...........|...........|...........|...........|...........|...........|...........|...........|...........|...........|...........|...........|...........|...........
|D-403v64SD2|...........|...........|...........|...........|...........|...........|...........|...........|...........|...........|...........|F#521v24SD2|F#621v24SD2|F#507v64SD2|F#607v64SD2|...........|F#522v64SD2|F#622v64SD2|...........|...........|...........|...........|D-315v64SD2|C#320v64SD2|A#314v64SD2|...........|...........|...........|F#409v64SD2|F#509v64SD2|...........|...........|...........|...........|...........|...........|...........|...........|...........|...........|...........|...........|...........
|...........|...........|...........|...........|...........|...........|...........|...........|...........|...........|...........|...........|...........|...........|...........|...........|...........|...........|...........|...........|...........|...........|...........|...........|...........|...........|...........|...........|...........|...........|...........|...........|...........|...........|...........|...........|...........|...........|...........|...........|...........|...........|...........|...........
|...........|...........|...........|...........|...........|...........|...........|...........|...........|...........|...........|...........|...........|...........|...........|...........|...........|...........|...........|...........|...........|...........|...........|...........|...........|...........|...........|...........|...........|...........|...........|...........|...........|...........|...........|...........|...........|...........|...........|...........|...........|...........|...........|...........
|...........|...........|...........|...........|...........|...........|...........|...........|...........|...........|...........|...........|...........|...........|...........|...........|...........|...........|...........|...........|...........|...........|...........|...........|...........|...........|...........|...........|...........|...........|...........|...........|...........|...........|...........|...........|...........|...........|...........|...........|...........|...........|...........|...........
|A-403v64SD2|...........|A-604v59SD2|F#704v59SD2|...........|...........|...........|...........|...........|A-606v64SD2|F#706v64SD2|...........|===.....SD2|===.....SD2|===.....SD2|===.....SD2|...........|===.....SD2|===.....SD2|...........|...........|...........|...........|D-315v64SD2|F#312v64SD2|...........|...........|...........|...........|===.....SD2|===.....SD2|...........|...........|...........|...........|...........|...........|...........|...........|...........|A-611v52SD2|F#711v52SD2|...........|...........
|...........|...........|...........|...........|...........|...........|...........|...........|...........|...........|...........|...........|...........|...........|...........|...........|...........|...........|...........|...........|...........|...........|...........|...........|...........|...........|...........|...........|...........|...........|...........|...........|...........|...........|...........|...........|...........|...........|...........|...........|...........|...........|...........|...........
|...........|...........|===.....SD2|===.....SD2|...........|...........|...........|...........|...........|===.....SD2|===.....SD2|...........|...........|...........|...........|...........|...........|...........|...........|...........|...........|...........|...........|F#312v64SD2|...........|...........|...........|...........|...........|...........|...........|...........|...........|...........|...........|...........|...........|...........|...........|...........|===.....SD2|===.....SD2|...........|...........
|...........|...........|...........|...........|...........|===.....SD4|===.....SD4|===.....SD4|...........|...........|...........|...........|...........|...........|...........|...........|...........|...........|...........|...........|...........|...........|...........|...........|...........|...........|...........|...........|...........|...........|...........|...........|...........|...........|...........|...........|===.....SD4|===.....SD4|===.....SD4|...........|...........|...........|...........|...........
|C#403v64SD2|...........|...........|...........|...........|C#405v64SD2|G#405v64SD2|F-505v64SD2|...........|...........|...........|...........|F-521v24SD2|F-621v24SD2|F-507v64SD2|F-607v64SD2|...........|F-522v64SD2|F-622v64SD2|...........|...........|...........|...........|C#320v64SD2|F#312v64SD2|C-302v64SD2|...........|...........|...........|F-409v64SD2|F-509v64SD2|...........|...........|...........|...........|...........|C#410v62SD2|G#410v62SD2|F-510v62SD2|...........|...........|...........|...........|...........
|...........|...........|...........|...........|...........|...........|...........|...........|...........|...........|...........|...........|...........|...........|...........|...........|...........|...........|...........|...........|...........|...........|...........|...........|...........|...........|...........|...........|...........|...........|...........|...........|...........|...........|...........|...........|...........|...........|...........|...........|...........|...........|...........|...........
|...........|...........|...........|...........|...........|...........|...........|...........|...........|...........|...........|...........|...........|...........|...........|...........|...........|...........|...........|...........|...........|...........|...........|...........|...........|...........|...........|...........|...........|...........|...........|...........|...........|...........|...........|...........|...........|...........|...........|...........|...........|...........|...........|...........
|...........|...........|...........|...........|...........|...........|...........|...........|...........|...........|...........|...........|...........|...........|...........|...........|...........|...........|...........|...........|...........|...........|...........|...........|...........|...........|...........|...........|...........|...........|...........|...........|...........|...........|...........|...........|...........|...........|...........|...........|...........|...........|...........|...........
|G#403v64SD2|...........|G#604v59SD2|F-704v59SD2|...........|...........|...........|...........|...........|G#606v64SD2|F-706v64SD2|...........|===.....SD2|===.....SD2|===.....SD2|===.....SD2|...........|===.....SD2|===.....SD2|...........|...........|...........|...........|A#314v64SD2|...........|...........|...........|...........|...........|===.....SD2|===.....SD2|...........|...........|...........|...........|...........|...........|...........|...........|...........|G#611v52SD2|F-711v52SD2|...........|...........
|...........|...........|...........|...........|...........|...........|...........|...........|...........|...........|...........|...........|...........|...........|...........|...........|...........|...........|...........|...........|...........|...........|...........|...........|...........|...........|...........|...........|...........|...........|...........|...........|...........|...........|...........|...........|...........|...........|...........|...........|...........|...........|...........|...........
|...........|...........|===.....SD2|===.....SD2|...........|...........|...........|...........|...........|===.....SD2|===.....SD2|...........|...........|...........|...........|...........|...........|...........|...........|...........|...........|...........|...........|...........|...........|...........|...........|...........|...........|...........|...........|...........|...........|...........|...........|...........|...........|...........|...........|...........|===.....SD2|===.....SD2|...........|...........
|...........|...........|...........|...........|...........|...........|...........|...........|...........|...........|...........|...........|...........|...........|...........|...........|...........|...........|...........|...........|...........|...........|...........|...........|...........|...........|...........|...........|...........|...........|...........|...........|...........|...........|...........|...........|...........|...........|...........|...........|...........|...........|...........|...........
|C#403v64SD2|...........|...........|...........|...........|...........|...........|...........|...........|...........|...........|...........|G#521v24SD2|G#621v24SD2|G#507v64SD2|G#607v64SD2|...........|G#522v64SD2|G#622v64SD2|...........|...........|...........|...........|D-315v64SD2|C#320v64SD2|F#312v64SD2|...........|...........|...........|G#409v64SD2|G#509v64SD2|...........|...........|...........|...........|...........|...........|...........|...........|...........|...........|...........|...........|...........
|...........|...........|...........|...........|...........|...........|...........|...........|...........|...........|...........|...........|...........|...........|...........|...........|...........|...........|...........|...........|...........|...........|...........|...........|...........|...........|...........|...........|...........|...........|...........|...........|...........|...........|...........|...........|...........|...........|...........|...........|...........|...........|...........|...........
|...........|...........|...........|...........|...........|...........|...........|...........|...........|...........|...........|...........|...........|...........|...........|...........|...........|...........|...........|...........|...........|...........|...........|...........|...........|...........|...........|...........|...........|...........|...........|...........|...........|...........|...........|...........|...........|...........|...........|...........|...........|...........|...........|...........
|...........|...........|...........|...........|...........|...........|...........|...........|...........|...........|...........|...........|...........|...........|...........|...........|...........|...........|...........|...........|...........|...........|...........|...........|...........|...........|...........|...........|...........|...........|...........|...........|...........|...........|...........|...........|...........|...........|...........|...........|...........|...........|...........|...........
|G#403v64SD2|...........|G#604v59SD2|F-704v59SD2|...........|...........|...........|...........|...........|G#606v64SD2|F-706v64SD2|...........|===.....SD2|===.....SD2|===.....SD2|===.....SD2|...........|===.....SD2|===.....SD2|...........|...........|...........|...........|D-315v64SD2|A#314v64SD2|...........|...........|...........|...........|===.....SD2|===.....SD2|...........|...........|...........|...........|...........|...........|...........|...........|...........|G#611v52SD2|F-711v52SD2|...........|...........
|...........|...........|...........|...........|...........|...........|...........|...........|...........|...........|...........|...........|...........|...........|...........|...........|...........|...........|...........|...........|...........|...........|...........|...........|...........|...........|...........|...........|...........|...........|...........|...........|...........|...........|...........|...........|...........|...........|...........|...........|...........|...........|...........|...........
|...........|...........|===.....SD2|===.....SD2|...........|...........|...........|...........|...........|===.....SD2|===.....SD2|...........|...........|...........|...........|...........|...........|...........|...........|...........|...........|...........|...........|F#312v64SD2|...........|...........|...........|...........|...........|...........|...........|...........|...........|...........|...........|...........|...........|...........|...........|...........|===.....SD2|===.....SD2|...........|...........
|...........|...........|...........|...........|...........|===.....SD4|===.....SD4|===.....SD4|...........|...........|...........|...........|...........|...........|...........|...........|...........|...........|...........|...........|...........|...........|...........|...........|...........|...........|...........|...........|...........|...........|...........|...........|...........|...........|...........|...........|===.....SD4|===.....SD4|===.....SD4|...........|...........|...........|...........|...........
|C-403v64SD2|...........|...........|...........|...........|C-405v64SD2|G-405v64SD2|D#505v64SD2|...........|...........|...........|...........|G-521v24SD2|G-621v24SD2|G-507v64SD2|G-607v64SD2|...........|G-522v64SD2|G-622v64SD2|...........|...........|...........|...........|C#320v64SD2|D#416v64SD2|F#312v64SD2|C-302v64SD2|...........|...........|G-409v64SD2|G-509v64SD2|...........|...........|...........|...........|...........|C-410v62SD2|G-410v62SD2|D#510v62SD2|...........|...........|...........|...........|...........
|...........|...........|...........|...........|...........|...........|...........|...........|...........|...........|...........|...........|...........|...........|...........|...........|...........|...........|...........|...........|...........|...........|...........|...........|...........|...........|...........|...........|...........|...........|...........|...........|...........|...........|...........|...........|...........|...........|...........|...........|...........|...........|...........|...........
|...........|...........|...........|...........|...........|...........|...........|...........|...........|...........|...........|...........|...........|...........|...........|...........|...........|...........|...........|...........|...........|...........|...........|...........|...........|...........|...........|...........|...........|...........|...........|...........|...........|...........|...........|...........|...........|...........|...........|...........|...........|...........|...........|...........
|...........|...........|...........|...........|...........|...........|...........|...........|...........|...........|...........|...........|...........|...........|...........|...........|...........|...........|...........|...........|...........|...........|...........|...........|...........|...........|...........|...........|...........|...........|...........|...........|...........|...........|...........|...........|...........|...........|...........|...........|...........|...........|...........|...........
|G-403v64SD2|...........|G-604v59SD2|D#704v59SD2|...........|...........|...........|...........|...........|G-606v64SD2|D#706v64SD2|...........|===.....SD2|===.....SD2|===.....SD2|===.....SD2|...........|===.....SD2|===.....SD2|...........|...........|...........|...........|F#312v64SD2|...........|...........|...........|...........|...........|===.....SD2|===.....SD2|...........|...........|...........|...........|...........|...........|...........|...........|...........|G-611v52SD2|D#711v52SD2|...........|...........
|...........|...........|...........|...........|...........|...........|...........|...........|...........|...........|...........|...........|...........|...........|...........|...........|...........|...........|...........|...........|...........|...........|...........|...........|...........|...........|...........|...........|...........|...........|...........|...........|...........|...........|...........|...........|...........|...........|...........|...........|...........|...........|...........|...........
|...........|...........|===.....SD2|===.....SD2|...........|...........|...........|...........|...........|===.....SD2|===.....SD2|...........|...........|...........|...........|...........|...........|...........|...........|...........|...........|...........|...........|...........|...........|...........|...........|...........|...........|...........|...........|...........|...........|...........|...........|...........|...........|...........|...........|...........|===.....SD2|===.....SD2|...........|...........
|...........|...........|...........|...........|...........|...........|...........|...........|...........|...........|...........|...........|...........|...........|...........|...........|...........|...........|...........|...........|...........|...........|...........|...........|...........|...........|...........|...........|...........|...........|...........|...........|...........|...........|...........|...........|...........|...........|...........|...........|...........|...........|...........|...........
|C-403v64SD2|...........|...........|...........|...........|...........|...........|...........|...........|...........|...........|...........|D#521v24SD2|D#621v24SD2|D#507v64SD2|D#607v64SD2|...........|D#522v64SD2|D#622v64SD2|...........|...........|...........|...........|D-315v64SD2|C#320v64SD2|A#314v64SD2|...........|...........|...........|D#409v64SD2|D#509v64SD2|...........|...........|...........|...........|...........|...........|...........|...........|...........|...........|...........|...........|...........
|...........|...........|...........|...........|...........|...........|...........|...........|...........|...........|...........|...........|...........|...........|...........|...........|...........|...........|...........|...........|...........|...........|...........|...........|...........|...........|...........|...........|...........|...........|...........|...........|...........|...........|...........|...........|...........|...........|...........|...........|...........|...........|...........|...........
|...........|...........|...........|...........|...........|...........|...........|...........|...........|...........|...........|...........|...........|...........|...........|...........|...........|...........|...........|...........|...........|...........|...........|...........|...........|...........|...........|...........|...........|...........|...........|...........|...........|...........|...........|...........|...........|...........|...........|...........|...........|...........|...........|...........
|...........|...........|...........|...........|...........|...........|...........|...........|...........|...........|...........|...........|...........|...........|...........|...........|...........|...........|...........|...........|...........|...........|...........|...........|...........|...........|...........|...........|...........|...........|...........|...........|...........|...........|...........|...........|...........|...........|...........|...........|...........|...........|...........|...........
|G-403v64SD2|...........|G-604v59SD2|D#704v59SD2|...........|...........|...........|...........|...........|G-606v64SD2|D#706v64SD2|...........|===.....SD2|===.....SD2|===.....SD2|===.....SD2|...........|===.....SD2|===.....SD2|...........|...........|...........|...........|F#312v64SD2|...........|...........|...........|...........|...........|===.....SD2|===.....SD2|...........|...........|...........|...........|...........|...........|...........|...........|...........|G-611v52SD2|D#711v52SD2|...........|...........
|...........|...........|...........|...........|...........|...........|...........|...........|...........|...........|...........|...........|...........|...........|...........|...........|...........|...........|...........|...........|...........|...........|...........|...........|...........|...........|...........|...........|...........|...........|...........|...........|...........|...........|...........|...........|...........|...........|...........|...........|...........|...........|...........|...........
|...........|...........|===.....SD2|===.....SD2|...........|...........|...........|...........|...........|===.....SD2|===.....SD2|...........|...........|...........|...........|...........|...........|...........|...........|...........|...........|...........|...........|F#312v64SD2|...........|...........|...........|...........|...........|...........|...........|...........|...........|...........|...........|...........|...........|...........|...........|...........|===.....SD2|===.....SD2|...........|...........
|...........|...........|...........|...........|...........|===.....SD4|===.....SD4|===.....SD4|...........|...........|...........|...........|...........|...........|...........|...........|...........|...........|...........|...........|...........|...........|...........|...........|...........|...........|...........|...........|...........|...........|...........|...........|...........|...........|...........|...........|===.....SD4|===.....SD4|===.....SD4|...........|...........|...........|...........|...........
|B-303v64SD2|...........|...........|...........|...........|B-305v64SD2|F#405v64SD2|D-505v64SD2|...........|...........|...........|...........|F#521v24SD2|F#621v24SD2|F#507v64SD2|F#607v64SD2|...........|F#522v64SD2|F#622v64SD2|...........|...........|...........|...........|C#320v64SD2|F#312v64SD2|C-302v64SD2|...........|...........|...........|F#409v64SD2|F#509v64SD2|...........|...........|...........|...........|...........|B-310v62SD2|F#410v62SD2|D-510v62SD2|...........|...........|...........|...........|...........
|...........|...........|...........|...........|...........|...........|...........|...........|...........|...........|...........|...........|...........|...........|...........|...........|...........|...........|...........|...........|...........|...........|...........|...........|...........|...........|...........|...........|...........|...........|...........|...........|...........|...........|...........|...........|...........|...........|...........|...........|...........|...........|...........|...........
|...........|...........|...........|...........|...........|...........|...........|...........|...........|...........|...........|...........|...........|...........|...........|...........|...........|...........|...........|...........|...........|...........|...........|...........|...........|...........|...........|...........|...........|...........|...........|...........|...........|...........|...........|...........|...........|...........|...........|...........|...........|...........|...........|...........
|...........|...........|...........|...........|...........|...........|...........|...........|...........|...........|...........|...........|...........|...........|...........|...........|...........|...........|...........|...........|...........|...........|...........|...........|...........|...........|...........|...........|...........|...........|...........|...........|...........|...........|...........|...........|...........|...........|...........|...........|...........|...........|...........|...........
|F#403v64SD2|...........|F#604v59SD2|D-704v59SD2|...........|...........|...........|...........|...........|F#606v64SD2|D-706v64SD2|...........|===.....SD2|===.....SD2|===.....SD2|===.....SD2|...........|===.....SD2|===.....SD2|...........|...........|...........|...........|E-313v42SD2|A#314v64SD2|...........|...........|...........|...........|===.....SD2|===.....SD2|...........|...........|...........|...........|...........|...........|...........|...........|...........|F#611v52SD2|D-711v52SD2|...........|...........
|...........|...........|...........|...........|...........|...........|...........|...........|...........|...........|...........|...........|...........|...........|...........|...........|...........|...........|...........|...........|...........|...........|...........|...........|...........|...........|...........|...........|...........|...........|...........|...........|...........|...........|...........|...........|...........|...........|...........|...........|...........|...........|...........|...........
|...........|...........|===.....SD2|===.....SD2|...........|...........|...........|...........|...........|===.....SD2|===.....SD2|...........|...........|...........|...........|...........|...........|...........|...........|...........|...........|...........|...........|E-313v42SD2|...........|...........|...........|...........|...........|...........|...........|...........|...........|...........|...........|...........|...........|...........|...........|...........|===.....SD2|===.....SD2|...........|...........
|...........|...........|...........|...........|...........|...........|...........|...........|...........|...........|...........|...........|...........|...........|...........|...........|...........|...........|...........|...........|...........|...........|...........|...........|...........|...........|...........|...........|...........|...........|...........|...........|...........|...........|...........|...........|...........|...........|...........|...........|...........|...........|...........|...........
|B-303v64SD2|...........|...........|...........|...........|...........|...........|...........|...........|...........|...........|...........|D-521v24SD2|D-621v24SD2|D-507v64SD2|D-607v64SD2|...........|D-522v64SD2|D-622v64SD2|...........|...........|...........|...........|D-315v64SD2|C#320v64SD2|F#312v64SD2|...........|...........|...........|D-409v64SD2|D-509v64SD2|...........|...........|...........|...........|...........|...........|...........|...........|...........|...........|...........|...........|...........
|...........|...........|...........|...........|...........|...........|...........|...........|...........|...........|...........|...........|...........|...........|...........|...........|...........|...........|...........|...........|...........|...........|...........|...........|...........|...........|...........|...........|...........|...........|...........|...........|...........|...........|...........|...........|...........|...........|...........|...........|...........|...........|...........|...........
|...........|...........|...........|...........|...........|...........|...........|...........|...........|...........|...........|...........|...........|...........|...........|...........|...........|...........|...........|...........|...........|...........|...........|...........|...........|...........|...........|...........|...........|...........|...........|...........|...........|...........|...........|...........|...........|...........|...........|...........|...........|...........|...........|...........
|...........|...........|...........|...........|...........|...........|...........|...........|...........|...........|...........|...........|...........|...........|...........|...........|...........|...........|...........|...........|...........|...........|...........|...........|...........|...........|...........|...........|...........|...........|...........|...........|...........|...........|...........|...........|...........|...........|...........|...........|...........|...........|...........|...........
|F#403v64SD2|...........|F#604v59SD2|D-704v59SD2|...........|...........|...........|...........|...........|F#606v64SD2|D-706v64SD2|...........|===.....SD2|===.....SD2|===.....SD2|===.....SD2|...........|===.....SD2|===.....SD2|...........|...........|...........|...........|D-315v59SD2|A#314v64SD2|...........|...........|...........|...........|===.....SD2|===.....SD2|...........|...........|...........|...........|...........|...........|...........|...........|...........|F#611v52SD2|D-711v52SD2|...........|...........
|...........|...........|...........|...........|...........|...........|...........|...........|...........|...........|...........|...........|...........|...........|...........|...........|...........|...........|...........|...........|...........|...........|...........|...........|...........|...........|...........|...........|...........|...........|...........|...........|...........|...........|...........|...........|...........|...........|...........|...........|...........|...........|...........|...........
|...........|...........|===.....SD2|===.....SD2|...........|...........|...........|...........|...........|===.....SD2|===.....SD2|...........|...........|...........|...........|...........|...........|...........|...........|...........|...........|...........|...........|F#312v64SD2|...........|...........|...........|...........|...........|...........|...........|...........|...........|...........|...........|...........|...........|...........|...........|...........|===.....SD2|===.....SD2|...........|...........
|...........|...........|...........|...........|...........|===.....SD4|===.....SD4|===.....SD4|...........|...........|...........|...........|...........|...........|...........|...........|...........|...........|...........|...........|...........|...........|...........|...........|...........|...........|...........|...........|...........|...........|...........|...........|...........|...........|...........|...........|===.....SD4|===.....SD4|===.....SD4|...........|...........|...........|...........|...........
|D-403v64SD2|...........|...........|...........|...........|D-405v64SD2|A-405v64SD2|F#505v64SD2|...........|...........|...........|...........|A-521v24SD2|A-621v24SD2|A-607v64SD2|A-707v64SD2|...........|A-522v64SD2|A-622v64SD2|...........|...........|D-508v01SD2|G#508v01SD2|C#320v64SD2|D#416v64SD2|F#312v64SD2|C-302v64SD2|...........|...........|A-509v64SD2|A-609v64SD2|...........|...........|...........|...........|...........|D-410v62SD2|A-410v62SD2|F#510v62SD2|...........|...........|...........|...........|...........
|...........|...........|...........|...........|...........|...........|...........|...........|...........|...........|...........|...........|...........|...........|...........|...........|...........|...........|...........|...........|...........|.....v04...|.....v04...|...........|...........|...........|...........|...........|...........|...........|...........|...........|...........|...........|...........|...........|...........|...........|...........|...........|...........|...........|...........|...........
|...........|...........|...........|...........|...........|...........|...........|...........|...........|...........|...........|...........|...........|...........|...........|...........|...........|...........|...........|...........|...........|.....v10...|.....v10...|...........|...........|...........|...........|...........|...........|...........|...........|...........|...........|...........|...........|...........|...........|...........|...........|...........|...........|...........|...........|...........
|...........|...........|...........|...........|...........|...........|...........|...........|...........|...........|...........|...........|...........|...........|...........|...........|...........|...........|...........|...........|...........|.....v16...|.....v16...|...........|...........|...........|...........|...........|...........|...........|...........|...........|...........|...........|...........|...........|...........|...........|...........|...........|...........|...........|...........|...........
|A-403v64SD2|...........|A-604v59SD2|F#704v59SD2|...........|...........|...........|...........|...........|A-606v64SD2|F#706v64SD2|...........|===.....SD2|===.....SD2|===.....SD2|===.....SD2|...........|===.....SD2|===.....SD2|...........|...........|.....v23...|.....v23...|E-313v64SD2|F#312v64SD2|...........|...........|...........|...........|===.....SD2|===.....SD2|...........|...........|...........|...........|...........|...........|...........|...........|...........|A-611v52SD2|F#711v52SD2|...........|...........
|...........|...........|...........|...........|...........|...........|...........|...........|...........|...........|...........|...........|...........|...........|...........|...........|...........|...........|...........|...........|...........|.....v29...|.....v29...|...........|...........|...........|...........|...........|...........|...........|...........|...........|...........|...........|...........|...........|...........|...........|...........|...........|...........|...........|...........|...........
|...........|...........|===.....SD2|===.....SD2|...........|...........|...........|...........|...........|===.....SD2|===.....SD2|...........|...........|...........|...........|...........|...........|...........|...........|...........|...........|.....v35...|.....v35...|E-313v64SD2|...........|...........|...........|...........|...........|...........|...........|...........|...........|...........|...........|...........|...........|...........|...........|...........|===.....SD2|===.....SD2|...........|...........
|...........|...........|...........|...........|...........|...........|...........|...........|...........|...........|...........|...........|...........|...........|...........|...........|...........|...........|...........|...........|...........|.....v41...|.....v41...|...........|...........|...........|...........|...........|...........|...........|...........|...........|...........|...........|...........|...........|...........|...........|...........|...........|...........|...........|...........|...........
|D-403v64SD2|...........|...........|...........|...........|...........|...........|...........|...........|...........|...........|...........|F#521v24SD2|F#621v24SD2|F#607v64SD2|F#707v64SD2|...........|F#522v64SD2|F#622v64SD2|...........|...........|.....v46...|.....v46...|C#320v64SD2|A#314v64SD2|C-302v64SD2|...........|...........|...........|F#509v64SD2|F#609v64SD2|...........|...........|...........|...........|...........|...........|...........|...........|...........|...........|...........|...........|...........
|...........|...........|...........|...........|...........|...........|...........|...........|...........|...........|...........|...........|...........|...........|...........|...........|...........|...........|...........|...........|...........|.....v50...|.....v50...|...........|...........|...........|...........|...........|...........|...........|...........|...........|...........|...........|...........|...........|...........|...........|...........|...........|...........|...........|...........|...........
|...........|...........|...........|...........|...........|...........|...........|...........|...........|...........|...........|...........|...........|...........|...........|...........|...........|...........|...........|...........|...........|.....v55...|.....v55...|E-313v64SD2|...........|...........|...........|...........|...........|...........|...........|...........|...........|...........|...........|...........|...........|...........|...........|...........|...........|...........|...........|...........
|...........|...........|...........|...........|...........|...........|...........|...........|...........|...........|...........|...........|...........|...........|...........|...........|...........|...........|...........|...........|...........|.....v57...|.....v57...|...........|...........|...........|...........|...........|...........|...........|...........|...........|...........|...........|...........|...........|...........|...........|...........|...........|...........|...........|...........|...........
|A-403v64SD2|...........|A-604v59SD2|F#704v59SD2|...........|...........|...........|...........|...........|A-606v64SD2|F#706v64SD2|...........|===.....SD2|===.....SD2|===.....SD2|===.....SD2|...........|===.....SD2|===.....SD2|...........|...........|.....v61...|.....v61...|E-313v64SD2|D-315v64SD2|F#312v64SD2|...........|...........|...........|===.....SD2|===.....SD2|...........|...........|...........|...........|...........|...........|...........|...........|...........|A-611v52SD2|F#711v52SD2|...........|...........
|...........|...........|...........|...........|...........|...........|...........|...........|...........|...........|...........|...........|...........|...........|...........|...........|...........|...........|...........|...........|...........|.....v63...|.....v63...|...........|...........|...........|...........|...........|...........|...........|...........|...........|...........|...........|...........|...........|...........|...........|...........|...........|...........|...........|...........|...........
|...........|...........|===.....SD2|===.....SD2|...........|...........|...........|...........|...........|===.....SD2|===.....SD2|...........|...........|...........|...........|...........|...........|...........|...........|...........|...........|.....v64...|.....v64...|E-313v64SD2|F#312v64SD2|...........|...........|...........|...........|...........|...........|...........|...........|...........|...........|...........|...........|...........|...........|...........|===.....SD2|===.....SD2|...........|...........
|...........|...........|...........|...........|...........|===.....SD4|===.....SD4|===.....SD4|...........|...........|...........|...........|...........|...........|...........|...........|...........|...........|...........|...........|...........|.....v64...|.....v64...|...........|...........|...........|...........|...........|...........|...........|...........|...........|...........|...........|...........|...........|===.....SD4|===.....SD4|===.....SD4|...........|...........|...........|...........|...........
|C#403v64SD2|...........|...........|...........|...........|C#405v64SD2|G#405v64SD2|F-505v64SD2|...........|...........|...........|...........|F-521v24SD2|F-621v24SD2|F-607v64SD2|F-707v64SD2|...........|F-522v64SD2|F-622v64SD2|...........|...........|.....v64...|.....v64...|C#320v64SD2|F#312v64SD2|C-302v64SD2|...........|...........|...........|F-509v64SD2|F-609v64SD2|...........|...........|...........|...........|...........|C#410v62SD2|G#410v62SD2|F-510v62SD2|...........|...........|...........|...........|...........
|...........|...........|...........|...........|...........|...........|...........|...........|...........|...........|...........|...........|...........|...........|...........|...........|...........|...........|...........|...........|...........|.....v64...|.....v64...|...........|...........|...........|...........|...........|...........|...........|...........|...........|...........|...........|...........|...........|...........|...........|...........|...........|...........|...........|...........|...........
|...........|...........|...........|...........|...........|...........|...........|...........|...........|...........|...........|...........|...........|...........|...........|...........|...........|...........|...........|...........|...........|.....v64...|.....v64...|E-313v64SD2|...........|...........|...........|...........|...........|...........|...........|...........|...........|...........|...........|...........|...........|...........|...........|...........|...........|...........|...........|...........
|...........|...........|...........|...........|...........|...........|...........|...........|...........|...........|...........|...........|...........|...........|...........|...........|...........|...........|...........|...........|...........|.....v64...|.....v64...|...........|...........|...........|...........|...........|...........|...........|...........|...........|...........|...........|...........|...........|...........|...........|...........|...........|...........|...........|...........|...........
|G#403v64SD2|...........|G#604v59SD2|F-704v59SD2|...........|...........|...........|...........|...........|G#606v64SD2|F-706v64SD2|...........|...........|...........|...........|...........|...........|...........|...........|...........|...........|...........|...........|E-313v64SD2|A#314v64SD2|...........|...........|...........|...........|...........|...........|...........|...........|...........|...........|...........|...........|...........|...........|...........|G#611v52SD2|F-711v52SD2|...........|...........
|...........|...........|...........|...........|...........|...........|...........|...........|...........|...........|...........|...........|...........|...........|...........|...........|...........|...........|...........|...........|...........|.....v64...|.....v64...|...........|...........|...........|...........|...........|...........|...........|...........|...........|...........|...........|...........|...........|...........|...........|...........|...........|...........|...........|...........|...........
|...........|...........|===.....SD2|===.....SD2|...........|...........|...........|...........|...........|===.....SD2|===.....SD2|...........|...........|...........|........EEC|........EEC|...........|...........|...........|...........|...........|...........|...........|...........|...........|...........|...........|...........|...........|........EE6|........EE6|...........|...........|...........|...........|...........|...........|...........|...........|...........|===.....SD2|===.....SD2|...........|...........
|...........|...........|...........|...........|...........|...........|...........|...........|...........|...........|...........|...........|...........|...........|........EEC|........EEC|...........|...........|...........|...........|...........|.....v64...|.....v64...|...........|...........|...........|...........|...........|...........|........EE6|........EE6|...........|...........|...........|...........|...........|...........|...........|...........|...........|...........|...........|...........|...........
|C#403v64SD2|...........|...........|...........|...........|...........|...........|...........|...........|...........|...........|...........|...........|...........|...........|...........|...........|...........|...........|...........|...........|...........|...........|E-313v64SD2|C#320v64SD2|F#312v64SD2|C-302v64SD2|...........|...........|...........|...........|...........|...........|...........|...........|...........|...........|...........|...........|...........|...........|...........|...........|...........
|...........|...........|...........|...........|...........|...........|...........|...........|...........|...........|...........|...........|...........|...........|........EF6|........EF6|...........|...........|...........|...........|...........|...........|...........|...........|...........|...........|...........|...........|...........|........EEC|........EEC|...........|...........|...........|...........|...........|...........|...........|...........|...........|...........|...........|...........|...........
|...........|...........|...........|...........|...........|...........|...........|...........|...........|...........|...........|...........|...........|...........|........EEC|........EEC|...........|...........|...........|...........|...........|.....v64...|.....v64...|E-313v64SD2|...........|...........|...........|...........|...........|........EE6|........EE6|...........|...........|...........|...........|...........|...........|...........|...........|...........|...........|...........|...........|...........
|...........|...........|...........|...........|...........|...........|...........|...........|...........|...........|...........|...........|...........|...........|........EF9|........EF9|...........|...........|...........|...........|...........|...........|...........|...........|...........|...........|...........|...........|...........|........EF5|........EF5|...........|...........|...........|...........|...........|...........|...........|...........|...........|...........|...........|...........|...........
|G#403v64SD2|...........|G#604v59SD2|F-704v59SD2|...........|...........|...........|...........|...........|G#606v64SD2|F-706v64SD2|...........|...........|...........|........EF9|........EF9|...........|...........|...........|...........|...........|...........|...........|E-313v64SD2|D-315v64SD2|A#314v64SD2|...........|...........|...........|........EF4|........EF4|...........|...........|...........|...........|...........|...........|...........|...........|...........|G#611v52SD2|F-711v52SD2|...........|...........
|...........|...........|...........|...........|...........|...........|...........|...........|...........|...........|...........|...........|...........|...........|........EFF|........EFF|...........|...........|...........|...........|...........|...........|...........|...........|...........|...........|...........|...........|...........|........EF8|........EF8|...........|...........|...........|...........|...........|...........|...........|...........|...........|...........|...........|...........|...........
|...........|...........|===.....SD2|===.....SD2|...........|...........|...........|...........|...........|===.....SD2|===.....SD2|...........|...........|...........|........E04|........E04|...........|...........|...........|...........|...........|...........|...........|E-313v64SD2|F#312v64SD2|...........|...........|...........|...........|........EFA|........EFA|...........|...........|...........|...........|...........|...........|...........|...........|...........|===.....SD2|===.....SD2|...........|...........
|...........|...........|...........|...........|...........|===.....SD4|===.....SD4|===.....SD4|...........|...........|...........|...........|===.....SD4|===.....SD4|===.....SD4|===.....SD4|...........|===.....SD4|===.....SD4|...........|...........|...........|...........|...........|...........|...........|...........|...........|...........|===.....SD4|===.....SD4|...........|...........|...........|...........|...........|===.....SD4|===.....SD4|===.....SD4|...........|...........|...........|...........|...........


!channels=1+15+16+41
!octaves=0+3+3+3

|G#403v64SD2|...........|G-504v64SD2|C-604v64SD2|...........|...........|...........|...........|...........|G#306v64SD2|D#406v64SD2|C-506v64SD2|...........|...........|G-607v64SD2|C-707v64SD2|...........|...........|...........|...........|...........|C-408v64SD2|===........|D#416v64SD2|F#312v64SD2|C-302v64SD2|...........|...........|...........|G-509v64SD2|C-609v64SD2|...........|...........|...........|...........|...........|...........|...........|...........|...........|G#311v52SD2|D#411v52SD2|C-511v52SD2|...........
|...........|...........|...........|...........|...........|...........|...........|...........|...........|...........|...........|...........|...........|...........|...........|...........|...........|...........|...........|...........|...........|...........|...........|...........|...........|...........|...........|...........|...........|...........|...........|...........|...........|...........|...........|...........|...........|...........|...........|...........|...........|...........|...........|...........
|...........|...........|...........|...........|...........|...........|...........|...........|...........|...........|...........|...........|...........|...........|...........|...........|...........|...........|...........|...........|...........|...........|...........|...........|...........|...........|...........|...........|...........|...........|...........|...........|...........|...........|...........|...........|...........|...........|...........|...........|...........|...........|...........|...........
|...........|...........|...........|...........|...........|...........|...........|...........|...........|...........|...........|...........|...........|...........|...........|...........|...........|...........|...........|...........|...........|...........|...........|...........|...........|...........|...........|...........|...........|...........|...........|...........|...........|...........|...........|...........|...........|...........|...........|...........|...........|...........|...........|...........
|D#503v64SD2|...........|===.....SD2|===.....SD2|...........|...........|...........|...........|...........|...........|...........|...........|...........|...........|===.....SD2|===.....SD2|...........|...........|...........|...........|...........|...........|...........|A#314v64SD2|...........|...........|...........|...........|...........|===.....SD2|===.....SD2|...........|...........|...........|...........|...........|...........|...........|...........|...........|...........|...........|...........|...........
|...........|...........|...........|...........|...........|...........|...........|...........|...........|...........|...........|...........|...........|...........|...........|...........|...........|...........|...........|...........|...........|...........|...........|...........|...........|...........|...........|...........|...........|...........|...........|...........|...........|...........|...........|...........|...........|...........|...........|...........|...........|...........|...........|...........
|...........|...........|...........|...........|...........|...........|...........|...........|...........|...........|...........|...........|...........|...........|...........|...........|...........|...........|...........|...........|...........|...........|...........|...........|...........|...........|...........|...........|...........|...........|...........|...........|...........|...........|...........|...........|...........|...........|...........|...........|...........|...........|...........|...........
|...........|...........|...........|...........|...........|...........|...........|...........|...........|...........|...........|...........|...........|...........|...........|...........|...........|...........|...........|...........|...........|...........|...........|...........|...........|...........|...........|...........|...........|...........|...........|...........|...........|...........|...........|...........|...........|...........|...........|...........|...........|...........|...........|...........
|G#403v64SD2|...........|D#604v64SD2|G-604v64SD2|...........|...........|...........|...........|...........|...........|...........|...........|...........|...........|D#707v64SD2|G-707v64SD2|...........|...........|...........|...........|...........|...........|...........|F#312v64SD2|C-302v64SD2|...........|...........|...........|...........|D#609v64SD2|G-609v64SD2|...........|...........|...........|...........|...........|...........|...........|...........|...........|...........|...........|...........|...........
|...........|...........|...........|...........|...........|...........|...........|...........|...........|...........|...........|...........|...........|...........|...........|...........|...........|...........|...........|...........|...........|...........|...........|...........|...........|...........|...........|...........|...........|...........|...........|...........|...........|...........|...........|...........|...........|...........|...........|...........|...........|...........|...........|...........
|...........|...........|...........|...........|...........|...........|...........|...........|...........|...........|...........|...........|...........|...........|...........|...........|...........|...........|...........|...........|...........|...........|...........|...........|...........|...........|...........|...........|...........|...........|...........|...........|...........|...........|...........|...........|...........|...........|...........|...........|...........|...........|...........|...........
|...........|...........|...........|...........|...........|...........|...........|...........|...........|...........|...........|...........|...........|...........|...........|...........|...........|...........|...........|...........|...........|...........|...........|...........|...........|...........|...........|...........|...........|...........|...........|...........|...........|...........|...........|...........|...........|...........|...........|...........|...........|...........|...........|...........
|D#503v64SD2|...........|===.....SD2|===.....SD2|...........|...........|...........|...........|...........|...........|...........|...........|...........|...........|===.....SD2|===.....SD2|...........|...........|...........|...........|...........|...........|...........|A#314v64SD2|...........|...........|...........|...........|...........|===.....SD2|===.....SD2|...........|...........|...........|...........|...........|...........|...........|...........|...........|...........|...........|...........|...........
|...........|...........|...........|...........|...........|...........|...........|...........|...........|...........|...........|...........|...........|...........|...........|...........|...........|...........|...........|...........|...........|...........|...........|...........|...........|...........|...........|...........|...........|...........|...........|...........|...........|...........|...........|...........|...........|...........|...........|...........|...........|...........|...........|...........
|...........|...........|...........|...........|...........|...........|...........|...........|...........|...........|...........|...........|...........|...........|...........|...........|...........|...........|...........|...........|...........|...........|...........|...........|...........|...........|...........|...........|...........|...........|...........|...........|...........|...........|...........|...........|...........|...........|...........|...........|...........|...........|...........|...........
|...........|...........|...........|...........|...........|...........|...........|...........|...........|===.....SD4|===.....SD4|===.....SD4|...........|...........|...........|...........|...........|...........|...........|...........|...........|...........|...........|...........|...........|...........|...........|...........|...........|...........|...........|...........|...........|...........|...........|...........|...........|...........|...........|...........|===.....SD4|===.....SD4|===.....SD4|...........
|A#403v64SD2|...........|G-504v64SD2|D-604v64SD2|...........|...........|...........|...........|...........|A#306v64SD2|F-406v64SD2|D-506v64SD2|...........|...........|G-607v64SD2|D-707v64SD2|...........|...........|...........|...........|...........|===.....SD2|D-408v64SD2|F#312v64SD2|C-302v64SD2|...........|...........|...........|...........|G-509v64SD2|D-609v64SD2|...........|...........|...........|...........|...........|...........|...........|...........|...........|A#311v52SD2|F-411v52SD2|D-511v52SD2|...........

!channels=1+15+16+41
!octaves=0+3+3+3

ModPlug Tracker MPT
|...........|...........|...........|...........|...........|...........|...........|...........|...........|...........|...........|...........|...........|...........|...........|...........|...........|...........|...........|...........|...........|...........|...........|...........|...........|...........|...........|...........|...........|...........|...........|...........|...........|...........|...........|...........|...........|...........|...........|...........|...........|...........|...........|...........
|...........|...........|...........|...........|...........|...........|...........|...........|...........|...........|...........|...........|...........|...........|...........|...........|...........|...........|...........|...........|...........|...........|...........|...........|...........|...........|...........|...........|...........|...........|...........|...........|...........|...........|...........|...........|...........|...........|...........|...........|...........|...........|...........|...........
|...........|...........|...........|...........|...........|...........|...........|...........|...........|...........|...........|...........|...........|...........|...........|...........|...........|...........|...........|...........|...........|...........|...........|...........|...........|...........|...........|...........|...........|...........|...........|...........|...........|...........|...........|...........|...........|...........|...........|...........|...........|...........|...........|...........
|F-503v64SD2|...........|===.....SD2|===.....SD2|...........|...........|...........|...........|...........|...........|...........|...........|...........|...........|===.....SD2|===.....SD2|...........|...........|...........|...........|...........|...........|...........|A#314v64SD2|...........|...........|...........|...........|...........|===.....SD2|===.....SD2|...........|...........|...........|...........|...........|...........|...........|...........|...........|...........|...........|...........|...........
|...........|...........|...........|...........|...........|...........|...........|...........|...........|...........|...........|...........|...........|...........|...........|...........|...........|...........|...........|...........|...........|...........|...........|...........|...........|...........|...........|...........|...........|...........|...........|...........|...........|...........|...........|...........|...........|...........|...........|...........|...........|...........|...........|...........
|...........|...........|...........|...........|...........|...........|...........|...........|...........|...........|...........|...........|...........|...........|...........|...........|...........|...........|...........|...........|...........|...........|...........|...........|...........|...........|...........|...........|...........|...........|...........|...........|...........|...........|...........|...........|...........|...........|...........|...........|...........|...........|...........|...........
|...........|...........|...........|...........|...........|...........|...........|...........|...........|...........|...........|...........|...........|...........|...........|...........|...........|...........|...........|...........|...........|...........|...........|...........|...........|...........|...........|...........|...........|...........|...........|...........|...........|...........|...........|...........|...........|...........|...........|...........|...........|...........|...........|...........
|A#403v64SD2|...........|D#604v64SD2|G-604v64SD2|...........|...........|...........|...........|...........|...........|...........|...........|...........|...........|D#707v64SD2|G-707v64SD2|...........|...........|...........|...........|...........|...........|...........|F#312v64SD2|C-302v64SD2|...........|...........|...........|...........|G-609v64SD2|D#609v64SD2|...........|...........|...........|...........|...........|...........|...........|...........|...........|...........|...........|...........|...........
|...........|...........|...........|...........|...........|...........|...........|...........|...........|...........|...........|...........|...........|...........|...........|...........|...........|...........|...........|...........|...........|...........|...........|...........|...........|...........|...........|...........|...........|...........|...........|...........|...........|...........|...........|...........|...........|...........|...........|...........|...........|...........|...........|...........
|...........|...........|...........|...........|...........|...........|...........|...........|...........|...........|...........|...........|...........|...........|...........|...........|...........|...........|...........|...........|...........|...........|...........|...........|...........|...........|...........|...........|...........|...........|...........|...........|...........|...........|...........|...........|...........|...........|...........|...........|...........|...........|...........|...........
|...........|...........|...........|...........|...........|...........|...........|...........|...........|...........|...........|...........|...........|...........|...........|...........|...........|...........|...........|...........|...........|...........|...........|...........|...........|...........|...........|...........|...........|...........|...........|...........|...........|...........|...........|...........|...........|...........|...........|...........|...........|...........|...........|...........
|F-503v64SD2|...........|===.....SD2|===.....SD2|...........|...........|...........|...........|...........|...........|...........|...........|...........|...........|===.....SD2|===.....SD2|...........|...........|...........|...........|...........|...........|...........|A#314v64SD2|...........|...........|...........|...........|...........|===.....SD2|===.....SD2|...........|...........|...........|...........|...........|...........|...........|...........|...........|...........|...........|...........|...........
|...........|...........|...........|...........|...........|...........|...........|...........|...........|...........|...........|...........|...........|...........|...........|...........|...........|...........|...........|...........|...........|...........|...........|...........|...........|...........|...........|...........|...........|...........|...........|...........|...........|...........|...........|...........|...........|...........|...........|...........|...........|...........|...........|...........
|...........|...........|...........|...........|...........|...........|...........|...........|...........|...........|...........|...........|...........|...........|...........|...........|...........|...........|...........|...........|...........|...........|...........|...........|...........|...........|...........|...........|...........|...........|...........|...........|...........|...........|...........|...........|...........|...........|...........|...........|...........|...........|...........|...........
|...........|...........|...........|...........|...........|...........|...........|...........|...........|===.....SD4|===.....SD4|===.....SD4|...........|...........|...........|...........|...........|...........|...........|...........|...........|...........|...........|...........|...........|...........|...........|...........|...........|...........|...........|...........|...........|...........|...........|...........|...........|...........|...........|...........|===.....SD4|===.....SD4|===.....SD4|...........
|C-503v64SD2|...........|C-604v64SD2|D#604v64SD2|...........|...........|...........|...........|...........|C-406v64SD2|G-406v64SD2|D#506v64SD2|...........|...........|C-707v64SD2|D#707v64SD2|...........|...........|...........|...........|...........|D#408v64SD2|===.....SD2|F#312v64SD2|C-302v64SD2|...........|...........|...........|...........|D#609v64SD2|C-609v64SD2|...........|...........|...........|...........|...........|...........|...........|...........|...........|C-411v52SD2|G-411v52SD2|D#511v52SD2|...........
|...........|...........|...........|...........|...........|...........|...........|...........|...........|...........|...........|...........|...........|...........|...........|...........|...........|...........|...........|...........|...........|...........|...........|...........|...........|...........|...........|...........|...........|...........|...........|...........|...........|...........|...........|...........|...........|...........|...........|...........|...........|...........|...........|...........
|...........|...........|...........|...........|...........|...........|...........|...........|...........|...........|...........|...........|...........|...........|...........|...........|...........|...........|...........|...........|...........|...........|...........|...........|...........|...........|...........|...........|...........|...........|...........|...........|...........|...........|...........|...........|...........|...........|...........|...........|...........|...........|...........|...........
|...........|...........|...........|...........|...........|...........|...........|...........|...........|...........|...........|...........|...........|...........|...........|...........|...........|...........|...........|...........|...........|...........|...........|...........|...........|...........|...........|...........|...........|...........|...........|...........|...........|...........|...........|...........|...........|...........|...........|...........|...........|...........|...........|...........
|G-503v64SD2|...........|===.....SD2|===.....SD2|...........|...........|...........|...........|...........|...........|...........|...........|...........|...........|===.....SD2|===.....SD2|...........|...........|...........|...........|...........|...........|...........|A#314v64SD2|...........|...........|...........|...........|...........|===.....SD2|===.....SD2|...........|...........|...........|...........|...........|...........|...........|...........|...........|...........|...........|...........|...........
|...........|...........|...........|...........|...........|...........|...........|...........|...........|...........|...........|...........|...........|...........|...........|...........|...........|...........|...........|...........|...........|...........|...........|...........|...........|...........|...........|...........|...........|...........|...........|...........|...........|...........|...........|...........|...........|...........|...........|...........|...........|...........|...........|...........
|...........|...........|...........|...........|...........|...........|...........|...........|...........|...........|...........|...........|...........|...........|...........|...........|...........|...........|...........|...........|...........|...........|...........|...........|...........|...........|...........|...........|...........|...........|...........|...........|...........|...........|...........|...........|...........|...........|...........|...........|...........|...........|...........|...........
|...........|...........|...........|...........|...........|...........|...........|...........|...........|...........|...........|...........|...........|...........|...........|...........|...........|...........|...........|...........|...........|...........|...........|...........|...........|...........|...........|...........|...........|...........|...........|...........|...........|...........|...........|...........|...........|...........|...........|...........|...........|...........|...........|...........
|C-503v64SD2|...........|D-604v64SD2|F-604v64SD2|...........|...........|...........|...........|...........|...........|...........|...........|...........|...........|D-707v64SD2|F-707v64SD2|...........|...........|...........|...........|...........|...........|...........|F#312v64SD2|C-302v64SD2|...........|...........|...........|...........|F-609v64SD2|D-609v64SD2|...........|...........|...........|...........|...........|...........|...........|...........|...........|...........|...........|...........|...........
|...........|...........|...........|...........|...........|...........|...........|...........|...........|...........|...........|...........|...........|...........|...........|...........|...........|...........|...........|...........|...........|...........|...........|...........|...........|...........|...........|...........|...........|...........|...........|...........|...........|...........|...........|...........|...........|...........|...........|...........|...........|...........|...........|...........
|...........|...........|...........|...........|...........|...........|...........|...........|...........|...........|...........|...........|...........|...........|...........|...........|...........|...........|...........|...........|...........|...........|...........|...........|...........|...........|...........|...........|...........|...........|...........|...........|...........|...........|...........|...........|...........|...........|...........|...........|...........|...........|...........|...........
|...........|...........|...........|...........|...........|...........|...........|...........|...........|...........|...........|...........|...........|...........|...........|...........|...........|...........|...........|...........|...........|...........|...........|...........|...........|...........|...........|...........|...........|...........|...........|...........|...........|...........|...........|...........|...........|...........|...........|...........|...........|...........|...........|...........
|G-503v64SD2|...........|D#604v64SD2|G-604v64SD2|...........|...........|...........|...........|...........|...........|...........|...........|...........|...........|D#707v64SD2|G-707v64SD2|...........|...........|...........|...........|...........|...........|...........|A#314v64SD2|...........|...........|...........|...........|...........|G-609v64SD2|D#609v64SD2|...........|...........|...........|...........|...........|...........|...........|...........|...........|...........|...........|...........|...........
|...........|...........|...........|...........|...........|...........|...........|...........|...........|...........|...........|...........|...........|...........|...........|...........|...........|...........|...........|...........|...........|...........|...........|...........|...........|...........|...........|...........|...........|...........|...........|...........|...........|...........|...........|...........|...........|...........|...........|...........|...........|...........|...........|...........
|...........|...........|...........|...........|...........|...........|...........|...........|...........|...........|...........|...........|...........|...........|...........|...........|...........|...........|...........|...........|...........|...........|...........|...........|...........|...........|...........|...........|...........|...........|...........|...........|...........|...........|...........|...........|...........|...........|...........|...........|...........|...........|...........|...........
|...........|...........|...........|...........|...........|...........|...........|...........|...........|===.....SD4|===.....SD4|===.....SD4|...........|...........|...........|...........|...........|...........|...........|...........|...........|...........|...........|...........|...........|...........|...........|...........|...........|...........|...........|...........|...........|...........|...........|...........|...........|...........|...........|...........|===.....SD4|===.....SD4|===.....SD4|...........
|A-403v64SD2|...........|D-604v64SD2|F-604v64SD2|...........|...........|...........|...........|...........|A-306v64SD2|F-406v64SD2|F-506v64SD2|...........|...........|D-707v64SD2|F-707v64SD2|...........|...........|...........|...........|...........|===.....SD2|F-408v64SD2|F#312v64SD2|C-302v64SD2|...........|...........|...........|...........|F-609v64SD2|D-609v64SD2|...........|...........|...........|...........|...........|...........|...........|...........|...........|A-311v52SD2|F-411v52SD2|F-511v52SD2|...........
|...........|...........|...........|...........|...........|...........|...........|...........|...........|...........|...........|...........|...........|...........|...........|...........|...........|...........|...........|...........|...........|...........|...........|...........|...........|...........|...........|...........|...........|...........|...........|...........|...........|...........|...........|...........|...........|...........|...........|...........|...........|...........|...........|...........
|...........|...........|...........|...........|...........|...........|...........|...........|...........|...........|...........|...........|...........|...........|...........|...........|...........|...........|...........|...........|...........|...........|...........|...........|...........|...........|...........|...........|...........|...........|...........|...........|...........|...........|...........|...........|...........|...........|...........|...........|...........|...........|...........|...........
|...........|...........|...........|...........|...........|...........|...........|...........|...........|...........|...........|...........|...........|...........|...........|...........|...........|...........|...........|...........|...........|...........|...........|...........|...........|...........|...........|...........|...........|...........|...........|...........|...........|...........|...........|...........|...........|...........|...........|...........|...........|...........|...........|...........
|F-503v64SD2|...........|===.....SD2|===.....SD2|...........|...........|...........|...........|...........|...........|...........|...........|...........|...........|===.....SD2|===.....SD2|...........|...........|...........|...........|...........|...........|...........|D-315v42SD2|A#314v64SD2|...........|...........|...........|...........|===.....SD2|===.....SD2|...........|...........|...........|...........|...........|...........|...........|...........|...........|...........|...........|...........|...........
|...........|...........|...........|...........|...........|...........|...........|...........|...........|...........|...........|...........|...........|...........|...........|...........|...........|...........|...........|...........|...........|...........|...........|...........|...........|...........|...........|...........|...........|...........|...........|...........|...........|...........|...........|...........|...........|...........|...........|...........|...........|...........|...........|...........
|...........|...........|...........|...........|...........|...........|...........|...........|...........|...........|...........|...........|...........|...........|...........|...........|...........|...........|...........|...........|...........|...........|...........|...........|...........|...........|...........|...........|...........|...........|...........|...........|...........|...........|...........|...........|...........|...........|...........|...........|...........|...........|...........|...........
|...........|...........|...........|...........|...........|...........|...........|...........|...........|...........|...........|...........|...........|...........|...........|...........|...........|...........|...........|...........|...........|...........|...........|...........|...........|...........|...........|...........|...........|...........|...........|...........|...........|...........|...........|...........|...........|...........|...........|...........|...........|...........|...........|...........
|A-403v64SD2|...........|F-604v64SD2|A-604v64SD2|...........|...........|...........|...........|...........|...........|...........|...........|...........|...........|F-707v64SD2|A-707v64SD2|...........|...........|...........|...........|...........|...........|...........|F#312v64SD2|C-302v64SD2|...........|...........|...........|...........|A-609v64SD2|F-609v64SD2|...........|...........|...........|...........|...........|...........|...........|...........|...........|...........|...........|...........|...........
|...........|...........|...........|...........|...........|...........|...........|...........|...........|...........|...........|...........|...........|...........|...........|...........|...........|...........|...........|...........|...........|...........|...........|...........|...........|...........|...........|...........|...........|...........|...........|...........|...........|...........|...........|...........|...........|...........|...........|...........|...........|...........|...........|...........
|...........|...........|...........|...........|...........|...........|...........|...........|...........|...........|...........|...........|...........|...........|...........|...........|...........|...........|...........|...........|...........|...........|...........|D-315v42SD2|...........|...........|...........|...........|...........|...........|...........|...........|...........|...........|...........|...........|...........|...........|...........|...........|...........|...........|...........|...........
|...........|...........|...........|...........|...........|...........|...........|...........|...........|...........|...........|...........|...........|...........|...........|...........|...........|...........|...........|...........|...........|...........|...........|...........|...........|...........|...........|...........|...........|...........|...........|...........|...........|...........|...........|...........|...........|...........|...........|...........|...........|...........|...........|...........
|F-503v64SD2|...........|===.....SD2|===.....SD2|...........|...........|...........|...........|...........|...........|...........|...........|...........|...........|===.....SD2|===.....SD2|...........|...........|...........|...........|...........|...........|...........|A#314v64SD2|...........|...........|...........|...........|...........|===.....SD2|===.....SD2|...........|...........|...........|...........|...........|...........|...........|...........|...........|...........|...........|...........|...........
|...........|...........|...........|...........|...........|...........|...........|...........|...........|...........|...........|...........|...........|...........|...........|...........|...........|...........|...........|...........|...........|...........|...........|...........|...........|...........|...........|...........|...........|...........|...........|...........|...........|...........|...........|...........|...........|...........|...........|...........|...........|...........|...........|...........
|...........|...........|...........|...........|...........|...........|...........|...........|...........|...........|...........|...........|...........|...........|...........|...........|...........|...........|...........|...........|...........|...........|...........|D-315v42SD2|...........|...........|...........|...........|...........|...........|...........|...........|...........|...........|...........|...........|...........|...........|...........|...........|...........|...........|...........|...........
|...........|...........|...........|...........|...........|...........|...........|...........|...........|===.....SD4|===.....SD4|===.....SD4|...........|...........|...........|...........|...........|...........|...........|...........|...........|...........|...........|...........|...........|...........|...........|...........|...........|...........|...........|...........|...........|...........|...........|...........|...........|...........|...........|...........|===.....SD4|===.....SD4|===.....SD4|...........
|G#403v64SD2|...........|G-604v64SD2|C-704v64SD2|...........|...........|...........|...........|...........|G#306v64SD2|D#406v64SD2|G#506v64SD2|...........|...........|G-707v64SD2|C-807v64SD2|...........|...........|...........|...........|...........|G#408v64SD2|===.....SD2|D#416v64SD2|F#312v64SD2|C-302v64SD2|...........|...........|...........|C-709v64SD2|G-609v64SD2|...........|...........|...........|...........|...........|...........|...........|...........|...........|G#311v52SD2|D#411v52SD2|G#511v52SD2|...........
|...........|...........|...........|...........|...........|...........|...........|...........|...........|...........|...........|...........|...........|...........|...........|...........|...........|...........|...........|...........|...........|...........|...........|...........|...........|...........|...........|...........|...........|...........|...........|...........|...........|...........|...........|...........|...........|...........|...........|...........|...........|...........|...........|...........
|...........|...........|...........|...........|...........|...........|...........|...........|...........|...........|...........|...........|...........|...........|...........|...........|...........|...........|...........|...........|...........|...........|...........|...........|...........|...........|...........|...........|...........|...........|...........|...........|...........|...........|...........|...........|...........|...........|...........|...........|...........|...........|...........|...........
|...........|...........|...........|...........|...........|...........|...........|...........|...........|...........|...........|...........|...........|...........|...........|...........|...........|...........|...........|...........|...........|...........|...........|...........|...........|...........|...........|...........|...........|...........|...........|...........|...........|...........|...........|...........|...........|...........|...........|...........|...........|...........|...........|...........
|D#503v64SD2|...........|D#604v64SD2|G-604v64SD2|...........|...........|...........|...........|...........|...........|...........|...........|...........|...........|D#707v64SD2|G-707v64SD2|...........|...........|...........|...........|...........|...........|...........|A#314v64SD2|...........|...........|...........|...........|...........|G-609v64SD2|D#609v64SD2|...........|...........|...........|...........|...........|...........|...........|...........|...........|...........|...........|...........|...........
|...........|...........|...........|...........|...........|...........|...........|...........|...........|...........|...........|...........|...........|...........|...........|...........|...........|...........|...........|...........|...........|...........|...........|...........|...........|...........|...........|...........|...........|...........|...........|...........|...........|...........|...........|...........|...........|...........|...........|...........|...........|...........|...........|...........
|...........|...........|...........|...........|...........|...........|...........|...........|...........|...........|...........|...........|...........|...........|...........|...........|...........|...........|...........|...........|...........|...........|...........|...........|...........|...........|...........|...........|...........|...........|...........|...........|...........|...........|...........|...........|...........|...........|...........|...........|...........|...........|...........|...........
|...........|...........|...........|...........|...........|...........|...........|...........|...........|...........|...........|...........|...........|...........|...........|...........|...........|...........|...........|...........|...........|...........|...........|...........|...........|...........|...........|...........|...........|...........|...........|...........|...........|...........|...........|...........|...........|...........|...........|...........|...........|...........|...........|...........
|G#403v64SD2|...........|A#604v64SD2|D-704v64SD2|...........|...........|...........|...........|...........|...........|...........|...........|...........|...........|A#707v64SD2|D-807v64SD2|...........|...........|...........|...........|...........|...........|...........|F#312v64SD2|C-302v64SD2|...........|...........|...........|...........|D-709v64SD2|A#609v64SD2|...........|...........|...........|...........|...........|...........|...........|...........|...........|...........|...........|...........|...........
|...........|...........|...........|...........|...........|...........|...........|...........|...........|...........|...........|...........|...........|...........|...........|...........|...........|...........|...........|...........|...........|...........|...........|...........|...........|...........|...........|...........|...........|...........|...........|...........|...........|...........|...........|...........|...........|...........|...........|...........|...........|...........|...........|...........
|...........|...........|...........|...........|...........|...........|...........|...........|...........|...........|...........|...........|...........|...........|...........|...........|...........|...........|...........|...........|...........|...........|...........|...........|...........|...........|...........|...........|...........|...........|...........|...........|...........|...........|...........|...........|...........|...........|...........|...........|...........|...........|...........|...........
|...........|...........|...........|...........|...........|...........|...........|...........|...........|...........|...........|...........|...........|...........|...........|...........|...........|...........|...........|...........|...........|...........|...........|...........|...........|...........|...........|...........|...........|...........|...........|...........|...........|...........|...........|...........|...........|...........|...........|...........|...........|...........|...........|...........
|D#503v64SD2|...........|C-704v64SD2|D#704v64SD2|...........|...........|...........|...........|...........|...........|...........|...........|...........|...........|C-807v64SD2|D#807v64SD2|...........|...........|...........|...........|...........|...........|...........|A#314v64SD2|...........|...........|...........|...........|...........|D#709v64SD2|C-709v64SD2|...........|...........|...........|...........|...........|...........|...........|...........|...........|...........|...........|...........|...........
|...........|...........|...........|...........|...........|...........|...........|...........|...........|...........|...........|...........|...........|...........|...........|...........|...........|...........|...........|...........|...........|...........|...........|...........|...........|...........|...........|...........|...........|...........|...........|...........|...........|...........|...........|...........|...........|...........|...........|...........|...........|...........|...........|...........
|...........|...........|===.....SD2|===.....SD2|...........|...........|...........|...........|...........|...........|...........|...........|...........|...........|===.....SD2|===.....SD2|...........|...........|...........|...........|...........|...........|...........|...........|...........|...........|...........|...........|...........|===.....SD2|===.....SD2|...........|...........|...........|...........|...........|...........|...........|...........|...........|...........|...........|...........|...........
|...........|...........|...........|...........|...........|...........|...........|...........|...........|===.....SD4|===.....SD4|===.....SD4|...........|...........|...........|...........|...........|...........|...........|...........|...........|...........|...........|...........|...........|...........|...........|...........|...........|...........|...........|...........|...........|...........|...........|...........|...........|...........|...........|...........|===.....SD4|===.....SD4|===.....SD4|...........
|A#403v64SD2|...........|A#604v64SD2|D-704v64SD2|...........|...........|...........|...........|...........|A#306v64SD2|F-406v64SD2|A#506v64SD2|...........|...........|A#707v64SD2|D-807v64SD2|...........|...........|...........|...........|...........|===.....SD2|A#408v64SD2|F#312v64SD2|C-302v64SD2|...........|...........|...........|...........|D-709v64SD2|A#609v64SD2|...........|...........|...........|...........|...........|...........|...........|...........|...........|A#311v52SD2|F-411v52SD2|A#511v52SD2|...........
|...........|...........|...........|...........|...........|...........|...........|...........|...........|...........|...........|...........|...........|...........|...........|...........|...........|...........|...........|...........|...........|...........|...........|...........|...........|...........|...........|...........|...........|...........|...........|...........|...........|...........|...........|...........|...........|...........|...........|...........|...........|...........|...........|...........
|...........|...........|...........|...........|...........|...........|...........|...........|...........|...........|...........|...........|...........|...........|...........|...........|...........|...........|...........|...........|...........|...........|...........|...........|...........|...........|...........|...........|...........|...........|...........|...........|...........|...........|...........|...........|...........|...........|...........|...........|...........|...........|...........|...........
|...........|...........|...........|...........|...........|...........|...........|...........|...........|...........|...........|...........|...........|...........|...........|...........|...........|...........|...........|...........|...........|...........|...........|...........|...........|...........|...........|...........|...........|...........|...........|...........|...........|...........|...........|...........|...........|...........|...........|...........|...........|...........|...........|...........
|F-503v64SD2|...........|C-704v64SD2|D#704v64SD2|...........|...........|...........|...........|...........|...........|...........|...........|...........|...........|C-807v64SD2|D#807v64SD2|...........|...........|...........|...........|...........|...........|...........|A#314v64SD2|...........|...........|...........|...........|...........|D#709v64SD2|C-709v64SD2|...........|...........|...........|...........|...........|...........|...........|...........|...........|...........|...........|...........|...........
|...........|...........|...........|...........|...........|...........|...........|...........|...........|...........|...........|...........|...........|...........|...........|...........|...........|...........|...........|...........|...........|...........|...........|...........|...........|...........|...........|...........|...........|...........|...........|...........|...........|...........|...........|...........|...........|...........|...........|...........|...........|...........|...........|...........
|...........|...........|A#604v64SD2|D-704v64SD2|...........|...........|...........|...........|...........|...........|...........|...........|...........|...........|A#707v64SD2|D-807v64SD2|...........|...........|...........|...........|...........|...........|...........|...........|...........|...........|...........|...........|...........|D-709v64SD2|A#609v64SD2|...........|...........|...........|...........|...........|...........|...........|...........|...........|...........|...........|...........|...........
|...........|...........|...........|...........|...........|...........|...........|...........|...........|...........|...........|...........|...........|...........|...........|...........|...........|...........|...........|...........|...........|...........|...........|...........|...........|...........|...........|...........|...........|...........|...........|...........|...........|...........|...........|...........|...........|...........|...........|...........|...........|...........|...........|...........
|A#403v64SD2|...........|D#604v64SD2|C-704v64SD2|...........|...........|...........|...........|...........|...........|...........|...........|...........|...........|D#707v64SD2|C-807v64SD2|...........|...........|...........|...........|...........|...........|...........|F#312v64SD2|C-302v64SD2|...........|...........|...........|...........|C-709v64SD2|D#609v64SD2|...........|...........|...........|...........|...........|...........|...........|...........|...........|...........|...........|...........|...........
|...........|...........|...........|...........|...........|...........|...........|...........|...........|...........|...........|...........|...........|...........|...........|...........|...........|...........|...........|...........|...........|...........|...........|...........|...........|...........|...........|...........|...........|...........|...........|...........|...........|...........|...........|...........|...........|...........|...........|...........|...........|...........|...........|...........
|...........|...........|...........|...........|...........|...........|...........|...........|...........|...........|...........|...........|...........|...........|...........|...........|...........|...........|...........|...........|...........|...........|...........|...........|...........|...........|...........|...........|...........|...........|...........|...........|...........|...........|...........|...........|...........|...........|...........|...........|...........|...........|...........|...........
|...........|...........|...........|...........|...........|...........|...........|...........|...........|...........|...........|...........|...........|...........|...........|...........|...........|...........|...........|...........|...........|...........|...........|...........|...........|...........|...........|...........|...........|...........|...........|...........|...........|...........|...........|...........|...........|...........|...........|...........|...........|...........|...........|...........
|F-503v64SD2|...........|D#604v64SD2|A#604v64SD2|...........|...........|...........|...........|...........|...........|...........|...........|...........|...........|D#707v64SD2|A#707v64SD2|...........|...........|...........|...........|...........|...........|...........|A#314v64SD2|...........|...........|...........|...........|...........|A#609v64SD2|D#609v64SD2|...........|...........|...........|...........|...........|...........|...........|...........|...........|...........|...........|...........|...........
|...........|...........|...........|...........|...........|...........|...........|...........|...........|...........|...........|...........|...........|...........|...........|...........|...........|...........|...........|...........|...........|...........|...........|...........|...........|...........|...........|...........|...........|...........|...........|...........|...........|...........|...........|...........|...........|...........|...........|...........|...........|...........|...........|...........
|...........|...........|===.....SD2|===.....SD2|...........|...........|...........|...........|...........|...........|...........|...........|...........|...........|===.....SD2|===.....SD2|...........|...........|...........|...........|...........|...........|...........|...........|...........|...........|...........|...........|...........|===.....SD2|===.....SD2|...........|...........|...........|...........|...........|...........|...........|...........|...........|...........|...........|...........|...........
|...........|...........|...........|...........|...........|...........|...........|...........|...........|===.....SD4|===.....SD4|===.....SD4|...........|...........|...........|...........|...........|...........|...........|...........|...........|...........|...........|...........|...........|...........|...........|...........|...........|...........|...........|...........|...........|...........|...........|...........|...........|...........|...........|...........|===.....SD4|===.....SD4|===.....SD4|...........
|C-503v64SD2|...........|D#604v64SD2|G-604v64SD2|...........|...........|...........|...........|...........|C-406v64SD2|G-406v64SD2|C-606v64SD2|...........|...........|D#707v64SD2|G-707v64SD2|...........|...........|...........|...........|...........|C-508v64SD2|===.....SD2|F#312v64SD2|C-302v64SD2|...........|...........|...........|...........|G-609v64SD2|D#609v64SD2|...........|...........|...........|...........|...........|...........|...........|...........|...........|C-411v52SD2|G-411v52SD2|C-611v52SD2|...........
|...........|...........|...........|...........|...........|...........|...........|...........|...........|...........|...........|...........|...........|...........|...........|...........|...........|...........|...........|...........|...........|...........|...........|...........|...........|...........|...........|...........|...........|...........|...........|...........|...........|...........|...........|...........|...........|...........|...........|...........|...........|...........|...........|...........
|...........|...........|...........|...........|...........|...........|...........|...........|...........|...........|...........|...........|...........|...........|...........|...........|...........|...........|...........|...........|...........|...........|...........|...........|...........|...........|...........|...........|...........|...........|...........|...........|...........|...........|...........|...........|...........|...........|...........|...........|...........|...........|...........|...........
|...........|...........|...........|...........|...........|...........|...........|...........|...........|...........|...........|...........|...........|...........|...........|...........|...........|...........|...........|...........|...........|...........|...........|...........|...........|...........|...........|...........|...........|...........|...........|...........|...........|...........|...........|...........|...........|...........|...........|...........|...........|...........|...........|...........
|G-503v64SD2|...........|G-604v64SD2|A#604v64SD2|...........|...........|...........|...........|...........|...........|...........|...........|...........|...........|G-707v64SD2|A#707v64SD2|...........|...........|...........|...........|...........|...........|...........|A#314v64SD2|...........|...........|...........|...........|...........|A#609v64SD2|G-609v64SD2|...........|...........|...........|...........|...........|...........|...........|...........|...........|...........|...........|...........|...........
|...........|...........|...........|...........|...........|...........|...........|...........|...........|...........|...........|...........|...........|...........|...........|...........|...........|...........|...........|...........|...........|...........|...........|...........|...........|...........|...........|...........|...........|...........|...........|...........|...........|...........|...........|...........|...........|...........|...........|...........|...........|...........|...........|...........
|...........|...........|...........|...........|...........|...........|...........|...........|...........|...........|...........|...........|...........|...........|...........|...........|...........|...........|...........|...........|...........|...........|...........|...........|...........|...........|...........|...........|...........|...........|...........|...........|...........|...........|...........|...........|...........|...........|...........|...........|...........|...........|...........|...........
|...........|...........|===.....SD2|===.....SD2|...........|...........|...........|...........|...........|...........|...........|...........|...........|...........|===.....SD2|===.....SD2|...........|...........|...........|...........|...........|...........|...........|...........|...........|...........|...........|...........|...........|===.....SD2|===.....SD2|...........|...........|...........|...........|...........|...........|...........|...........|...........|...........|...........|...........|...........
|C-503v64SD2|...........|D-604v64SD2|F-604v64SD2|...........|...........|...........|...........|...........|...........|...........|...........|...........|...........|D-707v64SD2|F-707v64SD2|...........|...........|...........|...........|...........|...........|...........|F#312v64SD2|C-302v64SD2|...........|...........|...........|...........|F-609v64SD2|D-609v64SD2|...........|...........|...........|...........|...........|...........|...........|...........|...........|...........|...........|...........|...........
|...........|...........|...........|...........|...........|...........|...........|...........|...........|...........|...........|...........|...........|...........|...........|...........|...........|...........|...........|...........|...........|...........|...........|...........|...........|...........|...........|...........|...........|...........|...........|...........|...........|...........|...........|...........|...........|...........|...........|...........|...........|...........|...........|...........
|...........|...........|...........|...........|...........|...........|...........|...........|...........|...........|...........|...........|...........|...........|...........|...........|...........|...........|...........|...........|...........|...........|...........|...........|...........|...........|...........|...........|...........|...........|...........|...........|...........|...........|...........|...........|...........|...........|...........|...........|...........|...........|...........|...........
|...........|...........|...........|...........|...........|...........|...........|...........|...........|...........|...........|...........|...........|...........|...........|...........|...........|...........|...........|...........|...........|...........|...........|...........|...........|...........|...........|...........|...........|...........|...........|...........|...........|...........|...........|...........|...........|...........|...........|...........|...........|...........|...........|...........
|G-503v64SD2|...........|D#604v64SD2|G-604v64SD2|...........|...........|...........|...........|...........|...........|...........|...........|...........|...........|D#707v64SD2|G-707v64SD2|...........|...........|...........|...........|...........|...........|...........|A#314v64SD2|...........|...........|...........|...........|...........|G-609v64SD2|D#609v64SD2|...........|...........|...........|...........|...........|...........|...........|...........|...........|...........|...........|...........|...........
|...........|...........|...........|...........|...........|...........|...........|...........|...........|...........|...........|...........|...........|...........|...........|...........|...........|...........|...........|...........|...........|...........|...........|...........|...........|...........|...........|...........|...........|...........|...........|...........|...........|...........|...........|...........|...........|...........|...........|...........|...........|...........|...........|...........
|...........|...........|...........|...........|...........|...........|...........|...........|...........|...........|...........|...........|...........|...........|...........|...........|...........|...........|...........|...........|...........|...........|...........|...........|...........|...........|...........|...........|...........|...........|...........|...........|...........|...........|...........|...........|...........|...........|...........|...........|...........|...........|...........|...........
|...........|...........|===.....SD2|===.....SD2|...........|...........|...........|...........|...........|...........|...........|...........|...........|...........|===.....SD2|===.....SD2|...........|...........|...........|...........|...........|...........|...........|...........|...........|...........|...........|...........|...........|===.....SD2|===.....SD2|...........|...........|...........|...........|...........|...........|...........|...........|...........|...........|...........|...........|...........
|C-503v64SD2|...........|C-604v64SD2|D#604v64SD2|...........|...........|...........|...........|...........|...........|...........|...........|...........|...........|C-707v64SD2|D#707v64SD2|...........|...........|...........|...........|...........|...........|...........|F#312v64SD2|C-302v64SD2|...........|...........|...........|...........|D#609v64SD2|C-609v64SD2|...........|...........|...........|...........|...........|...........|...........|...........|...........|...........|...........|...........|...........
|...........|...........|...........|...........|...........|...........|...........|...........|...........|...........|...........|...........|...........|...........|...........|...........|...........|...........|...........|...........|...........|...........|...........|...........|...........|...........|...........|...........|...........|...........|...........|...........|...........|...........|...........|...........|...........|...........|...........|...........|...........|...........|...........|...........
|...........|...........|...........|...........|...........|...........|...........|...........|...........|...........|...........|...........|...........|...........|...........|...........|...........|...........|...........|...........|...........|...........|...........|...........|...........|...........|...........|...........|...........|...........|...........|...........|...........|...........|...........|...........|...........|...........|...........|...........|...........|...........|...........|...........
|...........|...........|...........|...........|...........|...........|...........|...........|...........|...........|...........|...........|...........|...........|...........|...........|...........|...........|...........|...........|...........|...........|...........|...........|...........|...........|...........|...........|...........|...........|...........|...........|...........|...........|...........|...........|...........|...........|...........|...........|...........|...........|...........|...........
|G-503v64SD2|...........|...........|...........|...........|...........|...........|...........|...........|...........|...........|...........|...........|...........|...........|...........|...........|...........|...........|...........|...........|...........|...........|D-315v42SD2|A#314v64SD2|...........|...........|...........|...........|...........|...........|...........|...........|...........|...........|...........|...........|...........|...........|...........|...........|...........|...........|...........
|...........|...........|...........|...........|...........|...........|...........|...........|...........|...........|...........|...........|...........|...........|...........|...........|...........|...........|...........|...........|...........|...........|...........|...........|...........|...........|...........|...........|...........|...........|...........|...........|...........|...........|...........|...........|...........|...........|...........|...........|...........|...........|...........|...........
|...........|...........|...........|...........|...........|...........|...........|...........|...........|...........|...........|...........|...........|...........|...........|...........|...........|...........|...........|...........|...........|...........|...........|...........|...........|...........|...........|...........|...........|...........|...........|...........|...........|...........|...........|...........|...........|...........|...........|...........|...........|...........|...........|...........
|...........|...........|...........|...........|...........|...........|...........|...........|...........|...........|...........|...........|...........|...........|...........|...........|...........|...........|...........|...........|...........|...........|...........|...........|...........|...........|...........|...........|...........|...........|...........|...........|...........|...........|...........|...........|...........|...........|...........|...........|...........|...........|...........|...........
|C-503v64SD2|...........|...........|...........|...........|...........|...........|...........|...........|...........|...........|...........|...........|...........|...........|...........|...........|...........|...........|...........|...........|...........|...........|F#312v64SD2|C-302v64SD2|...........|...........|...........|...........|...........|...........|...........|...........|...........|...........|...........|...........|...........|...........|...........|...........|...........|...........|...........
|...........|...........|...........|...........|...........|...........|...........|...........|...........|...........|...........|...........|...........|...........|...........|...........|...........|...........|...........|...........|...........|...........|...........|...........|...........|...........|...........|...........|...........|...........|...........|...........|...........|...........|...........|...........|...........|...........|...........|...........|...........|...........|...........|...........
|...........|...........|...........|...........|...........|...........|...........|...........|...........|...........|...........|...........|...........|...........|...........|...........|...........|...........|...........|...........|...........|...........|...........|D-315v42SD2|...........|...........|...........|...........|...........|...........|...........|...........|...........|...........|...........|...........|...........|...........|...........|...........|...........|...........|...........|...........
|...........|...........|...........|...........|...........|...........|...........|...........|...........|...........|...........|...........|...........|...........|...........|...........|...........|...........|...........|...........|...........|...........|...........|...........|...........|...........|...........|...........|...........|...........|...........|...........|...........|...........|...........|...........|...........|...........|...........|...........|...........|...........|...........|...........
|G-503v64SD2|...........|...........|...........|...........|...........|...........|...........|...........|...........|...........|...........|...........|...........|...........|...........|...........|...........|...........|...........|...........|...........|...........|A#314v64SD2|...........|...........|...........|...........|...........|...........|...........|...........|...........|...........|...........|...........|...........|...........|...........|...........|...........|...........|...........|...........
|...........|...........|...........|...........|...........|...........|...........|...........|...........|...........|...........|...........|...........|...........|...........|...........|...........|...........|...........|...........|...........|...........|...........|...........|...........|...........|...........|...........|...........|...........|...........|...........|...........|...........|...........|...........|...........|...........|...........|...........|...........|...........|...........|...........
|...........|...........|...........|...........|...........|...........|...........|...........|...........|...........|...........|...........|...........|...........|...........|...........|...........|...........|...........|...........|...........|...........|...........|D-315v42SD2|...........|...........|...........|...........|...........|...........|...........|...........|...........|...........|...........|...........|...........|...........|...........|...........|...........|...........|...........|...........
|...........|...........|===.....SD4|===.....SD4|...........|...........|...........|...........|...........|...........|...........|...........|...........|...........|===.....SD4|===.....SD4|...........|...........|...........|...........|...........|...........|...........|...........|...........|...........|...........|...........|...........|===.....SD4|===.....SD4|...........|...........|...........|...........|...........|...........|...........|...........|...........|...........|...........|...........|...........
|G#403v64SD2|...........|G-504v64SD2|C-604v64SD2|...........|...........|...........|...........|...........|G#306v64SD2|D#406v64SD2|C-506v64SD2|...........|...........|G-607v64SD2|C-707v64SD2|...........|...........|...........|...........|...........|C-408v64SD2|...........|D#416v64SD2|F#312v64SD2|C-302v64SD2|...........|...........|...........|C-609v64SD2|G-509v64SD2|...........|...........|...........|...........|...........|...........|...........|...........|...........|G#311v52SD2|D#411v52SD2|C-511v52SD2|...........
|...........|...........|...........|...........|...........|...........|...........|...........|...........|...........|...........|...........|...........|...........|...........|...........|...........|...........|...........|...........|...........|...........|...........|...........|...........|...........|...........|...........|...........|...........|...........|...........|...........|...........|...........|...........|...........|...........|...........|...........|...........|...........|...........|...........
|...........|...........|...........|...........|...........|...........|...........|...........|...........|...........|...........|...........|...........|...........|...........|...........|...........|...........|...........|...........|...........|...........|...........|...........|...........|...........|...........|...........|...........|...........|...........|...........|...........|...........|...........|...........|...........|...........|...........|...........|...........|...........|...........|...........
|...........|...........|...........|...........|...........|...........|...........|...........|...........|...........|...........|...........|...........|...........|...........|...........|...........|...........|...........|...........|...........|...........|...........|...........|...........|...........|...........|...........|...........|...........|...........|...........|...........|...........|...........|...........|...........|...........|...........|...........|...........|...........|...........|...........
|D#503v64SD2|...........|===.....SD2|===.....SD2|...........|...........|...........|...........|...........|...........|...........|...........|...........|...........|===.....SD2|===.....SD2|...........|...........|...........|...........|...........|...........|...........|A#314v64SD2|...........|...........|...........|...........|...........|===.....SD2|===.....SD2|...........|...........|...........|...........|...........|...........|...........|...........|...........|...........|...........|...........|...........
|...........|...........|...........|...........|...........|...........|...........|...........|...........|...........|...........|...........|...........|...........|...........|...........|...........|...........|...........|...........|...........|...........|...........|...........|...........|...........|...........|...........|...........|...........|...........|...........|...........|...........|...........|...........|...........|...........|...........|...........|...........|...........|...........|...........
|...........|...........|...........|...........|...........|...........|...........|...........|...........|...........|...........|...........|...........|...........|...........|...........|...........|...........|...........|...........|...........|...........|...........|...........|...........|...........|...........|...........|...........|...........|...........|...........|...........|...........|...........|...........|...........|...........|...........|...........|...........|...........|...........|...........
|...........|...........|...........|...........|...........|...........|...........|...........|...........|...........|...........|...........|...........|...........|...........|...........|...........|...........|...........|...........|...........|...........|...........|...........|...........|...........|...........|...........|...........|...........|...........|...........|...........|...........|...........|...........|...........|...........|...........|...........|...........|...........|...........|...........
|G#403v64SD2|...........|D#604v64SD2|G-604v64SD2|...........|...........|...........|...........|...........|...........|...........|...........|...........|...........|D#707v64SD2|G-707v64SD2|...........|...........|...........|...........|...........|...........|...........|F#312v64SD2|C-302v64SD2|...........|...........|...........|...........|G-609v64SD2|D#609v64SD2|...........|...........|...........|...........|...........|...........|...........|...........|...........|...........|...........|...........|...........
|...........|...........|...........|...........|...........|...........|...........|...........|...........|...........|...........|...........|...........|...........|...........|...........|...........|...........|...........|...........|...........|...........|...........|...........|...........|...........|...........|...........|...........|...........|...........|...........|...........|...........|...........|...........|...........|...........|...........|...........|...........|...........|...........|...........
|...........|...........|...........|...........|...........|...........|...........|...........|...........|...........|...........|...........|...........|...........|...........|...........|...........|...........|...........|...........|...........|...........|...........|...........|...........|...........|...........|...........|...........|...........|...........|...........|...........|...........|...........|...........|...........|...........|...........|...........|...........|...........|...........|...........
|...........|...........|...........|...........|...........|...........|...........|...........|...........|...........|...........|...........|...........|...........|...........|...........|...........|...........|...........|...........|...........|...........|...........|...........|...........|...........|...........|...........|...........|...........|...........|...........|...........|...........|...........|...........|...........|...........|...........|...........|...........|...........|...........|...........
|D#503v64SD2|...........|===.....SD2|===.....SD2|...........|...........|...........|...........|...........|...........|...........|...........|...........|...........|===.....SD2|===.....SD2|...........|...........|...........|...........|...........|...........|...........|A#314v64SD2|...........|...........|...........|...........|...........|===.....SD2|===.....SD2|...........|...........|...........|...........|...........|...........|...........|...........|...........|...........|...........|...........|...........
|...........|...........|...........|...........|...........|...........|...........|...........|...........|...........|...........|...........|...........|...........|...........|...........|...........|...........|...........|...........|...........|...........|...........|...........|...........|...........|...........|...........|...........|...........|...........|...........|...........|...........|...........|...........|...........|...........|...........|...........|...........|...........|...........|...........
|...........|...........|...........|...........|...........|...........|...........|...........|...........|...........|...........|...........|...........|...........|...........|...........|...........|...........|...........|...........|...........|...........|...........|...........|...........|...........|...........|...........|...........|...........|...........|...........|...........|...........|...........|...........|...........|...........|...........|...........|...........|...........|...........|...........
|...........|...........|...........|...........|...........|...........|...........|...........|...........|===.....SD4|===.....SD4|===.....SD4|...........|...........|...........|...........|...........|...........|...........|...........|...........|...........|...........|...........|...........|...........|...........|...........|...........|...........|...........|...........|...........|...........|...........|...........|...........|...........|...........|...........|===.....SD4|===.....SD4|===.....SD4|...........
|A#403v64SD2|...........|G-504v64SD2|D-604v64SD2|...........|...........|...........|...........|...........|A#306v64SD2|F-406v64SD2|D-506v64SD2|...........|...........|G-607v64SD2|D-707v64SD2|...........|...........|...........|...........|...........|===.....SD2|D-408v64SD2|F#312v64SD2|C-302v64SD2|...........|...........|...........|...........|D-609v64SD2|G-509v64SD2|...........|...........|...........|...........|...........|...........|...........|...........|...........|A#311v52SD2|F-411v52SD2|D-511v52SD2|...........


!channels=1+15+16+41
!octaves=0+3+3+3

ModPlug Tracker MPT
|...........|...........|...........|...........|...........|...........|...........|...........|...........|...........|...........|...........|...........|...........|...........|...........|...........|...........|...........|...........|...........|...........|...........|...........|...........|...........|...........|...........|...........|...........|...........|...........|...........|...........|...........|...........|...........|...........|...........|...........|...........|...........|...........|...........
|...........|...........|...........|...........|...........|...........|...........|...........|...........|...........|...........|...........|...........|...........|...........|...........|...........|...........|...........|...........|...........|...........|...........|...........|...........|...........|...........|...........|...........|...........|...........|...........|...........|...........|...........|...........|...........|...........|...........|...........|...........|...........|...........|...........
|...........|...........|...........|...........|...........|...........|...........|...........|...........|...........|...........|...........|...........|...........|...........|...........|...........|...........|...........|...........|...........|...........|...........|...........|...........|...........|...........|...........|...........|...........|...........|...........|...........|...........|...........|...........|...........|...........|...........|...........|...........|...........|...........|...........
|F-503v64SD2|...........|===.....SD2|===.....SD2|...........|...........|...........|...........|...........|...........|...........|...........|...........|...........|===.....SD2|===.....SD2|...........|...........|...........|...........|...........|...........|...........|A#314v64SD2|...........|...........|...........|...........|...........|===.....SD2|===.....SD2|...........|...........|...........|...........|...........|...........|...........|...........|...........|...........|...........|...........|...........
|...........|...........|...........|...........|...........|...........|...........|...........|...........|...........|...........|...........|...........|...........|...........|...........|...........|...........|...........|...........|...........|...........|...........|...........|...........|...........|...........|...........|...........|...........|...........|...........|...........|...........|...........|...........|...........|...........|...........|...........|...........|...........|...........|...........
|...........|...........|...........|...........|...........|...........|...........|...........|...........|...........|...........|...........|...........|...........|...........|...........|...........|...........|...........|...........|...........|...........|...........|...........|...........|...........|...........|...........|...........|...........|...........|...........|...........|...........|...........|...........|...........|...........|...........|...........|...........|...........|...........|...........
|...........|...........|...........|...........|...........|...........|...........|...........|...........|...........|...........|...........|...........|...........|...........|...........|...........|...........|...........|...........|...........|...........|...........|...........|...........|...........|...........|...........|...........|...........|...........|...........|...........|...........|...........|...........|...........|...........|...........|...........|...........|...........|...........|...........
|A#403v64SD2|...........|D#604v64SD2|G-604v64SD2|...........|...........|...........|...........|...........|...........|...........|...........|...........|...........|D#707v64SD2|G-707v64SD2|...........|...........|...........|...........|...........|...........|...........|F#312v64SD2|C-302v64SD2|...........|...........|...........|...........|G-609v64SD2|D#609v64SD2|...........|...........|...........|...........|...........|...........|...........|...........|...........|...........|...........|...........|...........
|...........|...........|...........|...........|...........|...........|...........|...........|...........|...........|...........|...........|...........|...........|...........|...........|...........|...........|...........|...........|...........|...........|...........|...........|...........|...........|...........|...........|...........|...........|...........|...........|...........|...........|...........|...........|...........|...........|...........|...........|...........|...........|...........|...........
|...........|...........|...........|...........|...........|...........|...........|...........|...........|...........|...........|...........|...........|...........|...........|...........|...........|...........|...........|...........|...........|...........|...........|...........|...........|...........|...........|...........|...........|...........|...........|...........|...........|...........|...........|...........|...........|...........|...........|...........|...........|...........|...........|...........
|...........|...........|...........|...........|...........|...........|...........|...........|...........|...........|...........|...........|...........|...........|...........|...........|...........|...........|...........|...........|...........|...........|...........|...........|...........|...........|...........|...........|...........|...........|...........|...........|...........|...........|...........|...........|...........|...........|...........|...........|...........|...........|...........|...........
|F-503v64SD2|...........|===.....SD2|===.....SD2|...........|...........|...........|...........|...........|...........|...........|...........|...........|...........|===.....SD2|===.....SD2|...........|...........|...........|...........|...........|...........|...........|A#314v64SD2|...........|...........|...........|...........|...........|===.....SD2|===.....SD2|...........|...........|...........|...........|...........|...........|...........|...........|...........|...........|...........|...........|...........
|...........|...........|...........|...........|...........|...........|...........|...........|...........|...........|...........|...........|...........|...........|...........|...........|...........|...........|...........|...........|...........|...........|...........|...........|...........|...........|...........|...........|...........|...........|...........|...........|...........|...........|...........|...........|...........|...........|...........|...........|...........|...........|...........|...........
|...........|...........|...........|...........|...........|...........|...........|...........|...........|...........|...........|...........|...........|...........|...........|...........|...........|...........|...........|...........|...........|...........|...........|...........|...........|...........|...........|...........|...........|...........|...........|...........|...........|...........|...........|...........|...........|...........|...........|...........|...........|...........|...........|...........
|...........|...........|...........|...........|...........|...........|...........|...........|...........|===.....SD4|===.....SD4|===.....SD4|...........|...........|...........|...........|...........|...........|...........|...........|...........|...........|...........|...........|...........|...........|...........|...........|...........|...........|...........|...........|...........|...........|...........|...........|...........|...........|...........|...........|===.....SD4|===.....SD4|===.....SD4|...........
|C-503v64SD2|...........|C-604v64SD2|D#604v64SD2|...........|...........|...........|...........|...........|C-406v64SD2|G-406v64SD2|D#506v64SD2|...........|...........|C-707v64SD2|D#707v64SD2|...........|...........|...........|...........|...........|D#408v64SD2|===.....SD2|F#312v64SD2|C-302v64SD2|...........|...........|...........|...........|D#609v64SD2|C-609v64SD2|...........|...........|...........|...........|...........|...........|...........|...........|...........|C-411v52SD2|G-411v52SD2|D#511v52SD2|...........
|...........|...........|...........|...........|...........|...........|...........|...........|...........|...........|...........|...........|...........|...........|...........|...........|...........|...........|...........|...........|...........|...........|...........|...........|...........|...........|...........|...........|...........|...........|...........|...........|...........|...........|...........|...........|...........|...........|...........|...........|...........|...........|...........|...........
|...........|...........|...........|...........|...........|...........|...........|...........|...........|...........|...........|...........|...........|...........|...........|...........|...........|...........|...........|...........|...........|...........|...........|...........|...........|...........|...........|...........|...........|...........|...........|...........|...........|...........|...........|...........|...........|...........|...........|...........|...........|...........|...........|...........
|...........|...........|...........|...........|...........|...........|...........|...........|...........|...........|...........|...........|...........|...........|...........|...........|...........|...........|...........|...........|...........|...........|...........|...........|...........|...........|...........|...........|...........|...........|...........|...........|...........|...........|...........|...........|...........|...........|...........|...........|...........|...........|...........|...........
|G-503v64SD2|...........|===.....SD2|===.....SD2|...........|...........|...........|...........|...........|...........|...........|...........|...........|...........|===.....SD2|===.....SD2|...........|...........|...........|...........|...........|...........|...........|A#314v64SD2|...........|...........|...........|...........|...........|===.....SD2|===.....SD2|...........|...........|...........|...........|...........|...........|...........|...........|...........|...........|...........|...........|...........
|...........|...........|...........|...........|...........|...........|...........|...........|...........|...........|...........|...........|...........|...........|...........|...........|...........|...........|...........|...........|...........|...........|...........|...........|...........|...........|...........|...........|...........|...........|...........|...........|...........|...........|...........|...........|...........|...........|...........|...........|...........|...........|...........|...........
|...........|...........|...........|...........|...........|...........|...........|...........|...........|...........|...........|...........|...........|...........|...........|...........|...........|...........|...........|...........|...........|...........|...........|...........|...........|...........|...........|...........|...........|...........|...........|...........|...........|...........|...........|...........|...........|...........|...........|...........|...........|...........|...........|...........
|...........|...........|...........|...........|...........|...........|...........|...........|...........|...........|...........|...........|...........|...........|...........|...........|...........|...........|...........|...........|...........|...........|...........|...........|...........|...........|...........|...........|...........|...........|...........|...........|...........|...........|...........|...........|...........|...........|...........|...........|...........|...........|...........|...........
|C-503v64SD2|...........|D-604v64SD2|F-604v64SD2|...........|...........|...........|...........|...........|...........|...........|...........|...........|...........|D-707v64SD2|F-707v64SD2|...........|...........|...........|...........|...........|...........|...........|F#312v64SD2|C-302v64SD2|...........|...........|...........|...........|F-609v64SD2|D-609v64SD2|...........|...........|...........|...........|...........|...........|...........|...........|...........|...........|...........|...........|...........
|...........|...........|...........|...........|...........|...........|...........|...........|...........|...........|...........|...........|...........|...........|...........|...........|...........|...........|...........|...........|...........|...........|...........|...........|...........|...........|...........|...........|...........|...........|...........|...........|...........|...........|...........|...........|...........|...........|...........|...........|...........|...........|...........|...........
|...........|...........|...........|...........|...........|...........|...........|...........|...........|...........|...........|...........|...........|...........|...........|...........|...........|...........|...........|...........|...........|...........|...........|...........|...........|...........|...........|...........|...........|...........|...........|...........|...........|...........|...........|...........|...........|...........|...........|...........|...........|...........|...........|...........
|...........|...........|...........|...........|...........|...........|...........|...........|...........|...........|...........|...........|...........|...........|...........|...........|...........|...........|...........|...........|...........|...........|...........|...........|...........|...........|...........|...........|...........|...........|...........|...........|...........|...........|...........|...........|...........|...........|...........|...........|...........|...........|...........|...........
|G-503v64SD2|...........|D#604v64SD2|G-604v64SD2|...........|...........|...........|...........|...........|...........|...........|...........|...........|...........|D#707v64SD2|G-707v64SD2|...........|...........|...........|...........|...........|...........|...........|A#314v64SD2|...........|...........|...........|...........|...........|G-609v64SD2|D#609v64SD2|...........|...........|...........|...........|...........|...........|...........|...........|...........|...........|...........|...........|...........
|...........|...........|...........|...........|...........|...........|...........|...........|...........|...........|...........|...........|...........|...........|...........|...........|...........|...........|...........|...........|...........|...........|...........|...........|...........|...........|...........|...........|...........|...........|...........|...........|...........|...........|...........|...........|...........|...........|...........|...........|...........|...........|...........|...........
|...........|...........|...........|...........|...........|...........|...........|...........|...........|...........|...........|...........|...........|...........|...........|...........|...........|...........|...........|...........|...........|...........|...........|...........|...........|...........|...........|...........|...........|...........|...........|...........|...........|...........|...........|...........|...........|...........|...........|...........|...........|...........|...........|...........
|...........|...........|...........|...........|...........|...........|...........|...........|...........|===.....SD4|===.....SD4|===.....SD4|...........|...........|...........|...........|...........|...........|...........|...........|...........|...........|...........|...........|...........|...........|...........|...........|...........|...........|...........|...........|...........|...........|...........|...........|...........|...........|...........|...........|===.....SD4|===.....SD4|===.....SD4|...........
|A-403v64SD2|...........|D-604v64SD2|F-604v64SD2|...........|...........|...........|...........|...........|A-306v64SD2|F-406v64SD2|F-506v64SD2|...........|...........|D-707v64SD2|F-707v64SD2|...........|...........|...........|...........|...........|===.....SD2|F-408v64SD2|F#312v64SD2|C-302v64SD2|...........|...........|...........|...........|F-609v64SD2|D-609v64SD2|...........|...........|...........|...........|...........|...........|...........|...........|...........|A-311v52SD2|F-411v52SD2|F-511v52SD2|...........
|...........|...........|...........|...........|...........|...........|...........|...........|...........|...........|...........|...........|...........|...........|...........|...........|...........|...........|...........|...........|...........|...........|...........|...........|...........|...........|...........|...........|...........|...........|...........|...........|...........|...........|...........|...........|...........|...........|...........|...........|...........|...........|...........|...........
|...........|...........|...........|...........|...........|...........|...........|...........|...........|...........|...........|...........|...........|...........|...........|...........|...........|...........|...........|...........|...........|...........|...........|...........|...........|...........|...........|...........|...........|...........|...........|...........|...........|...........|...........|...........|...........|...........|...........|...........|...........|...........|...........|...........
|...........|...........|...........|...........|...........|...........|...........|...........|...........|...........|...........|...........|...........|...........|...........|...........|...........|...........|...........|...........|...........|...........|...........|...........|...........|...........|...........|...........|...........|...........|...........|...........|...........|...........|...........|...........|...........|...........|...........|...........|...........|...........|...........|...........
|F-503v64SD2|...........|===.....SD2|===.....SD2|...........|...........|...........|...........|...........|...........|...........|...........|...........|...........|===.....SD2|===.....SD2|...........|...........|...........|...........|...........|...........|...........|D-315v42SD2|A#314v64SD2|...........|...........|...........|...........|===.....SD2|===.....SD2|...........|...........|...........|...........|...........|...........|...........|...........|...........|...........|...........|...........|...........
|...........|...........|...........|...........|...........|...........|...........|...........|...........|...........|...........|...........|...........|...........|...........|...........|...........|...........|...........|...........|...........|...........|...........|...........|...........|...........|...........|...........|...........|...........|...........|...........|...........|...........|...........|...........|...........|...........|...........|...........|...........|...........|...........|...........
|...........|...........|...........|...........|...........|...........|...........|...........|...........|...........|...........|...........|...........|...........|...........|...........|...........|...........|...........|...........|...........|...........|...........|...........|...........|...........|...........|...........|...........|...........|...........|...........|...........|...........|...........|...........|...........|...........|...........|...........|...........|...........|...........|...........
|...........|...........|...........|...........|...........|...........|...........|...........|...........|...........|...........|...........|...........|...........|...........|...........|...........|...........|...........|...........|...........|...........|...........|...........|...........|...........|...........|...........|...........|...........|...........|...........|...........|...........|...........|...........|...........|...........|...........|...........|...........|...........|...........|...........
|A-403v64SD2|...........|F-604v64SD2|A-604v64SD2|...........|...........|...........|...........|...........|...........|...........|...........|...........|...........|F-707v64SD2|A-707v64SD2|...........|...........|...........|...........|...........|...........|...........|F#312v64SD2|C-302v64SD2|...........|...........|...........|...........|A-609v64SD2|F-609v64SD2|...........|...........|...........|...........|...........|...........|...........|...........|...........|...........|...........|...........|...........
|...........|...........|...........|...........|...........|...........|...........|...........|...........|...........|...........|...........|...........|...........|...........|...........|...........|...........|...........|...........|...........|...........|...........|...........|...........|...........|...........|...........|...........|...........|...........|...........|...........|...........|...........|...........|...........|...........|...........|...........|...........|...........|...........|...........
|...........|...........|...........|...........|...........|...........|...........|...........|...........|...........|...........|...........|...........|...........|...........|...........|...........|...........|...........|...........|...........|...........|...........|D-315v42SD2|...........|...........|...........|...........|...........|...........|...........|...........|...........|...........|...........|...........|...........|...........|...........|...........|...........|...........|...........|...........
|...........|...........|...........|...........|...........|...........|...........|...........|...........|...........|...........|...........|...........|...........|...........|...........|...........|...........|...........|...........|...........|...........|...........|...........|...........|...........|...........|...........|...........|...........|...........|...........|...........|...........|...........|...........|...........|...........|...........|...........|...........|...........|...........|...........
|F-503v64SD2|...........|===.....SD2|===.....SD2|...........|...........|...........|...........|...........|...........|...........|...........|...........|...........|===.....SD2|===.....SD2|...........|...........|...........|...........|...........|...........|...........|A#314v64SD2|...........|...........|...........|...........|...........|===.....SD2|===.....SD2|...........|...........|...........|...........|...........|...........|...........|...........|...........|...........|...........|...........|...........
|...........|...........|...........|...........|...........|...........|...........|...........|...........|...........|...........|...........|...........|...........|...........|...........|...........|...........|...........|...........|...........|...........|...........|...........|...........|...........|...........|...........|...........|...........|...........|...........|...........|...........|...........|...........|...........|...........|...........|...........|...........|...........|...........|...........
|...........|...........|...........|...........|...........|...........|...........|...........|...........|...........|...........|...........|...........|...........|...........|...........|...........|...........|...........|...........|...........|...........|...........|D-315v42SD2|...........|...........|...........|...........|...........|...........|...........|...........|...........|...........|...........|...........|...........|...........|...........|...........|...........|...........|...........|...........
|...........|...........|...........|...........|...........|...........|...........|...........|...........|===.....SD4|===.....SD4|===.....SD4|...........|...........|...........|...........|...........|...........|...........|...........|...........|...........|...........|...........|...........|...........|...........|...........|...........|...........|...........|...........|...........|...........|...........|...........|...........|...........|...........|...........|===.....SD4|===.....SD4|===.....SD4|...........
|G#403v64SD2|...........|G-604v64SD2|C-704v64SD2|...........|...........|...........|...........|...........|G#306v64SD2|D#406v64SD2|G#506v64SD2|...........|...........|G-707v64SD2|C-807v64SD2|...........|...........|...........|...........|...........|G#408v64SD2|===.....SD2|D#416v64SD2|F#312v64SD2|C-302v64SD2|...........|...........|...........|C-709v64SD2|G-609v64SD2|...........|...........|...........|...........|...........|...........|...........|...........|...........|G#311v52SD2|D#411v52SD2|G#511v52SD2|...........
|...........|...........|...........|...........|...........|...........|...........|...........|...........|...........|...........|...........|...........|...........|...........|...........|...........|...........|...........|...........|...........|...........|...........|...........|...........|...........|...........|...........|...........|...........|...........|...........|...........|...........|...........|...........|...........|...........|...........|...........|...........|...........|...........|...........
|...........|...........|...........|...........|...........|...........|...........|...........|...........|...........|...........|...........|...........|...........|...........|...........|...........|...........|...........|...........|...........|...........|...........|...........|...........|...........|...........|...........|...........|...........|...........|...........|...........|...........|...........|...........|...........|...........|...........|...........|...........|...........|...........|...........
|...........|...........|...........|...........|...........|...........|...........|...........|...........|...........|...........|...........|...........|...........|...........|...........|...........|...........|...........|...........|...........|...........|...........|...........|...........|...........|...........|...........|...........|...........|...........|...........|...........|...........|...........|...........|...........|...........|...........|...........|...........|...........|...........|...........
|D#503v64SD2|...........|D#604v64SD2|G-604v64SD2|...........|...........|...........|...........|...........|...........|...........|...........|...........|...........|D#707v64SD2|G-707v64SD2|...........|...........|...........|...........|...........|...........|...........|A#314v64SD2|...........|...........|...........|...........|...........|G-609v64SD2|D#609v64SD2|...........|...........|...........|...........|...........|...........|...........|...........|...........|...........|...........|...........|...........
|...........|...........|...........|...........|...........|...........|...........|...........|...........|...........|...........|...........|...........|...........|...........|...........|...........|...........|...........|...........|...........|...........|...........|...........|...........|...........|...........|...........|...........|...........|...........|...........|...........|...........|...........|...........|...........|...........|...........|...........|...........|...........|...........|...........
|...........|...........|...........|...........|...........|...........|...........|...........|...........|...........|...........|...........|...........|...........|...........|...........|...........|...........|...........|...........|...........|...........|...........|...........|...........|...........|...........|...........|...........|...........|...........|...........|...........|...........|...........|...........|...........|...........|...........|...........|...........|...........|...........|...........
|...........|...........|...........|...........|...........|...........|...........|...........|...........|...........|...........|...........|...........|...........|...........|...........|...........|...........|...........|...........|...........|...........|...........|...........|...........|...........|...........|...........|...........|...........|...........|...........|...........|...........|...........|...........|...........|...........|...........|...........|...........|...........|...........|...........
|G#403v64SD2|...........|A#604v64SD2|D-704v64SD2|...........|...........|...........|...........|...........|...........|...........|...........|...........|...........|A#707v64SD2|D-807v64SD2|...........|...........|...........|...........|...........|...........|...........|F#312v64SD2|C-302v64SD2|...........|...........|...........|...........|D-709v64SD2|A#609v64SD2|...........|...........|...........|...........|...........|...........|...........|...........|...........|...........|...........|...........|...........
|...........|...........|...........|...........|...........|...........|...........|...........|...........|...........|...........|...........|...........|...........|...........|...........|...........|...........|...........|...........|...........|...........|...........|...........|...........|...........|...........|...........|...........|...........|...........|...........|...........|...........|...........|...........|...........|...........|...........|...........|...........|...........|...........|...........
|...........|...........|...........|...........|...........|...........|...........|...........|...........|...........|...........|...........|...........|...........|...........|...........|...........|...........|...........|...........|...........|...........|...........|...........|...........|...........|...........|...........|...........|...........|...........|...........|...........|...........|...........|...........|...........|...........|...........|...........|...........|...........|...........|...........
|...........|...........|...........|...........|...........|...........|...........|...........|...........|...........|...........|...........|...........|...........|...........|...........|...........|...........|...........|...........|...........|...........|...........|...........|...........|...........|...........|...........|...........|...........|...........|...........|...........|...........|...........|...........|...........|...........|...........|...........|...........|...........|...........|...........
|D#503v64SD2|...........|C-704v64SD2|D#704v64SD2|...........|...........|...........|...........|...........|...........|...........|...........|...........|...........|C-807v64SD2|D#807v64SD2|...........|...........|...........|...........|...........|...........|...........|A#314v64SD2|...........|...........|...........|...........|...........|D#709v64SD2|C-709v64SD2|...........|...........|...........|...........|...........|...........|...........|...........|...........|...........|...........|...........|...........
|...........|...........|...........|...........|...........|...........|...........|...........|...........|...........|...........|...........|...........|...........|...........|...........|...........|...........|...........|...........|...........|...........|...........|...........|...........|...........|...........|...........|...........|...........|...........|...........|...........|...........|...........|...........|...........|...........|...........|...........|...........|...........|...........|...........
|...........|...........|===.....SD2|===.....SD2|...........|...........|...........|...........|...........|...........|...........|...........|...........|...........|===.....SD2|===.....SD2|...........|...........|...........|...........|...........|...........|...........|...........|...........|...........|...........|...........|...........|===.....SD2|===.....SD2|...........|...........|...........|...........|...........|...........|...........|...........|...........|...........|...........|...........|...........
|...........|...........|...........|...........|...........|...........|...........|...........|...........|===.....SD4|===.....SD4|===.....SD4|...........|...........|...........|...........|...........|...........|...........|...........|...........|...........|...........|...........|...........|...........|...........|...........|...........|...........|...........|...........|...........|...........|...........|...........|...........|...........|...........|...........|===.....SD4|===.....SD4|===.....SD4|...........
|A#403v64SD2|...........|A#604v64SD2|D-704v64SD2|...........|...........|...........|...........|...........|A#306v64SD2|F-406v64SD2|A#506v64SD2|...........|...........|A#707v64SD2|D-807v64SD2|...........|...........|...........|...........|...........|===.....SD2|A#408v64SD2|F#312v64SD2|C-302v64SD2|...........|...........|...........|...........|D-709v64SD2|A#609v64SD2|...........|...........|...........|...........|...........|...........|...........|...........|...........|A#311v52SD2|F-411v52SD2|A#511v52SD2|...........
|...........|...........|...........|...........|...........|...........|...........|...........|...........|...........|...........|...........|...........|...........|...........|...........|...........|...........|...........|...........|...........|...........|...........|...........|...........|...........|...........|...........|...........|...........|...........|...........|...........|...........|...........|...........|...........|...........|...........|...........|...........|...........|...........|...........
|...........|...........|...........|...........|...........|...........|...........|...........|...........|...........|...........|...........|...........|...........|...........|...........|...........|...........|...........|...........|...........|...........|...........|...........|...........|...........|...........|...........|...........|...........|...........|...........|...........|...........|...........|...........|...........|...........|...........|...........|...........|...........|...........|...........
|...........|...........|...........|...........|...........|...........|...........|...........|...........|...........|...........|...........|...........|...........|...........|...........|...........|...........|...........|...........|...........|...........|...........|...........|...........|...........|...........|...........|...........|...........|...........|...........|...........|...........|...........|...........|...........|...........|...........|...........|...........|...........|...........|...........
|F-503v64SD2|...........|C-704v64SD2|D#704v64SD2|...........|...........|...........|...........|...........|...........|...........|...........|...........|...........|C-807v64SD2|D#807v64SD2|...........|...........|...........|...........|...........|...........|...........|A#314v64SD2|...........|...........|...........|...........|...........|D#709v64SD2|C-709v64SD2|...........|...........|...........|...........|...........|...........|...........|...........|...........|...........|...........|...........|...........
|...........|...........|...........|...........|...........|...........|...........|...........|...........|...........|...........|...........|...........|...........|...........|...........|...........|...........|...........|...........|...........|...........|...........|...........|...........|...........|...........|...........|...........|...........|...........|...........|...........|...........|...........|...........|...........|...........|...........|...........|...........|...........|...........|...........
|...........|...........|A#604v64SD2|D-704v64SD2|...........|...........|...........|...........|...........|...........|...........|...........|...........|...........|A#707v64SD2|D-807v64SD2|...........|...........|...........|...........|...........|...........|...........|...........|...........|...........|...........|...........|...........|D-709v64SD2|A#609v64SD2|...........|...........|...........|...........|...........|...........|...........|...........|...........|...........|...........|...........|...........
|...........|...........|...........|...........|...........|...........|...........|...........|...........|...........|...........|...........|...........|...........|...........|...........|...........|...........|...........|...........|...........|...........|...........|...........|...........|...........|...........|...........|...........|...........|...........|...........|...........|...........|...........|...........|...........|...........|...........|...........|...........|...........|...........|...........
|A#403v64SD2|...........|D#604v64SD2|C-704v64SD2|...........|...........|...........|...........|...........|...........|...........|...........|...........|...........|D#707v64SD2|C-807v64SD2|...........|...........|...........|...........|...........|...........|...........|F#312v64SD2|C-302v64SD2|...........|...........|...........|...........|C-709v64SD2|D#609v64SD2|...........|...........|...........|...........|...........|...........|...........|...........|...........|...........|...........|...........|...........
|...........|...........|...........|...........|...........|...........|...........|...........|...........|...........|...........|...........|...........|...........|...........|...........|...........|...........|...........|...........|...........|...........|...........|...........|...........|...........|...........|...........|...........|...........|...........|...........|...........|...........|...........|...........|...........|...........|...........|...........|...........|...........|...........|...........
|...........|...........|...........|...........|...........|...........|...........|...........|...........|...........|...........|...........|...........|...........|...........|...........|...........|...........|...........|...........|...........|...........|...........|...........|...........|...........|...........|...........|...........|...........|...........|...........|...........|...........|...........|...........|...........|...........|...........|...........|...........|...........|...........|...........
|...........|...........|...........|...........|...........|...........|...........|...........|...........|...........|...........|...........|...........|...........|...........|...........|...........|...........|...........|...........|...........|...........|...........|...........|...........|...........|...........|...........|...........|...........|...........|...........|...........|...........|...........|...........|...........|...........|...........|...........|...........|...........|...........|...........
|F-503v64SD2|...........|D#604v64SD2|A#604v64SD2|...........|...........|...........|...........|...........|...........|...........|...........|...........|...........|D#707v64SD2|A#707v64SD2|...........|...........|...........|...........|...........|...........|...........|A#314v64SD2|...........|...........|...........|...........|...........|A#609v64SD2|D#609v64SD2|...........|...........|...........|...........|...........|...........|...........|...........|...........|...........|...........|...........|...........
|...........|...........|...........|...........|...........|...........|...........|...........|...........|...........|...........|...........|...........|...........|...........|...........|...........|...........|...........|...........|...........|...........|...........|...........|...........|...........|...........|...........|...........|...........|...........|...........|...........|...........|...........|...........|...........|...........|...........|...........|...........|...........|...........|...........
|...........|...........|===.....SD2|===.....SD2|...........|...........|...........|...........|...........|...........|...........|...........|...........|...........|===.....SD2|===.....SD2|...........|...........|...........|...........|...........|...........|...........|...........|...........|...........|...........|...........|...........|===.....SD2|===.....SD2|...........|...........|...........|...........|...........|...........|...........|...........|...........|...........|...........|...........|...........
|...........|...........|...........|...........|...........|...........|...........|...........|...........|===.....SD4|===.....SD4|===.....SD4|...........|...........|...........|...........|...........|...........|...........|...........|...........|...........|...........|...........|...........|...........|...........|...........|...........|...........|...........|...........|...........|...........|...........|...........|...........|...........|...........|...........|===.....SD4|===.....SD4|===.....SD4|...........
|C-503v64SD2|...........|G-604v64SD2|C-704v64SD2|...........|...........|...........|...........|...........|C-406v64SD2|G-406v64SD2|C-606v64SD2|...........|...........|G-707v64SD2|C-807v64SD2|...........|...........|...........|...........|...........|C-508v64SD2|===.....SD2|F#312v64SD2|C-302v64SD2|...........|...........|...........|...........|C-709v64SD2|G-609v64SD2|...........|...........|...........|...........|...........|...........|...........|...........|...........|C-411v52SD2|G-411v52SD2|C-611v52SD2|...........
|...........|...........|...........|...........|...........|...........|...........|...........|...........|...........|...........|...........|...........|...........|...........|...........|...........|...........|...........|...........|...........|...........|...........|...........|...........|...........|...........|...........|...........|...........|...........|...........|...........|...........|...........|...........|...........|...........|...........|...........|...........|...........|...........|...........
|...........|...........|...........|...........|...........|...........|...........|...........|...........|...........|...........|...........|...........|...........|...........|...........|...........|...........|...........|...........|...........|...........|...........|...........|...........|...........|...........|...........|...........|...........|...........|...........|...........|...........|...........|...........|...........|...........|...........|...........|...........|...........|...........|...........
|...........|...........|...........|...........|...........|...........|...........|...........|...........|...........|...........|...........|...........|...........|...........|...........|...........|...........|...........|...........|...........|...........|...........|...........|...........|...........|...........|...........|...........|...........|...........|...........|...........|...........|...........|...........|...........|...........|...........|...........|...........|...........|...........|...........
|G-503v64SD2|...........|...........|...........|...........|...........|...........|...........|...........|...........|...........|...........|...........|...........|...........|...........|...........|...........|...........|...........|...........|...........|...........|A#314v64SD2|...........|...........|...........|...........|...........|...........|...........|...........|...........|...........|...........|...........|...........|...........|...........|...........|...........|...........|...........|...........
|...........|...........|...........|...........|...........|...........|...........|...........|...........|...........|...........|...........|...........|...........|...........|...........|...........|...........|...........|...........|...........|...........|...........|...........|...........|...........|...........|...........|...........|...........|...........|...........|...........|...........|...........|...........|...........|...........|...........|...........|...........|...........|...........|...........
|...........|...........|...........|...........|...........|...........|...........|...........|...........|...........|...........|...........|...........|...........|...........|...........|...........|...........|...........|...........|...........|...........|...........|...........|...........|...........|...........|...........|...........|...........|...........|...........|...........|...........|...........|...........|...........|...........|...........|...........|...........|...........|...........|...........
|...........|...........|...........|...........|...........|...........|...........|...........|...........|...........|...........|...........|...........|...........|...........|...........|...........|...........|...........|...........|...........|...........|...........|...........|...........|...........|...........|...........|...........|...........|...........|...........|...........|...........|...........|...........|...........|...........|...........|...........|...........|...........|...........|...........
|C-503v64SD2|...........|...........|...........|...........|...........|...........|...........|...........|...........|...........|...........|...........|...........|...........|...........|...........|...........|...........|...........|...........|...........|...........|F#312v64SD2|C-302v64SD2|...........|...........|...........|...........|...........|...........|...........|...........|...........|...........|...........|...........|...........|...........|...........|...........|...........|...........|...........
|...........|...........|...........|...........|...........|...........|...........|...........|...........|...........|...........|...........|...........|...........|...........|...........|...........|...........|...........|...........|...........|...........|...........|...........|...........|...........|...........|...........|...........|...........|...........|...........|...........|...........|...........|...........|...........|...........|...........|...........|...........|...........|...........|...........
|...........|...........|...........|...........|...........|...........|...........|...........|...........|...........|...........|...........|...........|...........|...........|...........|...........|...........|...........|...........|...........|...........|...........|...........|...........|...........|...........|...........|...........|...........|...........|...........|...........|...........|...........|...........|...........|...........|...........|...........|...........|...........|...........|...........
|...........|...........|...........|...........|...........|...........|...........|...........|...........|...........|...........|...........|...........|...........|...........|...........|...........|...........|...........|...........|...........|...........|...........|...........|...........|...........|...........|...........|...........|...........|...........|...........|...........|...........|...........|...........|...........|...........|...........|...........|...........|...........|...........|...........
|G-503v64SD2|...........|...........|...........|...........|...........|...........|...........|...........|...........|...........|...........|...........|...........|...........|...........|...........|...........|...........|...........|...........|...........|...........|A#314v64SD2|...........|...........|...........|...........|...........|...........|...........|...........|...........|...........|...........|...........|...........|...........|...........|...........|...........|...........|...........|...........
|...........|...........|...........|...........|...........|...........|...........|...........|...........|...........|...........|...........|...........|...........|...........|...........|...........|...........|...........|...........|...........|...........|...........|...........|...........|...........|...........|...........|...........|...........|...........|...........|...........|...........|...........|...........|...........|...........|...........|...........|...........|...........|...........|...........
|...........|...........|...........|...........|...........|...........|...........|...........|...........|...........|...........|...........|...........|...........|...........|...........|...........|...........|...........|...........|...........|...........|...........|...........|...........|...........|...........|...........|...........|...........|...........|...........|...........|...........|...........|...........|...........|...........|...........|...........|...........|...........|...........|...........
|...........|...........|...........|...........|...........|...........|...........|...........|...........|...........|...........|...........|...........|...........|...........|...........|...........|...........|...........|...........|...........|...........|...........|...........|...........|...........|...........|...........|...........|...........|...........|...........|...........|...........|...........|...........|...........|...........|...........|...........|...........|...........|...........|...........
|C-503v64SD2|...........|...........|...........|...........|...........|...........|...........|...........|...........|...........|...........|...........|...........|...........|...........|...........|...........|...........|...........|...........|...........|...........|F#312v64SD2|C-302v64SD2|...........|...........|...........|...........|...........|...........|...........|...........|...........|...........|...........|...........|...........|...........|...........|...........|...........|...........|...........
|...........|...........|...........|...........|...........|...........|...........|...........|...........|...........|...........|...........|...........|...........|...........|...........|...........|...........|...........|...........|...........|...........|...........|...........|...........|...........|...........|...........|...........|...........|...........|...........|...........|...........|...........|...........|...........|...........|...........|...........|...........|...........|...........|...........
|...........|...........|...........|...........|...........|...........|...........|...........|...........|...........|...........|...........|...........|...........|...........|...........|...........|...........|...........|...........|...........|...........|...........|...........|...........|...........|...........|...........|...........|...........|...........|...........|...........|...........|...........|...........|...........|...........|...........|...........|...........|...........|...........|...........
|...........|...........|...........|...........|...........|...........|...........|...........|...........|...........|...........|...........|...........|...........|...........|...........|...........|...........|...........|...........|...........|...........|...........|...........|...........|...........|...........|...........|...........|...........|...........|...........|...........|...........|...........|...........|...........|...........|...........|...........|...........|...........|...........|...........
|G-503v64SD2|...........|...........|...........|...........|...........|...........|...........|...........|...........|...........|...........|...........|...........|...........|...........|...........|...........|...........|...........|...........|...........|...........|D-315v42SD2|A#314v64SD2|...........|...........|...........|...........|...........|...........|...........|...........|...........|...........|...........|...........|...........|...........|...........|...........|...........|...........|...........
|...........|...........|...........|...........|...........|...........|...........|...........|...........|...........|...........|...........|...........|...........|...........|...........|...........|...........|...........|...........|...........|...........|...........|...........|...........|...........|...........|...........|...........|...........|...........|...........|...........|...........|...........|...........|...........|...........|...........|...........|...........|...........|...........|...........
|...........|...........|...........|...........|...........|...........|...........|...........|...........|...........|...........|...........|...........|...........|...........|...........|...........|...........|...........|...........|...........|...........|...........|...........|...........|...........|...........|...........|...........|...........|...........|...........|...........|...........|...........|...........|...........|...........|...........|...........|...........|...........|...........|...........
|...........|...........|...........|...........|...........|...........|...........|...........|...........|...........|...........|...........|...........|...........|...........|...........|...........|...........|...........|...........|...........|...........|...........|...........|...........|...........|...........|...........|...........|...........|...........|...........|...........|...........|...........|...........|...........|...........|...........|...........|...........|...........|...........|...........
|C-503v64SD2|...........|...........|...........|...........|...........|...........|...........|...........|...........|...........|...........|...........|...........|...........|...........|...........|...........|...........|...........|...........|...........|...........|F#312v64SD2|C-302v64SD2|...........|...........|...........|...........|...........|...........|...........|...........|...........|...........|...........|...........|...........|...........|...........|...........|...........|...........|...........
|...........|...........|...........|...........|...........|...........|...........|...........|...........|...........|...........|...........|...........|...........|...........|...........|...........|...........|...........|...........|...........|...........|...........|...........|...........|...........|...........|...........|...........|...........|...........|...........|...........|...........|...........|...........|...........|...........|...........|...........|...........|...........|...........|...........
|...........|...........|...........|...........|...........|...........|...........|...........|...........|...........|...........|...........|...........|...........|...........|...........|...........|...........|...........|...........|...........|...........|...........|D-315v42SD2|...........|...........|...........|...........|...........|...........|...........|...........|...........|...........|...........|...........|...........|...........|...........|...........|...........|...........|...........|...........
|...........|...........|...........|...........|...........|...........|...........|...........|...........|...........|...........|...........|...........|...........|...........|...........|...........|...........|...........|...........|...........|...........|...........|...........|...........|...........|...........|...........|...........|...........|...........|...........|...........|...........|...........|...........|...........|...........|...........|...........|...........|...........|...........|...........
|G-503v64SD2|...........|...........|...........|...........|...........|...........|...........|...........|...........|...........|...........|...........|...........|...........|...........|...........|...........|...........|...........|...........|...........|...........|A#314v64SD2|...........|...........|...........|...........|...........|...........|...........|...........|...........|...........|...........|...........|...........|...........|...........|...........|...........|...........|...........|...........
|...........|...........|...........|...........|...........|...........|...........|...........|...........|...........|...........|...........|...........|...........|...........|...........|...........|...........|...........|...........|...........|...........|...........|...........|...........|...........|...........|...........|...........|...........|...........|...........|...........|...........|...........|...........|...........|...........|...........|...........|...........|...........|...........|...........
|...........|...........|...........|...........|...........|...........|...........|...........|...........|...........|...........|...........|...........|...........|...........|...........|...........|...........|...........|...........|...........|...........|...........|D-315v42SD2|...........|...........|...........|...........|...........|...........|...........|...........|...........|...........|...........|...........|...........|...........|...........|...........|...........|...........|...........|...........
|...........|...........|...........|...........|...........|...........|...........|...........|...........|...........|...........|...........|...........|...........|...........|...........|...........|...........|...........|...........|...........|...........|...........|...........|...........|...........|...........|...........|...........|...........|...........|...........|...........|...........|...........|...........|...........|...........|...........|...........|...........|...........|...........|...........
|G#403v64SD2|...........|G-504v64SD2|C-604v64SD2|...........|...........|...........|...........|...........|G#306v64SD2|D#406v64SD2|C-506v64SD2|...........|...........|G-607v64SD2|C-707v64SD2|...........|...........|...........|...........|...........|C-408v64SD2|...........|D#416v64SD2|F#312v64SD2|C-302v64SD2|...........|...........|...........|C-609v64SD2|G-509v64SD2|...........|...........|...........|...........|...........|...........|...........|...........|...........|G#311v52SD2|D#411v52SD2|C-511v52SD2|...........
|...........|...........|...........|...........|...........|...........|...........|...........|...........|...........|...........|...........|...........|...........|...........|...........|...........|...........|...........|...........|...........|...........|...........|...........|...........|...........|...........|...........|...........|...........|...........|...........|...........|...........|...........|...........|...........|...........|...........|...........|...........|...........|...........|...........
|...........|...........|...........|...........|...........|...........|...........|...........|...........|...........|...........|...........|...........|...........|...........|...........|...........|...........|...........|...........|...........|...........|...........|...........|...........|...........|...........|...........|...........|...........|...........|...........|...........|...........|...........|...........|...........|...........|...........|...........|...........|...........|...........|...........
|...........|...........|...........|...........|...........|...........|...........|...........|...........|...........|...........|...........|...........|...........|...........|...........|...........|...........|...........|...........|...........|...........|...........|...........|...........|...........|...........|...........|...........|...........|...........|...........|...........|...........|...........|...........|...........|...........|...........|...........|...........|...........|...........|...........
|D#503v64SD2|...........|===.....SD2|===.....SD2|...........|...........|...........|...........|...........|...........|...........|...........|...........|...........|===.....SD2|===.....SD2|...........|...........|...........|...........|...........|...........|...........|A#314v64SD2|...........|...........|...........|...........|...........|===.....SD2|===.....SD2|...........|...........|...........|...........|...........|...........|...........|...........|...........|...........|...........|...........|...........
|...........|...........|...........|...........|...........|...........|...........|...........|...........|...........|...........|...........|...........|...........|...........|...........|...........|...........|...........|...........|...........|...........|...........|...........|...........|...........|...........|...........|...........|...........|...........|...........|...........|...........|...........|...........|...........|...........|...........|...........|...........|...........|...........|...........
|...........|...........|...........|...........|...........|...........|...........|...........|...........|...........|...........|...........|...........|...........|...........|...........|...........|...........|...........|...........|...........|...........|...........|...........|...........|...........|...........|...........|...........|...........|...........|...........|...........|...........|...........|...........|...........|...........|...........|...........|...........|...........|...........|...........
|...........|...........|...........|...........|...........|...........|...........|...........|...........|...........|...........|...........|...........|...........|...........|...........|...........|...........|...........|...........|...........|...........|...........|...........|...........|...........|...........|...........|...........|...........|...........|...........|...........|...........|...........|...........|...........|...........|...........|...........|...........|...........|...........|...........
|G#403v64SD2|...........|D#604v64SD2|G-604v64SD2|...........|...........|...........|...........|...........|...........|...........|...........|...........|...........|D#707v64SD2|G-707v64SD2|...........|...........|...........|...........|...........|...........|...........|F#312v64SD2|C-302v64SD2|...........|...........|...........|...........|G-609v64SD2|D#609v64SD2|...........|...........|...........|...........|...........|...........|...........|...........|...........|...........|...........|...........|...........
|...........|...........|...........|...........|...........|...........|...........|...........|...........|...........|...........|...........|...........|...........|...........|...........|...........|...........|...........|...........|...........|...........|...........|...........|...........|...........|...........|...........|...........|...........|...........|...........|...........|...........|...........|...........|...........|...........|...........|...........|...........|...........|...........|...........
|...........|...........|...........|...........|...........|...........|...........|...........|...........|...........|...........|...........|...........|...........|...........|...........|...........|...........|...........|...........|...........|...........|...........|...........|...........|...........|...........|...........|...........|...........|...........|...........|...........|...........|...........|...........|...........|...........|...........|...........|...........|...........|...........|...........
|...........|...........|...........|...........|...........|...........|...........|...........|...........|...........|...........|...........|...........|...........|...........|...........|...........|...........|...........|...........|...........|...........|...........|...........|...........|...........|...........|...........|...........|...........|...........|...........|...........|...........|...........|...........|...........|...........|...........|...........|...........|...........|...........|...........
|D#503v64SD2|...........|===.....SD2|===.....SD2|...........|...........|...........|...........|...........|...........|...........|...........|...........|...........|===.....SD2|===.....SD2|...........|...........|...........|...........|...........|...........|...........|A#314v64SD2|...........|...........|...........|...........|...........|===.....SD2|===.....SD2|...........|...........|...........|...........|...........|...........|...........|...........|...........|...........|...........|...........|...........
|...........|...........|...........|...........|...........|...........|...........|...........|...........|...........|...........|...........|...........|...........|...........|...........|...........|...........|...........|...........|...........|...........|...........|...........|...........|...........|...........|...........|...........|...........|...........|...........|...........|...........|...........|...........|...........|...........|...........|...........|...........|...........|...........|...........
|...........|...........|...........|...........|...........|...........|...........|...........|...........|...........|...........|...........|...........|...........|...........|...........|...........|...........|...........|...........|...........|...........|...........|...........|...........|...........|...........|...........|...........|...........|...........|...........|...........|...........|...........|...........|...........|...........|...........|...........|...........|...........|...........|...........
|...........|...........|...........|...........|...........|...........|...........|...........|...........|===.....SD4|===.....SD4|===.....SD4|...........|...........|...........|...........|...........|...........|...........|...........|...........|...........|...........|...........|...........|...........|...........|...........|...........|...........|...........|...........|...........|...........|...........|...........|...........|...........|...........|...........|===.....SD4|===.....SD4|===.....SD4|...........
|A#403v64SD2|...........|G-504v64SD2|D-604v64SD2|...........|...........|...........|...........|...........|A#306v64SD2|F-406v64SD2|D-506v64SD2|...........|...........|G-607v64SD2|D-707v64SD2|...........|...........|...........|...........|...........|===.....SD2|D-408v64SD2|F#312v64SD2|C-302v64SD2|...........|...........|...........|...........|D-609v64SD2|G-509v64SD2|...........|...........|...........|...........|...........|...........|...........|...........|...........|A#311v52SD2|F-411v52SD2|D-511v52SD2|...........


ModPlug Tracker MPT
|...........|...........|...........|...........|...........|...........|...........|...........|...........|...........|...........|...........|...........|...........|...........|...........|...........|...........|...........|...........|...........|...........|...........|...........|...........|...........|...........|...........|...........|...........|...........|...........|...........|...........|...........|...........|...........|...........|...........|...........|...........|...........|...........|...........
|...........|...........|...........|...........|...........|...........|...........|...........|...........|...........|...........|...........|...........|...........|...........|...........|...........|...........|...........|...........|...........|...........|...........|...........|...........|...........|...........|...........|...........|...........|...........|...........|...........|...........|...........|...........|...........|...........|...........|...........|...........|...........|...........|...........
|...........|...........|...........|...........|...........|...........|...........|...........|...........|...........|...........|...........|...........|...........|...........|...........|...........|...........|...........|...........|...........|...........|...........|...........|...........|...........|...........|...........|...........|...........|...........|...........|...........|...........|...........|...........|...........|...........|...........|...........|...........|...........|...........|...........
|F-503v64SD2|...........|===.....SD2|===.....SD2|...........|...........|...........|...........|...........|...........|...........|...........|...........|...........|===.....SD2|===.....SD2|...........|...........|...........|...........|...........|...........|...........|A#314v64SD2|...........|...........|...........|...........|...........|===.....SD2|===.....SD2|...........|...........|...........|...........|...........|...........|...........|...........|...........|...........|...........|...........|...........
|...........|...........|...........|...........|...........|...........|...........|...........|...........|...........|...........|...........|...........|...........|...........|...........|...........|...........|...........|...........|...........|...........|...........|...........|...........|...........|...........|...........|...........|...........|...........|...........|...........|...........|...........|...........|...........|...........|...........|...........|...........|...........|...........|...........
|...........|...........|...........|...........|...........|...........|...........|...........|...........|...........|...........|...........|...........|...........|...........|...........|...........|...........|...........|...........|...........|...........|...........|...........|...........|...........|...........|...........|...........|...........|...........|...........|...........|...........|...........|...........|...........|...........|...........|...........|...........|...........|...........|...........
|...........|...........|...........|...........|...........|...........|...........|...........|...........|...........|...........|...........|...........|...........|...........|...........|...........|...........|...........|...........|...........|...........|...........|...........|...........|...........|...........|...........|...........|...........|...........|...........|...........|...........|...........|...........|...........|...........|...........|...........|...........|...........|...........|...........
|A#403v64SD2|...........|D#604v64SD2|G-604v64SD2|...........|...........|...........|...........|...........|...........|...........|...........|...........|...........|D#707v64SD2|G-707v64SD2|...........|...........|...........|...........|...........|...........|...........|F#312v64SD2|C-302v64SD2|...........|...........|...........|...........|G-609v64SD2|D#609v64SD2|...........|...........|...........|...........|...........|...........|...........|...........|...........|...........|...........|...........|...........
|...........|...........|...........|...........|...........|...........|...........|...........|...........|...........|...........|...........|...........|...........|...........|...........|...........|...........|...........|...........|...........|...........|...........|...........|...........|...........|...........|...........|...........|...........|...........|...........|...........|...........|...........|...........|...........|...........|...........|...........|...........|...........|...........|...........
|...........|...........|...........|...........|...........|...........|...........|...........|...........|...........|...........|...........|...........|...........|...........|...........|...........|...........|...........|...........|...........|...........|...........|...........|...........|...........|...........|...........|...........|...........|...........|...........|...........|...........|...........|...........|...........|...........|...........|...........|...........|...........|...........|...........
|...........|...........|...........|...........|...........|...........|...........|...........|...........|...........|...........|...........|...........|...........|...........|...........|...........|...........|...........|...........|...........|...........|...........|...........|...........|...........|...........|...........|...........|...........|...........|...........|...........|...........|...........|...........|...........|...........|...........|...........|...........|...........|...........|...........
|F-503v64SD2|...........|===.....SD2|===.....SD2|...........|...........|...........|...........|...........|...........|...........|...........|...........|...........|===.....SD2|===.....SD2|...........|...........|...........|...........|...........|...........|...........|A#314v64SD2|...........|...........|...........|...........|...........|===.....SD2|===.....SD2|...........|...........|...........|...........|...........|...........|...........|...........|...........|...........|...........|...........|...........
|...........|...........|...........|...........|...........|...........|...........|...........|...........|...........|...........|...........|...........|...........|...........|...........|...........|...........|...........|...........|...........|...........|...........|...........|...........|...........|...........|...........|...........|...........|...........|...........|...........|...........|...........|...........|...........|...........|...........|...........|...........|...........|...........|...........
|...........|...........|...........|...........|...........|...........|...........|...........|...........|...........|...........|...........|...........|...........|...........|...........|...........|...........|...........|...........|...........|...........|...........|...........|...........|...........|...........|...........|...........|...........|...........|...........|...........|...........|...........|...........|...........|...........|...........|...........|...........|...........|...........|...........
|...........|...........|...........|...........|...........|...........|...........|...........|...........|===.....SD4|===.....SD4|===.....SD4|...........|...........|...........|...........|...........|...........|...........|...........|...........|...........|...........|...........|...........|...........|...........|...........|...........|...........|...........|...........|...........|...........|...........|...........|...........|...........|...........|...........|===.....SD4|===.....SD4|===.....SD4|...........
|C-503v64SD2|...........|C-604v64SD2|D#604v64SD2|...........|...........|...........|...........|...........|C-406v64SD2|G-406v64SD2|D#506v64SD2|...........|...........|C-707v64SD2|D#707v64SD2|...........|...........|...........|...........|...........|D#408v64SD2|===.....SD2|F#312v64SD2|C-302v64SD2|...........|...........|...........|...........|D#609v64SD2|C-609v64SD2|...........|...........|...........|...........|...........|...........|...........|...........|...........|C-411v52SD2|G-411v52SD2|D#511v52SD2|...........
|...........|...........|...........|...........|...........|...........|...........|...........|...........|...........|...........|...........|...........|...........|...........|...........|...........|...........|...........|...........|...........|...........|...........|...........|...........|...........|...........|...........|...........|...........|...........|...........|...........|...........|...........|...........|...........|...........|...........|...........|...........|...........|...........|...........
|...........|...........|...........|...........|...........|...........|...........|...........|...........|...........|...........|...........|...........|...........|...........|...........|...........|...........|...........|...........|...........|...........|...........|...........|...........|...........|...........|...........|...........|...........|...........|...........|...........|...........|...........|...........|...........|...........|...........|...........|...........|...........|...........|...........
|...........|...........|...........|...........|...........|...........|...........|...........|...........|...........|...........|...........|...........|...........|...........|...........|...........|...........|...........|...........|...........|...........|...........|...........|...........|...........|...........|...........|...........|...........|...........|...........|...........|...........|...........|...........|...........|...........|...........|...........|...........|...........|...........|...........
|G-503v64SD2|...........|===.....SD2|===.....SD2|...........|...........|...........|...........|...........|...........|...........|...........|...........|...........|===.....SD2|===.....SD2|...........|...........|...........|...........|...........|...........|...........|A#314v64SD2|...........|...........|...........|...........|...........|===.....SD2|===.....SD2|...........|...........|...........|...........|...........|...........|...........|...........|...........|...........|...........|...........|...........
|...........|...........|...........|...........|...........|...........|...........|...........|...........|...........|...........|...........|...........|...........|...........|...........|...........|...........|...........|...........|...........|...........|...........|...........|...........|...........|...........|...........|...........|...........|...........|...........|...........|...........|...........|...........|...........|...........|...........|...........|...........|...........|...........|...........
|...........|...........|...........|...........|...........|...........|...........|...........|...........|...........|...........|...........|...........|...........|...........|...........|...........|...........|...........|...........|...........|...........|...........|...........|...........|...........|...........|...........|...........|...........|...........|...........|...........|...........|...........|...........|...........|...........|...........|...........|...........|...........|...........|...........
|...........|...........|...........|...........|...........|...........|...........|...........|...........|...........|...........|...........|...........|...........|...........|...........|...........|...........|...........|...........|...........|...........|...........|...........|...........|...........|...........|...........|...........|...........|...........|...........|...........|...........|...........|...........|...........|...........|...........|...........|...........|...........|...........|...........
|C-503v64SD2|...........|D-604v64SD2|F-604v64SD2|...........|...........|...........|...........|...........|...........|...........|...........|...........|...........|D-707v64SD2|F-707v64SD2|...........|...........|...........|...........|...........|...........|...........|F#312v64SD2|C-302v64SD2|...........|...........|...........|...........|F-609v64SD2|D-609v64SD2|...........|...........|...........|...........|...........|...........|...........|...........|...........|...........|...........|...........|...........
|...........|...........|...........|...........|...........|...........|...........|...........|...........|...........|...........|...........|...........|...........|...........|...........|...........|...........|...........|...........|...........|...........|...........|...........|...........|...........|...........|...........|...........|...........|...........|...........|...........|...........|...........|...........|...........|...........|...........|...........|...........|...........|...........|...........
|...........|...........|...........|...........|...........|...........|...........|...........|...........|...........|...........|...........|...........|...........|...........|...........|...........|...........|...........|...........|...........|...........|...........|...........|...........|...........|...........|...........|...........|...........|...........|...........|...........|...........|...........|...........|...........|...........|...........|...........|...........|...........|...........|...........
|...........|...........|...........|...........|...........|...........|...........|...........|...........|...........|...........|...........|...........|...........|...........|...........|...........|...........|...........|...........|...........|...........|...........|...........|...........|...........|...........|...........|...........|...........|...........|...........|...........|...........|...........|...........|...........|...........|...........|...........|...........|...........|...........|...........
|G-503v64SD2|...........|D#604v64SD2|G-604v64SD2|...........|...........|...........|...........|...........|...........|...........|...........|...........|...........|D#707v64SD2|G-707v64SD2|...........|...........|...........|...........|...........|...........|...........|A#314v64SD2|...........|...........|...........|...........|...........|G-609v64SD2|D#609v64SD2|...........|...........|...........|...........|...........|...........|...........|...........|...........|...........|...........|...........|...........
|...........|...........|...........|...........|...........|...........|...........|...........|...........|...........|...........|...........|...........|...........|...........|...........|...........|...........|...........|...........|...........|...........|...........|...........|...........|...........|...........|...........|...........|...........|...........|...........|...........|...........|...........|...........|...........|...........|...........|...........|...........|...........|...........|...........
|...........|...........|...........|...........|...........|...........|...........|...........|...........|...........|...........|...........|...........|...........|...........|...........|...........|...........|...........|...........|...........|...........|...........|...........|...........|...........|...........|...........|...........|...........|...........|...........|...........|...........|...........|...........|...........|...........|...........|...........|...........|...........|...........|...........
|...........|...........|...........|...........|...........|...........|...........|...........|...........|===.....SD4|===.....SD4|===.....SD4|...........|...........|...........|...........|...........|...........|...........|...........|...........|...........|...........|...........|...........|...........|...........|...........|...........|...........|...........|...........|...........|...........|...........|...........|...........|...........|...........|...........|===.....SD4|===.....SD4|===.....SD4|...........
|A-403v64SD2|...........|D-604v64SD2|F-604v64SD2|...........|...........|...........|...........|...........|A-306v64SD2|F-406v64SD2|F-506v64SD2|...........|...........|D-707v64SD2|F-707v64SD2|...........|...........|...........|...........|...........|===.....SD2|F-408v64SD2|F#312v64SD2|C-302v64SD2|...........|...........|...........|...........|F-609v64SD2|D-609v64SD2|...........|...........|...........|...........|...........|...........|...........|...........|...........|A-311v52SD2|F-411v52SD2|F-511v52SD2|...........
|...........|...........|...........|...........|...........|...........|...........|...........|...........|...........|...........|...........|...........|...........|...........|...........|...........|...........|...........|...........|...........|...........|...........|...........|...........|...........|...........|...........|...........|...........|...........|...........|...........|...........|...........|...........|...........|...........|...........|...........|...........|...........|...........|...........
|...........|...........|...........|...........|...........|...........|...........|...........|...........|...........|...........|...........|...........|...........|...........|...........|...........|...........|...........|...........|...........|...........|...........|...........|...........|...........|...........|...........|...........|...........|...........|...........|...........|...........|...........|...........|...........|...........|...........|...........|...........|...........|...........|...........
|...........|...........|...........|...........|...........|...........|...........|...........|...........|...........|...........|...........|...........|...........|...........|...........|...........|...........|...........|...........|...........|...........|...........|...........|...........|...........|...........|...........|...........|...........|...........|...........|...........|...........|...........|...........|...........|...........|...........|...........|...........|...........|...........|...........
|F-503v64SD2|...........|===.....SD2|===.....SD2|...........|...........|...........|...........|...........|...........|...........|...........|...........|...........|===.....SD2|===.....SD2|...........|...........|...........|...........|...........|...........|...........|D-315v42SD2|A#314v64SD2|...........|...........|...........|...........|===.....SD2|===.....SD2|...........|...........|...........|...........|...........|...........|...........|...........|...........|...........|...........|...........|...........
|...........|...........|...........|...........|...........|...........|...........|...........|...........|...........|...........|...........|...........|...........|...........|...........|...........|...........|...........|...........|...........|...........|...........|...........|...........|...........|...........|...........|...........|...........|...........|...........|...........|...........|...........|...........|...........|...........|...........|...........|...........|...........|...........|...........
|...........|...........|...........|...........|...........|...........|...........|...........|...........|...........|...........|...........|...........|...........|...........|...........|...........|...........|...........|...........|...........|...........|...........|...........|...........|...........|...........|...........|...........|...........|...........|...........|...........|...........|...........|...........|...........|...........|...........|...........|...........|...........|...........|...........
|...........|...........|...........|...........|...........|...........|...........|...........|...........|...........|...........|...........|...........|...........|...........|...........|...........|...........|...........|...........|...........|...........|...........|...........|...........|...........|...........|...........|...........|...........|...........|...........|...........|...........|...........|...........|...........|...........|...........|...........|...........|...........|...........|...........
|A-403v64SD2|...........|F-604v64SD2|A-604v64SD2|...........|...........|...........|...........|...........|...........|...........|...........|...........|...........|F-707v64SD2|A-707v64SD2|...........|...........|...........|...........|...........|...........|...........|F#312v64SD2|C-302v64SD2|...........|...........|...........|...........|A-609v64SD2|F-609v64SD2|...........|...........|...........|...........|...........|...........|...........|...........|...........|...........|...........|...........|...........
|...........|...........|...........|...........|...........|...........|...........|...........|...........|...........|...........|...........|...........|...........|...........|...........|...........|...........|...........|...........|...........|...........|...........|...........|...........|...........|...........|...........|...........|...........|...........|...........|...........|...........|...........|...........|...........|...........|...........|...........|...........|...........|...........|...........
|...........|...........|...........|...........|...........|...........|...........|...........|...........|...........|...........|...........|...........|...........|...........|...........|...........|...........|...........|...........|...........|...........|...........|D-315v42SD2|...........|...........|...........|...........|...........|...........|...........|...........|...........|...........|...........|...........|...........|...........|...........|...........|...........|...........|...........|...........
|...........|...........|...........|...........|...........|...........|...........|...........|...........|...........|...........|...........|...........|...........|...........|...........|...........|...........|...........|...........|...........|...........|...........|...........|...........|...........|...........|...........|...........|...........|...........|...........|...........|...........|...........|...........|...........|...........|...........|...........|...........|...........|...........|...........
|F-503v64SD2|...........|===.....SD2|===.....SD2|...........|...........|...........|...........|...........|...........|...........|...........|...........|...........|===.....SD2|===.....SD2|...........|...........|...........|...........|...........|...........|...........|A#314v64SD2|...........|...........|...........|...........|...........|===.....SD2|===.....SD2|...........|...........|...........|...........|...........|...........|...........|...........|...........|...........|...........|...........|...........
|...........|...........|...........|...........|...........|...........|...........|...........|...........|...........|...........|...........|...........|...........|...........|...........|...........|...........|...........|...........|...........|...........|...........|...........|...........|...........|...........|...........|...........|...........|...........|...........|...........|...........|...........|...........|...........|...........|...........|...........|...........|...........|...........|...........
|...........|...........|...........|...........|...........|...........|...........|...........|...........|...........|...........|...........|...........|...........|...........|...........|...........|...........|...........|...........|...........|...........|...........|D-315v42SD2|...........|...........|...........|...........|...........|...........|...........|...........|...........|...........|...........|...........|...........|...........|...........|...........|...........|...........|...........|...........
|...........|...........|...........|...........|...........|...........|...........|...........|...........|===.....SD4|===.....SD4|===.....SD4|...........|...........|...........|...........|...........|...........|...........|...........|...........|...........|...........|...........|...........|...........|...........|...........|...........|...........|...........|...........|...........|...........|...........|...........|...........|...........|...........|...........|===.....SD4|===.....SD4|===.....SD4|...........
|G#403v64SD2|...........|G-604v64SD2|C-704v64SD2|...........|...........|...........|...........|...........|G#306v64SD2|D#406v64SD2|G#506v64SD2|...........|...........|G-707v64SD2|C-807v64SD2|...........|...........|...........|...........|...........|G#408v64SD2|===.....SD2|D#416v64SD2|F#312v64SD2|C-302v64SD2|...........|...........|...........|C-709v64SD2|G-609v64SD2|...........|...........|...........|...........|...........|...........|...........|...........|...........|G#311v52SD2|D#411v52SD2|G#511v52SD2|...........
|...........|...........|...........|...........|...........|...........|...........|...........|...........|...........|...........|...........|...........|...........|...........|...........|...........|...........|...........|...........|...........|...........|...........|...........|...........|...........|...........|...........|...........|...........|...........|...........|...........|...........|...........|...........|...........|...........|...........|...........|...........|...........|...........|...........
|...........|...........|...........|...........|...........|...........|...........|...........|...........|...........|...........|...........|...........|...........|...........|...........|...........|...........|...........|...........|...........|...........|...........|...........|...........|...........|...........|...........|...........|...........|...........|...........|...........|...........|...........|...........|...........|...........|...........|...........|...........|...........|...........|...........
|...........|...........|...........|...........|...........|...........|...........|...........|...........|...........|...........|...........|...........|...........|...........|...........|...........|...........|...........|...........|...........|...........|...........|...........|...........|...........|...........|...........|...........|...........|...........|...........|...........|...........|...........|...........|...........|...........|...........|...........|...........|...........|...........|...........
|D#503v64SD2|...........|D#604v64SD2|G-604v64SD2|...........|...........|...........|...........|...........|...........|...........|...........|...........|...........|D#707v64SD2|G-707v64SD2|...........|...........|...........|...........|...........|...........|...........|A#314v64SD2|...........|...........|...........|...........|...........|G-609v64SD2|D#609v64SD2|...........|...........|...........|...........|...........|...........|...........|...........|...........|...........|...........|...........|...........
|...........|...........|...........|...........|...........|...........|...........|...........|...........|...........|...........|...........|...........|...........|...........|...........|...........|...........|...........|...........|...........|...........|...........|...........|...........|...........|...........|...........|...........|...........|...........|...........|...........|...........|...........|...........|...........|...........|...........|...........|...........|...........|...........|...........
|...........|...........|...........|...........|...........|...........|...........|...........|...........|...........|...........|...........|...........|...........|...........|...........|...........|...........|...........|...........|...........|...........|...........|...........|...........|...........|...........|...........|...........|...........|...........|...........|...........|...........|...........|...........|...........|...........|...........|...........|...........|...........|...........|...........
|...........|...........|...........|...........|...........|...........|...........|...........|...........|...........|...........|...........|...........|...........|...........|...........|...........|...........|...........|...........|...........|...........|...........|...........|...........|...........|...........|...........|...........|...........|...........|...........|...........|...........|...........|...........|...........|...........|...........|...........|...........|...........|...........|...........
|G#403v64SD2|...........|A#604v64SD2|D-704v64SD2|...........|...........|...........|...........|...........|...........|...........|...........|...........|...........|A#707v64SD2|D-807v64SD2|...........|...........|...........|...........|...........|...........|...........|F#312v64SD2|C-302v64SD2|...........|...........|...........|...........|D-709v64SD2|A#609v64SD2|...........|...........|...........|...........|...........|...........|...........|...........|...........|...........|...........|...........|...........
|...........|...........|...........|...........|...........|...........|...........|...........|...........|...........|...........|...........|...........|...........|...........|...........|...........|...........|...........|...........|...........|...........|...........|...........|...........|...........|...........|...........|...........|...........|...........|...........|...........|...........|...........|...........|...........|...........|...........|...........|...........|...........|...........|...........
|...........|...........|...........|...........|...........|...........|...........|...........|...........|...........|...........|...........|...........|...........|...........|...........|...........|...........|...........|...........|...........|...........|...........|...........|...........|...........|...........|...........|...........|...........|...........|...........|...........|...........|...........|...........|...........|...........|...........|...........|...........|...........|...........|...........
|...........|...........|...........|...........|...........|...........|...........|...........|...........|...........|...........|...........|...........|...........|...........|...........|...........|...........|...........|...........|...........|...........|...........|...........|...........|...........|...........|...........|...........|...........|...........|...........|...........|...........|...........|...........|...........|...........|...........|...........|...........|...........|...........|...........
|D#503v64SD2|...........|C-704v64SD2|D#704v64SD2|...........|...........|...........|...........|...........|...........|...........|...........|...........|...........|C-807v64SD2|D#807v64SD2|...........|...........|...........|...........|...........|...........|...........|A#314v64SD2|...........|...........|...........|...........|...........|D#709v64SD2|C-709v64SD2|...........|...........|...........|...........|...........|...........|...........|...........|...........|...........|...........|...........|...........
|...........|...........|...........|...........|...........|...........|...........|...........|...........|...........|...........|...........|...........|...........|...........|...........|...........|...........|...........|...........|...........|...........|...........|...........|...........|...........|...........|...........|...........|...........|...........|...........|...........|...........|...........|...........|...........|...........|...........|...........|...........|...........|...........|...........
|...........|...........|===.....SD2|===.....SD2|...........|...........|...........|...........|...........|...........|...........|...........|...........|...........|===.....SD2|===.....SD2|...........|...........|...........|...........|...........|...........|...........|...........|...........|...........|...........|...........|...........|===.....SD2|===.....SD2|...........|...........|...........|...........|...........|...........|...........|...........|...........|...........|...........|...........|...........
|...........|...........|...........|...........|...........|...........|...........|...........|...........|===.....SD4|===.....SD4|===.....SD4|...........|...........|...........|...........|...........|...........|...........|...........|...........|...........|...........|...........|...........|...........|...........|...........|...........|...........|...........|...........|...........|...........|...........|...........|...........|...........|...........|...........|===.....SD4|===.....SD4|===.....SD4|...........
|A#403v64SD2|...........|A#604v64SD2|D-704v64SD2|...........|...........|...........|...........|...........|A#306v64SD2|F-406v64SD2|A#506v64SD2|...........|...........|A#707v64SD2|D-807v64SD2|...........|...........|...........|...........|...........|===.....SD2|A#408v64SD2|F#312v64SD2|C-302v64SD2|...........|...........|...........|...........|D-709v64SD2|A#609v64SD2|...........|...........|...........|...........|...........|...........|...........|...........|...........|A#311v52SD2|F-411v52SD2|A#511v52SD2|...........
|...........|...........|...........|...........|...........|...........|...........|...........|...........|...........|...........|...........|...........|...........|...........|...........|...........|...........|...........|...........|...........|...........|...........|...........|...........|...........|...........|...........|...........|...........|...........|...........|...........|...........|...........|...........|...........|...........|...........|...........|...........|...........|...........|...........
|...........|...........|...........|...........|...........|...........|...........|...........|...........|...........|...........|...........|...........|...........|...........|...........|...........|...........|...........|...........|...........|...........|...........|...........|...........|...........|...........|...........|...........|...........|...........|...........|...........|...........|...........|...........|...........|...........|...........|...........|...........|...........|...........|...........
|...........|...........|...........|...........|...........|...........|...........|...........|...........|...........|...........|...........|...........|...........|...........|...........|...........|...........|...........|...........|...........|...........|...........|...........|...........|...........|...........|...........|...........|...........|...........|...........|...........|...........|...........|...........|...........|...........|...........|...........|...........|...........|...........|...........
|F-503v64SD2|...........|C-704v64SD2|D#704v64SD2|...........|...........|...........|...........|...........|...........|...........|...........|...........|...........|C-807v64SD2|D#807v64SD2|...........|...........|...........|...........|...........|...........|...........|A#314v64SD2|...........|...........|...........|...........|...........|D#709v64SD2|C-709v64SD2|...........|...........|...........|...........|...........|...........|...........|...........|...........|...........|...........|...........|...........
|...........|...........|...........|...........|...........|...........|...........|...........|...........|...........|...........|...........|...........|...........|...........|...........|...........|...........|...........|...........|...........|...........|...........|...........|...........|...........|...........|...........|...........|...........|...........|...........|...........|...........|...........|...........|...........|...........|...........|...........|...........|...........|...........|...........
|...........|...........|A#604v64SD2|D-704v64SD2|...........|...........|...........|...........|...........|...........|...........|...........|...........|...........|A#707v64SD2|D-807v64SD2|...........|...........|...........|...........|...........|...........|...........|...........|...........|...........|...........|...........|...........|D-709v64SD2|A#609v64SD2|...........|...........|...........|...........|...........|...........|...........|...........|...........|...........|...........|...........|...........
|...........|...........|...........|...........|...........|...........|...........|...........|...........|...........|...........|...........|...........|...........|...........|...........|...........|...........|...........|...........|...........|...........|...........|...........|...........|...........|...........|...........|...........|...........|...........|...........|...........|...........|...........|...........|...........|...........|...........|...........|...........|...........|...........|...........
|A#403v64SD2|...........|D#604v64SD2|C-704v64SD2|...........|...........|...........|...........|...........|...........|...........|...........|...........|...........|D#707v64SD2|C-807v64SD2|...........|...........|...........|...........|...........|...........|...........|F#312v64SD2|C-302v64SD2|...........|...........|...........|...........|C-709v64SD2|D#609v64SD2|...........|...........|...........|...........|...........|...........|...........|...........|...........|...........|...........|...........|...........
|...........|...........|...........|...........|...........|...........|...........|...........|...........|...........|...........|...........|...........|...........|...........|...........|...........|...........|...........|...........|...........|...........|...........|...........|...........|...........|...........|...........|...........|...........|...........|...........|...........|...........|...........|...........|...........|...........|...........|...........|...........|...........|...........|...........
|...........|...........|...........|...........|...........|...........|...........|...........|...........|...........|...........|...........|...........|...........|...........|...........|...........|...........|...........|...........|...........|...........|...........|...........|...........|...........|...........|...........|...........|...........|...........|...........|...........|...........|...........|...........|...........|...........|...........|...........|...........|...........|...........|...........
|...........|...........|...........|...........|...........|...........|...........|...........|...........|...........|...........|...........|...........|...........|...........|...........|...........|...........|...........|...........|...........|...........|...........|...........|...........|...........|...........|...........|...........|...........|...........|...........|...........|...........|...........|...........|...........|...........|...........|...........|...........|...........|...........|...........
|F-503v64SD2|...........|D#604v64SD2|A#604v64SD2|...........|...........|...........|...........|...........|...........|...........|...........|...........|...........|D#707v64SD2|A#707v64SD2|...........|...........|...........|...........|...........|...........|...........|A#314v64SD2|...........|...........|...........|...........|...........|A#609v64SD2|D#609v64SD2|...........|...........|...........|...........|...........|...........|...........|...........|...........|...........|...........|...........|...........
|...........|...........|...........|...........|...........|...........|...........|...........|...........|...........|...........|...........|...........|...........|...........|...........|...........|...........|...........|...........|...........|...........|...........|...........|...........|...........|...........|...........|...........|...........|...........|...........|...........|...........|...........|...........|...........|...........|...........|...........|...........|...........|...........|...........
|...........|...........|===.....SD2|===.....SD2|...........|...........|...........|...........|...........|...........|...........|...........|...........|...........|===.....SD2|===.....SD2|...........|...........|...........|...........|...........|...........|...........|...........|...........|...........|...........|...........|...........|===.....SD2|===.....SD2|...........|...........|...........|...........|...........|...........|...........|...........|...........|...........|...........|...........|...........
|...........|...........|...........|...........|...........|...........|...........|...........|...........|===.....SD4|===.....SD4|===.....SD4|...........|...........|...........|...........|...........|...........|...........|...........|...........|...........|...........|...........|...........|...........|...........|...........|...........|...........|...........|...........|...........|...........|...........|...........|...........|...........|...........|...........|===.....SD4|===.....SD4|===.....SD4|...........
|C-503v64SD2|...........|D#604v64SD2|G-604v64SD2|...........|...........|...........|...........|...........|C-406v64SD2|G-406v64SD2|C-606v64SD2|...........|...........|D#707v64SD2|G-707v64SD2|...........|...........|...........|...........|...........|C-508v64SD2|===.....SD2|F#312v64SD2|C-302v64SD2|...........|...........|...........|...........|G-609v64SD2|D#609v64SD2|...........|...........|...........|...........|...........|...........|...........|...........|...........|C-411v52SD2|G-411v52SD2|C-611v52SD2|...........
|...........|...........|...........|...........|...........|...........|...........|...........|...........|...........|...........|...........|...........|...........|...........|...........|...........|...........|...........|...........|...........|...........|...........|...........|...........|...........|...........|...........|...........|...........|...........|...........|...........|...........|...........|...........|...........|...........|...........|...........|...........|...........|...........|...........
|...........|...........|...........|...........|...........|...........|...........|...........|...........|...........|...........|...........|...........|...........|...........|...........|...........|...........|...........|...........|...........|...........|...........|...........|...........|...........|...........|...........|...........|...........|...........|...........|...........|...........|...........|...........|...........|...........|...........|...........|...........|...........|...........|...........
|...........|...........|...........|...........|...........|...........|...........|...........|...........|...........|...........|...........|...........|...........|...........|...........|...........|...........|...........|...........|...........|...........|...........|...........|...........|...........|...........|...........|...........|...........|...........|...........|...........|...........|...........|...........|...........|...........|...........|...........|...........|...........|...........|...........
|G-503v64SD2|...........|G-604v64SD2|A#604v64SD2|...........|...........|...........|...........|...........|...........|...........|...........|...........|...........|G-707v64SD2|A#707v64SD2|...........|...........|...........|...........|...........|...........|...........|A#314v64SD2|...........|...........|...........|...........|...........|A#609v64SD2|G-609v64SD2|...........|...........|...........|...........|...........|...........|...........|...........|...........|...........|...........|...........|...........
|...........|...........|...........|...........|...........|...........|...........|...........|...........|...........|...........|...........|...........|...........|...........|...........|...........|...........|...........|...........|...........|...........|...........|...........|...........|...........|...........|...........|...........|...........|...........|...........|...........|...........|...........|...........|...........|...........|...........|...........|...........|...........|...........|...........
|...........|...........|...........|...........|...........|...........|...........|...........|...........|...........|...........|...........|...........|...........|...........|...........|...........|...........|...........|...........|...........|...........|...........|...........|...........|...........|...........|...........|...........|...........|...........|...........|...........|...........|...........|...........|...........|...........|...........|...........|...........|...........|...........|...........
|...........|...........|===.....SD2|===.....SD2|...........|...........|...........|...........|...........|...........|...........|...........|...........|...........|===.....SD2|===.....SD2|...........|...........|...........|...........|...........|...........|...........|...........|...........|...........|...........|...........|...........|===.....SD2|===.....SD2|...........|...........|...........|...........|...........|...........|...........|...........|...........|...........|...........|...........|...........
|C-503v64SD2|...........|D-604v64SD2|F-604v64SD2|...........|...........|...........|...........|...........|...........|...........|...........|...........|...........|D-707v64SD2|F-707v64SD2|...........|...........|...........|...........|...........|...........|...........|F#312v64SD2|C-302v64SD2|...........|...........|...........|...........|F-609v64SD2|D-609v64SD2|...........|...........|...........|...........|...........|...........|...........|...........|...........|...........|...........|...........|...........
|...........|...........|...........|...........|...........|...........|...........|...........|...........|...........|...........|...........|...........|...........|...........|...........|...........|...........|...........|...........|...........|...........|...........|...........|...........|...........|...........|...........|...........|...........|...........|...........|...........|...........|...........|...........|...........|...........|...........|...........|...........|...........|...........|...........
|...........|...........|...........|...........|...........|...........|...........|...........|...........|...........|...........|...........|...........|...........|...........|...........|...........|...........|...........|...........|...........|...........|...........|...........|...........|...........|...........|...........|...........|...........|...........|...........|...........|...........|...........|...........|...........|...........|...........|...........|...........|...........|...........|...........
|...........|...........|...........|...........|...........|...........|...........|...........|...........|...........|...........|...........|...........|...........|...........|...........|...........|...........|...........|...........|...........|...........|...........|...........|...........|...........|...........|...........|...........|...........|...........|...........|...........|...........|...........|...........|...........|...........|...........|...........|...........|...........|...........|...........
|G-503v64SD2|...........|D#604v64SD2|G-604v64SD2|...........|...........|...........|...........|...........|...........|...........|...........|...........|...........|D#707v64SD2|G-707v64SD2|...........|...........|...........|...........|...........|...........|...........|A#314v64SD2|...........|...........|...........|...........|...........|G-609v64SD2|D#609v64SD2|...........|...........|...........|...........|...........|...........|...........|...........|...........|...........|...........|...........|...........
|...........|...........|...........|...........|...........|...........|...........|...........|...........|...........|...........|...........|...........|...........|...........|...........|...........|...........|...........|...........|...........|...........|...........|...........|...........|...........|...........|...........|...........|...........|...........|...........|...........|...........|...........|...........|...........|...........|...........|...........|...........|...........|...........|...........
|...........|...........|...........|...........|...........|...........|...........|...........|...........|...........|...........|...........|...........|...........|...........|...........|...........|...........|...........|...........|...........|...........|...........|...........|...........|...........|...........|...........|...........|...........|...........|...........|...........|...........|...........|...........|...........|...........|...........|...........|...........|...........|...........|...........
|...........|...........|===.....SD2|===.....SD2|...........|...........|...........|...........|...........|...........|...........|...........|...........|...........|===.....SD2|===.....SD2|...........|...........|...........|...........|...........|...........|...........|...........|...........|...........|...........|...........|...........|===.....SD2|===.....SD2|...........|...........|...........|...........|...........|...........|...........|...........|...........|...........|...........|...........|...........
|C-503v64SD2|...........|C-604v64SD2|D#604v64SD2|...........|...........|...........|...........|...........|...........|...........|...........|...........|...........|C-707v64SD2|D#707v64SD2|...........|...........|...........|...........|...........|...........|...........|F#312v64SD2|C-302v64SD2|...........|...........|...........|...........|D#609v64SD2|C-609v64SD2|...........|...........|...........|...........|...........|...........|...........|...........|...........|...........|...........|...........|...........
|...........|...........|...........|...........|...........|...........|...........|...........|...........|...........|...........|...........|...........|...........|...........|...........|...........|...........|...........|...........|...........|...........|...........|...........|...........|...........|...........|...........|...........|...........|...........|...........|...........|...........|...........|...........|...........|...........|...........|...........|...........|...........|...........|...........
|...........|...........|...........|...........|...........|...........|...........|...........|...........|...........|...........|...........|...........|...........|...........|...........|...........|...........|...........|...........|...........|...........|...........|...........|...........|...........|...........|...........|...........|...........|...........|...........|...........|...........|...........|...........|...........|...........|...........|...........|...........|...........|...........|...........
|...........|...........|...........|...........|...........|...........|...........|...........|...........|...........|...........|...........|...........|...........|...........|...........|...........|...........|...........|...........|...........|...........|...........|...........|...........|...........|...........|...........|...........|...........|...........|...........|...........|...........|...........|...........|...........|...........|...........|...........|...........|...........|...........|...........
|G-503v64SD2|...........|...........|...........|...........|...........|...........|...........|...........|...........|...........|...........|...........|...........|...........|...........|...........|...........|...........|...........|...........|...........|...........|D-315v42SD2|A#314v64SD2|...........|...........|...........|...........|...........|...........|...........|...........|...........|...........|...........|...........|...........|...........|...........|...........|...........|...........|...........
|...........|...........|...........|...........|...........|...........|...........|...........|...........|...........|...........|...........|...........|...........|...........|...........|...........|...........|...........|...........|...........|...........|...........|...........|...........|...........|...........|...........|...........|...........|...........|...........|...........|...........|...........|...........|...........|...........|...........|...........|...........|...........|...........|...........
|...........|...........|...........|...........|...........|...........|...........|...........|...........|...........|...........|...........|...........|...........|...........|...........|...........|...........|...........|...........|...........|...........|...........|...........|...........|...........|...........|...........|...........|...........|...........|...........|...........|...........|...........|...........|...........|...........|...........|...........|...........|...........|...........|...........
|...........|...........|...........|...........|...........|...........|...........|...........|...........|...........|...........|...........|...........|...........|...........|...........|...........|...........|...........|...........|...........|...........|...........|...........|...........|...........|...........|...........|...........|...........|...........|...........|...........|...........|...........|...........|...........|...........|...........|...........|...........|...........|...........|...........
|C-503v64SD2|...........|...........|...........|...........|...........|...........|...........|...........|...........|...........|...........|...........|...........|...........|...........|...........|...........|...........|...........|...........|...........|...........|F#312v64SD2|C-302v64SD2|...........|...........|...........|...........|...........|...........|...........|...........|...........|...........|...........|...........|...........|...........|...........|...........|...........|...........|...........
|...........|...........|...........|...........|...........|...........|...........|...........|...........|...........|...........|...........|...........|...........|...........|...........|...........|...........|...........|...........|...........|...........|...........|...........|...........|...........|...........|...........|...........|...........|...........|...........|...........|...........|...........|...........|...........|...........|...........|...........|...........|...........|...........|...........
|...........|...........|...........|...........|...........|...........|...........|...........|...........|...........|...........|...........|...........|...........|...........|...........|...........|...........|...........|...........|...........|...........|...........|D-315v42SD2|...........|...........|...........|...........|...........|...........|...........|...........|...........|...........|...........|...........|...........|...........|...........|...........|...........|...........|...........|...........
|...........|...........|...........|...........|...........|...........|...........|...........|...........|...........|...........|...........|...........|...........|...........|...........|...........|...........|...........|...........|...........|...........|...........|...........|...........|...........|...........|...........|...........|...........|...........|...........|...........|...........|...........|...........|...........|...........|...........|...........|...........|...........|...........|...........
|G-503v64SD2|...........|...........|...........|...........|...........|...........|...........|...........|...........|...........|...........|...........|...........|...........|...........|...........|...........|...........|...........|...........|...........|...........|A#314v64SD2|...........|...........|...........|...........|...........|...........|...........|...........|...........|...........|...........|...........|...........|...........|...........|...........|...........|...........|...........|...........
|...........|...........|...........|...........|...........|...........|...........|...........|...........|...........|...........|...........|...........|...........|...........|...........|...........|...........|...........|...........|...........|...........|...........|...........|...........|...........|...........|...........|...........|...........|...........|...........|...........|...........|...........|...........|...........|...........|...........|...........|...........|...........|...........|...........
|...........|...........|...........|...........|...........|...........|...........|...........|...........|...........|...........|...........|...........|...........|...........|...........|...........|...........|...........|...........|...........|...........|...........|D-315v42SD2|...........|...........|...........|...........|...........|...........|...........|...........|...........|...........|...........|...........|...........|...........|...........|...........|...........|...........|...........|...........
|...........|...........|===.....SD4|===.....SD4|...........|...........|...........|...........|...........|...........|...........|...........|...........|...........|===.....SD4|===.....SD4|...........|...........|...........|...........|...........|...........|...........|...........|...........|...........|...........|...........|...........|===.....SD4|===.....SD4|...........|...........|...........|...........|...........|...........|...........|...........|...........|...........|...........|...........|...........
|G#403v64SD2|...........|G-504v64SD2|C-604v64SD2|...........|...........|...........|...........|...........|G#306v64SD2|D#406v64SD2|C-506v64SD2|...........|...........|G-607v64SD2|C-707v64SD2|...........|...........|...........|...........|...........|C-408v64SD2|...........|D#416v64SD2|F#312v64SD2|C-302v64SD2|...........|...........|...........|C-609v64SD2|G-509v64SD2|...........|...........|...........|...........|...........|...........|...........|...........|...........|G#311v52SD2|D#411v52SD2|C-511v52SD2|...........
|...........|...........|...........|...........|...........|...........|...........|...........|...........|...........|...........|...........|...........|...........|...........|...........|...........|...........|...........|...........|...........|...........|...........|...........|...........|...........|...........|...........|...........|...........|...........|...........|...........|...........|...........|...........|...........|...........|...........|...........|...........|...........|...........|...........
|...........|...........|...........|...........|...........|...........|...........|...........|...........|...........|...........|...........|...........|...........|...........|...........|...........|...........|...........|...........|...........|...........|...........|...........|...........|...........|...........|...........|...........|...........|...........|...........|...........|...........|...........|...........|...........|...........|...........|...........|...........|...........|...........|...........
|...........|...........|...........|...........|...........|...........|...........|...........|...........|...........|...........|...........|...........|...........|...........|...........|...........|...........|...........|...........|...........|...........|...........|...........|...........|...........|...........|...........|...........|...........|...........|...........|...........|...........|...........|...........|...........|...........|...........|...........|...........|...........|...........|...........
|D#503v64SD2|...........|===.....SD2|===.....SD2|...........|...........|...........|...........|...........|...........|...........|...........|...........|...........|===.....SD2|===.....SD2|...........|...........|...........|...........|...........|...........|...........|A#314v64SD2|...........|...........|...........|...........|...........|===.....SD2|===.....SD2|...........|...........|...........|...........|...........|...........|...........|...........|...........|...........|...........|...........|...........
|...........|...........|...........|...........|...........|...........|...........|...........|...........|...........|...........|...........|...........|...........|...........|...........|...........|...........|...........|...........|...........|...........|...........|...........|...........|...........|...........|...........|...........|...........|...........|...........|...........|...........|...........|...........|...........|...........|...........|...........|...........|...........|...........|...........
|...........|...........|...........|...........|...........|...........|...........|...........|...........|...........|...........|...........|...........|...........|...........|...........|...........|...........|...........|...........|...........|...........|...........|...........|...........|...........|...........|...........|...........|...........|...........|...........|...........|...........|...........|...........|...........|...........|...........|...........|...........|...........|...........|...........
|...........|...........|...........|...........|...........|...........|...........|...........|...........|...........|...........|...........|...........|...........|...........|...........|...........|...........|...........|...........|...........|...........|...........|...........|...........|...........|...........|...........|...........|...........|...........|...........|...........|...........|...........|...........|...........|...........|...........|...........|...........|...........|...........|...........
|G#403v64SD2|...........|D#604v64SD2|G-604v64SD2|...........|...........|...........|...........|...........|...........|...........|...........|...........|...........|D#707v64SD2|G-707v64SD2|...........|...........|...........|...........|...........|...........|...........|F#312v64SD2|C-302v64SD2|...........|...........|...........|...........|G-609v64SD2|D#609v64SD2|...........|...........|...........|...........|...........|...........|...........|...........|...........|...........|...........|...........|...........
|...........|...........|...........|...........|...........|...........|...........|...........|...........|...........|...........|...........|...........|...........|...........|...........|...........|...........|...........|...........|...........|...........|...........|...........|...........|...........|...........|...........|...........|...........|...........|...........|...........|...........|...........|...........|...........|...........|...........|...........|...........|...........|...........|...........
|...........|...........|...........|...........|...........|...........|...........|...........|...........|...........|...........|...........|...........|...........|...........|...........|...........|...........|...........|...........|...........|...........|...........|...........|...........|...........|...........|...........|...........|...........|...........|...........|...........|...........|...........|...........|...........|...........|...........|...........|...........|...........|...........|...........
|...........|...........|...........|...........|...........|...........|...........|...........|...........|...........|...........|...........|...........|...........|...........|...........|...........|...........|...........|...........|...........|...........|...........|...........|...........|...........|...........|...........|...........|...........|...........|...........|...........|...........|...........|...........|...........|...........|...........|...........|...........|...........|...........|...........
|D#503v64SD2|...........|===.....SD2|===.....SD2|...........|...........|...........|...........|...........|...........|...........|...........|...........|...........|===.....SD2|===.....SD2|...........|...........|...........|...........|...........|...........|...........|A#314v64SD2|...........|...........|...........|...........|...........|===.....SD2|===.....SD2|...........|...........|...........|...........|...........|...........|...........|...........|...........|...........|...........|...........|...........
|...........|...........|...........|...........|...........|...........|...........|...........|...........|...........|...........|...........|...........|...........|...........|...........|...........|...........|...........|...........|...........|...........|...........|...........|...........|...........|...........|...........|...........|...........|...........|...........|...........|...........|...........|...........|...........|...........|...........|...........|...........|...........|...........|...........
|...........|...........|...........|...........|...........|...........|...........|...........|...........|...........|...........|...........|...........|...........|...........|...........|...........|...........|...........|...........|...........|...........|...........|...........|...........|...........|...........|...........|...........|...........|...........|...........|...........|...........|...........|...........|...........|...........|...........|...........|...........|...........|...........|...........
|...........|...........|...........|...........|...........|...........|...........|...........|...........|===.....SD4|===.....SD4|===.....SD4|...........|...........|...........|...........|...........|...........|...........|...........|...........|...........|...........|...........|...........|...........|...........|...........|...........|...........|...........|...........|...........|...........|...........|...........|...........|...........|...........|...........|===.....SD4|===.....SD4|===.....SD4|...........
|A#403v64SD2|...........|G-504v64SD2|D-604v64SD2|...........|...........|...........|...........|...........|A#306v64SD2|F-406v64SD2|D-506v64SD2|...........|...........|G-607v64SD2|D-707v64SD2|...........|...........|...........|...........|...........|===.....SD2|D-408v64SD2|F#312v64SD2|C-302v64SD2|...........|...........|...........|...........|D-609v64SD2|G-509v64SD2|...........|...........|...........|...........|...........|...........|...........|...........|...........|A#311v52SD2|F-411v52SD2|D-511v52SD2|...........


!channels=1+15+16+41
!octaves=0+3+3+3

ModPlug Tracker MPT
|...........|...........|...........|...........|...........|...........|...........|...........|...........|...........|...........|...........|...........|...........|...........|...........|...........|...........|...........|...........|...........|...........|...........|...........|...........|...........|...........|...........|...........|...........|...........|...........|...........|...........|...........|...........|...........|...........|...........|...........|...........|...........|...........|...........
|...........|...........|...........|...........|...........|...........|...........|...........|...........|...........|...........|...........|...........|...........|...........|...........|...........|...........|...........|...........|...........|...........|...........|...........|...........|...........|...........|...........|...........|...........|...........|...........|...........|...........|...........|...........|...........|...........|...........|...........|...........|...........|...........|...........
|...........|...........|...........|...........|...........|...........|...........|...........|...........|...........|...........|...........|...........|...........|...........|...........|...........|...........|...........|...........|...........|...........|...........|...........|...........|...........|...........|...........|...........|...........|...........|...........|...........|...........|...........|...........|...........|...........|...........|...........|...........|...........|...........|...........
|F-503v64SD2|...........|===.....SD2|===.....SD2|...........|...........|...........|...........|...........|...........|...........|...........|...........|...........|===.....SD2|===.....SD2|...........|...........|...........|...........|...........|...........|...........|A#314v64SD2|...........|...........|...........|...........|...........|===.....SD2|===.....SD2|...........|...........|...........|...........|...........|...........|...........|...........|...........|...........|...........|...........|...........
|...........|...........|...........|...........|...........|...........|...........|...........|...........|...........|...........|...........|...........|...........|...........|...........|...........|...........|...........|...........|...........|...........|...........|...........|...........|...........|...........|...........|...........|...........|...........|...........|...........|...........|...........|...........|...........|...........|...........|...........|...........|...........|...........|...........
|...........|...........|...........|...........|...........|...........|...........|...........|...........|...........|...........|...........|...........|...........|...........|...........|...........|...........|...........|...........|...........|...........|...........|...........|...........|...........|...........|...........|...........|...........|...........|...........|...........|...........|...........|...........|...........|...........|...........|...........|...........|...........|...........|...........
|...........|...........|...........|...........|...........|...........|...........|...........|...........|...........|...........|...........|...........|...........|...........|...........|...........|...........|...........|...........|...........|...........|...........|...........|...........|...........|...........|...........|...........|...........|...........|...........|...........|...........|...........|...........|...........|...........|...........|...........|...........|...........|...........|...........
|A#403v64SD2|...........|D#604v64SD2|G-604v64SD2|...........|...........|...........|...........|...........|...........|...........|...........|...........|...........|D#707v64SD2|G-707v64SD2|...........|...........|...........|...........|...........|...........|...........|F#312v64SD2|C-302v64SD2|...........|...........|...........|...........|G-609v64SD2|D#609v64SD2|...........|...........|...........|...........|...........|...........|...........|...........|...........|...........|...........|...........|...........
|...........|...........|...........|...........|...........|...........|...........|...........|...........|...........|...........|...........|...........|...........|...........|...........|...........|...........|...........|...........|...........|...........|...........|...........|...........|...........|...........|...........|...........|...........|...........|...........|...........|...........|...........|...........|...........|...........|...........|...........|...........|...........|...........|...........
|...........|...........|...........|...........|...........|...........|...........|...........|...........|...........|...........|...........|...........|...........|...........|...........|...........|...........|...........|...........|...........|...........|...........|...........|...........|...........|...........|...........|...........|...........|...........|...........|...........|...........|...........|...........|...........|...........|...........|...........|...........|...........|...........|...........
|...........|...........|...........|...........|...........|...........|...........|...........|...........|...........|...........|...........|...........|...........|...........|...........|...........|...........|...........|...........|...........|...........|...........|...........|...........|...........|...........|...........|...........|...........|...........|...........|...........|...........|...........|...........|...........|...........|...........|...........|...........|...........|...........|...........
|F-503v64SD2|...........|===.....SD2|===.....SD2|...........|...........|...........|...........|...........|...........|...........|...........|...........|...........|===.....SD2|===.....SD2|...........|...........|...........|...........|...........|...........|...........|A#314v64SD2|...........|...........|...........|...........|...........|===.....SD2|===.....SD2|...........|...........|...........|...........|...........|...........|...........|...........|...........|...........|...........|...........|...........
|...........|...........|...........|...........|...........|...........|...........|...........|...........|...........|...........|...........|...........|...........|...........|...........|...........|...........|...........|...........|...........|...........|...........|...........|...........|...........|...........|...........|...........|...........|...........|...........|...........|...........|...........|...........|...........|...........|...........|...........|...........|...........|...........|...........
|...........|...........|...........|...........|...........|...........|...........|...........|...........|...........|...........|...........|...........|...........|...........|...........|...........|...........|...........|...........|...........|...........|...........|...........|...........|...........|...........|...........|...........|...........|...........|...........|...........|...........|...........|...........|...........|...........|...........|...........|...........|...........|...........|...........
|...........|...........|...........|...........|...........|...........|...........|...........|...........|===.....SD4|===.....SD4|===.....SD4|...........|...........|...........|...........|...........|...........|...........|...........|...........|...........|...........|...........|...........|...........|...........|...........|...........|...........|...........|...........|...........|...........|...........|...........|...........|...........|...........|...........|===.....SD4|===.....SD4|===.....SD4|...........
|C-503v64SD2|...........|C-604v64SD2|D#604v64SD2|...........|...........|...........|...........|...........|C-406v64SD2|G-406v64SD2|D#506v64SD2|...........|...........|C-707v64SD2|D#707v64SD2|...........|...........|...........|...........|...........|D#408v64SD2|===.....SD2|F#312v64SD2|C-302v64SD2|...........|...........|...........|...........|D#609v64SD2|C-609v64SD2|...........|...........|...........|...........|...........|...........|...........|...........|...........|C-411v52SD2|G-411v52SD2|D#511v52SD2|...........
|...........|...........|...........|...........|...........|...........|...........|...........|...........|...........|...........|...........|...........|...........|...........|...........|...........|...........|...........|...........|...........|...........|...........|...........|...........|...........|...........|...........|...........|...........|...........|...........|...........|...........|...........|...........|...........|...........|...........|...........|...........|...........|...........|...........
|...........|...........|...........|...........|...........|...........|...........|...........|...........|...........|...........|...........|...........|...........|...........|...........|...........|...........|...........|...........|...........|...........|...........|...........|...........|...........|...........|...........|...........|...........|...........|...........|...........|...........|...........|...........|...........|...........|...........|...........|...........|...........|...........|...........
|...........|...........|...........|...........|...........|...........|...........|...........|...........|...........|...........|...........|...........|...........|...........|...........|...........|...........|...........|...........|...........|...........|...........|...........|...........|...........|...........|...........|...........|...........|...........|...........|...........|...........|...........|...........|...........|...........|...........|...........|...........|...........|...........|...........
|G-503v64SD2|...........|===.....SD2|===.....SD2|...........|...........|...........|...........|...........|...........|...........|...........|...........|...........|===.....SD2|===.....SD2|...........|...........|...........|...........|...........|...........|...........|A#314v64SD2|...........|...........|...........|...........|...........|===.....SD2|===.....SD2|...........|...........|...........|...........|...........|...........|...........|...........|...........|...........|...........|...........|...........
|...........|...........|...........|...........|...........|...........|...........|...........|...........|...........|...........|...........|...........|...........|...........|...........|...........|...........|...........|...........|...........|...........|...........|...........|...........|...........|...........|...........|...........|...........|...........|...........|...........|...........|...........|...........|...........|...........|...........|...........|...........|...........|...........|...........
|...........|...........|...........|...........|...........|...........|...........|...........|...........|...........|...........|...........|...........|...........|...........|...........|...........|...........|...........|...........|...........|...........|...........|...........|...........|...........|...........|...........|...........|...........|...........|...........|...........|...........|...........|...........|...........|...........|...........|...........|...........|...........|...........|...........
|...........|...........|...........|...........|...........|...........|...........|...........|...........|...........|...........|...........|...........|...........|...........|...........|...........|...........|...........|...........|...........|...........|...........|...........|...........|...........|...........|...........|...........|...........|...........|...........|...........|...........|...........|...........|...........|...........|...........|...........|...........|...........|...........|...........
|C-503v64SD2|...........|D-604v64SD2|F-604v64SD2|...........|...........|...........|...........|...........|...........|...........|...........|...........|...........|D-707v64SD2|F-707v64SD2|...........|...........|...........|...........|...........|...........|...........|F#312v64SD2|C-302v64SD2|...........|...........|...........|...........|F-609v64SD2|D-609v64SD2|...........|...........|...........|...........|...........|...........|...........|...........|...........|...........|...........|...........|...........
|...........|...........|...........|...........|...........|...........|...........|...........|...........|...........|...........|...........|...........|...........|...........|...........|...........|...........|...........|...........|...........|...........|...........|...........|...........|...........|...........|...........|...........|...........|...........|...........|...........|...........|...........|...........|...........|...........|...........|...........|...........|...........|...........|...........
|...........|...........|...........|...........|...........|...........|...........|...........|...........|...........|...........|...........|...........|...........|...........|...........|...........|...........|...........|...........|...........|...........|...........|...........|...........|...........|...........|...........|...........|...........|...........|...........|...........|...........|...........|...........|...........|...........|...........|...........|...........|...........|...........|...........
|...........|...........|...........|...........|...........|...........|...........|...........|...........|...........|...........|...........|...........|...........|...........|...........|...........|...........|...........|...........|...........|...........|...........|...........|...........|...........|...........|...........|...........|...........|...........|...........|...........|...........|...........|...........|...........|...........|...........|...........|...........|...........|...........|...........
|G-503v64SD2|...........|D#604v64SD2|G-604v64SD2|...........|...........|...........|...........|...........|...........|...........|...........|...........|...........|D#707v64SD2|G-707v64SD2|...........|...........|...........|...........|...........|...........|...........|A#314v64SD2|...........|...........|...........|...........|...........|G-609v64SD2|D#609v64SD2|...........|...........|...........|...........|...........|...........|...........|...........|...........|...........|...........|...........|...........
|...........|...........|...........|...........|...........|...........|...........|...........|...........|...........|...........|...........|...........|...........|...........|...........|...........|...........|...........|...........|...........|...........|...........|...........|...........|...........|...........|...........|...........|...........|...........|...........|...........|...........|...........|...........|...........|...........|...........|...........|...........|...........|...........|...........
|...........|...........|...........|...........|...........|...........|...........|...........|...........|...........|...........|...........|...........|...........|...........|...........|...........|...........|...........|...........|...........|...........|...........|...........|...........|...........|...........|...........|...........|...........|...........|...........|...........|...........|...........|...........|...........|...........|...........|...........|...........|...........|...........|...........
|...........|...........|...........|...........|...........|...........|...........|...........|...........|===.....SD4|===.....SD4|===.....SD4|...........|...........|...........|...........|...........|...........|...........|...........|...........|...........|...........|...........|...........|...........|...........|...........|...........|...........|...........|...........|...........|...........|...........|...........|...........|...........|...........|...........|===.....SD4|===.....SD4|===.....SD4|...........
|A-403v64SD2|...........|D-604v64SD2|F-604v64SD2|...........|...........|...........|...........|...........|A-306v64SD2|F-406v64SD2|F-506v64SD2|...........|...........|D-707v64SD2|F-707v64SD2|...........|...........|...........|...........|...........|===.....SD2|F-408v64SD2|F#312v64SD2|C-302v64SD2|...........|...........|...........|...........|F-609v64SD2|D-609v64SD2|...........|...........|...........|...........|...........|...........|...........|...........|...........|A-311v52SD2|F-411v52SD2|F-511v52SD2|...........
|...........|...........|...........|...........|...........|...........|...........|...........|...........|...........|...........|...........|...........|...........|...........|...........|...........|...........|...........|...........|...........|...........|...........|...........|...........|...........|...........|...........|...........|...........|...........|...........|...........|...........|...........|...........|...........|...........|...........|...........|...........|...........|...........|...........
|...........|...........|...........|...........|...........|...........|...........|...........|...........|...........|...........|...........|...........|...........|...........|...........|...........|...........|...........|...........|...........|...........|...........|...........|...........|...........|...........|...........|...........|...........|...........|...........|...........|...........|...........|...........|...........|...........|...........|...........|...........|...........|...........|...........
|...........|...........|...........|...........|...........|...........|...........|...........|...........|...........|...........|...........|...........|...........|...........|...........|...........|...........|...........|...........|...........|...........|...........|...........|...........|...........|...........|...........|...........|...........|...........|...........|...........|...........|...........|...........|...........|...........|...........|...........|...........|...........|...........|...........
|F-503v64SD2|...........|===.....SD2|===.....SD2|...........|...........|...........|...........|...........|...........|...........|...........|...........|...........|===.....SD2|===.....SD2|...........|...........|...........|...........|...........|...........|...........|D-315v42SD2|A#314v64SD2|...........|...........|...........|...........|===.....SD2|===.....SD2|...........|...........|...........|...........|...........|...........|...........|...........|...........|...........|...........|...........|...........
|...........|...........|...........|...........|...........|...........|...........|...........|...........|...........|...........|...........|...........|...........|...........|...........|...........|...........|...........|...........|...........|...........|...........|...........|...........|...........|...........|...........|...........|...........|...........|...........|...........|...........|...........|...........|...........|...........|...........|...........|...........|...........|...........|...........
|...........|...........|...........|...........|...........|...........|...........|...........|...........|...........|...........|...........|...........|...........|...........|...........|...........|...........|...........|...........|...........|...........|...........|...........|...........|...........|...........|...........|...........|...........|...........|...........|...........|...........|...........|...........|...........|...........|...........|...........|...........|...........|...........|...........
|...........|...........|...........|...........|...........|...........|...........|...........|...........|...........|...........|...........|...........|...........|...........|...........|...........|...........|...........|...........|...........|...........|...........|...........|...........|...........|...........|...........|...........|...........|...........|...........|...........|...........|...........|...........|...........|...........|...........|...........|...........|...........|...........|...........
|A-403v64SD2|...........|F-604v64SD2|A-604v64SD2|...........|...........|...........|...........|...........|...........|...........|...........|...........|...........|F-707v64SD2|A-707v64SD2|...........|...........|...........|...........|...........|...........|...........|F#312v64SD2|C-302v64SD2|...........|...........|...........|...........|A-609v64SD2|F-609v64SD2|...........|...........|...........|...........|...........|...........|...........|...........|...........|...........|...........|...........|...........
|...........|...........|...........|...........|...........|...........|...........|...........|...........|...........|...........|...........|...........|...........|...........|...........|...........|...........|...........|...........|...........|...........|...........|...........|...........|...........|...........|...........|...........|...........|...........|...........|...........|...........|...........|...........|...........|...........|...........|...........|...........|...........|...........|...........
|...........|...........|...........|...........|...........|...........|...........|...........|...........|...........|...........|...........|...........|...........|...........|...........|...........|...........|...........|...........|...........|...........|...........|D-315v42SD2|...........|...........|...........|...........|...........|...........|...........|...........|...........|...........|...........|...........|...........|...........|...........|...........|...........|...........|...........|...........
|...........|...........|...........|...........|...........|...........|...........|...........|...........|...........|...........|...........|...........|...........|...........|...........|...........|...........|...........|...........|...........|...........|...........|...........|...........|...........|...........|...........|...........|...........|...........|...........|...........|...........|...........|...........|...........|...........|...........|...........|...........|...........|...........|...........
|F-503v64SD2|...........|===.....SD2|===.....SD2|...........|...........|...........|...........|...........|...........|...........|...........|...........|...........|===.....SD2|===.....SD2|...........|...........|...........|...........|...........|...........|...........|A#314v64SD2|...........|...........|...........|...........|...........|===.....SD2|===.....SD2|...........|...........|...........|...........|...........|...........|...........|...........|...........|...........|...........|...........|...........
|...........|...........|...........|...........|...........|...........|...........|...........|...........|...........|...........|...........|...........|...........|...........|...........|...........|...........|...........|...........|...........|...........|...........|...........|...........|...........|...........|...........|...........|...........|...........|...........|...........|...........|...........|...........|...........|...........|...........|...........|...........|...........|...........|...........
|...........|...........|...........|...........|...........|...........|...........|...........|...........|...........|...........|...........|...........|...........|...........|...........|...........|...........|...........|...........|...........|...........|...........|D-315v42SD2|...........|...........|...........|...........|...........|...........|...........|...........|...........|...........|...........|...........|...........|...........|...........|...........|...........|...........|...........|...........
|...........|...........|...........|...........|...........|...........|...........|...........|...........|===.....SD4|===.....SD4|===.....SD4|...........|...........|...........|...........|...........|...........|...........|...........|...........|...........|...........|...........|...........|...........|...........|...........|...........|...........|...........|...........|...........|...........|...........|...........|...........|...........|...........|...........|===.....SD4|===.....SD4|===.....SD4|...........
|G#403v64SD2|...........|G-604v64SD2|C-704v64SD2|...........|...........|...........|...........|...........|G#306v64SD2|D#406v64SD2|G#506v64SD2|...........|...........|G-707v64SD2|C-807v64SD2|...........|...........|...........|...........|...........|G#408v64SD2|===.....SD2|D#416v64SD2|F#312v64SD2|C-302v64SD2|...........|...........|...........|C-709v64SD2|G-609v64SD2|...........|...........|...........|...........|...........|...........|...........|...........|...........|G#311v52SD2|D#411v52SD2|G#511v52SD2|...........
|...........|...........|...........|...........|...........|...........|...........|...........|...........|...........|...........|...........|...........|...........|...........|...........|...........|...........|...........|...........|...........|...........|...........|...........|...........|...........|...........|...........|...........|...........|...........|...........|...........|...........|...........|...........|...........|...........|...........|...........|...........|...........|...........|...........
|...........|...........|...........|...........|...........|...........|...........|...........|...........|...........|...........|...........|...........|...........|...........|...........|...........|...........|...........|...........|...........|...........|...........|...........|...........|...........|...........|...........|...........|...........|...........|...........|...........|...........|...........|...........|...........|...........|...........|...........|...........|...........|...........|...........
|...........|...........|...........|...........|...........|...........|...........|...........|...........|...........|...........|...........|...........|...........|...........|...........|...........|...........|...........|...........|...........|...........|...........|...........|...........|...........|...........|...........|...........|...........|...........|...........|...........|...........|...........|...........|...........|...........|...........|...........|...........|...........|...........|...........
|D#503v64SD2|...........|D#604v64SD2|G-604v64SD2|...........|...........|...........|...........|...........|...........|...........|...........|...........|...........|D#707v64SD2|G-707v64SD2|...........|...........|...........|...........|...........|...........|...........|A#314v64SD2|...........|...........|...........|...........|...........|G-609v64SD2|D#609v64SD2|...........|...........|...........|...........|...........|...........|...........|...........|...........|...........|...........|...........|...........
|...........|...........|...........|...........|...........|...........|...........|...........|...........|...........|...........|...........|...........|...........|...........|...........|...........|...........|...........|...........|...........|...........|...........|...........|...........|...........|...........|...........|...........|...........|...........|...........|...........|...........|...........|...........|...........|...........|...........|...........|...........|...........|...........|...........
|...........|...........|...........|...........|...........|...........|...........|...........|...........|...........|...........|...........|...........|...........|...........|...........|...........|...........|...........|...........|...........|...........|...........|...........|...........|...........|...........|...........|...........|...........|...........|...........|...........|...........|...........|...........|...........|...........|...........|...........|...........|...........|...........|...........
|...........|...........|...........|...........|...........|...........|...........|...........|...........|...........|...........|...........|...........|...........|...........|...........|...........|...........|...........|...........|...........|...........|...........|...........|...........|...........|...........|...........|...........|...........|...........|...........|...........|...........|...........|...........|...........|...........|...........|...........|...........|...........|...........|...........
|G#403v64SD2|...........|A#604v64SD2|D-704v64SD2|...........|...........|...........|...........|...........|...........|...........|...........|...........|...........|A#707v64SD2|D-807v64SD2|...........|...........|...........|...........|...........|...........|...........|F#312v64SD2|C-302v64SD2|...........|...........|...........|...........|D-709v64SD2|A#609v64SD2|...........|...........|...........|...........|...........|...........|...........|...........|...........|...........|...........|...........|...........
|...........|...........|...........|...........|...........|...........|...........|...........|...........|...........|...........|...........|...........|...........|...........|...........|...........|...........|...........|...........|...........|...........|...........|...........|...........|...........|...........|...........|...........|...........|...........|...........|...........|...........|...........|...........|...........|...........|...........|...........|...........|...........|...........|...........
|...........|...........|...........|...........|...........|...........|...........|...........|...........|...........|...........|...........|...........|...........|...........|...........|...........|...........|...........|...........|...........|...........|...........|...........|...........|...........|...........|...........|...........|...........|...........|...........|...........|...........|...........|...........|...........|...........|...........|...........|...........|...........|...........|...........
|...........|...........|...........|...........|...........|...........|...........|...........|...........|...........|...........|...........|...........|...........|...........|...........|...........|...........|...........|...........|...........|...........|...........|...........|...........|...........|...........|...........|...........|...........|...........|...........|...........|...........|...........|...........|...........|...........|...........|...........|...........|...........|...........|...........
|D#503v64SD2|...........|C-704v64SD2|D#704v64SD2|...........|...........|...........|...........|...........|...........|...........|...........|...........|...........|C-807v64SD2|D#807v64SD2|...........|...........|...........|...........|...........|...........|...........|A#314v64SD2|...........|...........|...........|...........|...........|D#709v64SD2|C-709v64SD2|...........|...........|...........|...........|...........|...........|...........|...........|...........|...........|...........|...........|...........
|...........|...........|...........|...........|...........|...........|...........|...........|...........|...........|...........|...........|...........|...........|...........|...........|...........|...........|...........|...........|...........|...........|...........|...........|...........|...........|...........|...........|...........|...........|...........|...........|...........|...........|...........|...........|...........|...........|...........|...........|...........|...........|...........|...........
|...........|...........|===.....SD2|===.....SD2|...........|...........|...........|...........|...........|...........|...........|...........|...........|...........|===.....SD2|===.....SD2|...........|...........|...........|...........|...........|...........|...........|...........|...........|...........|...........|...........|...........|===.....SD2|===.....SD2|...........|...........|...........|...........|...........|...........|...........|...........|...........|...........|...........|...........|...........
|...........|...........|...........|...........|...........|...........|...........|...........|...........|===.....SD4|===.....SD4|===.....SD4|...........|...........|...........|...........|...........|...........|...........|...........|...........|...........|...........|...........|...........|...........|...........|...........|...........|...........|...........|...........|...........|...........|...........|...........|...........|...........|...........|...........|===.....SD4|===.....SD4|===.....SD4|...........
|A#403v64SD2|...........|A#604v64SD2|D-704v64SD2|...........|...........|...........|...........|...........|A#306v64SD2|F-406v64SD2|A#506v64SD2|...........|...........|A#707v64SD2|D-807v64SD2|...........|...........|...........|...........|...........|===.....SD2|A#408v64SD2|F#312v64SD2|C-302v64SD2|...........|...........|...........|...........|D-709v64SD2|A#609v64SD2|...........|...........|...........|...........|...........|...........|...........|...........|...........|A#311v52SD2|F-411v52SD2|A#511v52SD2|...........
|...........|...........|...........|...........|...........|...........|...........|...........|...........|...........|...........|...........|...........|...........|...........|...........|...........|...........|...........|...........|...........|...........|...........|...........|...........|...........|...........|...........|...........|...........|...........|...........|...........|...........|...........|...........|...........|...........|...........|...........|...........|...........|...........|...........
|...........|...........|...........|...........|...........|...........|...........|...........|...........|...........|...........|...........|...........|...........|...........|...........|...........|...........|...........|...........|...........|...........|...........|...........|...........|...........|...........|...........|...........|...........|...........|...........|...........|...........|...........|...........|...........|...........|...........|...........|...........|...........|...........|...........
|...........|...........|...........|...........|...........|...........|...........|...........|...........|...........|...........|...........|...........|...........|...........|...........|...........|...........|...........|...........|...........|...........|...........|...........|...........|...........|...........|...........|...........|...........|...........|...........|...........|...........|...........|...........|...........|...........|...........|...........|...........|...........|...........|...........
|F-503v64SD2|...........|C-704v64SD2|D#704v64SD2|...........|...........|...........|...........|...........|...........|...........|...........|...........|...........|C-807v64SD2|D#807v64SD2|...........|...........|...........|...........|...........|...........|...........|A#314v64SD2|...........|...........|...........|...........|...........|D#709v64SD2|C-709v64SD2|...........|...........|...........|...........|...........|...........|...........|...........|...........|...........|...........|...........|...........
|...........|...........|...........|...........|...........|...........|...........|...........|...........|...........|...........|...........|...........|...........|...........|...........|...........|...........|...........|...........|...........|...........|...........|...........|...........|...........|...........|...........|...........|...........|...........|...........|...........|...........|...........|...........|...........|...........|...........|...........|...........|...........|...........|...........
|...........|...........|A#604v64SD2|D-704v64SD2|...........|...........|...........|...........|...........|...........|...........|...........|...........|...........|A#707v64SD2|D-807v64SD2|...........|...........|...........|...........|...........|...........|...........|...........|...........|...........|...........|...........|...........|D-709v64SD2|A#609v64SD2|...........|...........|...........|...........|...........|...........|...........|...........|...........|...........|...........|...........|...........
|...........|...........|...........|...........|...........|...........|...........|...........|...........|...........|...........|...........|...........|...........|...........|...........|...........|...........|...........|...........|...........|...........|...........|...........|...........|...........|...........|...........|...........|...........|...........|...........|...........|...........|...........|...........|...........|...........|...........|...........|...........|...........|...........|...........
|A#403v64SD2|...........|D#604v64SD2|C-704v64SD2|...........|...........|...........|...........|...........|...........|...........|...........|...........|...........|D#707v64SD2|C-807v64SD2|...........|...........|...........|...........|...........|...........|...........|F#312v64SD2|C-302v64SD2|...........|...........|...........|...........|C-709v64SD2|D#609v64SD2|...........|...........|...........|...........|...........|...........|...........|...........|...........|...........|...........|...........|...........
|...........|...........|...........|...........|...........|...........|...........|...........|...........|...........|...........|...........|...........|...........|...........|...........|...........|...........|...........|...........|...........|...........|...........|...........|...........|...........|...........|...........|...........|...........|...........|...........|...........|...........|...........|...........|...........|...........|...........|...........|...........|...........|...........|...........
|...........|...........|...........|...........|...........|...........|...........|...........|...........|...........|...........|...........|...........|...........|...........|...........|...........|...........|...........|...........|...........|...........|...........|...........|...........|...........|...........|...........|...........|...........|...........|...........|...........|...........|...........|...........|...........|...........|...........|...........|...........|...........|...........|...........
|...........|...........|...........|...........|...........|...........|...........|...........|...........|...........|...........|...........|...........|...........|...........|...........|...........|...........|...........|...........|...........|...........|...........|...........|...........|...........|...........|...........|...........|...........|...........|...........|...........|...........|...........|...........|...........|...........|...........|...........|...........|...........|...........|...........
|F-503v64SD2|...........|D#604v64SD2|A#604v64SD2|...........|...........|...........|...........|...........|...........|...........|...........|...........|...........|D#707v64SD2|A#707v64SD2|...........|...........|...........|...........|...........|...........|...........|A#314v64SD2|...........|...........|...........|...........|...........|A#609v64SD2|D#609v64SD2|...........|...........|...........|...........|...........|...........|...........|...........|...........|...........|...........|...........|...........
|...........|...........|...........|...........|...........|...........|...........|...........|...........|...........|...........|...........|...........|...........|...........|...........|...........|...........|...........|...........|...........|...........|...........|...........|...........|...........|...........|...........|...........|...........|...........|...........|...........|...........|...........|...........|...........|...........|...........|...........|...........|...........|...........|...........
|...........|...........|===.....SD2|===.....SD2|...........|...........|...........|...........|...........|...........|...........|...........|...........|...........|===.....SD2|===.....SD2|...........|...........|...........|...........|...........|...........|...........|...........|...........|...........|...........|...........|...........|===.....SD2|===.....SD2|...........|...........|...........|...........|...........|...........|...........|...........|...........|...........|...........|...........|...........
|...........|...........|...........|...........|...........|...........|...........|...........|...........|===.....SD4|===.....SD4|===.....SD4|...........|...........|...........|...........|...........|...........|...........|...........|...........|...........|...........|...........|...........|...........|...........|...........|...........|...........|...........|...........|...........|...........|...........|...........|...........|...........|...........|...........|===.....SD4|===.....SD4|===.....SD4|...........
|C-503v64SD2|...........|G-604v64SD2|C-704v64SD2|...........|...........|...........|...........|...........|C-406v64SD2|G-406v64SD2|C-606v64SD2|...........|...........|G-707v64SD2|C-807v64SD2|...........|...........|...........|...........|...........|C-508v64SD2|===.....SD2|F#312v64SD2|C-302v64SD2|...........|...........|...........|...........|C-709v64SD2|G-609v64SD2|...........|...........|...........|...........|...........|...........|...........|...........|...........|C-411v52SD2|G-411v52SD2|C-611v52SD2|...........
|...........|...........|...........|...........|...........|...........|...........|...........|...........|...........|...........|...........|...........|...........|...........|...........|...........|...........|...........|...........|...........|...........|...........|...........|...........|...........|...........|...........|...........|...........|...........|...........|...........|...........|...........|...........|...........|...........|...........|...........|...........|...........|...........|...........
|...........|...........|...........|...........|...........|...........|...........|...........|...........|...........|...........|...........|...........|...........|...........|...........|...........|...........|...........|...........|...........|...........|...........|...........|...........|...........|...........|...........|...........|...........|...........|...........|...........|...........|...........|...........|...........|...........|...........|...........|...........|...........|...........|...........
|...........|...........|...........|...........|...........|...........|...........|...........|...........|...........|...........|...........|...........|...........|...........|...........|...........|...........|...........|...........|...........|...........|...........|...........|...........|...........|...........|...........|...........|...........|...........|...........|...........|...........|...........|...........|...........|...........|...........|...........|...........|...........|...........|...........
|G-503v64SD2|...........|...........|...........|...........|...........|...........|...........|...........|...........|...........|...........|...........|...........|...........|...........|...........|...........|...........|...........|...........|...........|...........|E-313v64SD2|A#314v64SD2|...........|...........|...........|...........|...........|...........|...........|...........|...........|...........|...........|...........|...........|...........|...........|...........|...........|...........|...........
|...........|...........|...........|...........|...........|...........|...........|...........|...........|...........|...........|...........|...........|...........|...........|...........|...........|...........|...........|...........|...........|...........|...........|...........|...........|...........|...........|...........|...........|...........|...........|...........|...........|...........|...........|...........|...........|...........|...........|...........|...........|...........|...........|...........
|...........|...........|...........|...........|...........|...........|...........|...........|...........|...........|...........|...........|...........|...........|...........|...........|...........|...........|...........|...........|...........|...........|...........|E-313v64SD2|...........|...........|...........|...........|...........|...........|...........|...........|...........|...........|...........|...........|...........|...........|...........|...........|...........|...........|...........|...........
|...........|...........|...........|...........|...........|...........|...........|...........|...........|...........|...........|...........|...........|...........|...........|...........|...........|...........|...........|...........|...........|...........|...........|...........|...........|...........|...........|...........|...........|...........|...........|...........|...........|...........|...........|...........|...........|...........|...........|...........|...........|...........|...........|...........
|C-503v64SD2|...........|...........|...........|...........|...........|...........|...........|...........|...........|...........|...........|...........|...........|...........|...........|...........|...........|...........|...........|...........|...........|...........|E-313v64SD2|F#312v64SD2|C-302v64SD2|...........|...........|...........|...........|...........|...........|...........|...........|...........|...........|...........|...........|...........|...........|...........|...........|...........|...........
|...........|...........|...........|...........|...........|...........|...........|...........|...........|...........|...........|...........|...........|...........|...........|...........|...........|...........|...........|...........|...........|...........|...........|...........|...........|...........|...........|...........|...........|...........|...........|...........|...........|...........|...........|...........|...........|...........|...........|...........|...........|...........|...........|...........
|...........|...........|...........|...........|...........|...........|...........|...........|...........|...........|...........|...........|...........|...........|...........|...........|...........|...........|...........|...........|...........|...........|...........|...........|...........|...........|...........|...........|...........|...........|...........|...........|...........|...........|...........|...........|...........|...........|...........|...........|...........|...........|...........|...........
|...........|...........|...........|...........|...........|...........|...........|...........|...........|...........|...........|...........|...........|...........|...........|...........|...........|...........|...........|...........|...........|...........|...........|...........|...........|...........|...........|...........|...........|...........|...........|...........|...........|...........|...........|...........|...........|...........|...........|...........|...........|...........|...........|...........
|G-503v64SD2|...........|...........|...........|...........|...........|...........|...........|...........|...........|...........|...........|...........|...........|...........|...........|...........|...........|...........|...........|...........|...........|...........|E-313v64SD2|A#314v64SD2|...........|...........|...........|...........|...........|...........|...........|...........|...........|...........|...........|...........|...........|...........|...........|...........|...........|...........|...........
|...........|...........|...........|...........|...........|...........|...........|...........|...........|...........|...........|...........|...........|...........|...........|...........|...........|...........|...........|...........|...........|...........|...........|...........|...........|...........|...........|...........|...........|...........|...........|...........|...........|...........|...........|...........|...........|...........|...........|...........|...........|...........|...........|...........
|...........|...........|...........|...........|...........|...........|...........|...........|...........|...........|...........|...........|...........|...........|...........|...........|...........|...........|...........|...........|...........|...........|...........|E-313v64SD2|...........|...........|...........|...........|...........|...........|...........|...........|...........|...........|...........|...........|...........|...........|...........|...........|...........|...........|...........|...........
|...........|...........|...........|...........|...........|...........|...........|...........|...........|...........|...........|...........|...........|...........|...........|...........|...........|...........|...........|...........|...........|...........|...........|...........|...........|...........|...........|...........|...........|...........|...........|...........|...........|...........|...........|...........|...........|...........|...........|...........|...........|...........|...........|...........
|C-503v64SD2|...........|...........|...........|...........|...........|...........|...........|...........|...........|...........|...........|...........|...........|...........|...........|...........|...........|...........|...........|...........|...........|...........|F#312v64SD2|C-302v64SD2|...........|...........|...........|...........|...........|...........|...........|...........|...........|...........|...........|...........|...........|...........|...........|...........|...........|...........|...........
|...........|...........|...........|...........|...........|...........|...........|...........|...........|...........|...........|...........|...........|...........|...........|...........|...........|...........|...........|...........|...........|...........|...........|...........|...........|...........|...........|...........|...........|...........|...........|...........|...........|...........|...........|...........|...........|...........|...........|...........|...........|...........|...........|...........
|...........|...........|...........|...........|...........|...........|...........|...........|...........|...........|...........|...........|...........|...........|...........|...........|...........|...........|...........|...........|...........|...........|...........|E-313v64SD2|...........|...........|...........|...........|...........|...........|...........|...........|...........|...........|...........|...........|...........|...........|...........|...........|...........|...........|...........|...........
|...........|...........|...........|...........|...........|...........|...........|...........|...........|...........|...........|...........|...........|...........|...........|...........|...........|...........|...........|...........|...........|...........|...........|...........|...........|...........|...........|...........|...........|...........|...........|...........|...........|...........|...........|...........|...........|...........|...........|...........|...........|...........|...........|...........
|G-503v64SD2|...........|...........|...........|...........|...........|...........|...........|...........|...........|...........|...........|...........|...........|...........|...........|...........|...........|...........|...........|...........|...........|...........|E-313v64SD2|D-315v42SD2|A#314v64SD2|...........|...........|...........|...........|...........|...........|...........|...........|...........|...........|...........|...........|...........|...........|...........|...........|...........|...........
|...........|...........|...........|...........|...........|...........|...........|...........|...........|...........|...........|...........|...........|...........|...........|...........|...........|...........|...........|...........|...........|...........|...........|...........|...........|...........|...........|...........|...........|...........|...........|...........|...........|...........|...........|...........|...........|...........|...........|...........|...........|...........|...........|...........
|...........|...........|...........|...........|...........|...........|...........|...........|...........|...........|...........|...........|...........|...........|...........|...........|...........|...........|...........|...........|...........|...........|...........|...........|...........|...........|...........|...........|...........|...........|...........|...........|...........|...........|...........|...........|...........|...........|...........|...........|...........|...........|...........|...........
|...........|...........|...........|...........|...........|...........|...........|...........|...........|...........|...........|...........|...........|...........|...........|...........|...........|...........|...........|...........|...........|...........|...........|...........|...........|...........|...........|...........|...........|...........|...........|...........|...........|...........|...........|...........|...........|...........|...........|...........|...........|...........|...........|...........
|C-503v64SD2|...........|...........|...........|...........|...........|...........|...........|...........|...........|...........|...........|...........|...........|...........|...........|...........|...........|...........|...........|...........|...........|...........|E-313v64SD2|F#312v64SD2|C-302v64SD2|...........|...........|...........|...........|...........|...........|...........|...........|...........|...........|...........|...........|...........|...........|...........|...........|...........|...........
|...........|...........|...........|...........|...........|...........|...........|...........|...........|...........|...........|...........|...........|...........|...........|...........|...........|...........|...........|...........|...........|...........|...........|...........|...........|...........|...........|...........|...........|...........|...........|...........|...........|...........|...........|...........|...........|...........|...........|...........|...........|...........|...........|...........
|...........|...........|...........|...........|...........|...........|...........|...........|...........|...........|...........|...........|...........|...........|...........|...........|...........|...........|...........|...........|...........|...........|...........|D-315v42SD2|...........|...........|...........|...........|...........|...........|...........|...........|...........|...........|...........|...........|...........|...........|...........|...........|...........|...........|...........|...........
|...........|...........|...........|...........|...........|...........|...........|...........|...........|...........|...........|...........|...........|...........|...........|...........|...........|...........|...........|...........|...........|...........|...........|...........|...........|...........|...........|...........|...........|...........|...........|...........|...........|...........|...........|...........|...........|...........|...........|...........|...........|...........|...........|...........
|G-503v64SD2|...........|...........|...........|...........|...........|...........|...........|...........|...........|...........|...........|...........|...........|...........|...........|...........|...........|...........|...........|...........|...........|...........|E-313v64SD2|A#314v64SD2|...........|...........|...........|...........|...........|...........|...........|...........|...........|...........|...........|...........|...........|...........|...........|...........|...........|...........|...........
|...........|...........|...........|...........|...........|...........|...........|...........|...........|...........|...........|...........|...........|...........|...........|...........|...........|...........|...........|...........|...........|...........|...........|...........|...........|...........|...........|...........|...........|...........|...........|...........|...........|...........|...........|...........|...........|...........|...........|...........|...........|...........|...........|...........
|...........|...........|...........|...........|...........|...........|...........|...........|...........|...........|...........|...........|...........|...........|...........|...........|...........|...........|...........|...........|...........|...........|...........|D-315v42SD2|...........|...........|...........|...........|...........|...........|...........|...........|...........|...........|...........|...........|...........|...........|...........|...........|...........|...........|...........|...........
|...........|...........|...........|...........|...........|...........|...........|...........|...........|...........|...........|...........|...........|...........|...........|...........|...........|...........|...........|...........|...........|...........|...........|...........|...........|...........|...........|...........|...........|...........|...........|...........|...........|...........|...........|...........|...........|...........|...........|...........|...........|...........|...........|...........


!channels=1+11+18+19
!octaves=0+1+1+1

|C-403v64SD2|G-403v64SD2|===........|===........|...........|C-805v64SD2|...........|...........|...........|C-406v52SD2|G-406v52SD2|===........|...........|...........|===........|===........|...........|C-622v64SD2|...........|...........|...........|C-408v56SD2|G-408v56SD2|C#401v64SD2|C-302v64SD2|...........|...........|...........|...........|===........|===........|...........|C-710v62SD2|...........|...........|...........|C-810v62SD2|...........|...........|...........|C-411v39SD2|G-411v39SD2|===........|........T96
|...........|...........|...........|...........|...........|...........|...........|...........|...........|...........|...........|...........|...........|...........|...........|...........|...........|...........|...........|...........|...........|...........|...........|...........|...........|...........|...........|...........|...........|...........|...........|...........|...........|...........|...........|...........|...........|...........|...........|...........|...........|...........|...........|...........
|...........|...........|...........|...........|...........|...........|...........|...........|...........|...........|...........|...........|...........|...........|...........|...........|...........|...........|...........|...........|...........|...........|...........|...........|...........|...........|...........|...........|...........|...........|...........|...........|...........|...........|...........|...........|...........|...........|...........|...........|...........|...........|...........|...........
|...........|...........|...........|...........|...........|...........|G-705v64...|...........|...........|...........|...........|...........|...........|...........|...........|...........|...........|...........|G-522v64XB4|...........|...........|...........|...........|...........|...........|...........|...........|...........|...........|...........|...........|...........|...........|G-610v64XB4|...........|...........|...........|G-710v64...|...........|...........|...........|...........|...........|...........
|...........|...........|...........|...........|...........|===.....SD1|...........|...........|...........|...........|...........|...........|...........|...........|...........|...........|...........|===.....SD1|...........|...........|...........|...........|...........|...........|...........|...........|...........|...........|...........|...........|...........|...........|===.....SD1|...........|...........|...........|===.....SD1|...........|...........|...........|...........|...........|...........|...........
|...........|...........|...........|...........|...........|F-705v64SD4|...........|...........|...........|...........|...........|...........|...........|...........|...........|...........|...........|F-522v64SD4|...........|...........|...........|...........|...........|...........|...........|...........|...........|...........|...........|...........|...........|...........|F-610v64SD4|...........|...........|...........|F-710v64SD4|...........|...........|...........|...........|...........|...........|...........
|...........|...........|...........|...........|...........|...........|===.....SD5|...........|...........|...........|...........|...........|...........|...........|...........|...........|...........|...........|===.....SD5|...........|...........|...........|...........|...........|...........|...........|...........|...........|...........|...........|...........|...........|...........|===.....SD5|...........|...........|...........|===.....SD5|...........|...........|...........|...........|...........|...........
|...........|...........|...........|...........|...........|...........|...........|...........|...........|...........|...........|...........|...........|...........|...........|...........|...........|...........|...........|...........|...........|...........|...........|...........|...........|...........|...........|...........|...........|...........|...........|...........|...........|...........|...........|...........|...........|...........|...........|...........|...........|...........|...........|...........
|...........|...........|...........|...........|...........|...........|C-805v64SD2|...........|...........|...........|...........|...........|...........|...........|...........|...........|...........|...........|C-622v64SD2|...........|...........|...........|...........|...........|...........|...........|...........|...........|...........|...........|...........|...........|...........|C-710v64SD2|...........|...........|...........|C-810v64SD2|...........|...........|...........|...........|...........|...........
|...........|...........|...........|...........|...........|===.....SD3|...........|...........|...........|...........|...........|...........|...........|...........|...........|...........|...........|===.....SD3|...........|...........|...........|...........|...........|...........|...........|...........|...........|...........|...........|...........|...........|...........|===.....SD3|...........|...........|...........|===.....SD3|...........|...........|...........|...........|...........|...........|...........
|...........|...........|...........|...........|...........|...........|...........|...........|...........|...........|...........|...........|...........|...........|...........|...........|...........|...........|...........|...........|...........|...........|...........|...........|...........|...........|...........|...........|...........|...........|...........|...........|...........|...........|...........|...........|...........|...........|...........|...........|...........|...........|...........|...........
|...........|...........|...........|...........|...........|G-705v64...|...........|...........|...........|...........|...........|...........|...........|...........|...........|...........|...........|G-522v64XB4|...........|...........|...........|...........|...........|...........|...........|...........|...........|...........|...........|...........|...........|...........|G-610v64XB4|...........|...........|...........|G-710v64...|...........|...........|...........|...........|...........|...........|...........
|...........|...........|...........|...........|...........|...........|===.....SD1|...........|...........|...........|...........|...........|...........|...........|...........|...........|...........|...........|===.....SD1|...........|...........|...........|...........|...........|...........|...........|...........|...........|...........|...........|...........|...........|...........|===.....SD1|...........|...........|...........|===.....SD1|...........|...........|...........|...........|...........|...........
|...........|...........|...........|...........|...........|...........|F-705v64SD4|...........|...........|...........|...........|...........|...........|...........|...........|...........|...........|...........|F-522v64SD4|...........|...........|...........|...........|...........|...........|...........|...........|...........|...........|...........|...........|...........|...........|F-610v64SD4|...........|...........|...........|F-710v64SD4|...........|...........|...........|...........|...........|...........
|...........|...........|...........|...........|...........|===.....SD5|...........|...........|...........|...........|...........|...........|...........|...........|...........|...........|...........|===.....SD5|...........|...........|...........|...........|...........|...........|...........|...........|...........|...........|...........|...........|...........|...........|===.....SD5|...........|...........|...........|===.....SD5|...........|...........|...........|...........|...........|...........|...........
|...........|...........|...........|...........|...........|...........|...........|...........|...........|...........|...........|...........|...........|...........|...........|...........|...........|...........|...........|...........|...........|...........|...........|...........|...........|...........|...........|...........|...........|...........|...........|...........|...........|...........|...........|...........|...........|...........|...........|...........|...........|...........|...........|...........
|...........|...........|...........|...........|...........|C-805v64SD2|...........|...........|...........|...........|...........|...........|...........|...........|...........|...........|...........|C-622v64SD2|...........|...........|...........|...........|...........|...........|...........|...........|...........|...........|...........|...........|...........|...........|C-710v64SD2|...........|...........|...........|C-810v64SD2|...........|...........|...........|...........|...........|...........|...........



!channels=1+2+18+19
ModPlug Tracker MPT
|...........|...........|...........|...........|...........|...........|===.....SD3|...........|...........|...........|...........|...........|...........|...........|...........|...........|...........|...........|===.....SD3|...........|...........|...........|...........|...........|...........|...........|...........|...........|...........|...........|...........|...........|...........|===.....SD3|...........|...........|...........|===.....SD3|...........|...........|...........|...........|...........|...........
|...........|...........|...........|...........|...........|...........|...........|...........|...........|...........|...........|...........|...........|...........|...........|...........|...........|...........|...........|...........|...........|...........|...........|...........|...........|...........|...........|...........|...........|...........|...........|...........|...........|...........|...........|...........|...........|...........|...........|...........|...........|...........|...........|...........
|...........|...........|...........|...........|...........|...........|G-705v64...|...........|...........|...........|...........|...........|...........|...........|...........|...........|...........|...........|G-522v64...|...........|...........|...........|...........|...........|...........|...........|...........|...........|...........|...........|...........|...........|...........|G-610v64...|...........|...........|...........|G-710v64...|...........|...........|...........|...........|...........|...........
|...........|...........|...........|...........|...........|===.....SD1|...........|...........|...........|...........|...........|...........|...........|...........|...........|...........|...........|===.....SD1|...........|...........|...........|...........|...........|...........|...........|...........|...........|...........|...........|...........|...........|...........|===.....SD1|...........|...........|...........|===.....SD1|...........|...........|...........|...........|...........|...........|...........
|...........|...........|...........|...........|...........|F-705v64SD4|...........|...........|...........|...........|...........|...........|...........|...........|...........|...........|...........|F-522v64SD4|...........|...........|...........|...........|...........|...........|...........|...........|...........|...........|...........|...........|...........|...........|F-610v64SD4|...........|...........|...........|F-710v64SD4|...........|...........|...........|...........|...........|...........|...........
|...........|...........|...........|...........|...........|...........|===.....SD5|...........|...........|...........|...........|...........|...........|...........|...........|...........|...........|...........|===.....SD5|...........|...........|...........|...........|...........|...........|...........|...........|...........|...........|...........|...........|...........|...........|===.....SD5|...........|...........|...........|===.....SD5|...........|...........|...........|...........|...........|...........
|...........|...........|...........|...........|...........|...........|...........|...........|...........|...........|...........|...........|...........|...........|...........|...........|...........|...........|...........|...........|...........|...........|...........|...........|...........|...........|...........|...........|...........|...........|...........|...........|...........|...........|...........|...........|...........|...........|...........|...........|...........|...........|...........|...........
|...........|...........|...........|...........|...........|...........|C-805v64SD2|...........|...........|...........|...........|...........|...........|...........|...........|...........|...........|...........|C-622v64SD2|...........|...........|...........|...........|...........|...........|...........|...........|...........|...........|...........|...........|...........|...........|C-710v64SD2|...........|...........|...........|C-810v64SD2|...........|...........|...........|...........|...........|...........
|...........|...........|...........|...........|...........|===.....SD3|...........|...........|...........|...........|...........|...........|...........|...........|...........|...........|...........|===.....SD3|...........|...........|...........|...........|...........|...........|...........|...........|...........|...........|...........|...........|...........|...........|===.....SD3|...........|...........|...........|===.....SD3|...........|...........|...........|...........|...........|...........|...........
|...........|...........|...........|...........|...........|...........|...........|...........|...........|...........|...........|...........|...........|...........|...........|...........|...........|...........|...........|...........|...........|...........|...........|...........|...........|...........|...........|...........|...........|...........|...........|...........|...........|...........|...........|...........|...........|...........|...........|...........|...........|...........|...........|...........
|...........|...........|...........|...........|...........|G-705v64...|...........|...........|...........|...........|...........|...........|...........|...........|...........|...........|...........|G-522v64...|...........|...........|...........|...........|...........|...........|...........|...........|...........|...........|...........|...........|...........|...........|G-610v64...|...........|...........|...........|G-710v64...|...........|...........|...........|...........|...........|...........|...........
|...........|...........|...........|...........|...........|...........|===.....SD1|...........|...........|...........|...........|...........|...........|...........|...........|...........|...........|...........|===.....SD1|...........|...........|...........|...........|...........|...........|...........|...........|...........|...........|...........|...........|...........|...........|===.....SD1|...........|...........|...........|===.....SD1|...........|...........|...........|...........|...........|...........
|...........|...........|...........|...........|...........|...........|F-705v64SD4|...........|...........|...........|...........|...........|...........|...........|...........|...........|...........|...........|F-522v64SD4|...........|...........|...........|...........|...........|...........|...........|...........|...........|...........|...........|...........|...........|...........|F-610v64SD4|...........|...........|...........|F-710v64SD4|...........|...........|...........|...........|...........|...........
|...........|...........|...........|...........|...........|===.....SD5|...........|...........|...........|...........|...........|...........|...........|...........|...........|...........|...........|===.....SD5|...........|...........|...........|...........|...........|...........|...........|...........|...........|...........|...........|...........|...........|...........|===.....SD5|...........|...........|...........|===.....SD5|...........|...........|...........|...........|...........|...........|...........
|...........|...........|...........|...........|...........|...........|...........|...........|...........|...........|...........|...........|...........|...........|...........|...........|...........|...........|...........|...........|...........|...........|...........|...........|...........|...........|...........|...........|...........|...........|...........|...........|...........|...........|...........|...........|...........|...........|...........|...........|...........|...........|...........|...........
|C-403v64SD2|G-403v64SD2|...........|...........|...........|C-805v64SD2|...........|...........|...........|...........|...........|...........|...........|...........|...........|...........|...........|C-622v64SD2|...........|...........|...........|...........|...........|...........|...........|...........|...........|...........|...........|...........|...........|...........|C-710v62SD2|...........|...........|...........|C-810v62SD2|...........|...........|...........|...........|...........|...........|...........
|...........|...........|...........|...........|...........|...........|===.....SD3|...........|...........|...........|...........|...........|...........|...........|...........|...........|...........|...........|===.....SD3|...........|...........|...........|...........|...........|...........|...........|...........|...........|...........|...........|...........|...........|...........|===.....SD3|...........|...........|...........|===.....SD3|...........|...........|...........|...........|...........|...........
|...........|...........|...........|...........|...........|...........|...........|...........|...........|...........|...........|...........|...........|...........|...........|...........|...........|...........|...........|...........|...........|...........|...........|...........|...........|...........|...........|...........|...........|...........|...........|...........|...........|...........|...........|...........|...........|...........|...........|...........|...........|...........|...........|...........
|...........|...........|...........|...........|...........|...........|G-705v64...|...........|...........|...........|...........|...........|...........|...........|...........|...........|...........|...........|G-522v64...|...........|...........|...........|...........|...........|...........|...........|...........|...........|...........|...........|...........|...........|...........|G-610v64...|...........|...........|...........|G-710v64...|...........|...........|...........|...........|...........|...........
|...........|...........|...........|...........|...........|===.....SD1|...........|...........|...........|...........|...........|...........|...........|...........|...........|...........|...........|===.....SD1|...........|...........|...........|...........|...........|...........|...........|...........|...........|...........|...........|...........|...........|...........|===.....SD1|...........|...........|...........|===.....SD1|...........|...........|...........|...........|...........|...........|...........
|...........|...........|...........|...........|...........|F-705v64SD4|...........|...........|...........|...........|...........|...........|...........|...........|...........|...........|...........|F-522v64SD4|...........|...........|...........|...........|...........|...........|...........|...........|...........|...........|...........|...........|...........|...........|F-610v64SD4|...........|...........|...........|F-710v64SD4|...........|...........|...........|...........|...........|...........|...........
|...........|...........|...........|...........|...........|...........|===.....SD5|...........|...........|...........|...........|...........|...........|...........|...........|...........|...........|...........|===.....SD5|...........|...........|...........|...........|...........|...........|...........|...........|...........|...........|...........|...........|...........|...........|===.....SD5|...........|...........|...........|===.....SD5|...........|...........|...........|...........|...........|...........
|...........|...........|...........|...........|...........|...........|...........|...........|...........|...........|...........|...........|...........|...........|...........|...........|...........|...........|...........|...........|...........|...........|...........|...........|...........|...........|...........|...........|...........|...........|...........|...........|...........|...........|...........|...........|...........|...........|...........|...........|...........|...........|...........|...........
|...........|...........|...........|...........|...........|...........|C-805v64SD2|...........|...........|...........|...........|...........|...........|...........|...........|...........|...........|...........|C-622v64SD2|...........|...........|...........|...........|...........|...........|...........|...........|...........|...........|...........|...........|...........|...........|C-710v64SD2|...........|...........|...........|C-810v64SD2|...........|...........|...........|...........|...........|...........
|...........|...........|...........|...........|...........|===.....SD3|...........|...........|...........|...........|...........|...........|...........|...........|...........|...........|...........|===.....SD3|...........|...........|...........|...........|...........|...........|...........|...........|...........|...........|...........|...........|...........|...........|===.....SD3|...........|...........|...........|===.....SD3|...........|...........|...........|...........|...........|...........|...........
|...........|...........|...........|...........|...........|...........|...........|...........|...........|...........|...........|...........|...........|...........|...........|...........|...........|...........|...........|...........|...........|...........|...........|...........|...........|...........|...........|...........|...........|...........|...........|...........|...........|...........|...........|...........|...........|...........|...........|...........|...........|...........|...........|...........
|...........|...........|...........|...........|...........|G-705v64...|...........|...........|...........|...........|...........|...........|...........|...........|...........|...........|...........|G-522v64...|...........|...........|...........|...........|...........|...........|...........|...........|...........|...........|...........|...........|...........|...........|G-610v64...|...........|...........|...........|G-710v64...|...........|...........|...........|...........|...........|...........|...........
|...........|...........|...........|...........|...........|...........|===.....SD1|...........|...........|...........|...........|...........|...........|...........|...........|...........|...........|...........|===.....SD1|...........|...........|...........|...........|...........|...........|...........|...........|...........|...........|...........|...........|...........|...........|===.....SD1|...........|...........|...........|===.....SD1|...........|...........|...........|...........|...........|...........
|...........|...........|...........|...........|...........|...........|F-705v64SD4|...........|...........|...........|...........|...........|...........|...........|...........|...........|...........|...........|F-522v64SD4|...........|...........|...........|...........|...........|...........|...........|...........|...........|...........|...........|...........|...........|...........|F-610v64SD4|...........|...........|...........|F-710v64SD4|...........|...........|...........|...........|...........|...........
|...........|...........|...........|...........|...........|===.....SD5|...........|...........|...........|...........|...........|...........|...........|...........|...........|...........|...........|===.....SD5|...........|...........|...........|...........|...........|...........|...........|...........|...........|...........|...........|...........|...........|...........|===.....SD5|...........|...........|...........|===.....SD5|...........|...........|...........|...........|...........|...........|...........
|...........|...........|...........|...........|...........|...........|...........|...........|...........|...........|...........|...........|...........|...........|...........|...........|...........|...........|...........|...........|...........|...........|...........|...........|...........|...........|...........|...........|...........|...........|...........|...........|...........|...........|...........|...........|...........|...........|...........|...........|...........|...........|...........|...........
|...........|...........|...........|...........|...........|C-805v64SD2|...........|...........|...........|...........|...........|...........|...........|...........|...........|...........|...........|C-622v64SD2|...........|...........|...........|...........|...........|...........|...........|...........|...........|...........|...........|...........|...........|...........|C-710v64SD2|...........|...........|...........|C-810v64SD2|...........|...........|...........|...........|...........|...........|...........
|...........|...........|...........|...........|...........|...........|===.....SD3|...........|...........|...........|...........|...........|...........|...........|...........|...........|...........|...........|===.....SD3|...........|...........|...........|...........|...........|...........|...........|...........|...........|...........|...........|...........|...........|...........|===.....SD3|...........|...........|...........|===.....SD3|...........|...........|...........|...........|...........|...........
|...........|...........|...........|...........|...........|...........|...........|...........|...........|...........|...........|...........|...........|...........|...........|...........|...........|...........|...........|...........|...........|...........|...........|...........|...........|...........|...........|...........|...........|...........|...........|...........|...........|...........|...........|...........|...........|...........|...........|...........|...........|...........|...........|...........
|...........|...........|...........|...........|...........|...........|G-705v64...|...........|...........|...........|...........|...........|...........|...........|...........|...........|...........|...........|G-522v64...|...........|...........|...........|...........|...........|...........|...........|...........|...........|...........|...........|...........|...........|...........|G-610v64...|...........|...........|...........|G-710v64...|...........|...........|...........|...........|...........|...........
|...........|...........|...........|...........|...........|===.....SD1|...........|...........|...........|...........|...........|...........|...........|...........|...........|...........|...........|===.....SD1|...........|...........|...........|...........|...........|...........|...........|...........|...........|...........|...........|...........|...........|...........|===.....SD1|...........|...........|...........|===.....SD1|...........|...........|...........|...........|...........|...........|...........
|...........|...........|...........|...........|...........|F-705v64SD4|...........|...........|...........|...........|...........|...........|...........|...........|...........|...........|...........|F-522v64SD4|...........|...........|...........|...........|...........|...........|...........|...........|...........|...........|...........|...........|...........|...........|F-610v64SD4|...........|...........|...........|F-710v64SD4|...........|...........|...........|...........|...........|...........|...........
|...........|...........|...........|...........|...........|...........|===.....SD5|...........|...........|...........|...........|...........|...........|...........|...........|...........|...........|...........|===.....SD5|...........|...........|...........|...........|...........|...........|...........|...........|...........|...........|...........|...........|...........|...........|===.....SD5|...........|...........|...........|===.....SD5|...........|...........|...........|...........|...........|...........
|...........|...........|...........|...........|...........|...........|...........|...........|...........|...........|...........|...........|...........|...........|...........|...........|...........|...........|...........|...........|...........|...........|...........|...........|...........|...........|...........|...........|...........|...........|...........|...........|...........|...........|...........|...........|...........|...........|...........|...........|...........|...........|...........|...........
|...........|...........|...........|...........|...........|...........|C-805v64SD2|...........|...........|...........|...........|...........|...........|...........|...........|...........|...........|...........|C-622v64SD2|...........|...........|...........|...........|...........|...........|...........|...........|...........|...........|...........|...........|...........|...........|C-710v64SD2|...........|...........|...........|C-810v64SD2|...........|...........|...........|...........|...........|...........
|...........|...........|...........|...........|...........|===.....SD3|...........|...........|...........|...........|...........|...........|...........|...........|...........|...........|...........|===.....SD3|...........|...........|...........|...........|...........|...........|...........|...........|...........|...........|...........|...........|...........|...........|===.....SD3|...........|...........|...........|===.....SD3|...........|...........|...........|...........|...........|...........|...........
|...........|...........|...........|...........|...........|...........|...........|...........|...........|...........|...........|...........|...........|...........|...........|...........|...........|...........|...........|...........|...........|...........|...........|...........|...........|...........|...........|...........|...........|...........|...........|...........|...........|...........|...........|...........|...........|...........|...........|...........|...........|...........|...........|...........
|...........|...........|...........|...........|...........|G-705v64...|...........|...........|...........|...........|...........|...........|...........|...........|...........|...........|...........|G-522v64...|...........|...........|...........|...........|...........|...........|...........|...........|...........|...........|...........|...........|...........|...........|G-610v64...|...........|...........|...........|G-710v64...|...........|...........|...........|...........|...........|...........|...........
|...........|...........|...........|...........|...........|...........|===.....SD1|...........|...........|...........|...........|...........|...........|...........|...........|...........|...........|...........|===.....SD1|...........|...........|...........|...........|...........|...........|...........|...........|...........|...........|...........|...........|...........|...........|===.....SD1|...........|...........|...........|===.....SD1|...........|...........|...........|...........|...........|...........
|...........|...........|...........|...........|...........|...........|F-705v64SD4|...........|...........|...........|...........|...........|...........|...........|...........|...........|...........|...........|F-522v64SD4|...........|...........|...........|...........|...........|...........|...........|...........|...........|...........|...........|...........|...........|...........|F-610v64SD4|...........|...........|...........|F-710v64SD4|...........|...........|...........|...........|...........|...........
|...........|...........|...........|...........|...........|===.....SD5|...........|...........|...........|...........|...........|...........|...........|...........|...........|...........|...........|===.....SD5|...........|...........|...........|...........|...........|...........|...........|...........|...........|...........|...........|...........|...........|...........|===.....SD5|...........|...........|...........|===.....SD5|...........|...........|...........|...........|...........|...........|...........
|...........|...........|...........|...........|...........|...........|...........|...........|...........|...........|...........|...........|...........|...........|...........|...........|...........|...........|...........|...........|...........|...........|...........|...........|...........|...........|...........|...........|...........|...........|...........|...........|...........|...........|...........|...........|...........|...........|...........|...........|...........|...........|...........|...........
|E-403v64SD2|B-403v64SD2|...........|...........|...........|B-705v64SD2|...........|...........|...........|E-406v52SD2|B-406v52SD2|...........|...........|...........|...........|...........|...........|B-522v64SD2|...........|...........|...........|E-408v56SD2|B-408v56SD2|C#401v64SD2|C-302v64SD2|...........|...........|...........|...........|...........|...........|...........|B-610v64SD2|...........|...........|...........|B-710v64SD2|...........|...........|...........|E-411v39SD2|B-411v39SD2|...........|...........
|...........|...........|...........|...........|...........|...........|===.....SD3|...........|...........|...........|...........|...........|...........|...........|...........|...........|...........|...........|===.....SD3|...........|...........|...........|...........|...........|...........|...........|...........|...........|...........|...........|...........|...........|...........|===.....SD3|...........|...........|...........|===.....SD3|...........|...........|...........|...........|...........|...........
|...........|...........|...........|...........|...........|...........|...........|...........|...........|...........|...........|...........|...........|...........|...........|...........|...........|...........|...........|...........|...........|...........|...........|...........|...........|...........|...........|...........|...........|...........|...........|...........|...........|...........|...........|...........|...........|...........|...........|...........|...........|...........|...........|...........
|...........|...........|...........|...........|...........|...........|G-705v64...|...........|...........|...........|...........|...........|...........|...........|...........|...........|...........|...........|G-522v64...|...........|...........|...........|...........|...........|...........|...........|...........|...........|...........|...........|...........|...........|...........|G-610v64...|...........|...........|...........|G-710v64...|...........|...........|...........|...........|...........|...........
|...........|...........|...........|...........|...........|===.....SD1|...........|...........|...........|...........|...........|...........|...........|...........|...........|...........|...........|===.....SD1|...........|...........|...........|...........|...........|...........|...........|...........|...........|...........|...........|...........|...........|...........|===.....SD1|...........|...........|...........|===.....SD1|...........|...........|...........|...........|...........|...........|...........
|...........|...........|...........|...........|...........|E-705v64SD4|...........|...........|...........|...........|...........|...........|...........|...........|...........|...........|...........|E-522v64SD4|...........|...........|...........|...........|...........|...........|...........|...........|...........|...........|...........|...........|...........|...........|E-610v64SD4|...........|...........|...........|E-710v64SD4|...........|...........|...........|...........|...........|...........|...........
|...........|...........|...........|...........|...........|...........|===.....SD5|...........|...........|...........|...........|...........|...........|...........|...........|...........|...........|...........|===.....SD5|...........|...........|...........|...........|...........|...........|...........|...........|...........|...........|...........|...........|...........|...........|===.....SD5|...........|...........|...........|===.....SD5|...........|...........|...........|...........|...........|...........
|...........|...........|...........|...........|...........|...........|...........|...........|...........|...........|...........|...........|...........|...........|...........|...........|...........|...........|...........|...........|...........|...........|...........|...........|...........|...........|...........|...........|...........|...........|...........|...........|...........|...........|...........|...........|...........|...........|...........|...........|...........|...........|...........|...........
|...........|...........|...........|...........|...........|...........|B-705v64SD2|...........|...........|...........|...........|...........|...........|...........|...........|...........|...........|...........|B-522v64SD2|...........|...........|...........|...........|...........|...........|...........|...........|...........|...........|...........|...........|...........|...........|B-610v64SD2|...........|...........|...........|B-710v64SD2|...........|...........|...........|...........|...........|...........
|...........|...........|...........|...........|...........|===.....SD3|...........|...........|...........|...........|...........|...........|...........|...........|...........|...........|...........|===.....SD3|...........|...........|...........|...........|...........|...........|...........|...........|...........|...........|...........|...........|...........|...........|===.....SD3|...........|...........|...........|===.....SD3|...........|...........|...........|...........|...........|...........|...........
|...........|...........|...........|...........|...........|...........|...........|...........|...........|...........|...........|...........|...........|...........|...........|...........|...........|...........|...........|...........|...........|...........|...........|...........|...........|...........|...........|...........|...........|...........|...........|...........|...........|...........|...........|...........|...........|...........|...........|...........|...........|...........|...........|...........
|...........|...........|...........|...........|...........|G-705v64...|...........|...........|...........|...........|...........|...........|...........|...........|...........|...........|...........|G-522v64...|...........|...........|...........|...........|...........|...........|...........|...........|...........|...........|...........|...........|...........|...........|G-610v64...|...........|...........|...........|G-710v64...|...........|...........|...........|...........|...........|...........|...........
|...........|...........|...........|...........|...........|...........|===.....SD1|...........|...........|...........|...........|...........|...........|...........|...........|...........|...........|...........|===.....SD1|...........|...........|...........|...........|...........|...........|...........|...........|...........|...........|...........|...........|...........|...........|===.....SD1|...........|...........|...........|===.....SD1|...........|...........|...........|...........|...........|...........
|...........|...........|...........|...........|...........|...........|E-705v64SD4|...........|...........|...........|...........|...........|...........|...........|...........|...........|...........|...........|E-522v64SD4|...........|...........|...........|...........|...........|...........|...........|...........|...........|...........|...........|...........|...........|...........|E-610v64SD4|...........|...........|...........|E-710v64SD4|...........|...........|...........|...........|...........|...........
|...........|...........|...........|...........|...........|===.....SD5|...........|...........|...........|...........|...........|...........|...........|...........|...........|...........|...........|===.....SD5|...........|...........|...........|...........|...........|...........|...........|...........|...........|...........|...........|...........|...........|...........|===.....SD5|...........|...........|...........|===.....SD5|...........|...........|...........|...........|...........|...........|...........
|...........|...........|...........|...........|...........|...........|...........|...........|...........|...........|...........|...........|...........|...........|...........|...........|...........|...........|...........|...........|...........|...........|...........|...........|...........|...........|...........|...........|...........|...........|...........|...........|...........|...........|...........|...........|...........|...........|...........|...........|...........|...........|...........|...........
|...........|...........|...........|...........|...........|B-705v64SD2|...........|...........|...........|...........|...........|...........|...........|...........|...........|...........|...........|B-522v64SD2|...........|...........|...........|...........|...........|...........|...........|...........|...........|...........|...........|...........|...........|...........|B-610v64SD2|...........|...........|...........|B-710v64SD2|...........|...........|...........|...........|...........|...........|...........
|...........|...........|...........|...........|...........|...........|===.....SD3|...........|...........|...........|...........|...........|...........|...........|...........|...........|...........|...........|===.....SD3|...........|...........|...........|...........|...........|...........|...........|...........|...........|...........|...........|...........|...........|...........|===.....SD3|...........|...........|...........|===.....SD3|...........|...........|...........|...........|...........|...........
|...........|...........|...........|...........|...........|...........|...........|...........|...........|...........|...........|...........|...........|...........|...........|...........|...........|...........|...........|...........|...........|...........|...........|...........|...........|...........|...........|...........|...........|...........|...........|...........|...........|...........|...........|...........|...........|...........|...........|...........|...........|...........|...........|...........
|...........|...........|...........|...........|...........|...........|G-705v64...|...........|...........|...........|...........|...........|...........|...........|...........|...........|...........|...........|G-522v64...|...........|...........|...........|...........|...........|...........|...........|...........|...........|...........|...........|...........|...........|...........|G-610v64...|...........|...........|...........|G-710v64...|...........|...........|...........|...........|...........|...........
|...........|...........|...........|...........|...........|===.....SD1|...........|...........|...........|...........|...........|...........|...........|...........|...........|...........|...........|===.....SD1|...........|...........|...........|...........|...........|...........|...........|...........|...........|...........|...........|...........|...........|...........|===.....SD1|...........|...........|...........|===.....SD1|...........|...........|...........|...........|...........|...........|...........
|...........|...........|...........|...........|...........|E-705v64SD4|...........|...........|...........|...........|...........|...........|...........|...........|...........|...........|...........|E-522v64SD4|...........|...........|...........|...........|...........|...........|...........|...........|...........|...........|...........|...........|...........|...........|E-610v64SD4|...........|...........|...........|E-710v64SD4|...........|...........|...........|...........|...........|...........|...........
|...........|...........|...........|...........|...........|...........|===.....SD5|...........|...........|...........|...........|...........|...........|...........|...........|...........|...........|...........|===.....SD5|...........|...........|...........|...........|...........|...........|...........|...........|...........|...........|...........|...........|...........|...........|===.....SD5|...........|...........|...........|===.....SD5|...........|...........|...........|...........|...........|...........
|...........|...........|...........|...........|...........|...........|...........|...........|...........|...........|...........|...........|...........|...........|...........|...........|...........|...........|...........|...........|...........|...........|...........|...........|...........|...........|...........|...........|...........|...........|...........|...........|...........|...........|...........|...........|...........|...........|...........|...........|...........|...........|...........|...........
|...........|...........|...........|...........|...........|...........|B-705v64SD2|...........|...........|...........|...........|...........|...........|...........|...........|...........|...........|...........|B-522v64SD2|...........|...........|...........|...........|...........|...........|...........|...........|...........|...........|...........|...........|...........|...........|B-610v64SD2|...........|...........|...........|B-710v64SD2|...........|...........|...........|...........|...........|...........
|...........|...........|...........|...........|...........|===.....SD3|...........|...........|...........|...........|...........|...........|...........|...........|...........|...........|...........|===.....SD3|...........|...........|...........|...........|...........|...........|...........|...........|...........|...........|...........|...........|...........|...........|===.....SD3|...........|...........|...........|===.....SD3|...........|...........|...........|...........|...........|...........|...........
|...........|...........|...........|...........|...........|...........|...........|...........|...........|...........|...........|...........|...........|...........|...........|...........|...........|...........|...........|...........|...........|...........|...........|...........|...........|...........|...........|...........|...........|...........|...........|...........|...........|...........|...........|...........|...........|...........|...........|...........|...........|...........|...........|...........
|...........|...........|...........|...........|...........|G-705v64...|...........|...........|...........|...........|...........|...........|...........|...........|...........|...........|...........|G-522v64...|...........|...........|...........|...........|...........|...........|...........|...........|...........|...........|...........|...........|...........|...........|G-610v64...|...........|...........|...........|G-710v64...|...........|...........|...........|...........|...........|...........|...........
|...........|...........|...........|...........|...........|...........|===.....SD1|...........|...........|...........|...........|...........|...........|...........|...........|...........|...........|...........|===.....SD1|...........|...........|...........|...........|...........|...........|...........|...........|...........|...........|...........|...........|...........|...........|===.....SD1|...........|...........|...........|===.....SD1|...........|...........|...........|...........|...........|...........
|...........|...........|...........|...........|...........|...........|E-705v64SD4|...........|...........|...........|...........|...........|...........|...........|...........|...........|...........|...........|E-522v64SD4|...........|...........|...........|...........|...........|...........|...........|...........|...........|...........|...........|...........|...........|...........|E-610v64SD4|...........|...........|...........|E-710v64SD4|...........|...........|...........|...........|...........|...........
|...........|...........|...........|...........|...........|===.....SD5|...........|...........|...........|...........|...........|...........|...........|...........|...........|...........|...........|===.....SD5|...........|...........|...........|...........|...........|...........|...........|...........|...........|...........|...........|...........|...........|...........|===.....SD5|...........|...........|...........|===.....SD5|...........|...........|...........|...........|...........|...........|...........
|...........|...........|...........|...........|...........|...........|...........|...........|...........|...........|...........|...........|...........|...........|...........|...........|...........|...........|...........|...........|...........|...........|...........|...........|...........|...........|...........|...........|...........|...........|...........|...........|...........|...........|...........|...........|...........|...........|...........|...........|...........|...........|...........|...........
|E-403v64SD2|B-403v64SD2|...........|...........|...........|B-705v64SD2|...........|...........|...........|...........|...........|...........|...........|...........|...........|...........|...........|B-522v64SD2|...........|...........|...........|...........|...........|C#401v64SD2|C-302v64SD2|...........|...........|...........|...........|...........|...........|...........|B-610v64SD2|...........|...........|...........|B-710v64SD2|...........|...........|...........|...........|...........|...........|...........
|...........|...........|...........|...........|...........|...........|===.....SD3|...........|...........|...........|...........|...........|...........|...........|...........|...........|...........|...........|===.....SD3|...........|...........|...........|...........|...........|...........|...........|...........|...........|...........|...........|...........|...........|...........|===.....SD3|...........|...........|...........|===.....SD3|...........|...........|...........|...........|...........|...........
|...........|...........|...........|...........|...........|...........|...........|...........|...........|...........|...........|...........|...........|...........|...........|...........|...........|...........|...........|...........|...........|...........|...........|...........|...........|...........|...........|...........|...........|...........|...........|...........|...........|...........|...........|...........|...........|...........|...........|...........|...........|...........|...........|...........
|...........|...........|...........|...........|...........|...........|G-705v64...|...........|...........|...........|...........|...........|...........|...........|...........|...........|...........|...........|G-522v64...|...........|...........|...........|...........|...........|...........|...........|...........|...........|...........|...........|...........|...........|...........|G-610v64...|...........|...........|...........|G-710v64...|...........|...........|...........|...........|...........|...........
|...........|...........|...........|...........|...........|===.....SD1|...........|...........|...........|...........|...........|...........|...........|...........|...........|...........|...........|===.....SD1|...........|...........|...........|...........|...........|...........|...........|...........|...........|...........|...........|...........|...........|...........|===.....SD1|...........|...........|...........|===.....SD1|...........|...........|...........|...........|...........|...........|...........
|...........|...........|...........|...........|...........|E-705v64SD4|...........|...........|...........|...........|...........|...........|...........|...........|...........|...........|...........|E-522v64SD4|...........|...........|...........|...........|...........|...........|...........|...........|...........|...........|...........|...........|...........|...........|E-610v64SD4|...........|...........|...........|E-710v64SD4|...........|...........|...........|...........|...........|...........|...........
|...........|...........|...........|...........|...........|...........|===.....SD5|...........|...........|...........|...........|...........|...........|...........|...........|...........|...........|...........|===.....SD5|...........|...........|...........|...........|...........|...........|...........|...........|...........|...........|...........|...........|...........|...........|===.....SD5|...........|...........|...........|===.....SD5|...........|...........|...........|...........|...........|...........
|...........|...........|...........|...........|...........|...........|...........|...........|...........|...........|...........|...........|...........|...........|...........|...........|...........|...........|...........|...........|...........|...........|...........|...........|...........|...........|...........|...........|...........|...........|...........|...........|...........|...........|...........|...........|...........|...........|...........|...........|...........|...........|...........|...........
|...........|...........|...........|...........|...........|...........|B-705v64SD2|...........|...........|...........|...........|...........|...........|...........|...........|...........|...........|...........|B-522v64SD2|...........|...........|...........|...........|...........|...........|...........|...........|...........|...........|...........|...........|...........|...........|B-610v64SD2|...........|...........|...........|B-710v64SD2|...........|...........|...........|...........|...........|...........
|...........|...........|...........|...........|...........|===.....SD3|...........|...........|...........|...........|...........|...........|...........|...........|...........|...........|...........|===.....SD3|...........|...........|...........|...........|...........|...........|...........|...........|...........|...........|...........|...........|...........|...........|===.....SD3|...........|...........|...........|===.....SD3|...........|...........|...........|...........|...........|...........|...........
|...........|...........|...........|...........|...........|...........|...........|...........|...........|...........|...........|...........|...........|...........|...........|...........|...........|...........|...........|...........|...........|...........|...........|...........|...........|...........|...........|...........|...........|...........|...........|...........|...........|...........|...........|...........|...........|...........|...........|...........|...........|...........|...........|...........
|...........|...........|...........|...........|...........|G-705v64...|...........|...........|...........|...........|...........|...........|...........|...........|...........|...........|...........|G-522v64...|...........|...........|...........|...........|...........|...........|...........|...........|...........|...........|...........|...........|...........|...........|G-610v64...|...........|...........|...........|G-710v64...|...........|...........|...........|...........|...........|...........|...........
|...........|...........|...........|...........|...........|...........|===.....SD1|...........|...........|...........|...........|...........|...........|...........|...........|...........|...........|...........|===.....SD1|...........|...........|...........|...........|...........|...........|...........|...........|...........|...........|...........|...........|...........|...........|===.....SD1|...........|...........|...........|===.....SD1|...........|...........|...........|...........|...........|...........
|...........|...........|...........|...........|...........|...........|E-705v64SD4|...........|...........|...........|...........|...........|...........|...........|...........|...........|...........|...........|E-522v64SD4|...........|...........|...........|...........|...........|...........|...........|...........|...........|...........|...........|...........|...........|...........|E-610v64SD4|...........|...........|...........|E-710v64SD4|...........|...........|...........|...........|...........|...........
|...........|...........|...........|...........|...........|===.....SD5|...........|...........|...........|...........|...........|...........|...........|...........|...........|...........|...........|===.....SD5|...........|...........|...........|...........|...........|...........|...........|...........|...........|...........|...........|...........|...........|...........|===.....SD5|...........|...........|...........|===.....SD5|...........|...........|...........|...........|...........|...........|...........
|...........|...........|...........|...........|...........|...........|...........|...........|...........|...........|...........|...........|...........|...........|...........|...........|...........|...........|...........|...........|...........|...........|...........|...........|...........|...........|...........|...........|...........|...........|...........|...........|...........|...........|...........|...........|...........|...........|...........|...........|...........|...........|...........|...........
|...........|...........|...........|...........|...........|B-705v64SD2|...........|...........|...........|...........|...........|...........|...........|...........|...........|...........|...........|B-522v64SD2|...........|...........|...........|...........|...........|...........|...........|...........|...........|...........|...........|...........|...........|...........|B-610v64SD2|...........|...........|...........|B-710v64SD2|...........|...........|...........|...........|...........|...........|...........
|...........|...........|...........|...........|...........|...........|===.....SD3|...........|...........|...........|...........|...........|...........|...........|...........|...........|...........|...........|===.....SD3|...........|...........|...........|...........|...........|...........|...........|...........|...........|...........|...........|...........|...........|...........|===.....SD3|...........|...........|...........|===.....SD3|...........|...........|...........|...........|...........|...........
|...........|...........|...........|...........|...........|...........|...........|...........|...........|...........|...........|...........|...........|...........|...........|...........|...........|...........|...........|...........|...........|...........|...........|...........|...........|...........|...........|...........|...........|...........|...........|...........|...........|...........|...........|...........|...........|...........|...........|...........|...........|...........|...........|...........
|...........|...........|...........|...........|...........|...........|G-705v64...|...........|...........|...........|...........|...........|...........|...........|...........|...........|...........|...........|G-522v64...|...........|...........|...........|...........|...........|...........|...........|...........|...........|...........|...........|...........|...........|...........|G-610v64...|...........|...........|...........|G-710v64...|...........|...........|...........|...........|...........|...........
|...........|...........|...........|...........|...........|===.....SD1|...........|...........|...........|...........|...........|...........|...........|...........|...........|...........|...........|===.....SD1|...........|...........|...........|...........|...........|...........|...........|...........|...........|...........|...........|...........|...........|...........|===.....SD1|...........|...........|...........|===.....SD1|...........|...........|...........|...........|...........|...........|...........
|...........|...........|...........|...........|...........|E-705v64SD4|...........|...........|...........|...........|...........|...........|...........|...........|...........|...........|...........|E-522v64SD4|...........|...........|...........|...........|...........|...........|...........|...........|...........|...........|...........|...........|...........|...........|E-610v64SD4|...........|...........|...........|E-710v64SD4|...........|...........|...........|...........|...........|...........|...........
|...........|...........|...........|...........|...........|...........|===.....SD5|...........|...........|...........|...........|...........|...........|...........|...........|...........|...........|...........|===.....SD5|...........|...........|...........|...........|...........|...........|...........|...........|...........|...........|...........|...........|...........|...........|===.....SD5|...........|...........|...........|===.....SD5|...........|...........|...........|...........|...........|...........
|...........|...........|...........|...........|...........|...........|...........|...........|...........|...........|...........|...........|...........|...........|...........|...........|...........|...........|...........|...........|...........|...........|...........|...........|...........|...........|...........|...........|...........|...........|...........|...........|...........|...........|...........|...........|...........|...........|...........|...........|...........|...........|...........|...........

!octaves=1+1+1+1
|E-403v64SD2|===........|...........|...........|...........|...........|B-705v64SD2|...........|...........|E-406v52SD2|===........|...........|...........|...........|...........|...........|...........|...........|B-522v64SD2|...........|...........|E-408v56SD2|===........|...........|...........|...........|...........|...........|...........|...........|...........|...........|...........|B-610v64SD2|...........|...........|...........|B-710v64SD2|...........|...........|E-411v39SD2|===........|...........|...........
|...........|...........|...........|...........|...........|===.....SD3|...........|...........|...........|...........|...........|...........|...........|...........|...........|...........|...........|===.....SD3|...........|...........|...........|...........|...........|...........|...........|...........|...........|...........|...........|...........|...........|...........|===.....SD3|...........|...........|...........|===.....SD3|...........|...........|...........|...........|...........|...........|...........
|B-403v64SD2|...........|...........|...........|...........|...........|...........|...........|...........|B-406v52SD2|...........|...........|...........|...........|...........|...........|...........|...........|...........|...........|...........|B-408v56SD2|...........|...........|...........|...........|...........|...........|...........|...........|...........|...........|...........|...........|...........|...........|...........|...........|...........|...........|B-411v39SD2|...........|...........|...........
|...........|...........|...........|...........|...........|G-705v64...|...........|...........|...........|...........|...........|...........|...........|...........|...........|...........|...........|G-522v64...|...........|...........|...........|...........|...........|...........|...........|...........|...........|...........|...........|...........|...........|...........|G-610v64...|...........|...........|...........|G-710v64...|...........|...........|...........|...........|...........|...........|...........
|D-403v64SD2|...........|...........|...........|...........|...........|===.....SD1|...........|...........|D-406v52SD2|...........|...........|...........|...........|...........|...........|...........|...........|===.....SD1|...........|...........|D-408v56SD2|...........|...........|...........|...........|...........|...........|...........|...........|...........|...........|...........|===.....SD1|...........|...........|...........|===.....SD1|...........|...........|D-411v39SD2|...........|...........|...........
|...........|...........|...........|...........|...........|...........|E-705v64SD4|...........|...........|...........|...........|...........|...........|...........|...........|...........|...........|...........|E-522v64SD4|...........|...........|...........|...........|...........|...........|...........|...........|...........|...........|...........|...........|...........|...........|E-610v64SD4|...........|...........|...........|E-710v64SD4|...........|...........|...........|...........|...........|...........
|A-403v64SD2|...........|...........|...........|...........|===.....SD5|...........|...........|...........|A-406v52SD2|...........|...........|...........|...........|...........|...........|...........|===.....SD5|...........|...........|...........|A-408v56SD2|...........|...........|...........|...........|...........|...........|...........|...........|...........|...........|===.....SD5|...........|...........|...........|===.....SD5|...........|...........|...........|A-411v39SD2|...........|...........|...........
|...........|...........|...........|...........|...........|...........|...........|...........|...........|...........|...........|...........|...........|...........|...........|...........|...........|...........|...........|...........|...........|...........|...........|...........|...........|...........|...........|...........|...........|...........|...........|...........|...........|...........|...........|...........|...........|...........|...........|...........|...........|...........|...........|...........
|C-403v64SD2|...........|...........|...........|...........|B-705v64SD2|...........|...........|...........|C-406v52SD2|...........|...........|...........|...........|...........|...........|...........|B-522v64SD2|...........|...........|...........|C-408v56SD2|...........|C#401v64SD2|C-302v64SD2|...........|...........|...........|...........|...........|...........|...........|B-610v64SD2|...........|...........|...........|B-710v64SD2|...........|...........|...........|C-411v39SD2|...........|...........|........T98
|...........|...........|...........|...........|...........|...........|===.....SD3|...........|...........|...........|...........|...........|...........|...........|...........|...........|...........|...........|===.....SD3|...........|...........|...........|...........|...........|...........|...........|...........|...........|...........|...........|...........|...........|...........|===.....SD3|...........|...........|...........|===.....SD3|...........|...........|...........|...........|...........|...........
|...........|...........|...........|...........|...........|...........|...........|...........|...........|...........|...........|...........|...........|...........|...........|...........|...........|...........|...........|...........|...........|...........|...........|...........|...........|...........|...........|...........|...........|...........|...........|...........|...........|...........|...........|...........|...........|...........|...........|...........|...........|...........|...........|...........
|...........|...........|...........|...........|...........|...........|G-705v64...|...........|...........|...........|...........|...........|...........|...........|...........|...........|...........|...........|G-522v64...|...........|...........|...........|...........|...........|...........|...........|...........|...........|...........|...........|...........|...........|...........|G-610v64...|...........|...........|...........|G-710v64...|...........|...........|...........|...........|...........|...........
|G-403v64SD2|...........|...........|...........|...........|===.....SD1|...........|...........|...........|G-406v52SD2|...........|...........|...........|...........|...........|...........|...........|===.....SD1|...........|...........|...........|G-408v56SD2|...........|...........|...........|...........|...........|...........|...........|...........|...........|...........|===.....SD1|...........|...........|...........|===.....SD1|...........|...........|...........|G-411v39SD2|...........|...........|...........
|...........|...........|...........|...........|...........|E-705v64SD4|...........|...........|...........|...........|...........|...........|...........|...........|...........|...........|...........|E-522v64SD4|...........|...........|...........|...........|...........|...........|...........|...........|...........|...........|...........|...........|...........|...........|E-610v64SD4|...........|...........|...........|E-710v64SD4|...........|...........|...........|...........|...........|...........|...........
|...........|...........|...........|...........|...........|...........|===.....SD5|...........|...........|...........|...........|...........|...........|...........|...........|...........|...........|...........|===.....SD5|...........|...........|...........|...........|...........|...........|...........|...........|...........|...........|...........|...........|...........|...........|===.....SD5|...........|...........|...........|===.....SD5|...........|...........|...........|...........|...........|...........
|...........|...........|...........|...........|...........|...........|...........|...........|...........|...........|...........|...........|...........|...........|...........|...........|...........|...........|...........|...........|...........|...........|...........|...........|...........|...........|...........|...........|...........|...........|...........|...........|...........|...........|...........|...........|...........|...........|...........|...........|...........|...........|...........|...........
|C-403v64SD2|...........|...........|...........|...........|...........|B-705v64SD2|...........|...........|C-406v52SD2|...........|...........|...........|...........|...........|...........|...........|...........|B-522v64SD2|...........|...........|C-408v56SD2|...........|...........|...........|...........|...........|...........|...........|...........|...........|...........|...........|B-610v64SD2|...........|...........|...........|B-710v64SD2|...........|...........|C-411v39SD2|...........|...........|...........
|...........|...........|...........|...........|...........|===.....SD3|...........|...........|...........|...........|...........|...........|...........|...........|...........|...........|...........|===.....SD3|...........|...........|...........|...........|...........|...........|...........|...........|...........|...........|...........|...........|...........|...........|===.....SD3|...........|...........|...........|===.....SD3|...........|...........|...........|...........|...........|...........|...........
|...........|...........|...........|...........|...........|...........|...........|...........|...........|...........|...........|...........|...........|...........|...........|...........|...........|...........|...........|...........|...........|...........|...........|...........|...........|...........|...........|...........|...........|...........|...........|...........|...........|...........|...........|...........|...........|...........|...........|...........|...........|...........|...........|...........
|...........|...........|...........|...........|...........|G-705v64...|...........|...........|...........|...........|...........|...........|...........|...........|...........|...........|...........|G-522v64...|...........|...........|...........|...........|...........|...........|...........|...........|...........|...........|...........|...........|...........|...........|G-610v64...|...........|...........|...........|G-710v64...|...........|...........|...........|...........|...........|...........|...........
|G-403v64SD2|...........|...........|...........|...........|...........|===.....SD1|...........|...........|G-406v52SD2|...........|...........|...........|...........|...........|...........|...........|...........|===.....SD1|...........|...........|G-408v56SD2|...........|F#312v17SD2|C-302v17SD2|...........|...........|...........|...........|...........|...........|...........|...........|===.....SD1|...........|...........|...........|===.....SD1|...........|...........|G-411v39SD2|...........|...........|...........
|...........|...........|...........|...........|...........|...........|E-705v64SD4|...........|...........|...........|...........|...........|...........|...........|...........|...........|...........|...........|E-522v64SD4|...........|...........|...........|...........|...........|...........|...........|...........|...........|...........|...........|...........|...........|...........|E-610v64SD4|...........|...........|...........|E-710v64SD4|...........|...........|...........|...........|...........|...........
|...........|...........|...........|...........|...........|===.....SD5|...........|...........|...........|...........|...........|...........|...........|...........|...........|...........|...........|===.....SD5|...........|...........|...........|...........|...........|F#312v28SD2|C-302v28SD2|...........|...........|...........|...........|...........|...........|...........|===.....SD5|...........|...........|...........|===.....SD5|...........|...........|...........|...........|...........|...........|...........
|...........|...........|...........|...........|...........|...........|...........|...........|...........|...........|...........|...........|...........|...........|...........|...........|...........|...........|...........|...........|...........|...........|...........|...........|...........|...........|...........|...........|...........|...........|...........|...........|...........|...........|...........|...........|...........|...........|...........|...........|...........|...........|...........|...........
|D-403v64SD2|...........|...........|...........|...........|A-705v64SD2|...........|...........|...........|D-406v52SD2|...........|...........|...........|...........|...........|...........|...........|A-522v64SD2|...........|...........|...........|D-408v56SD2|...........|C#401v64SD2|C-302v64SD2|...........|...........|...........|...........|...........|...........|...........|A-610v64SD2|...........|...........|...........|A-710v64SD2|...........|...........|...........|D-411v39SD2|...........|...........|...........


ModPlug Tracker MPT
|...........|...........|...........|...........|...........|...........|===.....SD3|...........|...........|...........|...........|...........|...........|...........|...........|...........|...........|...........|===.....SD3|...........|...........|...........|...........|...........|...........|...........|...........|...........|...........|...........|...........|...........|...........|===.....SD3|...........|...........|...........|===.....SD3|...........|...........|...........|...........|...........|...........
|...........|...........|...........|...........|...........|...........|...........|...........|...........|...........|...........|...........|...........|...........|...........|...........|...........|...........|...........|...........|...........|...........|...........|...........|...........|...........|...........|...........|...........|...........|...........|...........|...........|...........|...........|...........|...........|...........|...........|...........|...........|...........|...........|...........
|...........|...........|...........|...........|...........|...........|F#705v64...|...........|...........|...........|...........|...........|...........|...........|...........|...........|...........|...........|F#522v64...|...........|...........|...........|...........|...........|...........|...........|...........|...........|...........|...........|...........|...........|...........|F#610v64...|...........|...........|...........|F#710v64...|...........|...........|...........|...........|...........|...........
|A-403v64SD2|...........|...........|...........|...........|===.....SD1|...........|...........|...........|A-406v52SD2|...........|...........|...........|...........|...........|...........|...........|===.....SD1|...........|...........|...........|A-408v56SD2|...........|...........|...........|...........|...........|...........|...........|...........|...........|...........|===.....SD1|...........|...........|...........|===.....SD1|...........|...........|...........|A-411v39SD2|...........|...........|...........
|...........|...........|...........|...........|...........|D-705v64SD4|...........|...........|...........|...........|...........|...........|...........|...........|...........|...........|...........|D-522v64SD4|...........|...........|...........|...........|...........|...........|...........|...........|...........|...........|...........|...........|...........|...........|D-610v64SD4|...........|...........|...........|D-710v64SD4|...........|...........|...........|...........|...........|...........|...........
|...........|...........|...........|...........|...........|...........|===.....SD5|...........|...........|...........|...........|...........|...........|...........|...........|...........|...........|...........|===.....SD5|...........|...........|...........|...........|...........|...........|...........|...........|...........|...........|...........|...........|...........|...........|===.....SD5|...........|...........|...........|===.....SD5|...........|...........|...........|...........|...........|...........
|...........|...........|...........|...........|...........|...........|...........|...........|...........|...........|...........|...........|...........|...........|...........|...........|...........|...........|...........|...........|...........|...........|...........|...........|...........|...........|...........|...........|...........|...........|...........|...........|...........|...........|...........|...........|...........|...........|...........|...........|...........|...........|...........|...........
|D-403v64SD2|...........|...........|...........|...........|...........|A-705v64SD2|...........|...........|D-406v52SD2|...........|...........|...........|...........|...........|...........|...........|...........|A-522v64SD2|...........|...........|D-408v56SD2|...........|...........|...........|...........|...........|...........|...........|...........|...........|...........|...........|A-610v64SD2|...........|...........|...........|A-710v64SD2|...........|...........|D-411v39SD2|...........|...........|...........
|...........|...........|...........|...........|...........|===.....SD3|...........|...........|...........|...........|...........|...........|...........|...........|...........|...........|...........|===.....SD3|...........|...........|...........|...........|...........|...........|...........|...........|...........|...........|...........|...........|...........|...........|===.....SD3|...........|...........|...........|===.....SD3|...........|...........|...........|...........|...........|...........|...........
|...........|...........|...........|...........|...........|...........|...........|...........|...........|...........|...........|...........|...........|...........|...........|...........|...........|...........|...........|...........|...........|...........|...........|...........|...........|...........|...........|...........|...........|...........|...........|...........|...........|...........|...........|...........|...........|...........|...........|...........|...........|...........|...........|...........
|...........|...........|...........|...........|...........|F#705v64...|...........|...........|...........|...........|...........|...........|...........|...........|...........|...........|...........|F#522v64...|...........|...........|...........|...........|...........|...........|...........|...........|...........|...........|...........|...........|...........|...........|F#610v64...|...........|...........|...........|F#710v64...|...........|...........|...........|...........|...........|...........|...........
|A-403v64SD2|...........|...........|...........|...........|...........|===.....SD1|...........|...........|A-406v52SD2|...........|...........|...........|...........|...........|...........|...........|...........|===.....SD1|...........|...........|A-408v56SD2|...........|...........|...........|...........|...........|...........|...........|...........|...........|...........|...........|===.....SD1|...........|...........|...........|===.....SD1|...........|...........|A-411v39SD2|...........|...........|...........
|...........|...........|...........|...........|...........|...........|D-705v64SD4|...........|...........|...........|...........|...........|...........|...........|...........|...........|...........|...........|D-522v64SD4|...........|...........|...........|...........|...........|...........|...........|...........|...........|...........|...........|...........|...........|...........|D-610v64SD4|...........|...........|...........|D-710v64SD4|...........|...........|...........|...........|...........|...........
|...........|...........|...........|...........|...........|===.....SD5|...........|...........|...........|...........|...........|...........|...........|...........|...........|...........|...........|===.....SD5|...........|...........|...........|...........|...........|...........|...........|...........|...........|...........|...........|...........|...........|...........|===.....SD5|...........|...........|...........|===.....SD5|...........|...........|...........|...........|...........|...........|...........
|...........|...........|...........|...........|...........|...........|...........|...........|...........|...........|...........|...........|...........|...........|...........|...........|...........|...........|...........|...........|...........|...........|...........|...........|...........|...........|...........|...........|...........|...........|...........|...........|...........|...........|...........|...........|...........|...........|...........|...........|...........|...........|...........|...........
|E-403v64SD2|...........|...........|...........|...........|G-705v64SD2|...........|...........|...........|E-406v52SD2|...........|...........|...........|...........|...........|...........|...........|G-522v64SD2|...........|...........|...........|E-408v56SD2|...........|C#401v64SD2|C-302v64SD2|...........|...........|...........|...........|...........|...........|...........|G-610v64SD2|...........|...........|...........|G-710v64SD2|...........|...........|...........|E-411v39SD2|...........|...........|...........
|...........|...........|...........|...........|...........|...........|===.....SD3|...........|...........|...........|...........|...........|...........|...........|...........|...........|...........|...........|===.....SD3|...........|...........|...........|...........|...........|...........|...........|...........|...........|...........|...........|...........|...........|...........|===.....SD3|...........|...........|...........|===.....SD3|...........|...........|...........|...........|...........|...........
|...........|...........|...........|...........|...........|...........|...........|...........|...........|...........|...........|...........|...........|...........|...........|...........|...........|...........|...........|...........|...........|...........|...........|...........|...........|...........|...........|...........|...........|...........|...........|...........|...........|...........|...........|...........|...........|...........|...........|...........|...........|...........|...........|...........
|...........|...........|...........|...........|...........|...........|E-705v64...|...........|...........|...........|...........|...........|...........|...........|...........|...........|...........|...........|E-522v64...|...........|...........|...........|...........|...........|...........|...........|...........|...........|...........|...........|...........|...........|...........|E-610v64...|...........|...........|...........|E-710v64...|...........|...........|...........|...........|...........|...........
|B-403v64SD2|...........|...........|...........|...........|===.....SD1|...........|...........|...........|B-406v52SD2|...........|...........|...........|...........|...........|...........|...........|===.....SD1|...........|...........|...........|B-408v56SD2|...........|...........|...........|...........|...........|...........|...........|...........|...........|...........|===.....SD1|...........|...........|...........|===.....SD1|...........|...........|...........|B-411v39SD2|...........|...........|...........
|...........|...........|...........|...........|...........|B-605v64SD4|...........|...........|...........|...........|...........|...........|...........|...........|...........|...........|...........|B-422v64SD4|...........|...........|...........|...........|...........|...........|...........|...........|...........|...........|...........|...........|...........|...........|B-510v64SD4|...........|...........|...........|B-610v64SD4|...........|...........|...........|...........|...........|...........|...........
|...........|...........|...........|...........|...........|...........|===.....SD5|...........|...........|...........|...........|...........|...........|...........|...........|...........|...........|...........|===.....SD5|...........|...........|...........|...........|...........|...........|...........|...........|...........|...........|...........|...........|...........|...........|===.....SD5|...........|...........|...........|===.....SD5|...........|...........|...........|...........|...........|...........
|...........|...........|...........|...........|...........|...........|...........|...........|...........|...........|...........|...........|...........|...........|...........|...........|...........|...........|...........|...........|...........|...........|...........|...........|...........|...........|...........|...........|...........|...........|...........|...........|...........|...........|...........|...........|...........|...........|...........|...........|...........|...........|...........|...........
|E-403v64SD2|...........|...........|...........|...........|...........|F#705v64SD2|...........|...........|E-406v52SD2|...........|...........|...........|...........|...........|...........|...........|...........|F#522v64SD2|...........|...........|E-408v56SD2|...........|...........|...........|...........|...........|...........|...........|...........|...........|...........|...........|F#610v64SD2|...........|...........|...........|F#710v64SD2|...........|...........|E-411v39SD2|...........|...........|...........
|...........|...........|...........|...........|...........|===.....SD3|...........|...........|...........|...........|...........|...........|...........|...........|...........|...........|...........|===.....SD3|...........|...........|...........|...........|...........|...........|...........|...........|...........|...........|...........|...........|...........|...........|===.....SD3|...........|...........|...........|===.....SD3|...........|...........|...........|...........|...........|...........|...........
|...........|...........|...........|...........|...........|...........|...........|...........|...........|...........|...........|...........|...........|...........|...........|...........|...........|...........|...........|...........|...........|...........|...........|...........|...........|...........|...........|...........|...........|...........|...........|...........|...........|...........|...........|...........|...........|...........|...........|...........|...........|...........|...........|...........
|...........|...........|...........|...........|...........|G-705v64...|...........|...........|...........|...........|...........|...........|...........|...........|...........|...........|...........|G-522v64...|...........|...........|...........|...........|...........|...........|...........|...........|...........|...........|...........|...........|...........|...........|G-610v64...|...........|...........|...........|G-710v64...|...........|...........|...........|...........|...........|...........|...........
|B-403v64SD2|...........|...........|...........|...........|...........|===.....SD1|...........|...........|B-406v52SD2|...........|...........|...........|...........|...........|...........|...........|...........|===.....SD1|...........|...........|B-408v56SD2|...........|F#312v17SD2|C-302v17SD2|...........|...........|...........|...........|...........|...........|...........|...........|===.....SD1|...........|...........|...........|===.....SD1|...........|...........|B-411v39SD2|...........|...........|...........
|...........|...........|...........|...........|...........|...........|A-705v64SD4|...........|...........|...........|...........|...........|...........|...........|...........|...........|...........|...........|A-522v64SD4|...........|...........|...........|...........|...........|...........|...........|...........|...........|...........|...........|...........|...........|...........|A-610v64SD4|...........|...........|...........|A-710v64SD4|...........|...........|...........|...........|...........|...........
|...........|...........|...........|...........|...........|===.....SD5|...........|...........|...........|...........|...........|...........|...........|...........|...........|...........|...........|===.....SD5|...........|...........|...........|...........|...........|F#312v28SD2|C-302v28SD2|...........|...........|...........|...........|...........|...........|...........|===.....SD5|...........|...........|...........|===.....SD5|...........|...........|...........|...........|...........|...........|...........
|...........|...........|...........|...........|...........|...........|...........|...........|...........|...........|...........|...........|...........|...........|...........|...........|...........|...........|...........|...........|...........|...........|...........|...........|...........|...........|...........|...........|...........|...........|...........|...........|...........|...........|...........|...........|...........|...........|...........|...........|...........|...........|...........|...........
|E-403v64SD2|...........|...........|...........|...........|B-605v38SD2|...........|E-705v64SD2|...........|E-406v52SD2|...........|...........|...........|...........|...........|...........|...........|B-422v34SD2|...........|E-522v64SD2|...........|E-408v56SD2|...........|C#401v64SD2|C-302v64SD2|...........|...........|...........|...........|...........|...........|...........|B-510v30SD2|...........|E-610v64SD2|...........|B-610v30SD2|...........|E-710v64SD2|...........|E-411v39SD2|...........|...........|...........
|...........|...........|...........|...........|...........|...........|===.....SD3|...........|...........|...........|...........|...........|...........|...........|...........|...........|...........|...........|===.....SD3|...........|...........|...........|...........|...........|...........|...........|...........|...........|...........|...........|...........|...........|...........|===.....SD3|...........|...........|...........|===.....SD3|...........|...........|...........|...........|...........|...........
|...........|...........|...........|...........|...........|...........|...........|...........|...........|...........|...........|...........|...........|...........|...........|...........|...........|...........|...........|...........|...........|...........|...........|...........|...........|...........|...........|...........|...........|...........|...........|...........|...........|...........|...........|...........|...........|...........|...........|...........|...........|...........|...........|...........
|...........|...........|...........|...........|...........|...........|...........|...........|...........|...........|...........|...........|...........|...........|...........|...........|...........|...........|...........|...........|...........|...........|...........|...........|...........|...........|...........|...........|...........|...........|...........|...........|...........|...........|...........|...........|...........|...........|...........|...........|...........|...........|...........|...........
|B-403v64SD2|...........|...........|...........|...........|...........|...........|...........|...........|B-406v52SD2|...........|...........|...........|...........|...........|...........|...........|...........|...........|...........|...........|B-408v56SD2|...........|...........|...........|...........|...........|...........|...........|...........|...........|...........|...........|...........|...........|...........|...........|...........|...........|...........|B-411v39SD2|...........|...........|...........
|...........|...........|...........|...........|...........|...........|...........|...........|...........|...........|...........|...........|...........|...........|...........|...........|...........|...........|...........|...........|...........|...........|...........|...........|...........|...........|...........|...........|...........|...........|...........|...........|...........|...........|...........|...........|...........|...........|...........|...........|...........|...........|...........|...........
|...........|...........|...........|...........|...........|...........|...........|...........|...........|...........|...........|...........|...........|...........|...........|...........|...........|...........|...........|...........|...........|...........|...........|...........|...........|...........|...........|...........|...........|...........|...........|...........|...........|...........|...........|...........|...........|...........|...........|...........|...........|...........|...........|...........
|...........|...........|...........|...........|...........|...........|...........|...........|...........|...........|...........|...........|...........|...........|...........|...........|...........|...........|...........|...........|...........|...........|...........|...........|...........|...........|...........|...........|...........|...........|...........|...........|...........|...........|...........|...........|...........|...........|...........|...........|...........|...........|...........|...........
|D-403v64SD2|...........|...........|...........|...........|...........|...........|...........|...........|D-406v52SD2|...........|...........|...........|...........|...........|...........|...........|...........|...........|...........|...........|D-408v56SD2|...........|...........|...........|...........|...........|...........|...........|...........|...........|...........|...........|...........|...........|...........|...........|...........|...........|...........|D-411v39SD2|...........|...........|...........
|...........|...........|...........|...........|...........|...........|...........|...........|...........|...........|...........|...........|...........|...........|...........|...........|...........|...........|...........|...........|...........|...........|...........|...........|...........|...........|...........|...........|...........|...........|...........|...........|...........|...........|...........|...........|...........|...........|...........|...........|...........|...........|...........|...........
|...........|...........|...........|...........|...........|...........|...........|...........|...........|...........|...........|...........|...........|...........|...........|...........|...........|...........|...........|...........|...........|...........|...........|...........|...........|...........|...........|...........|...........|...........|...........|...........|...........|...........|...........|...........|...........|...........|...........|...........|...........|...........|...........|...........
|...........|...........|...........|...........|...........|===.....SD4|...........|===.....SD4|...........|...........|...........|...........|...........|...........|...........|...........|...........|===.....SD4|...........|===.....SD4|...........|...........|...........|...........|...........|...........|...........|...........|...........|...........|...........|...........|===.....SD4|...........|===.....SD4|...........|===.....SD4|...........|===.....SD4|...........|...........|...........|...........|...........
|A-403v64SD2|...........|...........|...........|...........|B-605v64SD2|...........|...........|...........|A-406v52SD2|...........|...........|...........|...........|...........|...........|...........|B-422v64SD2|...........|...........|...........|A-408v56SD2|...........|...........|...........|...........|...........|...........|...........|...........|...........|...........|B-510v64SD2|...........|...........|...........|B-610v64SD2|...........|...........|...........|A-411v39SD2|...........|...........|...........
|...........|...........|...........|...........|...........|...........|...........|...........|...........|...........|...........|...........|...........|...........|...........|...........|...........|...........|...........|...........|...........|...........|...........|...........|...........|...........|...........|...........|...........|...........|...........|...........|...........|...........|...........|...........|...........|...........|...........|...........|...........|...........|...........|...........
|...........|...........|...........|...........|...........|D-705v64SD2|...........|...........|...........|...........|...........|...........|...........|...........|...........|...........|...........|D-522v64SD2|...........|...........|...........|...........|...........|...........|...........|...........|...........|...........|...........|...........|...........|...........|D-610v64SD2|...........|...........|...........|D-710v64SD2|...........|...........|...........|...........|...........|...........|...........
|...........|...........|...........|...........|...........|...........|...........|...........|...........|...........|...........|...........|...........|...........|...........|...........|...........|...........|...........|...........|...........|...........|...........|...........|...........|...........|...........|...........|...........|...........|...........|...........|...........|...........|...........|...........|...........|...........|...........|...........|...........|...........|...........|...........
|C-403v64SD2|...........|...........|...........|...........|E-705v64SD2|...........|...........|...........|C-406v52SD2|...........|...........|...........|...........|...........|...........|...........|E-522v64SD2|...........|...........|...........|C-408v56SD2|...........|C#401v64SD2|C-302v64SD2|...........|...........|...........|...........|...........|...........|...........|E-610v64SD2|...........|...........|...........|E-710v64SD2|...........|...........|...........|C-411v39SD2|...........|...........|...........
|...........|...........|...........|...........|...........|...........|...........|...........|...........|...........|...........|...........|...........|...........|...........|...........|...........|...........|...........|...........|...........|...........|...........|...........|...........|...........|...........|...........|...........|...........|...........|...........|...........|...........|...........|...........|...........|...........|...........|...........|...........|...........|...........|...........
|...........|...........|...........|...........|...........|...........|...........|...........|...........|...........|...........|...........|...........|...........|...........|...........|...........|...........|...........|...........|...........|...........|...........|...........|...........|...........|...........|...........|...........|...........|...........|...........|...........|...........|...........|...........|...........|...........|...........|...........|...........|...........|...........|...........
|...........|...........|...........|...........|...........|...........|B-605v64...|...........|...........|...........|...........|...........|...........|...........|...........|...........|...........|...........|B-422v64...|...........|...........|...........|...........|...........|...........|...........|...........|...........|...........|...........|...........|...........|...........|B-510v64...|...........|...........|...........|B-610v64...|...........|...........|...........|...........|...........|...........
|G-403v64SD2|...........|...........|...........|...........|===.....SD1|...........|...........|...........|G-406v52SD2|...........|...........|...........|...........|...........|...........|...........|===.....SD1|...........|...........|...........|G-408v56SD2|...........|...........|...........|...........|...........|...........|...........|...........|...........|...........|===.....SD1|...........|...........|...........|===.....SD1|...........|...........|...........|G-411v39SD2|...........|...........|...........
|...........|...........|...........|...........|...........|G-605v64SD4|...........|...........|...........|...........|...........|...........|...........|...........|...........|...........|...........|G-422v64SD4|...........|...........|...........|...........|...........|...........|...........|...........|...........|...........|...........|...........|...........|...........|G-510v64SD4|...........|...........|...........|G-610v64SD4|...........|...........|...........|...........|...........|...........|...........
|...........|...........|...........|...........|...........|...........|===.....SD5|...........|...........|...........|...........|...........|...........|...........|...........|...........|...........|...........|===.....SD5|...........|...........|...........|...........|...........|...........|...........|...........|...........|...........|...........|...........|...........|...........|===.....SD5|...........|...........|...........|===.....SD5|...........|...........|...........|...........|...........|...........
|...........|...........|...........|...........|...........|...........|...........|...........|...........|...........|...........|...........|...........|...........|...........|...........|...........|...........|...........|...........|...........|...........|...........|...........|...........|...........|...........|...........|...........|...........|...........|...........|...........|...........|...........|...........|...........|...........|...........|...........|...........|...........|...........|...........
|C-403v64SD2|...........|...........|...........|...........|...........|E-705v64SD2|...........|...........|C-406v52SD2|...........|...........|...........|...........|...........|...........|...........|...........|E-522v64SD2|...........|...........|C-408v56SD2|...........|...........|...........|...........|...........|...........|...........|...........|...........|...........|...........|E-610v64SD2|...........|...........|...........|E-710v64SD2|...........|...........|C-411v39SD2|...........|...........|...........
|...........|...........|...........|...........|...........|===.....SD3|...........|...........|...........|...........|...........|...........|...........|...........|...........|...........|...........|===.....SD3|...........|...........|...........|...........|...........|...........|...........|...........|...........|...........|...........|...........|...........|...........|===.....SD3|...........|...........|...........|===.....SD3|...........|...........|...........|...........|...........|...........|...........
|...........|...........|...........|...........|...........|...........|...........|...........|...........|...........|...........|...........|...........|...........|...........|...........|...........|...........|...........|...........|...........|...........|...........|...........|...........|...........|...........|...........|...........|...........|...........|...........|...........|...........|...........|...........|...........|...........|...........|...........|...........|...........|...........|...........
|...........|...........|...........|...........|...........|B-605v64...|...........|...........|...........|...........|...........|...........|...........|...........|...........|...........|...........|B-422v64...|...........|...........|...........|...........|...........|...........|...........|...........|...........|...........|...........|...........|...........|...........|B-510v64...|...........|...........|...........|B-610v64...|...........|...........|...........|...........|...........|...........|...........
|G-403v64SD2|...........|...........|...........|...........|...........|===.....SD1|...........|...........|G-406v52SD2|...........|...........|...........|...........|...........|...........|...........|...........|===.....SD1|...........|...........|G-408v56SD2|...........|F#312v17SD2|C-302v17SD2|...........|...........|...........|...........|...........|...........|...........|...........|===.....SD1|...........|...........|...........|===.....SD1|...........|...........|G-411v39SD2|...........|...........|...........
|...........|...........|...........|...........|...........|...........|G-605v64SD4|...........|...........|...........|...........|...........|...........|...........|...........|...........|...........|...........|G-422v64SD4|...........|...........|...........|...........|...........|...........|...........|...........|...........|...........|...........|...........|...........|...........|G-510v64SD4|...........|...........|...........|G-610v64SD4|...........|...........|...........|...........|...........|...........
|...........|...........|...........|...........|...........|===.....SD5|...........|...........|...........|...........|...........|...........|...........|...........|...........|...........|...........|===.....SD5|...........|...........|...........|...........|...........|F#312v28SD2|C-302v28SD2|...........|...........|...........|...........|...........|...........|...........|===.....SD5|...........|...........|...........|===.....SD5|...........|...........|...........|...........|...........|...........|...........
|...........|...........|...........|...........|...........|...........|...........|...........|...........|...........|...........|...........|...........|...........|...........|...........|...........|...........|...........|...........|...........|...........|...........|...........|...........|...........|...........|...........|...........|...........|...........|...........|...........|...........|...........|...........|...........|...........|...........|...........|...........|...........|...........|...........
|D-403v64SD2|...........|...........|...........|...........|F#705v64SD2|...........|...........|...........|D-406v52SD2|...........|...........|...........|...........|...........|...........|...........|F#522v64SD2|...........|...........|...........|D-408v56SD2|...........|C#401v64SD2|C-302v64SD2|...........|...........|...........|...........|...........|...........|...........|F#610v64SD2|...........|...........|...........|F#710v64SD2|...........|...........|...........|D-411v39SD2|...........|...........|...........
|...........|...........|...........|...........|...........|...........|===.....SD3|...........|...........|...........|...........|...........|...........|...........|...........|...........|...........|...........|===.....SD3|...........|...........|...........|...........|...........|...........|...........|...........|...........|...........|...........|...........|...........|...........|===.....SD3|...........|...........|...........|===.....SD3|...........|...........|...........|...........|...........|...........
|...........|...........|...........|...........|...........|...........|...........|...........|...........|...........|...........|...........|...........|...........|...........|...........|...........|...........|...........|...........|...........|...........|...........|...........|...........|...........|...........|...........|...........|...........|...........|...........|...........|...........|...........|...........|...........|...........|...........|...........|...........|...........|...........|...........
|...........|...........|...........|...........|...........|...........|D-705v64...|...........|...........|...........|...........|...........|...........|...........|...........|...........|...........|...........|D-522v64...|...........|...........|...........|...........|...........|...........|...........|...........|...........|...........|...........|...........|...........|...........|D-610v64...|...........|...........|...........|D-710v64...|...........|...........|...........|...........|...........|...........
|A-403v64SD2|...........|...........|...........|...........|===.....SD1|...........|...........|...........|A-406v52SD2|...........|...........|...........|...........|...........|...........|...........|===.....SD1|...........|...........|...........|A-408v56SD2|...........|...........|...........|...........|...........|...........|...........|...........|...........|...........|===.....SD1|...........|...........|...........|===.....SD1|...........|...........|...........|A-411v39SD2|...........|...........|...........
|...........|...........|...........|...........|...........|A-605v64SD4|...........|...........|...........|...........|...........|...........|...........|...........|...........|...........|...........|A-422v64SD4|...........|...........|...........|...........|...........|...........|...........|...........|...........|...........|...........|...........|...........|...........|A-510v64SD4|...........|...........|...........|A-610v64SD4|...........|...........|...........|...........|...........|...........|...........
|...........|...........|...........|...........|...........|...........|===.....SD5|...........|...........|...........|...........|...........|...........|...........|...........|...........|...........|...........|===.....SD5|...........|...........|...........|...........|...........|...........|...........|...........|...........|...........|...........|...........|...........|...........|===.....SD5|...........|...........|...........|===.....SD5|...........|...........|...........|...........|...........|...........
|...........|...........|...........|...........|...........|...........|...........|...........|...........|...........|...........|...........|...........|...........|...........|...........|...........|...........|...........|...........|...........|...........|...........|...........|...........|...........|...........|...........|...........|...........|...........|...........|...........|...........|...........|...........|...........|...........|...........|...........|...........|...........|...........|...........
|D-403v64SD2|...........|...........|...........|...........|...........|F#705v64SD2|...........|...........|D-406v52SD2|...........|...........|...........|...........|...........|...........|...........|...........|F#522v64SD2|...........|...........|D-408v56SD2|...........|...........|...........|...........|...........|...........|...........|...........|...........|...........|...........|F#610v64SD2|...........|...........|...........|F#710v64SD2|...........|...........|D-411v39SD2|...........|...........|...........
|...........|...........|...........|...........|...........|===.....SD3|...........|...........|...........|...........|...........|...........|...........|...........|...........|...........|...........|===.....SD3|...........|...........|...........|...........|...........|...........|...........|...........|...........|...........|...........|...........|...........|...........|===.....SD3|...........|...........|...........|===.....SD3|...........|...........|...........|...........|...........|...........|...........
|...........|...........|...........|...........|...........|...........|...........|...........|...........|...........|...........|...........|...........|...........|...........|...........|...........|...........|...........|...........|...........|...........|...........|...........|...........|...........|...........|...........|...........|...........|...........|...........|...........|...........|...........|...........|...........|...........|...........|...........|...........|...........|...........|...........
|...........|...........|...........|...........|...........|D-705v64...|...........|...........|...........|...........|...........|...........|...........|...........|...........|...........|...........|D-522v64...|...........|...........|...........|...........|...........|...........|...........|...........|...........|...........|...........|...........|...........|...........|D-610v64...|...........|...........|...........|D-710v64...|...........|...........|...........|...........|...........|...........|...........
|A-403v64SD2|...........|...........|...........|...........|...........|===.....SD1|...........|...........|A-406v52SD2|...........|...........|...........|...........|...........|...........|...........|...........|===.....SD1|...........|...........|A-408v56SD2|...........|...........|...........|...........|...........|...........|...........|...........|...........|...........|...........|===.....SD1|...........|...........|...........|===.....SD1|...........|...........|A-411v39SD2|...........|...........|...........
|...........|...........|...........|...........|...........|...........|A-605v64SD4|...........|...........|...........|...........|...........|...........|...........|...........|...........|...........|...........|A-422v64SD4|...........|...........|...........|...........|...........|...........|...........|...........|...........|...........|...........|...........|...........|...........|A-510v64SD4|...........|...........|...........|A-610v64SD4|...........|...........|...........|...........|...........|...........
|...........|...........|...........|...........|...........|===.....SD5|...........|...........|...........|...........|...........|...........|...........|...........|...........|...........|...........|===.....SD5|...........|...........|...........|...........|...........|...........|...........|...........|...........|...........|...........|...........|...........|...........|===.....SD5|...........|...........|...........|===.....SD5|...........|...........|...........|...........|...........|...........|...........
|...........|...........|...........|...........|...........|...........|...........|...........|...........|...........|...........|...........|...........|...........|...........|...........|...........|...........|...........|...........|...........|...........|...........|...........|...........|...........|...........|...........|...........|...........|...........|...........|...........|...........|...........|...........|...........|...........|...........|...........|...........|...........|...........|...........
|D#403v64SD2|...........|...........|...........|...........|F#705v64SD2|...........|...........|...........|D#406v52SD2|...........|...........|...........|...........|...........|...........|...........|F#522v64SD2|...........|...........|...........|D#408v56SD2|...........|C#401v64SD2|C-302v64SD2|...........|...........|...........|...........|...........|...........|...........|F#610v64SD2|...........|...........|...........|F#710v64SD2|...........|...........|...........|D#411v39SD2|...........|...........|...........
|...........|...........|...........|...........|...........|...........|===.....SD3|...........|...........|...........|...........|...........|...........|...........|...........|...........|...........|...........|===.....SD3|...........|...........|...........|...........|...........|...........|...........|...........|...........|...........|...........|...........|...........|...........|===.....SD3|...........|...........|...........|===.....SD3|...........|...........|...........|...........|...........|...........
|...........|...........|...........|...........|...........|...........|...........|...........|...........|...........|...........|...........|...........|...........|...........|...........|...........|...........|...........|...........|...........|...........|...........|...........|...........|...........|...........|...........|...........|...........|...........|...........|...........|...........|...........|...........|...........|...........|...........|...........|...........|...........|...........|...........
|...........|...........|...........|...........|...........|...........|D#705v64...|...........|...........|...........|...........|...........|...........|...........|...........|...........|...........|...........|D#522v64...|...........|...........|...........|...........|...........|...........|...........|...........|...........|...........|...........|...........|...........|...........|D#610v64...|...........|...........|...........|D#710v64...|...........|...........|...........|...........|...........|...........
|A-403v64SD2|...........|...........|...........|...........|===.....SD1|...........|...........|...........|A-406v52SD2|...........|...........|...........|...........|...........|...........|...........|===.....SD1|...........|...........|...........|A-408v56SD2|...........|...........|...........|...........|...........|...........|...........|...........|...........|...........|===.....SD1|...........|...........|...........|===.....SD1|...........|...........|...........|A-411v39SD2|...........|...........|...........
|...........|...........|...........|...........|...........|A-605v64SD4|...........|...........|...........|...........|...........|...........|...........|...........|...........|...........|...........|A-422v64SD4|...........|...........|...........|...........|...........|...........|...........|...........|...........|...........|...........|...........|...........|...........|A-510v64SD4|...........|...........|...........|A-610v64SD4|...........|...........|...........|...........|...........|...........|...........
|...........|...........|...........|...........|...........|...........|===.....SD5|...........|...........|...........|...........|...........|...........|...........|...........|...........|...........|...........|===.....SD5|...........|...........|...........|...........|...........|...........|...........|...........|...........|...........|...........|...........|...........|...........|===.....SD5|...........|...........|...........|===.....SD5|...........|...........|...........|...........|...........|...........
|...........|...........|...........|...........|...........|...........|...........|...........|...........|...........|...........|...........|...........|...........|...........|...........|...........|...........|...........|...........|...........|...........|...........|...........|...........|...........|...........|...........|...........|...........|...........|...........|...........|...........|...........|...........|...........|...........|...........|...........|...........|...........|...........|...........
|D#403v64SD2|...........|...........|...........|...........|...........|F#705v64SD2|...........|...........|D#406v52SD2|...........|...........|...........|...........|...........|...........|...........|...........|F#522v64SD2|...........|...........|D#408v56SD2|...........|...........|...........|...........|...........|...........|...........|...........|...........|...........|...........|F#610v64SD2|...........|...........|...........|F#710v64SD2|...........|...........|D#411v39SD2|...........|...........|...........
|...........|...........|...........|...........|...........|===.....SD3|...........|...........|...........|...........|...........|...........|...........|...........|...........|...........|...........|===.....SD3|...........|...........|...........|...........|...........|...........|...........|...........|...........|...........|...........|...........|...........|...........|===.....SD3|...........|...........|...........|===.....SD3|...........|...........|...........|...........|...........|...........|...........
|...........|...........|...........|...........|...........|...........|...........|...........|...........|...........|...........|...........|...........|...........|...........|...........|...........|...........|...........|...........|...........|...........|...........|...........|...........|...........|...........|...........|...........|...........|...........|...........|...........|...........|...........|...........|...........|...........|...........|...........|...........|...........|...........|...........
|...........|...........|...........|...........|...........|G-705v64...|...........|...........|...........|...........|...........|...........|...........|...........|...........|...........|...........|G-522v64...|...........|...........|...........|...........|...........|...........|...........|...........|...........|...........|...........|...........|...........|...........|G-610v64...|...........|...........|...........|G-710v64...|...........|...........|...........|...........|...........|...........|...........
|A-403v64SD2|...........|...........|...........|...........|...........|===.....SD1|...........|...........|A-406v52SD2|...........|...........|...........|...........|...........|...........|...........|...........|===.....SD1|...........|...........|A-408v56SD2|...........|F#312v17SD2|C-302v17SD2|...........|...........|...........|...........|...........|...........|...........|...........|===.....SD1|...........|...........|...........|===.....SD1|...........|...........|A-411v39SD2|...........|...........|...........
|...........|...........|...........|...........|...........|...........|A-705v64SD4|...........|...........|...........|...........|...........|...........|...........|...........|...........|...........|...........|A-522v64SD4|...........|...........|...........|...........|...........|...........|...........|...........|...........|...........|...........|...........|...........|...........|A-610v64SD4|...........|...........|...........|A-710v64SD4|...........|...........|...........|...........|...........|...........
|...........|...........|...........|...........|...........|===.....SD5|...........|...........|...........|...........|...........|...........|...........|...........|...........|...........|...........|===.....SD5|...........|...........|...........|...........|...........|F#312v28SD2|C-302v28SD2|...........|...........|...........|...........|...........|...........|...........|===.....SD5|...........|...........|...........|===.....SD5|...........|...........|...........|...........|...........|...........|...........
|...........|...........|...........|...........|...........|...........|...........|...........|...........|...........|...........|...........|...........|...........|...........|...........|...........|...........|...........|...........|...........|...........|...........|...........|...........|...........|...........|...........|...........|...........|...........|...........|...........|...........|...........|...........|...........|...........|...........|...........|...........|...........|...........|...........
|E-403v64SD2|...........|...........|...........|...........|G-705v38SD2|...........|B-705v64SD2|...........|E-406v52SD2|...........|...........|...........|...........|...........|...........|...........|G-522v34SD2|...........|B-522v64SD2|...........|E-408v56SD2|...........|C#401v64SD2|C-302v64SD2|...........|...........|...........|...........|...........|...........|...........|G-610v30SD2|...........|B-610v64SD2|...........|G-710v30SD2|...........|B-710v64SD2|...........|E-411v39SD2|...........|...........|...........
|...........|...........|...........|...........|...........|...........|===.....SD3|...........|...........|...........|...........|...........|...........|...........|...........|...........|...........|...........|===.....SD3|...........|...........|...........|...........|...........|...........|...........|...........|...........|...........|...........|...........|...........|...........|===.....SD3|...........|...........|...........|===.....SD3|...........|...........|...........|...........|...........|...........
|...........|...........|...........|...........|...........|...........|...........|...........|...........|...........|...........|...........|...........|...........|...........|...........|...........|...........|...........|...........|...........|...........|...........|...........|...........|...........|...........|...........|...........|...........|...........|...........|...........|...........|...........|...........|...........|...........|...........|...........|...........|...........|...........|...........
|...........|...........|...........|...........|...........|...........|...........|...........|...........|...........|...........|...........|...........|...........|...........|...........|...........|...........|...........|...........|...........|...........|...........|...........|...........|...........|...........|...........|...........|...........|...........|...........|...........|...........|...........|...........|...........|...........|...........|...........|...........|...........|...........|...........
|B-403v64SD2|...........|...........|...........|...........|...........|...........|...........|...........|B-406v52SD2|...........|...........|...........|...........|...........|...........|...........|...........|...........|...........|...........|B-408v56SD2|...........|...........|...........|...........|...........|...........|...........|...........|...........|...........|...........|...........|...........|...........|...........|...........|...........|...........|B-411v39SD2|...........|...........|...........
|...........|...........|...........|...........|...........|...........|...........|...........|...........|...........|...........|...........|...........|...........|...........|...........|...........|...........|...........|...........|...........|...........|...........|...........|...........|...........|...........|...........|...........|...........|...........|...........|...........|...........|...........|...........|...........|...........|...........|...........|...........|...........|...........|...........
|...........|...........|...........|...........|...........|...........|...........|...........|...........|...........|...........|...........|...........|...........|...........|...........|...........|...........|...........|...........|...........|...........|...........|...........|...........|...........|...........|...........|...........|...........|...........|...........|...........|...........|...........|...........|...........|...........|...........|...........|...........|...........|...........|...........
|...........|...........|...........|...........|...........|...........|...........|...........|...........|...........|...........|...........|...........|...........|...........|...........|...........|...........|...........|...........|...........|...........|...........|...........|...........|...........|...........|...........|...........|...........|...........|...........|...........|...........|...........|...........|...........|...........|...........|...........|...........|...........|...........|...........
|E-403v64SD2|...........|...........|...........|...........|...........|...........|...........|...........|E-406v52SD2|...........|...........|...........|...........|...........|...........|...........|...........|...........|...........|...........|E-408v56SD2|...........|E-313v59SD2|D-315v59SD2|...........|...........|...........|...........|...........|...........|...........|...........|...........|...........|...........|...........|...........|...........|...........|E-411v39SD2|...........|...........|...........
|...........|...........|...........|...........|...........|...........|...........|...........|...........|...........|...........|...........|...........|...........|...........|...........|...........|...........|...........|...........|...........|...........|...........|...........|...........|...........|...........|...........|...........|...........|...........|...........|...........|...........|...........|...........|...........|...........|...........|...........|...........|...........|...........|...........
|...........|...........|...........|...........|...........|...........|...........|...........|...........|...........|...........|...........|...........|...........|...........|...........|...........|...........|...........|...........|...........|...........|...........|E-313v59SD2|D-315v59SD2|...........|...........|...........|...........|...........|...........|...........|...........|...........|...........|...........|...........|...........|...........|...........|...........|...........|...........|...........
|...........|...........|...........|...........|...........|...........|...........|...........|...........|...........|...........|...........|...........|...........|...........|...........|...........|...........|...........|...........|...........|...........|...........|...........|...........|...........|...........|...........|...........|...........|...........|...........|...........|...........|...........|...........|...........|...........|...........|...........|...........|...........|...........|...........
|B-403v64SD2|...........|...........|...........|...........|...........|...........|...........|...........|B-406v52SD2|...........|...........|...........|...........|...........|...........|...........|...........|...........|...........|...........|B-408v56SD2|...........|D-315v59SD2|...........|...........|...........|...........|...........|...........|...........|...........|...........|...........|...........|...........|...........|...........|...........|...........|B-411v39SD2|...........|...........|...........
|...........|...........|...........|...........|...........|...........|...........|...........|...........|...........|...........|...........|...........|...........|...........|...........|...........|...........|...........|...........|...........|...........|...........|...........|...........|...........|...........|...........|...........|...........|...........|...........|...........|...........|...........|...........|...........|...........|...........|...........|...........|...........|...........|...........
|...........|...........|...........|...........|...........|...........|...........|...........|...........|...........|...........|...........|...........|...........|...........|...........|...........|...........|...........|...........|...........|...........|...........|E-313v59SD2|D-315v59SD2|...........|...........|...........|...........|...........|...........|...........|...........|...........|...........|...........|...........|...........|...........|...........|...........|...........|...........|...........
|...........|...........|...........|...........|...........|===.....SD4|...........|===.....SD4|...........|...........|...........|...........|...........|...........|...........|...........|...........|===.....SD4|...........|===.....SD4|...........|...........|...........|...........|...........|...........|...........|...........|...........|...........|...........|...........|===.....SD4|...........|===.....SD4|...........|===.....SD4|...........|===.....SD4|...........|...........|...........|...........|...........
|C-403v64SD2|...........|...........|...........|...........|B-705v64SD2|...........|...........|...........|C-406v52SD2|...........|...........|...........|...........|...........|...........|...........|B-522v64SD2|...........|...........|...........|C-408v56SD2|...........|C#401v64SD2|F#312v64SD2|C-302v64SD2|...........|...........|...........|...........|...........|...........|B-610v64SD2|...........|...........|...........|B-710v64SD2|...........|...........|...........|C-411v39SD2|...........|...........|...........
|...........|...........|...........|...........|...........|...........|...........|...........|...........|...........|...........|...........|...........|...........|...........|...........|...........|...........|...........|...........|...........|...........|...........|...........|...........|...........|...........|...........|...........|...........|...........|...........|...........|...........|...........|...........|...........|...........|...........|...........|...........|...........|...........|...........
|...........|...........|...........|...........|...........|...........|...........|...........|...........|...........|...........|...........|...........|...........|...........|...........|...........|...........|...........|...........|...........|...........|...........|...........|...........|...........|...........|...........|...........|...........|...........|...........|...........|...........|...........|...........|...........|...........|...........|...........|...........|...........|...........|...........
|...........|...........|...........|...........|...........|...........|G-705v64...|...........|...........|...........|...........|...........|...........|...........|...........|...........|...........|...........|G-522v64...|...........|...........|...........|...........|...........|...........|...........|...........|...........|...........|...........|...........|...........|...........|G-610v64...|...........|...........|...........|G-710v64...|...........|...........|...........|...........|...........|...........
|G-403v64SD2|...........|...........|...........|...........|===.....SD1|...........|...........|...........|G-406v52SD2|...........|...........|...........|...........|...........|...........|...........|===.....SD1|...........|...........|...........|G-408v56SD2|...........|A#314v64SD2|...........|...........|...........|...........|...........|...........|...........|...........|===.....SD1|...........|...........|...........|===.....SD1|...........|...........|...........|G-411v39SD2|...........|...........|...........
|...........|...........|...........|...........|...........|E-705v64SD4|...........|...........|...........|...........|...........|...........|...........|...........|...........|...........|...........|E-522v64SD4|...........|...........|...........|...........|...........|...........|...........|...........|...........|...........|...........|...........|...........|...........|E-610v64SD4|...........|...........|...........|E-710v64SD4|...........|...........|...........|...........|...........|...........|...........
|...........|...........|...........|...........|...........|...........|===.....SD5|...........|...........|...........|...........|...........|...........|...........|...........|...........|...........|...........|===.....SD5|...........|...........|...........|...........|...........|...........|...........|...........|...........|...........|...........|...........|...........|...........|===.....SD5|...........|...........|...........|===.....SD5|...........|...........|...........|...........|...........|...........
|...........|...........|...........|...........|...........|...........|...........|...........|...........|...........|...........|...........|...........|...........|...........|...........|...........|...........|...........|...........|...........|...........|...........|...........|...........|...........|...........|...........|...........|...........|...........|...........|...........|...........|...........|...........|...........|...........|...........|...........|...........|...........|...........|...........
|C-403v64SD2|...........|...........|...........|...........|...........|B-705v64SD2|...........|...........|C-406v52SD2|...........|...........|...........|...........|...........|...........|...........|...........|B-522v64SD2|...........|...........|C-408v56SD2|...........|F#312v64SD2|C-302v64SD2|...........|...........|...........|...........|...........|...........|...........|...........|B-610v64SD2|...........|...........|...........|B-710v64SD2|...........|...........|C-411v39SD2|...........|...........|...........
|...........|...........|...........|...........|...........|===.....SD3|...........|...........|...........|...........|...........|...........|...........|...........|...........|...........|...........|===.....SD3|...........|...........|...........|...........|...........|...........|...........|...........|...........|...........|...........|...........|...........|...........|===.....SD3|...........|...........|...........|===.....SD3|...........|...........|...........|...........|...........|...........|...........
|...........|...........|...........|...........|...........|...........|...........|...........|...........|...........|...........|...........|...........|...........|...........|...........|...........|...........|...........|...........|...........|...........|...........|...........|...........|...........|...........|...........|...........|...........|...........|...........|...........|...........|...........|...........|...........|...........|...........|...........|...........|...........|...........|...........
|...........|...........|...........|...........|...........|G-705v64...|...........|...........|...........|...........|...........|...........|...........|...........|...........|...........|...........|G-522v64...|...........|...........|...........|...........|...........|...........|...........|...........|...........|...........|...........|...........|...........|...........|G-610v64...|...........|...........|...........|G-710v64...|...........|...........|...........|...........|...........|...........|...........
|G-403v64SD2|...........|...........|...........|...........|...........|===.....SD1|...........|...........|G-406v52SD2|...........|...........|...........|...........|...........|...........|...........|...........|===.....SD1|...........|...........|G-408v56SD2|...........|A#314v64SD2|...........|...........|...........|...........|...........|...........|...........|...........|...........|===.....SD1|...........|...........|...........|===.....SD1|...........|...........|G-411v39SD2|...........|...........|...........
|...........|...........|...........|...........|...........|...........|E-705v64SD4|...........|...........|...........|...........|...........|...........|...........|...........|...........|...........|...........|E-522v64SD4|...........|...........|...........|...........|...........|...........|...........|...........|...........|...........|...........|...........|...........|...........|E-610v64SD4|...........|...........|...........|E-710v64SD4|...........|...........|...........|...........|...........|...........
|...........|...........|...........|...........|...........|===.....SD5|...........|...........|...........|...........|...........|...........|...........|...........|...........|...........|...........|===.....SD5|...........|...........|...........|...........|...........|...........|...........|...........|...........|...........|...........|...........|...........|...........|===.....SD5|...........|...........|...........|===.....SD5|...........|...........|...........|...........|...........|...........|...........
|...........|...........|...........|...........|...........|...........|...........|...........|...........|...........|...........|...........|...........|...........|...........|...........|...........|...........|...........|...........|...........|...........|...........|...........|...........|...........|...........|...........|...........|...........|...........|...........|...........|...........|...........|...........|...........|...........|...........|...........|...........|...........|...........|...........
|D-403v64SD2|...........|...........|...........|...........|A-705v64SD2|...........|...........|...........|D-406v52SD2|...........|...........|...........|...........|...........|...........|...........|A-522v64SD2|...........|...........|...........|D-408v56SD2|...........|C#401v64SD2|F#312v64SD2|C-302v64SD2|...........|...........|...........|...........|...........|...........|A-610v64SD2|...........|...........|...........|A-710v64SD2|...........|...........|...........|D-411v39SD2|...........|...........|...........


ModPlug Tracker MPT
|...........|...........|...........|...........|...........|...........|===.....SD3|...........|...........|...........|...........|...........|...........|...........|...........|...........|...........|...........|===.....SD3|...........|...........|...........|...........|...........|...........|...........|...........|...........|...........|...........|...........|...........|...........|===.....SD3|...........|...........|...........|===.....SD3|...........|...........|...........|...........|...........|...........
|...........|...........|...........|...........|...........|...........|...........|...........|...........|...........|...........|...........|...........|...........|...........|...........|...........|...........|...........|...........|...........|...........|...........|...........|...........|...........|...........|...........|...........|...........|...........|...........|...........|...........|...........|...........|...........|...........|...........|...........|...........|...........|...........|...........
|...........|...........|...........|...........|...........|...........|F#705v64...|...........|...........|...........|...........|...........|...........|...........|...........|...........|...........|...........|F#522v64...|...........|...........|...........|...........|...........|...........|...........|...........|...........|...........|...........|...........|...........|...........|F#610v64...|...........|...........|...........|F#710v64...|...........|...........|...........|...........|...........|...........
|A-403v64SD2|...........|...........|...........|...........|===.....SD1|...........|...........|...........|A-406v52SD2|...........|...........|...........|...........|...........|...........|...........|===.....SD1|...........|...........|...........|A-408v56SD2|...........|A#314v64SD2|...........|...........|...........|...........|...........|...........|...........|...........|===.....SD1|...........|...........|...........|===.....SD1|...........|...........|...........|A-411v39SD2|...........|...........|...........
|...........|...........|...........|...........|...........|D-705v64SD4|...........|...........|...........|...........|...........|...........|...........|...........|...........|...........|...........|D-522v64SD4|...........|...........|...........|...........|...........|...........|...........|...........|...........|...........|...........|...........|...........|...........|D-610v64SD4|...........|...........|...........|D-710v64SD4|...........|...........|...........|...........|...........|...........|...........
|...........|...........|...........|...........|...........|...........|===.....SD5|...........|...........|...........|...........|...........|...........|...........|...........|...........|...........|...........|===.....SD5|...........|...........|...........|...........|...........|...........|...........|...........|...........|...........|...........|...........|...........|...........|===.....SD5|...........|...........|...........|===.....SD5|...........|...........|...........|...........|...........|...........
|...........|...........|...........|...........|...........|...........|...........|...........|...........|...........|...........|...........|...........|...........|...........|...........|...........|...........|...........|...........|...........|...........|...........|...........|...........|...........|...........|...........|...........|...........|...........|...........|...........|...........|...........|...........|...........|...........|...........|...........|...........|...........|...........|...........
|D-403v64SD2|...........|...........|...........|...........|...........|A-705v64SD2|...........|...........|D-406v52SD2|...........|...........|...........|...........|...........|...........|...........|...........|A-522v64SD2|...........|...........|D-408v56SD2|...........|F#312v64SD2|C-302v64SD2|...........|...........|...........|...........|...........|...........|...........|...........|A-610v64SD2|...........|...........|...........|A-710v64SD2|...........|...........|D-411v39SD2|...........|...........|...........
|...........|...........|...........|...........|...........|===.....SD3|...........|...........|...........|...........|...........|...........|...........|...........|...........|...........|...........|===.....SD3|...........|...........|...........|...........|...........|...........|...........|...........|...........|...........|...........|...........|...........|...........|===.....SD3|...........|...........|...........|===.....SD3|...........|...........|...........|...........|...........|...........|...........
|...........|...........|...........|...........|...........|...........|...........|...........|...........|...........|...........|...........|...........|...........|...........|...........|...........|...........|...........|...........|...........|...........|...........|...........|...........|...........|...........|...........|...........|...........|...........|...........|...........|...........|...........|...........|...........|...........|...........|...........|...........|...........|...........|...........
|...........|...........|...........|...........|...........|F#705v64...|...........|...........|...........|...........|...........|...........|...........|...........|...........|...........|...........|F#522v64...|...........|...........|...........|...........|...........|...........|...........|...........|...........|...........|...........|...........|...........|...........|F#610v64...|...........|...........|...........|F#710v64...|...........|...........|...........|...........|...........|...........|...........
|A-403v64SD2|...........|...........|...........|...........|...........|===.....SD1|...........|...........|A-406v52SD2|...........|...........|...........|...........|...........|...........|...........|...........|===.....SD1|...........|...........|A-408v56SD2|...........|A#314v64SD2|...........|...........|...........|...........|...........|...........|...........|...........|...........|===.....SD1|...........|...........|...........|===.....SD1|...........|...........|A-411v39SD2|...........|...........|...........
|...........|...........|...........|...........|...........|...........|D-705v64SD4|...........|...........|...........|...........|...........|...........|...........|...........|...........|...........|...........|D-522v64SD4|...........|...........|...........|...........|...........|...........|...........|...........|...........|...........|...........|...........|...........|...........|D-610v64SD4|...........|...........|...........|D-710v64SD4|...........|...........|...........|...........|...........|...........
|...........|...........|...........|...........|...........|===.....SD5|...........|...........|...........|...........|...........|...........|...........|...........|...........|...........|...........|===.....SD5|...........|...........|...........|...........|...........|...........|...........|...........|...........|...........|...........|...........|...........|...........|===.....SD5|...........|...........|...........|===.....SD5|...........|...........|...........|...........|...........|...........|...........
|...........|...........|...........|...........|...........|...........|...........|...........|...........|...........|...........|...........|...........|...........|...........|...........|...........|...........|...........|...........|...........|...........|...........|...........|...........|...........|...........|...........|...........|...........|...........|...........|...........|...........|...........|...........|...........|...........|...........|...........|...........|...........|...........|...........
|E-403v64SD2|...........|...........|...........|...........|G-705v64SD2|...........|...........|...........|E-406v52SD2|...........|...........|...........|...........|...........|...........|...........|G-522v64SD2|...........|...........|...........|E-408v56SD2|...........|C#401v64SD2|F#312v64SD2|C-302v64SD2|...........|...........|...........|...........|...........|...........|G-610v64SD2|...........|...........|...........|G-710v64SD2|...........|...........|...........|E-411v39SD2|...........|...........|...........
|...........|...........|...........|...........|...........|...........|===.....SD3|...........|...........|...........|...........|...........|...........|...........|...........|...........|...........|...........|===.....SD3|...........|...........|...........|...........|...........|...........|...........|...........|...........|...........|...........|...........|...........|...........|===.....SD3|...........|...........|...........|===.....SD3|...........|...........|...........|...........|...........|...........
|...........|...........|...........|...........|...........|...........|...........|...........|...........|...........|...........|...........|...........|...........|...........|...........|...........|...........|...........|...........|...........|...........|...........|...........|...........|...........|...........|...........|...........|...........|...........|...........|...........|...........|...........|...........|...........|...........|...........|...........|...........|...........|...........|...........
|...........|...........|...........|...........|...........|...........|E-705v64...|...........|...........|...........|...........|...........|...........|...........|...........|...........|...........|...........|E-522v64...|...........|...........|...........|...........|...........|...........|...........|...........|...........|...........|...........|...........|...........|...........|E-610v64...|...........|...........|...........|E-710v64...|...........|...........|...........|...........|...........|...........
|B-403v64SD2|...........|...........|...........|...........|===.....SD1|...........|...........|...........|B-406v52SD2|...........|...........|...........|...........|...........|...........|...........|===.....SD1|...........|...........|...........|B-408v56SD2|...........|A#314v64SD2|...........|...........|...........|...........|...........|...........|...........|...........|===.....SD1|...........|...........|...........|===.....SD1|...........|...........|...........|B-411v39SD2|...........|...........|...........
|...........|...........|...........|...........|...........|B-605v64SD4|...........|...........|...........|...........|...........|...........|...........|...........|...........|...........|...........|B-422v64SD4|...........|...........|...........|...........|...........|...........|...........|...........|...........|...........|...........|...........|...........|...........|B-510v64SD4|...........|...........|...........|B-610v64SD4|...........|...........|...........|...........|...........|...........|...........
|...........|...........|...........|...........|...........|...........|===.....SD5|...........|...........|...........|...........|...........|...........|...........|...........|...........|...........|...........|===.....SD5|...........|...........|...........|...........|...........|...........|...........|...........|...........|...........|...........|...........|...........|...........|===.....SD5|...........|...........|...........|===.....SD5|...........|...........|...........|...........|...........|...........
|...........|...........|...........|...........|...........|...........|...........|...........|...........|...........|...........|...........|...........|...........|...........|...........|...........|...........|...........|...........|...........|...........|...........|...........|...........|...........|...........|...........|...........|...........|...........|...........|...........|...........|...........|...........|...........|...........|...........|...........|...........|...........|...........|...........
|E-403v64SD2|...........|...........|...........|...........|...........|F#705v64SD2|...........|...........|E-406v52SD2|...........|...........|...........|...........|...........|...........|...........|...........|F#522v64SD2|...........|...........|E-408v56SD2|...........|F#312v64SD2|C-302v64SD2|...........|...........|...........|...........|...........|...........|...........|...........|F#610v64SD2|...........|...........|...........|F#710v64SD2|...........|...........|E-411v39SD2|...........|...........|...........
|...........|...........|...........|...........|...........|===.....SD3|...........|...........|...........|...........|...........|...........|...........|...........|...........|...........|...........|===.....SD3|...........|...........|...........|...........|...........|...........|...........|...........|...........|...........|...........|...........|...........|...........|===.....SD3|...........|...........|...........|===.....SD3|...........|...........|...........|...........|...........|...........|...........
|...........|...........|...........|...........|...........|...........|...........|...........|...........|...........|...........|...........|...........|...........|...........|...........|...........|...........|...........|...........|...........|...........|...........|...........|...........|...........|...........|...........|...........|...........|...........|...........|...........|...........|...........|...........|...........|...........|...........|...........|...........|...........|...........|...........
|...........|...........|...........|...........|...........|G-705v64...|...........|...........|...........|...........|...........|...........|...........|...........|...........|...........|...........|G-522v64...|...........|...........|...........|...........|...........|...........|...........|...........|...........|...........|...........|...........|...........|...........|G-610v64...|...........|...........|...........|G-710v64...|...........|...........|...........|...........|...........|...........|...........
|B-403v64SD2|...........|...........|...........|...........|...........|===.....SD1|...........|...........|B-406v52SD2|...........|...........|...........|...........|...........|...........|...........|...........|===.....SD1|...........|...........|B-408v56SD2|...........|A#314v64SD2|...........|...........|...........|...........|...........|...........|...........|...........|...........|===.....SD1|...........|...........|...........|===.....SD1|...........|...........|B-411v39SD2|...........|...........|...........
|...........|...........|...........|...........|...........|...........|A-705v64SD4|...........|...........|...........|...........|...........|...........|...........|...........|...........|...........|...........|A-522v64SD4|...........|...........|...........|...........|...........|...........|...........|...........|...........|...........|...........|...........|...........|...........|A-610v64SD4|...........|...........|...........|A-710v64SD4|...........|...........|...........|...........|...........|...........
|...........|...........|...........|...........|...........|===.....SD5|...........|...........|...........|...........|...........|...........|...........|...........|...........|...........|...........|===.....SD5|...........|...........|...........|...........|...........|...........|...........|...........|...........|...........|...........|...........|...........|...........|===.....SD5|...........|...........|...........|===.....SD5|...........|...........|...........|...........|...........|...........|...........
|...........|...........|...........|...........|...........|...........|...........|...........|...........|...........|...........|...........|...........|...........|...........|...........|...........|...........|...........|...........|...........|...........|...........|...........|...........|...........|...........|...........|...........|...........|...........|...........|...........|...........|...........|...........|...........|...........|...........|...........|...........|...........|...........|...........
|E-403v64SD2|...........|...........|...........|...........|B-605v38SD2|...........|E-705v64SD2|...........|E-406v52SD2|...........|...........|...........|...........|...........|...........|...........|B-422v34SD2|...........|E-522v64SD2|...........|E-408v56SD2|...........|C#401v64SD2|F#312v64SD2|C-302v64SD2|...........|...........|...........|...........|...........|...........|B-510v30SD2|...........|E-610v64SD2|...........|B-610v30SD2|...........|E-710v64SD2|...........|E-411v39SD2|...........|...........|...........
|...........|...........|...........|...........|...........|...........|===.....SD3|...........|...........|...........|...........|...........|...........|...........|...........|...........|...........|...........|===.....SD3|...........|...........|...........|...........|...........|...........|...........|...........|...........|...........|...........|...........|...........|...........|===.....SD3|...........|...........|...........|===.....SD3|...........|...........|...........|...........|...........|...........
|...........|...........|...........|...........|...........|...........|...........|...........|...........|...........|...........|...........|...........|...........|...........|...........|...........|...........|...........|...........|...........|...........|...........|...........|...........|...........|...........|...........|...........|...........|...........|...........|...........|...........|...........|...........|...........|...........|...........|...........|...........|...........|...........|...........
|...........|...........|...........|...........|...........|...........|...........|...........|...........|...........|...........|...........|...........|...........|...........|...........|...........|...........|...........|...........|...........|...........|...........|...........|...........|...........|...........|...........|...........|...........|...........|...........|...........|...........|...........|...........|...........|...........|...........|...........|...........|...........|...........|...........
|B-403v64SD2|...........|...........|...........|...........|...........|...........|...........|...........|B-406v52SD2|...........|...........|...........|...........|...........|...........|...........|...........|...........|...........|...........|B-408v56SD2|...........|D-315v42SD2|A#314v64SD2|...........|...........|...........|...........|...........|...........|...........|...........|...........|...........|...........|...........|...........|...........|...........|B-411v39SD2|...........|...........|...........
|...........|...........|...........|...........|...........|...........|...........|...........|...........|...........|...........|...........|...........|...........|...........|...........|...........|...........|...........|...........|...........|...........|...........|...........|...........|...........|...........|...........|...........|...........|...........|...........|...........|...........|...........|...........|...........|...........|...........|...........|...........|...........|...........|...........
|...........|...........|...........|...........|...........|...........|...........|...........|...........|...........|...........|...........|...........|...........|...........|...........|...........|...........|...........|...........|...........|...........|...........|...........|...........|...........|...........|...........|...........|...........|...........|...........|...........|...........|...........|...........|...........|...........|...........|...........|...........|...........|...........|...........
|...........|...........|...........|...........|...........|...........|...........|...........|...........|...........|...........|...........|...........|...........|...........|...........|...........|...........|...........|...........|...........|...........|...........|...........|...........|...........|...........|...........|...........|...........|...........|...........|...........|...........|...........|...........|...........|...........|...........|...........|...........|...........|...........|...........
|D-403v64SD2|...........|...........|...........|...........|...........|...........|...........|...........|D-406v52SD2|...........|...........|...........|...........|...........|...........|...........|...........|...........|...........|...........|D-408v56SD2|...........|F#312v64SD2|C-302v64SD2|...........|...........|...........|...........|...........|...........|...........|...........|...........|...........|...........|...........|...........|...........|...........|D-411v39SD2|...........|...........|...........
|...........|...........|...........|...........|...........|...........|...........|...........|...........|...........|...........|...........|...........|...........|...........|...........|...........|...........|...........|...........|...........|...........|...........|...........|...........|...........|...........|...........|...........|...........|...........|...........|...........|...........|...........|...........|...........|...........|...........|...........|...........|...........|...........|...........
|...........|...........|...........|...........|...........|...........|...........|...........|...........|...........|...........|...........|...........|...........|...........|...........|...........|...........|...........|...........|...........|...........|...........|D-315v42SD2|...........|...........|...........|...........|...........|...........|...........|...........|...........|...........|...........|...........|...........|...........|...........|...........|...........|...........|...........|...........
|...........|...........|...........|...........|...........|===.....SD4|...........|===.....SD4|...........|...........|...........|...........|...........|...........|...........|...........|...........|===.....SD4|...........|===.....SD4|...........|...........|...........|...........|...........|...........|...........|...........|...........|...........|...........|...........|===.....SD4|...........|===.....SD4|...........|===.....SD4|...........|===.....SD4|...........|...........|...........|...........|...........
|A-403v64SD2|...........|...........|...........|...........|B-605v64SD2|...........|...........|...........|A-406v52SD2|...........|...........|...........|...........|...........|...........|...........|B-422v64SD2|...........|...........|...........|A-408v56SD2|...........|A#314v64SD2|...........|...........|...........|...........|...........|...........|...........|...........|B-510v64SD2|...........|...........|...........|B-610v64SD2|...........|...........|...........|A-411v39SD2|...........|...........|...........
|...........|...........|...........|...........|...........|...........|...........|...........|...........|...........|...........|...........|...........|...........|...........|...........|...........|...........|...........|...........|...........|...........|...........|...........|...........|...........|...........|...........|...........|...........|...........|...........|...........|...........|...........|...........|...........|...........|...........|...........|...........|...........|...........|...........
|...........|...........|...........|...........|...........|D-705v64SD2|...........|...........|...........|...........|...........|...........|...........|...........|...........|...........|...........|D-522v64SD2|...........|...........|...........|...........|...........|D-315v42SD2|...........|...........|...........|...........|...........|...........|...........|...........|D-610v64SD2|...........|...........|...........|D-710v64SD2|...........|...........|...........|...........|...........|...........|...........
|...........|...........|...........|...........|...........|...........|...........|...........|...........|...........|...........|...........|...........|...........|...........|...........|...........|...........|...........|...........|...........|...........|...........|...........|...........|...........|...........|...........|...........|...........|...........|...........|...........|...........|...........|...........|...........|...........|...........|...........|...........|...........|...........|...........
|C-403v64SD2|...........|...........|...........|...........|E-705v64SD2|...........|...........|...........|C-406v52SD2|...........|...........|...........|...........|...........|...........|...........|E-522v64SD2|...........|...........|...........|C-408v56SD2|...........|C#401v64SD2|F#312v64SD2|C-302v64SD2|...........|...........|...........|...........|...........|...........|E-610v64SD2|...........|...........|...........|E-710v64SD2|...........|...........|...........|C-411v39SD2|...........|...........|...........
|...........|...........|...........|...........|...........|...........|...........|...........|...........|...........|...........|...........|...........|...........|...........|...........|...........|...........|...........|...........|...........|...........|...........|...........|...........|...........|...........|...........|...........|...........|...........|...........|...........|...........|...........|...........|...........|...........|...........|...........|...........|...........|...........|...........
|...........|...........|...........|...........|...........|...........|...........|...........|...........|...........|...........|...........|...........|...........|...........|...........|...........|...........|...........|...........|...........|...........|...........|...........|...........|...........|...........|...........|...........|...........|...........|...........|...........|...........|...........|...........|...........|...........|...........|...........|...........|...........|...........|...........
|...........|...........|...........|...........|...........|...........|B-605v64...|...........|...........|...........|...........|...........|...........|...........|...........|...........|...........|...........|B-422v64...|...........|...........|...........|...........|...........|...........|...........|...........|...........|...........|...........|...........|...........|...........|B-510v64...|...........|...........|...........|B-610v64...|...........|...........|...........|...........|...........|...........
|G-403v64SD2|...........|...........|...........|...........|===.....SD1|...........|...........|...........|G-406v52SD2|...........|...........|...........|...........|...........|...........|...........|===.....SD1|...........|...........|...........|G-408v56SD2|...........|A#314v64SD2|...........|...........|...........|...........|...........|...........|...........|...........|===.....SD1|...........|...........|...........|===.....SD1|...........|...........|...........|G-411v39SD2|...........|...........|...........
|...........|...........|...........|...........|...........|G-605v64SD4|...........|...........|...........|...........|...........|...........|...........|...........|...........|...........|...........|G-422v64SD4|...........|...........|...........|...........|...........|...........|...........|...........|...........|...........|...........|...........|...........|...........|G-510v64SD4|...........|...........|...........|G-610v64SD4|...........|...........|...........|...........|...........|...........|...........
|...........|...........|...........|...........|...........|...........|===.....SD5|...........|...........|...........|...........|...........|...........|...........|...........|...........|...........|...........|===.....SD5|...........|...........|...........|...........|...........|...........|...........|...........|...........|...........|...........|...........|...........|...........|===.....SD5|...........|...........|...........|===.....SD5|...........|...........|...........|...........|...........|...........
|...........|...........|...........|...........|...........|...........|...........|...........|...........|...........|...........|...........|...........|...........|...........|...........|...........|...........|...........|...........|...........|...........|...........|...........|...........|...........|...........|...........|...........|...........|...........|...........|...........|...........|...........|...........|...........|...........|...........|...........|...........|...........|...........|...........
|C-403v64SD2|...........|...........|...........|...........|...........|E-705v64SD2|...........|...........|C-406v52SD2|...........|...........|...........|...........|...........|...........|...........|...........|E-522v64SD2|...........|...........|C-408v56SD2|...........|F#312v64SD2|C-302v64SD2|...........|...........|...........|...........|...........|...........|...........|...........|E-610v64SD2|...........|...........|...........|E-710v64SD2|...........|...........|C-411v39SD2|...........|...........|...........
|...........|...........|...........|...........|...........|===.....SD3|...........|...........|...........|...........|...........|...........|...........|...........|...........|...........|...........|===.....SD3|...........|...........|...........|...........|...........|...........|...........|...........|...........|...........|...........|...........|...........|...........|===.....SD3|...........|...........|...........|===.....SD3|...........|...........|...........|...........|...........|...........|...........
|...........|...........|...........|...........|...........|...........|...........|...........|...........|...........|...........|...........|...........|...........|...........|...........|...........|...........|...........|...........|...........|...........|...........|...........|...........|...........|...........|...........|...........|...........|...........|...........|...........|...........|...........|...........|...........|...........|...........|...........|...........|...........|...........|...........
|...........|...........|...........|...........|...........|B-605v64...|...........|...........|...........|...........|...........|...........|...........|...........|...........|...........|...........|B-422v64...|...........|...........|...........|...........|...........|...........|...........|...........|...........|...........|...........|...........|...........|...........|B-510v64...|...........|...........|...........|B-610v64...|...........|...........|...........|...........|...........|...........|...........
|G-403v64SD2|...........|...........|...........|...........|...........|===.....SD1|...........|...........|G-406v52SD2|...........|...........|...........|...........|...........|...........|...........|...........|===.....SD1|...........|...........|G-408v56SD2|...........|A#314v64SD2|...........|...........|...........|...........|...........|...........|...........|...........|...........|===.....SD1|...........|...........|...........|===.....SD1|...........|...........|G-411v39SD2|...........|...........|...........
|...........|...........|...........|...........|...........|...........|G-605v64SD4|...........|...........|...........|...........|...........|...........|...........|...........|...........|...........|...........|G-422v64SD4|...........|...........|...........|...........|...........|...........|...........|...........|...........|...........|...........|...........|...........|...........|G-510v64SD4|...........|...........|...........|G-610v64SD4|...........|...........|...........|...........|...........|...........
|...........|...........|...........|...........|...........|===.....SD5|...........|...........|...........|...........|...........|...........|...........|...........|...........|...........|...........|===.....SD5|...........|...........|...........|...........|...........|...........|...........|...........|...........|...........|...........|...........|...........|...........|===.....SD5|...........|...........|...........|===.....SD5|...........|...........|...........|...........|...........|...........|...........
|...........|...........|...........|...........|...........|...........|...........|...........|...........|...........|...........|...........|...........|...........|...........|...........|...........|...........|...........|...........|...........|...........|...........|...........|...........|...........|...........|...........|...........|...........|...........|...........|...........|...........|...........|...........|...........|...........|...........|...........|...........|...........|...........|...........
|D-403v64SD2|...........|...........|...........|...........|F#705v64SD2|...........|...........|...........|D-406v52SD2|...........|...........|...........|...........|...........|...........|...........|F#522v64SD2|...........|...........|...........|D-408v56SD2|...........|C#401v64SD2|F#312v64SD2|C-302v64SD2|...........|...........|...........|...........|...........|...........|F#610v64SD2|...........|...........|...........|F#710v64SD2|...........|...........|...........|D-411v39SD2|...........|...........|...........
|...........|...........|...........|...........|...........|...........|===.....SD3|...........|...........|...........|...........|...........|...........|...........|...........|...........|...........|...........|===.....SD3|...........|...........|...........|...........|...........|...........|...........|...........|...........|...........|...........|...........|...........|...........|===.....SD3|...........|...........|...........|===.....SD3|...........|...........|...........|...........|...........|...........
|...........|...........|...........|...........|...........|...........|...........|...........|...........|...........|...........|...........|...........|...........|...........|...........|...........|...........|...........|...........|...........|...........|...........|...........|...........|...........|...........|...........|...........|...........|...........|...........|...........|...........|...........|...........|...........|...........|...........|...........|...........|...........|...........|...........
|...........|...........|...........|...........|...........|...........|D-705v64...|...........|...........|...........|...........|...........|...........|...........|...........|...........|...........|...........|D-522v64...|...........|...........|...........|...........|...........|...........|...........|...........|...........|...........|...........|...........|...........|...........|D-610v64...|...........|...........|...........|D-710v64...|...........|...........|...........|...........|...........|...........
|A-403v64SD2|...........|...........|...........|...........|===.....SD1|...........|...........|...........|A-406v52SD2|...........|...........|...........|...........|...........|...........|...........|===.....SD1|...........|...........|...........|A-408v56SD2|...........|A#314v64SD2|...........|...........|...........|...........|...........|...........|...........|...........|===.....SD1|...........|...........|...........|===.....SD1|...........|...........|...........|A-411v39SD2|...........|...........|...........
|...........|...........|...........|...........|...........|A-605v64SD4|...........|...........|...........|...........|...........|...........|...........|...........|...........|...........|...........|A-422v64SD4|...........|...........|...........|...........|...........|...........|...........|...........|...........|...........|...........|...........|...........|...........|A-510v64SD4|...........|...........|...........|A-610v64SD4|...........|...........|...........|...........|...........|...........|...........
|...........|...........|...........|...........|...........|...........|===.....SD5|...........|...........|...........|...........|...........|...........|...........|...........|...........|...........|...........|===.....SD5|...........|...........|...........|...........|...........|...........|...........|...........|...........|...........|...........|...........|...........|...........|===.....SD5|...........|...........|...........|===.....SD5|...........|...........|...........|...........|...........|...........
|...........|...........|...........|...........|...........|...........|...........|...........|...........|...........|...........|...........|...........|...........|...........|...........|...........|...........|...........|...........|...........|...........|...........|...........|...........|...........|...........|...........|...........|...........|...........|...........|...........|...........|...........|...........|...........|...........|...........|...........|...........|...........|...........|...........
|D-403v64SD2|...........|...........|...........|...........|...........|F#705v64SD2|...........|...........|D-406v52SD2|...........|...........|...........|...........|...........|...........|...........|...........|F#522v64SD2|...........|...........|D-408v56SD2|...........|F#312v64SD2|C-302v64SD2|...........|...........|...........|...........|...........|...........|...........|...........|F#610v64SD2|...........|...........|...........|F#710v64SD2|...........|...........|D-411v39SD2|...........|...........|...........
|...........|...........|...........|...........|...........|===.....SD3|...........|...........|...........|...........|...........|...........|...........|...........|...........|...........|...........|===.....SD3|...........|...........|...........|...........|...........|...........|...........|...........|...........|...........|...........|...........|...........|...........|===.....SD3|...........|...........|...........|===.....SD3|...........|...........|...........|...........|...........|...........|...........
|...........|...........|...........|...........|...........|...........|...........|...........|...........|...........|...........|...........|...........|...........|...........|...........|...........|...........|...........|...........|...........|...........|...........|...........|...........|...........|...........|...........|...........|...........|...........|...........|...........|...........|...........|...........|...........|...........|...........|...........|...........|...........|...........|...........
|...........|...........|...........|...........|...........|D-705v64...|...........|...........|...........|...........|...........|...........|...........|...........|...........|...........|...........|D-522v64...|...........|...........|...........|...........|...........|...........|...........|...........|...........|...........|...........|...........|...........|...........|D-610v64...|...........|...........|...........|D-710v64...|...........|...........|...........|...........|...........|...........|...........
|A-403v64SD2|...........|...........|...........|...........|...........|===.....SD1|...........|...........|A-406v52SD2|...........|...........|...........|...........|...........|...........|...........|...........|===.....SD1|...........|...........|A-408v56SD2|...........|A#314v64SD2|...........|...........|...........|...........|...........|...........|...........|...........|...........|===.....SD1|...........|...........|...........|===.....SD1|...........|...........|A-411v39SD2|...........|...........|...........
|...........|...........|...........|...........|...........|...........|A-605v64SD4|...........|...........|...........|...........|...........|...........|...........|...........|...........|...........|...........|A-422v64SD4|...........|...........|...........|...........|...........|...........|...........|...........|...........|...........|...........|...........|...........|...........|A-510v64SD4|...........|...........|...........|A-610v64SD4|...........|...........|...........|...........|...........|...........
|...........|...........|...........|...........|...........|===.....SD5|...........|...........|...........|...........|...........|...........|...........|...........|...........|...........|...........|===.....SD5|...........|...........|...........|...........|...........|...........|...........|...........|...........|...........|...........|...........|...........|...........|===.....SD5|...........|...........|...........|===.....SD5|...........|...........|...........|...........|...........|...........|...........
|...........|...........|...........|...........|...........|...........|...........|...........|...........|...........|...........|...........|...........|...........|...........|...........|...........|...........|...........|...........|...........|...........|...........|...........|...........|...........|...........|...........|...........|...........|...........|...........|...........|...........|...........|...........|...........|...........|...........|...........|...........|...........|...........|...........
|D#403v64SD2|...........|...........|...........|...........|F#705v64SD2|...........|...........|...........|D#406v52SD2|...........|...........|...........|...........|...........|...........|...........|F#522v64SD2|...........|...........|...........|D#408v56SD2|...........|C#401v64SD2|F#312v64SD2|C-302v64SD2|...........|...........|...........|...........|...........|...........|F#610v64SD2|...........|...........|...........|F#710v64SD2|...........|...........|...........|D#411v39SD2|...........|...........|...........
|...........|...........|...........|...........|...........|...........|===.....SD3|...........|...........|...........|...........|...........|...........|...........|...........|...........|...........|...........|===.....SD3|...........|...........|...........|...........|...........|...........|...........|...........|...........|...........|...........|...........|...........|...........|===.....SD3|...........|...........|...........|===.....SD3|...........|...........|...........|...........|...........|...........
|...........|...........|...........|...........|...........|...........|...........|...........|...........|...........|...........|...........|...........|...........|...........|...........|...........|...........|...........|...........|...........|...........|...........|...........|...........|...........|...........|...........|...........|...........|...........|...........|...........|...........|...........|...........|...........|...........|...........|...........|...........|...........|...........|...........
|...........|...........|...........|...........|...........|...........|D#705v64...|...........|...........|...........|...........|...........|...........|...........|...........|...........|...........|...........|D#522v64...|...........|...........|...........|...........|...........|...........|...........|...........|...........|...........|...........|...........|...........|...........|D#610v64...|...........|...........|...........|D#710v64...|...........|...........|...........|...........|...........|...........
|A-403v64SD2|...........|...........|...........|...........|===.....SD1|...........|...........|...........|A-406v52SD2|...........|...........|...........|...........|...........|...........|...........|===.....SD1|...........|...........|...........|A-408v56SD2|...........|E-313v64SD2|A#314v64SD2|...........|...........|...........|...........|...........|...........|...........|===.....SD1|...........|...........|...........|===.....SD1|...........|...........|...........|A-411v39SD2|...........|...........|...........
|...........|...........|...........|...........|...........|A-605v64SD4|...........|...........|...........|...........|...........|...........|...........|...........|...........|...........|...........|A-422v64SD4|...........|...........|...........|...........|...........|...........|...........|...........|...........|...........|...........|...........|...........|...........|A-510v64SD4|...........|...........|...........|A-610v64SD4|...........|...........|...........|...........|...........|...........|...........
|...........|...........|...........|...........|...........|...........|===.....SD5|...........|...........|...........|...........|...........|...........|...........|...........|...........|...........|...........|===.....SD5|...........|...........|...........|...........|E-313v64SD2|...........|...........|...........|...........|...........|...........|...........|...........|...........|===.....SD5|...........|...........|...........|===.....SD5|...........|...........|...........|...........|...........|...........
|...........|...........|...........|...........|...........|...........|...........|...........|...........|...........|...........|...........|...........|...........|...........|...........|...........|...........|...........|...........|...........|...........|...........|...........|...........|...........|...........|...........|...........|...........|...........|...........|...........|...........|...........|...........|...........|...........|...........|...........|...........|...........|...........|...........
|D#403v64SD2|...........|...........|...........|...........|...........|F#705v64SD2|...........|...........|D#406v52SD2|...........|...........|...........|...........|...........|...........|...........|...........|F#522v64SD2|...........|...........|D#408v56SD2|...........|E-313v64SD2|F#312v64SD2|C-302v64SD2|...........|...........|...........|...........|...........|...........|...........|F#610v64SD2|...........|...........|...........|F#710v64SD2|...........|...........|D#411v39SD2|...........|...........|...........
|...........|...........|...........|...........|...........|===.....SD3|...........|...........|...........|...........|...........|...........|...........|...........|...........|...........|...........|===.....SD3|...........|...........|...........|...........|...........|...........|...........|...........|...........|...........|...........|...........|...........|...........|===.....SD3|...........|...........|...........|===.....SD3|...........|...........|...........|...........|...........|...........|...........
|...........|...........|...........|...........|...........|...........|...........|...........|...........|...........|...........|...........|...........|...........|...........|...........|...........|...........|...........|...........|...........|...........|...........|...........|...........|...........|...........|...........|...........|...........|...........|...........|...........|...........|...........|...........|...........|...........|...........|...........|...........|...........|...........|...........
|...........|...........|...........|...........|...........|D#705v64...|...........|...........|...........|...........|...........|...........|...........|...........|...........|...........|...........|D#522v64...|...........|...........|...........|...........|...........|...........|...........|...........|...........|...........|...........|...........|...........|...........|D#610v64...|...........|...........|...........|D#710v64...|...........|...........|...........|...........|...........|...........|...........
|A-403v64SD2|...........|...........|...........|...........|...........|===.....SD1|...........|...........|A-406v52SD2|...........|...........|...........|...........|...........|...........|...........|...........|===.....SD1|...........|...........|A-408v56SD2|...........|E-313v64SD2|A#314v64SD2|...........|...........|...........|...........|...........|...........|...........|...........|===.....SD1|...........|...........|...........|===.....SD1|...........|...........|A-411v39SD2|...........|...........|...........
|...........|...........|...........|...........|...........|...........|A-605v64SD4|...........|...........|...........|...........|...........|...........|...........|...........|...........|...........|...........|A-422v64SD4|...........|...........|...........|...........|...........|...........|...........|...........|...........|...........|...........|...........|...........|...........|A-510v64SD4|...........|...........|...........|A-610v64SD4|...........|...........|...........|...........|...........|...........
|...........|...........|...........|...........|...........|===.....SD5|...........|...........|...........|...........|...........|...........|...........|...........|...........|...........|...........|===.....SD5|...........|...........|...........|...........|...........|E-313v64SD2|...........|...........|...........|...........|...........|...........|...........|...........|===.....SD5|...........|...........|...........|===.....SD5|...........|...........|...........|...........|...........|...........|...........
|...........|...........|...........|...........|...........|...........|...........|...........|...........|...........|...........|...........|...........|...........|...........|...........|...........|...........|...........|...........|...........|...........|...........|...........|...........|...........|...........|...........|...........|...........|...........|...........|...........|...........|...........|...........|...........|...........|...........|...........|...........|...........|...........|...........


!channels=33+34+35+36
!octaves=0+0+0+0

|D#403v64SD2|B-403v64SD2|...........|...........|...........|D#705v64SD2|...........|G-705v64SD2|B-705v64SD2|D#406v52SD2|B-406v52SD2|...........|...........|...........|...........|...........|...........|D#522v64SD2|...........|G-522v64SD2|B-522v64SD2|D#408v56SD2|B-408v56SD2|D#416v64SD2|E-313v64SD2|C-302v64SD2|...........|...........|...........|...........|...........|...........|D#610v64SD2|...........|G-610v64SD2|B-610v64SD2|D#710v64SD2|...........|G-710v64SD2|B-710v64SD2|D#411v39SD2|B-411v39SD2|...........|...........
|...........|...........|...........|...........|...........|...........|===.....SD3|...........|...........|...........|...........|...........|...........|...........|...........|...........|...........|...........|===.....SD3|...........|...........|...........|...........|...........|...........|...........|...........|...........|...........|...........|...........|...........|...........|===.....SD3|...........|...........|...........|===.....SD3|...........|...........|...........|...........|...........|...........
|...........|...........|...........|...........|...........|...........|...........|...........|...........|...........|...........|...........|...........|...........|...........|...........|...........|...........|...........|...........|...........|...........|...........|...........|...........|...........|...........|...........|...........|...........|...........|...........|...........|...........|...........|...........|...........|...........|...........|...........|...........|...........|...........|...........
|===.....SD2|===.....SD2|...........|...........|...........|===.....SD2|...........|===.....SD2|===.....SD2|===.....SD2|===.....SD2|...........|...........|...........|...........|...........|...........|===.....SD2|...........|===.....SD2|===.....SD2|===.....SD2|===.....SD2|...........|...........|...........|...........|...........|...........|...........|...........|...........|===.....SD2|...........|===.....SD2|===.....SD2|===.....SD2|...........|===.....SD2|===.....SD2|===.....SD2|===.....SD2|...........|...........
|...........|...........|...........|...........|...........|...........|...........|...........|...........|...........|...........|...........|...........|...........|...........|...........|...........|...........|...........|...........|...........|...........|...........|A#314v64SD2|...........|...........|...........|...........|...........|...........|...........|...........|...........|...........|...........|...........|...........|...........|...........|...........|...........|...........|...........|...........
|...........|...........|...........|...........|...........|...........|...........|...........|...........|...........|...........|...........|...........|...........|...........|...........|...........|...........|...........|...........|...........|...........|...........|...........|...........|...........|...........|...........|...........|...........|...........|...........|...........|...........|...........|...........|...........|...........|...........|...........|...........|...........|...........|...........
|D#403v64SD2|B-403v64SD2|...........|...........|...........|D#705v64SD2|G-705v64SD2|B-705v64SD2|...........|D#406v52SD2|B-406v52SD2|...........|...........|...........|...........|...........|...........|D#522v64SD2|G-522v64SD2|B-522v64SD2|...........|D#408v56SD2|B-408v56SD2|D#416v64SD2|D-315v64SD2|E-313v64SD2|...........|...........|...........|...........|...........|...........|D#610v64SD2|G-610v64SD2|B-610v64SD2|...........|D#710v64SD2|G-710v64SD2|B-710v64SD2|...........|D#411v39SD2|B-411v39SD2|...........|...........
|...........|...........|...........|...........|...........|...........|...........|...........|...........|...........|...........|...........|...........|...........|...........|...........|...........|...........|...........|...........|...........|...........|...........|...........|...........|...........|...........|...........|...........|...........|...........|...........|...........|...........|...........|...........|...........|...........|...........|...........|...........|...........|...........|...........
|...........|...........|...........|...........|...........|...........|...........|...........|...........|...........|...........|...........|...........|...........|...........|...........|...........|...........|...........|...........|...........|...........|...........|C-302v64SD2|...........|...........|...........|...........|...........|...........|...........|...........|...........|...........|...........|...........|...........|...........|...........|...........|...........|...........|...........|...........
|===.....SD2|===.....SD2|...........|...........|...........|===.....SD2|===.....SD2|===.....SD2|...........|===.....SD2|===.....SD2|...........|...........|...........|...........|...........|...........|===.....SD2|===.....SD2|===.....SD2|...........|===.....SD2|===.....SD2|...........|...........|...........|...........|...........|...........|...........|...........|...........|===.....SD2|===.....SD2|===.....SD2|...........|===.....SD2|===.....SD2|===.....SD2|...........|===.....SD2|===.....SD2|...........|...........
|...........|...........|...........|...........|...........|...........|...........|...........|...........|...........|...........|...........|...........|...........|...........|...........|...........|...........|...........|...........|...........|...........|...........|...........|...........|...........|...........|...........|...........|...........|...........|...........|...........|...........|...........|...........|...........|...........|...........|...........|...........|...........|...........|...........
|...........|...........|...........|...........|...........|...........|...........|...........|...........|...........|...........|...........|...........|...........|...........|...........|...........|...........|...........|...........|...........|...........|...........|...........|...........|...........|...........|...........|...........|...........|...........|...........|...........|...........|...........|...........|...........|...........|...........|...........|...........|...........|...........|...........
|D#403v64SD2|B-403v64SD2|...........|...........|...........|D#705v64SD2|G-705v64SD2|B-705v64SD2|...........|D#406v52SD2|B-406v52SD2|...........|...........|...........|...........|...........|...........|D#522v64SD2|G-522v64SD2|B-522v64SD2|...........|D#408v56SD2|B-408v56SD2|D#416v64SD2|D-315v64SD2|E-313v64SD2|...........|...........|...........|...........|...........|...........|D#610v64SD2|G-610v64SD2|B-610v64SD2|...........|D#710v64SD2|G-710v64SD2|B-710v64SD2|...........|D#411v39SD2|B-411v39SD2|...........|...........
|...........|...........|...........|...........|...........|...........|...........|...........|...........|...........|...........|...........|...........|...........|...........|...........|...........|...........|...........|...........|...........|...........|...........|...........|...........|...........|...........|...........|...........|...........|...........|...........|...........|...........|...........|...........|...........|...........|...........|...........|...........|...........|...........|...........
|...........|...........|...........|...........|...........|...........|...........|...........|...........|...........|...........|...........|...........|...........|...........|...........|...........|...........|...........|...........|...........|...........|...........|...........|...........|...........|...........|...........|...........|...........|...........|...........|...........|...........|...........|...........|...........|...........|...........|...........|...........|...........|...........|...........
|...........|...........|...........|...........|...........|...........|...........|...........|...........|...........|...........|...........|...........|...........|...........|...........|...........|...........|...........|...........|...........|...........|...........|...........|...........|...........|...........|...........|...........|...........|...........|...........|...........|...........|...........|...........|...........|...........|...........|...........|...........|...........|...........|...........

!channels=1+8+10+11
!octaves=1+0+0+0
|C-403v64SD2|===.....SD1|...........|...........|...........|C-405v64SD2|G-405v64SD2|D#505v64SD2|...........|D#706v44SD2|===.....SD1|...........|...........|...........|...........|...........|...........|===.....SD1|===.....SD1|===.....SD1|...........|===.....SD1|===.....SD1|C#401v64SD2|C#320v64SD2|D#416v64SD2|F#312v64SD2|C-302v64SD2|...........|...........|...........|...........|===.....SD1|===.....SD1|===.....SD1|...........|C-410v62SD2|G-410v62SD2|D#510v62SD2|...........|D#711v33SD2|===.....SD1|...........|........T9B
|...........|...........|...........|...........|...........|...........|...........|...........|...........|...........|...........|...........|...........|...........|...........|...........|...........|...........|...........|...........|...........|...........|...........|...........|...........|...........|...........|...........|...........|...........|...........|...........|...........|...........|...........|...........|...........|...........|...........|...........|...........|...........|...........|...........
|...........|...........|...........|...........|...........|...........|...........|...........|...........|...........|...........|...........|...........|...........|...........|...........|...........|...........|...........|...........|...........|...........|...........|...........|...........|...........|...........|...........|...........|...........|...........|...........|...........|...........|...........|...........|...........|...........|...........|...........|...........|...........|...........|...........
|...........|...........|...........|...........|...........|...........|...........|...........|...........|...........|...........|...........|...........|...........|...........|...........|...........|...........|...........|...........|...........|...........|...........|...........|...........|...........|...........|...........|...........|...........|...........|...........|...........|...........|...........|...........|...........|...........|...........|...........|...........|...........|...........|...........
|G-403v64SD2|...........|...........|...........|...........|...........|...........|...........|...........|...........|...........|...........|...........|...........|...........|...........|...........|...........|...........|...........|...........|...........|...........|F#312v64SD2|...........|...........|...........|...........|...........|...........|...........|...........|...........|...........|...........|...........|...........|...........|...........|...........|...........|...........|...........|...........
|...........|...........|...........|...........|...........|...........|...........|...........|...........|...........|...........|...........|...........|...........|...........|...........|...........|...........|...........|...........|...........|...........|...........|...........|...........|...........|...........|...........|...........|...........|...........|...........|...........|...........|...........|...........|...........|...........|...........|...........|...........|...........|...........|...........
|...........|...........|...........|...........|...........|...........|...........|...........|...........|...........|...........|...........|...........|...........|...........|...........|...........|...........|...........|...........|...........|...........|...........|...........|...........|...........|...........|...........|...........|...........|...........|...........|...........|...........|...........|...........|...........|...........|...........|...........|...........|...........|...........|...........
|...........|...........|...........|...........|...........|...........|...........|...........|...........|...........|...........|...........|...........|...........|...........|...........|...........|...........|...........|...........|...........|...........|...........|...........|...........|...........|...........|...........|...........|...........|...........|...........|...........|...........|...........|...........|...........|...........|...........|...........|...........|...........|...........|...........
|C-403v64SD2|...........|...........|...........|...........|...........|...........|...........|...........|...........|...........|...........|...........|...........|...........|...........|...........|...........|...........|...........|...........|...........|...........|C#320v64SD2|A#314v64SD2|C-302v64SD2|...........|...........|...........|...........|...........|...........|...........|...........|...........|...........|...........|...........|...........|...........|...........|...........|...........|...........
|...........|...........|...........|...........|...........|...........|...........|...........|...........|...........|...........|...........|...........|...........|...........|...........|...........|...........|...........|...........|...........|...........|...........|...........|...........|...........|...........|...........|...........|...........|...........|...........|...........|...........|...........|...........|...........|...........|...........|...........|...........|...........|...........|...........
|...........|...........|...........|...........|...........|...........|...........|...........|...........|...........|...........|...........|...........|...........|...........|...........|...........|...........|...........|...........|...........|...........|...........|...........|...........|...........|...........|...........|...........|...........|...........|...........|...........|...........|...........|...........|...........|...........|...........|...........|...........|...........|...........|...........
|...........|...........|...........|...........|...........|...........|...........|...........|...........|...........|...........|...........|...........|...........|...........|...........|...........|...........|...........|...........|...........|...........|...........|...........|...........|...........|...........|...........|...........|...........|...........|...........|...........|...........|...........|...........|...........|...........|...........|...........|...........|...........|...........|...........
|G-403v64SD2|...........|...........|...........|...........|...........|...........|...........|...........|...........|...........|...........|...........|...........|...........|...........|...........|...........|...........|...........|...........|...........|...........|F#312v64SD2|...........|...........|...........|...........|...........|...........|...........|...........|...........|...........|...........|...........|...........|...........|...........|...........|...........|...........|...........|...........
|...........|...........|...........|...........|...........|...........|...........|...........|...........|...........|...........|...........|...........|...........|...........|...........|...........|...........|...........|...........|...........|...........|...........|...........|...........|...........|...........|...........|...........|...........|...........|...........|...........|...........|...........|...........|...........|...........|...........|...........|...........|...........|...........|...........
|...........|...........|...........|...........|...........|...........|...........|...........|...........|...........|...........|...........|...........|...........|...........|...........|...........|...........|...........|...........|...........|...........|...........|F#312v64SD2|...........|...........|...........|...........|...........|...........|...........|...........|...........|...........|...........|...........|...........|...........|...........|...........|...........|...........|...........|...........
|...........|...........|...........|...........|...........|===.....SD4|===.....SD4|===.....SD4|...........|===.....SD4|...........|...........|...........|...........|...........|...........|...........|...........|...........|...........|...........|...........|...........|...........|...........|...........|...........|...........|...........|...........|...........|...........|...........|...........|...........|...........|===.....SD4|===.....SD4|===.....SD4|...........|===.....SD4|...........|...........|...........
|B-303v64SD2|...........|...........|...........|...........|B-305v64SD2|F#405v64SD2|D-505v64SD2|...........|D-706v44SD2|...........|...........|...........|...........|...........|...........|...........|...........|...........|...........|...........|...........|...........|C#320v64SD2|F#312v64SD2|C-302v64SD2|...........|...........|...........|...........|...........|...........|...........|...........|...........|...........|B-310v62SD2|F#410v62SD2|D-510v62SD2|...........|D-711v33SD2|...........|...........|...........

ModPlug Tracker MPT
|...........|...........|...........|...........|...........|...........|...........|...........|...........|...........|...........|...........|...........|...........|...........|...........|...........|...........|...........|...........|...........|...........|...........|...........|...........|...........|...........|...........|...........|...........|...........|...........|...........|...........|...........|...........|...........|...........|...........|...........|...........|...........|...........|...........
|...........|...........|...........|...........|...........|...........|...........|...........|...........|...........|...........|...........|...........|...........|...........|...........|...........|...........|...........|...........|...........|...........|...........|...........|...........|...........|...........|...........|...........|...........|...........|...........|...........|...........|...........|...........|...........|...........|...........|...........|...........|...........|...........|...........
|...........|...........|...........|...........|...........|...........|...........|...........|...........|...........|...........|...........|...........|...........|...........|...........|...........|...........|...........|...........|...........|...........|...........|...........|...........|...........|...........|...........|...........|...........|...........|...........|...........|...........|...........|...........|...........|...........|...........|...........|...........|...........|...........|...........
|F#403v64SD2|...........|...........|...........|...........|...........|...........|...........|...........|...........|...........|...........|...........|...........|...........|...........|...........|...........|...........|...........|...........|...........|...........|E-313v42SD2|A#314v64SD2|...........|...........|...........|...........|...........|...........|...........|...........|...........|...........|...........|...........|...........|...........|...........|...........|...........|...........|...........
|...........|...........|...........|...........|...........|...........|...........|...........|...........|...........|...........|...........|...........|...........|...........|...........|...........|...........|...........|...........|...........|...........|...........|...........|...........|...........|...........|...........|...........|...........|...........|...........|...........|...........|...........|...........|...........|...........|...........|...........|...........|...........|...........|...........
|...........|...........|...........|...........|...........|...........|...........|...........|...........|...........|...........|...........|...........|...........|...........|...........|...........|...........|...........|...........|...........|...........|...........|...........|...........|...........|...........|...........|...........|...........|...........|...........|...........|...........|...........|...........|...........|...........|...........|...........|...........|...........|...........|...........
|...........|...........|...........|...........|...........|...........|...........|...........|...........|...........|...........|...........|...........|...........|...........|...........|...........|...........|...........|...........|...........|...........|...........|...........|...........|...........|...........|...........|...........|...........|...........|...........|...........|...........|...........|...........|...........|...........|...........|...........|...........|...........|...........|...........
|B-303v64SD2|...........|...........|...........|...........|...........|...........|...........|...........|...........|...........|...........|...........|...........|...........|...........|...........|...........|...........|...........|...........|...........|...........|C#320v64SD2|F#312v64SD2|C-302v64SD2|...........|...........|...........|...........|...........|...........|...........|...........|...........|...........|...........|...........|...........|...........|...........|...........|...........|...........
|...........|...........|...........|...........|...........|...........|...........|...........|...........|...........|...........|...........|...........|...........|...........|...........|...........|...........|...........|...........|...........|...........|...........|...........|...........|...........|...........|...........|...........|...........|...........|...........|...........|...........|...........|...........|...........|...........|...........|...........|...........|...........|...........|...........
|...........|...........|...........|...........|...........|...........|...........|...........|...........|...........|...........|...........|...........|...........|...........|...........|...........|...........|...........|...........|...........|...........|...........|...........|...........|...........|...........|...........|...........|...........|...........|...........|...........|...........|...........|...........|...........|...........|...........|...........|...........|...........|...........|...........
|...........|...........|...........|...........|...........|...........|...........|...........|...........|...........|...........|...........|...........|...........|...........|...........|...........|...........|...........|...........|...........|...........|...........|...........|...........|...........|...........|...........|...........|...........|...........|...........|...........|...........|...........|...........|...........|...........|...........|...........|...........|...........|...........|...........
|F#403v64SD2|...........|...........|...........|...........|...........|...........|...........|...........|...........|...........|...........|...........|...........|...........|...........|...........|...........|...........|...........|...........|...........|...........|D-315v59SD2|A#314v64SD2|...........|...........|...........|...........|...........|...........|...........|...........|...........|...........|...........|...........|...........|...........|...........|...........|...........|...........|...........
|...........|...........|...........|...........|...........|...........|...........|...........|...........|...........|...........|...........|...........|...........|...........|...........|...........|...........|...........|...........|...........|...........|...........|...........|...........|...........|...........|...........|...........|...........|...........|...........|...........|...........|...........|...........|...........|...........|...........|...........|...........|...........|...........|...........
|...........|...........|...........|...........|...........|...........|...........|...........|...........|...........|...........|...........|...........|...........|...........|...........|...........|...........|...........|...........|...........|...........|...........|F#312v64SD2|...........|...........|...........|...........|...........|...........|...........|...........|...........|...........|...........|...........|...........|...........|...........|...........|...........|...........|...........|...........
|...........|...........|...........|...........|...........|===.....SD4|===.....SD4|===.....SD4|...........|===.....SD4|...........|...........|...........|...........|...........|...........|...........|...........|...........|...........|...........|...........|...........|...........|...........|...........|...........|...........|...........|...........|...........|...........|...........|...........|...........|...........|===.....SD4|===.....SD4|===.....SD4|...........|===.....SD4|...........|...........|...........
|D-403v64SD2|...........|...........|...........|...........|D-405v64SD2|A-405v64SD2|F#505v64SD2|...........|F#706v44SD2|...........|...........|...........|...........|...........|...........|...........|...........|...........|...........|...........|...........|...........|C#320v64SD2|D#416v64SD2|F#312v64SD2|C-302v64SD2|...........|...........|...........|...........|...........|...........|...........|...........|...........|D-410v62SD2|A-410v62SD2|F#510v62SD2|...........|F#711v33SD2|...........|...........|...........
|...........|...........|...........|...........|...........|...........|...........|...........|...........|...........|...........|...........|...........|...........|...........|...........|...........|...........|...........|...........|...........|...........|...........|...........|...........|...........|...........|...........|...........|...........|...........|...........|...........|...........|...........|...........|...........|...........|...........|...........|...........|...........|...........|...........
|...........|...........|...........|...........|...........|...........|...........|...........|...........|...........|...........|...........|...........|...........|...........|...........|...........|...........|...........|...........|...........|...........|...........|...........|...........|...........|...........|...........|...........|...........|...........|...........|...........|...........|...........|...........|...........|...........|...........|...........|...........|...........|...........|...........
|...........|...........|...........|...........|...........|...........|...........|...........|...........|...........|...........|...........|...........|...........|...........|...........|...........|...........|...........|...........|...........|...........|...........|...........|...........|...........|...........|...........|...........|...........|...........|...........|...........|...........|...........|...........|...........|...........|...........|...........|...........|...........|...........|...........
|A-403v64SD2|...........|...........|...........|...........|...........|...........|...........|...........|...........|...........|...........|...........|...........|...........|...........|...........|...........|...........|...........|...........|...........|...........|F#312v64SD2|...........|...........|...........|...........|...........|...........|...........|...........|...........|...........|...........|...........|...........|...........|...........|...........|...........|...........|...........|...........
|...........|...........|...........|...........|...........|...........|...........|...........|...........|...........|...........|...........|...........|...........|...........|...........|...........|...........|...........|...........|...........|...........|...........|...........|...........|...........|...........|...........|...........|...........|...........|...........|...........|...........|...........|...........|...........|...........|...........|...........|...........|...........|...........|...........
|...........|...........|...........|...........|...........|...........|...........|...........|...........|...........|...........|...........|...........|...........|...........|...........|...........|...........|...........|...........|...........|...........|...........|...........|...........|...........|...........|...........|...........|...........|...........|...........|...........|...........|...........|...........|...........|...........|...........|...........|...........|...........|...........|...........
|...........|...........|...........|...........|...........|...........|...........|...........|...........|...........|...........|...........|...........|...........|...........|...........|...........|...........|...........|...........|...........|...........|...........|...........|...........|...........|...........|...........|...........|...........|...........|...........|...........|...........|...........|...........|...........|...........|...........|...........|...........|...........|...........|...........
|D-403v64SD2|...........|...........|...........|...........|...........|...........|...........|...........|...........|...........|...........|...........|...........|...........|...........|...........|...........|...........|...........|...........|...........|...........|C#320v64SD2|A#314v64SD2|C-302v64SD2|...........|...........|...........|...........|...........|...........|...........|...........|...........|...........|...........|...........|...........|...........|...........|...........|...........|...........
|...........|...........|...........|...........|...........|...........|...........|...........|...........|...........|...........|...........|...........|...........|...........|...........|...........|...........|...........|...........|...........|...........|...........|...........|...........|...........|...........|...........|...........|...........|...........|...........|...........|...........|...........|...........|...........|...........|...........|...........|...........|...........|...........|...........
|...........|...........|...........|...........|...........|...........|...........|...........|...........|...........|...........|...........|...........|...........|...........|...........|...........|...........|...........|...........|...........|...........|...........|...........|...........|...........|...........|...........|...........|...........|...........|...........|...........|...........|...........|...........|...........|...........|...........|...........|...........|...........|...........|...........
|...........|...........|...........|...........|...........|...........|...........|...........|...........|...........|...........|...........|...........|...........|...........|...........|...........|...........|...........|...........|...........|...........|...........|...........|...........|...........|...........|...........|...........|...........|...........|...........|...........|...........|...........|...........|...........|...........|...........|...........|...........|...........|...........|...........
|A-403v64SD2|...........|...........|...........|...........|...........|...........|...........|...........|...........|...........|...........|...........|...........|...........|...........|...........|...........|...........|...........|...........|...........|...........|D-315v64SD2|F#312v64SD2|...........|...........|...........|...........|...........|...........|...........|...........|...........|...........|...........|...........|...........|...........|...........|...........|...........|...........|...........
|...........|...........|...........|...........|...........|...........|...........|...........|...........|...........|...........|...........|...........|...........|...........|...........|...........|...........|...........|...........|...........|...........|...........|...........|...........|...........|...........|...........|...........|...........|...........|...........|...........|...........|...........|...........|...........|...........|...........|...........|...........|...........|...........|...........
|...........|...........|...........|...........|...........|...........|...........|...........|...........|...........|...........|...........|...........|...........|...........|...........|...........|...........|...........|...........|...........|...........|...........|F#312v64SD2|...........|...........|...........|...........|...........|...........|...........|...........|...........|...........|...........|...........|...........|...........|...........|...........|...........|...........|...........|...........
|...........|...........|...........|...........|...........|===.....SD4|===.....SD4|===.....SD4|...........|===.....SD4|...........|...........|...........|...........|...........|...........|...........|...........|...........|...........|...........|...........|...........|...........|...........|...........|...........|...........|...........|...........|...........|...........|...........|...........|...........|...........|===.....SD4|===.....SD4|===.....SD4|...........|===.....SD4|...........|...........|...........
|C#403v64SD2|...........|...........|...........|...........|C#405v64SD2|G#405v64SD2|F-505v64SD2|...........|F-706v44SD2|...........|...........|...........|...........|...........|...........|...........|...........|...........|...........|...........|...........|...........|C#320v64SD2|F#312v64SD2|C-302v64SD2|...........|...........|...........|...........|...........|...........|...........|...........|...........|...........|C#410v62SD2|G#410v62SD2|F-510v62SD2|...........|F-711v33SD2|...........|...........|...........
|...........|...........|...........|...........|...........|...........|...........|...........|...........|...........|...........|...........|...........|...........|...........|...........|...........|...........|...........|...........|...........|...........|...........|...........|...........|...........|...........|...........|...........|...........|...........|...........|...........|...........|...........|...........|...........|...........|...........|...........|...........|...........|...........|...........
|...........|...........|...........|...........|...........|...........|...........|...........|...........|...........|...........|...........|...........|...........|...........|...........|...........|...........|...........|...........|...........|...........|...........|...........|...........|...........|...........|...........|...........|...........|...........|...........|...........|...........|...........|...........|...........|...........|...........|...........|...........|...........|...........|...........
|...........|...........|...........|...........|...........|...........|...........|...........|...........|...........|...........|...........|...........|...........|...........|...........|...........|...........|...........|...........|...........|...........|...........|...........|...........|...........|...........|...........|...........|...........|...........|...........|...........|...........|...........|...........|...........|...........|...........|...........|...........|...........|...........|...........
|G#403v64SD2|...........|...........|...........|...........|...........|...........|...........|...........|...........|...........|...........|...........|...........|...........|...........|...........|...........|...........|...........|...........|...........|...........|A#314v64SD2|...........|...........|...........|...........|...........|...........|...........|...........|...........|...........|...........|...........|...........|...........|...........|...........|...........|...........|...........|...........
|...........|...........|...........|...........|...........|...........|...........|...........|...........|...........|...........|...........|...........|...........|...........|...........|...........|...........|...........|...........|...........|...........|...........|...........|...........|...........|...........|...........|...........|...........|...........|...........|...........|...........|...........|...........|...........|...........|...........|...........|...........|...........|...........|...........
|...........|...........|...........|...........|...........|...........|...........|...........|...........|...........|...........|...........|...........|...........|...........|...........|...........|...........|...........|...........|...........|...........|...........|...........|...........|...........|...........|...........|...........|...........|...........|...........|...........|...........|...........|...........|...........|...........|...........|...........|...........|...........|...........|...........
|...........|...........|...........|...........|...........|...........|...........|...........|...........|...........|...........|...........|...........|...........|...........|...........|...........|...........|...........|...........|...........|...........|...........|...........|...........|...........|...........|...........|...........|...........|...........|...........|...........|...........|...........|...........|...........|...........|...........|...........|...........|...........|...........|...........
|C#403v64SD2|...........|...........|...........|...........|...........|...........|...........|...........|...........|...........|...........|...........|...........|...........|...........|...........|...........|...........|...........|...........|...........|...........|C#320v64SD2|F#312v64SD2|C-302v64SD2|...........|...........|...........|...........|...........|...........|...........|...........|...........|...........|...........|...........|...........|...........|...........|...........|...........|...........
|...........|...........|...........|...........|...........|...........|...........|...........|...........|...........|...........|...........|...........|...........|...........|...........|...........|...........|...........|...........|...........|...........|...........|...........|...........|...........|...........|...........|...........|...........|...........|...........|...........|...........|...........|...........|...........|...........|...........|...........|...........|...........|...........|...........
|...........|...........|...........|...........|...........|...........|...........|...........|...........|...........|...........|...........|...........|...........|...........|...........|...........|...........|...........|...........|...........|...........|...........|...........|...........|...........|...........|...........|...........|...........|...........|...........|...........|...........|...........|...........|...........|...........|...........|...........|...........|...........|...........|...........
|...........|...........|...........|...........|...........|...........|...........|...........|...........|...........|...........|...........|...........|...........|...........|...........|...........|...........|...........|...........|...........|...........|...........|...........|...........|...........|...........|...........|...........|...........|...........|...........|...........|...........|...........|...........|...........|...........|...........|...........|...........|...........|...........|...........
|G#403v64SD2|...........|...........|...........|...........|...........|...........|...........|...........|...........|...........|...........|...........|...........|...........|...........|...........|...........|...........|...........|...........|...........|...........|D-315v64SD2|A#314v64SD2|...........|...........|...........|...........|...........|...........|...........|...........|...........|...........|...........|...........|...........|...........|...........|...........|...........|...........|...........
|...........|...........|...........|...........|...........|...........|...........|...........|...........|...........|...........|...........|...........|...........|...........|...........|...........|...........|...........|...........|...........|...........|...........|...........|...........|...........|...........|...........|...........|...........|...........|...........|...........|...........|...........|...........|...........|...........|...........|...........|...........|...........|...........|...........
|...........|...........|...........|...........|...........|...........|...........|...........|...........|...........|...........|...........|...........|...........|...........|...........|...........|...........|...........|...........|...........|...........|...........|F#312v64SD2|...........|...........|...........|...........|...........|...........|...........|...........|...........|...........|...........|...........|...........|...........|...........|...........|...........|...........|...........|...........
|...........|...........|...........|...........|...........|===.....SD4|===.....SD4|===.....SD4|...........|===.....SD4|...........|...........|...........|...........|...........|...........|...........|...........|...........|...........|...........|...........|...........|...........|...........|...........|...........|...........|...........|...........|...........|...........|...........|...........|...........|...........|===.....SD4|===.....SD4|===.....SD4|...........|===.....SD4|...........|...........|...........
|C-403v64SD2|...........|...........|...........|...........|C-405v64SD2|G-405v64SD2|D#505v64SD2|...........|...........|...........|...........|...........|...........|...........|...........|...........|...........|...........|...........|...........|...........|...........|C#320v64SD2|D#416v64SD2|F#312v64SD2|C-302v64SD2|...........|...........|...........|...........|...........|...........|...........|...........|...........|C-410v62SD2|G-410v62SD2|D#510v62SD2|...........|...........|...........|...........|...........
|...........|...........|...........|...........|...........|...........|...........|...........|...........|...........|...........|...........|...........|...........|...........|...........|...........|...........|...........|...........|...........|...........|...........|...........|...........|...........|...........|...........|...........|...........|...........|...........|...........|...........|...........|...........|...........|...........|...........|...........|...........|...........|...........|...........
|...........|...........|...........|...........|...........|...........|...........|...........|...........|...........|...........|...........|...........|...........|...........|...........|...........|...........|...........|...........|...........|...........|...........|...........|...........|...........|...........|...........|...........|...........|...........|...........|...........|...........|...........|...........|...........|...........|...........|...........|...........|...........|...........|...........
|...........|...........|...........|...........|...........|...........|...........|...........|...........|...........|...........|...........|...........|...........|...........|...........|...........|...........|...........|...........|...........|...........|...........|...........|...........|...........|...........|...........|...........|...........|...........|...........|...........|...........|...........|...........|...........|...........|...........|...........|...........|...........|...........|...........
|G-403v64SD2|...........|...........|...........|...........|...........|...........|...........|...........|G-606v64SD2|D#706v64SD2|...........|...........|...........|...........|...........|...........|...........|...........|...........|...........|...........|...........|F#312v64SD2|...........|...........|...........|...........|...........|...........|...........|...........|...........|...........|...........|...........|...........|...........|...........|...........|G-611v52SD2|D#711v52SD2|...........|...........
|...........|...........|...........|...........|...........|...........|...........|...........|...........|...........|...........|...........|...........|...........|...........|...........|...........|...........|...........|...........|...........|...........|...........|...........|...........|...........|...........|...........|...........|...........|...........|...........|...........|...........|...........|...........|...........|...........|...........|...........|...........|...........|...........|...........
|...........|...........|...........|...........|...........|...........|...........|...........|...........|===.....SD2|===.....SD2|...........|...........|...........|...........|...........|...........|...........|...........|...........|...........|...........|...........|...........|...........|...........|...........|...........|...........|...........|...........|...........|...........|...........|...........|...........|...........|...........|...........|...........|===.....SD2|===.....SD2|...........|...........
|...........|...........|...........|...........|...........|...........|...........|...........|...........|...........|...........|...........|...........|...........|...........|...........|...........|...........|...........|...........|...........|...........|...........|...........|...........|...........|...........|...........|...........|...........|...........|...........|...........|...........|...........|...........|...........|...........|...........|...........|...........|...........|...........|...........
|C-403v64SD2|...........|...........|...........|...........|...........|...........|...........|...........|...........|...........|...........|...........|...........|...........|...........|...........|...........|...........|...........|...........|...........|...........|C#320v64SD2|A#314v64SD2|C-302v64SD2|...........|...........|...........|...........|...........|...........|...........|...........|...........|...........|...........|...........|...........|...........|...........|...........|...........|...........
|...........|...........|...........|...........|...........|...........|...........|...........|...........|...........|...........|...........|...........|...........|...........|...........|...........|...........|...........|...........|...........|...........|...........|...........|...........|...........|...........|...........|...........|...........|...........|...........|...........|...........|...........|...........|...........|...........|...........|...........|...........|...........|...........|...........
|...........|...........|...........|...........|...........|...........|...........|...........|...........|...........|...........|...........|...........|...........|...........|...........|...........|...........|...........|...........|...........|...........|...........|...........|...........|...........|...........|...........|...........|...........|...........|...........|...........|...........|...........|...........|...........|...........|...........|...........|...........|...........|...........|...........
|...........|...........|...........|...........|...........|...........|...........|...........|...........|...........|...........|...........|...........|...........|...........|...........|...........|...........|...........|...........|...........|...........|...........|...........|...........|...........|...........|...........|...........|...........|...........|...........|...........|...........|...........|...........|...........|...........|...........|...........|...........|...........|...........|...........
|G-403v64SD2|...........|...........|...........|...........|...........|...........|...........|...........|G-606v64SD2|D#706v64SD2|...........|...........|...........|...........|...........|...........|...........|...........|...........|...........|...........|...........|F#312v64SD2|...........|...........|...........|...........|...........|...........|...........|...........|...........|...........|...........|...........|...........|...........|...........|...........|G-611v52SD2|D#711v52SD2|...........|...........
|...........|...........|...........|...........|...........|...........|...........|...........|...........|...........|...........|...........|...........|...........|...........|...........|...........|...........|...........|...........|...........|...........|...........|...........|...........|...........|...........|...........|...........|...........|...........|...........|...........|...........|...........|...........|...........|...........|...........|...........|...........|...........|...........|...........
|...........|...........|...........|...........|...........|...........|...........|...........|...........|===.....SD2|===.....SD2|...........|...........|...........|...........|...........|...........|...........|...........|...........|...........|...........|...........|F#312v64SD2|...........|...........|...........|...........|...........|...........|...........|...........|...........|...........|...........|...........|...........|...........|...........|...........|===.....SD2|===.....SD2|...........|...........
|...........|...........|...........|...........|...........|===.....SD4|===.....SD4|===.....SD4|...........|...........|...........|...........|...........|...........|...........|...........|...........|...........|...........|...........|...........|...........|...........|...........|...........|...........|...........|...........|...........|...........|...........|...........|...........|...........|...........|...........|===.....SD4|===.....SD4|===.....SD4|...........|...........|...........|...........|...........
|B-303v64SD2|...........|...........|...........|...........|B-305v64SD2|F#405v64SD2|D-505v64SD2|...........|...........|...........|...........|...........|...........|...........|...........|...........|...........|...........|...........|...........|...........|...........|C#320v64SD2|F#312v64SD2|C-302v64SD2|...........|...........|...........|...........|...........|...........|...........|...........|...........|...........|B-310v62SD2|F#410v62SD2|D-510v62SD2|...........|...........|...........|...........|...........
|...........|...........|...........|...........|...........|...........|...........|...........|...........|...........|...........|...........|...........|...........|...........|...........|...........|...........|...........|...........|...........|...........|...........|...........|...........|...........|...........|...........|...........|...........|...........|...........|...........|...........|...........|...........|...........|...........|...........|...........|...........|...........|...........|...........
|...........|...........|...........|...........|...........|...........|...........|...........|...........|...........|...........|...........|...........|...........|...........|...........|...........|...........|...........|...........|...........|...........|...........|...........|...........|...........|...........|...........|...........|...........|...........|...........|...........|...........|...........|...........|...........|...........|...........|...........|...........|...........|...........|...........
|...........|...........|...........|...........|...........|...........|...........|...........|...........|...........|...........|...........|...........|...........|...........|...........|...........|...........|...........|...........|...........|...........|...........|...........|...........|...........|...........|...........|...........|...........|...........|...........|...........|...........|...........|...........|...........|...........|...........|...........|...........|...........|...........|...........
|F#403v64SD2|...........|...........|...........|...........|...........|...........|...........|...........|F#606v64SD2|D-706v64SD2|...........|...........|...........|...........|...........|...........|...........|...........|...........|...........|...........|...........|E-313v42SD2|A#314v64SD2|...........|...........|...........|...........|...........|...........|...........|...........|...........|...........|...........|...........|...........|...........|...........|F#611v52SD2|D-711v52SD2|...........|...........
|...........|...........|...........|...........|...........|...........|...........|...........|...........|...........|...........|...........|...........|...........|...........|...........|...........|...........|...........|...........|...........|...........|...........|...........|...........|...........|...........|...........|...........|...........|...........|...........|...........|...........|...........|...........|...........|...........|...........|...........|...........|...........|...........|...........
|...........|...........|...........|...........|...........|...........|...........|...........|...........|===.....SD2|===.....SD2|...........|...........|...........|...........|...........|...........|...........|...........|...........|...........|...........|...........|E-313v42SD2|...........|...........|...........|...........|...........|...........|...........|...........|...........|...........|...........|...........|...........|...........|...........|...........|===.....SD2|===.....SD2|...........|...........
|...........|...........|...........|...........|...........|...........|...........|...........|...........|...........|...........|...........|...........|...........|...........|...........|...........|...........|...........|...........|...........|...........|...........|...........|...........|...........|...........|...........|...........|...........|...........|...........|...........|...........|...........|...........|...........|...........|...........|...........|...........|...........|...........|...........
|B-303v64SD2|...........|...........|...........|...........|...........|...........|...........|...........|...........|...........|...........|...........|...........|...........|...........|...........|...........|...........|...........|...........|...........|...........|C#320v64SD2|F#312v64SD2|C-302v64SD2|...........|...........|...........|...........|...........|...........|...........|...........|...........|...........|...........|...........|...........|...........|...........|...........|...........|...........
|...........|...........|...........|...........|...........|...........|...........|...........|...........|...........|...........|...........|...........|...........|...........|...........|...........|...........|...........|...........|...........|...........|...........|...........|...........|...........|...........|...........|...........|...........|...........|...........|...........|...........|...........|...........|...........|...........|...........|...........|...........|...........|...........|...........
|...........|...........|...........|...........|...........|...........|...........|...........|...........|...........|...........|...........|...........|...........|...........|...........|...........|...........|...........|...........|...........|...........|...........|...........|...........|...........|...........|...........|...........|...........|...........|...........|...........|...........|...........|...........|...........|...........|...........|...........|...........|...........|...........|...........
|...........|...........|...........|...........|...........|...........|...........|...........|...........|...........|...........|...........|...........|...........|...........|...........|...........|...........|...........|...........|...........|...........|...........|...........|...........|...........|...........|...........|...........|...........|...........|...........|...........|...........|...........|...........|...........|...........|...........|...........|...........|...........|...........|...........
|F#403v64SD2|...........|...........|...........|...........|...........|...........|...........|...........|F#606v64SD2|D-706v64SD2|...........|...........|...........|...........|...........|...........|...........|...........|...........|...........|...........|...........|D-315v59SD2|A#314v64SD2|...........|...........|...........|...........|...........|...........|...........|...........|...........|...........|...........|...........|...........|...........|...........|F#611v52SD2|D-711v52SD2|...........|...........
|...........|...........|...........|...........|...........|...........|...........|...........|...........|...........|...........|...........|...........|...........|...........|...........|...........|...........|...........|...........|...........|...........|...........|...........|...........|...........|...........|...........|...........|...........|...........|...........|...........|...........|...........|...........|...........|...........|...........|...........|...........|...........|...........|...........
|...........|...........|...........|...........|...........|...........|...........|...........|...........|===.....SD2|===.....SD2|...........|...........|...........|...........|...........|...........|...........|...........|...........|...........|...........|...........|F#312v64SD2|...........|...........|...........|...........|...........|...........|...........|...........|...........|...........|...........|...........|...........|...........|...........|...........|===.....SD2|===.....SD2|...........|...........
|...........|...........|...........|...........|...........|===.....SD4|===.....SD4|===.....SD4|...........|...........|...........|...........|...........|...........|...........|...........|...........|...........|...........|...........|...........|...........|...........|...........|...........|...........|...........|...........|...........|...........|...........|...........|...........|...........|...........|...........|===.....SD4|===.....SD4|===.....SD4|...........|...........|...........|...........|...........
|D-403v64SD2|...........|...........|...........|...........|D-405v64SD2|A-405v64SD2|F#505v64SD2|...........|...........|...........|...........|...........|...........|...........|...........|...........|...........|...........|...........|...........|...........|...........|C#320v64SD2|D#416v64SD2|F#312v64SD2|C-302v64SD2|...........|...........|...........|...........|...........|...........|...........|...........|...........|D-410v62SD2|A-410v62SD2|F#510v62SD2|...........|...........|...........|...........|...........
|...........|...........|...........|...........|...........|...........|...........|...........|...........|...........|...........|...........|...........|...........|...........|...........|...........|...........|...........|...........|...........|...........|...........|...........|...........|...........|...........|...........|...........|...........|...........|...........|...........|...........|...........|...........|...........|...........|...........|...........|...........|...........|...........|...........
|...........|...........|...........|...........|...........|...........|...........|...........|...........|...........|...........|...........|...........|...........|...........|...........|...........|...........|...........|...........|...........|...........|...........|...........|...........|...........|...........|...........|...........|...........|...........|...........|...........|...........|...........|...........|...........|...........|...........|...........|...........|...........|...........|...........
|...........|...........|...........|...........|...........|...........|...........|...........|...........|...........|...........|...........|...........|...........|...........|...........|...........|...........|...........|...........|...........|...........|...........|...........|...........|...........|...........|...........|...........|...........|...........|...........|...........|...........|...........|...........|...........|...........|...........|...........|...........|...........|...........|...........
|A-403v64SD2|...........|...........|...........|...........|...........|...........|...........|...........|A-606v64SD2|F#706v64SD2|...........|...........|...........|...........|...........|...........|...........|...........|...........|...........|...........|...........|E-313v64SD2|F#312v64SD2|...........|...........|...........|...........|...........|...........|...........|...........|...........|...........|...........|...........|...........|...........|...........|A-611v52SD2|F#711v52SD2|...........|...........
|...........|...........|...........|...........|...........|...........|...........|...........|...........|...........|...........|...........|...........|...........|...........|...........|...........|...........|...........|...........|...........|...........|...........|...........|...........|...........|...........|...........|...........|...........|...........|...........|...........|...........|...........|...........|...........|...........|...........|...........|...........|...........|...........|...........
|...........|...........|...........|...........|...........|...........|...........|...........|...........|===.....SD2|===.....SD2|...........|...........|...........|...........|...........|...........|...........|...........|...........|...........|...........|...........|E-313v64SD2|...........|...........|...........|...........|...........|...........|...........|...........|...........|...........|...........|...........|...........|...........|...........|...........|===.....SD2|===.....SD2|...........|...........
|...........|...........|...........|...........|...........|...........|...........|...........|...........|...........|...........|...........|...........|...........|...........|...........|...........|...........|...........|...........|...........|...........|...........|...........|...........|...........|...........|...........|...........|...........|...........|...........|...........|...........|...........|...........|...........|...........|...........|...........|...........|...........|...........|...........
|D-403v64SD2|...........|...........|...........|...........|...........|...........|...........|...........|...........|...........|...........|...........|...........|...........|...........|...........|...........|...........|...........|...........|...........|...........|C#320v64SD2|A#314v64SD2|C-302v64SD2|...........|...........|...........|...........|...........|...........|...........|...........|...........|...........|...........|...........|...........|...........|...........|...........|...........|...........
|...........|...........|...........|...........|...........|...........|...........|...........|...........|...........|...........|...........|...........|...........|...........|...........|...........|...........|...........|...........|...........|...........|...........|...........|...........|...........|...........|...........|...........|...........|...........|...........|...........|...........|...........|...........|...........|...........|...........|...........|...........|...........|...........|...........
|...........|...........|...........|...........|...........|...........|...........|...........|...........|...........|...........|...........|...........|...........|...........|...........|...........|...........|...........|...........|...........|...........|...........|E-313v64SD2|...........|...........|...........|...........|...........|...........|...........|...........|...........|...........|...........|...........|...........|...........|...........|...........|...........|...........|...........|...........
|...........|...........|...........|...........|...........|...........|...........|...........|...........|...........|...........|...........|...........|...........|...........|...........|...........|...........|...........|...........|...........|...........|...........|...........|...........|...........|...........|...........|...........|...........|...........|...........|...........|...........|...........|...........|...........|...........|...........|...........|...........|...........|...........|...........
|A-403v64SD2|...........|...........|...........|...........|...........|...........|...........|...........|A-606v64SD2|F#706v64SD2|...........|...........|...........|...........|...........|...........|...........|...........|...........|...........|...........|...........|E-313v64SD2|D-315v64SD2|F#312v64SD2|...........|...........|...........|...........|...........|...........|...........|...........|...........|...........|...........|...........|...........|...........|A-611v52SD2|F#711v52SD2|...........|...........
|...........|...........|...........|...........|...........|...........|...........|...........|...........|...........|...........|...........|...........|...........|...........|...........|...........|...........|...........|...........|...........|...........|...........|...........|...........|...........|...........|...........|...........|...........|...........|...........|...........|...........|...........|...........|...........|...........|...........|...........|...........|...........|...........|...........
|...........|...........|...........|...........|...........|...........|...........|...........|...........|===.....SD2|===.....SD2|...........|...........|...........|...........|...........|...........|...........|...........|...........|...........|...........|...........|E-313v64SD2|F#312v64SD2|...........|...........|...........|...........|...........|...........|...........|...........|...........|...........|...........|...........|...........|...........|...........|===.....SD2|===.....SD2|...........|...........
|...........|...........|...........|...........|...........|===.....SD4|===.....SD4|===.....SD4|...........|...........|...........|...........|...........|...........|...........|...........|...........|...........|...........|...........|...........|...........|...........|...........|...........|...........|...........|...........|...........|...........|...........|...........|...........|...........|...........|...........|===.....SD4|===.....SD4|===.....SD4|...........|...........|...........|...........|...........
|C#403v64SD2|...........|...........|...........|...........|C#405v64SD2|G#405v64SD2|F-505v64SD2|...........|...........|...........|...........|...........|...........|...........|...........|...........|...........|...........|...........|...........|...........|...........|C#320v64SD2|F#312v64SD2|C-302v64SD2|...........|...........|...........|...........|...........|...........|...........|...........|...........|...........|C#410v62SD2|G#410v62SD2|F-510v62SD2|...........|...........|...........|...........|...........
|...........|...........|...........|...........|...........|...........|...........|...........|...........|...........|...........|...........|...........|...........|...........|...........|...........|...........|...........|...........|...........|...........|...........|...........|...........|...........|...........|...........|...........|...........|...........|...........|...........|...........|...........|...........|...........|...........|...........|...........|...........|...........|...........|...........
|...........|...........|...........|...........|...........|...........|...........|...........|...........|...........|...........|...........|...........|...........|...........|...........|...........|...........|...........|...........|...........|...........|...........|E-313v64SD2|...........|...........|...........|...........|...........|...........|...........|...........|...........|...........|...........|...........|...........|...........|...........|...........|...........|...........|...........|...........
|...........|...........|...........|...........|...........|...........|...........|...........|...........|...........|...........|...........|...........|...........|...........|...........|...........|...........|...........|...........|...........|...........|...........|...........|...........|...........|...........|...........|...........|...........|...........|...........|...........|...........|...........|...........|...........|...........|...........|...........|...........|...........|...........|...........
|G#403v64SD2|...........|...........|...........|...........|...........|...........|...........|...........|G#606v64SD2|F-706v64SD2|...........|...........|...........|...........|...........|...........|...........|...........|...........|...........|...........|...........|E-313v64SD2|A#314v64SD2|...........|...........|...........|...........|...........|...........|...........|...........|...........|...........|...........|...........|...........|...........|...........|G#611v52SD2|F-711v52SD2|...........|...........
|...........|...........|...........|...........|...........|...........|...........|...........|...........|...........|...........|...........|...........|...........|...........|...........|...........|...........|...........|...........|...........|...........|...........|...........|...........|...........|...........|...........|...........|...........|...........|...........|...........|...........|...........|...........|...........|...........|...........|...........|...........|...........|...........|...........
|...........|...........|...........|...........|...........|...........|...........|...........|...........|===.....SD2|===.....SD2|...........|...........|...........|...........|...........|...........|...........|...........|...........|...........|...........|...........|...........|...........|...........|...........|...........|...........|...........|...........|...........|...........|...........|...........|...........|...........|...........|...........|...........|===.....SD2|===.....SD2|...........|...........
|...........|...........|...........|...........|...........|...........|...........|...........|...........|...........|...........|...........|...........|...........|...........|...........|...........|...........|...........|...........|...........|...........|...........|...........|...........|...........|...........|...........|...........|...........|...........|...........|...........|...........|...........|...........|...........|...........|...........|...........|...........|...........|...........|...........
|C#403v64SD2|...........|...........|...........|...........|...........|...........|...........|...........|...........|...........|...........|...........|...........|...........|...........|...........|...........|...........|...........|...........|...........|...........|E-313v64SD2|C#320v64SD2|F#312v64SD2|C-302v64SD2|...........|...........|...........|...........|...........|...........|...........|...........|...........|...........|...........|...........|...........|...........|...........|...........|...........
|...........|...........|...........|...........|...........|...........|...........|...........|...........|...........|...........|...........|...........|...........|...........|...........|...........|...........|...........|...........|...........|...........|...........|...........|...........|...........|...........|...........|...........|...........|...........|...........|...........|...........|...........|...........|...........|...........|...........|...........|...........|...........|...........|...........
|...........|...........|...........|...........|...........|...........|...........|...........|...........|...........|...........|...........|...........|...........|...........|...........|...........|...........|...........|...........|...........|...........|...........|E-313v64SD2|...........|...........|...........|...........|...........|...........|...........|...........|...........|...........|...........|...........|...........|...........|...........|...........|...........|...........|...........|...........
|...........|...........|...........|...........|...........|...........|...........|...........|...........|...........|...........|...........|...........|...........|...........|...........|...........|...........|...........|...........|...........|...........|...........|...........|...........|...........|...........|...........|...........|...........|...........|...........|...........|...........|...........|...........|...........|...........|...........|...........|...........|...........|...........|...........
|G#403v64SD2|...........|...........|...........|...........|...........|...........|...........|...........|G#606v64SD2|F-706v64SD2|...........|...........|...........|...........|...........|...........|...........|...........|...........|...........|...........|...........|E-313v64SD2|D-315v64SD2|A#314v64SD2|...........|...........|...........|...........|...........|...........|...........|...........|...........|...........|...........|...........|...........|...........|G#611v52SD2|F-711v52SD2|...........|...........
|...........|...........|...........|...........|...........|...........|...........|...........|...........|...........|...........|...........|...........|...........|...........|...........|...........|...........|...........|...........|...........|...........|...........|...........|...........|...........|...........|...........|...........|...........|...........|...........|...........|...........|...........|...........|...........|...........|...........|...........|...........|...........|...........|...........
|...........|...........|...........|...........|...........|...........|...........|...........|...........|===.....SD2|===.....SD2|...........|...........|...........|...........|...........|...........|...........|...........|...........|...........|...........|...........|E-313v64SD2|F#312v64SD2|...........|...........|...........|...........|...........|...........|...........|...........|...........|...........|...........|...........|...........|...........|...........|===.....SD2|===.....SD2|...........|...........
|...........|...........|...........|...........|...........|===.....SD4|===.....SD4|===.....SD4|...........|...........|...........|...........|...........|...........|...........|...........|...........|...........|...........|...........|...........|...........|...........|...........|...........|...........|...........|...........|...........|...........|...........|...........|...........|...........|...........|...........|===.....SD4|===.....SD4|===.....SD4|...........|...........|...........|...........|...........
|C-403v64SD2|...........|...........|...........|...........|C-405v64SD2|G-405v64SD2|D#505v64SD2|...........|...........|...........|...........|...........|...........|...........|...........|...........|...........|...........|...........|...........|...........|...........|C#401v64SD2|C#320v64SD2|D#416v64SD2|F#312v64SD2|C-302v64SD2|...........|...........|...........|...........|...........|...........|...........|...........|C-410v62SD2|G-410v62SD2|D#510v62SD2|...........|...........|...........|...........|...........
|...........|...........|...........|...........|...........|...........|...........|...........|...........|...........|...........|...........|...........|...........|...........|...........|...........|...........|...........|...........|...........|...........|...........|...........|...........|...........|...........|...........|...........|...........|...........|...........|...........|...........|...........|...........|...........|...........|...........|...........|...........|...........|...........|...........
|...........|...........|...........|...........|...........|...........|...........|...........|...........|...........|...........|...........|...........|...........|...........|...........|...........|...........|...........|...........|...........|...........|...........|...........|...........|...........|...........|...........|...........|...........|...........|...........|...........|...........|...........|...........|...........|...........|...........|...........|...........|...........|...........|...........
|...........|...........|...........|...........|...........|...........|...........|...........|...........|...........|...........|...........|...........|...........|...........|...........|...........|...........|...........|...........|...........|...........|...........|...........|...........|...........|...........|...........|...........|...........|...........|...........|...........|...........|...........|...........|...........|...........|...........|...........|...........|...........|...........|...........
|G-403v64SD2|...........|G-604v59SD2|D#704v59SD2|...........|...........|...........|...........|...........|G-606v64SD2|D#706v64SD2|...........|...........|...........|...........|...........|...........|...........|...........|...........|...........|...........|...........|F#312v64SD2|...........|...........|...........|...........|...........|...........|...........|...........|...........|...........|...........|...........|...........|...........|...........|...........|G-611v52SD2|D#711v52SD2|...........|...........
|...........|...........|...........|...........|...........|...........|...........|...........|...........|...........|...........|...........|...........|...........|...........|...........|...........|...........|...........|...........|...........|...........|...........|...........|...........|...........|...........|...........|...........|...........|...........|...........|...........|...........|...........|...........|...........|...........|...........|...........|...........|...........|...........|...........
|...........|...........|===.....SD2|===.....SD2|...........|...........|...........|...........|...........|===.....SD2|===.....SD2|...........|...........|...........|...........|...........|...........|...........|...........|...........|...........|...........|...........|...........|...........|...........|...........|...........|...........|...........|...........|...........|...........|...........|...........|...........|...........|...........|...........|...........|===.....SD2|===.....SD2|...........|...........
|...........|...........|...........|...........|...........|...........|...........|...........|...........|...........|...........|...........|...........|...........|...........|...........|...........|...........|...........|...........|...........|...........|...........|...........|...........|...........|...........|...........|...........|...........|...........|...........|...........|...........|...........|...........|...........|...........|...........|...........|...........|...........|...........|...........
|C-403v64SD2|...........|...........|...........|...........|...........|...........|...........|...........|...........|...........|...........|...........|...........|...........|...........|...........|...........|...........|...........|...........|...........|...........|D-315v64SD2|C#320v64SD2|A#314v64SD2|...........|...........|...........|...........|...........|...........|...........|...........|...........|...........|...........|...........|...........|...........|...........|...........|...........|...........
|...........|...........|...........|...........|...........|...........|...........|...........|...........|...........|...........|...........|...........|...........|...........|...........|...........|...........|...........|...........|...........|...........|...........|...........|...........|...........|...........|...........|...........|...........|...........|...........|...........|...........|...........|...........|...........|...........|...........|...........|...........|...........|...........|...........
|...........|...........|...........|...........|...........|...........|...........|...........|...........|...........|...........|...........|...........|...........|...........|...........|...........|...........|...........|...........|...........|...........|...........|...........|...........|...........|...........|...........|...........|...........|...........|...........|...........|...........|...........|...........|...........|...........|...........|...........|...........|...........|...........|...........
|...........|...........|...........|...........|...........|...........|...........|...........|...........|...........|...........|...........|...........|...........|...........|...........|...........|...........|...........|...........|...........|...........|...........|...........|...........|...........|...........|...........|...........|...........|...........|...........|...........|...........|...........|...........|...........|...........|...........|...........|...........|...........|...........|...........
|G-403v64SD2|...........|G-604v59SD2|D#704v59SD2|...........|...........|...........|...........|...........|G-606v64SD2|D#706v64SD2|...........|...........|...........|...........|...........|...........|...........|...........|...........|...........|...........|...........|F#312v64SD2|...........|...........|...........|...........|...........|...........|...........|...........|...........|...........|...........|...........|...........|...........|...........|...........|G-611v52SD2|D#711v52SD2|...........|...........
|...........|...........|...........|...........|...........|...........|...........|...........|...........|...........|...........|...........|...........|...........|...........|...........|...........|...........|...........|...........|...........|...........|...........|...........|...........|...........|...........|...........|...........|...........|...........|...........|...........|...........|...........|...........|...........|...........|...........|...........|...........|...........|...........|...........
|...........|...........|===.....SD2|===.....SD2|...........|...........|...........|...........|...........|===.....SD2|===.....SD2|...........|...........|...........|...........|...........|...........|...........|...........|...........|...........|...........|...........|F#312v64SD2|...........|...........|...........|...........|...........|...........|...........|...........|...........|...........|...........|...........|...........|...........|...........|...........|===.....SD2|===.....SD2|...........|...........
|...........|...........|...........|...........|...........|===.....SD4|===.....SD4|===.....SD4|...........|...........|...........|...........|...........|...........|...........|...........|...........|...........|...........|...........|...........|...........|...........|...........|...........|...........|...........|...........|...........|...........|...........|...........|...........|...........|...........|...........|===.....SD4|===.....SD4|===.....SD4|...........|...........|...........|...........|...........
|B-303v64SD2|...........|...........|...........|...........|B-305v64SD2|F#405v64SD2|D-505v64SD2|...........|...........|...........|...........|...........|...........|...........|...........|...........|...........|...........|...........|...........|...........|...........|C#320v64SD2|F#312v64SD2|C-302v64SD2|...........|...........|...........|...........|...........|...........|...........|...........|...........|...........|B-310v62SD2|F#410v62SD2|D-510v62SD2|...........|...........|...........|...........|...........


!channels=1+10+11+30+31
!octaves=1+0+0+0
ModPlug Tracker MPT
|...........|...........|...........|...........|...........|...........|...........|...........|...........|...........|...........|...........|...........|...........|...........|...........|...........|...........|...........|...........|...........|...........|...........|...........|...........|...........|...........|...........|...........|...........|...........|...........|...........|...........|...........|...........|...........|...........|...........|...........|...........|...........|...........|...........
|...........|...........|...........|...........|...........|...........|...........|...........|...........|...........|...........|...........|...........|...........|...........|...........|...........|...........|...........|...........|...........|...........|...........|...........|...........|...........|...........|...........|...........|...........|...........|...........|...........|...........|...........|...........|...........|...........|...........|...........|...........|...........|...........|...........
|...........|...........|...........|...........|...........|...........|...........|...........|...........|...........|...........|...........|...........|...........|...........|...........|...........|...........|...........|...........|...........|...........|...........|...........|...........|...........|...........|...........|...........|...........|...........|...........|...........|...........|...........|...........|...........|...........|...........|...........|...........|...........|...........|...........
|F#403v64SD2|...........|F#604v59SD2|D-704v59SD2|...........|...........|...........|...........|...........|F#606v64SD2|D-706v64SD2|...........|...........|...........|...........|...........|...........|...........|...........|...........|...........|...........|...........|E-313v42SD2|A#314v64SD2|...........|...........|...........|...........|...........|...........|...........|...........|...........|...........|...........|...........|...........|...........|...........|F#611v52SD2|D-711v52SD2|...........|...........
|...........|...........|...........|...........|...........|...........|...........|...........|...........|...........|...........|...........|...........|...........|...........|...........|...........|...........|...........|...........|...........|...........|...........|...........|...........|...........|...........|...........|...........|...........|...........|...........|...........|...........|...........|...........|...........|...........|...........|...........|...........|...........|...........|...........
|...........|...........|===.....SD2|===.....SD2|...........|...........|...........|...........|...........|===.....SD2|===.....SD2|...........|...........|...........|...........|...........|...........|...........|...........|...........|...........|...........|...........|...........|...........|...........|...........|...........|...........|...........|...........|...........|...........|...........|...........|...........|...........|...........|...........|...........|===.....SD2|===.....SD2|...........|...........
|...........|...........|...........|...........|...........|...........|...........|...........|...........|...........|...........|...........|...........|...........|...........|...........|...........|...........|...........|...........|...........|...........|...........|...........|...........|...........|...........|...........|...........|...........|...........|...........|...........|...........|...........|...........|...........|...........|...........|...........|...........|...........|...........|...........
|B-303v64SD2|...........|...........|...........|...........|...........|...........|...........|...........|...........|...........|...........|...........|...........|...........|...........|...........|...........|...........|...........|...........|...........|...........|D-315v64SD2|C#320v64SD2|F#312v64SD2|...........|...........|...........|...........|...........|...........|...........|...........|...........|...........|...........|...........|...........|...........|...........|...........|...........|...........
|...........|...........|...........|...........|...........|...........|...........|...........|...........|...........|...........|...........|...........|...........|...........|...........|...........|...........|...........|...........|...........|...........|...........|...........|...........|...........|...........|...........|...........|...........|...........|...........|...........|...........|...........|...........|...........|...........|...........|...........|...........|...........|...........|...........
|...........|...........|...........|...........|...........|...........|...........|...........|...........|...........|...........|...........|...........|...........|...........|...........|...........|...........|...........|...........|...........|...........|...........|...........|...........|...........|...........|...........|...........|...........|...........|...........|...........|...........|...........|...........|...........|...........|...........|...........|...........|...........|...........|...........
|...........|...........|...........|...........|...........|...........|...........|...........|...........|...........|...........|...........|...........|...........|...........|...........|...........|...........|...........|...........|...........|...........|...........|...........|...........|...........|...........|...........|...........|...........|...........|...........|...........|...........|...........|...........|...........|...........|...........|...........|...........|...........|...........|...........
|F#403v64SD2|...........|F#604v59SD2|D-704v59SD2|...........|...........|...........|...........|...........|F#606v64SD2|D-706v64SD2|...........|...........|...........|...........|...........|...........|...........|...........|...........|...........|...........|...........|D-315v59SD2|A#314v64SD2|...........|...........|...........|...........|...........|...........|...........|...........|...........|...........|...........|...........|...........|...........|...........|F#611v52SD2|D-711v52SD2|...........|...........
|...........|...........|...........|...........|...........|...........|...........|...........|...........|...........|...........|...........|...........|...........|...........|...........|...........|...........|...........|...........|...........|...........|...........|...........|...........|...........|...........|...........|...........|...........|...........|...........|...........|...........|...........|...........|...........|...........|...........|...........|...........|...........|...........|...........
|...........|...........|===.....SD2|===.....SD2|...........|...........|...........|...........|...........|===.....SD2|===.....SD2|...........|...........|...........|...........|...........|...........|...........|...........|...........|...........|...........|...........|F#312v64SD2|...........|...........|...........|...........|...........|...........|...........|...........|...........|...........|...........|...........|...........|...........|...........|...........|===.....SD2|===.....SD2|...........|...........
|...........|...........|...........|...........|...........|===.....SD4|===.....SD4|===.....SD4|...........|...........|...........|...........|...........|...........|...........|...........|...........|...........|...........|...........|...........|...........|...........|...........|...........|...........|...........|...........|...........|...........|...........|...........|...........|...........|...........|...........|===.....SD4|===.....SD4|===.....SD4|...........|...........|...........|...........|...........
|D-403v64SD2|...........|...........|...........|...........|D-405v64SD2|A-405v64SD2|F#505v64SD2|...........|...........|...........|...........|...........|...........|...........|...........|...........|...........|...........|...........|...........|...........|...........|C#320v64SD2|D#416v64SD2|F#312v64SD2|C-302v64SD2|...........|...........|...........|...........|...........|...........|...........|...........|...........|D-410v62SD2|A-410v62SD2|F#510v62SD2|...........|...........|...........|...........|...........
|...........|...........|...........|...........|...........|...........|...........|...........|...........|...........|...........|...........|...........|...........|...........|...........|...........|...........|...........|...........|...........|...........|...........|...........|...........|...........|...........|...........|...........|...........|...........|...........|...........|...........|...........|...........|...........|...........|...........|...........|...........|...........|...........|...........
|...........|...........|...........|...........|...........|...........|...........|...........|...........|...........|...........|...........|...........|...........|...........|...........|...........|...........|...........|...........|...........|...........|...........|...........|...........|...........|...........|...........|...........|...........|...........|...........|...........|...........|...........|...........|...........|...........|...........|...........|...........|...........|...........|...........
|...........|...........|...........|...........|...........|...........|...........|...........|...........|...........|...........|...........|...........|...........|...........|...........|...........|...........|...........|...........|...........|...........|...........|...........|...........|...........|...........|...........|...........|...........|...........|...........|...........|...........|...........|...........|...........|...........|...........|...........|...........|...........|...........|...........
|A-403v64SD2|...........|A-604v59SD2|F#704v59SD2|...........|...........|...........|...........|...........|A-606v64SD2|F#706v64SD2|...........|...........|...........|...........|...........|...........|...........|...........|...........|...........|...........|...........|F#312v64SD2|...........|...........|...........|...........|...........|...........|...........|...........|...........|...........|...........|...........|...........|...........|...........|...........|A-611v52SD2|F#711v52SD2|...........|...........
|...........|...........|...........|...........|...........|...........|...........|...........|...........|...........|...........|...........|...........|...........|...........|...........|...........|...........|...........|...........|...........|...........|...........|...........|...........|...........|...........|...........|...........|...........|...........|...........|...........|...........|...........|...........|...........|...........|...........|...........|...........|...........|...........|...........
|...........|...........|===.....SD2|===.....SD2|...........|...........|...........|...........|...........|===.....SD2|===.....SD2|...........|...........|...........|...........|...........|...........|...........|...........|...........|...........|...........|...........|...........|...........|...........|...........|...........|...........|...........|...........|...........|...........|...........|...........|...........|...........|...........|...........|...........|===.....SD2|===.....SD2|...........|...........
|...........|...........|...........|...........|...........|...........|...........|...........|...........|...........|...........|...........|...........|...........|...........|...........|...........|...........|...........|...........|...........|...........|...........|...........|...........|...........|...........|...........|...........|...........|...........|...........|...........|...........|...........|...........|...........|...........|...........|...........|...........|...........|...........|...........
|D-403v64SD2|...........|...........|...........|...........|...........|...........|...........|...........|...........|...........|...........|...........|...........|...........|...........|...........|...........|...........|...........|...........|...........|...........|D-315v64SD2|C#320v64SD2|A#314v64SD2|...........|...........|...........|...........|...........|...........|...........|...........|...........|...........|...........|...........|...........|...........|...........|...........|...........|...........
|...........|...........|...........|...........|...........|...........|...........|...........|...........|...........|...........|...........|...........|...........|...........|...........|...........|...........|...........|...........|...........|...........|...........|...........|...........|...........|...........|...........|...........|...........|...........|...........|...........|...........|...........|...........|...........|...........|...........|...........|...........|...........|...........|...........
|...........|...........|...........|...........|...........|...........|...........|...........|...........|...........|...........|...........|...........|...........|...........|...........|...........|...........|...........|...........|...........|...........|...........|...........|...........|...........|...........|...........|...........|...........|...........|...........|...........|...........|...........|...........|...........|...........|...........|...........|...........|...........|...........|...........
|...........|...........|...........|...........|...........|...........|...........|...........|...........|...........|...........|...........|...........|...........|...........|...........|...........|...........|...........|...........|...........|...........|...........|...........|...........|...........|...........|...........|...........|...........|...........|...........|...........|...........|...........|...........|...........|...........|...........|...........|...........|...........|...........|...........
|A-403v64SD2|...........|A-604v59SD2|F#704v59SD2|...........|...........|...........|...........|...........|A-606v64SD2|F#706v64SD2|...........|...........|...........|...........|...........|...........|...........|...........|...........|...........|...........|...........|D-315v64SD2|F#312v64SD2|...........|...........|...........|...........|...........|...........|...........|...........|...........|...........|...........|...........|...........|...........|...........|A-611v52SD2|F#711v52SD2|...........|...........
|...........|...........|...........|...........|...........|...........|...........|...........|...........|...........|...........|...........|...........|...........|...........|...........|...........|...........|...........|...........|...........|...........|...........|...........|...........|...........|...........|...........|...........|...........|...........|...........|...........|...........|...........|...........|...........|...........|...........|...........|...........|...........|...........|...........
|...........|...........|===.....SD2|===.....SD2|...........|...........|...........|...........|...........|===.....SD2|===.....SD2|...........|...........|...........|...........|...........|...........|...........|...........|...........|...........|...........|...........|F#312v64SD2|...........|...........|...........|...........|...........|...........|...........|...........|...........|...........|...........|...........|...........|...........|...........|...........|===.....SD2|===.....SD2|...........|...........
|...........|...........|...........|...........|...........|===.....SD4|===.....SD4|===.....SD4|...........|...........|...........|...........|...........|...........|...........|...........|...........|...........|...........|...........|...........|...........|...........|...........|...........|...........|...........|...........|...........|...........|...........|...........|...........|...........|...........|...........|===.....SD4|===.....SD4|===.....SD4|...........|...........|...........|...........|...........
|C#403v64SD2|...........|...........|...........|...........|C#405v64SD2|G#405v64SD2|F-505v64SD2|...........|...........|...........|...........|...........|...........|...........|...........|...........|...........|...........|...........|...........|...........|...........|C#320v64SD2|F#312v64SD2|C-302v64SD2|...........|...........|...........|...........|...........|...........|...........|...........|...........|...........|C#410v62SD2|G#410v62SD2|F-510v62SD2|...........|...........|...........|...........|...........
|...........|...........|...........|...........|...........|...........|...........|...........|...........|...........|...........|...........|...........|...........|...........|...........|...........|...........|...........|...........|...........|...........|...........|...........|...........|...........|...........|...........|...........|...........|...........|...........|...........|...........|...........|...........|...........|...........|...........|...........|...........|...........|...........|...........
|...........|...........|...........|...........|...........|...........|...........|...........|...........|...........|...........|...........|...........|...........|...........|...........|...........|...........|...........|...........|...........|...........|...........|...........|...........|...........|...........|...........|...........|...........|...........|...........|...........|...........|...........|...........|...........|...........|...........|...........|...........|...........|...........|...........
|...........|...........|...........|...........|...........|...........|...........|...........|...........|...........|...........|...........|...........|...........|...........|...........|...........|...........|...........|...........|...........|...........|...........|...........|...........|...........|...........|...........|...........|...........|...........|...........|...........|...........|...........|...........|...........|...........|...........|...........|...........|...........|...........|...........
|G#403v64SD2|...........|G#604v59SD2|F-704v59SD2|...........|...........|...........|...........|...........|G#606v64SD2|F-706v64SD2|...........|...........|...........|...........|...........|...........|...........|...........|...........|...........|...........|...........|A#314v64SD2|...........|...........|...........|...........|...........|...........|...........|...........|...........|...........|...........|...........|...........|...........|...........|...........|G#611v52SD2|F-711v52SD2|...........|...........
|...........|...........|...........|...........|...........|...........|...........|...........|...........|...........|...........|...........|...........|...........|...........|...........|...........|...........|...........|...........|...........|...........|...........|...........|...........|...........|...........|...........|...........|...........|...........|...........|...........|...........|...........|...........|...........|...........|...........|...........|...........|...........|...........|...........
|...........|...........|===.....SD2|===.....SD2|...........|...........|...........|...........|...........|===.....SD2|===.....SD2|...........|...........|...........|...........|...........|...........|...........|...........|...........|...........|...........|...........|...........|...........|...........|...........|...........|...........|...........|...........|...........|...........|...........|...........|...........|...........|...........|...........|...........|===.....SD2|===.....SD2|...........|...........
|...........|...........|...........|...........|...........|...........|...........|...........|...........|...........|...........|...........|...........|...........|...........|...........|...........|...........|...........|...........|...........|...........|...........|...........|...........|...........|...........|...........|...........|...........|...........|...........|...........|...........|...........|...........|...........|...........|...........|...........|...........|...........|...........|...........
|C#403v64SD2|...........|...........|...........|...........|...........|...........|...........|...........|...........|...........|...........|...........|...........|...........|...........|...........|...........|...........|...........|...........|...........|...........|D-315v64SD2|C#320v64SD2|F#312v64SD2|...........|...........|...........|...........|...........|...........|...........|...........|...........|...........|...........|...........|...........|...........|...........|...........|...........|...........
|...........|...........|...........|...........|...........|...........|...........|...........|...........|...........|...........|...........|...........|...........|...........|...........|...........|...........|...........|...........|...........|...........|...........|...........|...........|...........|...........|...........|...........|...........|...........|...........|...........|...........|...........|...........|...........|...........|...........|...........|...........|...........|...........|...........
|...........|...........|...........|...........|...........|...........|...........|...........|...........|...........|...........|...........|...........|...........|...........|...........|...........|...........|...........|...........|...........|...........|...........|...........|...........|...........|...........|...........|...........|...........|...........|...........|...........|...........|...........|...........|...........|...........|...........|...........|...........|...........|...........|...........
|...........|...........|...........|...........|...........|...........|...........|...........|...........|...........|...........|...........|...........|...........|...........|...........|...........|...........|...........|...........|...........|...........|...........|...........|...........|...........|...........|...........|...........|...........|...........|...........|...........|...........|...........|...........|...........|...........|...........|...........|...........|...........|...........|...........
|G#403v64SD2|...........|G#604v59SD2|F-704v59SD2|...........|...........|...........|...........|...........|G#606v64SD2|F-706v64SD2|...........|...........|...........|...........|...........|...........|...........|...........|...........|...........|...........|...........|D-315v64SD2|A#314v64SD2|...........|...........|...........|...........|...........|...........|...........|...........|...........|...........|...........|...........|...........|...........|...........|G#611v52SD2|F-711v52SD2|...........|...........
|...........|...........|...........|...........|...........|...........|...........|...........|...........|...........|...........|...........|...........|...........|...........|...........|...........|...........|...........|...........|...........|...........|...........|...........|...........|...........|...........|...........|...........|...........|...........|...........|...........|...........|...........|...........|...........|...........|...........|...........|...........|...........|...........|...........
|...........|...........|===.....SD2|===.....SD2|...........|...........|...........|...........|...........|===.....SD2|===.....SD2|...........|...........|...........|...........|...........|...........|...........|...........|...........|...........|...........|...........|F#312v64SD2|...........|...........|...........|...........|...........|...........|...........|...........|...........|...........|...........|...........|...........|...........|...........|...........|===.....SD2|===.....SD2|...........|...........
|...........|...........|...........|...........|...........|===.....SD4|===.....SD4|===.....SD4|...........|...........|...........|...........|...........|...........|...........|...........|...........|...........|...........|...........|...........|...........|...........|...........|...........|...........|...........|...........|...........|...........|...........|...........|...........|...........|...........|...........|===.....SD4|===.....SD4|===.....SD4|...........|...........|...........|...........|...........
|C-403v64SD2|...........|...........|...........|...........|C-405v64SD2|G-405v64SD2|D#505v64SD2|...........|...........|...........|...........|...........|...........|...........|...........|...........|...........|...........|...........|...........|...........|...........|C#320v64SD2|D#416v64SD2|F#312v64SD2|C-302v64SD2|...........|...........|...........|...........|...........|...........|...........|...........|...........|C-410v62SD2|G-410v62SD2|D#510v62SD2|...........|...........|...........|...........|...........
|...........|...........|...........|...........|...........|...........|...........|...........|...........|...........|...........|...........|...........|...........|...........|...........|...........|...........|...........|...........|...........|...........|...........|...........|...........|...........|...........|...........|...........|...........|...........|...........|...........|...........|...........|...........|...........|...........|...........|...........|...........|...........|...........|...........
|...........|...........|...........|...........|...........|...........|...........|...........|...........|...........|...........|...........|...........|...........|...........|...........|...........|...........|...........|...........|...........|...........|...........|...........|...........|...........|...........|...........|...........|...........|...........|...........|...........|...........|...........|...........|...........|...........|...........|...........|...........|...........|...........|...........
|...........|...........|...........|...........|...........|...........|...........|...........|...........|...........|...........|...........|...........|...........|...........|...........|...........|...........|...........|...........|...........|...........|...........|...........|...........|...........|...........|...........|...........|...........|...........|...........|...........|...........|...........|...........|...........|...........|...........|...........|...........|...........|...........|...........
|G-403v64SD2|...........|G-604v59SD2|D#704v59SD2|...........|...........|...........|...........|...........|G-606v64SD2|D#706v64SD2|...........|...........|...........|...........|...........|...........|...........|...........|...........|...........|...........|...........|F#312v64SD2|...........|...........|...........|...........|...........|...........|...........|...........|...........|...........|...........|...........|...........|...........|...........|...........|G-611v52SD2|D#711v52SD2|...........|...........
|...........|...........|...........|...........|...........|...........|...........|...........|...........|...........|...........|...........|...........|...........|...........|...........|...........|...........|...........|...........|...........|...........|...........|...........|...........|...........|...........|...........|...........|...........|...........|...........|...........|...........|...........|...........|...........|...........|...........|...........|...........|...........|...........|...........
|...........|...........|===.....SD2|===.....SD2|...........|...........|...........|...........|...........|===.....SD2|===.....SD2|...........|...........|...........|...........|...........|...........|...........|...........|...........|...........|...........|...........|...........|...........|...........|...........|...........|...........|...........|...........|...........|...........|...........|...........|...........|...........|...........|...........|...........|===.....SD2|===.....SD2|...........|...........
|...........|...........|...........|...........|...........|...........|...........|...........|...........|...........|...........|...........|...........|...........|...........|...........|...........|...........|...........|...........|...........|...........|...........|...........|...........|...........|...........|...........|...........|...........|...........|...........|...........|...........|...........|...........|...........|...........|...........|...........|...........|...........|...........|...........
|C-403v64SD2|...........|...........|...........|...........|...........|...........|...........|...........|...........|...........|...........|...........|...........|...........|...........|...........|...........|...........|...........|...........|...........|...........|D-315v64SD2|C#320v64SD2|A#314v64SD2|...........|...........|...........|...........|...........|...........|...........|...........|...........|...........|...........|...........|...........|...........|...........|...........|...........|...........
|...........|...........|...........|...........|...........|...........|...........|...........|...........|...........|...........|...........|...........|...........|...........|...........|...........|...........|...........|...........|...........|...........|...........|...........|...........|...........|...........|...........|...........|...........|...........|...........|...........|...........|...........|...........|...........|...........|...........|...........|...........|...........|...........|...........
|...........|...........|...........|...........|...........|...........|...........|...........|...........|...........|...........|...........|...........|...........|...........|...........|...........|...........|...........|...........|...........|...........|...........|...........|...........|...........|...........|...........|...........|...........|...........|...........|...........|...........|...........|...........|...........|...........|...........|...........|...........|...........|...........|...........
|...........|...........|...........|...........|...........|...........|...........|...........|...........|...........|...........|...........|...........|...........|...........|...........|...........|...........|...........|...........|...........|...........|...........|...........|...........|...........|...........|...........|...........|...........|...........|...........|...........|...........|...........|...........|...........|...........|...........|...........|...........|...........|...........|...........
|G-403v64SD2|...........|G-604v59SD2|D#704v59SD2|...........|...........|...........|...........|...........|G-606v64SD2|D#706v64SD2|...........|...........|...........|...........|...........|...........|...........|...........|...........|...........|...........|...........|F#312v64SD2|...........|...........|...........|...........|...........|...........|...........|...........|...........|...........|...........|...........|...........|...........|...........|...........|G-611v52SD2|D#711v52SD2|...........|...........
|...........|...........|...........|...........|...........|...........|...........|...........|...........|...........|...........|...........|...........|...........|...........|...........|...........|...........|...........|...........|...........|...........|...........|...........|...........|...........|...........|...........|...........|...........|...........|...........|...........|...........|...........|...........|...........|...........|...........|...........|...........|...........|...........|...........
|...........|...........|===.....SD2|===.....SD2|...........|...........|...........|...........|...........|===.....SD2|===.....SD2|...........|...........|...........|...........|...........|...........|...........|...........|...........|...........|...........|...........|F#312v64SD2|...........|...........|...........|...........|...........|...........|...........|...........|...........|...........|...........|...........|...........|...........|...........|...........|===.....SD2|===.....SD2|...........|...........
|...........|...........|...........|...........|...........|===.....SD4|===.....SD4|===.....SD4|...........|...........|...........|...........|...........|...........|...........|...........|...........|...........|...........|...........|...........|...........|...........|...........|...........|...........|...........|...........|...........|...........|...........|...........|...........|...........|...........|...........|===.....SD4|===.....SD4|===.....SD4|...........|...........|...........|...........|...........
|B-303v64SD2|...........|...........|...........|...........|B-305v64SD2|F#405v64SD2|D-505v64SD2|...........|...........|...........|...........|...........|...........|...........|...........|...........|...........|...........|...........|...........|...........|...........|C#320v64SD2|F#312v64SD2|C-302v64SD2|...........|...........|...........|...........|...........|...........|...........|...........|...........|...........|B-310v62SD2|F#410v62SD2|D-510v62SD2|...........|...........|...........|...........|...........
|...........|...........|...........|...........|...........|...........|...........|...........|...........|...........|...........|...........|...........|...........|...........|...........|...........|...........|...........|...........|...........|...........|...........|...........|...........|...........|...........|...........|...........|...........|...........|...........|...........|...........|...........|...........|...........|...........|...........|...........|...........|...........|...........|...........
|...........|...........|...........|...........|...........|...........|...........|...........|...........|...........|...........|...........|...........|...........|...........|...........|...........|...........|...........|...........|...........|...........|...........|...........|...........|...........|...........|...........|...........|...........|...........|...........|...........|...........|...........|...........|...........|...........|...........|...........|...........|...........|...........|...........
|...........|...........|...........|...........|...........|...........|...........|...........|...........|...........|...........|...........|...........|...........|...........|...........|...........|...........|...........|...........|...........|...........|...........|...........|...........|...........|...........|...........|...........|...........|...........|...........|...........|...........|...........|...........|...........|...........|...........|...........|...........|...........|...........|...........
|F#403v64SD2|...........|F#604v59SD2|D-704v59SD2|...........|...........|...........|...........|...........|F#606v64SD2|D-706v64SD2|...........|...........|...........|...........|...........|...........|...........|...........|...........|...........|...........|...........|E-313v42SD2|A#314v64SD2|...........|...........|...........|...........|...........|...........|...........|...........|...........|...........|...........|...........|...........|...........|...........|F#611v52SD2|D-711v52SD2|...........|...........
|...........|...........|...........|...........|...........|...........|...........|...........|...........|...........|...........|...........|...........|...........|...........|...........|...........|...........|...........|...........|...........|...........|...........|...........|...........|...........|...........|...........|...........|...........|...........|...........|...........|...........|...........|...........|...........|...........|...........|...........|...........|...........|...........|...........
|...........|...........|===.....SD2|===.....SD2|...........|...........|...........|...........|...........|===.....SD2|===.....SD2|...........|...........|...........|...........|...........|...........|...........|...........|...........|...........|...........|...........|E-313v42SD2|...........|...........|...........|...........|...........|...........|...........|...........|...........|...........|...........|...........|...........|...........|...........|...........|===.....SD2|===.....SD2|...........|...........
|...........|...........|...........|...........|...........|...........|...........|...........|...........|...........|...........|...........|...........|...........|...........|...........|...........|...........|...........|...........|...........|...........|...........|...........|...........|...........|...........|...........|...........|...........|...........|...........|...........|...........|...........|...........|...........|...........|...........|...........|...........|...........|...........|...........
|B-303v64SD2|...........|...........|...........|...........|...........|...........|...........|...........|...........|...........|...........|...........|...........|...........|...........|...........|...........|...........|...........|...........|...........|...........|D-315v64SD2|C#320v64SD2|F#312v64SD2|...........|...........|...........|...........|...........|...........|...........|...........|...........|...........|...........|...........|...........|...........|...........|...........|...........|...........
|...........|...........|...........|...........|...........|...........|...........|...........|...........|...........|...........|...........|...........|...........|...........|...........|...........|...........|...........|...........|...........|...........|...........|...........|...........|...........|...........|...........|...........|...........|...........|...........|...........|...........|...........|...........|...........|...........|...........|...........|...........|...........|...........|...........
|...........|...........|...........|...........|...........|...........|...........|...........|...........|...........|...........|...........|...........|...........|...........|...........|...........|...........|...........|...........|...........|...........|...........|...........|...........|...........|...........|...........|...........|...........|...........|...........|...........|...........|...........|...........|...........|...........|...........|...........|...........|...........|...........|...........
|...........|...........|...........|...........|...........|...........|...........|...........|...........|...........|...........|...........|...........|...........|...........|...........|...........|...........|...........|...........|...........|...........|...........|...........|...........|...........|...........|...........|...........|...........|...........|...........|...........|...........|...........|...........|...........|...........|...........|...........|...........|...........|...........|...........
|F#403v64SD2|...........|F#604v59SD2|D-704v59SD2|...........|...........|...........|...........|...........|F#606v64SD2|D-706v64SD2|...........|...........|...........|...........|...........|...........|...........|...........|...........|...........|...........|...........|D-315v59SD2|A#314v64SD2|...........|...........|...........|...........|...........|...........|...........|...........|...........|...........|...........|...........|...........|...........|...........|F#611v52SD2|D-711v52SD2|...........|...........
|...........|...........|...........|...........|...........|...........|...........|...........|...........|...........|...........|...........|...........|...........|...........|...........|...........|...........|...........|...........|...........|...........|...........|...........|...........|...........|...........|...........|...........|...........|...........|...........|...........|...........|...........|...........|...........|...........|...........|...........|...........|...........|...........|...........
|...........|...........|===.....SD2|===.....SD2|...........|...........|...........|...........|...........|===.....SD2|===.....SD2|...........|...........|...........|...........|...........|...........|...........|...........|...........|...........|...........|...........|F#312v64SD2|...........|...........|...........|...........|...........|...........|...........|...........|...........|...........|...........|...........|...........|...........|...........|...........|===.....SD2|===.....SD2|...........|...........
|...........|...........|...........|...........|...........|===.....SD4|===.....SD4|===.....SD4|...........|...........|...........|...........|...........|...........|...........|...........|...........|...........|...........|...........|...........|...........|...........|...........|...........|...........|...........|...........|...........|...........|...........|...........|...........|...........|...........|...........|===.....SD4|===.....SD4|===.....SD4|...........|...........|...........|...........|...........
|D-403v64SD2|...........|...........|...........|...........|D-405v64SD2|A-405v64SD2|F#505v64SD2|...........|...........|...........|...........|...........|...........|...........|...........|...........|...........|...........|...........|...........|...........|...........|C#320v64SD2|D#416v64SD2|F#312v64SD2|C-302v64SD2|...........|...........|...........|...........|...........|...........|...........|...........|...........|D-410v62SD2|A-410v62SD2|F#510v62SD2|...........|...........|...........|...........|...........
|...........|...........|...........|...........|...........|...........|...........|...........|...........|...........|...........|...........|...........|...........|...........|...........|...........|...........|...........|...........|...........|...........|...........|...........|...........|...........|...........|...........|...........|...........|...........|...........|...........|...........|...........|...........|...........|...........|...........|...........|...........|...........|...........|...........
|...........|...........|...........|...........|...........|...........|...........|...........|...........|...........|...........|...........|...........|...........|...........|...........|...........|...........|...........|...........|...........|...........|...........|...........|...........|...........|...........|...........|...........|...........|...........|...........|...........|...........|...........|...........|...........|...........|...........|...........|...........|...........|...........|...........
|...........|...........|...........|...........|...........|...........|...........|...........|...........|...........|...........|...........|...........|...........|...........|...........|...........|...........|...........|...........|...........|...........|...........|...........|...........|...........|...........|...........|...........|...........|...........|...........|...........|...........|...........|...........|...........|...........|...........|...........|...........|...........|...........|...........
|A-403v64SD2|...........|A-604v59SD2|F#704v59SD2|...........|...........|...........|...........|...........|A-606v64SD2|F#706v64SD2|...........|...........|...........|...........|...........|...........|...........|...........|...........|...........|...........|...........|E-313v64SD2|F#312v64SD2|...........|...........|...........|...........|...........|...........|...........|...........|...........|...........|...........|...........|...........|...........|...........|A-611v52SD2|F#711v52SD2|...........|...........
|...........|...........|...........|...........|...........|...........|...........|...........|...........|...........|...........|...........|...........|...........|...........|...........|...........|...........|...........|...........|...........|...........|...........|...........|...........|...........|...........|...........|...........|...........|...........|...........|...........|...........|...........|...........|...........|...........|...........|...........|...........|...........|...........|...........
|...........|...........|===.....SD2|===.....SD2|...........|...........|...........|...........|...........|===.....SD2|===.....SD2|...........|...........|...........|...........|...........|...........|...........|...........|...........|...........|...........|...........|E-313v64SD2|...........|...........|...........|...........|...........|...........|...........|...........|...........|...........|...........|...........|...........|...........|...........|...........|===.....SD2|===.....SD2|...........|...........
|...........|...........|...........|...........|...........|...........|...........|...........|...........|...........|...........|...........|...........|...........|...........|...........|...........|...........|...........|...........|...........|...........|...........|...........|...........|...........|...........|...........|...........|...........|...........|...........|...........|...........|...........|...........|...........|...........|...........|...........|...........|...........|...........|...........
|D-403v64SD2|...........|...........|...........|...........|...........|...........|...........|...........|...........|...........|...........|...........|...........|...........|...........|...........|...........|...........|...........|...........|...........|...........|C#320v64SD2|A#314v64SD2|C-302v64SD2|...........|...........|...........|...........|...........|...........|...........|...........|...........|...........|...........|...........|...........|...........|...........|...........|...........|...........
|...........|...........|...........|...........|...........|...........|...........|...........|...........|...........|...........|...........|...........|...........|...........|...........|...........|...........|...........|...........|...........|...........|...........|...........|...........|...........|...........|...........|...........|...........|...........|...........|...........|...........|...........|...........|...........|...........|...........|...........|...........|...........|...........|...........
|...........|...........|...........|...........|...........|...........|...........|...........|...........|...........|...........|...........|...........|...........|...........|...........|...........|...........|...........|...........|...........|...........|...........|E-313v64SD2|...........|...........|...........|...........|...........|...........|...........|...........|...........|...........|...........|...........|...........|...........|...........|...........|...........|...........|...........|...........
|...........|...........|...........|...........|...........|...........|...........|...........|...........|...........|...........|...........|...........|...........|...........|...........|...........|...........|...........|...........|...........|...........|...........|...........|...........|...........|...........|...........|...........|...........|...........|...........|...........|...........|...........|...........|...........|...........|...........|...........|...........|...........|...........|...........
|A-403v64SD2|...........|A-604v59SD2|F#704v59SD2|...........|...........|...........|...........|...........|A-606v64SD2|F#706v64SD2|...........|...........|...........|...........|...........|...........|...........|...........|...........|...........|...........|...........|E-313v64SD2|D-315v64SD2|F#312v64SD2|...........|...........|...........|...........|...........|...........|...........|...........|...........|...........|...........|...........|...........|...........|A-611v52SD2|F#711v52SD2|...........|...........
|...........|...........|...........|...........|...........|...........|...........|...........|...........|...........|...........|...........|...........|...........|...........|...........|...........|...........|...........|...........|...........|...........|...........|...........|...........|...........|...........|...........|...........|...........|...........|...........|...........|...........|...........|...........|...........|...........|...........|...........|...........|...........|...........|...........
|...........|...........|===.....SD2|===.....SD2|...........|...........|...........|...........|...........|===.....SD2|===.....SD2|...........|...........|...........|...........|...........|...........|...........|...........|...........|...........|...........|...........|E-313v64SD2|F#312v64SD2|...........|...........|...........|...........|...........|...........|...........|...........|...........|...........|...........|...........|...........|...........|...........|===.....SD2|===.....SD2|...........|...........
|...........|...........|...........|...........|...........|===.....SD4|===.....SD4|===.....SD4|...........|...........|...........|...........|...........|...........|...........|...........|...........|...........|...........|...........|...........|...........|...........|...........|...........|...........|...........|...........|...........|...........|...........|...........|...........|...........|...........|...........|===.....SD4|===.....SD4|===.....SD4|...........|...........|...........|...........|...........
|C#403v64SD2|...........|...........|...........|...........|C#405v64SD2|G#405v64SD2|F-505v64SD2|...........|...........|...........|...........|...........|...........|...........|...........|...........|...........|...........|...........|...........|...........|...........|C#320v64SD2|F#312v64SD2|C-302v64SD2|...........|...........|...........|...........|...........|...........|...........|...........|...........|...........|C#410v62SD2|G#410v62SD2|F-510v62SD2|...........|...........|...........|...........|...........
|...........|...........|...........|...........|...........|...........|...........|...........|...........|...........|...........|...........|...........|...........|...........|...........|...........|...........|...........|...........|...........|...........|...........|...........|...........|...........|...........|...........|...........|...........|...........|...........|...........|...........|...........|...........|...........|...........|...........|...........|...........|...........|...........|...........
|...........|...........|...........|...........|...........|...........|...........|...........|...........|...........|...........|...........|...........|...........|...........|...........|...........|...........|...........|...........|...........|...........|...........|E-313v64SD2|...........|...........|...........|...........|...........|...........|...........|...........|...........|...........|...........|...........|...........|...........|...........|...........|...........|...........|...........|...........
|...........|...........|...........|...........|...........|...........|...........|...........|...........|...........|...........|...........|...........|...........|...........|...........|...........|...........|...........|...........|...........|...........|...........|...........|...........|...........|...........|...........|...........|...........|...........|...........|...........|...........|...........|...........|...........|...........|...........|...........|...........|...........|...........|...........
|G#403v64SD2|...........|G#604v59SD2|F-704v59SD2|...........|...........|...........|...........|...........|G#606v64SD2|F-706v64SD2|...........|...........|...........|...........|...........|...........|...........|...........|...........|...........|...........|...........|E-313v64SD2|A#314v64SD2|...........|...........|...........|...........|...........|...........|...........|...........|...........|...........|...........|...........|...........|...........|...........|G#611v52SD2|F-711v52SD2|...........|...........
|...........|...........|...........|...........|...........|...........|...........|...........|...........|...........|...........|...........|...........|...........|...........|...........|...........|...........|...........|...........|...........|...........|...........|...........|...........|...........|...........|...........|...........|...........|...........|...........|...........|...........|...........|...........|...........|...........|...........|...........|...........|...........|...........|...........
|...........|...........|===.....SD2|===.....SD2|...........|...........|...........|...........|...........|===.....SD2|===.....SD2|...........|...........|...........|...........|...........|...........|...........|...........|...........|...........|...........|...........|...........|...........|...........|...........|...........|...........|...........|...........|...........|...........|...........|...........|...........|...........|...........|...........|...........|===.....SD2|===.....SD2|...........|...........
|...........|...........|...........|...........|...........|...........|...........|...........|...........|...........|...........|...........|...........|...........|...........|...........|...........|...........|...........|...........|...........|...........|...........|...........|...........|...........|...........|...........|...........|...........|...........|...........|...........|...........|...........|...........|...........|...........|...........|...........|...........|...........|...........|...........
|C#403v64SD2|...........|...........|...........|...........|...........|...........|...........|...........|...........|...........|...........|...........|...........|...........|...........|...........|...........|...........|...........|...........|...........|...........|E-313v64SD2|C#320v64SD2|F#312v64SD2|C-302v64SD2|...........|...........|...........|...........|...........|...........|...........|...........|...........|...........|...........|...........|...........|...........|...........|...........|...........
|...........|...........|...........|...........|...........|...........|...........|...........|...........|...........|...........|...........|...........|...........|...........|...........|...........|...........|...........|...........|...........|...........|...........|...........|...........|...........|...........|...........|...........|...........|...........|...........|...........|...........|...........|...........|...........|...........|...........|...........|...........|...........|...........|...........
|...........|...........|...........|...........|...........|...........|...........|...........|...........|...........|...........|...........|...........|...........|...........|...........|...........|...........|...........|...........|...........|...........|...........|E-313v64SD2|...........|...........|...........|...........|...........|...........|...........|...........|...........|...........|...........|...........|...........|...........|...........|...........|...........|...........|...........|...........
|...........|...........|...........|...........|...........|...........|...........|...........|...........|...........|...........|...........|...........|...........|...........|...........|...........|...........|...........|...........|...........|...........|...........|...........|...........|...........|...........|...........|...........|...........|...........|...........|...........|...........|...........|...........|...........|...........|...........|...........|...........|...........|...........|...........
|G#403v64SD2|...........|G#604v59SD2|F-704v59SD2|...........|...........|...........|...........|...........|G#606v64SD2|F-706v64SD2|...........|...........|...........|...........|...........|...........|...........|...........|...........|...........|...........|...........|E-313v64SD2|D-315v64SD2|A#314v64SD2|...........|...........|...........|...........|...........|...........|...........|...........|...........|...........|...........|...........|...........|...........|G#611v52SD2|F-711v52SD2|...........|...........
|...........|...........|...........|...........|...........|...........|...........|...........|...........|...........|...........|...........|...........|...........|...........|...........|...........|...........|...........|...........|...........|...........|...........|...........|...........|...........|...........|...........|...........|...........|...........|...........|...........|...........|...........|...........|...........|...........|...........|...........|...........|...........|...........|...........
|...........|...........|===.....SD2|===.....SD2|...........|...........|...........|...........|...........|===.....SD2|===.....SD2|...........|...........|...........|...........|...........|...........|...........|...........|...........|...........|...........|...........|E-313v64SD2|F#312v64SD2|...........|...........|...........|...........|...........|...........|...........|...........|...........|...........|...........|...........|...........|...........|...........|===.....SD2|===.....SD2|...........|...........
|...........|...........|...........|...........|...........|===.....SD4|===.....SD4|===.....SD4|...........|...........|...........|...........|...........|...........|...........|...........|...........|...........|...........|...........|...........|...........|...........|...........|...........|...........|...........|...........|...........|...........|...........|...........|...........|...........|...........|...........|===.....SD4|===.....SD4|===.....SD4|...........|...........|...........|...........|...........


!channels=1+5+15+30
!octaves=1+1+1+1
|C-403v64SD2|...........|...........|...........|...........|C-405v64SD2|G-405v64SD2|D#505v64SD2|...........|...........|...........|...........|G-521v24SD2|G-621v24SD2|G-507v64SD2|G-607v64SD2|...........|G-522v64SD2|G-622v64SD2|...........|...........|...........|...........|C#401v64SD2|C#320v64SD2|D#416v64SD2|F#312v64SD2|C-302v64SD2|...........|G-409v64SD2|G-509v64SD2|...........|...........|...........|...........|...........|C-410v62SD2|G-410v62SD2|D#510v62SD2|...........|...........|...........|...........|...........
|...........|...........|...........|...........|...........|...........|...........|...........|...........|...........|...........|...........|...........|...........|...........|...........|...........|...........|...........|...........|...........|...........|...........|...........|...........|...........|...........|...........|...........|...........|...........|...........|...........|...........|...........|...........|...........|...........|...........|...........|...........|...........|...........|...........
|...........|...........|...........|...........|...........|...........|...........|...........|...........|...........|...........|...........|...........|...........|...........|...........|...........|...........|...........|...........|...........|...........|...........|...........|...........|...........|...........|...........|...........|...........|...........|...........|...........|...........|...........|...........|...........|...........|...........|...........|...........|...........|...........|...........
|...........|...........|...........|...........|...........|...........|...........|...........|...........|...........|...........|...........|...........|...........|...........|...........|...........|...........|...........|...........|...........|...........|...........|...........|...........|...........|...........|...........|...........|...........|...........|...........|...........|...........|...........|...........|...........|...........|...........|...........|...........|...........|...........|...........
|G-403v64SD2|...........|G-604v59SD2|D#704v59SD2|...........|...........|...........|...........|...........|G-606v64SD2|D#706v64SD2|...........|===.....SD2|===.....SD2|===.....SD2|===.....SD2|...........|===.....SD2|===.....SD2|...........|...........|...........|...........|A-319v59SD2|F#312v64SD2|...........|...........|...........|...........|===.....SD2|===.....SD2|...........|...........|...........|...........|...........|...........|...........|...........|...........|G-611v52SD2|D#711v52SD2|...........|...........
|...........|...........|...........|...........|...........|...........|...........|...........|...........|...........|...........|...........|...........|...........|...........|...........|...........|...........|...........|...........|...........|...........|...........|...........|...........|...........|...........|...........|...........|...........|...........|...........|...........|...........|...........|...........|...........|...........|...........|...........|...........|...........|...........|...........
|...........|...........|===.....SD2|===.....SD2|...........|...........|...........|...........|...........|===.....SD2|===.....SD2|...........|...........|...........|...........|...........|...........|...........|...........|...........|...........|...........|...........|...........|...........|...........|...........|...........|...........|...........|...........|...........|...........|...........|...........|...........|...........|...........|...........|...........|===.....SD2|===.....SD2|...........|...........
|...........|...........|...........|...........|...........|...........|...........|...........|...........|...........|...........|...........|...........|...........|...........|...........|...........|...........|...........|...........|...........|...........|...........|...........|...........|...........|...........|...........|...........|...........|...........|...........|...........|...........|...........|...........|...........|...........|...........|...........|...........|...........|...........|...........
|C-403v64SD2|...........|...........|...........|...........|...........|...........|...........|...........|...........|...........|...........|D#521v24SD2|D#621v24SD2|D#507v64SD2|D#607v64SD2|...........|D#522v64SD2|D#622v64SD2|...........|...........|...........|...........|D-315v64SD2|C#320v64SD2|A#314v64SD2|...........|...........|...........|D#409v64SD2|D#509v64SD2|...........|...........|...........|...........|...........|...........|...........|...........|...........|...........|...........|...........|...........
|...........|...........|...........|...........|...........|...........|...........|...........|...........|...........|...........|...........|...........|...........|...........|...........|...........|...........|...........|...........|...........|...........|...........|...........|...........|...........|...........|...........|...........|...........|...........|...........|...........|...........|...........|...........|...........|...........|...........|...........|...........|...........|...........|...........
|...........|...........|...........|...........|...........|...........|...........|...........|...........|...........|...........|...........|...........|...........|...........|...........|...........|...........|...........|...........|...........|...........|...........|...........|...........|...........|...........|...........|...........|...........|...........|...........|...........|...........|...........|...........|...........|...........|...........|...........|...........|...........|...........|...........
|...........|...........|...........|...........|...........|...........|...........|...........|...........|...........|...........|...........|...........|...........|...........|...........|...........|...........|...........|...........|...........|...........|...........|...........|...........|...........|...........|...........|...........|...........|...........|...........|...........|...........|...........|...........|...........|...........|...........|...........|...........|...........|...........|...........
|G-403v64SD2|...........|G-604v59SD2|D#704v59SD2|...........|...........|...........|...........|...........|G-606v64SD2|D#706v64SD2|...........|===.....SD2|===.....SD2|===.....SD2|===.....SD2|...........|===.....SD2|===.....SD2|...........|...........|...........|...........|F#312v64SD2|...........|...........|...........|...........|...........|===.....SD2|===.....SD2|...........|...........|...........|...........|...........|...........|...........|...........|...........|G-611v52SD2|D#711v52SD2|...........|...........
|...........|...........|...........|...........|...........|...........|...........|...........|...........|...........|...........|...........|...........|...........|...........|...........|...........|...........|...........|...........|...........|...........|...........|...........|...........|...........|...........|...........|...........|...........|...........|...........|...........|...........|...........|...........|...........|...........|...........|...........|...........|...........|...........|...........
|...........|...........|===.....SD2|===.....SD2|...........|...........|...........|...........|...........|===.....SD2|===.....SD2|...........|...........|...........|...........|...........|...........|...........|...........|...........|...........|...........|...........|A-319v59SD2|F#312v64SD2|...........|...........|...........|...........|...........|...........|...........|...........|...........|...........|...........|...........|...........|...........|...........|===.....SD2|===.....SD2|...........|...........
|...........|...........|...........|...........|...........|===.....SD4|===.....SD4|===.....SD4|...........|...........|...........|...........|...........|...........|...........|...........|...........|...........|...........|...........|...........|...........|...........|...........|...........|...........|...........|...........|...........|...........|...........|...........|...........|...........|...........|...........|===.....SD4|===.....SD4|===.....SD4|...........|...........|...........|...........|...........
|B-303v64SD2|...........|...........|...........|...........|B-305v64SD2|F#405v64SD2|D-505v64SD2|...........|...........|...........|...........|F#521v24SD2|F#621v24SD2|F#507v64SD2|F#607v64SD2|...........|F#522v64SD2|F#622v64SD2|...........|...........|...........|...........|C#320v64SD2|F#312v64SD2|C-302v64SD2|...........|...........|...........|F#409v64SD2|F#509v64SD2|...........|...........|...........|...........|...........|B-310v62SD2|F#410v62SD2|D-510v62SD2|...........|...........|...........|...........|...........

ModPlug Tracker MPT
|...........|...........|...........|...........|...........|...........|...........|...........|...........|...........|...........|...........|...........|...........|...........|...........|...........|...........|...........|...........|...........|...........|...........|...........|...........|...........|...........|...........|...........|...........|...........|...........|...........|...........|...........|...........|...........|...........|...........|...........|...........|...........|...........|...........
|...........|...........|...........|...........|...........|...........|...........|...........|...........|...........|...........|...........|...........|...........|...........|...........|...........|...........|...........|...........|...........|...........|...........|...........|...........|...........|...........|...........|...........|...........|...........|...........|...........|...........|...........|...........|...........|...........|...........|...........|...........|...........|...........|...........
|...........|...........|...........|...........|...........|...........|...........|...........|...........|...........|...........|...........|...........|...........|...........|...........|...........|...........|...........|...........|...........|...........|...........|...........|...........|...........|...........|...........|...........|...........|...........|...........|...........|...........|...........|...........|...........|...........|...........|...........|...........|...........|...........|...........
|F#403v64SD2|...........|F#604v59SD2|D-704v59SD2|...........|...........|...........|...........|...........|F#606v64SD2|D-706v64SD2|...........|===.....SD2|===.....SD2|===.....SD2|===.....SD2|...........|===.....SD2|===.....SD2|...........|...........|...........|...........|F-317v59SD2|E-313v42SD2|A#314v64SD2|...........|...........|...........|===.....SD2|===.....SD2|...........|...........|...........|...........|...........|...........|...........|...........|...........|F#611v52SD2|D-711v52SD2|...........|...........
|...........|...........|...........|...........|...........|...........|...........|...........|...........|...........|...........|...........|...........|...........|...........|...........|...........|...........|...........|...........|...........|...........|...........|...........|...........|...........|...........|...........|...........|...........|...........|...........|...........|...........|...........|...........|...........|...........|...........|...........|...........|...........|...........|...........
|...........|...........|===.....SD2|===.....SD2|...........|...........|...........|...........|...........|===.....SD2|===.....SD2|...........|...........|...........|...........|...........|...........|...........|...........|...........|...........|...........|...........|F-317v59SD2|...........|...........|...........|...........|...........|...........|...........|...........|...........|...........|...........|...........|...........|...........|...........|...........|===.....SD2|===.....SD2|...........|...........
|...........|...........|...........|...........|...........|...........|...........|...........|...........|...........|...........|...........|...........|...........|...........|...........|...........|...........|...........|...........|...........|...........|...........|...........|...........|...........|...........|...........|...........|...........|...........|...........|...........|...........|...........|...........|...........|...........|...........|...........|...........|...........|...........|...........
|B-303v64SD2|...........|...........|...........|...........|...........|...........|...........|...........|...........|...........|...........|D-521v24SD2|D-621v24SD2|D-507v64SD2|D-607v64SD2|...........|D-522v64SD2|D-622v64SD2|...........|...........|...........|...........|D-315v64SD2|C#320v64SD2|F#312v64SD2|...........|...........|...........|D-409v64SD2|D-509v64SD2|...........|...........|...........|...........|...........|...........|...........|...........|...........|...........|...........|...........|...........
|...........|...........|...........|...........|...........|...........|...........|...........|...........|...........|...........|...........|...........|...........|...........|...........|...........|...........|...........|...........|...........|...........|...........|...........|...........|...........|...........|...........|...........|...........|...........|...........|...........|...........|...........|...........|...........|...........|...........|...........|...........|...........|...........|...........
|...........|...........|...........|...........|...........|...........|...........|...........|...........|...........|...........|...........|...........|...........|...........|...........|...........|...........|...........|...........|...........|...........|...........|...........|...........|...........|...........|...........|...........|...........|...........|...........|...........|...........|...........|...........|...........|...........|...........|...........|...........|...........|...........|...........
|...........|...........|...........|...........|...........|...........|...........|...........|...........|...........|...........|...........|...........|...........|...........|...........|...........|...........|...........|...........|...........|...........|...........|...........|...........|...........|...........|...........|...........|...........|...........|...........|...........|...........|...........|...........|...........|...........|...........|...........|...........|...........|...........|...........
|F#403v64SD2|...........|F#604v59SD2|D-704v59SD2|...........|...........|...........|...........|...........|F#606v64SD2|D-706v64SD2|...........|===.....SD2|===.....SD2|===.....SD2|===.....SD2|...........|===.....SD2|===.....SD2|...........|...........|...........|...........|F-317v59SD2|D-315v59SD2|A#314v64SD2|...........|...........|...........|===.....SD2|===.....SD2|...........|...........|...........|...........|...........|...........|...........|...........|...........|F#611v52SD2|D-711v52SD2|...........|...........
|...........|...........|...........|...........|...........|...........|...........|...........|...........|...........|...........|...........|...........|...........|...........|...........|...........|...........|...........|...........|...........|...........|...........|...........|...........|...........|...........|...........|...........|...........|...........|...........|...........|...........|...........|...........|...........|...........|...........|...........|...........|...........|...........|...........
|...........|...........|===.....SD2|===.....SD2|...........|...........|...........|...........|...........|===.....SD2|===.....SD2|...........|...........|...........|...........|...........|...........|...........|...........|...........|...........|...........|...........|F#312v64SD2|...........|...........|...........|...........|...........|...........|...........|...........|...........|...........|...........|...........|...........|...........|...........|...........|===.....SD2|===.....SD2|...........|...........
|...........|...........|...........|...........|...........|===.....SD4|===.....SD4|===.....SD4|...........|...........|...........|...........|...........|...........|...........|...........|...........|...........|...........|...........|...........|...........|...........|...........|...........|...........|...........|...........|...........|...........|...........|...........|...........|...........|...........|...........|===.....SD4|===.....SD4|===.....SD4|...........|...........|...........|...........|...........
|D-403v64SD2|...........|...........|...........|...........|D-405v64SD2|A-405v64SD2|F#505v64SD2|...........|...........|...........|...........|A-521v24SD2|A-621v24SD2|A-507v64SD2|A-607v64SD2|...........|A-522v64SD2|A-622v64SD2|...........|...........|...........|...........|C#320v64SD2|D#416v64SD2|F#312v64SD2|C-302v64SD2|...........|...........|A-409v64SD2|A-509v64SD2|...........|...........|...........|...........|...........|D-410v62SD2|A-410v62SD2|F#510v62SD2|...........|...........|...........|...........|...........
|...........|...........|...........|...........|...........|...........|...........|...........|...........|...........|...........|...........|...........|...........|...........|...........|...........|...........|...........|...........|...........|...........|...........|...........|...........|...........|...........|...........|...........|...........|...........|...........|...........|...........|...........|...........|...........|...........|...........|...........|...........|...........|...........|...........
|...........|...........|...........|...........|...........|...........|...........|...........|...........|...........|...........|...........|...........|...........|...........|...........|...........|...........|...........|...........|...........|...........|...........|...........|...........|...........|...........|...........|...........|...........|...........|...........|...........|...........|...........|...........|...........|...........|...........|...........|...........|...........|...........|...........
|...........|...........|...........|...........|...........|...........|...........|...........|...........|...........|...........|...........|...........|...........|...........|...........|...........|...........|...........|...........|...........|...........|...........|...........|...........|...........|...........|...........|...........|...........|...........|...........|...........|...........|...........|...........|...........|...........|...........|...........|...........|...........|...........|...........
|A-403v64SD2|...........|A-604v59SD2|F#704v59SD2|...........|...........|...........|...........|...........|A-606v64SD2|F#706v64SD2|...........|===.....SD2|===.....SD2|===.....SD2|===.....SD2|...........|===.....SD2|===.....SD2|...........|...........|...........|...........|A-319v59SD2|F#312v64SD2|...........|...........|...........|...........|===.....SD2|===.....SD2|...........|...........|...........|...........|...........|...........|...........|...........|...........|A-611v52SD2|F#711v52SD2|...........|...........
|...........|...........|...........|...........|...........|...........|...........|...........|...........|...........|...........|...........|...........|...........|...........|...........|...........|...........|...........|...........|...........|...........|...........|...........|...........|...........|...........|...........|...........|...........|...........|...........|...........|...........|...........|...........|...........|...........|...........|...........|...........|...........|...........|...........
|...........|...........|===.....SD2|===.....SD2|...........|...........|...........|...........|...........|===.....SD2|===.....SD2|...........|...........|...........|...........|...........|...........|...........|...........|...........|...........|...........|...........|...........|...........|...........|...........|...........|...........|...........|...........|...........|...........|...........|...........|...........|...........|...........|...........|...........|===.....SD2|===.....SD2|...........|...........
|...........|...........|...........|...........|...........|...........|...........|...........|...........|...........|...........|...........|...........|...........|...........|...........|...........|...........|...........|...........|...........|...........|...........|...........|...........|...........|...........|...........|...........|...........|...........|...........|...........|...........|...........|...........|...........|...........|...........|...........|...........|...........|...........|...........
|D-403v64SD2|...........|...........|...........|...........|...........|...........|...........|...........|...........|...........|...........|F#521v24SD2|F#621v24SD2|F#507v64SD2|F#607v64SD2|...........|F#522v64SD2|F#622v64SD2|...........|...........|...........|...........|E-313v64SD2|D-315v64SD2|C#320v64SD2|A#314v64SD2|...........|...........|F#409v64SD2|F#509v64SD2|...........|...........|...........|...........|...........|...........|...........|...........|...........|...........|...........|...........|...........
|...........|...........|...........|...........|...........|...........|...........|...........|...........|...........|...........|...........|...........|...........|...........|...........|...........|...........|...........|...........|...........|...........|...........|...........|...........|...........|...........|...........|...........|...........|...........|...........|...........|...........|...........|...........|...........|...........|...........|...........|...........|...........|...........|...........
|...........|...........|...........|...........|...........|...........|...........|...........|...........|...........|...........|...........|...........|...........|...........|...........|...........|...........|...........|...........|...........|...........|...........|...........|...........|...........|...........|...........|...........|...........|...........|...........|...........|...........|...........|...........|...........|...........|...........|...........|...........|...........|...........|...........
|...........|...........|...........|...........|...........|...........|...........|...........|...........|...........|...........|...........|...........|...........|...........|...........|...........|...........|...........|...........|...........|...........|...........|...........|...........|...........|...........|...........|...........|...........|...........|...........|...........|...........|...........|...........|...........|...........|...........|...........|...........|...........|...........|...........
|A-403v64SD2|...........|A-604v59SD2|F#704v59SD2|...........|...........|...........|...........|...........|A-606v64SD2|F#706v64SD2|...........|===.....SD2|===.....SD2|===.....SD2|===.....SD2|...........|===.....SD2|===.....SD2|...........|...........|...........|...........|D-315v64SD2|F#312v64SD2|...........|...........|...........|...........|===.....SD2|===.....SD2|...........|...........|...........|...........|...........|...........|...........|...........|...........|A-611v52SD2|F#711v52SD2|...........|...........
|...........|...........|...........|...........|...........|...........|...........|...........|...........|...........|...........|...........|...........|...........|...........|...........|...........|...........|...........|...........|...........|...........|...........|...........|...........|...........|...........|...........|...........|...........|...........|...........|...........|...........|...........|...........|...........|...........|...........|...........|...........|...........|...........|...........
|...........|...........|===.....SD2|===.....SD2|...........|...........|...........|...........|...........|===.....SD2|===.....SD2|...........|...........|...........|...........|...........|...........|...........|...........|...........|...........|...........|...........|A-319v59SD2|F#312v64SD2|...........|...........|...........|...........|...........|...........|...........|...........|...........|...........|...........|...........|...........|...........|...........|===.....SD2|===.....SD2|...........|...........
|...........|...........|...........|...........|...........|===.....SD4|===.....SD4|===.....SD4|...........|...........|...........|...........|...........|...........|...........|...........|...........|...........|...........|...........|...........|...........|...........|...........|...........|...........|...........|...........|...........|...........|...........|...........|...........|...........|...........|...........|===.....SD4|===.....SD4|===.....SD4|...........|...........|...........|...........|...........
|C#403v64SD2|...........|...........|...........|...........|C#405v64SD2|G#405v64SD2|F-505v64SD2|...........|...........|...........|...........|F-521v24SD2|F-621v24SD2|F-507v64SD2|F-607v64SD2|...........|F-522v64SD2|F-622v64SD2|...........|...........|...........|...........|C#320v64SD2|F#312v64SD2|C-302v64SD2|...........|...........|...........|F-409v64SD2|F-509v64SD2|...........|...........|...........|...........|...........|C#410v62SD2|G#410v62SD2|F-510v62SD2|...........|...........|...........|...........|...........
|...........|...........|...........|...........|...........|...........|...........|...........|...........|...........|...........|...........|...........|...........|...........|...........|...........|...........|...........|...........|...........|...........|...........|...........|...........|...........|...........|...........|...........|...........|...........|...........|...........|...........|...........|...........|...........|...........|...........|...........|...........|...........|...........|...........
|...........|...........|...........|...........|...........|...........|...........|...........|...........|...........|...........|...........|...........|...........|...........|...........|...........|...........|...........|...........|...........|...........|...........|...........|...........|...........|...........|...........|...........|...........|...........|...........|...........|...........|...........|...........|...........|...........|...........|...........|...........|...........|...........|...........
|...........|...........|...........|...........|...........|...........|...........|...........|...........|...........|...........|...........|...........|...........|...........|...........|...........|...........|...........|...........|...........|...........|...........|...........|...........|...........|...........|...........|...........|...........|...........|...........|...........|...........|...........|...........|...........|...........|...........|...........|...........|...........|...........|...........
|G#403v64SD2|...........|G#604v59SD2|F-704v59SD2|...........|...........|...........|...........|...........|G#606v64SD2|F-706v64SD2|...........|===.....SD2|===.....SD2|===.....SD2|===.....SD2|...........|===.....SD2|===.....SD2|...........|...........|...........|...........|F-317v59SD2|A#314v64SD2|...........|...........|...........|...........|===.....SD2|===.....SD2|...........|...........|...........|...........|...........|...........|...........|...........|...........|G#611v52SD2|F-711v52SD2|...........|...........
|...........|...........|...........|...........|...........|...........|...........|...........|...........|...........|...........|...........|...........|...........|...........|...........|...........|...........|...........|...........|...........|...........|...........|...........|...........|...........|...........|...........|...........|...........|...........|...........|...........|...........|...........|...........|...........|...........|...........|...........|...........|...........|...........|...........
|...........|...........|===.....SD2|===.....SD2|...........|...........|...........|...........|...........|===.....SD2|===.....SD2|...........|...........|...........|...........|...........|...........|...........|...........|...........|...........|...........|...........|...........|...........|...........|...........|...........|...........|...........|...........|...........|...........|...........|...........|...........|...........|...........|...........|...........|===.....SD2|===.....SD2|...........|...........
|...........|...........|...........|...........|...........|...........|...........|...........|...........|...........|...........|...........|...........|...........|...........|...........|...........|...........|...........|...........|...........|...........|...........|...........|...........|...........|...........|...........|...........|...........|...........|...........|...........|...........|...........|...........|...........|...........|...........|...........|...........|...........|...........|...........
|C#403v64SD2|...........|...........|...........|...........|...........|...........|...........|...........|...........|...........|...........|G#521v24SD2|G#621v24SD2|G#507v64SD2|G#607v64SD2|...........|G#522v64SD2|G#622v64SD2|...........|...........|...........|...........|D-315v64SD2|C#320v64SD2|F#312v64SD2|...........|...........|...........|G#409v64SD2|G#509v64SD2|...........|...........|...........|...........|...........|...........|...........|...........|...........|...........|...........|...........|...........
|...........|...........|...........|...........|...........|...........|...........|...........|...........|...........|...........|...........|...........|...........|...........|...........|...........|...........|...........|...........|...........|...........|...........|...........|...........|...........|...........|...........|...........|...........|...........|...........|...........|...........|...........|...........|...........|...........|...........|...........|...........|...........|...........|...........
|...........|...........|...........|...........|...........|...........|...........|...........|...........|...........|...........|...........|...........|...........|...........|...........|...........|...........|...........|...........|...........|...........|...........|...........|...........|...........|...........|...........|...........|...........|...........|...........|...........|...........|...........|...........|...........|...........|...........|...........|...........|...........|...........|...........
|...........|...........|...........|...........|...........|...........|...........|...........|...........|...........|...........|...........|...........|...........|...........|...........|...........|...........|...........|...........|...........|...........|...........|...........|...........|...........|...........|...........|...........|...........|...........|...........|...........|...........|...........|...........|...........|...........|...........|...........|...........|...........|...........|...........
|G#403v64SD2|...........|G#604v59SD2|F-704v59SD2|...........|...........|...........|...........|...........|G#606v64SD2|F-706v64SD2|...........|===.....SD2|===.....SD2|===.....SD2|===.....SD2|...........|===.....SD2|===.....SD2|...........|...........|...........|...........|A-319v59SD2|D-315v64SD2|A#314v64SD2|...........|...........|...........|===.....SD2|===.....SD2|...........|...........|...........|...........|...........|...........|...........|...........|...........|G#611v52SD2|F-711v52SD2|...........|...........
|...........|...........|...........|...........|...........|...........|...........|...........|...........|...........|...........|...........|...........|...........|...........|...........|...........|...........|...........|...........|...........|...........|...........|...........|...........|...........|...........|...........|...........|...........|...........|...........|...........|...........|...........|...........|...........|...........|...........|...........|...........|...........|...........|...........
|...........|...........|===.....SD2|===.....SD2|...........|...........|...........|...........|...........|===.....SD2|===.....SD2|...........|...........|...........|...........|...........|...........|...........|...........|...........|...........|...........|...........|F#312v64SD2|...........|...........|...........|...........|...........|...........|...........|...........|...........|...........|...........|...........|...........|...........|...........|...........|===.....SD2|===.....SD2|...........|...........
|...........|...........|...........|...........|...........|===.....SD4|===.....SD4|===.....SD4|...........|...........|...........|...........|...........|...........|...........|...........|...........|...........|...........|...........|...........|...........|...........|...........|...........|...........|...........|...........|...........|...........|...........|...........|...........|...........|...........|...........|===.....SD4|===.....SD4|===.....SD4|...........|...........|...........|...........|...........
|C-403v64SD2|...........|...........|...........|...........|C-405v64SD2|G-405v64SD2|D#505v64SD2|...........|...........|...........|...........|G-521v24SD2|G-621v24SD2|G-507v64SD2|G-607v64SD2|...........|G-522v64SD2|G-622v64SD2|...........|...........|...........|...........|C#320v64SD2|D#416v64SD2|F#312v64SD2|C-302v64SD2|...........|...........|G-409v64SD2|G-509v64SD2|...........|...........|...........|...........|...........|C-410v62SD2|G-410v62SD2|D#510v62SD2|...........|...........|...........|...........|...........
|...........|...........|...........|...........|...........|...........|...........|...........|...........|...........|...........|...........|...........|...........|...........|...........|...........|...........|...........|...........|...........|...........|...........|...........|...........|...........|...........|...........|...........|...........|...........|...........|...........|...........|...........|...........|...........|...........|...........|...........|...........|...........|...........|...........
|...........|...........|...........|...........|...........|...........|...........|...........|...........|...........|...........|...........|...........|...........|...........|...........|...........|...........|...........|...........|...........|...........|...........|...........|...........|...........|...........|...........|...........|...........|...........|...........|...........|...........|...........|...........|...........|...........|...........|...........|...........|...........|...........|...........
|...........|...........|...........|...........|...........|...........|...........|...........|...........|...........|...........|...........|...........|...........|...........|...........|...........|...........|...........|...........|...........|...........|...........|...........|...........|...........|...........|...........|...........|...........|...........|...........|...........|...........|...........|...........|...........|...........|...........|...........|...........|...........|...........|...........
|G-403v64SD2|...........|G-604v59SD2|D#704v59SD2|...........|...........|...........|...........|...........|G-606v64SD2|D#706v64SD2|...........|===.....SD2|===.....SD2|===.....SD2|===.....SD2|...........|===.....SD2|===.....SD2|...........|...........|...........|...........|A-319v59SD2|F#312v64SD2|...........|...........|...........|...........|===.....SD2|===.....SD2|...........|...........|...........|...........|...........|...........|...........|...........|...........|G-611v52SD2|D#711v52SD2|...........|...........
|...........|...........|...........|...........|...........|...........|...........|...........|...........|...........|...........|...........|...........|...........|...........|...........|...........|...........|...........|...........|...........|...........|...........|...........|...........|...........|...........|...........|...........|...........|...........|...........|...........|...........|...........|...........|...........|...........|...........|...........|...........|...........|...........|...........
|...........|...........|===.....SD2|===.....SD2|...........|...........|...........|...........|...........|===.....SD2|===.....SD2|...........|...........|...........|...........|...........|...........|...........|...........|...........|...........|...........|...........|...........|...........|...........|...........|...........|...........|...........|...........|...........|...........|...........|...........|...........|...........|...........|...........|...........|===.....SD2|===.....SD2|...........|...........
|...........|...........|...........|...........|...........|...........|...........|...........|...........|...........|...........|...........|...........|...........|...........|...........|...........|...........|...........|...........|...........|...........|...........|...........|...........|...........|...........|...........|...........|...........|...........|...........|...........|...........|...........|...........|...........|...........|...........|...........|...........|...........|...........|...........
|C-403v64SD2|...........|...........|...........|...........|...........|...........|...........|...........|...........|...........|...........|D#521v24SD2|D#621v24SD2|D#507v64SD2|D#607v64SD2|...........|D#522v64SD2|D#622v64SD2|...........|...........|...........|...........|D-315v64SD2|C#320v64SD2|A#314v64SD2|...........|...........|...........|D#409v64SD2|D#509v64SD2|...........|...........|...........|...........|...........|...........|...........|...........|...........|...........|...........|...........|...........
|...........|...........|...........|...........|...........|...........|...........|...........|...........|...........|...........|...........|...........|...........|...........|...........|...........|...........|...........|...........|...........|...........|...........|...........|...........|...........|...........|...........|...........|...........|...........|...........|...........|...........|...........|...........|...........|...........|...........|...........|...........|...........|...........|...........
|...........|...........|...........|...........|...........|...........|...........|...........|...........|...........|...........|...........|...........|...........|...........|...........|...........|...........|...........|...........|...........|...........|...........|F-317v59SD2|...........|...........|...........|...........|...........|...........|...........|...........|...........|...........|...........|...........|...........|...........|...........|...........|...........|...........|...........|...........
|...........|...........|...........|...........|...........|...........|...........|...........|...........|...........|...........|...........|...........|...........|...........|...........|...........|...........|...........|...........|...........|...........|...........|...........|...........|...........|...........|...........|...........|...........|...........|...........|...........|...........|...........|...........|...........|...........|...........|...........|...........|...........|...........|...........
|G-403v64SD2|...........|G-604v59SD2|D#704v59SD2|...........|...........|...........|...........|...........|G-606v64SD2|D#706v64SD2|...........|===.....SD2|===.....SD2|===.....SD2|===.....SD2|...........|===.....SD2|===.....SD2|...........|...........|...........|...........|F#312v64SD2|...........|...........|...........|...........|...........|===.....SD2|===.....SD2|...........|...........|...........|...........|...........|...........|...........|...........|...........|G-611v52SD2|D#711v52SD2|...........|...........
|...........|...........|...........|...........|...........|...........|...........|...........|...........|...........|...........|...........|...........|...........|...........|...........|...........|...........|...........|...........|...........|...........|...........|...........|...........|...........|...........|...........|...........|...........|...........|...........|...........|...........|...........|...........|...........|...........|...........|...........|...........|...........|...........|...........
|...........|...........|===.....SD2|===.....SD2|...........|...........|...........|...........|...........|===.....SD2|===.....SD2|...........|...........|...........|...........|...........|...........|...........|...........|...........|...........|...........|...........|C-418v59SD2|F#312v64SD2|...........|...........|...........|...........|...........|...........|...........|...........|...........|...........|...........|...........|...........|...........|...........|===.....SD2|===.....SD2|...........|...........
|...........|...........|...........|...........|...........|===.....SD4|===.....SD4|===.....SD4|...........|...........|...........|...........|...........|...........|...........|...........|...........|...........|...........|...........|...........|...........|...........|...........|...........|...........|...........|...........|...........|...........|...........|...........|...........|...........|...........|...........|===.....SD4|===.....SD4|===.....SD4|...........|...........|...........|...........|...........
|B-303v64SD2|...........|...........|...........|...........|B-305v64SD2|F#405v64SD2|D-505v64SD2|...........|...........|...........|...........|F#521v24SD2|F#621v24SD2|F#507v64SD2|F#607v64SD2|...........|F#522v64SD2|F#622v64SD2|...........|...........|...........|...........|C#320v64SD2|F#312v64SD2|C-302v64SD2|...........|...........|...........|F#409v64SD2|F#509v64SD2|...........|...........|...........|...........|...........|B-310v62SD2|F#410v62SD2|D-510v62SD2|...........|...........|...........|...........|...........
|...........|...........|...........|...........|...........|...........|...........|...........|...........|...........|...........|...........|...........|...........|...........|...........|...........|...........|...........|...........|...........|...........|...........|...........|...........|...........|...........|...........|...........|...........|...........|...........|...........|...........|...........|...........|...........|...........|...........|...........|...........|...........|...........|...........
|...........|...........|...........|...........|...........|...........|...........|...........|...........|...........|...........|...........|...........|...........|...........|...........|...........|...........|...........|...........|...........|...........|...........|...........|...........|...........|...........|...........|...........|...........|...........|...........|...........|...........|...........|...........|...........|...........|...........|...........|...........|...........|...........|...........
|...........|...........|...........|...........|...........|...........|...........|...........|...........|...........|...........|...........|...........|...........|...........|...........|...........|...........|...........|...........|...........|...........|...........|...........|...........|...........|...........|...........|...........|...........|...........|...........|...........|...........|...........|...........|...........|...........|...........|...........|...........|...........|...........|...........
|F#403v64SD2|...........|F#604v59SD2|D-704v59SD2|...........|...........|...........|...........|...........|F#606v64SD2|D-706v64SD2|...........|===.....SD2|===.....SD2|===.....SD2|===.....SD2|...........|===.....SD2|===.....SD2|...........|...........|...........|...........|E-313v42SD2|A#314v64SD2|...........|...........|...........|...........|===.....SD2|===.....SD2|...........|...........|...........|...........|...........|...........|...........|...........|...........|F#611v52SD2|D-711v52SD2|...........|...........
|...........|...........|...........|...........|...........|...........|...........|...........|...........|...........|...........|...........|...........|...........|...........|...........|...........|...........|...........|...........|...........|...........|...........|...........|...........|...........|...........|...........|...........|...........|...........|...........|...........|...........|...........|...........|...........|...........|...........|...........|...........|...........|...........|...........
|...........|...........|===.....SD2|===.....SD2|...........|...........|...........|...........|...........|===.....SD2|===.....SD2|...........|...........|...........|...........|...........|...........|...........|...........|...........|...........|...........|...........|E-313v42SD2|...........|...........|...........|...........|...........|...........|...........|...........|...........|...........|...........|...........|...........|...........|...........|...........|===.....SD2|===.....SD2|...........|...........
|...........|...........|...........|...........|...........|...........|...........|...........|...........|...........|...........|...........|...........|...........|...........|...........|...........|...........|...........|...........|...........|...........|...........|...........|...........|...........|...........|...........|...........|...........|...........|...........|...........|...........|...........|...........|...........|...........|...........|...........|...........|...........|...........|...........
|B-303v64SD2|...........|...........|...........|...........|...........|...........|...........|...........|...........|...........|...........|D-521v24SD2|D-621v24SD2|D-507v64SD2|D-607v64SD2|...........|D-522v64SD2|D-622v64SD2|...........|...........|...........|...........|C-418v59SD2|D-315v64SD2|C#320v64SD2|F#312v64SD2|...........|...........|D-409v64SD2|D-509v64SD2|...........|...........|...........|...........|...........|...........|...........|...........|...........|...........|...........|...........|...........
|...........|...........|...........|...........|...........|...........|...........|...........|...........|...........|...........|...........|...........|...........|...........|...........|...........|...........|...........|...........|...........|...........|...........|...........|...........|...........|...........|...........|...........|...........|...........|...........|...........|...........|...........|...........|...........|...........|...........|...........|...........|...........|...........|...........
|...........|...........|...........|...........|...........|...........|...........|...........|...........|...........|...........|...........|...........|...........|...........|...........|...........|...........|...........|...........|...........|...........|...........|...........|...........|...........|...........|...........|...........|...........|...........|...........|...........|...........|...........|...........|...........|...........|...........|...........|...........|...........|...........|...........
|...........|...........|...........|...........|...........|...........|...........|...........|...........|...........|...........|...........|...........|...........|...........|...........|...........|...........|...........|...........|...........|...........|...........|...........|...........|...........|...........|...........|...........|...........|...........|...........|...........|...........|...........|...........|...........|...........|...........|...........|...........|...........|...........|...........
|F#403v64SD2|...........|F#604v59SD2|D-704v59SD2|...........|...........|...........|...........|...........|F#606v64SD2|D-706v64SD2|...........|===.....SD2|===.....SD2|===.....SD2|===.....SD2|...........|===.....SD2|===.....SD2|...........|...........|...........|...........|F-317v59SD2|D-315v59SD2|A#314v64SD2|...........|...........|...........|===.....SD2|===.....SD2|...........|...........|...........|...........|...........|...........|...........|...........|...........|F#611v52SD2|D-711v52SD2|...........|...........
|...........|...........|...........|...........|...........|...........|...........|...........|...........|...........|...........|...........|...........|...........|...........|...........|...........|...........|...........|...........|...........|...........|...........|...........|...........|...........|...........|...........|...........|...........|...........|...........|...........|...........|...........|...........|...........|...........|...........|...........|...........|...........|...........|...........
|...........|...........|===.....SD2|===.....SD2|...........|...........|...........|...........|...........|===.....SD2|===.....SD2|...........|...........|...........|...........|...........|...........|...........|...........|...........|...........|...........|...........|F#312v64SD2|...........|...........|...........|...........|...........|...........|...........|...........|...........|...........|...........|...........|...........|...........|...........|...........|===.....SD2|===.....SD2|...........|...........
|...........|...........|...........|...........|...........|===.....SD4|===.....SD4|===.....SD4|...........|...........|...........|...........|...........|...........|...........|...........|...........|...........|...........|...........|...........|...........|...........|...........|...........|...........|...........|...........|...........|...........|...........|...........|...........|...........|...........|...........|===.....SD4|===.....SD4|===.....SD4|...........|...........|...........|...........|...........
|D-403v64SD2|...........|...........|...........|...........|D-405v64SD2|A-405v64SD2|F#505v64SD2|...........|...........|...........|...........|A-521v24SD2|A-621v24SD2|A-507v64SD2|A-607v64SD2|...........|A-522v64SD2|A-622v64SD2|...........|...........|...........|...........|C#320v64SD2|D#416v64SD2|F#312v64SD2|C-302v64SD2|...........|...........|A-409v64SD2|A-509v64SD2|...........|...........|...........|...........|...........|D-410v62SD2|A-410v62SD2|F#510v62SD2|...........|...........|...........|...........|...........
|...........|...........|...........|...........|...........|...........|...........|...........|...........|...........|...........|...........|...........|...........|...........|...........|...........|...........|...........|...........|...........|...........|...........|...........|...........|...........|...........|...........|...........|...........|...........|...........|...........|...........|...........|...........|...........|...........|...........|...........|...........|...........|...........|...........
|...........|...........|...........|...........|...........|...........|...........|...........|...........|...........|...........|...........|...........|...........|...........|...........|...........|...........|...........|...........|...........|...........|...........|...........|...........|...........|...........|...........|...........|...........|...........|...........|...........|...........|...........|...........|...........|...........|...........|...........|...........|...........|...........|...........
|...........|...........|...........|...........|...........|...........|...........|...........|...........|...........|...........|...........|...........|...........|...........|...........|...........|...........|...........|...........|...........|...........|...........|...........|...........|...........|...........|...........|...........|...........|...........|...........|...........|...........|...........|...........|...........|...........|...........|...........|...........|...........|...........|...........
|A-403v64SD2|...........|A-604v59SD2|F#704v59SD2|...........|...........|...........|...........|...........|A-606v64SD2|F#706v64SD2|...........|===.....SD2|===.....SD2|===.....SD2|===.....SD2|...........|===.....SD2|===.....SD2|...........|...........|...........|...........|A-319v59SD2|F#312v64SD2|...........|...........|...........|...........|===.....SD2|===.....SD2|...........|...........|...........|...........|...........|...........|...........|...........|...........|A-611v52SD2|F#711v52SD2|...........|...........
|...........|...........|...........|...........|...........|...........|...........|...........|...........|...........|...........|...........|...........|...........|...........|...........|...........|...........|...........|...........|...........|...........|...........|...........|...........|...........|...........|...........|...........|...........|...........|...........|...........|...........|...........|...........|...........|...........|...........|...........|...........|...........|...........|...........
|...........|...........|===.....SD2|===.....SD2|...........|...........|...........|...........|...........|===.....SD2|===.....SD2|...........|...........|...........|...........|...........|...........|...........|...........|...........|...........|...........|...........|...........|...........|...........|...........|...........|...........|...........|...........|...........|...........|...........|...........|...........|...........|...........|...........|...........|===.....SD2|===.....SD2|...........|...........
|...........|...........|...........|...........|...........|...........|...........|...........|...........|...........|...........|...........|...........|...........|...........|...........|...........|...........|...........|...........|...........|...........|...........|...........|...........|...........|...........|...........|...........|...........|...........|...........|...........|...........|...........|...........|...........|...........|...........|...........|...........|...........|...........|...........
|D-403v64SD2|...........|...........|...........|...........|...........|...........|...........|...........|...........|...........|...........|F#521v24SD2|F#621v24SD2|F#507v64SD2|F#607v64SD2|...........|F#522v64SD2|F#622v64SD2|...........|...........|...........|...........|E-313v64SD2|D-315v64SD2|C#320v64SD2|A#314v64SD2|...........|...........|F#409v64SD2|F#509v64SD2|...........|...........|...........|...........|...........|...........|...........|...........|...........|...........|...........|...........|...........
|...........|...........|...........|...........|...........|...........|...........|...........|...........|...........|...........|...........|...........|...........|...........|...........|...........|...........|...........|...........|...........|...........|...........|...........|...........|...........|...........|...........|...........|...........|...........|...........|...........|...........|...........|...........|...........|...........|...........|...........|...........|...........|...........|...........
|...........|...........|...........|...........|...........|...........|...........|...........|...........|...........|...........|...........|...........|...........|...........|...........|...........|...........|...........|...........|...........|...........|...........|...........|...........|...........|...........|...........|...........|...........|...........|...........|...........|...........|...........|...........|...........|...........|...........|...........|...........|...........|...........|...........
|...........|...........|...........|...........|...........|...........|...........|...........|...........|...........|...........|...........|...........|...........|...........|...........|...........|...........|...........|...........|...........|...........|...........|...........|...........|...........|...........|...........|...........|...........|...........|...........|...........|...........|...........|...........|...........|...........|...........|...........|...........|...........|...........|...........
|A-403v64SD2|...........|A-604v59SD2|F#704v59SD2|...........|...........|...........|...........|...........|A-606v64SD2|F#706v64SD2|...........|===.....SD2|===.....SD2|===.....SD2|===.....SD2|...........|===.....SD2|===.....SD2|...........|...........|...........|...........|D-315v64SD2|F#312v64SD2|...........|...........|...........|...........|===.....SD2|===.....SD2|...........|...........|...........|...........|...........|...........|...........|...........|...........|A-611v52SD2|F#711v52SD2|...........|...........
|...........|...........|...........|...........|...........|...........|...........|...........|...........|...........|...........|...........|...........|...........|...........|...........|...........|...........|...........|...........|...........|...........|...........|...........|...........|...........|...........|...........|...........|...........|...........|...........|...........|...........|...........|...........|...........|...........|...........|...........|...........|...........|...........|...........
|...........|...........|===.....SD2|===.....SD2|...........|...........|...........|...........|...........|===.....SD2|===.....SD2|...........|...........|...........|...........|...........|...........|...........|...........|...........|...........|...........|...........|A-319v59SD2|F#312v64SD2|...........|...........|...........|...........|...........|...........|...........|...........|...........|...........|...........|...........|...........|...........|...........|===.....SD2|===.....SD2|...........|...........
|...........|...........|...........|...........|...........|===.....SD4|===.....SD4|===.....SD4|...........|...........|...........|...........|...........|...........|...........|...........|...........|...........|...........|...........|...........|...........|...........|...........|...........|...........|...........|...........|...........|...........|...........|...........|...........|...........|...........|...........|===.....SD4|===.....SD4|===.....SD4|...........|...........|...........|...........|...........
|C#403v64SD2|...........|...........|...........|...........|C#405v64SD2|G#405v64SD2|F-505v64SD2|...........|...........|...........|...........|F-521v24SD2|F-621v24SD2|F-507v64SD2|F-607v64SD2|...........|F-522v64SD2|F-622v64SD2|...........|...........|...........|...........|C#320v64SD2|F#312v64SD2|C-302v64SD2|...........|...........|...........|F-409v64SD2|F-509v64SD2|...........|...........|...........|...........|...........|C#410v62SD2|G#410v62SD2|F-510v62SD2|...........|...........|...........|...........|...........
|...........|...........|...........|...........|...........|...........|...........|...........|...........|...........|...........|...........|...........|...........|...........|...........|...........|...........|...........|...........|...........|...........|...........|...........|...........|...........|...........|...........|...........|...........|...........|...........|...........|...........|...........|...........|...........|...........|...........|...........|...........|...........|...........|...........
|...........|...........|...........|...........|...........|...........|...........|...........|...........|...........|...........|...........|...........|...........|...........|...........|...........|...........|...........|...........|...........|...........|...........|...........|...........|...........|...........|...........|...........|...........|...........|...........|...........|...........|...........|...........|...........|...........|...........|...........|...........|...........|...........|...........
|...........|...........|...........|...........|...........|...........|...........|...........|...........|...........|...........|...........|...........|...........|...........|...........|...........|...........|...........|...........|...........|...........|...........|...........|...........|...........|...........|...........|...........|...........|...........|...........|...........|...........|...........|...........|...........|...........|...........|...........|...........|...........|...........|...........
|G#403v64SD2|...........|G#604v59SD2|F-704v59SD2|...........|...........|...........|...........|...........|G#606v64SD2|F-706v64SD2|...........|...........|...........|...........|...........|...........|...........|...........|...........|...........|...........|...........|F-317v59SD2|A#314v64SD2|...........|...........|...........|...........|...........|...........|...........|...........|...........|...........|...........|...........|...........|...........|...........|G#611v52SD2|F-711v52SD2|...........|...........
|...........|...........|...........|...........|...........|...........|...........|...........|...........|...........|...........|...........|...........|...........|...........|...........|...........|...........|...........|...........|...........|...........|...........|...........|...........|...........|...........|...........|...........|...........|...........|...........|...........|...........|...........|...........|...........|...........|...........|...........|...........|...........|...........|...........
|...........|...........|===.....SD2|===.....SD2|...........|...........|...........|...........|...........|===.....SD2|===.....SD2|...........|...........|...........|........EEC|........EEC|...........|...........|...........|...........|...........|...........|...........|...........|...........|...........|...........|...........|...........|........EE6|........EE6|...........|...........|...........|...........|...........|...........|...........|...........|...........|===.....SD2|===.....SD2|...........|...........
|...........|...........|...........|...........|...........|...........|...........|...........|...........|...........|...........|...........|...........|...........|........EEC|........EEC|...........|...........|...........|...........|...........|...........|...........|...........|...........|...........|...........|...........|...........|........EE6|........EE6|...........|...........|...........|...........|...........|...........|...........|...........|...........|...........|...........|...........|...........
|C#403v64SD2|...........|...........|...........|...........|...........|...........|...........|...........|...........|...........|...........|...........|...........|...........|...........|...........|...........|...........|...........|...........|...........|...........|D-315v64SD2|C#320v64SD2|F#312v64SD2|...........|...........|...........|...........|...........|...........|...........|...........|...........|...........|...........|...........|...........|...........|...........|...........|...........|...........
|...........|...........|...........|...........|...........|...........|...........|...........|...........|...........|...........|...........|...........|...........|........EF6|........EF6|...........|...........|...........|...........|...........|...........|...........|...........|...........|...........|...........|...........|...........|........EEC|........EEC|...........|...........|...........|...........|...........|...........|...........|...........|...........|...........|...........|...........|...........
|...........|...........|...........|...........|...........|...........|...........|...........|...........|...........|...........|...........|...........|...........|........EEC|........EEC|...........|...........|...........|...........|...........|...........|...........|...........|...........|...........|...........|...........|...........|........EE6|........EE6|...........|...........|...........|...........|...........|...........|...........|...........|...........|...........|...........|...........|...........
|...........|...........|...........|...........|...........|...........|...........|...........|...........|...........|...........|...........|...........|...........|........EF9|........EF9|...........|...........|...........|...........|...........|...........|...........|...........|...........|...........|...........|...........|...........|........EF5|........EF5|...........|...........|...........|...........|...........|...........|...........|...........|...........|...........|...........|...........|...........
|G#403v64SD2|...........|G#604v59SD2|F-704v59SD2|...........|...........|...........|...........|...........|G#606v64SD2|F-706v64SD2|...........|...........|...........|........EF9|........EF9|...........|...........|...........|...........|...........|...........|...........|A-319v59SD2|D-315v64SD2|A#314v64SD2|...........|...........|...........|........EF4|........EF4|...........|...........|...........|...........|...........|...........|...........|...........|...........|G#611v52SD2|F-711v52SD2|...........|...........
|...........|...........|...........|...........|...........|...........|...........|...........|...........|...........|...........|...........|...........|...........|........EFF|........EFF|...........|...........|...........|...........|...........|...........|...........|...........|...........|...........|...........|...........|...........|........EF8|........EF8|...........|...........|...........|...........|...........|...........|...........|...........|...........|...........|...........|...........|...........
|...........|...........|===.....SD2|===.....SD2|...........|...........|...........|...........|...........|===.....SD2|===.....SD2|...........|...........|...........|........E04|........E04|...........|...........|...........|...........|...........|...........|...........|F#312v64SD2|...........|...........|...........|...........|...........|........EFA|........EFA|...........|...........|...........|...........|...........|...........|...........|...........|...........|===.....SD2|===.....SD2|...........|...........
|...........|...........|...........|...........|...........|===.....SD4|===.....SD4|===.....SD4|...........|...........|...........|...........|===.....SD4|===.....SD4|===.....SD4|===.....SD4|...........|===.....SD4|===.....SD4|...........|...........|...........|...........|...........|...........|...........|...........|...........|...........|===.....SD4|===.....SD4|...........|...........|...........|...........|...........|===.....SD4|===.....SD4|===.....SD4|...........|...........|...........|...........|...........
|C-403v64SD2|...........|...........|...........|...........|C-405v64SD2|G-405v64SD2|D#505v64SD2|...........|...........|...........|...........|G-521v24SD2|G-621v24SD2|G-507v64SD2|G-607v64SD2|...........|G-522v64SD2|G-622v64SD2|...........|...........|...........|...........|C#320v64SD2|D#416v64SD2|F#312v64SD2|C-302v64SD2|...........|...........|G-409v64SD2|G-509v64SD2|...........|...........|...........|...........|...........|C-410v62SD2|G-410v62SD2|D#510v62SD2|...........|...........|...........|...........|...........
|...........|...........|...........|...........|...........|...........|...........|...........|...........|...........|...........|...........|...........|...........|...........|...........|...........|...........|...........|...........|...........|...........|...........|...........|...........|...........|...........|...........|...........|...........|...........|...........|...........|...........|...........|...........|...........|...........|...........|...........|...........|...........|...........|...........
|...........|...........|...........|...........|...........|...........|...........|...........|...........|...........|...........|...........|...........|...........|...........|...........|...........|...........|...........|...........|...........|...........|...........|...........|...........|...........|...........|...........|...........|...........|...........|...........|...........|...........|...........|...........|...........|...........|...........|...........|...........|...........|...........|...........
|...........|...........|...........|...........|...........|...........|...........|...........|...........|...........|...........|...........|...........|...........|...........|...........|...........|...........|...........|...........|...........|...........|...........|...........|...........|...........|...........|...........|...........|...........|...........|...........|...........|...........|...........|...........|...........|...........|...........|...........|...........|...........|...........|...........
|G-403v64SD2|...........|G-604v59SD2|D#704v59SD2|...........|...........|...........|...........|...........|G-606v64SD2|D#706v64SD2|...........|===.....SD2|===.....SD2|===.....SD2|===.....SD2|...........|===.....SD2|===.....SD2|...........|...........|...........|...........|A-319v59SD2|F#312v64SD2|...........|...........|...........|...........|===.....SD2|===.....SD2|...........|...........|...........|...........|...........|...........|...........|...........|...........|G-611v52SD2|D#711v52SD2|...........|...........
|...........|...........|...........|...........|...........|...........|...........|...........|...........|...........|...........|...........|...........|...........|...........|...........|...........|...........|...........|...........|...........|...........|...........|...........|...........|...........|...........|...........|...........|...........|...........|...........|...........|...........|...........|...........|...........|...........|...........|...........|...........|...........|...........|...........
|...........|...........|===.....SD2|===.....SD2|...........|...........|...........|...........|...........|===.....SD2|===.....SD2|...........|...........|...........|...........|...........|...........|...........|...........|...........|...........|...........|...........|...........|...........|...........|...........|...........|...........|...........|...........|...........|...........|...........|...........|...........|...........|...........|...........|...........|===.....SD2|===.....SD2|...........|...........
|...........|...........|...........|...........|...........|...........|...........|...........|...........|...........|...........|...........|...........|...........|...........|...........|...........|...........|...........|...........|...........|...........|...........|...........|...........|...........|...........|...........|...........|...........|...........|...........|...........|...........|...........|...........|...........|...........|...........|...........|...........|...........|...........|...........
|C-403v64SD2|...........|...........|...........|...........|...........|...........|...........|...........|...........|...........|...........|D#521v24SD2|D#621v24SD2|D#507v64SD2|D#607v64SD2|...........|D#522v64SD2|D#622v64SD2|...........|...........|...........|...........|D-315v64SD2|C#320v64SD2|A#314v64SD2|...........|...........|...........|D#409v64SD2|D#509v64SD2|...........|...........|...........|...........|...........|...........|...........|...........|...........|...........|...........|...........|...........
|...........|...........|...........|...........|...........|...........|...........|...........|...........|...........|...........|...........|...........|...........|...........|...........|...........|...........|...........|...........|...........|...........|...........|...........|...........|...........|...........|...........|...........|...........|...........|...........|...........|...........|...........|...........|...........|...........|...........|...........|...........|...........|...........|...........
|...........|...........|...........|...........|...........|...........|...........|...........|...........|...........|...........|...........|...........|...........|...........|...........|...........|...........|...........|...........|...........|...........|...........|F-317v59SD2|...........|...........|...........|...........|...........|...........|...........|...........|...........|...........|...........|...........|...........|...........|...........|...........|...........|...........|...........|...........
|...........|...........|...........|...........|...........|...........|...........|...........|...........|...........|...........|...........|...........|...........|...........|...........|...........|...........|...........|...........|...........|...........|...........|...........|...........|...........|...........|...........|...........|...........|...........|...........|...........|...........|...........|...........|...........|...........|...........|...........|...........|...........|...........|...........
|G-403v64SD2|...........|G-604v59SD2|D#704v59SD2|...........|...........|...........|...........|...........|G-606v64SD2|D#706v64SD2|...........|===.....SD2|===.....SD2|===.....SD2|===.....SD2|...........|===.....SD2|===.....SD2|...........|...........|...........|...........|F#312v64SD2|...........|...........|...........|...........|...........|===.....SD2|===.....SD2|...........|...........|...........|...........|...........|...........|...........|...........|...........|G-611v52SD2|D#711v52SD2|...........|...........
|...........|...........|...........|...........|...........|...........|...........|...........|...........|...........|...........|...........|...........|...........|...........|...........|...........|...........|...........|...........|...........|...........|...........|...........|...........|...........|...........|...........|...........|...........|...........|...........|...........|...........|...........|...........|...........|...........|...........|...........|...........|...........|...........|...........
|...........|...........|===.....SD2|===.....SD2|...........|...........|...........|...........|...........|===.....SD2|===.....SD2|...........|...........|...........|...........|...........|...........|...........|...........|...........|...........|...........|...........|C-418v59SD2|F#312v64SD2|...........|...........|...........|...........|...........|...........|...........|...........|...........|...........|...........|...........|...........|...........|...........|===.....SD2|===.....SD2|...........|...........
|...........|...........|...........|...........|...........|===.....SD4|===.....SD4|===.....SD4|...........|...........|...........|...........|...........|...........|...........|...........|...........|...........|...........|...........|...........|...........|...........|...........|...........|...........|...........|...........|...........|...........|...........|...........|...........|...........|...........|...........|===.....SD4|===.....SD4|===.....SD4|...........|...........|...........|...........|...........
|B-303v64SD2|...........|...........|...........|...........|B-305v64SD2|F#405v64SD2|D-505v64SD2|...........|...........|...........|...........|F#521v24SD2|F#621v24SD2|F#507v64SD2|F#607v64SD2|...........|F#522v64SD2|F#622v64SD2|...........|...........|...........|...........|C#320v64SD2|F#312v64SD2|C-302v64SD2|...........|...........|...........|F#409v64SD2|F#509v64SD2|...........|...........|...........|...........|...........|B-310v62SD2|F#410v62SD2|D-510v62SD2|...........|...........|...........|...........|...........

!channels=1+5+15+30
!octaves=1+1+1+1

ModPlug Tracker MPT
|...........|...........|...........|...........|...........|...........|...........|...........|...........|...........|...........|...........|...........|...........|...........|...........|...........|...........|...........|...........|...........|...........|...........|...........|...........|...........|...........|...........|...........|...........|...........|...........|...........|...........|...........|...........|...........|...........|...........|...........|...........|...........|...........|...........
|...........|...........|...........|...........|...........|...........|...........|...........|...........|...........|...........|...........|...........|...........|...........|...........|...........|...........|...........|...........|...........|...........|...........|...........|...........|...........|...........|...........|...........|...........|...........|...........|...........|...........|...........|...........|...........|...........|...........|...........|...........|...........|...........|...........
|...........|...........|...........|...........|...........|...........|...........|...........|...........|...........|...........|...........|...........|...........|...........|...........|...........|...........|...........|...........|...........|...........|...........|...........|...........|...........|...........|...........|...........|...........|...........|...........|...........|...........|...........|...........|...........|...........|...........|...........|...........|...........|...........|...........
|F#403v64SD2|...........|F#604v59SD2|D-704v59SD2|...........|...........|...........|...........|...........|F#606v64SD2|D-706v64SD2|...........|===.....SD2|===.....SD2|===.....SD2|===.....SD2|...........|===.....SD2|===.....SD2|...........|...........|...........|...........|E-313v42SD2|A#314v64SD2|...........|...........|...........|...........|===.....SD2|===.....SD2|...........|...........|...........|...........|...........|...........|...........|...........|...........|F#611v52SD2|D-711v52SD2|...........|...........
|...........|...........|...........|...........|...........|...........|...........|...........|...........|...........|...........|...........|...........|...........|...........|...........|...........|...........|...........|...........|...........|...........|...........|...........|...........|...........|...........|...........|...........|...........|...........|...........|...........|...........|...........|...........|...........|...........|...........|...........|...........|...........|...........|...........
|...........|...........|===.....SD2|===.....SD2|...........|...........|...........|...........|...........|===.....SD2|===.....SD2|...........|...........|...........|...........|...........|...........|...........|...........|...........|...........|...........|...........|E-313v42SD2|...........|...........|...........|...........|...........|...........|...........|...........|...........|...........|...........|...........|...........|...........|...........|...........|===.....SD2|===.....SD2|...........|...........
|...........|...........|...........|...........|...........|...........|...........|...........|...........|...........|...........|...........|...........|...........|...........|...........|...........|...........|...........|...........|...........|...........|...........|...........|...........|...........|...........|...........|...........|...........|...........|...........|...........|...........|...........|...........|...........|...........|...........|...........|...........|...........|...........|...........
|B-303v64SD2|...........|...........|...........|...........|...........|...........|...........|...........|...........|...........|...........|D-521v24SD2|D-621v24SD2|D-507v64SD2|D-607v64SD2|...........|D-522v64SD2|D-622v64SD2|...........|...........|...........|...........|C-418v59SD2|D-315v64SD2|C#320v64SD2|F#312v64SD2|...........|...........|D-409v64SD2|D-509v64SD2|...........|...........|...........|...........|...........|...........|...........|...........|...........|...........|...........|...........|...........
|...........|...........|...........|...........|...........|...........|...........|...........|...........|...........|...........|...........|...........|...........|...........|...........|...........|...........|...........|...........|...........|...........|...........|...........|...........|...........|...........|...........|...........|...........|...........|...........|...........|...........|...........|...........|...........|...........|...........|...........|...........|...........|...........|...........
|...........|...........|...........|...........|...........|...........|...........|...........|...........|...........|...........|...........|...........|...........|...........|...........|...........|...........|...........|...........|...........|...........|...........|...........|...........|...........|...........|...........|...........|...........|...........|...........|...........|...........|...........|...........|...........|...........|...........|...........|...........|...........|...........|...........
|...........|...........|...........|...........|...........|...........|...........|...........|...........|...........|...........|...........|...........|...........|...........|...........|...........|...........|...........|...........|...........|...........|...........|...........|...........|...........|...........|...........|...........|...........|...........|...........|...........|...........|...........|...........|...........|...........|...........|...........|...........|...........|...........|...........
|F#403v64SD2|...........|F#604v59SD2|D-704v59SD2|...........|...........|...........|...........|...........|F#606v64SD2|D-706v64SD2|...........|===.....SD2|===.....SD2|===.....SD2|===.....SD2|...........|===.....SD2|===.....SD2|...........|...........|...........|...........|F-317v59SD2|D-315v59SD2|A#314v64SD2|...........|...........|...........|===.....SD2|===.....SD2|...........|...........|...........|...........|...........|...........|...........|...........|...........|F#611v52SD2|D-711v52SD2|...........|...........
|...........|...........|...........|...........|...........|...........|...........|...........|...........|...........|...........|...........|...........|...........|...........|...........|...........|...........|...........|...........|...........|...........|...........|...........|...........|...........|...........|...........|...........|...........|...........|...........|...........|...........|...........|...........|...........|...........|...........|...........|...........|...........|...........|...........
|...........|...........|===.....SD2|===.....SD2|...........|...........|...........|...........|...........|===.....SD2|===.....SD2|...........|...........|...........|...........|...........|...........|...........|...........|...........|...........|...........|...........|F#312v64SD2|...........|...........|...........|...........|...........|...........|...........|...........|...........|...........|...........|...........|...........|...........|...........|...........|===.....SD2|===.....SD2|...........|...........
|...........|...........|...........|...........|...........|===.....SD4|===.....SD4|===.....SD4|...........|...........|...........|...........|...........|...........|...........|...........|...........|...........|...........|...........|...........|...........|...........|...........|...........|...........|...........|...........|...........|...........|...........|...........|...........|...........|...........|...........|===.....SD4|===.....SD4|===.....SD4|...........|...........|...........|...........|...........
|D-403v64SD2|...........|...........|...........|...........|D-405v64SD2|A-405v64SD2|F#505v64SD2|...........|...........|...........|...........|A-521v24SD2|A-621v24SD2|A-507v64SD2|A-607v64SD2|...........|A-522v64SD2|A-622v64SD2|...........|...........|...........|...........|C#320v64SD2|D#416v64SD2|F#312v64SD2|C-302v64SD2|...........|...........|A-409v64SD2|A-509v64SD2|...........|...........|...........|...........|...........|D-410v62SD2|A-410v62SD2|F#510v62SD2|...........|...........|...........|...........|...........
|...........|...........|...........|...........|...........|...........|...........|...........|...........|...........|...........|...........|...........|...........|...........|...........|...........|...........|...........|...........|...........|...........|...........|...........|...........|...........|...........|...........|...........|...........|...........|...........|...........|...........|...........|...........|...........|...........|...........|...........|...........|...........|...........|...........
|...........|...........|...........|...........|...........|...........|...........|...........|...........|...........|...........|...........|...........|...........|...........|...........|...........|...........|...........|...........|...........|...........|...........|...........|...........|...........|...........|...........|...........|...........|...........|...........|...........|...........|...........|...........|...........|...........|...........|...........|...........|...........|...........|...........
|...........|...........|...........|...........|...........|...........|...........|...........|...........|...........|...........|...........|...........|...........|...........|...........|...........|...........|...........|...........|...........|...........|...........|...........|...........|...........|...........|...........|...........|...........|...........|...........|...........|...........|...........|...........|...........|...........|...........|...........|...........|...........|...........|...........
|A-403v64SD2|...........|A-604v59SD2|F#704v59SD2|...........|...........|...........|...........|...........|A-606v64SD2|F#706v64SD2|...........|===.....SD2|===.....SD2|===.....SD2|===.....SD2|...........|===.....SD2|===.....SD2|...........|...........|...........|...........|A-319v59SD2|F#312v64SD2|...........|...........|...........|...........|===.....SD2|===.....SD2|...........|...........|...........|...........|...........|...........|...........|...........|...........|A-611v52SD2|F#711v52SD2|...........|...........
|...........|...........|...........|...........|...........|...........|...........|...........|...........|...........|...........|...........|...........|...........|...........|...........|...........|...........|...........|...........|...........|...........|...........|...........|...........|...........|...........|...........|...........|...........|...........|...........|...........|...........|...........|...........|...........|...........|...........|...........|...........|...........|...........|...........
|...........|...........|===.....SD2|===.....SD2|...........|...........|...........|...........|...........|===.....SD2|===.....SD2|...........|...........|...........|...........|...........|...........|...........|...........|...........|...........|...........|...........|...........|...........|...........|...........|...........|...........|...........|...........|...........|...........|...........|...........|...........|...........|...........|...........|...........|===.....SD2|===.....SD2|...........|...........
|...........|...........|...........|...........|...........|...........|...........|...........|...........|...........|...........|...........|...........|...........|...........|...........|...........|...........|...........|...........|...........|...........|...........|...........|...........|...........|...........|...........|...........|...........|...........|...........|...........|...........|...........|...........|...........|...........|...........|...........|...........|...........|...........|...........
|D-403v64SD2|...........|...........|...........|...........|...........|...........|...........|...........|...........|...........|...........|F#521v24SD2|F#621v24SD2|F#507v64SD2|F#607v64SD2|...........|F#522v64SD2|F#622v64SD2|...........|...........|...........|...........|E-313v64SD2|D-315v64SD2|C#320v64SD2|A#314v64SD2|...........|...........|F#409v64SD2|F#509v64SD2|...........|...........|...........|...........|...........|...........|...........|...........|...........|...........|...........|...........|...........
|...........|...........|...........|...........|...........|...........|...........|...........|...........|...........|...........|...........|...........|...........|...........|...........|...........|...........|...........|...........|...........|...........|...........|...........|...........|...........|...........|...........|...........|...........|...........|...........|...........|...........|...........|...........|...........|...........|...........|...........|...........|...........|...........|...........
|...........|...........|...........|...........|...........|...........|...........|...........|...........|...........|...........|...........|...........|...........|...........|...........|...........|...........|...........|...........|...........|...........|...........|...........|...........|...........|...........|...........|...........|...........|...........|...........|...........|...........|...........|...........|...........|...........|...........|...........|...........|...........|...........|...........
|...........|...........|...........|...........|...........|...........|...........|...........|...........|...........|...........|...........|...........|...........|...........|...........|...........|...........|...........|...........|...........|...........|...........|...........|...........|...........|...........|...........|...........|...........|...........|...........|...........|...........|...........|...........|...........|...........|...........|...........|...........|...........|...........|...........
|A-403v64SD2|...........|A-604v59SD2|F#704v59SD2|...........|...........|...........|...........|...........|A-606v64SD2|F#706v64SD2|...........|===.....SD2|===.....SD2|===.....SD2|===.....SD2|...........|===.....SD2|===.....SD2|...........|...........|...........|...........|D-315v64SD2|F#312v64SD2|...........|...........|...........|...........|===.....SD2|===.....SD2|...........|...........|...........|...........|...........|...........|...........|...........|...........|A-611v52SD2|F#711v52SD2|...........|...........
|...........|...........|...........|...........|...........|...........|...........|...........|...........|...........|...........|...........|...........|...........|...........|...........|...........|...........|...........|...........|...........|...........|...........|...........|...........|...........|...........|...........|...........|...........|...........|...........|...........|...........|...........|...........|...........|...........|...........|...........|...........|...........|...........|...........
|...........|...........|===.....SD2|===.....SD2|...........|...........|...........|...........|...........|===.....SD2|===.....SD2|...........|...........|...........|...........|...........|...........|...........|...........|...........|...........|...........|...........|A-319v59SD2|F#312v64SD2|...........|...........|...........|...........|...........|...........|...........|...........|...........|...........|...........|...........|...........|...........|...........|===.....SD2|===.....SD2|...........|...........
|...........|...........|...........|...........|...........|===.....SD4|===.....SD4|===.....SD4|...........|...........|...........|...........|...........|...........|...........|...........|...........|...........|...........|...........|...........|...........|...........|...........|...........|...........|...........|...........|...........|...........|...........|...........|...........|...........|...........|...........|===.....SD4|===.....SD4|===.....SD4|...........|...........|...........|...........|...........
|C#403v64SD2|...........|...........|...........|...........|C#405v64SD2|G#405v64SD2|F-505v64SD2|...........|...........|...........|...........|F-521v24SD2|F-621v24SD2|F-507v64SD2|F-607v64SD2|...........|F-522v64SD2|F-622v64SD2|...........|...........|...........|...........|C#320v64SD2|F#312v64SD2|C-302v64SD2|...........|...........|...........|F-409v64SD2|F-509v64SD2|...........|...........|...........|...........|...........|C#410v62SD2|G#410v62SD2|F-510v62SD2|...........|...........|...........|...........|...........
|...........|...........|...........|...........|...........|...........|...........|...........|...........|...........|...........|...........|...........|...........|...........|...........|...........|...........|...........|...........|...........|...........|...........|...........|...........|...........|...........|...........|...........|...........|...........|...........|...........|...........|...........|...........|...........|...........|...........|...........|...........|...........|...........|...........
|...........|...........|...........|...........|...........|...........|...........|...........|...........|...........|...........|...........|...........|...........|...........|...........|...........|...........|...........|...........|...........|...........|...........|...........|...........|...........|...........|...........|...........|...........|...........|...........|...........|...........|...........|...........|...........|...........|...........|...........|...........|...........|...........|...........
|...........|...........|...........|...........|...........|...........|...........|...........|...........|...........|...........|...........|...........|...........|...........|...........|...........|...........|...........|...........|...........|...........|...........|...........|...........|...........|...........|...........|...........|...........|...........|...........|...........|...........|...........|...........|...........|...........|...........|...........|...........|...........|...........|...........
|G#403v64SD2|...........|G#604v59SD2|F-704v59SD2|...........|...........|...........|...........|...........|G#606v64SD2|F-706v64SD2|...........|===.....SD2|===.....SD2|===.....SD2|===.....SD2|...........|===.....SD2|===.....SD2|...........|...........|...........|...........|F-317v59SD2|A#314v64SD2|...........|...........|...........|...........|===.....SD2|===.....SD2|...........|...........|...........|...........|...........|...........|...........|...........|...........|G#611v52SD2|F-711v52SD2|...........|...........
|...........|...........|...........|...........|...........|...........|...........|...........|...........|...........|...........|...........|...........|...........|...........|...........|...........|...........|...........|...........|...........|...........|...........|...........|...........|...........|...........|...........|...........|...........|...........|...........|...........|...........|...........|...........|...........|...........|...........|...........|...........|...........|...........|...........
|...........|...........|===.....SD2|===.....SD2|...........|...........|...........|...........|...........|===.....SD2|===.....SD2|...........|...........|...........|...........|...........|...........|...........|...........|...........|...........|...........|...........|...........|...........|...........|...........|...........|...........|...........|...........|...........|...........|...........|...........|...........|...........|...........|...........|...........|===.....SD2|===.....SD2|...........|...........
|...........|...........|...........|...........|...........|...........|...........|...........|...........|...........|...........|...........|...........|...........|...........|...........|...........|...........|...........|...........|...........|...........|...........|...........|...........|...........|...........|...........|...........|...........|...........|...........|...........|...........|...........|...........|...........|...........|...........|...........|...........|...........|...........|...........
|C#403v64SD2|...........|...........|...........|...........|...........|...........|...........|...........|...........|...........|...........|G#521v24SD2|G#621v24SD2|G#507v64SD2|G#607v64SD2|...........|G#522v64SD2|G#622v64SD2|...........|...........|...........|...........|D-315v64SD2|C#320v64SD2|F#312v64SD2|...........|...........|...........|G#409v64SD2|G#509v64SD2|...........|...........|...........|...........|...........|...........|...........|...........|...........|...........|...........|...........|...........
|...........|...........|...........|...........|...........|...........|...........|...........|...........|...........|...........|...........|...........|...........|...........|...........|...........|...........|...........|...........|...........|...........|...........|...........|...........|...........|...........|...........|...........|...........|...........|...........|...........|...........|...........|...........|...........|...........|...........|...........|...........|...........|...........|...........
|...........|...........|...........|...........|...........|...........|...........|...........|...........|...........|...........|...........|...........|...........|...........|...........|...........|...........|...........|...........|...........|...........|...........|...........|...........|...........|...........|...........|...........|...........|...........|...........|...........|...........|...........|...........|...........|...........|...........|...........|...........|...........|...........|...........
|...........|...........|...........|...........|...........|...........|...........|...........|...........|...........|...........|...........|...........|...........|...........|...........|...........|...........|...........|...........|...........|...........|...........|...........|...........|...........|...........|...........|...........|...........|...........|...........|...........|...........|...........|...........|...........|...........|...........|...........|...........|...........|...........|...........
|G#403v64SD2|...........|G#604v59SD2|F-704v59SD2|...........|...........|...........|...........|...........|G#606v64SD2|F-706v64SD2|...........|===.....SD2|===.....SD2|===.....SD2|===.....SD2|...........|===.....SD2|===.....SD2|...........|...........|...........|...........|A-319v59SD2|D-315v64SD2|A#314v64SD2|...........|...........|...........|===.....SD2|===.....SD2|...........|...........|...........|...........|...........|...........|...........|...........|...........|G#611v52SD2|F-711v52SD2|...........|...........
|...........|...........|...........|...........|...........|...........|...........|...........|...........|...........|...........|...........|...........|...........|...........|...........|...........|...........|...........|...........|...........|...........|...........|...........|...........|...........|...........|...........|...........|...........|...........|...........|...........|...........|...........|...........|...........|...........|...........|...........|...........|...........|...........|...........
|...........|...........|===.....SD2|===.....SD2|...........|...........|...........|...........|...........|===.....SD2|===.....SD2|...........|...........|...........|...........|...........|...........|...........|...........|...........|...........|...........|...........|F#312v64SD2|...........|...........|...........|...........|...........|...........|...........|...........|...........|...........|...........|...........|...........|...........|...........|...........|===.....SD2|===.....SD2|...........|...........
|...........|...........|...........|...........|...........|===.....SD4|===.....SD4|===.....SD4|...........|...........|...........|...........|...........|...........|...........|...........|...........|...........|...........|...........|...........|...........|...........|...........|...........|...........|...........|...........|...........|...........|...........|...........|...........|...........|...........|...........|===.....SD4|===.....SD4|===.....SD4|...........|...........|...........|...........|...........
|C-403v64SD2|...........|...........|...........|...........|C-405v64SD2|G-405v64SD2|D#505v64SD2|...........|...........|...........|...........|G-521v24SD2|G-621v24SD2|G-507v64SD2|G-607v64SD2|...........|G-522v64SD2|G-622v64SD2|...........|...........|...........|...........|C#320v64SD2|D#416v64SD2|F#312v64SD2|C-302v64SD2|...........|...........|G-409v64SD2|G-509v64SD2|...........|...........|...........|...........|...........|C-410v62SD2|G-410v62SD2|D#510v62SD2|...........|...........|...........|...........|...........
|...........|...........|...........|...........|...........|...........|...........|...........|...........|...........|...........|...........|...........|...........|...........|...........|...........|...........|...........|...........|...........|...........|...........|...........|...........|...........|...........|...........|...........|...........|...........|...........|...........|...........|...........|...........|...........|...........|...........|...........|...........|...........|...........|...........
|...........|...........|...........|...........|...........|...........|...........|...........|...........|...........|...........|...........|...........|...........|...........|...........|...........|...........|...........|...........|...........|...........|...........|...........|...........|...........|...........|...........|...........|...........|...........|...........|...........|...........|...........|...........|...........|...........|...........|...........|...........|...........|...........|...........
|...........|...........|...........|...........|...........|...........|...........|...........|...........|...........|...........|...........|...........|...........|...........|...........|...........|...........|...........|...........|...........|...........|...........|...........|...........|...........|...........|...........|...........|...........|...........|...........|...........|...........|...........|...........|...........|...........|...........|...........|...........|...........|...........|...........
|G-403v64SD2|...........|G-604v59SD2|D#704v59SD2|...........|...........|...........|...........|...........|G-606v64SD2|D#706v64SD2|...........|===.....SD2|===.....SD2|===.....SD2|===.....SD2|...........|===.....SD2|===.....SD2|...........|...........|...........|...........|A-319v59SD2|F#312v64SD2|...........|...........|...........|...........|===.....SD2|===.....SD2|...........|...........|...........|...........|...........|...........|...........|...........|...........|G-611v52SD2|D#711v52SD2|...........|...........
|...........|...........|...........|...........|...........|...........|...........|...........|...........|...........|...........|...........|...........|...........|...........|...........|...........|...........|...........|...........|...........|...........|...........|...........|...........|...........|...........|...........|...........|...........|...........|...........|...........|...........|...........|...........|...........|...........|...........|...........|...........|...........|...........|...........
|...........|...........|===.....SD2|===.....SD2|...........|...........|...........|...........|...........|===.....SD2|===.....SD2|...........|...........|...........|...........|...........|...........|...........|...........|...........|...........|...........|...........|...........|...........|...........|...........|...........|...........|...........|...........|...........|...........|...........|...........|...........|...........|...........|...........|...........|===.....SD2|===.....SD2|...........|...........
|...........|...........|...........|...........|...........|...........|...........|...........|...........|...........|...........|...........|...........|...........|...........|...........|...........|...........|...........|...........|...........|...........|...........|...........|...........|...........|...........|...........|...........|...........|...........|...........|...........|...........|...........|...........|...........|...........|...........|...........|...........|...........|...........|...........
|C-403v64SD2|...........|...........|...........|...........|...........|...........|...........|...........|...........|...........|...........|D#521v24SD2|D#621v24SD2|D#507v64SD2|D#607v64SD2|...........|D#522v64SD2|D#622v64SD2|...........|...........|...........|...........|D-315v64SD2|C#320v64SD2|A#314v64SD2|...........|...........|...........|D#409v64SD2|D#509v64SD2|...........|...........|...........|...........|...........|...........|...........|...........|...........|...........|...........|...........|...........
|...........|...........|...........|...........|...........|...........|...........|...........|...........|...........|...........|...........|...........|...........|...........|...........|...........|...........|...........|...........|...........|...........|...........|...........|...........|...........|...........|...........|...........|...........|...........|...........|...........|...........|...........|...........|...........|...........|...........|...........|...........|...........|...........|...........
|...........|...........|...........|...........|...........|...........|...........|...........|...........|...........|...........|...........|...........|...........|...........|...........|...........|...........|...........|...........|...........|...........|...........|F-317v59SD2|...........|...........|...........|...........|...........|...........|...........|...........|...........|...........|...........|...........|...........|...........|...........|...........|...........|...........|...........|...........
|...........|...........|...........|...........|...........|...........|...........|...........|...........|...........|...........|...........|...........|...........|...........|...........|...........|...........|...........|...........|...........|...........|...........|...........|...........|...........|...........|...........|...........|...........|...........|...........|...........|...........|...........|...........|...........|...........|...........|...........|...........|...........|...........|...........
|G-403v64SD2|...........|G-604v59SD2|D#704v59SD2|...........|...........|...........|...........|...........|G-606v64SD2|D#706v64SD2|...........|===.....SD2|===.....SD2|===.....SD2|===.....SD2|...........|===.....SD2|===.....SD2|...........|...........|...........|...........|F#312v64SD2|...........|...........|...........|...........|...........|===.....SD2|===.....SD2|...........|...........|...........|...........|...........|...........|...........|...........|...........|G-611v52SD2|D#711v52SD2|...........|...........
|...........|...........|...........|...........|...........|...........|...........|...........|...........|...........|...........|...........|...........|...........|...........|...........|...........|...........|...........|...........|...........|...........|...........|...........|...........|...........|...........|...........|...........|...........|...........|...........|...........|...........|...........|...........|...........|...........|...........|...........|...........|...........|...........|...........
|...........|...........|===.....SD2|===.....SD2|...........|...........|...........|...........|...........|===.....SD2|===.....SD2|...........|...........|...........|...........|...........|...........|...........|...........|...........|...........|...........|...........|C-418v59SD2|F#312v64SD2|...........|...........|...........|...........|...........|...........|...........|...........|...........|...........|...........|...........|...........|...........|...........|===.....SD2|===.....SD2|...........|...........
|...........|...........|...........|...........|...........|===.....SD4|===.....SD4|===.....SD4|...........|...........|...........|...........|...........|...........|...........|...........|...........|...........|...........|...........|...........|...........|...........|...........|...........|...........|...........|...........|...........|...........|...........|...........|...........|...........|...........|...........|===.....SD4|===.....SD4|===.....SD4|...........|...........|...........|...........|...........
|B-303v64SD2|...........|...........|...........|...........|B-305v64SD2|F#405v64SD2|D-505v64SD2|...........|...........|...........|...........|F#521v24SD2|F#621v24SD2|F#507v64SD2|F#607v64SD2|...........|F#522v64SD2|F#622v64SD2|...........|...........|...........|...........|C#320v64SD2|F#312v64SD2|C-302v64SD2|...........|...........|...........|F#409v64SD2|F#509v64SD2|...........|...........|...........|...........|...........|B-310v62SD2|F#410v62SD2|D-510v62SD2|...........|...........|...........|...........|...........
|...........|...........|...........|...........|...........|...........|...........|...........|...........|...........|...........|...........|...........|...........|...........|...........|...........|...........|...........|...........|...........|...........|...........|...........|...........|...........|...........|...........|...........|...........|...........|...........|...........|...........|...........|...........|...........|...........|...........|...........|...........|...........|...........|...........
|...........|...........|...........|...........|...........|...........|...........|...........|...........|...........|...........|...........|...........|...........|...........|...........|...........|...........|...........|...........|...........|...........|...........|...........|...........|...........|...........|...........|...........|...........|...........|...........|...........|...........|...........|...........|...........|...........|...........|...........|...........|...........|...........|...........
|...........|...........|...........|...........|...........|...........|...........|...........|...........|...........|...........|...........|...........|...........|...........|...........|...........|...........|...........|...........|...........|...........|...........|...........|...........|...........|...........|...........|...........|...........|...........|...........|...........|...........|...........|...........|...........|...........|...........|...........|...........|...........|...........|...........
|F#403v64SD2|...........|F#604v59SD2|D-704v59SD2|...........|...........|...........|...........|...........|F#606v64SD2|D-706v64SD2|...........|===.....SD2|===.....SD2|===.....SD2|===.....SD2|...........|===.....SD2|===.....SD2|...........|...........|...........|...........|E-313v42SD2|A#314v64SD2|...........|...........|...........|...........|===.....SD2|===.....SD2|...........|...........|...........|...........|...........|...........|...........|...........|...........|F#611v52SD2|D-711v52SD2|...........|...........
|...........|...........|...........|...........|...........|...........|...........|...........|...........|...........|...........|...........|...........|...........|...........|...........|...........|...........|...........|...........|...........|...........|...........|...........|...........|...........|...........|...........|...........|...........|...........|...........|...........|...........|...........|...........|...........|...........|...........|...........|...........|...........|...........|...........
|...........|...........|===.....SD2|===.....SD2|...........|...........|...........|...........|...........|===.....SD2|===.....SD2|...........|...........|...........|...........|...........|...........|...........|...........|...........|...........|...........|...........|E-313v42SD2|...........|...........|...........|...........|...........|...........|...........|...........|...........|...........|...........|...........|...........|...........|...........|...........|===.....SD2|===.....SD2|...........|...........
|...........|...........|...........|...........|...........|...........|...........|...........|...........|...........|...........|...........|...........|...........|...........|...........|...........|...........|...........|...........|...........|...........|...........|...........|...........|...........|...........|...........|...........|...........|...........|...........|...........|...........|...........|...........|...........|...........|...........|...........|...........|...........|...........|...........
|B-303v64SD2|...........|...........|...........|...........|...........|...........|...........|...........|...........|...........|...........|D-521v24SD2|D-621v24SD2|D-507v64SD2|D-607v64SD2|...........|D-522v64SD2|D-622v64SD2|...........|...........|...........|...........|C-418v59SD2|D-315v64SD2|C#320v64SD2|F#312v64SD2|...........|...........|D-409v64SD2|D-509v64SD2|...........|...........|...........|...........|...........|...........|...........|...........|...........|...........|...........|...........|...........
|...........|...........|...........|...........|...........|...........|...........|...........|...........|...........|...........|...........|...........|...........|...........|...........|...........|...........|...........|...........|...........|...........|...........|...........|...........|...........|...........|...........|...........|...........|...........|...........|...........|...........|...........|...........|...........|...........|...........|...........|...........|...........|...........|...........
|...........|...........|...........|...........|...........|...........|...........|...........|...........|...........|...........|...........|...........|...........|...........|...........|...........|...........|...........|...........|...........|...........|...........|...........|...........|...........|...........|...........|...........|...........|...........|...........|...........|...........|...........|...........|...........|...........|...........|...........|...........|...........|...........|...........
|...........|...........|...........|...........|...........|...........|...........|...........|...........|...........|...........|...........|...........|...........|...........|...........|...........|...........|...........|...........|...........|...........|...........|...........|...........|...........|...........|...........|...........|...........|...........|...........|...........|...........|...........|...........|...........|...........|...........|...........|...........|...........|...........|...........
|F#403v64SD2|...........|F#604v59SD2|D-704v59SD2|...........|...........|...........|...........|...........|F#606v64SD2|D-706v64SD2|...........|===.....SD2|===.....SD2|===.....SD2|===.....SD2|...........|===.....SD2|===.....SD2|...........|...........|...........|...........|F-317v59SD2|D-315v59SD2|A#314v64SD2|...........|...........|...........|===.....SD2|===.....SD2|...........|...........|...........|...........|...........|...........|...........|...........|...........|F#611v52SD2|D-711v52SD2|...........|...........
|...........|...........|...........|...........|...........|...........|...........|...........|...........|...........|...........|...........|...........|...........|...........|...........|...........|...........|...........|...........|...........|...........|...........|...........|...........|...........|...........|...........|...........|...........|...........|...........|...........|...........|...........|...........|...........|...........|...........|...........|...........|...........|...........|...........
|...........|...........|===.....SD2|===.....SD2|...........|...........|...........|...........|...........|===.....SD2|===.....SD2|...........|...........|...........|...........|...........|...........|...........|...........|...........|...........|...........|...........|F#312v64SD2|...........|...........|...........|...........|...........|...........|...........|...........|...........|...........|...........|...........|...........|...........|...........|...........|===.....SD2|===.....SD2|...........|...........
|...........|...........|...........|...........|...........|===.....SD4|===.....SD4|===.....SD4|...........|...........|...........|...........|...........|...........|...........|...........|...........|...........|...........|...........|...........|...........|...........|...........|...........|...........|...........|...........|...........|...........|...........|...........|...........|...........|...........|...........|===.....SD4|===.....SD4|===.....SD4|...........|...........|...........|...........|...........


!channels=1+30+15+16
!octaves=1+2+0+1
|D-403v64SD2|...........|...........|...........|...........|D-405v64SD2|A-405v64SD2|F#505v64SD2|...........|...........|...........|...........|A-521v24SD2|A-621v24SD2|A-607v64SD2|A-707v64SD2|...........|A-522v64SD2|A-622v64SD2|...........|...........|D-508v01SD2|G#508v01SD2|C#320v64SD2|D#416v64SD2|F#312v64SD2|C-302v64SD2|...........|...........|A-509v64SD2|A-609v64SD2|...........|...........|...........|...........|...........|D-410v62SD2|A-410v62SD2|F#510v62SD2|...........|...........|...........|...........|...........
|...........|...........|...........|...........|...........|...........|...........|...........|...........|...........|...........|...........|...........|...........|...........|...........|...........|...........|...........|...........|...........|.....v04...|.....v04...|...........|...........|...........|...........|...........|...........|...........|...........|...........|...........|...........|...........|...........|...........|...........|...........|...........|...........|...........|...........|...........
|...........|...........|...........|...........|...........|...........|...........|...........|...........|...........|...........|...........|...........|...........|...........|...........|...........|...........|...........|...........|...........|.....v10...|.....v10...|...........|...........|...........|...........|...........|...........|...........|...........|...........|...........|...........|...........|...........|...........|...........|...........|...........|...........|...........|...........|...........
|...........|...........|...........|...........|...........|...........|...........|...........|...........|...........|...........|...........|...........|...........|...........|...........|...........|...........|...........|...........|...........|.....v16...|.....v16...|...........|...........|...........|...........|...........|...........|...........|...........|...........|...........|...........|...........|...........|...........|...........|...........|...........|...........|...........|...........|...........
|A-403v64SD2|...........|A-604v59SD2|F#704v59SD2|...........|...........|...........|...........|...........|A-606v64SD2|F#706v64SD2|...........|===.....SD2|===.....SD2|===.....SD2|===.....SD2|...........|===.....SD2|===.....SD2|...........|...........|.....v23...|.....v23...|A-319v59SD2|F#312v64SD2|...........|...........|...........|...........|===.....SD2|===.....SD2|...........|...........|...........|...........|...........|...........|...........|...........|...........|A-611v52SD2|F#711v52SD2|...........|...........
|...........|...........|...........|...........|...........|...........|...........|...........|...........|...........|...........|...........|...........|...........|...........|...........|...........|...........|...........|...........|...........|.....v29...|.....v29...|...........|...........|...........|...........|...........|...........|...........|...........|...........|...........|...........|...........|...........|...........|...........|...........|...........|...........|...........|...........|...........
|...........|...........|===.....SD2|===.....SD2|...........|...........|...........|...........|...........|===.....SD2|===.....SD2|...........|...........|...........|...........|...........|...........|...........|...........|...........|...........|.....v35...|.....v35...|...........|...........|...........|...........|...........|...........|...........|...........|...........|...........|...........|...........|...........|...........|...........|...........|...........|===.....SD2|===.....SD2|...........|...........
|...........|...........|...........|...........|...........|...........|...........|...........|...........|...........|...........|...........|...........|...........|...........|...........|...........|...........|...........|...........|...........|.....v41...|.....v41...|...........|...........|...........|...........|...........|...........|...........|...........|...........|...........|...........|...........|...........|...........|...........|...........|...........|...........|...........|...........|...........
|D-403v64SD2|...........|...........|...........|...........|...........|...........|...........|...........|...........|...........|...........|F#521v24SD2|F#621v24SD2|F#607v64SD2|F#707v64SD2|...........|F#522v64SD2|F#622v64SD2|...........|...........|.....v46...|.....v46...|E-313v64SD2|D-315v64SD2|C#320v64SD2|A#314v64SD2|...........|...........|F#509v64SD2|F#609v64SD2|...........|...........|...........|...........|...........|...........|...........|...........|...........|...........|...........|...........|...........
|...........|...........|...........|...........|...........|...........|...........|...........|...........|...........|...........|...........|...........|...........|...........|...........|...........|...........|...........|...........|...........|.....v50...|.....v50...|...........|...........|...........|...........|...........|...........|...........|...........|...........|...........|...........|...........|...........|...........|...........|...........|...........|...........|...........|...........|...........
|...........|...........|...........|...........|...........|...........|...........|...........|...........|...........|...........|...........|...........|...........|...........|...........|...........|...........|...........|...........|...........|.....v55...|.....v55...|...........|...........|...........|...........|...........|...........|...........|...........|...........|...........|...........|...........|...........|...........|...........|...........|...........|...........|...........|...........|...........
|...........|...........|...........|...........|...........|...........|...........|...........|...........|...........|...........|...........|...........|...........|...........|...........|...........|...........|...........|...........|...........|.....v57...|.....v57...|...........|...........|...........|...........|...........|...........|...........|...........|...........|...........|...........|...........|...........|...........|...........|...........|...........|...........|...........|...........|...........
|A-403v64SD2|...........|A-604v59SD2|F#704v59SD2|...........|...........|...........|...........|...........|A-606v64SD2|F#706v64SD2|...........|===.....SD2|===.....SD2|===.....SD2|===.....SD2|...........|===.....SD2|===.....SD2|...........|...........|.....v61...|.....v61...|D-315v64SD2|F#312v64SD2|...........|...........|...........|...........|===.....SD2|===.....SD2|...........|...........|...........|...........|...........|...........|...........|...........|...........|A-611v52SD2|F#711v52SD2|...........|...........
|...........|...........|...........|...........|...........|...........|...........|...........|...........|...........|...........|...........|...........|...........|...........|...........|...........|...........|...........|...........|...........|.....v63...|.....v63...|...........|...........|...........|...........|...........|...........|...........|...........|...........|...........|...........|...........|...........|...........|...........|...........|...........|...........|...........|...........|...........
|...........|...........|===.....SD2|===.....SD2|...........|...........|...........|...........|...........|===.....SD2|===.....SD2|...........|...........|...........|...........|...........|...........|...........|...........|...........|...........|.....v64...|.....v64...|A-319v59SD2|F#312v64SD2|...........|...........|...........|...........|...........|...........|...........|...........|...........|...........|...........|...........|...........|...........|...........|===.....SD2|===.....SD2|...........|...........
|...........|...........|...........|...........|...........|===.....SD4|===.....SD4|===.....SD4|...........|...........|...........|...........|...........|...........|...........|...........|...........|...........|...........|...........|...........|.....v64...|.....v64...|...........|...........|...........|...........|...........|...........|...........|...........|...........|...........|...........|...........|...........|===.....SD4|===.....SD4|===.....SD4|...........|...........|...........|...........|...........
|C#403v64SD2|...........|...........|...........|...........|C#405v64SD2|G#405v64SD2|F-505v64SD2|...........|...........|...........|...........|F-521v24SD2|F-621v24SD2|F-607v64SD2|F-707v64SD2|...........|F-522v64SD2|F-622v64SD2|...........|...........|.....v64...|.....v64...|C#320v64SD2|F#312v64SD2|C-302v64SD2|...........|...........|...........|F-509v64SD2|F-609v64SD2|...........|...........|...........|...........|...........|C#410v62SD2|G#410v62SD2|F-510v62SD2|...........|...........|...........|...........|...........
|...........|...........|...........|...........|...........|...........|...........|...........|...........|...........|...........|...........|...........|...........|...........|...........|...........|...........|...........|...........|...........|.....v64...|.....v64...|...........|...........|...........|...........|...........|...........|...........|...........|...........|...........|...........|...........|...........|...........|...........|...........|...........|...........|...........|...........|...........
|...........|...........|...........|...........|...........|...........|...........|...........|...........|...........|...........|...........|...........|...........|...........|...........|...........|...........|...........|...........|...........|.....v64...|.....v64...|...........|...........|...........|...........|...........|...........|...........|...........|...........|...........|...........|...........|...........|...........|...........|...........|...........|...........|...........|...........|...........
|...........|...........|...........|...........|...........|...........|...........|...........|...........|...........|...........|...........|...........|...........|...........|...........|...........|...........|...........|...........|...........|.....v64...|.....v64...|...........|...........|...........|...........|...........|...........|...........|...........|...........|...........|...........|...........|...........|...........|...........|...........|...........|...........|...........|...........|...........
|G#403v64SD2|...........|G#604v59SD2|F-704v59SD2|...........|...........|...........|...........|...........|G#606v64SD2|F-706v64SD2|...........|...........|...........|...........|...........|...........|...........|...........|...........|...........|...........|...........|F-317v59SD2|A#314v64SD2|...........|...........|...........|...........|...........|...........|...........|...........|...........|...........|...........|...........|...........|...........|...........|G#611v52SD2|F-711v52SD2|...........|...........
|...........|...........|...........|...........|...........|...........|...........|...........|...........|...........|...........|...........|...........|...........|...........|...........|...........|...........|...........|...........|...........|.....v64...|.....v64...|...........|...........|...........|...........|...........|...........|...........|...........|...........|...........|...........|...........|...........|...........|...........|...........|...........|...........|...........|...........|...........
|...........|...........|===.....SD2|===.....SD2|...........|...........|...........|...........|...........|===.....SD2|===.....SD2|...........|...........|...........|........EEC|........EEC|...........|...........|...........|...........|...........|...........|...........|...........|...........|...........|...........|...........|...........|........EE6|........EE6|...........|...........|...........|...........|...........|...........|...........|...........|...........|===.....SD2|===.....SD2|...........|...........
|...........|...........|...........|...........|...........|...........|...........|...........|...........|...........|...........|...........|...........|...........|........EEC|........EEC|...........|...........|...........|...........|...........|.....v64...|.....v64...|...........|...........|...........|...........|...........|...........|........EE6|........EE6|...........|...........|...........|...........|...........|...........|...........|...........|...........|...........|...........|...........|...........
|C#403v64SD2|...........|...........|...........|...........|...........|...........|...........|...........|...........|...........|...........|...........|...........|...........|...........|...........|...........|...........|...........|...........|...........|...........|D-315v64SD2|C#320v64SD2|F#312v64SD2|...........|...........|...........|...........|...........|...........|...........|...........|...........|...........|...........|...........|...........|...........|...........|...........|...........|...........
|...........|...........|...........|...........|...........|...........|...........|...........|...........|...........|...........|...........|...........|...........|........EF6|........EF6|...........|...........|...........|...........|...........|...........|...........|...........|...........|...........|...........|...........|...........|........EEC|........EEC|...........|...........|...........|...........|...........|...........|...........|...........|...........|...........|...........|...........|...........
|...........|...........|...........|...........|...........|...........|...........|...........|...........|...........|...........|...........|...........|...........|........EEC|........EEC|...........|...........|...........|...........|...........|.....v64...|.....v64...|...........|...........|...........|...........|...........|...........|........EE6|........EE6|...........|...........|...........|...........|...........|...........|...........|...........|...........|...........|...........|...........|...........
|...........|...........|...........|...........|...........|...........|...........|...........|...........|...........|...........|...........|...........|...........|........EF9|........EF9|...........|...........|...........|...........|...........|...........|...........|...........|...........|...........|...........|...........|...........|........EF5|........EF5|...........|...........|...........|...........|...........|...........|...........|...........|...........|...........|...........|...........|...........
|G#403v64SD2|...........|G#604v59SD2|F-704v59SD2|...........|...........|...........|...........|...........|G#606v64SD2|F-706v64SD2|...........|...........|...........|........EF9|........EF9|...........|...........|...........|...........|...........|...........|...........|A-319v59SD2|D-315v64SD2|A#314v64SD2|...........|...........|...........|........EF4|........EF4|...........|...........|...........|...........|...........|...........|...........|...........|...........|G#611v52SD2|F-711v52SD2|...........|...........
|...........|...........|...........|...........|...........|...........|...........|...........|...........|...........|...........|...........|...........|...........|........EFF|........EFF|...........|...........|...........|...........|...........|...........|...........|...........|...........|...........|...........|...........|...........|........EF8|........EF8|...........|...........|...........|...........|...........|...........|...........|...........|...........|...........|...........|...........|...........
|...........|...........|===.....SD2|===.....SD2|...........|...........|...........|...........|...........|===.....SD2|===.....SD2|...........|...........|...........|........E04|........E04|...........|...........|...........|...........|...........|...........|...........|F#312v64SD2|...........|...........|...........|...........|...........|........EFA|........EFA|...........|...........|...........|...........|...........|...........|...........|...........|...........|===.....SD2|===.....SD2|...........|...........
|...........|...........|...........|...........|...........|===.....SD4|===.....SD4|===.....SD4|...........|...........|...........|...........|===.....SD4|===.....SD4|===.....SD4|===.....SD4|...........|===.....SD4|===.....SD4|...........|...........|...........|...........|...........|...........|...........|...........|...........|...........|===.....SD4|===.....SD4|...........|...........|...........|...........|...........|===.....SD4|===.....SD4|===.....SD4|...........|...........|...........|...........|...........
|===.....SD1|...........|...........|...........|...........|...........|...........|...........|...........|...........|...........|...........|...........|...........|...........|...........|...........|...........|...........|...........|...........|===........|===........|...........|...........|...........|...........|...........|...........|...........|...........|...........|...........|...........|...........|...........|...........|...........|...........|...........|...........|...........|...........|...........
|...........|...........|...........|...........|...........|...........|...........|...........|...........|...........|...........|...........|...........|...........|...........|...........|...........|...........|...........|...........|...........|...........|...........|...........|...........|...........|...........|...........|...........|...........|...........|...........|...........|...........|...........|...........|...........|...........|...........|...........|...........|...........|...........|...........
|...........|...........|...........|...........|...........|...........|...........|...........|...........|...........|...........|...........|...........|...........|...........|...........|...........|...........|...........|...........|...........|...........|...........|...........|...........|...........|...........|...........|...........|...........|...........|...........|...........|...........|...........|...........|...........|...........|...........|...........|...........|...........|...........|...........
|...........|...........|...........|...........|...........|...........|...........|...........|...........|...........|...........|...........|...........|...........|...........|...........|...........|...........|...........|...........|...........|...........|...........|...........|...........|...........|...........|...........|...........|...........|...........|...........|...........|...........|...........|...........|...........|...........|...........|...........|...........|...........|...........|...........
|...........|...........|...........|...........|...........|...........|...........|...........|...........|...........|...........|...........|...........|...........|...........|...........|...........|...........|...........|...........|...........|...........|...........|...........|...........|...........|...........|...........|...........|...........|...........|...........|...........|...........|...........|...........|...........|...........|...........|...........|...........|...........|...........|...........
|...........|...........|...........|...........|...........|...........|...........|...........|...........|...........|...........|...........|...........|...........|...........|...........|...........|...........|...........|...........|...........|...........|...........|...........|...........|...........|...........|...........|...........|...........|...........|...........|...........|...........|...........|...........|...........|...........|...........|...........|...........|...........|...........|...........
|...........|...........|...........|...........|...........|...........|...........|...........|...........|...........|...........|...........|...........|...........|...........|...........|...........|...........|...........|...........|...........|...........|...........|...........|...........|...........|...........|...........|...........|...........|...........|...........|...........|...........|...........|...........|...........|...........|...........|...........|...........|...........|...........|...........
|...........|...........|...........|...........|...........|...........|...........|...........|...........|...........|...........|...........|...........|...........|...........|...........|...........|...........|...........|...........|...........|...........|...........|...........|...........|...........|...........|...........|...........|...........|...........|...........|...........|...........|...........|...........|...........|...........|...........|...........|...........|...........|...........|...........
|...........|...........|...........|...........|...........|...........|...........|...........|...........|...........|...........|...........|...........|...........|...........|...........|...........|...........|...........|...........|...........|...........|...........|...........|...........|...........|...........|...........|...........|...........|...........|...........|...........|...........|...........|...........|...........|...........|...........|...........|...........|...........|...........|...........
|...........|...........|...........|...........|...........|...........|...........|...........|...........|...........|...........|...........|...........|...........|...........|...........|...........|...........|...........|...........|...........|...........|...........|...........|...........|...........|...........|...........|...........|...........|...........|...........|...........|...........|...........|...........|...........|...........|...........|...........|...........|...........|...........|...........
|...........|...........|...........|...........|...........|...........|...........|...........|...........|...........|...........|...........|...........|...........|...........|...........|...........|...........|...........|...........|...........|...........|...........|...........|...........|...........|...........|...........|...........|...........|...........|...........|...........|...........|...........|...........|...........|...........|...........|...........|...........|...........|...........|...........
|...........|...........|...........|...........|...........|...........|...........|...........|...........|...........|...........|...........|...........|...........|...........|...........|...........|...........|...........|...........|...........|...........|...........|...........|...........|...........|...........|...........|...........|...........|...........|...........|...........|...........|...........|...........|...........|...........|...........|...........|...........|...........|...........|...........
|...........|...........|...........|...........|...........|...........|...........|...........|...........|...........|...........|...........|...........|...........|...........|...........|...........|...........|...........|...........|...........|...........|...........|...........|...........|...........|...........|...........|...........|...........|...........|...........|...........|...........|...........|...........|...........|...........|...........|...........|...........|...........|...........|...........
|...........|...........|...........|...........|...........|...........|...........|...........|...........|...........|...........|...........|...........|...........|...........|...........|...........|...........|...........|...........|...........|...........|...........|...........|...........|...........|...........|...........|...........|...........|...........|...........|...........|...........|...........|...........|...........|...........|...........|...........|...........|...........|...........|...........
|...........|...........|...........|...........|...........|...........|...........|...........|...........|...........|...........|...........|...........|...........|...........|...........|...........|...........|...........|...........|...........|...........|...........|...........|...........|...........|...........|...........|...........|...........|...........|...........|...........|...........|...........|...........|...........|...........|...........|...........|...........|...........|...........|...........
|...........|...........|...........|...........|...........|...........|...........|...........|...........|...........|...........|...........|...........|...........|...........|...........|...........|...........|...........|...........|...........|...........|...........|...........|...........|...........|...........|...........|...........|...........|...........|...........|...........|...........|...........|...........|...........|...........|...........|...........|...........|...........|...........|...........

!channels=1+15+16+41
!octaves=0+3+3+3

|G#403v64SD2|...........|G-504v64SD2|C-604v64SD2|...........|...........|...........|...........|...........|G#306v64SD2|D#406v64SD2|C-506v64SD2|...........|...........|G-607v64SD2|C-707v64SD2|...........|...........|...........|...........|...........|C-408v64SD2|...........|D#416v64SD2|F#312v64SD2|C-302v64SD2|...........|...........|...........|G-509v64SD2|C-609v64SD2|...........|...........|...........|...........|...........|...........|...........|...........|...........|G#311v52SD2|D#411v52SD2|C-511v52SD2|...........

ModPlug Tracker MPT
|...........|...........|...........|...........|...........|...........|...........|...........|...........|...........|...........|...........|...........|...........|...........|...........|...........|...........|...........|...........|...........|...........|...........|...........|...........|...........|...........|...........|...........|...........|...........|...........|...........|...........|...........|...........|...........|...........|...........|...........|...........|...........|...........|...........
|...........|...........|...........|...........|...........|...........|...........|...........|...........|...........|...........|...........|...........|...........|...........|...........|...........|...........|...........|...........|...........|...........|...........|...........|...........|...........|...........|...........|...........|...........|...........|...........|...........|...........|...........|...........|...........|...........|...........|...........|...........|...........|...........|...........
|...........|...........|...........|...........|...........|...........|...........|...........|...........|...........|...........|...........|...........|...........|...........|...........|...........|...........|...........|...........|...........|...........|...........|...........|...........|...........|...........|...........|...........|...........|...........|...........|...........|...........|...........|...........|...........|...........|...........|...........|...........|...........|...........|...........
|D#503v64SD2|...........|===.....SD2|===.....SD2|...........|...........|...........|...........|...........|...........|...........|...........|...........|...........|===.....SD2|===.....SD2|...........|...........|...........|...........|...........|...........|...........|...........|...........|...........|...........|...........|...........|===.....SD2|===.....SD2|...........|...........|...........|...........|...........|...........|...........|...........|...........|...........|...........|...........|...........
|...........|...........|...........|...........|...........|...........|...........|...........|...........|...........|...........|...........|...........|...........|...........|...........|...........|...........|...........|...........|...........|...........|...........|...........|...........|...........|...........|...........|...........|...........|...........|...........|...........|...........|...........|...........|...........|...........|...........|...........|...........|...........|...........|...........
|...........|...........|...........|...........|...........|...........|...........|...........|...........|...........|...........|...........|...........|...........|...........|...........|...........|...........|...........|...........|...........|...........|...........|...........|...........|...........|...........|...........|...........|...........|...........|...........|...........|...........|...........|...........|...........|...........|...........|...........|...........|...........|...........|...........
|...........|...........|...........|...........|...........|...........|...........|...........|...........|...........|...........|...........|...........|...........|...........|...........|...........|...........|...........|...........|...........|...........|...........|...........|...........|...........|...........|...........|...........|...........|...........|...........|...........|...........|...........|...........|...........|...........|...........|...........|...........|...........|...........|...........
|G#403v64SD2|...........|D#604v64SD2|G-604v64SD2|...........|...........|...........|...........|...........|...........|...........|...........|...........|...........|D#707v64SD2|G-707v64SD2|...........|...........|...........|...........|...........|...........|...........|...........|...........|...........|...........|...........|...........|D#609v64SD2|G-609v64SD2|...........|...........|...........|...........|...........|...........|...........|...........|...........|...........|...........|...........|...........
|...........|...........|...........|...........|...........|...........|...........|...........|...........|...........|...........|...........|...........|...........|...........|...........|...........|...........|...........|...........|...........|...........|...........|...........|...........|...........|...........|...........|...........|...........|...........|...........|...........|...........|...........|...........|...........|...........|...........|...........|...........|...........|...........|...........
|...........|...........|...........|...........|...........|...........|...........|...........|...........|...........|...........|...........|...........|...........|...........|...........|...........|...........|...........|...........|...........|...........|...........|...........|...........|...........|...........|...........|...........|...........|...........|...........|...........|...........|...........|...........|...........|...........|...........|...........|...........|...........|...........|...........
|...........|...........|...........|...........|...........|...........|...........|...........|...........|...........|...........|...........|...........|...........|...........|...........|...........|...........|...........|...........|...........|...........|...........|...........|...........|...........|...........|...........|...........|...........|...........|...........|...........|...........|...........|...........|...........|...........|...........|...........|...........|...........|...........|...........
|D#503v64SD2|...........|===.....SD2|===.....SD2|...........|...........|...........|...........|...........|...........|...........|...........|...........|...........|===.....SD2|===.....SD2|...........|...........|...........|...........|...........|...........|...........|...........|...........|...........|...........|...........|...........|===.....SD2|===.....SD2|...........|...........|...........|...........|...........|...........|...........|...........|...........|...........|...........|...........|...........
|...........|...........|...........|...........|...........|...........|...........|...........|...........|...........|...........|...........|...........|...........|...........|...........|...........|...........|...........|...........|...........|...........|...........|...........|...........|...........|...........|...........|...........|...........|...........|...........|...........|...........|...........|...........|...........|...........|...........|...........|...........|...........|...........|...........
|...........|...........|...........|...........|...........|...........|...........|...........|...........|...........|...........|...........|...........|...........|...........|...........|...........|...........|...........|...........|...........|...........|...........|...........|...........|...........|...........|...........|...........|...........|...........|...........|...........|...........|...........|...........|...........|...........|...........|...........|...........|...........|...........|...........
|...........|...........|...........|...........|...........|...........|...........|...........|...........|===.....SD4|===.....SD4|===.....SD4|...........|...........|...........|...........|...........|...........|...........|...........|...........|...........|...........|...........|...........|...........|...........|...........|...........|...........|...........|...........|...........|...........|...........|...........|...........|...........|...........|...........|===.....SD4|===.....SD4|===.....SD4|...........
|A#403v64SD2|...........|G-504v64SD2|D-604v64SD2|...........|...........|...........|...........|...........|A#306v64SD2|F-406v64SD2|D-506v64SD2|...........|...........|G-607v64SD2|D-707v64SD2|...........|...........|...........|...........|...........|===.....SD2|D-408v64SD2|D#416v64SD2|F#312v64SD2|C-302v64SD2|...........|...........|...........|G-509v64SD2|D-609v64SD2|...........|...........|...........|...........|...........|...........|...........|...........|...........|A#311v52SD2|F-411v52SD2|D-511v52SD2|...........
|...........|...........|...........|...........|...........|...........|...........|...........|...........|...........|...........|...........|...........|...........|...........|...........|...........|...........|...........|...........|...........|...........|...........|...........|...........|...........|...........|...........|...........|...........|...........|...........|...........|...........|...........|...........|...........|...........|...........|...........|...........|...........|...........|...........
|...........|...........|...........|...........|...........|...........|...........|...........|...........|...........|...........|...........|...........|...........|...........|...........|...........|...........|...........|...........|...........|...........|...........|...........|...........|...........|...........|...........|...........|...........|...........|...........|...........|...........|...........|...........|...........|...........|...........|...........|...........|...........|...........|...........
|...........|...........|...........|...........|...........|...........|...........|...........|...........|...........|...........|...........|...........|...........|...........|...........|...........|...........|...........|...........|...........|...........|...........|...........|...........|...........|...........|...........|...........|...........|...........|...........|...........|...........|...........|...........|...........|...........|...........|...........|...........|...........|...........|...........
|F-503v64SD2|...........|===.....SD2|===.....SD2|...........|...........|...........|...........|...........|...........|...........|...........|...........|...........|===.....SD2|===.....SD2|...........|...........|...........|...........|...........|...........|...........|...........|...........|...........|...........|...........|...........|===.....SD2|===.....SD2|...........|...........|...........|...........|...........|...........|...........|...........|...........|...........|...........|...........|...........
|...........|...........|...........|...........|...........|...........|...........|...........|...........|...........|...........|...........|...........|...........|...........|...........|...........|...........|...........|...........|...........|...........|...........|...........|...........|...........|...........|...........|...........|...........|...........|...........|...........|...........|...........|...........|...........|...........|...........|...........|...........|...........|...........|...........
|...........|...........|...........|...........|...........|...........|...........|...........|...........|...........|...........|...........|...........|...........|...........|...........|...........|...........|...........|...........|...........|...........|...........|...........|...........|...........|...........|...........|...........|...........|...........|...........|...........|...........|...........|...........|...........|...........|...........|...........|...........|...........|...........|...........
|...........|...........|...........|...........|...........|...........|...........|...........|...........|...........|...........|...........|...........|...........|...........|...........|...........|...........|...........|...........|...........|...........|...........|...........|...........|...........|...........|...........|...........|...........|...........|...........|...........|...........|...........|...........|...........|...........|...........|...........|...........|...........|...........|...........
|A#403v64SD2|...........|D#604v64SD2|G-604v64SD2|...........|...........|...........|...........|...........|...........|...........|...........|...........|...........|D#707v64SD2|G-707v64SD2|...........|...........|...........|...........|...........|...........|...........|...........|...........|...........|...........|...........|...........|D#609v64SD2|G-609v64SD2|...........|...........|...........|...........|...........|...........|...........|...........|...........|...........|...........|...........|...........
|...........|...........|...........|...........|...........|...........|...........|...........|...........|...........|...........|...........|...........|...........|...........|...........|...........|...........|...........|...........|...........|...........|...........|...........|...........|...........|...........|...........|...........|...........|...........|...........|...........|...........|...........|...........|...........|...........|...........|...........|...........|...........|...........|...........
|...........|...........|...........|...........|...........|...........|...........|...........|...........|...........|...........|...........|...........|...........|...........|...........|...........|...........|...........|...........|...........|...........|...........|...........|...........|...........|...........|...........|...........|...........|...........|...........|...........|...........|...........|...........|...........|...........|...........|...........|...........|...........|...........|...........
|...........|...........|...........|...........|...........|...........|...........|...........|...........|...........|...........|...........|...........|...........|...........|...........|...........|...........|...........|...........|...........|...........|...........|...........|...........|...........|...........|...........|...........|...........|...........|...........|...........|...........|...........|...........|...........|...........|...........|...........|...........|...........|...........|...........
|F-503v64SD2|...........|===.....SD2|===.....SD2|...........|...........|...........|...........|...........|...........|...........|...........|...........|...........|===.....SD2|===.....SD2|...........|...........|...........|...........|...........|...........|...........|A#314v64SD2|...........|...........|...........|...........|...........|===.....SD2|===.....SD2|...........|...........|...........|...........|...........|...........|...........|...........|...........|...........|...........|...........|...........
|...........|...........|...........|...........|...........|...........|...........|...........|...........|...........|...........|...........|...........|...........|...........|...........|...........|...........|...........|...........|...........|...........|...........|...........|...........|...........|...........|...........|...........|...........|...........|...........|...........|...........|...........|...........|...........|...........|...........|...........|...........|...........|...........|...........
|...........|...........|...........|...........|...........|...........|...........|...........|...........|...........|...........|...........|...........|...........|...........|...........|...........|...........|...........|...........|...........|...........|...........|...........|...........|...........|...........|...........|...........|...........|...........|...........|...........|...........|...........|...........|...........|...........|...........|...........|...........|...........|...........|...........
|...........|...........|...........|...........|...........|...........|...........|...........|...........|===.....SD4|===.....SD4|===.....SD4|...........|...........|...........|...........|...........|...........|...........|...........|...........|...........|...........|...........|...........|...........|...........|...........|...........|...........|...........|...........|...........|...........|...........|...........|...........|...........|...........|...........|===.....SD4|===.....SD4|===.....SD4|...........
|C-503v64SD2|...........|C-604v64SD2|D#604v64SD2|...........|...........|...........|...........|...........|C-406v64SD2|G-406v64SD2|D#506v64SD2|...........|...........|C-707v64SD2|D#707v64SD2|...........|...........|...........|...........|...........|D#408v64SD2|===.....SD2|D#416v64SD2|F#312v64SD2|C-302v64SD2|...........|...........|...........|C-609v64SD2|D#609v64SD2|...........|...........|...........|...........|...........|...........|...........|...........|...........|C-411v52SD2|G-411v52SD2|D#511v52SD2|...........
|...........|...........|...........|...........|...........|...........|...........|...........|...........|...........|...........|...........|...........|...........|...........|...........|...........|...........|...........|...........|...........|...........|...........|...........|...........|...........|...........|...........|...........|...........|...........|...........|...........|...........|...........|...........|...........|...........|...........|...........|...........|...........|...........|...........
|...........|...........|...........|...........|...........|...........|...........|...........|...........|...........|...........|...........|...........|...........|...........|...........|...........|...........|...........|...........|...........|...........|...........|...........|...........|...........|...........|...........|...........|...........|...........|...........|...........|...........|...........|...........|...........|...........|...........|...........|...........|...........|...........|...........
|...........|...........|...........|...........|...........|...........|...........|...........|...........|...........|...........|...........|...........|...........|...........|...........|...........|...........|...........|...........|...........|...........|...........|...........|...........|...........|...........|...........|...........|...........|...........|...........|...........|...........|...........|...........|...........|...........|...........|...........|...........|...........|...........|...........
|G-503v64SD2|...........|===.....SD2|===.....SD2|...........|...........|...........|...........|...........|...........|...........|...........|...........|...........|===.....SD2|===.....SD2|...........|...........|...........|...........|...........|...........|...........|...........|...........|...........|...........|...........|...........|===.....SD2|===.....SD2|...........|...........|...........|...........|...........|...........|...........|...........|...........|...........|...........|...........|...........
|...........|...........|...........|...........|...........|...........|...........|...........|...........|...........|...........|...........|...........|...........|...........|...........|...........|...........|...........|...........|...........|...........|...........|...........|...........|...........|...........|...........|...........|...........|...........|...........|...........|...........|...........|...........|...........|...........|...........|...........|...........|...........|...........|...........
|...........|...........|...........|...........|...........|...........|...........|...........|...........|...........|...........|...........|...........|...........|...........|...........|...........|...........|...........|...........|...........|...........|...........|...........|...........|...........|...........|...........|...........|...........|...........|...........|...........|...........|...........|...........|...........|...........|...........|...........|...........|...........|...........|...........
|...........|...........|...........|...........|...........|...........|...........|...........|...........|...........|...........|...........|...........|...........|...........|...........|...........|...........|...........|...........|...........|...........|...........|...........|...........|...........|...........|...........|...........|...........|...........|...........|...........|...........|...........|...........|...........|...........|...........|...........|...........|...........|...........|...........
|C-503v64SD2|...........|D-604v64SD2|F-604v64SD2|...........|...........|...........|...........|...........|...........|...........|...........|...........|...........|D-707v64SD2|F-707v64SD2|...........|...........|...........|...........|...........|...........|...........|F#312v59SD2|C-302v64SD2|...........|...........|...........|...........|D-609v64SD2|F-609v64SD2|...........|...........|...........|...........|...........|...........|...........|...........|...........|...........|...........|...........|...........
|...........|...........|...........|...........|...........|...........|...........|...........|...........|...........|...........|...........|...........|...........|...........|...........|...........|...........|...........|...........|...........|...........|...........|...........|...........|...........|...........|...........|...........|...........|...........|...........|...........|...........|...........|...........|...........|...........|...........|...........|...........|...........|...........|...........
|...........|...........|...........|...........|...........|...........|...........|...........|...........|...........|...........|...........|...........|...........|...........|...........|...........|...........|...........|...........|...........|...........|...........|F#312v59SD2|...........|...........|...........|...........|...........|...........|...........|...........|...........|...........|...........|...........|...........|...........|...........|...........|...........|...........|...........|...........
|...........|...........|...........|...........|...........|...........|...........|...........|...........|...........|...........|...........|...........|...........|...........|...........|...........|...........|...........|...........|...........|...........|...........|...........|...........|...........|...........|...........|...........|...........|...........|...........|...........|...........|...........|...........|...........|...........|...........|...........|...........|...........|...........|...........
|G-503v64SD2|...........|D#604v64SD2|G-604v64SD2|...........|...........|...........|...........|...........|...........|...........|...........|...........|...........|D#707v64SD2|G-707v64SD2|...........|...........|...........|...........|...........|...........|...........|F#312v59SD2|A#314v64SD2|...........|...........|...........|...........|D#609v64SD2|G-609v64SD2|...........|...........|...........|...........|...........|...........|...........|...........|...........|...........|...........|...........|...........
|...........|...........|...........|...........|...........|...........|...........|...........|...........|...........|...........|...........|...........|...........|...........|...........|...........|...........|...........|...........|...........|...........|...........|...........|...........|...........|...........|...........|...........|...........|...........|...........|...........|...........|...........|...........|...........|...........|...........|...........|...........|...........|...........|...........
|...........|...........|...........|...........|...........|...........|...........|...........|...........|...........|...........|...........|...........|...........|...........|...........|...........|...........|...........|...........|...........|...........|...........|...........|...........|...........|...........|...........|...........|...........|...........|...........|...........|...........|...........|...........|...........|...........|...........|...........|...........|...........|...........|...........
|...........|...........|...........|...........|...........|...........|...........|...........|...........|===.....SD4|===.....SD4|===.....SD4|...........|...........|...........|...........|...........|...........|...........|...........|...........|...........|...........|...........|...........|...........|...........|...........|...........|...........|...........|...........|...........|...........|...........|...........|...........|...........|...........|...........|===.....SD4|===.....SD4|===.....SD4|...........
|A-403v64SD2|...........|D-604v64SD2|F-604v64SD2|...........|...........|...........|...........|...........|A-306v64SD2|F-406v64SD2|F-506v64SD2|...........|...........|D-707v64SD2|F-707v64SD2|...........|...........|...........|...........|...........|===.....SD2|F-408v64SD2|F#312v64SD2|C-302v64SD2|...........|...........|...........|...........|D-609v64SD2|F-609v64SD2|...........|...........|...........|...........|...........|...........|...........|...........|...........|A-311v52SD2|F-411v52SD2|F-511v52SD2|...........
|...........|...........|...........|...........|...........|...........|...........|...........|...........|...........|...........|...........|...........|...........|...........|...........|...........|...........|...........|...........|...........|...........|...........|...........|...........|...........|...........|...........|...........|...........|...........|...........|...........|...........|...........|...........|...........|...........|...........|...........|...........|...........|...........|...........
|...........|...........|...........|...........|...........|...........|...........|...........|...........|...........|...........|...........|...........|...........|...........|...........|...........|...........|...........|...........|...........|...........|...........|...........|...........|...........|...........|...........|...........|...........|...........|...........|...........|...........|...........|...........|...........|...........|...........|...........|...........|...........|...........|...........
|...........|...........|...........|...........|...........|...........|...........|...........|...........|...........|...........|...........|...........|...........|...........|...........|...........|...........|...........|...........|...........|...........|...........|...........|...........|...........|...........|...........|...........|...........|...........|...........|...........|...........|...........|...........|...........|...........|...........|...........|...........|...........|...........|...........
|F-503v64SD2|...........|===.....SD2|===.....SD2|...........|...........|...........|...........|...........|...........|...........|...........|...........|...........|===.....SD2|===.....SD2|...........|...........|...........|...........|...........|...........|...........|D-315v42SD2|A#314v64SD2|...........|...........|...........|...........|===.....SD2|===.....SD2|...........|...........|...........|...........|...........|...........|...........|...........|...........|...........|...........|...........|...........
|...........|...........|...........|...........|...........|...........|...........|...........|...........|...........|...........|...........|...........|...........|...........|...........|...........|...........|...........|...........|...........|...........|...........|...........|...........|...........|...........|...........|...........|...........|...........|...........|...........|...........|...........|...........|...........|...........|...........|...........|...........|...........|...........|...........
|...........|...........|...........|...........|...........|...........|...........|...........|...........|...........|...........|...........|...........|...........|...........|...........|...........|...........|...........|...........|...........|...........|...........|D-315v64SD2|...........|...........|...........|...........|...........|...........|...........|...........|...........|...........|...........|...........|...........|...........|...........|...........|...........|...........|...........|...........
|...........|...........|...........|...........|...........|...........|...........|...........|...........|...........|...........|...........|...........|...........|...........|...........|...........|...........|...........|...........|...........|...........|...........|...........|...........|...........|...........|...........|...........|...........|...........|...........|...........|...........|...........|...........|...........|...........|...........|...........|...........|...........|...........|...........
|A-403v64SD2|...........|F-604v64SD2|A-604v64SD2|...........|...........|...........|...........|...........|...........|...........|...........|...........|...........|F-707v64SD2|A-707v64SD2|...........|...........|...........|...........|...........|...........|...........|F#312v64SD2|C-302v64SD2|...........|...........|...........|...........|F-609v64SD2|A-609v64SD2|...........|...........|...........|...........|...........|...........|...........|...........|...........|...........|...........|...........|...........
|...........|...........|...........|...........|...........|...........|...........|...........|...........|...........|...........|...........|...........|...........|...........|...........|...........|...........|...........|...........|...........|...........|...........|...........|...........|...........|...........|...........|...........|...........|...........|...........|...........|...........|...........|...........|...........|...........|...........|...........|...........|...........|...........|...........
|...........|...........|...........|...........|...........|...........|...........|...........|...........|...........|...........|...........|...........|...........|...........|...........|...........|...........|...........|...........|...........|...........|...........|D-315v64SD2|...........|...........|...........|...........|...........|...........|...........|...........|...........|...........|...........|...........|...........|...........|...........|...........|...........|...........|...........|...........
|...........|...........|...........|...........|...........|...........|...........|...........|...........|...........|...........|...........|...........|...........|...........|...........|...........|...........|...........|...........|...........|...........|...........|...........|...........|...........|...........|...........|...........|...........|...........|...........|...........|...........|...........|...........|...........|...........|...........|...........|...........|...........|...........|...........
|F-503v64SD2|...........|===.....SD2|===.....SD2|...........|...........|...........|...........|...........|...........|...........|...........|...........|...........|===.....SD2|===.....SD2|...........|...........|...........|...........|...........|...........|...........|A#314v64SD2|...........|...........|...........|...........|...........|===.....SD2|===.....SD2|...........|...........|...........|...........|...........|...........|...........|...........|...........|...........|...........|...........|...........
|...........|...........|...........|...........|...........|...........|...........|...........|...........|...........|...........|...........|...........|...........|...........|...........|...........|...........|...........|...........|...........|...........|...........|...........|...........|...........|...........|...........|...........|...........|...........|...........|...........|...........|...........|...........|...........|...........|...........|...........|...........|...........|...........|...........
|...........|...........|...........|...........|...........|...........|...........|...........|...........|...........|...........|...........|...........|...........|...........|...........|...........|...........|...........|...........|...........|...........|...........|D-315v64SD2|...........|...........|...........|...........|...........|...........|...........|...........|...........|...........|...........|...........|...........|...........|...........|...........|...........|...........|...........|...........
|...........|...........|...........|...........|...........|...........|...........|...........|...........|===.....SD4|===.....SD4|===.....SD4|...........|...........|...........|...........|...........|...........|...........|...........|...........|...........|...........|...........|...........|...........|...........|...........|...........|...........|...........|...........|...........|...........|...........|...........|...........|...........|...........|...........|===.....SD4|===.....SD4|===.....SD4|...........
|G#403v64SD2|...........|G-604v64SD2|C-704v64SD2|...........|...........|...........|...........|...........|G#306v64SD2|D#406v64SD2|G#506v64SD2|...........|...........|G-707v64SD2|C-807v64SD2|...........|...........|...........|...........|...........|G#408v64SD2|===.....SD2|D#416v64SD2|F#312v64SD2|C-302v64SD2|...........|...........|...........|G-609v64SD2|C-709v64SD2|...........|...........|...........|...........|...........|...........|...........|...........|...........|G#311v52SD2|D#411v52SD2|G#511v52SD2|...........
|...........|...........|...........|...........|...........|...........|...........|...........|...........|...........|...........|...........|...........|...........|...........|...........|...........|...........|...........|...........|...........|...........|...........|...........|...........|...........|...........|...........|...........|...........|...........|...........|...........|...........|...........|...........|...........|...........|...........|...........|...........|...........|...........|...........
|...........|...........|...........|...........|...........|...........|...........|...........|...........|...........|...........|...........|...........|...........|...........|...........|...........|...........|...........|...........|...........|...........|...........|...........|...........|...........|...........|...........|...........|...........|...........|...........|...........|...........|...........|...........|...........|...........|...........|...........|...........|...........|...........|...........
|...........|...........|...........|...........|...........|...........|...........|...........|...........|...........|...........|...........|...........|...........|...........|...........|...........|...........|...........|...........|...........|...........|...........|...........|...........|...........|...........|...........|...........|...........|...........|...........|...........|...........|...........|...........|...........|...........|...........|...........|...........|...........|...........|...........
|D#503v64SD2|...........|D#604v64SD2|G-604v64SD2|...........|...........|...........|...........|...........|...........|...........|...........|...........|...........|D#707v64SD2|G-707v64SD2|...........|...........|...........|...........|...........|...........|...........|A#314v64SD2|...........|...........|...........|...........|...........|D#609v64SD2|G-609v64SD2|...........|...........|...........|...........|...........|...........|...........|...........|...........|...........|...........|...........|...........
|...........|...........|...........|...........|...........|...........|...........|...........|...........|...........|...........|...........|...........|...........|...........|...........|...........|...........|...........|...........|...........|...........|...........|...........|...........|...........|...........|...........|...........|...........|...........|...........|...........|...........|...........|...........|...........|...........|...........|...........|...........|...........|...........|...........
|...........|...........|...........|...........|...........|...........|...........|...........|...........|...........|...........|...........|...........|...........|...........|...........|...........|...........|...........|...........|...........|...........|...........|...........|...........|...........|...........|...........|...........|...........|...........|...........|...........|...........|...........|...........|...........|...........|...........|...........|...........|...........|...........|...........
|...........|...........|...........|...........|...........|...........|...........|...........|...........|...........|...........|...........|...........|...........|...........|...........|...........|...........|...........|...........|...........|...........|...........|...........|...........|...........|...........|...........|...........|...........|...........|...........|...........|...........|...........|...........|...........|...........|...........|...........|...........|...........|...........|...........
|G#403v64SD2|...........|A#604v64SD2|D-704v64SD2|...........|...........|...........|...........|...........|...........|...........|...........|...........|...........|A#707v64SD2|D-807v64SD2|...........|...........|...........|...........|...........|...........|...........|F#312v64SD2|C-302v64SD2|...........|...........|...........|...........|A#609v64SD2|D-709v64SD2|...........|...........|...........|...........|...........|...........|...........|...........|...........|...........|...........|...........|...........
|...........|...........|...........|...........|...........|...........|...........|...........|...........|...........|...........|...........|...........|...........|...........|...........|...........|...........|...........|...........|...........|...........|...........|...........|...........|...........|...........|...........|...........|...........|...........|...........|...........|...........|...........|...........|...........|...........|...........|...........|...........|...........|...........|...........
|...........|...........|...........|...........|...........|...........|...........|...........|...........|...........|...........|...........|...........|...........|...........|...........|...........|...........|...........|...........|...........|...........|...........|...........|...........|...........|...........|...........|...........|...........|...........|...........|...........|...........|...........|...........|...........|...........|...........|...........|...........|...........|...........|...........
|...........|...........|...........|...........|...........|...........|...........|...........|...........|...........|...........|...........|...........|...........|...........|...........|...........|...........|...........|...........|...........|...........|...........|...........|...........|...........|...........|...........|...........|...........|...........|...........|...........|...........|...........|...........|...........|...........|...........|...........|...........|...........|...........|...........
|D#503v64SD2|...........|C-704v64SD2|D#704v64SD2|...........|...........|...........|...........|...........|...........|...........|...........|...........|...........|C-807v64SD2|D#807v64SD2|...........|...........|...........|...........|...........|...........|...........|A#314v64SD2|...........|...........|...........|...........|...........|C-709v64SD2|D#709v64SD2|...........|...........|...........|...........|...........|...........|...........|...........|...........|...........|...........|...........|...........
|...........|...........|...........|...........|...........|...........|...........|...........|...........|...........|...........|...........|...........|...........|...........|...........|...........|...........|...........|...........|...........|...........|...........|...........|...........|...........|...........|...........|...........|...........|...........|...........|...........|...........|...........|...........|...........|...........|...........|...........|...........|...........|...........|...........
|...........|...........|===.....SD2|===.....SD2|...........|...........|...........|...........|...........|...........|...........|...........|...........|...........|===.....SD2|===.....SD2|...........|...........|...........|...........|...........|...........|...........|...........|...........|...........|...........|...........|...........|===.....SD2|===.....SD2|...........|...........|...........|...........|...........|...........|...........|...........|...........|...........|...........|...........|...........
|...........|...........|...........|...........|...........|...........|...........|...........|...........|===.....SD4|===.....SD4|===.....SD4|...........|...........|...........|...........|...........|...........|...........|...........|...........|...........|...........|...........|...........|...........|...........|...........|...........|...........|...........|...........|...........|...........|...........|...........|...........|...........|...........|...........|===.....SD4|===.....SD4|===.....SD4|...........
|A#403v64SD2|...........|A#604v64SD2|D-704v64SD2|...........|...........|...........|...........|...........|A#306v64SD2|F-406v64SD2|A#506v64SD2|...........|...........|A#707v64SD2|D-807v64SD2|...........|...........|...........|...........|...........|===.....SD2|A#408v64SD2|F#312v64SD2|C-302v64SD2|...........|...........|...........|...........|A#609v64SD2|D-709v64SD2|...........|...........|...........|...........|...........|...........|...........|...........|...........|A#311v52SD2|F-411v52SD2|A#511v52SD2|...........
|...........|...........|...........|...........|...........|...........|...........|...........|...........|...........|...........|...........|...........|...........|...........|...........|...........|...........|...........|...........|...........|...........|...........|...........|...........|...........|...........|...........|...........|...........|...........|...........|...........|...........|...........|...........|...........|...........|...........|...........|...........|...........|...........|...........
|...........|...........|...........|...........|...........|...........|...........|...........|...........|...........|...........|...........|...........|...........|...........|...........|...........|...........|...........|...........|...........|...........|...........|...........|...........|...........|...........|...........|...........|...........|...........|...........|...........|...........|...........|...........|...........|...........|...........|...........|...........|...........|...........|...........
|...........|...........|...........|...........|...........|...........|...........|...........|...........|...........|...........|...........|...........|...........|...........|...........|...........|...........|...........|...........|...........|...........|...........|...........|...........|...........|...........|...........|...........|...........|...........|...........|...........|...........|...........|...........|...........|...........|...........|...........|...........|...........|...........|...........
|F-503v64SD2|...........|C-704v64SD2|D#704v64SD2|...........|...........|...........|...........|...........|...........|...........|...........|...........|...........|C-807v64SD2|D#807v64SD2|...........|...........|...........|...........|...........|...........|...........|A#314v64SD2|...........|...........|...........|...........|...........|C-709v64SD2|D#709v64SD2|...........|...........|...........|...........|...........|...........|...........|...........|...........|...........|...........|...........|...........
|...........|...........|...........|...........|...........|...........|...........|...........|...........|...........|...........|...........|...........|...........|...........|...........|...........|...........|...........|...........|...........|...........|...........|...........|...........|...........|...........|...........|...........|...........|...........|...........|...........|...........|...........|...........|...........|...........|...........|...........|...........|...........|...........|...........
|...........|...........|A#604v64SD2|D-704v64SD2|...........|...........|...........|...........|...........|...........|...........|...........|...........|...........|A#707v64SD2|D-807v64SD2|...........|...........|...........|...........|...........|...........|...........|...........|...........|...........|...........|...........|...........|A#609v64SD2|D-709v64SD2|...........|...........|...........|...........|...........|...........|...........|...........|...........|...........|...........|...........|...........
|...........|...........|...........|...........|...........|...........|...........|...........|...........|...........|...........|...........|...........|...........|...........|...........|...........|...........|...........|...........|...........|...........|...........|...........|...........|...........|...........|...........|...........|...........|...........|...........|...........|...........|...........|...........|...........|...........|...........|...........|...........|...........|...........|...........
|A#403v64SD2|...........|D#604v64SD2|C-704v64SD2|...........|...........|...........|...........|...........|...........|...........|...........|...........|...........|D#707v64SD2|C-807v64SD2|...........|...........|...........|...........|...........|...........|...........|F#312v64SD2|C-302v64SD2|...........|...........|...........|...........|D#609v64SD2|C-709v64SD2|...........|...........|...........|...........|...........|...........|...........|...........|...........|...........|...........|...........|...........
|...........|...........|...........|...........|...........|...........|...........|...........|...........|...........|...........|...........|...........|...........|...........|...........|...........|...........|...........|...........|...........|...........|...........|...........|...........|...........|...........|...........|...........|...........|...........|...........|...........|...........|...........|...........|...........|...........|...........|...........|...........|...........|...........|...........
|...........|...........|...........|...........|...........|...........|...........|...........|...........|...........|...........|...........|...........|...........|...........|...........|...........|...........|...........|...........|...........|...........|...........|...........|...........|...........|...........|...........|...........|...........|...........|...........|...........|...........|...........|...........|...........|...........|...........|...........|...........|...........|...........|...........
|...........|...........|...........|...........|...........|...........|...........|...........|...........|...........|...........|...........|...........|...........|...........|...........|...........|...........|...........|...........|...........|...........|...........|...........|...........|...........|...........|...........|...........|...........|...........|...........|...........|...........|...........|...........|...........|...........|...........|...........|...........|...........|...........|...........
|F-503v64SD2|...........|D#604v64SD2|A#604v64SD2|...........|...........|...........|...........|...........|...........|...........|...........|...........|...........|D#707v64SD2|A#707v64SD2|...........|...........|...........|...........|...........|...........|...........|A#314v64SD2|...........|...........|...........|...........|...........|D#609v64SD2|A#609v64SD2|...........|...........|...........|...........|...........|...........|...........|...........|...........|...........|...........|...........|...........
|...........|...........|...........|...........|...........|...........|...........|...........|...........|...........|...........|...........|...........|...........|...........|...........|...........|...........|...........|...........|...........|...........|...........|...........|...........|...........|...........|...........|...........|...........|...........|...........|...........|...........|...........|...........|...........|...........|...........|...........|...........|...........|...........|...........
|...........|...........|===.....SD2|===.....SD2|...........|...........|...........|...........|...........|...........|...........|...........|...........|...........|===.....SD2|===.....SD2|...........|...........|...........|...........|...........|...........|...........|...........|...........|...........|...........|...........|...........|===.....SD2|===.....SD2|...........|...........|...........|...........|...........|...........|...........|...........|...........|...........|...........|...........|...........
|...........|...........|...........|...........|...........|...........|...........|...........|...........|===.....SD4|===.....SD4|===.....SD4|...........|...........|...........|...........|...........|...........|...........|...........|...........|...........|...........|...........|...........|...........|...........|...........|...........|...........|...........|...........|...........|...........|...........|...........|...........|...........|...........|...........|===.....SD4|===.....SD4|===.....SD4|...........
|C-503v64SD2|...........|D#604v64SD2|G-604v64SD2|...........|...........|...........|...........|...........|C-406v64SD2|G-406v64SD2|C-606v64SD2|...........|...........|D#707v64SD2|G-707v64SD2|...........|...........|...........|...........|...........|C-508v64SD2|===.....SD2|F#312v64SD2|C-302v64SD2|...........|...........|...........|...........|D#609v64SD2|G-609v64SD2|...........|...........|...........|...........|...........|...........|...........|...........|...........|C-411v52SD2|G-411v52SD2|C-611v52SD2|...........
|...........|...........|...........|...........|...........|...........|...........|...........|...........|...........|...........|...........|...........|...........|...........|...........|...........|...........|...........|...........|...........|...........|...........|...........|...........|...........|...........|...........|...........|...........|...........|...........|...........|...........|...........|...........|...........|...........|...........|...........|...........|...........|...........|...........
|...........|...........|...........|...........|...........|...........|...........|...........|...........|...........|...........|...........|...........|...........|...........|...........|...........|...........|...........|...........|...........|...........|...........|...........|...........|...........|...........|...........|...........|...........|...........|...........|...........|...........|...........|...........|...........|...........|...........|...........|...........|...........|...........|...........
|...........|...........|...........|...........|...........|...........|...........|...........|...........|...........|...........|...........|...........|...........|...........|...........|...........|...........|...........|...........|...........|...........|...........|...........|...........|...........|...........|...........|...........|...........|...........|...........|...........|...........|...........|...........|...........|...........|...........|...........|...........|...........|...........|...........
|G-503v64SD2|...........|G-604v64SD2|A#604v64SD2|...........|...........|...........|...........|...........|...........|...........|...........|...........|...........|G-707v64SD2|A#707v64SD2|...........|...........|...........|...........|...........|...........|...........|A#314v64SD2|...........|...........|...........|...........|...........|G-609v64SD2|A#609v64SD2|...........|...........|...........|...........|...........|...........|...........|...........|...........|...........|...........|...........|...........
|...........|...........|...........|...........|...........|...........|...........|...........|...........|...........|...........|...........|...........|...........|...........|...........|...........|...........|...........|...........|...........|...........|...........|...........|...........|...........|...........|...........|...........|...........|...........|...........|...........|...........|...........|...........|...........|...........|...........|...........|...........|...........|...........|...........
|...........|...........|...........|...........|...........|...........|...........|...........|...........|...........|...........|...........|...........|...........|...........|...........|...........|...........|...........|...........|...........|...........|...........|...........|...........|...........|...........|...........|...........|...........|...........|...........|...........|...........|...........|...........|...........|...........|...........|...........|...........|...........|...........|...........
|...........|...........|===.....SD2|===.....SD2|...........|...........|...........|...........|...........|...........|...........|...........|...........|...........|===.....SD2|===.....SD2|...........|...........|...........|...........|...........|...........|...........|...........|...........|...........|...........|...........|...........|===.....SD2|===.....SD2|...........|...........|...........|...........|...........|...........|...........|...........|...........|...........|...........|...........|...........
|C-503v64SD2|...........|D-604v64SD2|F-604v64SD2|...........|...........|...........|...........|...........|...........|...........|...........|...........|...........|D-707v64SD2|F-707v64SD2|...........|...........|...........|...........|...........|...........|...........|F#312v64SD2|C-302v64SD2|...........|...........|...........|...........|D-609v64SD2|F-609v64SD2|...........|...........|...........|...........|...........|...........|...........|...........|...........|...........|...........|...........|...........
|...........|...........|...........|...........|...........|...........|...........|...........|...........|...........|...........|...........|...........|...........|...........|...........|...........|...........|...........|...........|...........|...........|...........|...........|...........|...........|...........|...........|...........|...........|...........|...........|...........|...........|...........|...........|...........|...........|...........|...........|...........|...........|...........|...........
|...........|...........|...........|...........|...........|...........|...........|...........|...........|...........|...........|...........|...........|...........|...........|...........|...........|...........|...........|...........|...........|...........|...........|...........|...........|...........|...........|...........|...........|...........|...........|...........|...........|...........|...........|...........|...........|...........|...........|...........|...........|...........|...........|...........
|...........|...........|...........|...........|...........|...........|...........|...........|...........|...........|...........|...........|...........|...........|...........|...........|...........|...........|...........|...........|...........|...........|...........|...........|...........|...........|...........|...........|...........|...........|...........|...........|...........|...........|...........|...........|...........|...........|...........|...........|...........|...........|...........|...........
|G-503v64SD2|...........|D#604v64SD2|G-604v64SD2|...........|...........|...........|...........|...........|...........|...........|...........|...........|...........|D#707v64SD2|G-707v64SD2|...........|...........|...........|...........|...........|...........|...........|A#314v64SD2|...........|...........|...........|...........|...........|D#609v64SD2|G-609v64SD2|...........|...........|...........|...........|...........|...........|...........|...........|...........|...........|...........|...........|...........
|...........|...........|...........|...........|...........|...........|...........|...........|...........|...........|...........|...........|...........|...........|...........|...........|...........|...........|...........|...........|...........|...........|...........|...........|...........|...........|...........|...........|...........|...........|...........|...........|...........|...........|...........|...........|...........|...........|...........|...........|...........|...........|...........|...........
|...........|...........|...........|...........|...........|...........|...........|...........|...........|...........|...........|...........|...........|...........|...........|...........|...........|...........|...........|...........|...........|...........|...........|...........|...........|...........|...........|...........|...........|...........|...........|...........|...........|...........|...........|...........|...........|...........|...........|...........|...........|...........|...........|...........
|...........|...........|===.....SD2|===.....SD2|...........|...........|...........|...........|...........|...........|...........|...........|...........|...........|===.....SD2|===.....SD2|...........|...........|...........|...........|...........|...........|...........|...........|...........|...........|...........|...........|...........|===.....SD2|===.....SD2|...........|...........|...........|...........|...........|...........|...........|...........|...........|...........|...........|...........|...........
|C-503v64SD2|...........|C-604v64SD2|D#604v64SD2|...........|...........|...........|...........|...........|...........|...........|...........|...........|...........|C-707v64SD2|D#707v64SD2|...........|...........|...........|...........|...........|...........|...........|F#312v64SD2|C-302v64SD2|...........|...........|...........|...........|C-609v64SD2|D#609v64SD2|...........|...........|...........|...........|...........|...........|...........|...........|...........|...........|...........|...........|...........
|...........|...........|...........|...........|...........|...........|...........|...........|...........|...........|...........|...........|...........|...........|...........|...........|...........|...........|...........|...........|...........|...........|...........|...........|...........|...........|...........|...........|...........|...........|...........|...........|...........|...........|...........|...........|...........|...........|...........|...........|...........|...........|...........|...........
|...........|...........|...........|...........|...........|...........|...........|...........|...........|...........|...........|...........|...........|...........|...........|...........|...........|...........|...........|...........|...........|...........|...........|...........|...........|...........|...........|...........|...........|...........|...........|...........|...........|...........|...........|...........|...........|...........|...........|...........|...........|...........|...........|...........
|...........|...........|...........|...........|...........|...........|...........|...........|...........|...........|...........|...........|...........|...........|...........|...........|...........|...........|...........|...........|...........|...........|...........|...........|...........|...........|...........|...........|...........|...........|...........|...........|...........|...........|...........|...........|...........|...........|...........|...........|...........|...........|...........|...........
|G-503v64SD2|...........|...........|...........|...........|...........|...........|...........|...........|...........|...........|...........|...........|...........|...........|...........|...........|...........|...........|...........|...........|...........|...........|D-315v42SD2|A#314v64SD2|...........|...........|...........|...........|...........|...........|...........|...........|...........|...........|...........|...........|...........|...........|...........|...........|...........|...........|...........
|...........|...........|...........|...........|...........|...........|...........|...........|...........|...........|...........|...........|...........|...........|...........|...........|...........|...........|...........|...........|...........|...........|...........|...........|...........|...........|...........|...........|...........|...........|...........|...........|...........|...........|...........|...........|...........|...........|...........|...........|...........|...........|...........|...........
|...........|...........|...........|...........|...........|...........|...........|...........|...........|...........|...........|...........|...........|...........|...........|...........|...........|...........|...........|...........|...........|...........|...........|...........|...........|...........|...........|...........|...........|...........|...........|...........|...........|...........|...........|...........|...........|...........|...........|...........|...........|...........|...........|...........
|...........|...........|...........|...........|...........|...........|...........|...........|...........|...........|...........|...........|...........|...........|...........|...........|...........|...........|...........|...........|...........|...........|...........|...........|...........|...........|...........|...........|...........|...........|...........|...........|...........|...........|...........|...........|...........|...........|...........|...........|...........|...........|...........|...........
|C-503v64SD2|...........|...........|...........|...........|...........|...........|...........|...........|...........|...........|...........|...........|...........|...........|...........|...........|...........|...........|...........|...........|...........|...........|F#312v64SD2|C-302v64SD2|...........|...........|...........|...........|...........|...........|...........|...........|...........|...........|...........|...........|...........|...........|...........|...........|...........|...........|...........
|...........|...........|...........|...........|...........|...........|...........|...........|...........|...........|...........|...........|...........|...........|...........|...........|...........|...........|...........|...........|...........|...........|...........|...........|...........|...........|...........|...........|...........|...........|...........|...........|...........|...........|...........|...........|...........|...........|...........|...........|...........|...........|...........|...........
|...........|...........|...........|...........|...........|...........|...........|...........|...........|...........|...........|...........|...........|...........|...........|...........|...........|...........|...........|...........|...........|...........|...........|D-315v42SD2|...........|...........|...........|...........|...........|...........|...........|...........|...........|...........|...........|...........|...........|...........|...........|...........|...........|...........|...........|...........
|...........|...........|...........|...........|...........|...........|...........|...........|...........|...........|...........|...........|...........|...........|...........|...........|...........|...........|...........|...........|...........|...........|...........|...........|...........|...........|...........|...........|...........|...........|...........|...........|...........|...........|...........|...........|...........|...........|...........|...........|...........|...........|...........|...........
|G-503v64SD2|...........|...........|...........|...........|...........|...........|...........|...........|...........|...........|...........|...........|...........|...........|...........|...........|...........|...........|...........|...........|...........|...........|A#314v64SD2|...........|...........|...........|...........|...........|...........|...........|...........|...........|...........|...........|...........|...........|...........|...........|...........|...........|...........|...........|...........
|...........|...........|...........|...........|...........|...........|...........|...........|...........|...........|...........|...........|...........|...........|...........|...........|...........|...........|...........|...........|...........|...........|...........|...........|...........|...........|...........|...........|...........|...........|...........|...........|...........|...........|...........|...........|...........|...........|...........|...........|...........|...........|...........|...........
|...........|...........|...........|...........|...........|...........|...........|...........|...........|...........|...........|...........|...........|...........|...........|...........|...........|...........|...........|...........|...........|...........|...........|D-315v42SD2|...........|...........|...........|...........|...........|...........|...........|...........|...........|...........|...........|...........|...........|...........|...........|...........|...........|...........|...........|...........
|...........|...........|===.....SD4|===.....SD4|...........|...........|...........|...........|...........|...........|...........|...........|...........|...........|===.....SD4|===.....SD4|...........|...........|...........|...........|...........|...........|...........|...........|...........|...........|...........|...........|...........|===.....SD4|===.....SD4|...........|...........|...........|...........|...........|...........|...........|...........|...........|...........|...........|...........|...........
|G#403v64SD2|...........|G-504v64SD2|C-604v64SD2|...........|...........|...........|...........|...........|G#306v64SD2|D#406v64SD2|C-506v64SD2|...........|...........|G-607v64SD2|C-707v64SD2|...........|...........|...........|...........|...........|C-408v64SD2|...........|D#416v64SD2|F#312v64SD2|C-302v64SD2|...........|...........|...........|G-509v64SD2|C-609v64SD2|...........|...........|...........|...........|...........|...........|...........|...........|...........|G#311v52SD2|D#411v52SD2|C-511v52SD2|...........

ModPlug Tracker MPT
|...........|...........|...........|...........|...........|...........|...........|...........|...........|...........|...........|...........|...........|...........|...........|...........|...........|...........|...........|...........|...........|...........|...........|...........|...........|...........|...........|...........|...........|...........|...........|...........|...........|...........|...........|...........|...........|...........|...........|...........|...........|...........|...........|...........
|...........|...........|...........|...........|...........|...........|...........|...........|...........|...........|...........|...........|...........|...........|...........|...........|...........|...........|...........|...........|...........|...........|...........|...........|...........|...........|...........|...........|...........|...........|...........|...........|...........|...........|...........|...........|...........|...........|...........|...........|...........|...........|...........|...........
|...........|...........|...........|...........|...........|...........|...........|...........|...........|...........|...........|...........|...........|...........|...........|...........|...........|...........|...........|...........|...........|...........|...........|...........|...........|...........|...........|...........|...........|...........|...........|...........|...........|...........|...........|...........|...........|...........|...........|...........|...........|...........|...........|...........
|D#503v64SD2|...........|===.....SD2|===.....SD2|...........|...........|...........|...........|...........|...........|...........|...........|...........|...........|===.....SD2|===.....SD2|...........|...........|...........|...........|...........|...........|...........|A#314v64SD2|...........|...........|...........|...........|...........|===.....SD2|===.....SD2|...........|...........|...........|...........|...........|...........|...........|...........|...........|...........|...........|...........|...........
|...........|...........|...........|...........|...........|...........|...........|...........|...........|...........|...........|...........|...........|...........|...........|...........|...........|...........|...........|...........|...........|...........|...........|...........|...........|...........|...........|...........|...........|...........|...........|...........|...........|...........|...........|...........|...........|...........|...........|...........|...........|...........|...........|...........
|...........|...........|...........|...........|...........|...........|...........|...........|...........|...........|...........|...........|...........|...........|...........|...........|...........|...........|...........|...........|...........|...........|...........|...........|...........|...........|...........|...........|...........|...........|...........|...........|...........|...........|...........|...........|...........|...........|...........|...........|...........|...........|...........|...........
|...........|...........|...........|...........|...........|...........|...........|...........|...........|...........|...........|...........|...........|...........|...........|...........|...........|...........|...........|...........|...........|...........|...........|...........|...........|...........|...........|...........|...........|...........|...........|...........|...........|...........|...........|...........|...........|...........|...........|...........|...........|...........|...........|...........
|G#403v64SD2|...........|D#604v64SD2|G-604v64SD2|...........|...........|...........|...........|...........|...........|...........|...........|...........|...........|D#707v64SD2|G-707v64SD2|...........|...........|...........|...........|...........|...........|...........|F#312v64SD2|C-302v64SD2|...........|...........|...........|...........|D#609v64SD2|G-609v64SD2|...........|...........|...........|...........|...........|...........|...........|...........|...........|...........|...........|...........|...........
|...........|...........|...........|...........|...........|...........|...........|...........|...........|...........|...........|...........|...........|...........|...........|...........|...........|...........|...........|...........|...........|...........|...........|...........|...........|...........|...........|...........|...........|...........|...........|...........|...........|...........|...........|...........|...........|...........|...........|...........|...........|...........|...........|...........
|...........|...........|...........|...........|...........|...........|...........|...........|...........|...........|...........|...........|...........|...........|...........|...........|...........|...........|...........|...........|...........|...........|...........|...........|...........|...........|...........|...........|...........|...........|...........|...........|...........|...........|...........|...........|...........|...........|...........|...........|...........|...........|...........|...........
|...........|...........|...........|...........|...........|...........|...........|...........|...........|...........|...........|...........|...........|...........|...........|...........|...........|...........|...........|...........|...........|...........|...........|...........|...........|...........|...........|...........|...........|...........|...........|...........|...........|...........|...........|...........|...........|...........|...........|...........|...........|...........|...........|...........
|D#503v64SD2|...........|===.....SD2|===.....SD2|...........|...........|...........|...........|...........|...........|...........|...........|...........|...........|===.....SD2|===.....SD2|...........|...........|...........|...........|...........|...........|...........|A#314v64SD2|...........|...........|...........|...........|...........|===.....SD2|===.....SD2|...........|...........|...........|...........|...........|...........|...........|...........|...........|...........|...........|...........|...........
|...........|...........|...........|...........|...........|...........|...........|...........|...........|...........|...........|...........|...........|...........|...........|...........|...........|...........|...........|...........|...........|...........|...........|...........|...........|...........|...........|...........|...........|...........|...........|...........|...........|...........|...........|...........|...........|...........|...........|...........|...........|...........|...........|...........
|...........|...........|...........|...........|...........|...........|...........|...........|...........|...........|...........|...........|...........|...........|...........|...........|...........|...........|...........|...........|...........|...........|...........|...........|...........|...........|...........|...........|...........|...........|...........|...........|...........|...........|...........|...........|...........|...........|...........|...........|...........|...........|...........|...........
|...........|...........|...........|...........|...........|...........|...........|...........|...........|===.....SD4|===.....SD4|===.....SD4|...........|...........|...........|...........|...........|...........|...........|...........|...........|...........|...........|...........|...........|...........|...........|...........|...........|...........|...........|...........|...........|...........|...........|...........|...........|...........|...........|...........|===.....SD4|===.....SD4|===.....SD4|...........
|A#403v64SD2|...........|G-504v64SD2|D-604v64SD2|...........|...........|...........|...........|...........|A#306v64SD2|F-406v64SD2|D-506v64SD2|...........|...........|G-607v64SD2|D-707v64SD2|...........|...........|...........|...........|...........|===.....SD2|D-408v64SD2|F#312v64SD2|C-302v64SD2|...........|...........|...........|...........|G-509v64SD2|D-609v64SD2|...........|...........|...........|...........|...........|...........|...........|...........|...........|A#311v52SD2|F-411v52SD2|D-511v52SD2|...........
|...........|...........|...........|...........|...........|...........|...........|...........|...........|...........|...........|...........|...........|...........|...........|...........|...........|...........|...........|...........|...........|...........|...........|...........|...........|...........|...........|...........|...........|...........|...........|...........|...........|...........|...........|...........|...........|...........|...........|...........|...........|...........|...........|...........
|...........|...........|...........|...........|...........|...........|...........|...........|...........|...........|...........|...........|...........|...........|...........|...........|...........|...........|...........|...........|...........|...........|...........|...........|...........|...........|...........|...........|...........|...........|...........|...........|...........|...........|...........|...........|...........|...........|...........|...........|...........|...........|...........|...........
|...........|...........|...........|...........|...........|...........|...........|...........|...........|...........|...........|...........|...........|...........|...........|...........|...........|...........|...........|...........|...........|...........|...........|...........|...........|...........|...........|...........|...........|...........|...........|...........|...........|...........|...........|...........|...........|...........|...........|...........|...........|...........|...........|...........
|F-503v64SD2|...........|===.....SD2|===.....SD2|...........|...........|...........|...........|...........|...........|...........|...........|...........|...........|===.....SD2|===.....SD2|...........|...........|...........|...........|...........|...........|...........|A#314v64SD2|...........|...........|...........|...........|...........|===.....SD2|===.....SD2|...........|...........|...........|...........|...........|...........|...........|...........|...........|...........|...........|...........|...........
|...........|...........|...........|...........|...........|...........|...........|...........|...........|...........|...........|...........|...........|...........|...........|...........|...........|...........|...........|...........|...........|...........|...........|...........|...........|...........|...........|...........|...........|...........|...........|...........|...........|...........|...........|...........|...........|...........|...........|...........|...........|...........|...........|...........
|...........|...........|...........|...........|...........|...........|...........|...........|...........|...........|...........|...........|...........|...........|...........|...........|...........|...........|...........|...........|...........|...........|...........|...........|...........|...........|...........|...........|...........|...........|...........|...........|...........|...........|...........|...........|...........|...........|...........|...........|...........|...........|...........|...........
|...........|...........|...........|...........|...........|...........|...........|...........|...........|...........|...........|...........|...........|...........|...........|...........|...........|...........|...........|...........|...........|...........|...........|...........|...........|...........|...........|...........|...........|...........|...........|...........|...........|...........|...........|...........|...........|...........|...........|...........|...........|...........|...........|...........
|A#403v64SD2|...........|D#604v64SD2|G-604v64SD2|...........|...........|...........|...........|...........|...........|...........|...........|...........|...........|D#707v64SD2|G-707v64SD2|...........|...........|...........|...........|...........|...........|...........|F#312v64SD2|C-302v64SD2|...........|...........|...........|...........|D#609v64SD2|G-609v64SD2|...........|...........|...........|...........|...........|...........|...........|...........|...........|...........|...........|...........|...........
|...........|...........|...........|...........|...........|...........|...........|...........|...........|...........|...........|...........|...........|...........|...........|...........|...........|...........|...........|...........|...........|...........|...........|...........|...........|...........|...........|...........|...........|...........|...........|...........|...........|...........|...........|...........|...........|...........|...........|...........|...........|...........|...........|...........
|...........|...........|...........|...........|...........|...........|...........|...........|...........|...........|...........|...........|...........|...........|...........|...........|...........|...........|...........|...........|...........|...........|...........|...........|...........|...........|...........|...........|...........|...........|...........|...........|...........|...........|...........|...........|...........|...........|...........|...........|...........|...........|...........|...........
|...........|...........|...........|...........|...........|...........|...........|...........|...........|...........|...........|...........|...........|...........|...........|...........|...........|...........|...........|...........|...........|...........|...........|...........|...........|...........|...........|...........|...........|...........|...........|...........|...........|...........|...........|...........|...........|...........|...........|...........|...........|...........|...........|...........
|F-503v64SD2|...........|===.....SD2|===.....SD2|...........|...........|...........|...........|...........|...........|...........|...........|...........|...........|===.....SD2|===.....SD2|...........|...........|...........|...........|...........|...........|...........|A#314v64SD2|...........|...........|...........|...........|...........|===.....SD2|===.....SD2|...........|...........|...........|...........|...........|...........|...........|...........|...........|...........|...........|...........|...........
|...........|...........|...........|...........|...........|...........|...........|...........|...........|...........|...........|...........|...........|...........|...........|...........|...........|...........|...........|...........|...........|...........|...........|...........|...........|...........|...........|...........|...........|...........|...........|...........|...........|...........|...........|...........|...........|...........|...........|...........|...........|...........|...........|...........
|...........|...........|...........|...........|...........|...........|...........|...........|...........|...........|...........|...........|...........|...........|...........|...........|...........|...........|...........|...........|...........|...........|...........|...........|...........|...........|...........|...........|...........|...........|...........|...........|...........|...........|...........|...........|...........|...........|...........|...........|...........|...........|...........|...........
|...........|...........|...........|...........|...........|...........|...........|...........|...........|===.....SD4|===.....SD4|===.....SD4|...........|...........|...........|...........|...........|...........|...........|...........|...........|...........|...........|...........|...........|...........|...........|...........|...........|...........|...........|...........|...........|...........|...........|...........|...........|...........|...........|...........|===.....SD4|===.....SD4|===.....SD4|...........
|C-503v64SD2|...........|C-604v64SD2|D#604v64SD2|...........|...........|...........|...........|...........|C-406v64SD2|G-406v64SD2|D#506v64SD2|...........|...........|C-707v64SD2|D#707v64SD2|...........|...........|...........|...........|...........|D#408v64SD2|===.....SD2|F#312v64SD2|C-302v64SD2|...........|...........|...........|...........|C-609v64SD2|D#609v64SD2|...........|...........|...........|...........|...........|...........|...........|...........|...........|C-411v52SD2|G-411v52SD2|D#511v52SD2|...........
|...........|...........|...........|...........|...........|...........|...........|...........|...........|...........|...........|...........|...........|...........|...........|...........|...........|...........|...........|...........|...........|...........|...........|...........|...........|...........|...........|...........|...........|...........|...........|...........|...........|...........|...........|...........|...........|...........|...........|...........|...........|...........|...........|...........
|...........|...........|...........|...........|...........|...........|...........|...........|...........|...........|...........|...........|...........|...........|...........|...........|...........|...........|...........|...........|...........|...........|...........|...........|...........|...........|...........|...........|...........|...........|...........|...........|...........|...........|...........|...........|...........|...........|...........|...........|...........|...........|...........|...........
|...........|...........|...........|...........|...........|...........|...........|...........|...........|...........|...........|...........|...........|...........|...........|...........|...........|...........|...........|...........|...........|...........|...........|...........|...........|...........|...........|...........|...........|...........|...........|...........|...........|...........|...........|...........|...........|...........|...........|...........|...........|...........|...........|...........
|G-503v64SD2|...........|===.....SD2|===.....SD2|...........|...........|...........|...........|...........|...........|...........|...........|...........|...........|===.....SD2|===.....SD2|...........|...........|...........|...........|...........|...........|...........|A#314v64SD2|...........|...........|...........|...........|...........|===.....SD2|===.....SD2|...........|...........|...........|...........|...........|...........|...........|...........|...........|...........|...........|...........|...........
|...........|...........|...........|...........|...........|...........|...........|...........|...........|...........|...........|...........|...........|...........|...........|...........|...........|...........|...........|...........|...........|...........|...........|...........|...........|...........|...........|...........|...........|...........|...........|...........|...........|...........|...........|...........|...........|...........|...........|...........|...........|...........|...........|...........
|...........|...........|...........|...........|...........|...........|...........|...........|...........|...........|...........|...........|...........|...........|...........|...........|...........|...........|...........|...........|...........|...........|...........|...........|...........|...........|...........|...........|...........|...........|...........|...........|...........|...........|...........|...........|...........|...........|...........|...........|...........|...........|...........|...........
|...........|...........|...........|...........|...........|...........|...........|...........|...........|...........|...........|...........|...........|...........|...........|...........|...........|...........|...........|...........|...........|...........|...........|...........|...........|...........|...........|...........|...........|...........|...........|...........|...........|...........|...........|...........|...........|...........|...........|...........|...........|...........|...........|...........
|C-503v64SD2|...........|D-604v64SD2|F-604v64SD2|...........|...........|...........|...........|...........|...........|...........|...........|...........|...........|D-707v64SD2|F-707v64SD2|...........|...........|...........|...........|...........|...........|...........|F#312v64SD2|C-302v64SD2|...........|...........|...........|...........|D-609v64SD2|F-609v64SD2|...........|...........|...........|...........|...........|...........|...........|...........|...........|...........|...........|...........|...........
|...........|...........|...........|...........|...........|...........|...........|...........|...........|...........|...........|...........|...........|...........|...........|...........|...........|...........|...........|...........|...........|...........|...........|...........|...........|...........|...........|...........|...........|...........|...........|...........|...........|...........|...........|...........|...........|...........|...........|...........|...........|...........|...........|...........
|...........|...........|...........|...........|...........|...........|...........|...........|...........|...........|...........|...........|...........|...........|...........|...........|...........|...........|...........|...........|...........|...........|...........|...........|...........|...........|...........|...........|...........|...........|...........|...........|...........|...........|...........|...........|...........|...........|...........|...........|...........|...........|...........|...........
|...........|...........|...........|...........|...........|...........|...........|...........|...........|...........|...........|...........|...........|...........|...........|...........|...........|...........|...........|...........|...........|...........|...........|...........|...........|...........|...........|...........|...........|...........|...........|...........|...........|...........|...........|...........|...........|...........|...........|...........|...........|...........|...........|...........
|G-503v64SD2|...........|D#604v64SD2|G-604v64SD2|...........|...........|...........|...........|...........|...........|...........|...........|...........|...........|D#707v64SD2|G-707v64SD2|...........|...........|...........|...........|...........|...........|...........|A#314v64SD2|...........|...........|...........|...........|...........|D#609v64SD2|G-609v64SD2|...........|...........|...........|...........|...........|...........|...........|...........|...........|...........|...........|...........|...........
|...........|...........|...........|...........|...........|...........|...........|...........|...........|...........|...........|...........|...........|...........|...........|...........|...........|...........|...........|...........|...........|...........|...........|...........|...........|...........|...........|...........|...........|...........|...........|...........|...........|...........|...........|...........|...........|...........|...........|...........|...........|...........|...........|...........
|...........|...........|...........|...........|...........|...........|...........|...........|...........|...........|...........|...........|...........|...........|...........|...........|...........|...........|...........|...........|...........|...........|...........|...........|...........|...........|...........|...........|...........|...........|...........|...........|...........|...........|...........|...........|...........|...........|...........|...........|...........|...........|...........|...........
|...........|...........|...........|...........|...........|...........|...........|...........|...........|===.....SD4|===.....SD4|===.....SD4|...........|...........|...........|...........|...........|...........|...........|...........|...........|...........|...........|...........|...........|...........|...........|...........|...........|...........|...........|...........|...........|...........|...........|...........|...........|...........|...........|...........|===.....SD4|===.....SD4|===.....SD4|...........
|A-403v64SD2|...........|D-604v64SD2|F-604v64SD2|...........|...........|...........|...........|...........|A-306v64SD2|F-406v64SD2|F-506v64SD2|...........|...........|D-707v64SD2|F-707v64SD2|...........|...........|...........|...........|...........|===.....SD2|F-408v64SD2|F#312v64SD2|C-302v64SD2|...........|...........|...........|...........|D-609v64SD2|F-609v64SD2|...........|...........|...........|...........|...........|...........|...........|...........|...........|A-311v52SD2|F-411v52SD2|F-511v52SD2|...........
|...........|...........|...........|...........|...........|...........|...........|...........|...........|...........|...........|...........|...........|...........|...........|...........|...........|...........|...........|...........|...........|...........|...........|...........|...........|...........|...........|...........|...........|...........|...........|...........|...........|...........|...........|...........|...........|...........|...........|...........|...........|...........|...........|...........
|...........|...........|...........|...........|...........|...........|...........|...........|...........|...........|...........|...........|...........|...........|...........|...........|...........|...........|...........|...........|...........|...........|...........|...........|...........|...........|...........|...........|...........|...........|...........|...........|...........|...........|...........|...........|...........|...........|...........|...........|...........|...........|...........|...........
|...........|...........|...........|...........|...........|...........|...........|...........|...........|...........|...........|...........|...........|...........|...........|...........|...........|...........|...........|...........|...........|...........|...........|...........|...........|...........|...........|...........|...........|...........|...........|...........|...........|...........|...........|...........|...........|...........|...........|...........|...........|...........|...........|...........
|F-503v64SD2|...........|===.....SD2|===.....SD2|...........|...........|...........|...........|...........|...........|...........|...........|...........|...........|===.....SD2|===.....SD2|...........|...........|...........|...........|...........|...........|...........|D-315v42SD2|A#314v64SD2|...........|...........|...........|...........|===.....SD2|===.....SD2|...........|...........|...........|...........|...........|...........|...........|...........|...........|...........|...........|...........|...........
|...........|...........|...........|...........|...........|...........|...........|...........|...........|...........|...........|...........|...........|...........|...........|...........|...........|...........|...........|...........|...........|...........|...........|...........|...........|...........|...........|...........|...........|...........|...........|...........|...........|...........|...........|...........|...........|...........|...........|...........|...........|...........|...........|...........
|...........|...........|...........|...........|...........|...........|...........|...........|...........|...........|...........|...........|...........|...........|...........|...........|...........|...........|...........|...........|...........|...........|...........|...........|...........|...........|...........|...........|...........|...........|...........|...........|...........|...........|...........|...........|...........|...........|...........|...........|...........|...........|...........|...........
|...........|...........|...........|...........|...........|...........|...........|...........|...........|...........|...........|...........|...........|...........|...........|...........|...........|...........|...........|...........|...........|...........|...........|...........|...........|...........|...........|...........|...........|...........|...........|...........|...........|...........|...........|...........|...........|...........|...........|...........|...........|...........|...........|...........
|A-403v64SD2|...........|F-604v64SD2|A-604v64SD2|...........|...........|...........|...........|...........|...........|...........|...........|...........|...........|F-707v64SD2|A-707v64SD2|...........|...........|...........|...........|...........|...........|...........|F#312v64SD2|C-302v64SD2|...........|...........|...........|...........|F-609v64SD2|A-609v64SD2|...........|...........|...........|...........|...........|...........|...........|...........|...........|...........|...........|...........|...........
|...........|...........|...........|...........|...........|...........|...........|...........|...........|...........|...........|...........|...........|...........|...........|...........|...........|...........|...........|...........|...........|...........|...........|...........|...........|...........|...........|...........|...........|...........|...........|...........|...........|...........|...........|...........|...........|...........|...........|...........|...........|...........|...........|...........
|...........|...........|...........|...........|...........|...........|...........|...........|...........|...........|...........|...........|...........|...........|...........|...........|...........|...........|...........|...........|...........|...........|...........|D-315v42SD2|...........|...........|...........|...........|...........|...........|...........|...........|...........|...........|...........|...........|...........|...........|...........|...........|...........|...........|...........|...........
|...........|...........|...........|...........|...........|...........|...........|...........|...........|...........|...........|...........|...........|...........|...........|...........|...........|...........|...........|...........|...........|...........|...........|...........|...........|...........|...........|...........|...........|...........|...........|...........|...........|...........|...........|...........|...........|...........|...........|...........|...........|...........|...........|...........
|F-503v64SD2|...........|===.....SD2|===.....SD2|...........|...........|...........|...........|...........|...........|...........|...........|...........|...........|===.....SD2|===.....SD2|...........|...........|...........|...........|...........|...........|...........|A#314v64SD2|...........|...........|...........|...........|...........|===.....SD2|===.....SD2|...........|...........|...........|...........|...........|...........|...........|...........|...........|...........|...........|...........|...........
|...........|...........|...........|...........|...........|...........|...........|...........|...........|...........|...........|...........|...........|...........|...........|...........|...........|...........|...........|...........|...........|...........|...........|...........|...........|...........|...........|...........|...........|...........|...........|...........|...........|...........|...........|...........|...........|...........|...........|...........|...........|...........|...........|...........
|...........|...........|...........|...........|...........|...........|...........|...........|...........|...........|...........|...........|...........|...........|...........|...........|...........|...........|...........|...........|...........|...........|...........|D-315v42SD2|...........|...........|...........|...........|...........|...........|...........|...........|...........|...........|...........|...........|...........|...........|...........|...........|...........|...........|...........|...........
|...........|...........|...........|...........|...........|...........|...........|...........|...........|===.....SD4|===.....SD4|===.....SD4|...........|...........|...........|...........|...........|...........|...........|...........|...........|...........|...........|...........|...........|...........|...........|...........|...........|...........|...........|...........|...........|...........|...........|...........|...........|...........|...........|...........|===.....SD4|===.....SD4|===.....SD4|...........
|G#403v64SD2|...........|G-604v64SD2|C-704v64SD2|...........|...........|...........|...........|...........|G#306v64SD2|D#406v64SD2|G#506v64SD2|...........|...........|G-707v64SD2|C-807v64SD2|...........|...........|...........|...........|...........|G#408v64SD2|===.....SD2|D#416v64SD2|F#312v64SD2|C-302v64SD2|...........|...........|...........|G-609v64SD2|C-709v64SD2|...........|...........|...........|...........|...........|...........|...........|...........|...........|G#311v52SD2|D#411v52SD2|G#511v52SD2|...........
|...........|...........|...........|...........|...........|...........|...........|...........|...........|...........|...........|...........|...........|...........|...........|...........|...........|...........|...........|...........|...........|...........|...........|...........|...........|...........|...........|...........|...........|...........|...........|...........|...........|...........|...........|...........|...........|...........|...........|...........|...........|...........|...........|...........
|...........|...........|...........|...........|...........|...........|...........|...........|...........|...........|...........|...........|...........|...........|...........|...........|...........|...........|...........|...........|...........|...........|...........|...........|...........|...........|...........|...........|...........|...........|...........|...........|...........|...........|...........|...........|...........|...........|...........|...........|...........|...........|...........|...........
|...........|...........|...........|...........|...........|...........|...........|...........|...........|...........|...........|...........|...........|...........|...........|...........|...........|...........|...........|...........|...........|...........|...........|...........|...........|...........|...........|...........|...........|...........|...........|...........|...........|...........|...........|...........|...........|...........|...........|...........|...........|...........|...........|...........
|D#503v64SD2|...........|D#604v64SD2|G-604v64SD2|...........|...........|...........|...........|...........|...........|...........|...........|...........|...........|D#707v64SD2|G-707v64SD2|...........|...........|...........|...........|...........|...........|...........|A#314v64SD2|...........|...........|...........|...........|...........|D#609v64SD2|G-609v64SD2|...........|...........|...........|...........|...........|...........|...........|...........|...........|...........|...........|...........|...........
|...........|...........|...........|...........|...........|...........|...........|...........|...........|...........|...........|...........|...........|...........|...........|...........|...........|...........|...........|...........|...........|...........|...........|...........|...........|...........|...........|...........|...........|...........|...........|...........|...........|...........|...........|...........|...........|...........|...........|...........|...........|...........|...........|...........
|...........|...........|...........|...........|...........|...........|...........|...........|...........|...........|...........|...........|...........|...........|...........|...........|...........|...........|...........|...........|...........|...........|...........|...........|...........|...........|...........|...........|...........|...........|...........|...........|...........|...........|...........|...........|...........|...........|...........|...........|...........|...........|...........|...........
|...........|...........|...........|...........|...........|...........|...........|...........|...........|...........|...........|...........|...........|...........|...........|...........|...........|...........|...........|...........|...........|...........|...........|...........|...........|...........|...........|...........|...........|...........|...........|...........|...........|...........|...........|...........|...........|...........|...........|...........|...........|...........|...........|...........
|G#403v64SD2|...........|A#604v64SD2|D-704v64SD2|...........|...........|...........|...........|...........|...........|...........|...........|...........|...........|A#707v64SD2|D-807v64SD2|...........|...........|...........|...........|...........|...........|...........|F#312v64SD2|C-302v64SD2|...........|...........|...........|...........|A#609v64SD2|D-709v64SD2|...........|...........|...........|...........|...........|...........|...........|...........|...........|...........|...........|...........|...........
|...........|...........|...........|...........|...........|...........|...........|...........|...........|...........|...........|...........|...........|...........|...........|...........|...........|...........|...........|...........|...........|...........|...........|...........|...........|...........|...........|...........|...........|...........|...........|...........|...........|...........|...........|...........|...........|...........|...........|...........|...........|...........|...........|...........
|...........|...........|...........|...........|...........|...........|...........|...........|...........|...........|...........|...........|...........|...........|...........|...........|...........|...........|...........|...........|...........|...........|...........|...........|...........|...........|...........|...........|...........|...........|...........|...........|...........|...........|...........|...........|...........|...........|...........|...........|...........|...........|...........|...........
|...........|...........|...........|...........|...........|...........|...........|...........|...........|...........|...........|...........|...........|...........|...........|...........|...........|...........|...........|...........|...........|...........|...........|...........|...........|...........|...........|...........|...........|...........|...........|...........|...........|...........|...........|...........|...........|...........|...........|...........|...........|...........|...........|...........
|D#503v64SD2|...........|C-704v64SD2|D#704v64SD2|...........|...........|...........|...........|...........|...........|...........|...........|...........|...........|C-807v64SD2|D#807v64SD2|...........|...........|...........|...........|...........|...........|...........|A#314v64SD2|...........|...........|...........|...........|...........|C-709v64SD2|D#709v64SD2|...........|...........|...........|...........|...........|...........|...........|...........|...........|...........|...........|...........|...........
|...........|...........|...........|...........|...........|...........|...........|...........|...........|...........|...........|...........|...........|...........|...........|...........|...........|...........|...........|...........|...........|...........|...........|...........|...........|...........|...........|...........|...........|...........|...........|...........|...........|...........|...........|...........|...........|...........|...........|...........|...........|...........|...........|...........
|...........|...........|===.....SD2|===.....SD2|...........|...........|...........|...........|...........|...........|...........|...........|...........|...........|===.....SD2|===.....SD2|...........|...........|...........|...........|...........|...........|...........|...........|...........|...........|...........|...........|...........|===.....SD2|===.....SD2|...........|...........|...........|...........|...........|...........|...........|...........|...........|...........|...........|...........|...........
|...........|...........|...........|...........|...........|...........|...........|...........|...........|===.....SD4|===.....SD4|===.....SD4|...........|...........|...........|...........|...........|...........|...........|...........|...........|...........|...........|...........|...........|...........|...........|...........|...........|...........|...........|...........|...........|...........|...........|...........|...........|...........|...........|...........|===.....SD4|===.....SD4|===.....SD4|...........
|A#403v64SD2|...........|A#604v64SD2|D-704v64SD2|...........|...........|...........|...........|...........|A#306v64SD2|F-406v64SD2|A#506v64SD2|...........|...........|A#707v64SD2|D-807v64SD2|...........|...........|...........|...........|...........|===.....SD2|A#408v64SD2|F#312v64SD2|C-302v64SD2|...........|...........|...........|...........|A#609v64SD2|D-709v64SD2|...........|...........|...........|...........|...........|...........|...........|...........|...........|A#311v52SD2|F-411v52SD2|A#511v52SD2|...........
|...........|...........|...........|...........|...........|...........|...........|...........|...........|...........|...........|...........|...........|...........|...........|...........|...........|...........|...........|...........|...........|...........|...........|...........|...........|...........|...........|...........|...........|...........|...........|...........|...........|...........|...........|...........|...........|...........|...........|...........|...........|...........|...........|...........
|...........|...........|...........|...........|...........|...........|...........|...........|...........|...........|...........|...........|...........|...........|...........|...........|...........|...........|...........|...........|...........|...........|...........|...........|...........|...........|...........|...........|...........|...........|...........|...........|...........|...........|...........|...........|...........|...........|...........|...........|...........|...........|...........|...........
|...........|...........|...........|...........|...........|...........|...........|...........|...........|...........|...........|...........|...........|...........|...........|...........|...........|...........|...........|...........|...........|...........|...........|...........|...........|...........|...........|...........|...........|...........|...........|...........|...........|...........|...........|...........|...........|...........|...........|...........|...........|...........|...........|...........
|F-503v64SD2|...........|C-704v64SD2|D#704v64SD2|...........|...........|...........|...........|...........|...........|...........|...........|...........|...........|C-807v64SD2|D#807v64SD2|...........|...........|...........|...........|...........|...........|...........|A#314v64SD2|...........|...........|...........|...........|...........|C-709v64SD2|D#709v64SD2|...........|...........|...........|...........|...........|...........|...........|...........|...........|...........|...........|...........|...........
|...........|...........|...........|...........|...........|...........|...........|...........|...........|...........|...........|...........|...........|...........|...........|...........|...........|...........|...........|...........|...........|...........|...........|...........|...........|...........|...........|...........|...........|...........|...........|...........|...........|...........|...........|...........|...........|...........|...........|...........|...........|...........|...........|...........
|...........|...........|A#604v64SD2|D-704v64SD2|...........|...........|...........|...........|...........|...........|...........|...........|...........|...........|A#707v64SD2|D-807v64SD2|...........|...........|...........|...........|...........|...........|...........|...........|...........|...........|...........|...........|...........|A#609v64SD2|D-709v64SD2|...........|...........|...........|...........|...........|...........|...........|...........|...........|...........|...........|...........|...........
|...........|...........|...........|...........|...........|...........|...........|...........|...........|...........|...........|...........|...........|...........|...........|...........|...........|...........|...........|...........|...........|...........|...........|...........|...........|...........|...........|...........|...........|...........|...........|...........|...........|...........|...........|...........|...........|...........|...........|...........|...........|...........|...........|...........
|A#403v64SD2|...........|D#604v64SD2|C-704v64SD2|...........|...........|...........|...........|...........|...........|...........|...........|...........|...........|D#707v64SD2|C-807v64SD2|...........|...........|...........|...........|...........|...........|...........|F#312v64SD2|C-302v64SD2|...........|...........|...........|...........|D#609v64SD2|C-709v64SD2|...........|...........|...........|...........|...........|...........|...........|...........|...........|...........|...........|...........|...........
|...........|...........|...........|...........|...........|...........|...........|...........|...........|...........|...........|...........|...........|...........|...........|...........|...........|...........|...........|...........|...........|...........|...........|...........|...........|...........|...........|...........|...........|...........|...........|...........|...........|...........|...........|...........|...........|...........|...........|...........|...........|...........|...........|...........
|...........|...........|...........|...........|...........|...........|...........|...........|...........|...........|...........|...........|...........|...........|...........|...........|...........|...........|...........|...........|...........|...........|...........|...........|...........|...........|...........|...........|...........|...........|...........|...........|...........|...........|...........|...........|...........|...........|...........|...........|...........|...........|...........|...........
|...........|...........|...........|...........|...........|...........|...........|...........|...........|...........|...........|...........|...........|...........|...........|...........|...........|...........|...........|...........|...........|...........|...........|...........|...........|...........|...........|...........|...........|...........|...........|...........|...........|...........|...........|...........|...........|...........|...........|...........|...........|...........|...........|...........
|F-503v64SD2|...........|D#604v64SD2|A#604v64SD2|...........|...........|...........|...........|...........|...........|...........|...........|...........|...........|D#707v64SD2|A#707v64SD2|...........|...........|...........|...........|...........|...........|...........|A#314v64SD2|...........|...........|...........|...........|...........|D#609v64SD2|A#609v64SD2|...........|...........|...........|...........|...........|...........|...........|...........|...........|...........|...........|...........|...........
|...........|...........|...........|...........|...........|...........|...........|...........|...........|...........|...........|...........|...........|...........|...........|...........|...........|...........|...........|...........|...........|...........|...........|...........|...........|...........|...........|...........|...........|...........|...........|...........|...........|...........|...........|...........|...........|...........|...........|...........|...........|...........|...........|...........
|...........|...........|===.....SD2|===.....SD2|...........|...........|...........|...........|...........|...........|...........|...........|...........|...........|===.....SD2|===.....SD2|...........|...........|...........|...........|...........|...........|...........|...........|...........|...........|...........|...........|...........|===.....SD2|===.....SD2|...........|...........|...........|...........|...........|...........|...........|...........|...........|...........|...........|...........|...........
|...........|...........|...........|...........|...........|...........|...........|...........|...........|===.....SD4|===.....SD4|===.....SD4|...........|...........|...........|...........|...........|...........|...........|...........|...........|...........|...........|...........|...........|...........|...........|...........|...........|...........|...........|...........|...........|...........|...........|...........|...........|...........|...........|...........|===.....SD4|===.....SD4|===.....SD4|...........
|C-503v64SD2|...........|G-604v64SD2|C-704v64SD2|...........|...........|...........|...........|...........|C-406v64SD2|G-406v64SD2|C-606v64SD2|...........|...........|G-707v64SD2|C-807v64SD2|...........|...........|...........|...........|...........|C-508v64SD2|===.....SD2|F#312v64SD2|C-302v64SD2|...........|...........|...........|...........|G-609v64SD2|C-709v64SD2|...........|...........|...........|...........|...........|...........|...........|...........|...........|C-411v52SD2|G-411v52SD2|C-611v52SD2|...........
|...........|...........|...........|...........|...........|...........|...........|...........|...........|...........|...........|...........|...........|...........|...........|...........|...........|...........|...........|...........|...........|...........|...........|...........|...........|...........|...........|...........|...........|...........|...........|...........|...........|...........|...........|...........|...........|...........|...........|...........|...........|...........|...........|...........
|...........|...........|...........|...........|...........|...........|...........|...........|...........|...........|...........|...........|...........|...........|...........|...........|...........|...........|...........|...........|...........|...........|...........|...........|...........|...........|...........|...........|...........|...........|...........|...........|...........|...........|...........|...........|...........|...........|...........|...........|...........|...........|...........|...........
|...........|...........|...........|...........|...........|...........|...........|...........|...........|...........|...........|...........|...........|...........|...........|...........|...........|...........|...........|...........|...........|...........|...........|...........|...........|...........|...........|...........|...........|...........|...........|...........|...........|...........|...........|...........|...........|...........|...........|...........|...........|...........|...........|...........
|G-503v64SD2|...........|...........|...........|...........|...........|...........|...........|...........|...........|...........|...........|...........|...........|...........|...........|...........|...........|...........|...........|...........|...........|...........|A#314v64SD2|...........|...........|...........|...........|...........|...........|...........|...........|...........|...........|...........|...........|...........|...........|...........|...........|...........|...........|...........|...........
|...........|...........|...........|...........|...........|...........|...........|...........|...........|...........|...........|...........|...........|...........|...........|...........|...........|...........|...........|...........|...........|...........|...........|...........|...........|...........|...........|...........|...........|...........|...........|...........|...........|...........|...........|...........|...........|...........|...........|...........|...........|...........|...........|...........
|...........|...........|...........|...........|...........|...........|...........|...........|...........|...........|...........|...........|...........|...........|...........|...........|...........|...........|...........|...........|...........|...........|...........|...........|...........|...........|...........|...........|...........|...........|...........|...........|...........|...........|...........|...........|...........|...........|...........|...........|...........|...........|...........|...........
|...........|...........|...........|...........|...........|...........|...........|...........|...........|...........|...........|...........|...........|...........|...........|...........|...........|...........|...........|...........|...........|...........|...........|...........|...........|...........|...........|...........|...........|...........|...........|...........|...........|...........|...........|...........|...........|...........|...........|...........|...........|...........|...........|...........
|C-503v64SD2|...........|...........|...........|...........|...........|...........|...........|...........|...........|...........|...........|...........|...........|...........|...........|...........|...........|...........|...........|...........|...........|...........|F#312v64SD2|C-302v64SD2|...........|...........|...........|...........|...........|...........|...........|...........|...........|...........|...........|...........|...........|...........|...........|...........|...........|...........|...........
|...........|...........|...........|...........|...........|...........|...........|...........|...........|...........|...........|...........|...........|...........|...........|...........|...........|...........|...........|...........|...........|...........|...........|...........|...........|...........|...........|...........|...........|...........|...........|...........|...........|...........|...........|...........|...........|...........|...........|...........|...........|...........|...........|...........
|...........|...........|...........|...........|...........|...........|...........|...........|...........|...........|...........|...........|...........|...........|...........|...........|...........|...........|...........|...........|...........|...........|...........|...........|...........|...........|...........|...........|...........|...........|...........|...........|...........|...........|...........|...........|...........|...........|...........|...........|...........|...........|...........|...........
|...........|...........|...........|...........|...........|...........|...........|...........|...........|...........|...........|...........|...........|...........|...........|...........|...........|...........|...........|...........|...........|...........|...........|...........|...........|...........|...........|...........|...........|...........|...........|...........|...........|...........|...........|...........|...........|...........|...........|...........|...........|...........|...........|...........
|G-503v64SD2|...........|...........|...........|...........|...........|...........|...........|...........|...........|...........|...........|...........|...........|...........|...........|...........|...........|...........|...........|...........|...........|...........|A#314v64SD2|...........|...........|...........|...........|...........|...........|...........|...........|...........|...........|...........|...........|...........|...........|...........|...........|...........|...........|...........|...........
|...........|...........|...........|...........|...........|...........|...........|...........|...........|...........|...........|...........|...........|...........|...........|...........|...........|...........|...........|...........|...........|...........|...........|...........|...........|...........|...........|...........|...........|...........|...........|...........|...........|...........|...........|...........|...........|...........|...........|...........|...........|...........|...........|...........
|...........|...........|...........|...........|...........|...........|...........|...........|...........|...........|...........|...........|...........|...........|...........|...........|...........|...........|...........|...........|...........|...........|...........|...........|...........|...........|...........|...........|...........|...........|...........|...........|...........|...........|...........|...........|...........|...........|...........|...........|...........|...........|...........|...........
|...........|...........|...........|...........|...........|...........|...........|...........|...........|...........|...........|...........|...........|...........|...........|...........|...........|...........|...........|...........|...........|...........|...........|...........|...........|...........|...........|...........|...........|...........|...........|...........|...........|...........|...........|...........|...........|...........|...........|...........|...........|...........|...........|...........
|C-503v64SD2|...........|...........|...........|...........|...........|...........|...........|...........|...........|...........|...........|...........|...........|...........|...........|...........|...........|...........|...........|...........|...........|...........|F#312v64SD2|C-302v64SD2|...........|...........|...........|...........|...........|...........|...........|...........|...........|...........|...........|...........|...........|...........|...........|...........|...........|...........|...........
|...........|...........|...........|...........|...........|...........|...........|...........|...........|...........|...........|...........|...........|...........|...........|...........|...........|...........|...........|...........|...........|...........|...........|...........|...........|...........|...........|...........|...........|...........|...........|...........|...........|...........|...........|...........|...........|...........|...........|...........|...........|...........|...........|...........
|...........|...........|...........|...........|...........|...........|...........|...........|...........|...........|...........|...........|...........|...........|...........|...........|...........|...........|...........|...........|...........|...........|...........|...........|...........|...........|...........|...........|...........|...........|...........|...........|...........|...........|...........|...........|...........|...........|...........|...........|...........|...........|...........|...........
|...........|...........|...........|...........|...........|...........|...........|...........|...........|...........|...........|...........|...........|...........|...........|...........|...........|...........|...........|...........|...........|...........|...........|...........|...........|...........|...........|...........|...........|...........|...........|...........|...........|...........|...........|...........|...........|...........|...........|...........|...........|...........|...........|...........
|G-503v64SD2|...........|...........|...........|...........|...........|...........|...........|...........|...........|...........|...........|...........|...........|...........|...........|...........|...........|...........|...........|...........|...........|...........|D-315v42SD2|A#314v64SD2|...........|...........|...........|...........|...........|...........|...........|...........|...........|...........|...........|...........|...........|...........|...........|...........|...........|...........|...........
|...........|...........|...........|...........|...........|...........|...........|...........|...........|...........|...........|...........|...........|...........|...........|...........|...........|...........|...........|...........|...........|...........|...........|...........|...........|...........|...........|...........|...........|...........|...........|...........|...........|...........|...........|...........|...........|...........|...........|...........|...........|...........|...........|...........
|...........|...........|...........|...........|...........|...........|...........|...........|...........|...........|...........|...........|...........|...........|...........|...........|...........|...........|...........|...........|...........|...........|...........|...........|...........|...........|...........|...........|...........|...........|...........|...........|...........|...........|...........|...........|...........|...........|...........|...........|...........|...........|...........|...........
|...........|...........|...........|...........|...........|...........|...........|...........|...........|...........|...........|...........|...........|...........|...........|...........|...........|...........|...........|...........|...........|...........|...........|...........|...........|...........|...........|...........|...........|...........|...........|...........|...........|...........|...........|...........|...........|...........|...........|...........|...........|...........|...........|...........
|C-503v64SD2|...........|...........|...........|...........|...........|...........|...........|...........|...........|...........|...........|...........|...........|...........|...........|...........|...........|...........|...........|...........|...........|...........|F#312v64SD2|C-302v64SD2|...........|...........|...........|...........|...........|...........|...........|...........|...........|...........|...........|...........|...........|...........|...........|...........|...........|...........|...........
|...........|...........|...........|...........|...........|...........|...........|...........|...........|...........|...........|...........|...........|...........|...........|...........|...........|...........|...........|...........|...........|...........|...........|...........|...........|...........|...........|...........|...........|...........|...........|...........|...........|...........|...........|...........|...........|...........|...........|...........|...........|...........|...........|...........
|...........|...........|...........|...........|...........|...........|...........|...........|...........|...........|...........|...........|...........|...........|...........|...........|...........|...........|...........|...........|...........|...........|...........|D-315v42SD2|...........|...........|...........|...........|...........|...........|...........|...........|...........|...........|...........|...........|...........|...........|...........|...........|...........|...........|...........|...........
|...........|...........|...........|...........|...........|...........|...........|...........|...........|...........|...........|...........|...........|...........|...........|...........|...........|...........|...........|...........|...........|...........|...........|...........|...........|...........|...........|...........|...........|...........|...........|...........|...........|...........|...........|...........|...........|...........|...........|...........|...........|...........|...........|...........
|G-503v64SD2|...........|...........|...........|...........|...........|...........|...........|...........|...........|...........|...........|...........|...........|...........|...........|...........|...........|...........|...........|...........|...........|...........|A#314v64SD2|...........|...........|...........|...........|...........|...........|...........|...........|...........|...........|...........|...........|...........|...........|...........|...........|...........|...........|...........|...........
|...........|...........|...........|...........|...........|...........|...........|...........|...........|...........|...........|...........|...........|...........|...........|...........|...........|...........|...........|...........|...........|...........|...........|...........|...........|...........|...........|...........|...........|...........|...........|...........|...........|...........|...........|...........|...........|...........|...........|...........|...........|...........|...........|...........
|...........|...........|...........|...........|...........|...........|...........|...........|...........|...........|...........|...........|...........|...........|...........|...........|...........|...........|...........|...........|...........|...........|...........|D-315v42SD2|...........|...........|...........|...........|...........|...........|...........|...........|...........|...........|...........|...........|...........|...........|...........|...........|...........|...........|...........|...........
|...........|...........|...........|...........|...........|...........|...........|...........|...........|...........|...........|...........|...........|...........|...........|...........|...........|...........|...........|...........|...........|...........|...........|...........|...........|...........|...........|...........|...........|...........|...........|...........|...........|...........|...........|...........|...........|...........|...........|...........|...........|...........|...........|...........
|G#403v64SD2|...........|G-504v64SD2|C-604v64SD2|...........|...........|...........|...........|...........|G#306v64SD2|D#406v64SD2|C-506v64SD2|...........|...........|G-607v64SD2|C-707v64SD2|...........|...........|...........|...........|...........|C-408v64SD2|...........|D#416v64SD2|F#312v64SD2|C-302v64SD2|...........|...........|...........|G-509v64SD2|C-609v64SD2|...........|...........|...........|...........|...........|...........|...........|...........|...........|G#311v52SD2|D#411v52SD2|C-511v52SD2|...........

ModPlug Tracker MPT
|...........|...........|...........|...........|...........|...........|...........|...........|...........|...........|...........|...........|...........|...........|...........|...........|...........|...........|...........|...........|...........|...........|...........|...........|...........|...........|...........|...........|...........|...........|...........|...........|...........|...........|...........|...........|...........|...........|...........|...........|...........|...........|...........|...........
|...........|...........|...........|...........|...........|...........|...........|...........|...........|...........|...........|...........|...........|...........|...........|...........|...........|...........|...........|...........|...........|...........|...........|...........|...........|...........|...........|...........|...........|...........|...........|...........|...........|...........|...........|...........|...........|...........|...........|...........|...........|...........|...........|...........
|...........|...........|...........|...........|...........|...........|...........|...........|...........|...........|...........|...........|...........|...........|...........|...........|...........|...........|...........|...........|...........|...........|...........|...........|...........|...........|...........|...........|...........|...........|...........|...........|...........|...........|...........|...........|...........|...........|...........|...........|...........|...........|...........|...........
|D#503v64SD2|...........|===.....SD2|===.....SD2|...........|...........|...........|...........|...........|...........|...........|...........|...........|...........|===.....SD2|===.....SD2|...........|...........|...........|...........|...........|...........|...........|A#314v64SD2|...........|...........|...........|...........|...........|===.....SD2|===.....SD2|...........|...........|...........|...........|...........|...........|...........|...........|...........|...........|...........|...........|...........
|...........|...........|...........|...........|...........|...........|...........|...........|...........|...........|...........|...........|...........|...........|...........|...........|...........|...........|...........|...........|...........|...........|...........|...........|...........|...........|...........|...........|...........|...........|...........|...........|...........|...........|...........|...........|...........|...........|...........|...........|...........|...........|...........|...........
|...........|...........|...........|...........|...........|...........|...........|...........|...........|...........|...........|...........|...........|...........|...........|...........|...........|...........|...........|...........|...........|...........|...........|...........|...........|...........|...........|...........|...........|...........|...........|...........|...........|...........|...........|...........|...........|...........|...........|...........|...........|...........|...........|...........
|...........|...........|...........|...........|...........|...........|...........|...........|...........|...........|...........|...........|...........|...........|...........|...........|...........|...........|...........|...........|...........|...........|...........|...........|...........|...........|...........|...........|...........|...........|...........|...........|...........|...........|...........|...........|...........|...........|...........|...........|...........|...........|...........|...........
|G#403v64SD2|...........|D#604v64SD2|G-604v64SD2|...........|...........|...........|...........|...........|...........|...........|...........|...........|...........|D#707v64SD2|G-707v64SD2|...........|...........|...........|...........|...........|...........|...........|F#312v64SD2|C-302v64SD2|...........|...........|...........|...........|D#609v64SD2|G-609v64SD2|...........|...........|...........|...........|...........|...........|...........|...........|...........|...........|...........|...........|...........
|...........|...........|...........|...........|...........|...........|...........|...........|...........|...........|...........|...........|...........|...........|...........|...........|...........|...........|...........|...........|...........|...........|...........|...........|...........|...........|...........|...........|...........|...........|...........|...........|...........|...........|...........|...........|...........|...........|...........|...........|...........|...........|...........|...........
|...........|...........|...........|...........|...........|...........|...........|...........|...........|...........|...........|...........|...........|...........|...........|...........|...........|...........|...........|...........|...........|...........|...........|...........|...........|...........|...........|...........|...........|...........|...........|...........|...........|...........|...........|...........|...........|...........|...........|...........|...........|...........|...........|...........
|...........|...........|...........|...........|...........|...........|...........|...........|...........|...........|...........|...........|...........|...........|...........|...........|...........|...........|...........|...........|...........|...........|...........|...........|...........|...........|...........|...........|...........|...........|...........|...........|...........|...........|...........|...........|...........|...........|...........|...........|...........|...........|...........|...........
|D#503v64SD2|...........|===.....SD2|===.....SD2|...........|...........|...........|...........|...........|...........|...........|...........|...........|...........|===.....SD2|===.....SD2|...........|...........|...........|...........|...........|...........|...........|A#314v64SD2|...........|...........|...........|...........|...........|===.....SD2|===.....SD2|...........|...........|...........|...........|...........|...........|...........|...........|...........|...........|...........|...........|...........
|...........|...........|...........|...........|...........|...........|...........|...........|...........|...........|...........|...........|...........|...........|...........|...........|...........|...........|...........|...........|...........|...........|...........|...........|...........|...........|...........|...........|...........|...........|...........|...........|...........|...........|...........|...........|...........|...........|...........|...........|...........|...........|...........|...........
|...........|...........|...........|...........|...........|...........|...........|...........|...........|...........|...........|...........|...........|...........|...........|...........|...........|...........|...........|...........|...........|...........|...........|...........|...........|...........|...........|...........|...........|...........|...........|...........|...........|...........|...........|...........|...........|...........|...........|...........|...........|...........|...........|...........
|...........|...........|...........|...........|...........|...........|...........|...........|...........|===.....SD4|===.....SD4|===.....SD4|...........|...........|...........|...........|...........|...........|...........|...........|...........|...........|...........|...........|...........|...........|...........|...........|...........|...........|...........|...........|...........|...........|...........|...........|...........|...........|...........|...........|===.....SD4|===.....SD4|===.....SD4|...........
|A#403v64SD2|...........|G-504v64SD2|D-604v64SD2|...........|...........|...........|...........|...........|A#306v64SD2|F-406v64SD2|D-506v64SD2|...........|...........|G-607v64SD2|D-707v64SD2|...........|...........|...........|...........|...........|===.....SD2|D-408v64SD2|F#312v64SD2|C-302v64SD2|...........|...........|...........|...........|G-509v64SD2|D-609v64SD2|...........|...........|...........|...........|...........|...........|...........|...........|...........|A#311v52SD2|F-411v52SD2|D-511v52SD2|...........
|...........|...........|...........|...........|...........|...........|...........|...........|...........|...........|...........|...........|...........|...........|...........|...........|...........|...........|...........|...........|...........|...........|...........|...........|...........|...........|...........|...........|...........|...........|...........|...........|...........|...........|...........|...........|...........|...........|...........|...........|...........|...........|...........|...........
|...........|...........|...........|...........|...........|...........|...........|...........|...........|...........|...........|...........|...........|...........|...........|...........|...........|...........|...........|...........|...........|...........|...........|...........|...........|...........|...........|...........|...........|...........|...........|...........|...........|...........|...........|...........|...........|...........|...........|...........|...........|...........|...........|...........
|...........|...........|...........|...........|...........|...........|...........|...........|...........|...........|...........|...........|...........|...........|...........|...........|...........|...........|...........|...........|...........|...........|...........|...........|...........|...........|...........|...........|...........|...........|...........|...........|...........|...........|...........|...........|...........|...........|...........|...........|...........|...........|...........|...........
|F-503v64SD2|...........|===.....SD2|===.....SD2|...........|...........|...........|...........|...........|...........|...........|...........|...........|...........|===.....SD2|===.....SD2|...........|...........|...........|...........|...........|...........|...........|A#314v64SD2|...........|...........|...........|...........|...........|===.....SD2|===.....SD2|...........|...........|...........|...........|...........|...........|...........|...........|...........|...........|...........|...........|...........
|...........|...........|...........|...........|...........|...........|...........|...........|...........|...........|...........|...........|...........|...........|...........|...........|...........|...........|...........|...........|...........|...........|...........|...........|...........|...........|...........|...........|...........|...........|...........|...........|...........|...........|...........|...........|...........|...........|...........|...........|...........|...........|...........|...........
|...........|...........|...........|...........|...........|...........|...........|...........|...........|...........|...........|...........|...........|...........|...........|...........|...........|...........|...........|...........|...........|...........|...........|...........|...........|...........|...........|...........|...........|...........|...........|...........|...........|...........|...........|...........|...........|...........|...........|...........|...........|...........|...........|...........
|...........|...........|...........|...........|...........|...........|...........|...........|...........|...........|...........|...........|...........|...........|...........|...........|...........|...........|...........|...........|...........|...........|...........|...........|...........|...........|...........|...........|...........|...........|...........|...........|...........|...........|...........|...........|...........|...........|...........|...........|...........|...........|...........|...........
|A#403v64SD2|...........|D#604v64SD2|G-604v64SD2|...........|...........|...........|...........|...........|...........|...........|...........|...........|...........|D#707v64SD2|G-707v64SD2|...........|...........|...........|...........|...........|...........|...........|F#312v64SD2|C-302v64SD2|...........|...........|...........|...........|D#609v64SD2|G-609v64SD2|...........|...........|...........|...........|...........|...........|...........|...........|...........|...........|...........|...........|...........
|...........|...........|...........|...........|...........|...........|...........|...........|...........|...........|...........|...........|...........|...........|...........|...........|...........|...........|...........|...........|...........|...........|...........|...........|...........|...........|...........|...........|...........|...........|...........|...........|...........|...........|...........|...........|...........|...........|...........|...........|...........|...........|...........|...........
|...........|...........|...........|...........|...........|...........|...........|...........|...........|...........|...........|...........|...........|...........|...........|...........|...........|...........|...........|...........|...........|...........|...........|...........|...........|...........|...........|...........|...........|...........|...........|...........|...........|...........|...........|...........|...........|...........|...........|...........|...........|...........|...........|...........
|...........|...........|...........|...........|...........|...........|...........|...........|...........|...........|...........|...........|...........|...........|...........|...........|...........|...........|...........|...........|...........|...........|...........|...........|...........|...........|...........|...........|...........|...........|...........|...........|...........|...........|...........|...........|...........|...........|...........|...........|...........|...........|...........|...........
|F-503v64SD2|...........|===.....SD2|===.....SD2|...........|...........|...........|...........|...........|...........|...........|...........|...........|...........|===.....SD2|===.....SD2|...........|...........|...........|...........|...........|...........|...........|A#314v64SD2|...........|...........|...........|...........|...........|===.....SD2|===.....SD2|...........|...........|...........|...........|...........|...........|...........|...........|...........|...........|...........|...........|...........
|...........|...........|...........|...........|...........|...........|...........|...........|...........|...........|...........|...........|...........|...........|...........|...........|...........|...........|...........|...........|...........|...........|...........|...........|...........|...........|...........|...........|...........|...........|...........|...........|...........|...........|...........|...........|...........|...........|...........|...........|...........|...........|...........|...........
|...........|...........|...........|...........|...........|...........|...........|...........|...........|...........|...........|...........|...........|...........|...........|...........|...........|...........|...........|...........|...........|...........|...........|...........|...........|...........|...........|...........|...........|...........|...........|...........|...........|...........|...........|...........|...........|...........|...........|...........|...........|...........|...........|...........
|...........|...........|...........|...........|...........|...........|...........|...........|...........|===.....SD4|===.....SD4|===.....SD4|...........|...........|...........|...........|...........|...........|...........|...........|...........|...........|...........|...........|...........|...........|...........|...........|...........|...........|...........|...........|...........|...........|...........|...........|...........|...........|...........|...........|===.....SD4|===.....SD4|===.....SD4|...........
|C-503v64SD2|...........|C-604v64SD2|D#604v64SD2|...........|...........|...........|...........|...........|C-406v64SD2|G-406v64SD2|D#506v64SD2|...........|...........|C-707v64SD2|D#707v64SD2|...........|...........|...........|...........|...........|D#408v64SD2|===.....SD2|F#312v64SD2|C-302v64SD2|...........|...........|...........|...........|C-609v64SD2|D#609v64SD2|...........|...........|...........|...........|...........|...........|...........|...........|...........|C-411v52SD2|G-411v52SD2|D#511v52SD2|...........
|...........|...........|...........|...........|...........|...........|...........|...........|...........|...........|...........|...........|...........|...........|...........|...........|...........|...........|...........|...........|...........|...........|...........|...........|...........|...........|...........|...........|...........|...........|...........|...........|...........|...........|...........|...........|...........|...........|...........|...........|...........|...........|...........|...........
|...........|...........|...........|...........|...........|...........|...........|...........|...........|...........|...........|...........|...........|...........|...........|...........|...........|...........|...........|...........|...........|...........|...........|...........|...........|...........|...........|...........|...........|...........|...........|...........|...........|...........|...........|...........|...........|...........|...........|...........|...........|...........|...........|...........
|...........|...........|...........|...........|...........|...........|...........|...........|...........|...........|...........|...........|...........|...........|...........|...........|...........|...........|...........|...........|...........|...........|...........|...........|...........|...........|...........|...........|...........|...........|...........|...........|...........|...........|...........|...........|...........|...........|...........|...........|...........|...........|...........|...........
|G-503v64SD2|...........|===.....SD2|===.....SD2|...........|...........|...........|...........|...........|...........|...........|...........|...........|...........|===.....SD2|===.....SD2|...........|...........|...........|...........|...........|...........|...........|A#314v64SD2|...........|...........|...........|...........|...........|===.....SD2|===.....SD2|...........|...........|...........|...........|...........|...........|...........|...........|...........|...........|...........|...........|...........
|...........|...........|...........|...........|...........|...........|...........|...........|...........|...........|...........|...........|...........|...........|...........|...........|...........|...........|...........|...........|...........|...........|...........|...........|...........|...........|...........|...........|...........|...........|...........|...........|...........|...........|...........|...........|...........|...........|...........|...........|...........|...........|...........|...........
|...........|...........|...........|...........|...........|...........|...........|...........|...........|...........|...........|...........|...........|...........|...........|...........|...........|...........|...........|...........|...........|...........|...........|...........|...........|...........|...........|...........|...........|...........|...........|...........|...........|...........|...........|...........|...........|...........|...........|...........|...........|...........|...........|...........
|...........|...........|...........|...........|...........|...........|...........|...........|...........|...........|...........|...........|...........|...........|...........|...........|...........|...........|...........|...........|...........|...........|...........|...........|...........|...........|...........|...........|...........|...........|...........|...........|...........|...........|...........|...........|...........|...........|...........|...........|...........|...........|...........|...........
|C-503v64SD2|...........|D-604v64SD2|F-604v64SD2|...........|...........|...........|...........|...........|...........|...........|...........|...........|...........|D-707v64SD2|F-707v64SD2|...........|...........|...........|...........|...........|...........|...........|F#312v64SD2|C-302v64SD2|...........|...........|...........|...........|D-609v64SD2|F-609v64SD2|...........|...........|...........|...........|...........|...........|...........|...........|...........|...........|...........|...........|...........
|...........|...........|...........|...........|...........|...........|...........|...........|...........|...........|...........|...........|...........|...........|...........|...........|...........|...........|...........|...........|...........|...........|...........|...........|...........|...........|...........|...........|...........|...........|...........|...........|...........|...........|...........|...........|...........|...........|...........|...........|...........|...........|...........|...........
|...........|...........|...........|...........|...........|...........|...........|...........|...........|...........|...........|...........|...........|...........|...........|...........|...........|...........|...........|...........|...........|...........|...........|...........|...........|...........|...........|...........|...........|...........|...........|...........|...........|...........|...........|...........|...........|...........|...........|...........|...........|...........|...........|...........
|...........|...........|...........|...........|...........|...........|...........|...........|...........|...........|...........|...........|...........|...........|...........|...........|...........|...........|...........|...........|...........|...........|...........|...........|...........|...........|...........|...........|...........|...........|...........|...........|...........|...........|...........|...........|...........|...........|...........|...........|...........|...........|...........|...........
|G-503v64SD2|...........|D#604v64SD2|G-604v64SD2|...........|...........|...........|...........|...........|...........|...........|...........|...........|...........|D#707v64SD2|G-707v64SD2|...........|...........|...........|...........|...........|...........|...........|A#314v64SD2|...........|...........|...........|...........|...........|D#609v64SD2|G-609v64SD2|...........|...........|...........|...........|...........|...........|...........|...........|...........|...........|...........|...........|...........
|...........|...........|...........|...........|...........|...........|...........|...........|...........|...........|...........|...........|...........|...........|...........|...........|...........|...........|...........|...........|...........|...........|...........|...........|...........|...........|...........|...........|...........|...........|...........|...........|...........|...........|...........|...........|...........|...........|...........|...........|...........|...........|...........|...........
|...........|...........|...........|...........|...........|...........|...........|...........|...........|...........|...........|...........|...........|...........|...........|...........|...........|...........|...........|...........|...........|...........|...........|...........|...........|...........|...........|...........|...........|...........|...........|...........|...........|...........|...........|...........|...........|...........|...........|...........|...........|...........|...........|...........
|...........|...........|...........|...........|...........|...........|...........|...........|...........|===.....SD4|===.....SD4|===.....SD4|...........|...........|...........|...........|...........|...........|...........|...........|...........|...........|...........|...........|...........|...........|...........|...........|...........|...........|...........|...........|...........|...........|...........|...........|...........|...........|...........|...........|===.....SD4|===.....SD4|===.....SD4|...........
|A-403v64SD2|...........|D-604v64SD2|F-604v64SD2|...........|...........|...........|...........|...........|A-306v64SD2|F-406v64SD2|F-506v64SD2|...........|...........|D-707v64SD2|F-707v64SD2|...........|...........|...........|...........|...........|===.....SD2|F-408v64SD2|F#312v64SD2|C-302v64SD2|...........|...........|...........|...........|D-609v64SD2|F-609v64SD2|...........|...........|...........|...........|...........|...........|...........|...........|...........|A-311v52SD2|F-411v52SD2|F-511v52SD2|...........
|...........|...........|...........|...........|...........|...........|...........|...........|...........|...........|...........|...........|...........|...........|...........|...........|...........|...........|...........|...........|...........|...........|...........|...........|...........|...........|...........|...........|...........|...........|...........|...........|...........|...........|...........|...........|...........|...........|...........|...........|...........|...........|...........|...........
|...........|...........|...........|...........|...........|...........|...........|...........|...........|...........|...........|...........|...........|...........|...........|...........|...........|...........|...........|...........|...........|...........|...........|...........|...........|...........|...........|...........|...........|...........|...........|...........|...........|...........|...........|...........|...........|...........|...........|...........|...........|...........|...........|...........
|...........|...........|...........|...........|...........|...........|...........|...........|...........|...........|...........|...........|...........|...........|...........|...........|...........|...........|...........|...........|...........|...........|...........|...........|...........|...........|...........|...........|...........|...........|...........|...........|...........|...........|...........|...........|...........|...........|...........|...........|...........|...........|...........|...........
|F-503v64SD2|...........|===.....SD2|===.....SD2|...........|...........|...........|...........|...........|...........|...........|...........|...........|...........|===.....SD2|===.....SD2|...........|...........|...........|...........|...........|...........|...........|D-315v42SD2|A#314v64SD2|...........|...........|...........|...........|===.....SD2|===.....SD2|...........|...........|...........|...........|...........|...........|...........|...........|...........|...........|...........|...........|...........
|...........|...........|...........|...........|...........|...........|...........|...........|...........|...........|...........|...........|...........|...........|...........|...........|...........|...........|...........|...........|...........|...........|...........|...........|...........|...........|...........|...........|...........|...........|...........|...........|...........|...........|...........|...........|...........|...........|...........|...........|...........|...........|...........|...........
|...........|...........|...........|...........|...........|...........|...........|...........|...........|...........|...........|...........|...........|...........|...........|...........|...........|...........|...........|...........|...........|...........|...........|...........|...........|...........|...........|...........|...........|...........|...........|...........|...........|...........|...........|...........|...........|...........|...........|...........|...........|...........|...........|...........
|...........|...........|...........|...........|...........|...........|...........|...........|...........|...........|...........|...........|...........|...........|...........|...........|...........|...........|...........|...........|...........|...........|...........|...........|...........|...........|...........|...........|...........|...........|...........|...........|...........|...........|...........|...........|...........|...........|...........|...........|...........|...........|...........|...........
|A-403v64SD2|...........|F-604v64SD2|A-604v64SD2|...........|...........|...........|...........|...........|...........|...........|...........|...........|...........|F-707v64SD2|A-707v64SD2|...........|...........|...........|...........|...........|...........|...........|F#312v64SD2|C-302v64SD2|...........|...........|...........|...........|F-609v64SD2|A-609v64SD2|...........|...........|...........|...........|...........|...........|...........|...........|...........|...........|...........|...........|...........
|...........|...........|...........|...........|...........|...........|...........|...........|...........|...........|...........|...........|...........|...........|...........|...........|...........|...........|...........|...........|...........|...........|...........|...........|...........|...........|...........|...........|...........|...........|...........|...........|...........|...........|...........|...........|...........|...........|...........|...........|...........|...........|...........|...........
|...........|...........|...........|...........|...........|...........|...........|...........|...........|...........|...........|...........|...........|...........|...........|...........|...........|...........|...........|...........|...........|...........|...........|D-315v42SD2|...........|...........|...........|...........|...........|...........|...........|...........|...........|...........|...........|...........|...........|...........|...........|...........|...........|...........|...........|...........
|...........|...........|...........|...........|...........|...........|...........|...........|...........|...........|...........|...........|...........|...........|...........|...........|...........|...........|...........|...........|...........|...........|...........|...........|...........|...........|...........|...........|...........|...........|...........|...........|...........|...........|...........|...........|...........|...........|...........|...........|...........|...........|...........|...........
|F-503v64SD2|...........|===.....SD2|===.....SD2|...........|...........|...........|...........|...........|...........|...........|...........|...........|...........|===.....SD2|===.....SD2|...........|...........|...........|...........|...........|...........|...........|A#314v64SD2|...........|...........|...........|...........|...........|===.....SD2|===.....SD2|...........|...........|...........|...........|...........|...........|...........|...........|...........|...........|...........|...........|...........
|...........|...........|...........|...........|...........|...........|...........|...........|...........|...........|...........|...........|...........|...........|...........|...........|...........|...........|...........|...........|...........|...........|...........|...........|...........|...........|...........|...........|...........|...........|...........|...........|...........|...........|...........|...........|...........|...........|...........|...........|...........|...........|...........|...........
|...........|...........|...........|...........|...........|...........|...........|...........|...........|...........|...........|...........|...........|...........|...........|...........|...........|...........|...........|...........|...........|...........|...........|D-315v42SD2|...........|...........|...........|...........|...........|...........|...........|...........|...........|...........|...........|...........|...........|...........|...........|...........|...........|...........|...........|...........
|...........|...........|...........|...........|...........|...........|...........|...........|...........|===.....SD4|===.....SD4|===.....SD4|...........|...........|...........|...........|...........|...........|...........|...........|...........|...........|...........|...........|...........|...........|...........|...........|...........|...........|...........|...........|...........|...........|...........|...........|...........|...........|...........|...........|===.....SD4|===.....SD4|===.....SD4|...........
|G#403v64SD2|...........|G-604v64SD2|C-704v64SD2|...........|...........|...........|...........|...........|G#306v64SD2|D#406v64SD2|G#506v64SD2|...........|...........|G-707v64SD2|C-807v64SD2|...........|...........|...........|...........|...........|G#408v64SD2|===.....SD2|D#416v64SD2|F#312v64SD2|C-302v64SD2|...........|...........|...........|G-609v64SD2|C-709v64SD2|...........|...........|...........|...........|...........|...........|...........|...........|...........|G#311v52SD2|D#411v52SD2|G#511v52SD2|...........
|...........|...........|...........|...........|...........|...........|...........|...........|...........|...........|...........|...........|...........|...........|...........|...........|...........|...........|...........|...........|...........|...........|...........|...........|...........|...........|...........|...........|...........|...........|...........|...........|...........|...........|...........|...........|...........|...........|...........|...........|...........|...........|...........|...........
|...........|...........|...........|...........|...........|...........|...........|...........|...........|...........|...........|...........|...........|...........|...........|...........|...........|...........|...........|...........|...........|...........|...........|...........|...........|...........|...........|...........|...........|...........|...........|...........|...........|...........|...........|...........|...........|...........|...........|...........|...........|...........|...........|...........
|...........|...........|...........|...........|...........|...........|...........|...........|...........|...........|...........|...........|...........|...........|...........|...........|...........|...........|...........|...........|...........|...........|...........|...........|...........|...........|...........|...........|...........|...........|...........|...........|...........|...........|...........|...........|...........|...........|...........|...........|...........|...........|...........|...........
|D#503v64SD2|...........|D#604v64SD2|G-604v64SD2|...........|...........|...........|...........|...........|...........|...........|...........|...........|...........|D#707v64SD2|G-707v64SD2|...........|...........|...........|...........|...........|...........|...........|A#314v64SD2|...........|...........|...........|...........|...........|D#609v64SD2|G-609v64SD2|...........|...........|...........|...........|...........|...........|...........|...........|...........|...........|...........|...........|...........
|...........|...........|...........|...........|...........|...........|...........|...........|...........|...........|...........|...........|...........|...........|...........|...........|...........|...........|...........|...........|...........|...........|...........|...........|...........|...........|...........|...........|...........|...........|...........|...........|...........|...........|...........|...........|...........|...........|...........|...........|...........|...........|...........|...........
|...........|...........|...........|...........|...........|...........|...........|...........|...........|...........|...........|...........|...........|...........|...........|...........|...........|...........|...........|...........|...........|...........|...........|...........|...........|...........|...........|...........|...........|...........|...........|...........|...........|...........|...........|...........|...........|...........|...........|...........|...........|...........|...........|...........
|...........|...........|...........|...........|...........|...........|...........|...........|...........|...........|...........|...........|...........|...........|...........|...........|...........|...........|...........|...........|...........|...........|...........|...........|...........|...........|...........|...........|...........|...........|...........|...........|...........|...........|...........|...........|...........|...........|...........|...........|...........|...........|...........|...........
|G#403v64SD2|...........|A#604v64SD2|D-704v64SD2|...........|...........|...........|...........|...........|...........|...........|...........|...........|...........|A#707v64SD2|D-807v64SD2|...........|...........|...........|...........|...........|...........|...........|F#312v64SD2|C-302v64SD2|...........|...........|...........|...........|A#609v64SD2|D-709v64SD2|...........|...........|...........|...........|...........|...........|...........|...........|...........|...........|...........|...........|...........
|...........|...........|...........|...........|...........|...........|...........|...........|...........|...........|...........|...........|...........|...........|...........|...........|...........|...........|...........|...........|...........|...........|...........|...........|...........|...........|...........|...........|...........|...........|...........|...........|...........|...........|...........|...........|...........|...........|...........|...........|...........|...........|...........|...........
|...........|...........|...........|...........|...........|...........|...........|...........|...........|...........|...........|...........|...........|...........|...........|...........|...........|...........|...........|...........|...........|...........|...........|...........|...........|...........|...........|...........|...........|...........|...........|...........|...........|...........|...........|...........|...........|...........|...........|...........|...........|...........|...........|...........
|...........|...........|...........|...........|...........|...........|...........|...........|...........|...........|...........|...........|...........|...........|...........|...........|...........|...........|...........|...........|...........|...........|...........|...........|...........|...........|...........|...........|...........|...........|...........|...........|...........|...........|...........|...........|...........|...........|...........|...........|...........|...........|...........|...........
|D#503v64SD2|...........|C-704v64SD2|D#704v64SD2|...........|...........|...........|...........|...........|...........|...........|...........|...........|...........|C-807v64SD2|D#807v64SD2|...........|...........|...........|...........|...........|...........|...........|A#314v64SD2|...........|...........|...........|...........|...........|C-709v64SD2|D#709v64SD2|...........|...........|...........|...........|...........|...........|...........|...........|...........|...........|...........|...........|...........
|...........|...........|...........|...........|...........|...........|...........|...........|...........|...........|...........|...........|...........|...........|...........|...........|...........|...........|...........|...........|...........|...........|...........|...........|...........|...........|...........|...........|...........|...........|...........|...........|...........|...........|...........|...........|...........|...........|...........|...........|...........|...........|...........|...........
|...........|...........|===.....SD2|===.....SD2|...........|...........|...........|...........|...........|...........|...........|...........|...........|...........|===.....SD2|===.....SD2|...........|...........|...........|...........|...........|...........|...........|...........|...........|...........|...........|...........|...........|===.....SD2|===.....SD2|...........|...........|...........|...........|...........|...........|...........|...........|...........|...........|...........|...........|...........
|...........|...........|...........|...........|...........|...........|...........|...........|...........|===.....SD4|===.....SD4|===.....SD4|...........|...........|...........|...........|...........|...........|...........|...........|...........|...........|...........|...........|...........|...........|...........|...........|...........|...........|...........|...........|...........|...........|...........|...........|...........|...........|...........|...........|===.....SD4|===.....SD4|===.....SD4|...........
|A#403v64SD2|...........|A#604v64SD2|D-704v64SD2|...........|...........|...........|...........|...........|A#306v64SD2|F-406v64SD2|A#506v64SD2|...........|...........|A#707v64SD2|D-807v64SD2|...........|...........|...........|...........|...........|===.....SD2|A#408v64SD2|F#312v64SD2|C-302v64SD2|...........|...........|...........|...........|A#609v64SD2|D-709v64SD2|...........|...........|...........|...........|...........|...........|...........|...........|...........|A#311v52SD2|F-411v52SD2|A#511v52SD2|...........
|...........|...........|...........|...........|...........|...........|...........|...........|...........|...........|...........|...........|...........|...........|...........|...........|...........|...........|...........|...........|...........|...........|...........|...........|...........|...........|...........|...........|...........|...........|...........|...........|...........|...........|...........|...........|...........|...........|...........|...........|...........|...........|...........|...........
|...........|...........|...........|...........|...........|...........|...........|...........|...........|...........|...........|...........|...........|...........|...........|...........|...........|...........|...........|...........|...........|...........|...........|...........|...........|...........|...........|...........|...........|...........|...........|...........|...........|...........|...........|...........|...........|...........|...........|...........|...........|...........|...........|...........
|...........|...........|...........|...........|...........|...........|...........|...........|...........|...........|...........|...........|...........|...........|...........|...........|...........|...........|...........|...........|...........|...........|...........|...........|...........|...........|...........|...........|...........|...........|...........|...........|...........|...........|...........|...........|...........|...........|...........|...........|...........|...........|...........|...........
|F-503v64SD2|...........|C-704v64SD2|D#704v64SD2|...........|...........|...........|...........|...........|...........|...........|...........|...........|...........|C-807v64SD2|D#807v64SD2|...........|...........|...........|...........|...........|...........|...........|A#314v64SD2|...........|...........|...........|...........|...........|C-709v64SD2|D#709v64SD2|...........|...........|...........|...........|...........|...........|...........|...........|...........|...........|...........|...........|...........
|...........|...........|...........|...........|...........|...........|...........|...........|...........|...........|...........|...........|...........|...........|...........|...........|...........|...........|...........|...........|...........|...........|...........|...........|...........|...........|...........|...........|...........|...........|...........|...........|...........|...........|...........|...........|...........|...........|...........|...........|...........|...........|...........|...........
|...........|...........|A#604v64SD2|D-704v64SD2|...........|...........|...........|...........|...........|...........|...........|...........|...........|...........|A#707v64SD2|D-807v64SD2|...........|...........|...........|...........|...........|...........|...........|...........|...........|...........|...........|...........|...........|A#609v64SD2|D-709v64SD2|...........|...........|...........|...........|...........|...........|...........|...........|...........|...........|...........|...........|...........
|...........|...........|...........|...........|...........|...........|...........|...........|...........|...........|...........|...........|...........|...........|...........|...........|...........|...........|...........|...........|...........|...........|...........|...........|...........|...........|...........|...........|...........|...........|...........|...........|...........|...........|...........|...........|...........|...........|...........|...........|...........|...........|...........|...........
|A#403v64SD2|...........|D#604v64SD2|C-704v64SD2|...........|...........|...........|...........|...........|...........|...........|...........|...........|...........|D#707v64SD2|C-807v64SD2|...........|...........|...........|...........|...........|...........|...........|F#312v64SD2|C-302v64SD2|...........|...........|...........|...........|D#609v64SD2|C-709v64SD2|...........|...........|...........|...........|...........|...........|...........|...........|...........|...........|...........|...........|...........
|...........|...........|...........|...........|...........|...........|...........|...........|...........|...........|...........|...........|...........|...........|...........|...........|...........|...........|...........|...........|...........|...........|...........|...........|...........|...........|...........|...........|...........|...........|...........|...........|...........|...........|...........|...........|...........|...........|...........|...........|...........|...........|...........|...........
|...........|...........|...........|...........|...........|...........|...........|...........|...........|...........|...........|...........|...........|...........|...........|...........|...........|...........|...........|...........|...........|...........|...........|...........|...........|...........|...........|...........|...........|...........|...........|...........|...........|...........|...........|...........|...........|...........|...........|...........|...........|...........|...........|...........
|...........|...........|...........|...........|...........|...........|...........|...........|...........|...........|...........|...........|...........|...........|...........|...........|...........|...........|...........|...........|...........|...........|...........|...........|...........|...........|...........|...........|...........|...........|...........|...........|...........|...........|...........|...........|...........|...........|...........|...........|...........|...........|...........|...........
|F-503v64SD2|...........|D#604v64SD2|A#604v64SD2|...........|...........|...........|...........|...........|...........|...........|...........|...........|...........|D#707v64SD2|A#707v64SD2|...........|...........|...........|...........|...........|...........|...........|A#314v64SD2|...........|...........|...........|...........|...........|D#609v64SD2|A#609v64SD2|...........|...........|...........|...........|...........|...........|...........|...........|...........|...........|...........|...........|...........
|...........|...........|...........|...........|...........|...........|...........|...........|...........|...........|...........|...........|...........|...........|...........|...........|...........|...........|...........|...........|...........|...........|...........|...........|...........|...........|...........|...........|...........|...........|...........|...........|...........|...........|...........|...........|...........|...........|...........|...........|...........|...........|...........|...........
|...........|...........|===.....SD2|===.....SD2|...........|...........|...........|...........|...........|...........|...........|...........|...........|...........|===.....SD2|===.....SD2|...........|...........|...........|...........|...........|...........|...........|...........|...........|...........|...........|...........|...........|===.....SD2|===.....SD2|...........|...........|...........|...........|...........|...........|...........|...........|...........|...........|...........|...........|...........
|...........|...........|...........|...........|...........|...........|...........|...........|...........|===.....SD4|===.....SD4|===.....SD4|...........|...........|...........|...........|...........|...........|...........|...........|...........|...........|...........|...........|...........|...........|...........|...........|...........|...........|...........|...........|...........|...........|...........|...........|...........|...........|...........|...........|===.....SD4|===.....SD4|===.....SD4|...........
|C-503v64SD2|...........|D#604v64SD2|G-604v64SD2|...........|...........|...........|...........|...........|C-406v64SD2|G-406v64SD2|C-606v64SD2|...........|...........|D#707v64SD2|G-707v64SD2|...........|...........|...........|...........|...........|C-508v64SD2|===.....SD2|F#312v64SD2|C-302v64SD2|...........|...........|...........|...........|D#609v64SD2|G-609v64SD2|...........|...........|...........|...........|...........|...........|...........|...........|...........|C-411v52SD2|G-411v52SD2|C-611v52SD2|...........
|...........|...........|...........|...........|...........|...........|...........|...........|...........|...........|...........|...........|...........|...........|...........|...........|...........|...........|...........|...........|...........|...........|...........|...........|...........|...........|...........|...........|...........|...........|...........|...........|...........|...........|...........|...........|...........|...........|...........|...........|...........|...........|...........|...........
|...........|...........|...........|...........|...........|...........|...........|...........|...........|...........|...........|...........|...........|...........|...........|...........|...........|...........|...........|...........|...........|...........|...........|...........|...........|...........|...........|...........|...........|...........|...........|...........|...........|...........|...........|...........|...........|...........|...........|...........|...........|...........|...........|...........
|...........|...........|...........|...........|...........|...........|...........|...........|...........|...........|...........|...........|...........|...........|...........|...........|...........|...........|...........|...........|...........|...........|...........|...........|...........|...........|...........|...........|...........|...........|...........|...........|...........|...........|...........|...........|...........|...........|...........|...........|...........|...........|...........|...........
|G-503v64SD2|...........|G-604v64SD2|A#604v64SD2|...........|...........|...........|...........|...........|...........|...........|...........|...........|...........|G-707v64SD2|A#707v64SD2|...........|...........|...........|...........|...........|...........|...........|A#314v64SD2|...........|...........|...........|...........|...........|G-609v64SD2|A#609v64SD2|...........|...........|...........|...........|...........|...........|...........|...........|...........|...........|...........|...........|...........
|...........|...........|...........|...........|...........|...........|...........|...........|...........|...........|...........|...........|...........|...........|...........|...........|...........|...........|...........|...........|...........|...........|...........|...........|...........|...........|...........|...........|...........|...........|...........|...........|...........|...........|...........|...........|...........|...........|...........|...........|...........|...........|...........|...........
|...........|...........|...........|...........|...........|...........|...........|...........|...........|...........|...........|...........|...........|...........|...........|...........|...........|...........|...........|...........|...........|...........|...........|...........|...........|...........|...........|...........|...........|...........|...........|...........|...........|...........|...........|...........|...........|...........|...........|...........|...........|...........|...........|...........
|...........|...........|===.....SD2|===.....SD2|...........|...........|...........|...........|...........|...........|...........|...........|...........|...........|===.....SD2|===.....SD2|...........|...........|...........|...........|...........|...........|...........|...........|...........|...........|...........|...........|...........|===.....SD2|===.....SD2|...........|...........|...........|...........|...........|...........|...........|...........|...........|...........|...........|...........|...........
|C-503v64SD2|...........|D-604v64SD2|F-604v64SD2|...........|...........|...........|...........|...........|...........|...........|...........|...........|...........|D-707v64SD2|F-707v64SD2|...........|...........|...........|...........|...........|...........|...........|F#312v64SD2|C-302v64SD2|...........|...........|...........|...........|D-609v64SD2|F-609v64SD2|...........|...........|...........|...........|...........|...........|...........|...........|...........|...........|...........|...........|...........
|...........|...........|...........|...........|...........|...........|...........|...........|...........|...........|...........|...........|...........|...........|...........|...........|...........|...........|...........|...........|...........|...........|...........|...........|...........|...........|...........|...........|...........|...........|...........|...........|...........|...........|...........|...........|...........|...........|...........|...........|...........|...........|...........|...........
|...........|...........|...........|...........|...........|...........|...........|...........|...........|...........|...........|...........|...........|...........|...........|...........|...........|...........|...........|...........|...........|...........|...........|...........|...........|...........|...........|...........|...........|...........|...........|...........|...........|...........|...........|...........|...........|...........|...........|...........|...........|...........|...........|...........
|...........|...........|...........|...........|...........|...........|...........|...........|...........|...........|...........|...........|...........|...........|...........|...........|...........|...........|...........|...........|...........|...........|...........|...........|...........|...........|...........|...........|...........|...........|...........|...........|...........|...........|...........|...........|...........|...........|...........|...........|...........|...........|...........|...........
|G-503v64SD2|...........|D#604v64SD2|G-604v64SD2|...........|...........|...........|...........|...........|...........|...........|...........|...........|...........|D#707v64SD2|G-707v64SD2|...........|...........|...........|...........|...........|...........|...........|A#314v64SD2|...........|...........|...........|...........|...........|D#609v64SD2|G-609v64SD2|...........|...........|...........|...........|...........|...........|...........|...........|...........|...........|...........|...........|...........
|...........|...........|...........|...........|...........|...........|...........|...........|...........|...........|...........|...........|...........|...........|...........|...........|...........|...........|...........|...........|...........|...........|...........|...........|...........|...........|...........|...........|...........|...........|...........|...........|...........|...........|...........|...........|...........|...........|...........|...........|...........|...........|...........|...........
|...........|...........|...........|...........|...........|...........|...........|...........|...........|...........|...........|...........|...........|...........|...........|...........|...........|...........|...........|...........|...........|...........|...........|...........|...........|...........|...........|...........|...........|...........|...........|...........|...........|...........|...........|...........|...........|...........|...........|...........|...........|...........|...........|...........
|...........|...........|===.....SD2|===.....SD2|...........|...........|...........|...........|...........|...........|...........|...........|...........|...........|===.....SD2|===.....SD2|...........|...........|...........|...........|...........|...........|...........|...........|...........|...........|...........|...........|...........|===.....SD2|===.....SD2|...........|...........|...........|...........|...........|...........|...........|...........|...........|...........|...........|...........|...........
|C-503v64SD2|...........|C-604v64SD2|D#604v64SD2|...........|...........|...........|...........|...........|...........|...........|...........|...........|...........|C-707v64SD2|D#707v64SD2|...........|...........|...........|...........|...........|...........|...........|F#312v64SD2|C-302v64SD2|...........|...........|...........|...........|C-609v64SD2|D#609v64SD2|...........|...........|...........|...........|...........|...........|...........|...........|...........|...........|...........|...........|...........
|...........|...........|...........|...........|...........|...........|...........|...........|...........|...........|...........|...........|...........|...........|...........|...........|...........|...........|...........|...........|...........|...........|...........|...........|...........|...........|...........|...........|...........|...........|...........|...........|...........|...........|...........|...........|...........|...........|...........|...........|...........|...........|...........|...........
|...........|...........|...........|...........|...........|...........|...........|...........|...........|...........|...........|...........|...........|...........|...........|...........|...........|...........|...........|...........|...........|...........|...........|...........|...........|...........|...........|...........|...........|...........|...........|...........|...........|...........|...........|...........|...........|...........|...........|...........|...........|...........|...........|...........
|...........|...........|...........|...........|...........|...........|...........|...........|...........|...........|...........|...........|...........|...........|...........|...........|...........|...........|...........|...........|...........|...........|...........|...........|...........|...........|...........|...........|...........|...........|...........|...........|...........|...........|...........|...........|...........|...........|...........|...........|...........|...........|...........|...........
|G-503v64SD2|...........|...........|...........|...........|...........|...........|...........|...........|...........|...........|...........|...........|...........|...........|...........|...........|...........|...........|...........|...........|...........|...........|D-315v42SD2|A#314v64SD2|...........|...........|...........|...........|...........|...........|...........|...........|...........|...........|...........|...........|...........|...........|...........|...........|...........|...........|...........
|...........|...........|...........|...........|...........|...........|...........|...........|...........|...........|...........|...........|...........|...........|...........|...........|...........|...........|...........|...........|...........|...........|...........|...........|...........|...........|...........|...........|...........|...........|...........|...........|...........|...........|...........|...........|...........|...........|...........|...........|...........|...........|...........|...........
|...........|...........|...........|...........|...........|...........|...........|...........|...........|...........|...........|...........|...........|...........|...........|...........|...........|...........|...........|...........|...........|...........|...........|...........|...........|...........|...........|...........|...........|...........|...........|...........|...........|...........|...........|...........|...........|...........|...........|...........|...........|...........|...........|...........
|...........|...........|...........|...........|...........|...........|...........|...........|...........|...........|...........|...........|...........|...........|...........|...........|...........|...........|...........|...........|...........|...........|...........|...........|...........|...........|...........|...........|...........|...........|...........|...........|...........|...........|...........|...........|...........|...........|...........|...........|...........|...........|...........|...........
|C-503v64SD2|...........|...........|...........|...........|...........|...........|...........|...........|...........|...........|...........|...........|...........|...........|...........|...........|...........|...........|...........|...........|...........|...........|F#312v64SD2|C-302v64SD2|...........|...........|...........|...........|...........|...........|...........|...........|...........|...........|...........|...........|...........|...........|...........|...........|...........|...........|...........
|...........|...........|...........|...........|...........|...........|...........|...........|...........|...........|...........|...........|...........|...........|...........|...........|...........|...........|...........|...........|...........|...........|...........|...........|...........|...........|...........|...........|...........|...........|...........|...........|...........|...........|...........|...........|...........|...........|...........|...........|...........|...........|...........|...........
|...........|...........|...........|...........|...........|...........|...........|...........|...........|...........|...........|...........|...........|...........|...........|...........|...........|...........|...........|...........|...........|...........|...........|D-315v42SD2|...........|...........|...........|...........|...........|...........|...........|...........|...........|...........|...........|...........|...........|...........|...........|...........|...........|...........|...........|...........
|...........|...........|...........|...........|...........|...........|...........|...........|...........|...........|...........|...........|...........|...........|...........|...........|...........|...........|...........|...........|...........|...........|...........|...........|...........|...........|...........|...........|...........|...........|...........|...........|...........|...........|...........|...........|...........|...........|...........|...........|...........|...........|...........|...........
|G-503v64SD2|...........|...........|...........|...........|...........|...........|...........|...........|...........|...........|...........|...........|...........|...........|...........|...........|...........|...........|...........|...........|...........|...........|A#314v64SD2|...........|...........|...........|...........|...........|...........|...........|...........|...........|...........|...........|...........|...........|...........|...........|...........|...........|...........|...........|...........
|...........|...........|...........|...........|...........|...........|...........|...........|...........|...........|...........|...........|...........|...........|...........|...........|...........|...........|...........|...........|...........|...........|...........|...........|...........|...........|...........|...........|...........|...........|...........|...........|...........|...........|...........|...........|...........|...........|...........|...........|...........|...........|...........|...........
|...........|...........|...........|...........|...........|...........|...........|...........|...........|...........|...........|...........|...........|...........|...........|...........|...........|...........|...........|...........|...........|...........|...........|D-315v42SD2|...........|...........|...........|...........|...........|...........|...........|...........|...........|...........|...........|...........|...........|...........|...........|...........|...........|...........|...........|...........
|...........|...........|===.....SD4|===.....SD4|...........|...........|...........|...........|...........|...........|...........|...........|...........|...........|===.....SD4|===.....SD4|...........|...........|...........|...........|...........|...........|...........|...........|...........|...........|...........|...........|...........|===.....SD4|===.....SD4|...........|...........|...........|...........|...........|...........|...........|...........|...........|...........|...........|...........|...........
|G#403v64SD2|...........|G-504v64SD2|C-604v64SD2|...........|...........|...........|...........|...........|G#306v64SD2|D#406v64SD2|C-506v64SD2|...........|...........|G-607v64SD2|C-707v64SD2|...........|...........|...........|...........|...........|C-408v64SD2|...........|D#416v64SD2|F#312v64SD2|C-302v64SD2|...........|...........|...........|G-509v64SD2|C-609v64SD2|...........|...........|...........|...........|...........|...........|...........|...........|...........|G#311v52SD2|D#411v52SD2|C-511v52SD2|...........

ModPlug Tracker MPT
|...........|...........|...........|...........|...........|...........|...........|...........|...........|...........|...........|...........|...........|...........|...........|...........|...........|...........|...........|...........|...........|...........|...........|...........|...........|...........|...........|...........|...........|...........|...........|...........|...........|...........|...........|...........|...........|...........|...........|...........|...........|...........|...........|...........
|...........|...........|...........|...........|...........|...........|...........|...........|...........|...........|...........|...........|...........|...........|...........|...........|...........|...........|...........|...........|...........|...........|...........|...........|...........|...........|...........|...........|...........|...........|...........|...........|...........|...........|...........|...........|...........|...........|...........|...........|...........|...........|...........|...........
|...........|...........|...........|...........|...........|...........|...........|...........|...........|...........|...........|...........|...........|...........|...........|...........|...........|...........|...........|...........|...........|...........|...........|...........|...........|...........|...........|...........|...........|...........|...........|...........|...........|...........|...........|...........|...........|...........|...........|...........|...........|...........|...........|...........
|D#503v64SD2|...........|===.....SD2|===.....SD2|...........|...........|...........|...........|...........|...........|...........|...........|...........|...........|===.....SD2|===.....SD2|...........|...........|...........|...........|...........|...........|...........|A#314v64SD2|...........|...........|...........|...........|...........|===.....SD2|===.....SD2|...........|...........|...........|...........|...........|...........|...........|...........|...........|...........|...........|...........|...........
|...........|...........|...........|...........|...........|...........|...........|...........|...........|...........|...........|...........|...........|...........|...........|...........|...........|...........|...........|...........|...........|...........|...........|...........|...........|...........|...........|...........|...........|...........|...........|...........|...........|...........|...........|...........|...........|...........|...........|...........|...........|...........|...........|...........
|...........|...........|...........|...........|...........|...........|...........|...........|...........|...........|...........|...........|...........|...........|...........|...........|...........|...........|...........|...........|...........|...........|...........|...........|...........|...........|...........|...........|...........|...........|...........|...........|...........|...........|...........|...........|...........|...........|...........|...........|...........|...........|...........|...........
|...........|...........|...........|...........|...........|...........|...........|...........|...........|...........|...........|...........|...........|...........|...........|...........|...........|...........|...........|...........|...........|...........|...........|...........|...........|...........|...........|...........|...........|...........|...........|...........|...........|...........|...........|...........|...........|...........|...........|...........|...........|...........|...........|...........
|G#403v64SD2|...........|D#604v64SD2|G-604v64SD2|...........|...........|...........|...........|...........|...........|...........|...........|...........|...........|D#707v64SD2|G-707v64SD2|...........|...........|...........|...........|...........|...........|...........|F#312v64SD2|C-302v64SD2|...........|...........|...........|...........|D#609v64SD2|G-609v64SD2|...........|...........|...........|...........|...........|...........|...........|...........|...........|...........|...........|...........|...........
|...........|...........|...........|...........|...........|...........|...........|...........|...........|...........|...........|...........|...........|...........|...........|...........|...........|...........|...........|...........|...........|...........|...........|...........|...........|...........|...........|...........|...........|...........|...........|...........|...........|...........|...........|...........|...........|...........|...........|...........|...........|...........|...........|...........
|...........|...........|...........|...........|...........|...........|...........|...........|...........|...........|...........|...........|...........|...........|...........|...........|...........|...........|...........|...........|...........|...........|...........|...........|...........|...........|...........|...........|...........|...........|...........|...........|...........|...........|...........|...........|...........|...........|...........|...........|...........|...........|...........|...........
|...........|...........|...........|...........|...........|...........|...........|...........|...........|...........|...........|...........|...........|...........|...........|...........|...........|...........|...........|...........|...........|...........|...........|...........|...........|...........|...........|...........|...........|...........|...........|...........|...........|...........|...........|...........|...........|...........|...........|...........|...........|...........|...........|...........
|D#503v64SD2|...........|===.....SD2|===.....SD2|...........|...........|...........|...........|...........|...........|...........|...........|...........|...........|===.....SD2|===.....SD2|...........|...........|...........|...........|...........|...........|...........|A#314v64SD2|...........|...........|...........|...........|...........|===.....SD2|===.....SD2|...........|...........|...........|...........|...........|...........|...........|...........|...........|...........|...........|...........|...........
|...........|...........|...........|...........|...........|...........|...........|...........|...........|...........|...........|...........|...........|...........|...........|...........|...........|...........|...........|...........|...........|...........|...........|...........|...........|...........|...........|...........|...........|...........|...........|...........|...........|...........|...........|...........|...........|...........|...........|...........|...........|...........|...........|...........
|...........|...........|...........|...........|...........|...........|...........|...........|...........|...........|...........|...........|...........|...........|...........|...........|...........|...........|...........|...........|...........|...........|...........|...........|...........|...........|...........|...........|...........|...........|...........|...........|...........|...........|...........|...........|...........|...........|...........|...........|...........|...........|...........|...........
|...........|...........|...........|...........|...........|...........|...........|...........|...........|===.....SD4|===.....SD4|===.....SD4|...........|...........|...........|...........|...........|...........|...........|...........|...........|...........|...........|...........|...........|...........|...........|...........|...........|...........|...........|...........|...........|...........|...........|...........|...........|...........|...........|...........|===.....SD4|===.....SD4|===.....SD4|...........
|A#403v64SD2|...........|G-504v64SD2|D-604v64SD2|...........|...........|...........|...........|...........|A#306v64SD2|F-406v64SD2|D-506v64SD2|...........|...........|G-607v64SD2|D-707v64SD2|...........|...........|...........|...........|...........|===.....SD2|D-408v64SD2|F#312v64SD2|C-302v64SD2|...........|...........|...........|...........|G-509v64SD2|D-609v64SD2|...........|...........|...........|...........|...........|...........|...........|...........|...........|A#311v52SD2|F-411v52SD2|D-511v52SD2|...........
|...........|...........|...........|...........|...........|...........|...........|...........|...........|...........|...........|...........|...........|...........|...........|...........|...........|...........|...........|...........|...........|...........|...........|...........|...........|...........|...........|...........|...........|...........|...........|...........|...........|...........|...........|...........|...........|...........|...........|...........|...........|...........|...........|...........
|...........|...........|...........|...........|...........|...........|...........|...........|...........|...........|...........|...........|...........|...........|...........|...........|...........|...........|...........|...........|...........|...........|...........|...........|...........|...........|...........|...........|...........|...........|...........|...........|...........|...........|...........|...........|...........|...........|...........|...........|...........|...........|...........|...........
|...........|...........|...........|...........|...........|...........|...........|...........|...........|...........|...........|...........|...........|...........|...........|...........|...........|...........|...........|...........|...........|...........|...........|...........|...........|...........|...........|...........|...........|...........|...........|...........|...........|...........|...........|...........|...........|...........|...........|...........|...........|...........|...........|...........
|F-503v64SD2|...........|===.....SD2|===.....SD2|...........|...........|...........|...........|...........|...........|...........|...........|...........|...........|===.....SD2|===.....SD2|...........|...........|...........|...........|...........|...........|...........|A#314v64SD2|...........|...........|...........|...........|...........|===.....SD2|===.....SD2|...........|...........|...........|...........|...........|...........|...........|...........|...........|...........|...........|...........|...........
|...........|...........|...........|...........|...........|...........|...........|...........|...........|...........|...........|...........|...........|...........|...........|...........|...........|...........|...........|...........|...........|...........|...........|...........|...........|...........|...........|...........|...........|...........|...........|...........|...........|...........|...........|...........|...........|...........|...........|...........|...........|...........|...........|...........
|...........|...........|...........|...........|...........|...........|...........|...........|...........|...........|...........|...........|...........|...........|...........|...........|...........|...........|...........|...........|...........|...........|...........|...........|...........|...........|...........|...........|...........|...........|...........|...........|...........|...........|...........|...........|...........|...........|...........|...........|...........|...........|...........|...........
|...........|...........|...........|...........|...........|...........|...........|...........|...........|...........|...........|...........|...........|...........|...........|...........|...........|...........|...........|...........|...........|...........|...........|...........|...........|...........|...........|...........|...........|...........|...........|...........|...........|...........|...........|...........|...........|...........|...........|...........|...........|...........|...........|...........
|A#403v64SD2|...........|D#604v64SD2|G-604v64SD2|...........|...........|...........|...........|...........|...........|...........|...........|...........|...........|D#707v64SD2|G-707v64SD2|...........|...........|...........|...........|...........|...........|...........|F#312v64SD2|C-302v64SD2|...........|...........|...........|...........|D#609v64SD2|G-609v64SD2|...........|...........|...........|...........|...........|...........|...........|...........|...........|...........|...........|...........|...........
|...........|...........|...........|...........|...........|...........|...........|...........|...........|...........|...........|...........|...........|...........|...........|...........|...........|...........|...........|...........|...........|...........|...........|...........|...........|...........|...........|...........|...........|...........|...........|...........|...........|...........|...........|...........|...........|...........|...........|...........|...........|...........|...........|...........
|...........|...........|...........|...........|...........|...........|...........|...........|...........|...........|...........|...........|...........|...........|...........|...........|...........|...........|...........|...........|...........|...........|...........|...........|...........|...........|...........|...........|...........|...........|...........|...........|...........|...........|...........|...........|...........|...........|...........|...........|...........|...........|...........|...........
|...........|...........|...........|...........|...........|...........|...........|...........|...........|...........|...........|...........|...........|...........|...........|...........|...........|...........|...........|...........|...........|...........|...........|...........|...........|...........|...........|...........|...........|...........|...........|...........|...........|...........|...........|...........|...........|...........|...........|...........|...........|...........|...........|...........
|F-503v64SD2|...........|===.....SD2|===.....SD2|...........|...........|...........|...........|...........|...........|...........|...........|...........|...........|===.....SD2|===.....SD2|...........|...........|...........|...........|...........|...........|...........|A#314v64SD2|...........|...........|...........|...........|...........|===.....SD2|===.....SD2|...........|...........|...........|...........|...........|...........|...........|...........|...........|...........|...........|...........|...........
|...........|...........|...........|...........|...........|...........|...........|...........|...........|...........|...........|...........|...........|...........|...........|...........|...........|...........|...........|...........|...........|...........|...........|...........|...........|...........|...........|...........|...........|...........|...........|...........|...........|...........|...........|...........|...........|...........|...........|...........|...........|...........|...........|...........
|...........|...........|...........|...........|...........|...........|...........|...........|...........|...........|...........|...........|...........|...........|...........|...........|...........|...........|...........|...........|...........|...........|...........|...........|...........|...........|...........|...........|...........|...........|...........|...........|...........|...........|...........|...........|...........|...........|...........|...........|...........|...........|...........|...........
|...........|...........|...........|...........|...........|...........|...........|...........|...........|===.....SD4|===.....SD4|===.....SD4|...........|...........|...........|...........|...........|...........|...........|...........|...........|...........|...........|...........|...........|...........|...........|...........|...........|...........|...........|...........|...........|...........|...........|...........|...........|...........|...........|...........|===.....SD4|===.....SD4|===.....SD4|...........
|C-503v64SD2|...........|C-604v64SD2|D#604v64SD2|...........|...........|...........|...........|...........|C-406v64SD2|G-406v64SD2|D#506v64SD2|...........|...........|C-707v64SD2|D#707v64SD2|...........|...........|...........|...........|...........|D#408v64SD2|===.....SD2|F#312v64SD2|C-302v64SD2|...........|...........|...........|...........|C-609v64SD2|D#609v64SD2|...........|...........|...........|...........|...........|...........|...........|...........|...........|C-411v52SD2|G-411v52SD2|D#511v52SD2|...........
|...........|...........|...........|...........|...........|...........|...........|...........|...........|...........|...........|...........|...........|...........|...........|...........|...........|...........|...........|...........|...........|...........|...........|...........|...........|...........|...........|...........|...........|...........|...........|...........|...........|...........|...........|...........|...........|...........|...........|...........|...........|...........|...........|...........
|...........|...........|...........|...........|...........|...........|...........|...........|...........|...........|...........|...........|...........|...........|...........|...........|...........|...........|...........|...........|...........|...........|...........|...........|...........|...........|...........|...........|...........|...........|...........|...........|...........|...........|...........|...........|...........|...........|...........|...........|...........|...........|...........|...........
|...........|...........|...........|...........|...........|...........|...........|...........|...........|...........|...........|...........|...........|...........|...........|...........|...........|...........|...........|...........|...........|...........|...........|...........|...........|...........|...........|...........|...........|...........|...........|...........|...........|...........|...........|...........|...........|...........|...........|...........|...........|...........|...........|...........
|G-503v64SD2|...........|===.....SD2|===.....SD2|...........|...........|...........|...........|...........|...........|...........|...........|...........|...........|===.....SD2|===.....SD2|...........|...........|...........|...........|...........|...........|...........|A#314v64SD2|...........|...........|...........|...........|...........|===.....SD2|===.....SD2|...........|...........|...........|...........|...........|...........|...........|...........|...........|...........|...........|...........|...........
|...........|...........|...........|...........|...........|...........|...........|...........|...........|...........|...........|...........|...........|...........|...........|...........|...........|...........|...........|...........|...........|...........|...........|...........|...........|...........|...........|...........|...........|...........|...........|...........|...........|...........|...........|...........|...........|...........|...........|...........|...........|...........|...........|...........
|...........|...........|...........|...........|...........|...........|...........|...........|...........|...........|...........|...........|...........|...........|...........|...........|...........|...........|...........|...........|...........|...........|...........|...........|...........|...........|...........|...........|...........|...........|...........|...........|...........|...........|...........|...........|...........|...........|...........|...........|...........|...........|...........|...........
|...........|...........|...........|...........|...........|...........|...........|...........|...........|...........|...........|...........|...........|...........|...........|...........|...........|...........|...........|...........|...........|...........|...........|...........|...........|...........|...........|...........|...........|...........|...........|...........|...........|...........|...........|...........|...........|...........|...........|...........|...........|...........|...........|...........
|C-503v64SD2|...........|D-604v64SD2|F-604v64SD2|...........|...........|...........|...........|...........|...........|...........|...........|...........|...........|D-707v64SD2|F-707v64SD2|...........|...........|...........|...........|...........|...........|...........|F#312v64SD2|C-302v64SD2|...........|...........|...........|...........|D-609v64SD2|F-609v64SD2|...........|...........|...........|...........|...........|...........|...........|...........|...........|...........|...........|...........|...........
|...........|...........|...........|...........|...........|...........|...........|...........|...........|...........|...........|...........|...........|...........|...........|...........|...........|...........|...........|...........|...........|...........|...........|...........|...........|...........|...........|...........|...........|...........|...........|...........|...........|...........|...........|...........|...........|...........|...........|...........|...........|...........|...........|...........
|...........|...........|...........|...........|...........|...........|...........|...........|...........|...........|...........|...........|...........|...........|...........|...........|...........|...........|...........|...........|...........|...........|...........|...........|...........|...........|...........|...........|...........|...........|...........|...........|...........|...........|...........|...........|...........|...........|...........|...........|...........|...........|...........|...........
|...........|...........|...........|...........|...........|...........|...........|...........|...........|...........|...........|...........|...........|...........|...........|...........|...........|...........|...........|...........|...........|...........|...........|...........|...........|...........|...........|...........|...........|...........|...........|...........|...........|...........|...........|...........|...........|...........|...........|...........|...........|...........|...........|...........
|G-503v64SD2|...........|D#604v64SD2|G-604v64SD2|...........|...........|...........|...........|...........|...........|...........|...........|...........|...........|D#707v64SD2|G-707v64SD2|...........|...........|...........|...........|...........|...........|...........|A#314v64SD2|...........|...........|...........|...........|...........|D#609v64SD2|G-609v64SD2|...........|...........|...........|...........|...........|...........|...........|...........|...........|...........|...........|...........|...........
|...........|...........|...........|...........|...........|...........|...........|...........|...........|...........|...........|...........|...........|...........|...........|...........|...........|...........|...........|...........|...........|...........|...........|...........|...........|...........|...........|...........|...........|...........|...........|...........|...........|...........|...........|...........|...........|...........|...........|...........|...........|...........|...........|...........
|...........|...........|...........|...........|...........|...........|...........|...........|...........|...........|...........|...........|...........|...........|...........|...........|...........|...........|...........|...........|...........|...........|...........|...........|...........|...........|...........|...........|...........|...........|...........|...........|...........|...........|...........|...........|...........|...........|...........|...........|...........|...........|...........|...........
|...........|...........|...........|...........|...........|...........|...........|...........|...........|===.....SD4|===.....SD4|===.....SD4|...........|...........|...........|...........|...........|...........|...........|...........|...........|...........|...........|...........|...........|...........|...........|...........|...........|...........|...........|...........|...........|...........|...........|...........|...........|...........|...........|...........|===.....SD4|===.....SD4|===.....SD4|...........
|A-403v64SD2|...........|D-604v64SD2|F-604v64SD2|...........|...........|...........|...........|...........|A-306v64SD2|F-406v64SD2|F-506v64SD2|...........|...........|D-707v64SD2|F-707v64SD2|...........|...........|...........|...........|...........|===.....SD2|F-408v64SD2|F#312v64SD2|C-302v64SD2|...........|...........|...........|...........|D-609v64SD2|F-609v64SD2|...........|...........|...........|...........|...........|...........|...........|...........|...........|A-311v52SD2|F-411v52SD2|F-511v52SD2|...........
|...........|...........|...........|...........|...........|...........|...........|...........|...........|...........|...........|...........|...........|...........|...........|...........|...........|...........|...........|...........|...........|...........|...........|...........|...........|...........|...........|...........|...........|...........|...........|...........|...........|...........|...........|...........|...........|...........|...........|...........|...........|...........|...........|...........
|...........|...........|...........|...........|...........|...........|...........|...........|...........|...........|...........|...........|...........|...........|...........|...........|...........|...........|...........|...........|...........|...........|...........|...........|...........|...........|...........|...........|...........|...........|...........|...........|...........|...........|...........|...........|...........|...........|...........|...........|...........|...........|...........|...........
|...........|...........|...........|...........|...........|...........|...........|...........|...........|...........|...........|...........|...........|...........|...........|...........|...........|...........|...........|...........|...........|...........|...........|...........|...........|...........|...........|...........|...........|...........|...........|...........|...........|...........|...........|...........|...........|...........|...........|...........|...........|...........|...........|...........
|F-503v64SD2|...........|===.....SD2|===.....SD2|...........|...........|...........|...........|...........|...........|...........|...........|...........|...........|===.....SD2|===.....SD2|...........|...........|...........|...........|...........|...........|...........|D-315v42SD2|A#314v64SD2|...........|...........|...........|...........|===.....SD2|===.....SD2|...........|...........|...........|...........|...........|...........|...........|...........|...........|...........|...........|...........|...........
|...........|...........|...........|...........|...........|...........|...........|...........|...........|...........|...........|...........|...........|...........|...........|...........|...........|...........|...........|...........|...........|...........|...........|...........|...........|...........|...........|...........|...........|...........|...........|...........|...........|...........|...........|...........|...........|...........|...........|...........|...........|...........|...........|...........
|...........|...........|...........|...........|...........|...........|...........|...........|...........|...........|...........|...........|...........|...........|...........|...........|...........|...........|...........|...........|...........|...........|...........|...........|...........|...........|...........|...........|...........|...........|...........|...........|...........|...........|...........|...........|...........|...........|...........|...........|...........|...........|...........|...........
|...........|...........|...........|...........|...........|...........|...........|...........|...........|...........|...........|...........|...........|...........|...........|...........|...........|...........|...........|...........|...........|...........|...........|...........|...........|...........|...........|...........|...........|...........|...........|...........|...........|...........|...........|...........|...........|...........|...........|...........|...........|...........|...........|...........
|A-403v64SD2|...........|F-604v64SD2|A-604v64SD2|...........|...........|...........|...........|...........|...........|...........|...........|...........|...........|F-707v64SD2|A-707v64SD2|...........|...........|...........|...........|...........|...........|...........|F#312v64SD2|C-302v64SD2|...........|...........|...........|...........|F-609v64SD2|A-609v64SD2|...........|...........|...........|...........|...........|...........|...........|...........|...........|...........|...........|...........|...........
|...........|...........|...........|...........|...........|...........|...........|...........|...........|...........|...........|...........|...........|...........|...........|...........|...........|...........|...........|...........|...........|...........|...........|...........|...........|...........|...........|...........|...........|...........|...........|...........|...........|...........|...........|...........|...........|...........|...........|...........|...........|...........|...........|...........
|...........|...........|...........|...........|...........|...........|...........|...........|...........|...........|...........|...........|...........|...........|...........|...........|...........|...........|...........|...........|...........|...........|...........|D-315v42SD2|...........|...........|...........|...........|...........|...........|...........|...........|...........|...........|...........|...........|...........|...........|...........|...........|...........|...........|...........|...........
|...........|...........|...........|...........|...........|...........|...........|...........|...........|...........|...........|...........|...........|...........|...........|...........|...........|...........|...........|...........|...........|...........|...........|...........|...........|...........|...........|...........|...........|...........|...........|...........|...........|...........|...........|...........|...........|...........|...........|...........|...........|...........|...........|...........
|F-503v64SD2|...........|===.....SD2|===.....SD2|...........|...........|...........|...........|...........|...........|...........|...........|...........|...........|===.....SD2|===.....SD2|...........|...........|...........|...........|...........|...........|...........|A#314v64SD2|...........|...........|...........|...........|...........|===.....SD2|===.....SD2|...........|...........|...........|...........|...........|...........|...........|...........|...........|...........|...........|...........|...........
|...........|...........|...........|...........|...........|...........|...........|...........|...........|...........|...........|...........|...........|...........|...........|...........|...........|...........|...........|...........|...........|...........|...........|...........|...........|...........|...........|...........|...........|...........|...........|...........|...........|...........|...........|...........|...........|...........|...........|...........|...........|...........|...........|...........
|...........|...........|...........|...........|...........|...........|...........|...........|...........|...........|...........|...........|...........|...........|...........|...........|...........|...........|...........|...........|...........|...........|...........|D-315v42SD2|...........|...........|...........|...........|...........|...........|...........|...........|...........|...........|...........|...........|...........|...........|...........|...........|...........|...........|...........|...........
|...........|...........|...........|...........|...........|...........|...........|...........|...........|===.....SD4|===.....SD4|===.....SD4|...........|...........|...........|...........|...........|...........|...........|...........|...........|...........|...........|...........|...........|...........|...........|...........|...........|...........|...........|...........|...........|...........|...........|...........|...........|...........|...........|...........|===.....SD4|===.....SD4|===.....SD4|...........
|G#403v64SD2|...........|G-604v64SD2|C-704v64SD2|...........|...........|...........|...........|...........|G#306v64SD2|D#406v64SD2|G#506v64SD2|...........|...........|G-707v64SD2|C-807v64SD2|...........|...........|...........|...........|...........|G#408v64SD2|===.....SD2|D#416v64SD2|F#312v64SD2|C-302v64SD2|...........|...........|...........|G-609v64SD2|C-709v64SD2|...........|...........|...........|...........|...........|...........|...........|...........|...........|G#311v52SD2|D#411v52SD2|G#511v52SD2|...........
|...........|...........|...........|...........|...........|...........|...........|...........|...........|...........|...........|...........|...........|...........|...........|...........|...........|...........|...........|...........|...........|...........|...........|...........|...........|...........|...........|...........|...........|...........|...........|...........|...........|...........|...........|...........|...........|...........|...........|...........|...........|...........|...........|...........
|...........|...........|...........|...........|...........|...........|...........|...........|...........|...........|...........|...........|...........|...........|...........|...........|...........|...........|...........|...........|...........|...........|...........|...........|...........|...........|...........|...........|...........|...........|...........|...........|...........|...........|...........|...........|...........|...........|...........|...........|...........|...........|...........|...........
|...........|...........|...........|...........|...........|...........|...........|...........|...........|...........|...........|...........|...........|...........|...........|...........|...........|...........|...........|...........|...........|...........|...........|...........|...........|...........|...........|...........|...........|...........|...........|...........|...........|...........|...........|...........|...........|...........|...........|...........|...........|...........|...........|...........
|D#503v64SD2|...........|D#604v64SD2|G-604v64SD2|...........|...........|...........|...........|...........|...........|...........|...........|...........|...........|D#707v64SD2|G-707v64SD2|...........|...........|...........|...........|...........|...........|...........|A#314v64SD2|...........|...........|...........|...........|...........|D#609v64SD2|G-609v64SD2|...........|...........|...........|...........|...........|...........|...........|...........|...........|...........|...........|...........|...........
|...........|...........|...........|...........|...........|...........|...........|...........|...........|...........|...........|...........|...........|...........|...........|...........|...........|...........|...........|...........|...........|...........|...........|...........|...........|...........|...........|...........|...........|...........|...........|...........|...........|...........|...........|...........|...........|...........|...........|...........|...........|...........|...........|...........
|...........|...........|...........|...........|...........|...........|...........|...........|...........|...........|...........|...........|...........|...........|...........|...........|...........|...........|...........|...........|...........|...........|...........|...........|...........|...........|...........|...........|...........|...........|...........|...........|...........|...........|...........|...........|...........|...........|...........|...........|...........|...........|...........|...........
|...........|...........|...........|...........|...........|...........|...........|...........|...........|...........|...........|...........|...........|...........|...........|...........|...........|...........|...........|...........|...........|...........|...........|...........|...........|...........|...........|...........|...........|...........|...........|...........|...........|...........|...........|...........|...........|...........|...........|...........|...........|...........|...........|...........
|G#403v64SD2|...........|A#604v64SD2|D-704v64SD2|...........|...........|...........|...........|...........|...........|...........|...........|...........|...........|A#707v64SD2|D-807v64SD2|...........|...........|...........|...........|...........|...........|...........|F#312v64SD2|C-302v64SD2|...........|...........|...........|...........|A#609v64SD2|D-709v64SD2|...........|...........|...........|...........|...........|...........|...........|...........|...........|...........|...........|...........|...........
|...........|...........|...........|...........|...........|...........|...........|...........|...........|...........|...........|...........|...........|...........|...........|...........|...........|...........|...........|...........|...........|...........|...........|...........|...........|...........|...........|...........|...........|...........|...........|...........|...........|...........|...........|...........|...........|...........|...........|...........|...........|...........|...........|...........
|...........|...........|...........|...........|...........|...........|...........|...........|...........|...........|...........|...........|...........|...........|...........|...........|...........|...........|...........|...........|...........|...........|...........|...........|...........|...........|...........|...........|...........|...........|...........|...........|...........|...........|...........|...........|...........|...........|...........|...........|...........|...........|...........|...........
|...........|...........|...........|...........|...........|...........|...........|...........|...........|...........|...........|...........|...........|...........|...........|...........|...........|...........|...........|...........|...........|...........|...........|...........|...........|...........|...........|...........|...........|...........|...........|...........|...........|...........|...........|...........|...........|...........|...........|...........|...........|...........|...........|...........
|D#503v64SD2|...........|C-704v64SD2|D#704v64SD2|...........|...........|...........|...........|...........|...........|...........|...........|...........|...........|C-807v64SD2|D#807v64SD2|...........|...........|...........|...........|...........|...........|...........|A#314v64SD2|...........|...........|...........|...........|...........|C-709v64SD2|D#709v64SD2|...........|...........|...........|...........|...........|...........|...........|...........|...........|...........|...........|...........|...........
|...........|...........|...........|...........|...........|...........|...........|...........|...........|...........|...........|...........|...........|...........|...........|...........|...........|...........|...........|...........|...........|...........|...........|...........|...........|...........|...........|...........|...........|...........|...........|...........|...........|...........|...........|...........|...........|...........|...........|...........|...........|...........|...........|...........
|...........|...........|===.....SD2|===.....SD2|...........|...........|...........|...........|...........|...........|...........|...........|...........|...........|===.....SD2|===.....SD2|...........|...........|...........|...........|...........|...........|...........|...........|...........|...........|...........|...........|...........|===.....SD2|===.....SD2|...........|...........|...........|...........|...........|...........|...........|...........|...........|...........|...........|...........|...........
|...........|...........|...........|...........|...........|...........|...........|...........|...........|===.....SD4|===.....SD4|===.....SD4|...........|...........|...........|...........|...........|...........|...........|...........|...........|...........|...........|...........|...........|...........|...........|...........|...........|...........|...........|...........|...........|...........|...........|...........|...........|...........|...........|...........|===.....SD4|===.....SD4|===.....SD4|...........
|A#403v64SD2|...........|A#604v64SD2|D-704v64SD2|...........|...........|...........|...........|...........|A#306v64SD2|F-406v64SD2|A#506v64SD2|...........|...........|A#707v64SD2|D-807v64SD2|...........|...........|...........|...........|...........|===.....SD2|A#408v64SD2|E-313v01SD2|F#312v64SD2|C-302v64SD2|...........|...........|...........|A#609v64SD2|D-709v64SD2|...........|...........|...........|...........|...........|...........|...........|...........|...........|A#311v52SD2|F-411v52SD2|A#511v52SD2|...........
|...........|...........|...........|...........|...........|...........|...........|...........|...........|...........|...........|...........|...........|...........|...........|...........|...........|...........|...........|...........|...........|...........|...........|E-313v01SD2|...........|...........|...........|...........|...........|...........|...........|...........|...........|...........|...........|...........|...........|...........|...........|...........|...........|...........|...........|...........
|...........|...........|...........|...........|...........|...........|...........|...........|...........|...........|...........|...........|...........|...........|...........|...........|...........|...........|...........|...........|...........|...........|...........|E-313v01SD2|...........|...........|...........|...........|...........|...........|...........|...........|...........|...........|...........|...........|...........|...........|...........|...........|...........|...........|...........|...........
|...........|...........|...........|...........|...........|...........|...........|...........|...........|...........|...........|...........|...........|...........|...........|...........|...........|...........|...........|...........|...........|...........|...........|E-313v01SD2|...........|...........|...........|...........|...........|...........|...........|...........|...........|...........|...........|...........|...........|...........|...........|...........|...........|...........|...........|...........
|F-503v64SD2|...........|C-704v64SD2|D#704v64SD2|...........|...........|...........|...........|...........|...........|...........|...........|...........|...........|C-807v64SD2|D#807v64SD2|...........|...........|...........|...........|...........|...........|...........|E-313v03SD2|A#314v64SD2|...........|...........|...........|...........|C-709v64SD2|D#709v64SD2|...........|...........|...........|...........|...........|...........|...........|...........|...........|...........|...........|...........|...........
|...........|...........|...........|...........|...........|...........|...........|...........|...........|...........|...........|...........|...........|...........|...........|...........|...........|...........|...........|...........|...........|...........|...........|E-313v03SD2|...........|...........|...........|...........|...........|...........|...........|...........|...........|...........|...........|...........|...........|...........|...........|...........|...........|...........|...........|...........
|...........|...........|A#604v64SD2|D-704v64SD2|...........|...........|...........|...........|...........|...........|...........|...........|...........|...........|A#707v64SD2|D-807v64SD2|...........|...........|...........|...........|...........|...........|...........|E-313v03SD2|...........|...........|...........|...........|...........|A#609v64SD2|D-709v64SD2|...........|...........|...........|...........|...........|...........|...........|...........|...........|...........|...........|...........|...........
|...........|...........|...........|...........|...........|...........|...........|...........|...........|...........|...........|...........|...........|...........|...........|...........|...........|...........|...........|...........|...........|...........|...........|E-313v03SD2|...........|...........|...........|...........|...........|...........|...........|...........|...........|...........|...........|...........|...........|...........|...........|...........|...........|...........|...........|...........
|A#403v64SD2|...........|D#604v64SD2|C-704v64SD2|...........|...........|...........|...........|...........|...........|...........|...........|...........|...........|D#707v64SD2|C-807v64SD2|...........|...........|...........|...........|...........|...........|...........|E-313v08SD2|F#312v64SD2|C-302v64SD2|...........|...........|...........|D#609v64SD2|C-709v64SD2|...........|...........|...........|...........|...........|...........|...........|...........|...........|...........|...........|...........|...........
|...........|...........|...........|...........|...........|...........|...........|...........|...........|...........|...........|...........|...........|...........|...........|...........|...........|...........|...........|...........|...........|...........|...........|E-313v08SD2|...........|...........|...........|...........|...........|...........|...........|...........|...........|...........|...........|...........|...........|...........|...........|...........|...........|...........|...........|...........
|...........|...........|...........|...........|...........|...........|...........|...........|...........|...........|...........|...........|...........|...........|...........|...........|...........|...........|...........|...........|...........|...........|...........|E-313v08SD2|...........|...........|...........|...........|...........|...........|...........|...........|...........|...........|...........|...........|...........|...........|...........|...........|...........|...........|...........|...........
|...........|...........|...........|...........|...........|...........|...........|...........|...........|...........|...........|...........|...........|...........|...........|...........|...........|...........|...........|...........|...........|...........|...........|E-313v08SD2|...........|...........|...........|...........|...........|...........|...........|...........|...........|...........|...........|...........|...........|...........|...........|...........|...........|...........|...........|...........
|F-503v64SD2|...........|D#604v64SD2|A#604v64SD2|...........|...........|...........|...........|...........|...........|...........|...........|...........|...........|D#707v64SD2|A#707v64SD2|...........|...........|...........|...........|...........|...........|...........|E-313v08SD2|A#314v64SD2|...........|...........|...........|...........|D#609v64SD2|A#609v64SD2|...........|...........|...........|...........|...........|...........|...........|...........|...........|...........|...........|...........|...........
|...........|...........|...........|...........|...........|...........|...........|...........|...........|...........|...........|...........|...........|...........|...........|...........|...........|...........|...........|...........|...........|...........|...........|E-313v08SD2|...........|...........|...........|...........|...........|...........|...........|...........|...........|...........|...........|...........|...........|...........|...........|...........|...........|...........|...........|...........
|...........|...........|===.....SD2|===.....SD2|...........|...........|...........|...........|...........|...........|...........|...........|...........|...........|===.....SD2|===.....SD2|...........|...........|...........|...........|...........|...........|...........|E-313v08SD2|...........|...........|...........|...........|...........|===.....SD2|===.....SD2|...........|...........|...........|...........|...........|...........|...........|...........|...........|...........|...........|...........|...........
|...........|...........|...........|...........|...........|...........|...........|...........|...........|===.....SD4|===.....SD4|===.....SD4|...........|...........|...........|...........|...........|...........|...........|...........|...........|...........|...........|E-313v08SD2|...........|...........|...........|...........|...........|...........|...........|...........|...........|...........|...........|...........|...........|...........|...........|...........|===.....SD4|===.....SD4|===.....SD4|...........
|C-503v64SD2|...........|G-604v64SD2|C-704v64SD2|...........|...........|...........|...........|...........|C-406v64SD2|G-406v64SD2|C-606v64SD2|...........|...........|G-707v64SD2|C-807v64SD2|...........|...........|...........|...........|...........|C-508v64SD2|===.....SD2|E-313v08SD2|F#312v64SD2|C-302v64SD2|...........|...........|...........|G-609v64SD2|C-709v64SD2|...........|...........|...........|...........|...........|...........|...........|...........|...........|C-411v52SD2|G-411v52SD2|C-611v52SD2|...........
|...........|...........|...........|...........|...........|...........|...........|...........|...........|...........|...........|...........|...........|...........|...........|...........|...........|...........|...........|...........|...........|...........|...........|E-313v08SD2|...........|...........|...........|...........|...........|...........|...........|...........|...........|...........|...........|...........|...........|...........|...........|...........|...........|...........|...........|...........
|...........|...........|...........|...........|...........|...........|...........|...........|...........|...........|...........|...........|...........|...........|...........|...........|...........|...........|...........|...........|...........|...........|...........|E-313v08SD2|...........|...........|...........|...........|...........|...........|...........|...........|...........|...........|...........|...........|...........|...........|...........|...........|...........|...........|...........|...........
|...........|...........|...........|...........|...........|...........|...........|...........|...........|...........|...........|...........|...........|...........|...........|...........|...........|...........|...........|...........|...........|...........|...........|E-313v08SD2|...........|...........|...........|...........|...........|...........|...........|...........|...........|...........|...........|...........|...........|...........|...........|...........|...........|...........|...........|...........
|G-503v64SD2|...........|...........|...........|...........|...........|...........|...........|...........|...........|...........|...........|...........|...........|...........|...........|...........|...........|...........|...........|...........|...........|...........|E-313v17SD2|A#314v64SD2|...........|...........|...........|...........|...........|...........|...........|...........|...........|...........|...........|...........|...........|...........|...........|...........|...........|...........|...........
|...........|...........|...........|...........|...........|...........|...........|...........|...........|...........|...........|...........|...........|...........|...........|...........|...........|...........|...........|...........|...........|...........|...........|E-313v17SD2|...........|...........|...........|...........|...........|...........|...........|...........|...........|...........|...........|...........|...........|...........|...........|...........|...........|...........|...........|...........
|...........|...........|...........|...........|...........|...........|...........|...........|...........|...........|...........|...........|...........|...........|...........|...........|...........|...........|...........|...........|...........|...........|...........|E-313v28SD2|...........|...........|...........|...........|...........|...........|...........|...........|...........|...........|...........|...........|...........|...........|...........|...........|...........|...........|...........|...........
|...........|...........|...........|...........|...........|...........|...........|...........|...........|...........|...........|...........|...........|...........|...........|...........|...........|...........|...........|...........|...........|...........|...........|E-313v28SD2|...........|...........|...........|...........|...........|...........|...........|...........|...........|...........|...........|...........|...........|...........|...........|...........|...........|...........|...........|...........
|C-503v64SD2|...........|...........|...........|...........|...........|...........|...........|...........|...........|...........|...........|...........|...........|...........|...........|...........|...........|...........|...........|...........|...........|...........|E-313v42SD2|F#312v64SD2|C-302v64SD2|...........|...........|...........|...........|...........|...........|...........|...........|...........|...........|...........|...........|...........|...........|...........|...........|...........|...........
|...........|...........|...........|...........|...........|...........|...........|...........|...........|...........|...........|...........|...........|...........|...........|...........|...........|...........|...........|...........|...........|...........|...........|E-313v59SD2|...........|...........|...........|...........|...........|...........|...........|...........|...........|...........|...........|...........|...........|...........|...........|...........|...........|...........|...........|...........
|...........|...........|...........|...........|...........|...........|...........|...........|...........|...........|...........|...........|...........|...........|...........|...........|...........|...........|...........|...........|...........|...........|...........|E-313v64SD2|...........|...........|...........|...........|...........|...........|...........|...........|...........|...........|...........|...........|...........|...........|...........|...........|...........|...........|...........|...........
|...........|...........|...........|...........|...........|...........|...........|...........|...........|...........|...........|...........|...........|...........|...........|...........|...........|...........|...........|...........|...........|...........|...........|E-313v64SD2|...........|...........|...........|...........|...........|...........|...........|...........|...........|...........|...........|...........|...........|...........|...........|...........|...........|...........|...........|...........
|G-503v64SD2|...........|...........|...........|...........|...........|...........|...........|...........|...........|...........|...........|...........|...........|...........|...........|...........|...........|...........|...........|...........|...........|...........|E-313v64SD2|A#314v64SD2|...........|...........|...........|...........|...........|...........|...........|...........|...........|...........|...........|...........|...........|...........|...........|...........|...........|...........|...........
|...........|...........|...........|...........|...........|...........|...........|...........|...........|...........|...........|...........|...........|...........|...........|...........|...........|...........|...........|...........|...........|...........|...........|E-313v64SD2|...........|...........|...........|...........|...........|...........|...........|...........|...........|...........|...........|...........|...........|...........|...........|...........|...........|...........|...........|...........
|...........|...........|...........|...........|...........|...........|...........|...........|...........|...........|...........|...........|...........|...........|...........|...........|...........|...........|...........|...........|...........|...........|...........|E-313v64SD2|...........|...........|...........|...........|...........|...........|...........|...........|...........|...........|...........|...........|...........|...........|...........|...........|...........|...........|...........|...........
|...........|...........|...........|...........|...........|...........|...........|...........|...........|...........|...........|...........|...........|...........|...........|...........|...........|...........|...........|...........|...........|...........|...........|E-313v64SD2|...........|...........|...........|...........|...........|...........|...........|...........|...........|...........|...........|...........|...........|...........|...........|...........|...........|...........|...........|...........
|C-503v64SD2|...........|...........|...........|...........|...........|...........|...........|...........|...........|...........|...........|...........|...........|...........|...........|...........|...........|...........|...........|...........|...........|...........|E-313v64SD2|F#312v64SD2|C-302v64SD2|...........|...........|...........|...........|...........|...........|...........|...........|...........|...........|...........|...........|...........|...........|...........|...........|...........|...........
|...........|...........|...........|...........|...........|...........|...........|...........|...........|...........|...........|...........|...........|...........|...........|...........|...........|...........|...........|...........|...........|...........|...........|E-313v64SD2|...........|...........|...........|...........|...........|...........|...........|...........|...........|...........|...........|...........|...........|...........|...........|...........|...........|...........|...........|...........
|...........|...........|...........|...........|...........|...........|...........|...........|...........|...........|...........|...........|...........|...........|...........|...........|...........|...........|...........|...........|...........|...........|...........|E-313v64SD2|...........|...........|...........|...........|...........|...........|...........|...........|...........|...........|...........|...........|...........|...........|...........|...........|...........|...........|...........|...........
|...........|...........|...........|...........|...........|...........|...........|...........|...........|...........|...........|...........|...........|...........|...........|...........|...........|...........|...........|...........|...........|...........|...........|E-313v64SD2|...........|...........|...........|...........|...........|...........|...........|...........|...........|...........|...........|...........|...........|...........|...........|...........|...........|...........|...........|...........
|G-503v64SD2|...........|...........|...........|...........|...........|...........|...........|...........|...........|...........|...........|...........|...........|...........|...........|...........|...........|...........|...........|...........|...........|...........|E-313v64SD2|D-315v42SD2|A#314v64SD2|...........|...........|...........|...........|...........|...........|...........|...........|...........|...........|...........|...........|...........|...........|...........|...........|...........|...........
|...........|...........|...........|...........|...........|...........|...........|...........|...........|...........|...........|...........|...........|...........|...........|...........|...........|...........|...........|...........|...........|...........|...........|E-313v64SD2|...........|...........|...........|...........|...........|...........|...........|...........|...........|...........|...........|...........|...........|...........|...........|...........|...........|...........|...........|...........
|...........|...........|...........|...........|...........|...........|...........|...........|...........|...........|...........|...........|...........|...........|...........|...........|...........|...........|...........|...........|...........|...........|...........|E-313v64SD2|...........|...........|...........|...........|...........|...........|...........|...........|...........|...........|...........|...........|...........|...........|...........|...........|...........|...........|...........|...........
|...........|...........|...........|...........|...........|...........|...........|...........|...........|...........|...........|...........|...........|...........|...........|...........|...........|...........|...........|...........|...........|...........|...........|E-313v64SD2|...........|...........|...........|...........|...........|...........|...........|...........|...........|...........|...........|...........|...........|...........|...........|...........|...........|...........|...........|...........
|C-503v64SD2|...........|...........|...........|...........|...........|...........|...........|...........|...........|...........|...........|...........|...........|...........|...........|...........|...........|...........|...........|...........|...........|...........|E-313v64SD2|F#312v64SD2|C-302v64SD2|...........|...........|...........|...........|...........|...........|...........|...........|...........|...........|...........|...........|...........|...........|...........|...........|...........|...........
|...........|...........|...........|...........|...........|...........|...........|...........|...........|...........|...........|...........|...........|...........|...........|...........|...........|...........|...........|...........|...........|...........|...........|E-313v64SD2|...........|...........|...........|...........|...........|...........|...........|...........|...........|...........|...........|...........|...........|...........|...........|...........|...........|...........|...........|...........
|...........|...........|...........|...........|...........|...........|...........|...........|...........|...........|...........|...........|...........|...........|...........|...........|...........|...........|...........|...........|...........|...........|...........|E-313v64SD2|D-315v42SD2|...........|...........|...........|...........|...........|...........|...........|...........|...........|...........|...........|...........|...........|...........|...........|...........|...........|...........|...........
|...........|...........|...........|...........|...........|...........|...........|...........|...........|...........|...........|...........|...........|...........|...........|...........|...........|...........|...........|...........|...........|...........|...........|E-313v64SD2|...........|...........|...........|...........|...........|...........|...........|...........|...........|...........|...........|...........|...........|...........|...........|...........|...........|...........|...........|...........
|G-503v64SD2|...........|...........|...........|...........|...........|...........|...........|...........|...........|...........|...........|...........|...........|...........|...........|...........|...........|...........|...........|...........|...........|...........|E-313v64SD2|A#314v64SD2|...........|...........|...........|...........|...........|...........|...........|...........|...........|...........|...........|...........|...........|...........|...........|...........|...........|...........|...........
|...........|...........|...........|...........|...........|...........|...........|...........|...........|...........|...........|...........|...........|...........|...........|...........|...........|...........|...........|...........|...........|...........|...........|E-313v64SD2|...........|...........|...........|...........|...........|...........|...........|...........|...........|...........|...........|...........|...........|...........|...........|...........|...........|...........|...........|...........
|...........|...........|...........|...........|...........|...........|...........|...........|...........|...........|...........|...........|...........|...........|...........|...........|...........|...........|...........|...........|...........|...........|...........|E-313v64SD2|D-315v42SD2|...........|...........|...........|...........|...........|...........|...........|...........|...........|...........|...........|...........|...........|...........|...........|...........|...........|...........|...........
|...........|...........|...........|...........|...........|...........|...........|...........|...........|...........|...........|...........|...........|...........|...........|...........|...........|...........|...........|...........|...........|...........|...........|E-313v64SD2|...........|...........|...........|...........|...........|...........|...........|...........|...........|...........|...........|...........|...........|...........|...........|...........|...........|...........|...........|...........
|===.....SD1|...........|===........|===........|...........|...........|...........|...........|...........|===........|===........|===........|...........|...........|===........|===........|...........|...........|...........|...........|...........|===........|...........|...........|...........|...........|...........|...........|...........|===........|===........|...........|...........|...........|...........|...........|...........|...........|...........|...........|===........|===........|===........|........T99
